<svg id="bookmark" xmlns="http://www.w3.org/2000/svg" width="27.686" height="39.086" viewBox="0 0 27.686 39.086">
  <path id="Path_556" data-name="Path 556" d="M23.671,0H5.714A5.707,5.707,0,0,0,0,5.7V38.272a.818.818,0,0,0,1.394.577l9.217-9.208c3.608,3.552,8.579,8.469,9.113,9.074a.817.817,0,0,0,1.435-.142.5.5,0,0,0,.064-.3V4.071a2.446,2.446,0,0,1,2.449-2.443.814.814,0,1,0,0-1.629Z" transform="translate(0 0)" fill="#ffc107"/>
  <path id="Path_557" data-name="Path 557" d="M3.2,0h0A3.2,3.2,0,0,1,6.4,3.2V5.6a.8.8,0,0,1-.8.8H0V3.2A3.2,3.2,0,0,1,3.2,0Z" transform="translate(21.289 0)" fill="#daa505"/>
</svg>
