<svg xmlns="http://www.w3.org/2000/svg" width="24" height="24" viewBox="0 0 24 24">
  <g id="_2_Financials" data-name="2 Financials" transform="translate(-684 -444)">
    <g id="coin">
      <path id="Vector" d="M15.98,7.99A7.99,7.99,0,1,1,7.99,0,7.99,7.99,0,0,1,15.98,7.99Z" transform="translate(686 446)" fill="#dc2434" opacity="0.4"/>
      <path id="Vector-2" data-name="Vector" d="M10.89,4.91A5.978,5.978,0,0,1,0,8.32,9.458,9.458,0,0,0,8.32,0,5.969,5.969,0,0,1,10.89,4.91Z" transform="translate(695.08 455.08)" fill="#dc2434"/>
      <path id="Vector-3" data-name="Vector" d="M4.2,4.05,1.8,3.21c-.24-.08-.29-.1-.29-.45a.44.44,0,0,1,.41-.47h1.5A.618.618,0,0,1,4,2.94a.75.75,0,0,0,1.5,0A2.124,2.124,0,0,0,3.5.8V.75A.75.75,0,0,0,2,.75V.8H1.91A1.943,1.943,0,0,0,0,2.77,1.777,1.777,0,0,0,1.29,4.63l2.41.84c.24.08.29.1.29.45a.44.44,0,0,1-.41.47H2.08a.618.618,0,0,1-.58-.65.755.755,0,0,0-.75-.75A.755.755,0,0,0,0,5.74,2.124,2.124,0,0,0,2,7.88v.06a.75.75,0,0,0,1.5,0V7.89h.09A1.943,1.943,0,0,0,5.5,5.92,1.8,1.8,0,0,0,4.2,4.05Z" transform="translate(691.25 449.66)" fill="#dc2434"/>
      <path id="Vector-4" data-name="Vector" d="M0,0H24V24H0Z" transform="translate(684 444)" fill="none" opacity="0"/>
    </g>
  </g>
</svg>
