<svg xmlns="http://www.w3.org/2000/svg" width="24" height="24" viewBox="0 0 24 24">
  <g id="_9_Facilities_managment" data-name="9 Facilities managment" transform="translate(-364 -188)">
    <g id="buildings">
      <path id="Vector" d="M0,0H24V24H0Z" transform="translate(364 188)" fill="none" opacity="0"/>
      <path id="Vector-2" data-name="Vector" d="M5.11,0A3.879,3.879,0,0,0,5,1V4H0V2A2.006,2.006,0,0,1,2,0Z" transform="translate(369 192)" fill="#dc2434" opacity="0.6"/>
      <path id="Vector-3" data-name="Vector" d="M8,11V0H3A2.652,2.652,0,0,0,0,3v8a2.652,2.652,0,0,0,3,3h8A2.652,2.652,0,0,1,8,11ZM4.75,9a.75.75,0,0,1-1.5,0V5a.75.75,0,0,1,1.5,0Z" transform="translate(366 196)" fill="#dc2434"/>
      <path id="Vector-4" data-name="Vector" d="M4,20H3a2.652,2.652,0,0,1-3-3V3A2.652,2.652,0,0,1,3,0H9a2.652,2.652,0,0,1,3,3V17a2.652,2.652,0,0,1-3,3H8" transform="translate(374 190)" fill="#dc2434" opacity="0.4"/>
      <path id="Vector-5" data-name="Vector" d="M4,1V5H0V1A1,1,0,0,1,1,0H3A1,1,0,0,1,4,1Z" transform="translate(378 205)" fill="#dc2434"/>
      <g id="Group">
        <path id="Vector-6" data-name="Vector" d="M.75,6.5A.755.755,0,0,1,0,5.75v-5A.755.755,0,0,1,.75,0,.755.755,0,0,1,1.5.75v5A.755.755,0,0,1,.75,6.5Z" transform="translate(377.25 195.25)" fill="#dc2434"/>
      </g>
      <g id="Group-2" data-name="Group">
        <path id="Vector-7" data-name="Vector" d="M.75,6.5A.755.755,0,0,1,0,5.75v-5A.755.755,0,0,1,.75,0,.755.755,0,0,1,1.5.75v5A.755.755,0,0,1,.75,6.5Z" transform="translate(381.25 195.25)" fill="#dc2434"/>
      </g>
    </g>
  </g>
</svg>
