<svg id="noun-active-user-3761685_2_" data-name="noun-active-user-3761685 (2)" xmlns="http://www.w3.org/2000/svg" width="45.34" height="44" viewBox="0 0 45.34 44">
  <path id="Path_282" data-name="Path 282" d="M264.57,436.762a5.719,5.719,0,1,1-5.715-5.5,5.612,5.612,0,0,1,5.715,5.5" transform="translate(-244.376 -415.871)" fill="#dc2434"/>
  <path id="Path_283" data-name="Path 283" d="M872.791,116.51l-1.947,1.247.846,1.221,2.286-1.467a.727.727,0,0,0,.339-.608v-4.4h-1.524Z" transform="translate(-836.976 -109.583)" fill="#dc2434"/>
  <path id="Path_284" data-name="Path 284" d="M781.944,47.086a.386.386,0,0,0,.3-.147l2.286-2.917a.355.355,0,0,0,.036-.384.383.383,0,0,0-.341-.2L782.6,43.43a6.528,6.528,0,0,0-2.11-3.75,6.978,6.978,0,0,0-4.053-1.723,7.057,7.057,0,0,0-4.3,1.025,6.641,6.641,0,0,0-2.749,3.344,6.361,6.361,0,0,0-.048,4.264,6.626,6.626,0,0,0,2.672,3.4,7.058,7.058,0,0,0,8.366-.521l-1.008-1.1h0a5.476,5.476,0,0,1-4.311,1.227,5.349,5.349,0,0,1-3.754-2.381,4.969,4.969,0,0,1-.531-4.3,5.22,5.22,0,0,1,3.07-3.162,5.52,5.52,0,0,1,4.49.22,5.164,5.164,0,0,1,2.72,3.446l-1.4-.005a.383.383,0,0,0-.341.2.356.356,0,0,0,.036.384l2.286,2.934a.386.386,0,0,0,.3.147Z" transform="translate(-739.271 -37.933)" fill="#dc2434"/>
  <path id="Path_285" data-name="Path 285" d="M480.935,849.615a5.761,5.761,0,0,0-1.786-4.15,6.265,6.265,0,0,0-8.622,0,5.716,5.716,0,0,0,0,8.3,6.265,6.265,0,0,0,8.622,0A5.76,5.76,0,0,0,480.935,849.615Zm-6.629,3.6a.781.781,0,0,1-.6-.136l-2.389-1.738.914-1.17,1.726,1.255,3.1-4.746,1.3.779-3.532,5.429a.765.765,0,0,1-.513.328Z" transform="translate(-451.216 -812.218)" fill="#dc2434"/>
  <path id="Path_286" data-name="Path 286" d="M675,637.5h3.048v1.467H675Z" transform="translate(-649.091 -614.041)" fill="#dc2434"/>
  <path id="Path_287" data-name="Path 287" d="M37.5,637.5h3.048v1.467H37.5Z" transform="translate(-37.5 -614.041)" fill="#dc2434"/>
  <path id="Path_288" data-name="Path 288" d="M375,262.5h1.524v2.934H375Z" transform="translate(-361.284 -253.714)" fill="#dc2434"/>
  <path id="Path_289" data-name="Path 289" d="M605.88,366.634l2.155-2.075,1.078,1.037-2.155,2.075Z" transform="translate(-582.78 -351.779)" fill="#dc2434"/>
  <path id="Path_290" data-name="Path 290" d="M102.07,365.591l1.078-1.037,2.155,2.075-1.078,1.037Z" transform="translate(-99.446 -351.775)" fill="#dc2434"/>
  <path id="Path_291" data-name="Path 291" d="M161.426,723.5a7.129,7.129,0,0,1,1.15-3.879,7.52,7.52,0,0,1,3.108-2.706,7.871,7.871,0,0,1,4.124-.713v-.771a2.88,2.88,0,0,0-.893-2.075,3.109,3.109,0,0,0-2.155-.859H153.044a3.109,3.109,0,0,0-2.155.859,2.88,2.88,0,0,0-.893,2.075v14.672h15.751a7.532,7.532,0,0,1-3.148-2.7,7.136,7.136,0,0,1-1.173-3.9Z" transform="translate(-145.424 -686.107)" fill="#dc2434"/>
</svg>
