<svg width="30" height="30" viewBox="0 0 30 30" fill="none" xmlns="http://www.w3.org/2000/svg">
<path d="M25.6952 4.10501C25.479 3.93792 25.1976 3.8807 24.9334 3.95033C24.1963 4.14251 23.4376 4.23958 22.6758 4.2392C21.3436 4.24164 20.0278 3.94458 18.8258 3.36978C17.6239 2.79498 16.5667 1.95728 15.7323 0.9187C15.5706 0.712743 15.3255 0.5896 15.0638 0.58285C14.802 0.576014 14.5509 0.686268 14.3788 0.883525C14.3688 0.894658 14.3559 0.909893 14.3413 0.928055C13.5069 1.96468 12.4503 2.80051 11.2495 3.37406C10.0488 3.94761 8.73455 4.24398 7.4038 4.24153C6.621 4.24202 5.8415 4.13977 5.08525 3.93743C4.82127 3.86575 4.53905 3.92102 4.32167 4.08704C4.10429 4.25296 3.97655 4.51067 3.97607 4.78412V18.3896C3.97607 24.4716 8.92432 29.4199 15.0063 29.4199C21.0883 29.4199 26.0366 24.4716 26.0366 18.3896V4.80061C26.0366 4.52834 25.9104 4.27152 25.695 4.10512L25.6952 4.10501ZM20.6971 12.2378L13.9296 19.0053C13.7648 19.17 13.5413 19.2626 13.3083 19.2626C13.0753 19.2626 12.8517 19.17 12.6869 19.0053L9.30315 15.6215C9.08108 15.3993 8.99435 15.0755 9.07571 14.772C9.15715 14.4686 9.39426 14.2316 9.69768 14.1503C10.0012 14.0691 10.325 14.156 10.5471 14.3782L13.3091 17.1402L19.4534 10.9942C19.6766 10.7785 19.997 10.6967 20.2963 10.7787C20.5957 10.8608 20.8295 11.0947 20.9116 11.394C20.9936 11.6933 20.9118 12.0137 20.6961 12.2369L20.6971 12.2378Z" fill="#DC2434"/>
</svg>
