<svg width="30" height="30" viewBox="0 0 30 30" fill="none" xmlns="http://www.w3.org/2000/svg">
<path d="M13.3616 14.2441C13.3616 16.3159 11.6685 17.9954 9.58021 17.9954C7.4919 17.9954 5.79883 16.3158 5.79883 14.2441C5.79883 12.1724 7.4919 10.4928 9.58021 10.4928C11.6685 10.4928 13.3616 12.1724 13.3616 14.2441Z" fill="#DC2434"/>
<path d="M23.6974 4.72279L22.4092 5.57311L22.9688 6.40541L24.4814 5.40502C24.6211 5.31259 24.7053 5.15701 24.7058 4.99038V1.98923H23.6974L23.6974 4.72279Z" fill="#DC2434"/>
<path d="M28.2356 6.24099C28.3149 6.24099 28.3897 6.20389 28.4373 6.14095L29.9499 4.15216C30.0071 4.0764 30.0164 3.97501 29.9737 3.89029C29.931 3.80557 29.8437 3.752 29.7482 3.752L28.6723 3.74804C28.5051 2.76591 28.0141 1.8666 27.2761 1.19133C26.5381 0.515975 25.595 0.102882 24.5947 0.0168225C23.5945 -0.0692533 22.5938 0.176676 21.7497 0.715838C20.9055 1.25501 20.2656 2.05697 19.9307 2.99589C19.5957 3.93489 19.5843 4.95758 19.8986 5.90341C20.2128 6.8494 20.8347 7.66513 21.6669 8.22254C22.4989 8.77985 23.494 9.04744 24.4958 8.98305C25.4977 8.91875 26.4497 8.5262 27.2024 7.8671L26.5353 7.11681H26.5352C25.7552 7.79904 24.7114 8.10522 23.6827 7.95358C22.654 7.80196 21.7451 7.2081 21.1985 6.33024C20.652 5.45251 20.5235 4.38031 20.8474 3.40004C21.1712 2.41967 21.9145 1.63083 22.8787 1.24423C23.8428 0.857519 24.9298 0.91242 25.8496 1.39418C26.7692 1.87602 27.4278 2.73563 27.6496 3.74362L26.7229 3.74008C26.6274 3.74008 26.5401 3.79364 26.4974 3.87836C26.4547 3.96308 26.464 4.06447 26.5212 4.14023L28.0338 6.141C28.0814 6.20394 28.1562 6.24104 28.2355 6.24104L28.2356 6.24099Z" fill="#DC2434"/>
<path d="M19.6641 25.4983C19.6641 24.437 19.2391 23.4191 18.4827 22.6686C17.7263 21.9182 16.7003 21.4966 15.6304 21.4966C14.5606 21.4966 13.5346 21.9182 12.7781 22.6686C12.0216 23.419 11.5967 24.4369 11.5967 25.4983C11.5967 26.5596 12.0217 27.5774 12.7781 28.3279C13.5345 29.0784 14.5606 29.4999 15.6304 29.4999C16.7003 29.4999 17.7262 29.0783 18.4827 28.3279C19.2392 27.5775 19.6641 26.5596 19.6641 25.4983ZM15.2777 27.9537C15.1387 27.9795 14.9951 27.9459 14.8824 27.8611L13.3018 26.6762L13.9068 25.8784L15.0488 26.7337L17.0968 23.4975L17.954 24.0288L15.617 27.7302C15.5406 27.8487 15.4175 27.9299 15.2777 27.9537L15.2777 27.9537Z" fill="#DC2434"/>
<path d="M17.1431 15.9946H19.1599V16.995H17.1431V15.9946Z" fill="#DC2434"/>
<path d="M0 15.9946H2.01681V16.995H0V15.9946Z" fill="#DC2434"/>
<path d="M9.07568 5.99075H10.0841V7.99152H9.07568V5.99075Z" fill="#DC2434"/>
<path d="M15.2842 10.1281L16.7102 8.71338L17.4233 9.42075L15.9972 10.8354L15.2842 10.1281Z" fill="#DC2434"/>
<path d="M1.73633 9.42062L2.44936 8.71326L3.87541 10.128L3.16237 10.8353L1.73633 9.42062Z" fill="#DC2434"/>
<path d="M10.5885 25.4982C10.5878 24.5633 10.8513 23.6469 11.3493 22.8532C11.8474 22.0594 12.5599 21.4202 13.4058 21.0081C14.2517 20.596 15.1971 20.4275 16.1346 20.5219V19.9961C16.1346 19.4655 15.9221 18.9566 15.5439 18.5814C15.1657 18.2062 14.6527 17.9954 14.1178 17.9954H5.0422C4.50731 17.9954 3.99429 18.2062 3.61615 18.5814C3.23791 18.9566 3.02539 19.4655 3.02539 19.9961V30H13.4472C12.592 29.5924 11.8701 28.9538 11.3644 28.1575C10.8586 27.3612 10.5897 26.4395 10.5884 25.4982H10.5885Z" fill="#DC2434"/>
</svg>
