<svg id="Layer_1" data-name="Layer 1" xmlns="http://www.w3.org/2000/svg" viewBox="0 0 64 64"><defs><style>.cls-1{fill:#dfe8f4;}.cls-2{fill:#ff5454;}.cls-3{fill:#dd1515;}.cls-4{fill:#ccd8e5;}</style></defs><title>commerce, ecommerce, shopping, architecture, building, shop, store, smartphone</title><rect class="cls-1" x="24.86" y="8" width="30.67" height="48" rx="5.39"/><path class="cls-2" d="M50.14,8H30.25a5.39,5.39,0,0,0-5.39,5.39V50.61A5.39,5.39,0,0,0,30.25,56H50.14a5.39,5.39,0,0,0,5.39-5.39V13.39A5.39,5.39,0,0,0,50.14,8Zm3.39,42.61A3.39,3.39,0,0,1,50.14,54H30.25a3.39,3.39,0,0,1-3.39-3.39V13.39A3.39,3.39,0,0,1,30.25,10h2.51a1.82,1.82,0,0,1,1.42.67h0a1.84,1.84,0,0,0,1.42.66h9.19a1.84,1.84,0,0,0,1.41-.66h0A1.82,1.82,0,0,1,47.62,10h2.52a3.39,3.39,0,0,1,3.39,3.39Z"/><path class="cls-3" d="M24.75,20.91h.11a0,0,0,0,1,0,0v3.69a0,0,0,0,1,0,0h-.11a.37.37,0,0,1-.37-.37v-3A.37.37,0,0,1,24.75,20.91Z"/><path class="cls-3" d="M24.75,25.36h.11a0,0,0,0,1,0,0V29a0,0,0,0,1,0,0h-.11a.37.37,0,0,1-.37-.37v-3A.37.37,0,0,1,24.75,25.36Z"/><path class="cls-3" d="M55.89,20.91H56a0,0,0,0,1,0,0v3.69a0,0,0,0,1,0,0h-.11a.37.37,0,0,1-.37-.37v-3A.37.37,0,0,1,55.89,20.91Z" transform="translate(111.53 45.5) rotate(180)"/><path class="cls-3" d="M22.68,31.2h.13A12.79,12.79,0,0,1,35.59,44V56a0,0,0,0,1,0,0H9.89a0,0,0,0,1,0,0V44A12.79,12.79,0,0,1,22.68,31.2Z"/><path class="cls-4" d="M24.24,30.74h-3A11.87,11.87,0,0,0,9.36,42.61H36.12A11.87,11.87,0,0,0,24.24,30.74Z"/><path class="cls-1" d="M14.44,45.24h0a2.08,2.08,0,0,1-2.07-2.08V41h4.15v2.16A2.08,2.08,0,0,1,14.44,45.24Z"/><path class="cls-4" d="M18.59,45.24h0a2.08,2.08,0,0,1-2.07-2.08V41h4.15v2.16A2.08,2.08,0,0,1,18.59,45.24Z"/><path class="cls-4" d="M9.28,41h3.09a0,0,0,0,1,0,0v2.16a2.07,2.07,0,0,1-2.07,2.07H8.49A.27.27,0,0,1,8.22,45v-2.9A1.06,1.06,0,0,1,9.28,41Z"/><path class="cls-1" d="M22.74,45.24h0a2.07,2.07,0,0,1-2.07-2.08V41h4.14v2.16A2.07,2.07,0,0,1,22.74,45.24Z"/><path class="cls-4" d="M26.89,45.24h0a2.08,2.08,0,0,1-2.08-2.08V41H29v2.16A2.07,2.07,0,0,1,26.89,45.24Z"/><path class="cls-4" d="M33.11,41H36.2a1.06,1.06,0,0,1,1.06,1.06V45a.27.27,0,0,1-.27.27h-1.8a2.07,2.07,0,0,1-2.07-2.07V41A0,0,0,0,1,33.11,41Z"/><path class="cls-1" d="M31,45.24h0A2.08,2.08,0,0,1,29,43.16V41h4.15v2.16A2.08,2.08,0,0,1,31,45.24Z"/><path class="cls-2" d="M16.52,51.86H12.37V49.79a2.08,2.08,0,0,1,2.07-2.08h0a2.08,2.08,0,0,1,2.08,2.08Z"/><rect class="cls-2" x="12.04" y="51.86" width="4.8" height="0.56" rx="0.14"/><path class="cls-2" d="M33.11,51.86H29V49.79A2.08,2.08,0,0,1,31,47.71h0a2.08,2.08,0,0,1,2.07,2.08Z"/><rect class="cls-2" x="28.64" y="51.86" width="4.8" height="0.56" rx="0.14"/><path class="cls-2" d="M36.76,56h-28a.5.5,0,0,1-.5-.5h0a.5.5,0,0,1,.5-.51h28a.5.5,0,0,1,.5.51h0A.5.5,0,0,1,36.76,56Z"/><path class="cls-2" d="M22.48,47.71H19a.43.43,0,0,0-.43.43V55h3.89Z"/><path class="cls-2" d="M26.46,47.71H23V55h3.89V48.14A.43.43,0,0,0,26.46,47.71Z"/></svg>