<svg id="Layer_1" data-name="Layer 1" xmlns="http://www.w3.org/2000/svg" viewBox="0 0 64 64"><defs><style>.cls-1{fill:#ff5454;}.cls-2{fill:#dd1515;}.cls-3{fill:#ccd8e5;}.cls-4{fill:#fff;}</style></defs><title>commerce, ecommerce, shopping, confirm, complete, box, package</title><rect class="cls-1" x="8.14" y="14.75" width="48" height="41.25" rx="2.25"/><path class="cls-2" d="M53.89,56a2.25,2.25,0,0,0,2.25-2.25V17a2.25,2.25,0,0,0-2.25-2.25H30.29L25.19,25.8l25,25A7.28,7.28,0,0,1,52.36,56h1.53Z"/><path class="cls-3" d="M24.86,14.75H39.42a0,0,0,0,1,0,0V25a1,1,0,0,1-1,1H25.88a1,1,0,0,1-1-1V14.75A0,0,0,0,1,24.86,14.75Z"/><path class="cls-4" d="M29.67,43.42l-2.82-2.83a2.08,2.08,0,0,1-.3-2.65,2,2,0,0,1,3.05-.26l1,1,4-4a2.07,2.07,0,0,1,2.64-.29,2,2,0,0,1,.26,3l-6.05,6.05A1.27,1.27,0,0,1,29.67,43.42Z"/></svg>