<svg id="Layer_1" data-name="Layer 1" xmlns="http://www.w3.org/2000/svg" viewBox="0 0 64 64"><defs><style>.cls-1{fill:#ff5454;}.cls-2{fill:#dd1515;}.cls-3{fill:#ccd8e5;}.cls-4{fill:#fff;}</style></defs><title>commerce, ecommerce, shopping, add, new, box, package</title><rect class="cls-1" x="8.03" y="14.75" width="48" height="41.25" rx="2.25"/><path class="cls-2" d="M53.78,56A2.25,2.25,0,0,0,56,53.75V17a2.25,2.25,0,0,0-2.25-2.25H30.18L25.09,25.8l25,25A7.29,7.29,0,0,1,52.26,56h1.52Z"/><path class="cls-3" d="M24.75,14.75H39.32a0,0,0,0,1,0,0V25a1,1,0,0,1-1,1H25.78a1,1,0,0,1-1-1V14.75A0,0,0,0,1,24.75,14.75Z"/><rect class="cls-4" x="26.33" y="38.72" width="11.41" height="2.56" rx="0.11"/><rect class="cls-4" x="26.33" y="38.72" width="11.41" height="2.56" rx="0.11" transform="translate(72.03 7.97) rotate(90)"/></svg>