<svg id="Layer_1" data-name="Layer 1" xmlns="http://www.w3.org/2000/svg" viewBox="0 0 64 64"><defs><style>.cls-1{fill:#dfe8f4;}.cls-2{fill:#ff5454;}.cls-3{fill:#dd1515;}.cls-4{fill:#ccd8e5;}.cls-5{fill:#fff;}</style></defs><title>commerce, ecommerce, shopping, duplex, shop, store, browser</title><rect class="cls-1" x="8" y="8" width="48" height="41.13" rx="4.09"/><path class="cls-2" d="M51.91,8H12.09A4.09,4.09,0,0,0,8,12.09V14H56V12.09A4.09,4.09,0,0,0,51.91,8Z"/><rect class="cls-3" x="12.66" y="10.38" width="1.23" height="1.23"/><rect class="cls-3" x="15.19" y="10.38" width="1.23" height="1.23"/><rect class="cls-3" x="17.71" y="10.38" width="1.23" height="1.23"/><rect class="cls-3" x="8" y="14" width="48" height="1.65"/><path class="cls-4" d="M56,18.44H10.79A2.79,2.79,0,0,1,8,15.65H56Z"/><path class="cls-3" d="M21.71,27H42.29a2.1,2.1,0,0,1,2.1,2.1V56a0,0,0,0,1,0,0H19.62a0,0,0,0,1,0,0V29.05A2.1,2.1,0,0,1,21.71,27Z"/><path class="cls-5" d="M24.39,45.07h0a1.91,1.91,0,0,1-1.92-1.91v-2H26.3v2A1.91,1.91,0,0,1,24.39,45.07Z"/><path class="cls-4" d="M28.22,45.07h0a1.91,1.91,0,0,1-1.92-1.91v-2h3.83v2A1.9,1.9,0,0,1,28.22,45.07Z"/><path class="cls-4" d="M19.62,41.16h2.85a0,0,0,0,1,0,0v2a1.92,1.92,0,0,1-1.92,1.92H18.89a.25.25,0,0,1-.25-.25V42.14A1,1,0,0,1,19.62,41.16Z"/><path class="cls-5" d="M32.05,45.07h0a1.91,1.91,0,0,1-1.92-1.91v-2H34v2A1.91,1.91,0,0,1,32.05,45.07Z"/><path class="cls-4" d="M35.88,45.07h0A1.9,1.9,0,0,1,34,43.16v-2H37.8v2A1.91,1.91,0,0,1,35.88,45.07Z"/><path class="cls-4" d="M41.63,41.16h2.85a1,1,0,0,1,1,1v2.68a.25.25,0,0,1-.25.25H43.55a1.92,1.92,0,0,1-1.92-1.92v-2A0,0,0,0,1,41.63,41.16Z"/><path class="cls-5" d="M39.71,45.07h0a1.91,1.91,0,0,1-1.91-1.91v-2h3.83v2A1.91,1.91,0,0,1,39.71,45.07Z"/><path class="cls-5" d="M24.39,30.86h0A1.91,1.91,0,0,1,22.47,29V27H26.3v2A1.91,1.91,0,0,1,24.39,30.86Z"/><path class="cls-4" d="M28.22,30.86h0A1.91,1.91,0,0,1,26.3,29V27h3.83v2A1.9,1.9,0,0,1,28.22,30.86Z"/><path class="cls-4" d="M19.62,27h2.85a0,0,0,0,1,0,0v2a1.92,1.92,0,0,1-1.92,1.92H18.89a.25.25,0,0,1-.25-.25V27.93A1,1,0,0,1,19.62,27Z"/><path class="cls-5" d="M32.05,30.86h0A1.91,1.91,0,0,1,30.13,29V27H34v2A1.91,1.91,0,0,1,32.05,30.86Z"/><path class="cls-4" d="M35.88,30.86h0A1.9,1.9,0,0,1,34,29V27H37.8v2A1.91,1.91,0,0,1,35.88,30.86Z"/><path class="cls-4" d="M41.63,27h2.85a1,1,0,0,1,1,1v2.68a.25.25,0,0,1-.25.25H43.55a1.92,1.92,0,0,1-1.92-1.92V27A0,0,0,0,1,41.63,27Z"/><path class="cls-5" d="M39.71,30.86h0A1.91,1.91,0,0,1,37.8,29V27h3.83v2A1.91,1.91,0,0,1,39.71,30.86Z"/><path class="cls-2" d="M46,56H18a.5.5,0,0,1-.5-.5h0A.5.5,0,0,1,18,55H46a.5.5,0,0,1,.5.51h0A.5.5,0,0,1,46,56Z"/><rect class="cls-2" x="22.17" y="33.21" width="19.67" height="4.86" rx="0.4"/><rect class="cls-2" x="22.17" y="46.87" width="11.8" height="4.86" rx="0.46"/><path class="cls-2" d="M36.4,46.87a.52.52,0,0,0-.52.52V55h2.73V46.87Z"/><path class="cls-2" d="M41.32,46.87H39.11V55h2.72v-7.6A.52.52,0,0,0,41.32,46.87Z"/></svg>