<svg id="Layer_1" data-name="Layer 1" xmlns="http://www.w3.org/2000/svg" viewBox="0 0 64 64"><defs><style>.cls-1{fill:#DD1515;}.cls-2{fill:#FC0707;}.cls-3{fill:#F4DFDF;}.cls-4{fill:#e5cccc;}</style></defs><title>commerce, ecommerce, shopping, duplex, store, shop, monitor, computer</title><path class="cls-1" d="M37.45,50.77h0a2.24,2.24,0,0,1-2.24-2.24V45.27H28.79v3.26a2.24,2.24,0,0,1-2.24,2.24h0A3.55,3.55,0,0,0,23,54.32h0a1.78,1.78,0,0,0,1.79,1.78H39.21A1.78,1.78,0,0,0,41,54.32h0A3.55,3.55,0,0,0,37.45,50.77Z"/><path class="cls-2" d="M37.45,50.77H26.55A3.55,3.55,0,0,0,23,54.32h0a1.78,1.78,0,0,0,1.79,1.78H39.21A1.78,1.78,0,0,0,41,54.32h0A3.55,3.55,0,0,0,37.45,50.77Z"/><rect class="cls-3" x="8" y="13.27" width="48" height="34" rx="4.04"/><path class="cls-2" d="M8,41.48v1.75a4,4,0,0,0,4,4H52a4,4,0,0,0,4-4V41.48Z"/><rect class="cls-4" x="8" y="39.42" width="48" height="2.06"/><circle class="cls-1" cx="32" cy="44.27" r="1.1"/><path class="cls-2" d="M44.38,37.26H19.62V10.31a2.09,2.09,0,0,1,2.09-2.1H42.29a2.09,2.09,0,0,1,2.09,2.1Z"/><path class="cls-3" d="M24.39,26.33h0a1.91,1.91,0,0,1-1.92-1.91v-2H26.3v2A1.91,1.91,0,0,1,24.39,26.33Z"/><path class="cls-4" d="M28.22,26.33h0a1.91,1.91,0,0,1-1.92-1.91v-2h3.83v2A1.9,1.9,0,0,1,28.22,26.33Z"/><path class="cls-4" d="M19.62,22.42h2.85a0,0,0,0,1,0,0v2a1.92,1.92,0,0,1-1.92,1.92H18.89a.25.25,0,0,1-.25-.25V23.4A1,1,0,0,1,19.62,22.42Z"/><path class="cls-3" d="M32.05,26.33h0a1.91,1.91,0,0,1-1.92-1.91v-2H34v2A1.91,1.91,0,0,1,32.05,26.33Z"/><path class="cls-4" d="M35.88,26.33h0A1.9,1.9,0,0,1,34,24.42v-2H37.8v2A1.91,1.91,0,0,1,35.88,26.33Z"/><path class="cls-4" d="M41.63,22.42h2.85a1,1,0,0,1,1,1v2.68a.25.25,0,0,1-.25.25H43.55a1.92,1.92,0,0,1-1.92-1.92v-2A0,0,0,0,1,41.63,22.42Z"/><path class="cls-3" d="M39.71,26.33h0a1.91,1.91,0,0,1-1.91-1.91v-2h3.83v2A1.91,1.91,0,0,1,39.71,26.33Z"/><path class="cls-3" d="M24.39,12.12h0a1.91,1.91,0,0,1-1.92-1.91v-2H26.3v2A1.91,1.91,0,0,1,24.39,12.12Z"/><path class="cls-4" d="M28.22,12.12h0a1.91,1.91,0,0,1-1.92-1.91v-2h3.83v2A1.9,1.9,0,0,1,28.22,12.12Z"/><path class="cls-4" d="M19.62,8.21h2.85a0,0,0,0,1,0,0v2a1.92,1.92,0,0,1-1.92,1.92H18.89a.25.25,0,0,1-.25-.25V9.19A1,1,0,0,1,19.62,8.21Z"/><path class="cls-3" d="M32.05,12.12h0a1.91,1.91,0,0,1-1.92-1.91v-2H34v2A1.91,1.91,0,0,1,32.05,12.12Z"/><path class="cls-4" d="M35.88,12.12h0A1.9,1.9,0,0,1,34,10.21v-2H37.8v2A1.91,1.91,0,0,1,35.88,12.12Z"/><path class="cls-4" d="M41.63,8.21h2.85a1,1,0,0,1,1,1v2.68a.25.25,0,0,1-.25.25H43.55a1.92,1.92,0,0,1-1.92-1.92v-2A0,0,0,0,1,41.63,8.21Z"/><path class="cls-3" d="M39.71,12.12h0a1.91,1.91,0,0,1-1.91-1.91v-2h3.83v2A1.91,1.91,0,0,1,39.71,12.12Z"/><path class="cls-1" d="M46,37.26H18a.5.5,0,0,1-.5-.5h0a.5.5,0,0,1,.5-.51H46a.5.5,0,0,1,.5.51h0A.5.5,0,0,1,46,37.26Z"/><rect class="cls-1" x="22.17" y="14.47" width="19.67" height="4.86" rx="0.4"/><rect class="cls-1" x="22.17" y="28.13" width="11.8" height="4.86" rx="0.46"/><path class="cls-1" d="M36.4,28.13a.52.52,0,0,0-.52.52v7.6h2.73V28.13Z"/><path class="cls-1" d="M41.32,28.13H39.11v8.12h2.72v-7.6A.52.52,0,0,0,41.32,28.13Z"/></svg>