<svg id="Layer_1" data-name="Layer 1" xmlns="http://www.w3.org/2000/svg" viewBox="0 0 64 64"><defs><style>.cls-1{fill:#FC0707;}.cls-2{fill:#DD1515;}.cls-3{fill:#F4DFDF;}.cls-4{fill:#e5cccc;}</style></defs><title>commerce, ecommerce, shopping, unbox, box, star, bookmark</title><path class="cls-1" d="M32.79,8.49,34.5,12a.92.92,0,0,0,.67.49L39,13a.89.89,0,0,1,.5,1.51l-2.77,2.69a.89.89,0,0,0-.25.79l.65,3.8a.88.88,0,0,1-1.28.93l-3.42-1.79a.85.85,0,0,0-.82,0l-3.42,1.79a.88.88,0,0,1-1.28-.93l.65-3.8a.92.92,0,0,0-.25-.79L24.52,14.5A.89.89,0,0,1,25,13l3.81-.55A.92.92,0,0,0,29.5,12l1.71-3.46A.88.88,0,0,1,32.79,8.49Z"/><path class="cls-2" d="M54.5,44.58H36.75L32,36.75H51.23l4,6.57A.83.83,0,0,1,54.5,44.58Z"/><rect class="cls-3" x="12.77" y="36.75" width="19.23" height="19.25"/><path class="cls-4" d="M12.77,40.38v4.2l5.89,5.9A18.88,18.88,0,0,0,32,56h0V36.75H23.16Z"/><rect class="cls-1" x="31.99" y="36.75" width="19.23" height="19.25"/><path class="cls-2" d="M51.22,40.38v4.2l-5.9,5.9A18.86,18.86,0,0,1,32,56h0V36.75H51.23Z"/><path class="cls-4" d="M32,36.75H12.77l-4-6.57a.83.83,0,0,1,.71-1.26H26.77a.84.84,0,0,1,.72.4Z"/><path class="cls-3" d="M9.49,44.58H26.77a.84.84,0,0,0,.72-.4L32,36.75H12.77l-4,6.57A.83.83,0,0,0,9.49,44.58Z"/><path class="cls-2" d="M32,36.75H51.23l4-6.57a.83.83,0,0,0-.72-1.26H37.22a.83.83,0,0,0-.71.4Z"/></svg>