<svg id="Layer_1" data-name="Layer 1" xmlns="http://www.w3.org/2000/svg" viewBox="0 0 64 64"><defs><style>.cls-1{fill:#dfe8f4;}.cls-2{fill:#ccd8e5;}.cls-3{fill:#fff;}.cls-4{fill:#ff5454;}.cls-5{fill:#dd1515;}</style></defs><title>commerce, ecommerce, shopping, click, hand, gesture, browser, clothes</title><rect class="cls-1" x="8" y="8" width="42.15" height="36.11" rx="3.59"/><path class="cls-2" d="M26.82,35.26v8.85H46.56a3.59,3.59,0,0,0,3.59-3.59V35.26Z"/><path class="cls-3" d="M28.76,20h0a14,14,0,0,0-9.35,3.57l-.47.42a.66.66,0,0,0-.1.87l1.82,2.57a.65.65,0,0,0,.92.15l1.3-.93v9.29a.32.32,0,0,0,.33.32H34.32a.32.32,0,0,0,.33-.32V26.65l1.3.93a.63.63,0,0,0,.91-.15l1.83-2.57a.66.66,0,0,0-.1-.87l-.47-.42A14,14,0,0,0,28.76,20Z"/><path class="cls-2" d="M28.76,20a14.13,14.13,0,0,0-3.37.41,3.4,3.4,0,0,0,6.75,0A14.15,14.15,0,0,0,28.76,20Z"/><path class="cls-4" d="M46.56,8h-35A3.59,3.59,0,0,0,8,11.59v1.68H50.15V11.59A3.59,3.59,0,0,0,46.56,8Z"/><rect class="cls-5" x="12.09" y="10.09" width="1.08" height="1.08"/><rect class="cls-5" x="14.31" y="10.09" width="1.08" height="1.08"/><rect class="cls-5" x="16.53" y="10.09" width="1.08" height="1.08"/><rect class="cls-5" x="8" y="13.27" width="42.15" height="1.57"/><path class="cls-2" d="M50.15,17.29H10.45A2.45,2.45,0,0,1,8,14.84H50.15Z"/><path class="cls-4" d="M56,46.31l-1.61-1.2a1.74,1.74,0,0,1-.66-1.23,9.25,9.25,0,0,0-3.17-6.1L49.61,37a6,6,0,0,0-6.85-.67l-5.54,3.14a.71.71,0,0,1-.81-.07l-7.48-6.12a1,1,0,0,0-1.33.09,2.75,2.75,0,0,0,0,3.87l8,8a2.77,2.77,0,0,1,.82,1.95l0,1.29a4.85,4.85,0,0,0,4.09,4.72l2.82.45a2,2,0,0,1,1.15.58L46.31,56h0A9.69,9.69,0,0,0,56,46.31Z"/><polygon class="cls-1" points="33.63 43.22 27.62 37.21 27.62 37.21 33.63 43.22 33.63 43.22"/><polygon class="cls-2" points="44.29 53.98 44.3 53.98 44.29 53.97 44.29 53.98"/></svg>