<svg id="Layer_1" data-name="Layer 1" xmlns="http://www.w3.org/2000/svg" viewBox="0 0 64 64"><defs><style>.cls-1{fill:#F4DFDF;}.cls-2{fill:#fff;}.cls-3{fill:#e5cccc;}.cls-4{fill:#FC0707;}.cls-5{fill:#DD1515;}</style></defs><title>commerce, ecommerce, shopping, search, find, magnifier, location, pin</title><path class="cls-1" d="M55.14,55.11a3.67,3.67,0,0,1-5.2,0L38.78,44A3.68,3.68,0,0,1,44,38.76L55.14,49.91A3.67,3.67,0,0,1,55.14,55.11Z"/><path class="cls-2" d="M19.65,39.62a14.26,14.26,0,1,1,17.36,0A14.28,14.28,0,0,1,19.65,39.62Z"/><path class="cls-1" d="M55.07,49.84l-8.15-8.15A3.08,3.08,0,0,1,46.43,38a20.55,20.55,0,1,0-8.37,8.38,3.08,3.08,0,0,1,3.66.49l8.22,8.21a3.68,3.68,0,0,0,5.69-.59A3.75,3.75,0,0,0,55.07,49.84ZM19.65,39.62a14.26,14.26,0,1,1,17.36,0A14.28,14.28,0,0,1,19.65,39.62Z"/><path class="cls-3" d="M51.64,46.41l-5.21,5.2,3.51,3.5a3.68,3.68,0,0,0,5.2-5.2Z"/><path class="cls-4" d="M33.53,30.92l-4.85,4.85a.5.5,0,0,1-.7,0l-4.84-4.85a7.35,7.35,0,0,1,0-10.39h0a7.35,7.35,0,0,1,10.39,0h0A7.35,7.35,0,0,1,33.53,30.92Z"/><path class="cls-4" d="M29.13,37.44a.8.8,0,1,1-.8-.79A.8.8,0,0,1,29.13,37.44Z"/><path class="cls-5" d="M31.31,25.81a3,3,0,1,1-3-3A3,3,0,0,1,31.31,25.81Z"/></svg>