<svg id="Layer_1" data-name="Layer 1" xmlns="http://www.w3.org/2000/svg" viewBox="0 0 64 64"><defs><style>.cls-1{fill:#dfe8f4;}.cls-2{fill:#ff5454;}.cls-3{fill:#dd1515;}.cls-4{fill:#ccd8e5;}.cls-5{fill:#fff;}</style></defs><title>commerce, ecommerce, shopping, store, shop, browser, webpage</title><rect class="cls-1" x="8" y="8" width="48" height="41.13" rx="4.09"/><path class="cls-2" d="M51.91,8H12.09A4.09,4.09,0,0,0,8,12.09V14H56V12.09A4.09,4.09,0,0,0,51.91,8Z"/><rect class="cls-3" x="12.66" y="10.38" width="1.23" height="1.23"/><rect class="cls-3" x="15.19" y="10.38" width="1.23" height="1.23"/><rect class="cls-3" x="17.71" y="10.38" width="1.23" height="1.23"/><rect class="cls-3" x="8" y="14" width="48" height="1.65"/><path class="cls-4" d="M56,18.44H10.79A2.79,2.79,0,0,1,8,15.65H56Z"/><rect class="cls-3" x="18.37" y="38.97" width="27.26" height="17.03"/><path class="cls-2" d="M46,56H18a.5.5,0,0,1-.5-.5h0A.5.5,0,0,1,18,55H46a.5.5,0,0,1,.5.51h0A.5.5,0,0,1,46,56Z"/><path class="cls-2" d="M29.82,45.11h4.36a.41.41,0,0,1,.41.41V55a0,0,0,0,1,0,0H29.41a0,0,0,0,1,0,0V45.52A.41.41,0,0,1,29.82,45.11Z"/><path class="cls-2" d="M33.49,50.75a.41.41,0,1,1-.81,0,.41.41,0,0,1,.81,0Z"/><path class="cls-4" d="M46.52,38.63h-29l2.65-6.32a1.45,1.45,0,0,1,1.34-.89H42.53a1.45,1.45,0,0,1,1.34.89Z"/><polygon class="cls-5" points="40.71 38.63 23.29 38.63 25.12 31.42 38.88 31.42 40.71 38.63"/><polygon class="cls-4" points="34.89 38.63 29.11 38.63 29.72 31.42 34.28 31.42 34.89 38.63"/><path class="cls-4" d="M20.38,42.44h0a2.9,2.9,0,0,1-2.9-2.91v-.9h5.81v.9A2.91,2.91,0,0,1,20.38,42.44Z"/><path class="cls-5" d="M26.19,42.44h0a2.9,2.9,0,0,1-2.9-2.91v-.9H29.1v.9A2.91,2.91,0,0,1,26.19,42.44Z"/><path class="cls-4" d="M32,42.44h0a2.9,2.9,0,0,1-2.9-2.91v-.9h5.8v.9A2.9,2.9,0,0,1,32,42.44Z"/><path class="cls-5" d="M37.81,42.44h0a2.91,2.91,0,0,1-2.91-2.91v-.9h5.81v.9A2.9,2.9,0,0,1,37.81,42.44Z"/><path class="cls-4" d="M43.62,42.44h0a2.91,2.91,0,0,1-2.91-2.91v-.9h5.81v.9A2.9,2.9,0,0,1,43.62,42.44Z"/><path class="cls-2" d="M24.28,47.46h2.35V45.61a.5.5,0,0,0-.5-.5H24.28Z"/><path class="cls-2" d="M23.75,47.46V45.11H21.9a.5.5,0,0,0-.5.5v1.85Z"/><path class="cls-2" d="M24.28,48v2.36h1.85a.5.5,0,0,0,.5-.51V48Z"/><path class="cls-2" d="M23.75,48H21.4v1.85a.5.5,0,0,0,.5.51h1.85Z"/><path class="cls-2" d="M40.25,47.46H42.6V45.61a.5.5,0,0,0-.5-.5H40.25Z"/><path class="cls-2" d="M39.72,47.46V45.11H37.87a.5.5,0,0,0-.5.5v1.85Z"/><path class="cls-2" d="M40.25,48v2.36H42.1a.5.5,0,0,0,.5-.51V48Z"/><path class="cls-2" d="M39.72,48H37.37v1.85a.5.5,0,0,0,.5.51h1.85Z"/></svg>