<svg id="Layer_1" data-name="Layer 1" xmlns="http://www.w3.org/2000/svg" viewBox="0 0 64 64"><defs><style>.cls-1{fill:#dfe8f4;}.cls-2{fill:#ccd8e5;}.cls-3{fill:#dd1515;}.cls-4{fill:#ff5454;}.cls-5{fill:#fff;}</style></defs><title>commerce, ecommerce, shopping, building, store, shop</title><path class="cls-1" d="M31.89,15h.21A21.13,21.13,0,0,1,53.24,36.15V56a0,0,0,0,1,0,0H10.76a0,0,0,0,1,0,0V36.15A21.13,21.13,0,0,1,31.89,15Z"/><path class="cls-2" d="M53.24,56V36.15a21,21,0,0,0-2.47-9.9H13.23c-.26.5-.51,1-.73,1.53L10.76,38.21,28.55,56Z"/><path class="cls-3" d="M34.48,14.25h-5A19.62,19.62,0,0,0,9.9,33.88H54.1A19.62,19.62,0,0,0,34.48,14.25Z"/><path class="cls-4" d="M18.29,38.21h0a3.42,3.42,0,0,1-3.43-3.43V31.22h6.85v3.56A3.42,3.42,0,0,1,18.29,38.21Z"/><path class="cls-3" d="M25.14,38.21h0a3.43,3.43,0,0,1-3.43-3.43V31.22h6.86v3.56A3.42,3.42,0,0,1,25.14,38.21Z"/><path class="cls-3" d="M9.75,31.22h5.11a0,0,0,0,1,0,0v3.57a3.43,3.43,0,0,1-3.43,3.43h-3A.45.45,0,0,1,8,37.76V33A1.75,1.75,0,0,1,9.75,31.22Z"/><path class="cls-4" d="M32,38.21h0a3.43,3.43,0,0,1-3.43-3.43V31.22h6.86v3.56A3.43,3.43,0,0,1,32,38.21Z"/><path class="cls-3" d="M38.86,38.21h0a3.42,3.42,0,0,1-3.43-3.43V31.22h6.86v3.56A3.43,3.43,0,0,1,38.86,38.21Z"/><path class="cls-3" d="M49.14,31.22h5.11A1.75,1.75,0,0,1,56,33v4.79a.45.45,0,0,1-.45.45h-3a3.43,3.43,0,0,1-3.43-3.43V31.22A0,0,0,0,1,49.14,31.22Z"/><path class="cls-4" d="M45.71,38.21h0a3.42,3.42,0,0,1-3.42-3.43V31.22h6.85v3.56A3.42,3.42,0,0,1,45.71,38.21Z"/><path class="cls-4" d="M21.71,49.16H14.86V45.73a3.43,3.43,0,0,1,3.43-3.43h0a3.43,3.43,0,0,1,3.42,3.43Z"/><path class="cls-3" d="M18.29,42.3a3.43,3.43,0,0,0-2.43,1l5.85,5.85V45.73A3.43,3.43,0,0,0,18.29,42.3Z"/><rect class="cls-5" x="14.32" y="49.16" width="7.94" height="0.93" rx="0.23"/><path class="cls-4" d="M49.14,49.16H42.29V45.73a3.43,3.43,0,0,1,3.42-3.43h0a3.43,3.43,0,0,1,3.43,3.43Z"/><path class="cls-3" d="M45.71,42.3a3.43,3.43,0,0,0-2.42,1l5.85,5.85V45.73A3.43,3.43,0,0,0,45.71,42.3Z"/><rect class="cls-5" x="41.75" y="49.16" width="7.94" height="0.93" rx="0.23"/><path class="cls-2" d="M55.17,56H8.83A.83.83,0,0,1,8,55.17H8a.84.84,0,0,1,.83-.84H55.17a.84.84,0,0,1,.83.84h0A.83.83,0,0,1,55.17,56Z"/><path class="cls-4" d="M31.56,42.3H25.85a.71.71,0,0,0-.71.71V54.33h6.42Z"/><path class="cls-3" d="M26.89,54.33h4.67v-12H25.85a.71.71,0,0,0-.71.71v9.58Z"/><path class="cls-3" d="M38.15,42.3H32.44v12h6.42V43A.71.71,0,0,0,38.15,42.3Z"/></svg>