<svg id="Layer_1" data-name="Layer 1" xmlns="http://www.w3.org/2000/svg" viewBox="0 0 64 64"><defs><style>.cls-1{fill:#F4DFDF;}.cls-2{fill:#fff;}.cls-3{fill:#e5cccc;}.cls-4{fill:#FC0707;}.cls-5{fill:#DD1515;}</style></defs><title>commerce, ecommerce, shopping, search, find, magnifier, cart</title><path class="cls-1" d="M55.14,55.11a3.67,3.67,0,0,1-5.2,0L38.78,44A3.68,3.68,0,0,1,44,38.76L55.14,49.91A3.67,3.67,0,0,1,55.14,55.11Z"/><path class="cls-2" d="M19.65,39.62a14.26,14.26,0,1,1,17.36,0A14.28,14.28,0,0,1,19.65,39.62Z"/><path class="cls-1" d="M55.07,49.84l-8.15-8.15A3.08,3.08,0,0,1,46.43,38a20.55,20.55,0,1,0-8.37,8.38,3.08,3.08,0,0,1,3.66.49l8.22,8.21a3.68,3.68,0,0,0,5.69-.59A3.75,3.75,0,0,0,55.07,49.84ZM19.65,39.62a14.26,14.26,0,1,1,17.36,0A14.28,14.28,0,0,1,19.65,39.62Z"/><path class="cls-3" d="M51.64,46.41l-5.21,5.2,3.51,3.5a3.68,3.68,0,0,0,5.2-5.2Z"/><path class="cls-4" d="M32.57,32.63H24.33a.89.89,0,0,1-.85-.67L22,26a.88.88,0,0,1,.85-1.09h11.2A.88.88,0,0,1,34.9,26L33.42,32A.89.89,0,0,1,32.57,32.63Z"/><path class="cls-5" d="M26.15,35.49a1.32,1.32,0,1,1-1.32-1.31A1.32,1.32,0,0,1,26.15,35.49Z"/><path class="cls-5" d="M33.39,35.49a1.32,1.32,0,1,1-1.32-1.31A1.32,1.32,0,0,1,33.39,35.49Z"/><path class="cls-4" d="M24.65,28.55l-1.49-5.93h0a.84.84,0,0,0-.81-.64H19.68a.86.86,0,1,0,0,1.71h1.25a.62.62,0,0,1,.6.47l1.1,4.39a.88.88,0,0,0,.85.66h2A.88.88,0,0,1,24.65,28.55Z"/></svg>