<svg id="Layer_1" data-name="Layer 1" xmlns="http://www.w3.org/2000/svg" viewBox="0 0 64 64"><defs><style>.cls-1{fill:#F4DFDF;}.cls-2{fill:#FC0707;}.cls-3{fill:#DD1515;}.cls-4{fill:#e5cccc;}</style></defs><title>commerce, ecommerce, shopping, store, shop, smartphone</title><rect class="cls-1" x="24.86" y="8" width="30.67" height="48" rx="5.39"/><path class="cls-2" d="M50.14,8H30.25a5.39,5.39,0,0,0-5.39,5.39V50.61A5.39,5.39,0,0,0,30.25,56H50.14a5.39,5.39,0,0,0,5.39-5.39V13.39A5.39,5.39,0,0,0,50.14,8Zm3.39,42.61A3.39,3.39,0,0,1,50.14,54H30.25a3.39,3.39,0,0,1-3.39-3.39V13.39A3.39,3.39,0,0,1,30.25,10h2.52a1.82,1.82,0,0,1,1.41.67h0a1.84,1.84,0,0,0,1.42.66h9.19a1.84,1.84,0,0,0,1.41-.66h0A1.82,1.82,0,0,1,47.62,10h2.52a3.39,3.39,0,0,1,3.39,3.39Z"/><path class="cls-3" d="M24.75,20.91h.11a0,0,0,0,1,0,0v3.69a0,0,0,0,1,0,0h-.11a.37.37,0,0,1-.37-.37v-3A.37.37,0,0,1,24.75,20.91Z"/><path class="cls-3" d="M24.75,25.36h.11a0,0,0,0,1,0,0V29a0,0,0,0,1,0,0h-.11a.37.37,0,0,1-.37-.37v-3A.37.37,0,0,1,24.75,25.36Z"/><path class="cls-3" d="M55.89,20.91H56a0,0,0,0,1,0,0v3.69a0,0,0,0,1,0,0h-.11a.37.37,0,0,1-.37-.37v-3A.37.37,0,0,1,55.89,20.91Z" transform="translate(111.53 45.5) rotate(180)"/><rect class="cls-3" x="8.89" y="38.97" width="27.26" height="17.03"/><path class="cls-4" d="M8.84,31.2H36.2A.84.84,0,0,1,37,32V35.5a0,0,0,0,1,0,0H8a0,0,0,0,1,0,0V32A.84.84,0,0,1,8.84,31.2Z"/><path class="cls-4" d="M10.9,42.44h0A2.9,2.9,0,0,1,8,39.53v-4h5.81v4A2.91,2.91,0,0,1,10.9,42.44Z"/><path class="cls-1" d="M16.71,42.44h0a2.9,2.9,0,0,1-2.9-2.91V31.2h5.81v8.33A2.91,2.91,0,0,1,16.71,42.44Z"/><path class="cls-4" d="M22.52,42.44h0a2.9,2.9,0,0,1-2.9-2.91v-4h5.81v4A2.91,2.91,0,0,1,22.52,42.44Z"/><path class="cls-1" d="M28.33,42.44h0a2.9,2.9,0,0,1-2.9-2.91V31.2h5.81v8.33A2.91,2.91,0,0,1,28.33,42.44Z"/><path class="cls-4" d="M34.14,42.44h0a2.9,2.9,0,0,1-2.9-2.91v-4h5.81v4A2.91,2.91,0,0,1,34.14,42.44Z"/><path class="cls-2" d="M36.54,56H8.5a.51.51,0,0,1-.5-.5H8A.51.51,0,0,1,8.5,55h28a.51.51,0,0,1,.51.51h0A.51.51,0,0,1,36.54,56Z"/><rect class="cls-2" x="10.9" y="45.11" width="14.1" height="6.05" rx="0.31"/><path class="cls-2" d="M32.91,55H27.73V47.7a2.59,2.59,0,0,1,2.59-2.59h0a2.59,2.59,0,0,1,2.59,2.59Z"/></svg>