<svg id="Layer_1" data-name="Layer 1" xmlns="http://www.w3.org/2000/svg" viewBox="0 0 64 64"><defs><style>.cls-1{fill:#ff5454;}.cls-2{fill:#dd1515;}.cls-3{fill:#ccd8e5;}.cls-4{fill:#fff;}</style></defs><title>commerce, ecommerce, shopping, favourite, heart, box, package</title><rect class="cls-1" x="8" y="14.75" width="48" height="41.25" rx="2.25"/><path class="cls-2" d="M53.75,56A2.25,2.25,0,0,0,56,53.75V17a2.25,2.25,0,0,0-2.25-2.25H30.15L25.05,25.8l25,25A7.29,7.29,0,0,1,52.23,56h1.52Z"/><path class="cls-3" d="M24.72,14.75H39.28a0,0,0,0,1,0,0V25a1,1,0,0,1-1,1H25.75a1,1,0,0,1-1-1V14.75A0,0,0,0,1,24.72,14.75Z"/><path class="cls-4" d="M32.43,35.66l-.43.43-.43-.43a3.36,3.36,0,0,0-4.73,0h0a3.35,3.35,0,0,0,0,4.74l.42.43h0l4.31,4.31a.6.6,0,0,0,.86,0l4.31-4.31.42-.43a3.35,3.35,0,0,0,0-4.74h0A3.36,3.36,0,0,0,32.43,35.66Z"/></svg>