<svg id="Layer_1" data-name="Layer 1" xmlns="http://www.w3.org/2000/svg" viewBox="0 0 64 64"><defs><style>.cls-1{fill:#dd1515;}.cls-2{fill:#ff5454;}.cls-3{fill:#dfe8f4;}.cls-4{fill:#ccd8e5;}</style></defs><title>commerce, ecommerce, shopping, computer, monitor, shop, store</title><path class="cls-1" d="M37.45,50.77h0a2.24,2.24,0,0,1-2.24-2.24V45.27H28.79v3.26a2.24,2.24,0,0,1-2.24,2.24h0A3.55,3.55,0,0,0,23,54.32h0a1.78,1.78,0,0,0,1.79,1.78H39.21A1.78,1.78,0,0,0,41,54.32h0A3.55,3.55,0,0,0,37.45,50.77Z"/><path class="cls-2" d="M37.45,50.77H26.55A3.55,3.55,0,0,0,23,54.32h0a1.78,1.78,0,0,0,1.79,1.78H39.21A1.78,1.78,0,0,0,41,54.32h0A3.55,3.55,0,0,0,37.45,50.77Z"/><rect class="cls-3" x="8" y="13.27" width="48" height="34" rx="4.04"/><path class="cls-2" d="M8,41.48v1.75a4,4,0,0,0,4,4H52a4,4,0,0,0,4-4V41.48Z"/><rect class="cls-4" x="8" y="39.42" width="48" height="2.06"/><circle class="cls-1" cx="32" cy="44.27" r="1.1"/><path class="cls-2" d="M44.85,33.48H19.15v-12A12.79,12.79,0,0,1,31.94,8.68h.12A12.79,12.79,0,0,1,44.85,21.47Z"/><path class="cls-4" d="M33.5,8.21h-3A11.88,11.88,0,0,0,18.62,20.09H45.38A11.88,11.88,0,0,0,33.5,8.21Z"/><path class="cls-3" d="M23.7,22.71h0a2.07,2.07,0,0,1-2.07-2.07V18.48h4.15v2.16A2.08,2.08,0,0,1,23.7,22.71Z"/><path class="cls-4" d="M25.78,18.48h4.15a0,0,0,0,1,0,0v2.16a2.07,2.07,0,0,1-2.07,2.07h0a2.07,2.07,0,0,1-2.07-2.07V18.48A0,0,0,0,1,25.78,18.48Z"/><path class="cls-4" d="M18.54,18.48h3.09a0,0,0,0,1,0,0v2.16a2.07,2.07,0,0,1-2.07,2.07h-1.8a.27.27,0,0,1-.27-.27v-2.9A1.06,1.06,0,0,1,18.54,18.48Z"/><path class="cls-3" d="M32,22.71h0a2.07,2.07,0,0,1-2.07-2.07V18.48h4.14v2.16A2.07,2.07,0,0,1,32,22.71Z"/><path class="cls-4" d="M34.07,18.48h4.15a0,0,0,0,1,0,0v2.16a2.07,2.07,0,0,1-2.07,2.07h0a2.07,2.07,0,0,1-2.07-2.07V18.48a0,0,0,0,1,0,0Z"/><path class="cls-4" d="M42.37,18.48h3.09a1.06,1.06,0,0,1,1.06,1.06v2.9a.27.27,0,0,1-.27.27h-1.8a2.07,2.07,0,0,1-2.07-2.07V18.48A0,0,0,0,1,42.37,18.48Z"/><path class="cls-3" d="M40.3,22.71h0a2.08,2.08,0,0,1-2.08-2.07V18.48h4.15v2.16A2.07,2.07,0,0,1,40.3,22.71Z"/><path class="cls-1" d="M25.78,29.34H21.63V27.27a2.08,2.08,0,0,1,2.07-2.08h0a2.08,2.08,0,0,1,2.08,2.08Z"/><rect class="cls-1" x="21.3" y="29.34" width="4.8" height="0.56" rx="0.14"/><path class="cls-1" d="M42.37,29.34H38.22V27.27a2.08,2.08,0,0,1,2.08-2.08h0a2.08,2.08,0,0,1,2.07,2.08Z"/><rect class="cls-1" x="37.9" y="29.34" width="4.8" height="0.56" rx="0.14"/><path class="cls-1" d="M46,33.48H18a.5.5,0,0,1-.5-.51h0a.5.5,0,0,1,.5-.5H46a.5.5,0,0,1,.5.5h0A.5.5,0,0,1,46,33.48Z"/><path class="cls-1" d="M31.74,25.19H28.28a.43.43,0,0,0-.43.43v6.85h3.89Z"/><path class="cls-1" d="M35.72,25.19H32.26v7.28h3.89V25.62A.43.43,0,0,0,35.72,25.19Z"/></svg>