<svg id="Layer_1" data-name="Layer 1" xmlns="http://www.w3.org/2000/svg" viewBox="0 0 64 64"><defs><style>.cls-1{fill:#FC0707;}.cls-2{fill:#DD1515;}.cls-3{fill:#F4DFDF;}.cls-4{fill:#e5cccc;}.cls-5{fill:#fff;}</style></defs><title>commerce, ecommerce, shopping, confirm, bag, complete</title><path class="cls-1" d="M38.66,17.12h9.26a3.17,3.17,0,0,1,3.17,3.17V53a3.17,3.17,0,0,1-3.17,3.17H38.66a0,0,0,0,1,0,0v-39A0,0,0,0,1,38.66,17.12Z"/><path class="cls-2" d="M38.66,52.31v3.83h9.26A3.17,3.17,0,0,0,51.09,53V37.31a6,6,0,0,0-3.59-5.5l-6.69-2.94Z"/><path class="cls-3" d="M16.08,17.12H40.81a0,0,0,0,1,0,0V54.35A1.79,1.79,0,0,1,39,56.14H16.08A3.17,3.17,0,0,1,12.91,53V20.28A3.17,3.17,0,0,1,16.08,17.12Z"/><polygon class="cls-4" points="40.8 28.87 34.12 22.18 30.97 28.51 22.95 29.37 40.8 47.23 40.8 28.87"/><path class="cls-5" d="M25.87,30.43a7.71,7.71,0,0,1-6.55-7.73v-.2a1.23,1.23,0,0,1,1.23-1.23h0a1.23,1.23,0,0,1,1.23,1.23v.23A5.23,5.23,0,0,0,26.35,28,5.07,5.07,0,0,0,31.93,23V22.5a1.24,1.24,0,0,1,1.23-1.23h0A1.24,1.24,0,0,1,34.4,22.5V23A7.55,7.55,0,0,1,25.87,30.43Z"/><path class="cls-1" d="M33.29,7.86a7.56,7.56,0,0,1,7.54,7.54v1.7H38.36V15.4a5.08,5.08,0,0,0-10.15,0v1.7H25.75V15.4A7.55,7.55,0,0,1,33.29,7.86Z"/><rect class="cls-2" x="25.75" y="15.72" width="2.46" height="1.38"/><rect class="cls-2" x="38.36" y="15.72" width="2.46" height="1.38"/><path class="cls-1" d="M24.39,45.29l-2.82-2.83a2.07,2.07,0,0,1-.3-2.65,2,2,0,0,1,3.05-.25l1,1,4-4A2.07,2.07,0,0,1,32,36.19a2,2,0,0,1,.26,3.05l-6.05,6A1.27,1.27,0,0,1,24.39,45.29Z"/></svg>