<svg id="Layer_1" data-name="Layer 1" xmlns="http://www.w3.org/2000/svg" viewBox="0 0 64 64"><defs><style>.cls-1{fill:#FC0707;}.cls-2{fill:#DD1515;}.cls-3{fill:#e5cccc;}.cls-4{fill:#fff;}</style></defs><title>commerce, ecommerce, shopping, favourite, bookmark, star, box, package</title><rect class="cls-1" x="8.1" y="14.75" width="48" height="41.25" rx="2.25"/><path class="cls-2" d="M53.85,56a2.25,2.25,0,0,0,2.25-2.25V17a2.25,2.25,0,0,0-2.25-2.25H30.25L25.16,25.8l25,25A7.29,7.29,0,0,1,52.33,56h1.52Z"/><path class="cls-3" d="M24.82,14.75H39.39a0,0,0,0,1,0,0V25a1,1,0,0,1-1,1H25.85a1,1,0,0,1-1-1V14.75A0,0,0,0,1,24.82,14.75Z"/><path class="cls-4" d="M32.78,34.16l1.44,2.92a.76.76,0,0,0,.56.41L38,38a.74.74,0,0,1,.41,1.27l-2.33,2.28a.74.74,0,0,0-.22.66l.55,3.22a.74.74,0,0,1-1.08.78l-2.89-1.51a.71.71,0,0,0-.69,0l-2.89,1.51a.75.75,0,0,1-1.09-.78l.55-3.22a.71.71,0,0,0-.21-.66l-2.34-2.28A.75.75,0,0,1,26.2,38l3.23-.47a.76.76,0,0,0,.56-.41l1.44-2.92A.75.75,0,0,1,32.78,34.16Z"/></svg>