<svg id="Layer_1" data-name="Layer 1" xmlns="http://www.w3.org/2000/svg" viewBox="0 0 64 64"><defs><style>.cls-1{fill:#dfe8f4;}.cls-2{fill:#fff;}.cls-3{fill:#ccd8e5;}.cls-4{fill:#dd1515;}.cls-5{fill:#ff5454;}</style></defs><title>commerce, ecommerce, shopping, search, find, magnifier, percentage, sale</title><path class="cls-1" d="M55.14,55.11a3.67,3.67,0,0,1-5.2,0L38.78,44A3.68,3.68,0,0,1,44,38.76L55.14,49.91A3.67,3.67,0,0,1,55.14,55.11Z"/><path class="cls-2" d="M19.65,39.62a14.26,14.26,0,1,1,17.36,0A14.28,14.28,0,0,1,19.65,39.62Z"/><path class="cls-1" d="M55.07,49.84l-8.15-8.15A3.08,3.08,0,0,1,46.43,38a20.55,20.55,0,1,0-8.37,8.38,3.08,3.08,0,0,1,3.66.49l8.22,8.21a3.68,3.68,0,0,0,5.69-.59A3.75,3.75,0,0,0,55.07,49.84ZM19.65,39.62a14.26,14.26,0,1,1,17.36,0A14.28,14.28,0,0,1,19.65,39.62Z"/><path class="cls-3" d="M51.64,46.41l-5.21,5.2,3.51,3.5a3.68,3.68,0,0,0,5.2-5.2Z"/><circle class="cls-4" cx="24.41" cy="24.38" r="2.33"/><circle class="cls-4" cx="32.26" cy="32.23" r="2.33"/><path class="cls-5" d="M24.24,33.45a1,1,0,0,1-.74-.31,1.06,1.06,0,0,1,0-1.49l8.18-8.18A1.05,1.05,0,0,1,33.17,25L25,33.14A1.05,1.05,0,0,1,24.24,33.45Z"/></svg>