<svg id="Layer_1" data-name="Layer 1" xmlns="http://www.w3.org/2000/svg" viewBox="0 0 64 64"><defs><style>.cls-1{fill:#dfe8f4;}.cls-2{fill:#ff5454;}.cls-3{fill:#dd1515;}.cls-4{fill:#ccd8e5;}</style></defs><title>commerce, ecommerce, shopping, building, shop, store, smartphone</title><rect class="cls-1" x="24.86" y="8" width="30.67" height="48" rx="5.39"/><path class="cls-2" d="M50.14,8H30.25a5.39,5.39,0,0,0-5.39,5.39V50.61A5.39,5.39,0,0,0,30.25,56H50.14a5.39,5.39,0,0,0,5.39-5.39V13.39A5.39,5.39,0,0,0,50.14,8Zm3.39,42.61A3.39,3.39,0,0,1,50.14,54H30.25a3.39,3.39,0,0,1-3.39-3.39V13.39A3.39,3.39,0,0,1,30.25,10h2.52a1.82,1.82,0,0,1,1.41.67h0a1.84,1.84,0,0,0,1.42.66h9.19a1.84,1.84,0,0,0,1.41-.66h0A1.82,1.82,0,0,1,47.62,10h2.52a3.39,3.39,0,0,1,3.39,3.39Z"/><path class="cls-3" d="M24.75,20.91h.11a0,0,0,0,1,0,0v3.69a0,0,0,0,1,0,0h-.11a.37.37,0,0,1-.37-.37v-3A.37.37,0,0,1,24.75,20.91Z"/><path class="cls-3" d="M24.75,25.36h.11a0,0,0,0,1,0,0V29a0,0,0,0,1,0,0h-.11a.37.37,0,0,1-.37-.37v-3A.37.37,0,0,1,24.75,25.36Z"/><path class="cls-3" d="M55.89,20.91H56a0,0,0,0,1,0,0v3.69a0,0,0,0,1,0,0h-.11a.37.37,0,0,1-.37-.37v-3A.37.37,0,0,1,55.89,20.91Z" transform="translate(111.53 45.5) rotate(180)"/><rect class="cls-3" x="8.89" y="38.97" width="27.26" height="17.03"/><path class="cls-2" d="M36.54,56H8.5a.51.51,0,0,1-.5-.5H8A.51.51,0,0,1,8.5,55h28a.51.51,0,0,1,.51.51h0A.51.51,0,0,1,36.54,56Z"/><path class="cls-2" d="M20.34,45.11H24.7a.41.41,0,0,1,.41.41V55a0,0,0,0,1,0,0H19.93a0,0,0,0,1,0,0V45.52A.41.41,0,0,1,20.34,45.11Z"/><path class="cls-2" d="M24,50.75a.41.41,0,1,1-.81,0,.41.41,0,0,1,.81,0Z"/><path class="cls-4" d="M37.05,38.63H8l2.65-6.32A1.46,1.46,0,0,1,12,31.42H33.06a1.45,1.45,0,0,1,1.33.89Z"/><polygon class="cls-1" points="31.23 38.63 13.81 38.63 15.65 31.42 29.4 31.42 31.23 38.63"/><polygon class="cls-4" points="25.42 38.63 19.63 38.63 20.24 31.42 24.8 31.42 25.42 38.63"/><path class="cls-4" d="M10.9,42.44h0A2.9,2.9,0,0,1,8,39.53v-.9h5.81v.9A2.91,2.91,0,0,1,10.9,42.44Z"/><path class="cls-1" d="M16.71,42.44h0a2.9,2.9,0,0,1-2.9-2.91v-.9h5.81v.9A2.91,2.91,0,0,1,16.71,42.44Z"/><path class="cls-4" d="M22.52,42.44h0a2.9,2.9,0,0,1-2.9-2.91v-.9h5.81v.9A2.91,2.91,0,0,1,22.52,42.44Z"/><path class="cls-1" d="M28.33,42.44h0a2.9,2.9,0,0,1-2.9-2.91v-.9h5.81v.9A2.91,2.91,0,0,1,28.33,42.44Z"/><path class="cls-4" d="M34.14,42.44h0a2.9,2.9,0,0,1-2.9-2.91v-.9h5.81v.9A2.91,2.91,0,0,1,34.14,42.44Z"/><path class="cls-2" d="M14.8,47.46h2.36V45.61a.5.5,0,0,0-.5-.5H14.8Z"/><path class="cls-2" d="M14.27,47.46V45.11H12.42a.5.5,0,0,0-.5.5v1.85Z"/><path class="cls-2" d="M14.8,48v2.36h1.86a.51.51,0,0,0,.5-.51V48Z"/><path class="cls-2" d="M14.27,48H11.92v1.85a.5.5,0,0,0,.5.51h1.85Z"/><path class="cls-2" d="M30.77,47.46h2.36V45.61a.5.5,0,0,0-.5-.5H30.77Z"/><path class="cls-2" d="M30.24,47.46V45.11H28.39a.5.5,0,0,0-.5.5v1.85Z"/><path class="cls-2" d="M30.77,48v2.36h1.86a.51.51,0,0,0,.5-.51V48Z"/><path class="cls-2" d="M30.24,48H27.89v1.85a.5.5,0,0,0,.5.51h1.85Z"/></svg>