<svg id="Layer_1" data-name="Layer 1" xmlns="http://www.w3.org/2000/svg" viewBox="0 0 64 64"><defs><style>.cls-1{fill:#F4DFDF;}.cls-2{fill:#e5cccc;}.cls-3{fill:#DD1515;}.cls-4{fill:#FC0707;}</style></defs><title>commerce, ecommerce, shopping, store, shop</title><rect class="cls-1" x="9.47" y="27.85" width="45.05" height="28.15"/><polygon class="cls-2" points="54.53 28.35 47.69 27.85 11.18 27.85 9.84 32.55 33.28 56 54.53 56 54.53 28.35"/><path class="cls-3" d="M9.4,15H54.6a1.4,1.4,0,0,1,1.4,1.4v5.71a0,0,0,0,1,0,0H8a0,0,0,0,1,0,0V16.42A1.4,1.4,0,0,1,9.4,15Z"/><path class="cls-3" d="M12.8,33.58h0A4.8,4.8,0,0,1,8,28.78V22.12h9.6v6.66A4.8,4.8,0,0,1,12.8,33.58Z"/><path class="cls-4" d="M22.4,33.58h0a4.8,4.8,0,0,1-4.8-4.8V15h9.6V28.78A4.8,4.8,0,0,1,22.4,33.58Z"/><path class="cls-3" d="M32,33.58h0a4.8,4.8,0,0,1-4.8-4.8V22.12h9.6v6.66A4.8,4.8,0,0,1,32,33.58Z"/><path class="cls-4" d="M41.6,33.58h0a4.8,4.8,0,0,1-4.8-4.8V15h9.6V28.78A4.8,4.8,0,0,1,41.6,33.58Z"/><path class="cls-3" d="M51.2,33.58h0a4.8,4.8,0,0,1-4.8-4.8V22.12H56v6.66A4.8,4.8,0,0,1,51.2,33.58Z"/><path class="cls-2" d="M55.17,56H8.83A.83.83,0,0,1,8,55.17H8a.84.84,0,0,1,.83-.84H55.17a.84.84,0,0,1,.83.84h0A.83.83,0,0,1,55.17,56Z"/><rect class="cls-4" x="12.8" y="38" width="23.3" height="10" rx="0.52"/><path class="cls-3" d="M36.1,47.48v-9a.52.52,0,0,0-.52-.52H15.28l10,10h10.3A.52.52,0,0,0,36.1,47.48Z"/><path class="cls-3" d="M49.17,54.33H40.6v-12A4.28,4.28,0,0,1,44.88,38h0a4.29,4.29,0,0,1,4.29,4.28Z"/><circle class="cls-4" cx="46.67" cy="47.33" r="0.67"/></svg>