<svg id="Layer_1" data-name="Layer 1" xmlns="http://www.w3.org/2000/svg" viewBox="0 0 64 64"><defs><style>.cls-1{fill:#F4DFDF;}.cls-2{fill:#FC0707;}.cls-3{fill:#DD1515;}.cls-4{fill:#e5cccc;}</style></defs><title>commerce, ecommerce, shopping, shop, store, building, smartphone</title><rect class="cls-1" x="24.86" y="8" width="30.67" height="48" rx="5.39"/><path class="cls-2" d="M50.14,8H30.25a5.39,5.39,0,0,0-5.39,5.39V50.61A5.39,5.39,0,0,0,30.25,56H50.14a5.39,5.39,0,0,0,5.39-5.39V13.39A5.39,5.39,0,0,0,50.14,8Zm3.39,42.61A3.39,3.39,0,0,1,50.14,54H30.25a3.39,3.39,0,0,1-3.39-3.39V13.39A3.39,3.39,0,0,1,30.25,10h2.51a1.82,1.82,0,0,1,1.42.67h0a1.84,1.84,0,0,0,1.42.66h9.19a1.84,1.84,0,0,0,1.41-.66h0A1.82,1.82,0,0,1,47.62,10h2.52a3.39,3.39,0,0,1,3.39,3.39Z"/><path class="cls-3" d="M24.75,20.91h.11a0,0,0,0,1,0,0v3.69a0,0,0,0,1,0,0h-.11a.37.37,0,0,1-.37-.37v-3A.37.37,0,0,1,24.75,20.91Z"/><path class="cls-3" d="M24.75,25.36h.11a0,0,0,0,1,0,0V29a0,0,0,0,1,0,0h-.11a.37.37,0,0,1-.37-.37v-3A.37.37,0,0,1,24.75,25.36Z"/><path class="cls-3" d="M55.89,20.91H56a0,0,0,0,1,0,0v3.69a0,0,0,0,1,0,0h-.11a.37.37,0,0,1-.37-.37v-3A.37.37,0,0,1,55.89,20.91Z" transform="translate(111.53 45.5) rotate(180)"/><path class="cls-3" d="M35.83,55H9.22V36.67a1.46,1.46,0,0,1,1.18-1.44l23.66-4.78a1.48,1.48,0,0,1,1.77,1.45Z"/><path class="cls-2" d="M36.54,56H8.5a.51.51,0,0,1-.5-.5H8A.51.51,0,0,1,8.5,55h28a.51.51,0,0,1,.51.51h0A.51.51,0,0,1,36.54,56Z"/><path class="cls-4" d="M11.88,43.43a2.66,2.66,0,0,0,2.66-2.66V34.39l-4.14.84a1.46,1.46,0,0,0-1.18,1.44v4.1A2.66,2.66,0,0,0,11.88,43.43Z"/><path class="cls-1" d="M17.2,43.43a2.66,2.66,0,0,0,2.66-2.66V33.32l-5.32,1.07v6.38A2.66,2.66,0,0,0,17.2,43.43Z"/><path class="cls-4" d="M22.52,43.43a2.66,2.66,0,0,0,2.66-2.66V32.24l-5.32,1.08v7.45A2.66,2.66,0,0,0,22.52,43.43Z"/><path class="cls-1" d="M27.84,43.43a2.67,2.67,0,0,0,2.67-2.66v-9.6l-5.33,1.07v8.53A2.67,2.67,0,0,0,27.84,43.43Z"/><path class="cls-4" d="M34.06,30.45l-3.55.72v9.6a2.66,2.66,0,1,0,5.32,0V31.9A1.48,1.48,0,0,0,34.06,30.45Z"/><path class="cls-2" d="M19.65,45.11H30.18a2.28,2.28,0,0,1,2.28,2.28v3.15a.58.58,0,0,1-.58.58H19.65a.58.58,0,0,1-.58-.58V45.69A.58.58,0,0,1,19.65,45.11Z"/><path class="cls-2" d="M14.75,45.11h2.67a.48.48,0,0,1,.48.48V55a0,0,0,0,1,0,0H12.58a0,0,0,0,1,0,0V47.28A2.18,2.18,0,0,1,14.75,45.11Z"/></svg>