<svg id="Layer_1" data-name="Layer 1" xmlns="http://www.w3.org/2000/svg" viewBox="0 0 64 64"><defs><style>.cls-1{fill:#ff5454;}.cls-2{fill:#dd1515;}.cls-3{fill:#ccd8e5;}.cls-4{fill:#dfe8f4;}.cls-5{fill:#fff;}</style></defs><title>commerce, ecommerce, shopping, newsletter, notification, announcement, sale</title><path class="cls-1" d="M21.3,48l-1.2-3.79L13,48l3.39,7.79a.51.51,0,0,0,.46.3h1.4a.51.51,0,0,0,.5-.58l-.57-3.4a.88.88,0,0,1,.2-.71Z"/><path class="cls-2" d="M19.61,48l-1.2-3.79L11.31,48l3.39,7.79a.51.51,0,0,0,.46.3h1.4a.49.49,0,0,0,.49-.58l-.56-3.4a.88.88,0,0,1,.2-.71Z"/><path class="cls-3" d="M31.32,32a2.41,2.41,0,0,0-1.48.51,14.55,14.55,0,0,1-5.73,2.36L17.38,36.3a23.11,23.11,0,0,1-4.76.5H9.94C8.87,36.8,8,39.54,8,42.92S8.87,49,9.94,49h2.68a23.11,23.11,0,0,1,4.76.5L24.11,51a14.7,14.7,0,0,1,5.73,2.36,2.41,2.41,0,0,0,1.48.51c3,0,4.37-5.48,4.37-10.91S34.33,32,31.32,32Zm.57,18.1a.6.6,0,0,1-.57.37V35.36a.6.6,0,0,1,.57.38A19.33,19.33,0,0,1,33,42.92,19.41,19.41,0,0,1,31.89,50.1Z"/><path class="cls-1" d="M34.35,42.92c0,5.29-1.36,9.58-3,9.58s-3-4.29-3-9.58,1.36-9.58,3-9.58S34.35,37.62,34.35,42.92Z"/><ellipse class="cls-2" cx="29.8" cy="42.92" rx="1.52" ry="8.29"/><path class="cls-4" d="M31.32,53.83c-3,0-4.38-5.48-4.38-10.91S28.3,32,31.32,32s4.37,5.48,4.37,10.92S34.33,53.83,31.32,53.83Zm.57-18.09a.62.62,0,0,0-1.15,0,19.33,19.33,0,0,0-1.12,7.18,19.41,19.41,0,0,0,1.12,7.18.63.63,0,0,0,1.15,0A19.41,19.41,0,0,0,33,42.92,19.33,19.33,0,0,0,31.89,35.74Z"/><path class="cls-1" d="M52.74,8H35.26A3.26,3.26,0,0,0,32,11.26V29.51a1,1,0,0,0,1.72.71L36,28a2.65,2.65,0,0,1,1.9-.79H52.74A3.26,3.26,0,0,0,56,24V11.26A3.26,3.26,0,0,0,52.74,8Z"/><path class="cls-2" d="M32,29.51a1,1,0,0,0,1.72.71L36,28a2.65,2.65,0,0,1,1.9-.79H34a2,2,0,0,0-2,2Z"/><path class="cls-5" d="M42.79,13.85a2.28,2.28,0,1,1-2.28-2.27A2.28,2.28,0,0,1,42.79,13.85Z"/><circle class="cls-5" cx="47.49" cy="20.82" r="2.27"/><path class="cls-5" d="M40.37,21.9a.94.94,0,0,1-.66-1.6L47,13a.93.93,0,0,1,1.32,1.32L41,21.63A.93.93,0,0,1,40.37,21.9Z"/></svg>