<svg id="Layer_1" data-name="Layer 1" xmlns="http://www.w3.org/2000/svg" viewBox="0 0 64 64"><defs><style>.cls-1{fill:#F4DFDF;}.cls-2{fill:#e5cccc;}.cls-3{fill:#DD1515;}.cls-4{fill:#FC0707;}</style></defs><title>commerce, ecommerce, shopping, building, architecture, shop, store</title><path class="cls-1" d="M54,54.33H10V24.06a2.44,2.44,0,0,1,2-2.39l39.09-7.89A2.44,2.44,0,0,1,54,16.17Z"/><polygon class="cls-2" points="53.99 30.25 17.5 30.25 11.4 34.03 31.7 54.33 53.99 54.33 53.99 30.25"/><path class="cls-2" d="M55.17,56H8.83A.83.83,0,0,1,8,55.17H8a.84.84,0,0,1,.83-.84H55.17a.84.84,0,0,1,.83.84h0A.83.83,0,0,1,55.17,56Z"/><path class="cls-3" d="M14.41,35.23a4.4,4.4,0,0,0,4.4-4.4V20.29L12,21.67a2.44,2.44,0,0,0-2,2.39v6.77A4.4,4.4,0,0,0,14.41,35.23Z"/><path class="cls-4" d="M23.21,35.23a4.4,4.4,0,0,0,4.39-4.4V18.51l-8.79,1.78V30.83A4.4,4.4,0,0,0,23.21,35.23Z"/><path class="cls-3" d="M32,35.23a4.4,4.4,0,0,0,4.4-4.4V16.74l-8.8,1.77V30.83A4.4,4.4,0,0,0,32,35.23Z"/><path class="cls-4" d="M40.79,35.23a4.4,4.4,0,0,0,4.4-4.4V15L36.4,16.74V30.83A4.4,4.4,0,0,0,40.79,35.23Z"/><path class="cls-3" d="M51.06,13.78,45.19,15V30.83a4.4,4.4,0,1,0,8.8,0V16.17A2.44,2.44,0,0,0,51.06,13.78Z"/><path class="cls-3" d="M27.25,38H44.66a3.77,3.77,0,0,1,3.77,3.77V47a1,1,0,0,1-1,1H27.25a1,1,0,0,1-1-1V39A1,1,0,0,1,27.25,38Z"/><path class="cls-4" d="M19.16,38h4.41a.79.79,0,0,1,.79.79V54.33a0,0,0,0,1,0,0H15.57a0,0,0,0,1,0,0V41.6A3.6,3.6,0,0,1,19.16,38Z"/><path class="cls-3" d="M23.57,38H19.16a3.58,3.58,0,0,0-2.63,1.16L24.35,47v-8.2A.78.78,0,0,0,23.57,38Z"/><path class="cls-3" d="M23.57,38H19.16a3.58,3.58,0,0,0-2.63,1.16L24.35,47v-8.2A.78.78,0,0,0,23.57,38Z"/></svg>