<svg id="Layer_1" data-name="Layer 1" xmlns="http://www.w3.org/2000/svg" viewBox="0 0 64 64"><defs><style>.cls-1{fill:#dfe8f4;}.cls-2{fill:#ff5454;}.cls-3{fill:#dd1515;}.cls-4{fill:#ccd8e5;}.cls-5{fill:#fff;}</style></defs><title>commerce, ecommerce, shopping, shop, store, browser</title><rect class="cls-1" x="8" y="8" width="48" height="41.13" rx="4.09"/><path class="cls-2" d="M51.91,8H12.09A4.09,4.09,0,0,0,8,12.09V14H56V12.09A4.09,4.09,0,0,0,51.91,8Z"/><rect class="cls-3" x="12.66" y="10.38" width="1.23" height="1.23"/><rect class="cls-3" x="15.19" y="10.38" width="1.23" height="1.23"/><rect class="cls-3" x="17.71" y="10.38" width="1.23" height="1.23"/><rect class="cls-3" x="8" y="14" width="48" height="1.65"/><path class="cls-4" d="M56,18.44H10.79A2.79,2.79,0,0,1,8,15.65H56Z"/><rect class="cls-3" x="18.37" y="38.97" width="27.26" height="17.03"/><path class="cls-4" d="M18.32,31.2H45.68a.84.84,0,0,1,.84.84V35.5a0,0,0,0,1,0,0h-29a0,0,0,0,1,0,0V32A.84.84,0,0,1,18.32,31.2Z"/><path class="cls-4" d="M20.38,42.44h0a2.9,2.9,0,0,1-2.9-2.91v-4h5.81v4A2.91,2.91,0,0,1,20.38,42.44Z"/><path class="cls-5" d="M26.19,42.44h0a2.9,2.9,0,0,1-2.9-2.91V31.2H29.1v8.33A2.91,2.91,0,0,1,26.19,42.44Z"/><path class="cls-4" d="M32,42.44h0a2.9,2.9,0,0,1-2.9-2.91v-4h5.8v4A2.9,2.9,0,0,1,32,42.44Z"/><path class="cls-5" d="M37.81,42.44h0a2.91,2.91,0,0,1-2.91-2.91V31.2h5.81v8.33A2.9,2.9,0,0,1,37.81,42.44Z"/><path class="cls-4" d="M43.62,42.44h0a2.91,2.91,0,0,1-2.91-2.91v-4h5.81v4A2.9,2.9,0,0,1,43.62,42.44Z"/><path class="cls-2" d="M46,56H18a.5.5,0,0,1-.5-.5h0A.5.5,0,0,1,18,55H46a.5.5,0,0,1,.5.51h0A.5.5,0,0,1,46,56Z"/><rect class="cls-2" x="20.38" y="45.11" width="14.1" height="6.05" rx="0.31"/><path class="cls-2" d="M42.39,55H37.2V47.7a2.59,2.59,0,0,1,2.6-2.59h0a2.59,2.59,0,0,1,2.59,2.59Z"/></svg>