<svg id="Layer_1" data-name="Layer 1" xmlns="http://www.w3.org/2000/svg" viewBox="0 0 64 64"><defs><style>.cls-1{fill:#dd1515;}.cls-2{fill:#ff5454;}.cls-3{fill:#dfe8f4;}.cls-4{fill:#ccd8e5;}</style></defs><title>commerce, ecommerce, shopping, shop, store, monitor, computer</title><path class="cls-1" d="M37.45,50.77h0a2.24,2.24,0,0,1-2.24-2.24V45.27H28.79v3.26a2.24,2.24,0,0,1-2.24,2.24h0A3.55,3.55,0,0,0,23,54.32h0a1.78,1.78,0,0,0,1.79,1.78H39.21A1.78,1.78,0,0,0,41,54.32h0A3.55,3.55,0,0,0,37.45,50.77Z"/><path class="cls-2" d="M37.45,50.77H26.55A3.55,3.55,0,0,0,23,54.32h0a1.78,1.78,0,0,0,1.79,1.78H39.21A1.78,1.78,0,0,0,41,54.32h0A3.55,3.55,0,0,0,37.45,50.77Z"/><rect class="cls-3" x="8" y="13.27" width="48" height="34" rx="4.04"/><path class="cls-2" d="M8,41.48v1.75a4,4,0,0,0,4,4H52a4,4,0,0,0,4-4V41.48Z"/><rect class="cls-4" x="8" y="39.42" width="48" height="2.06"/><circle class="cls-1" cx="32" cy="44.27" r="1.1"/><rect class="cls-2" x="18.37" y="15.77" width="27.26" height="17.03"/><path class="cls-4" d="M18.32,8H45.68a.84.84,0,0,1,.84.84V12.3a0,0,0,0,1,0,0h-29a0,0,0,0,1,0,0V8.84A.84.84,0,0,1,18.32,8Z"/><path class="cls-4" d="M20.38,19.23h0a2.9,2.9,0,0,1-2.9-2.9v-4h5.81v4A2.9,2.9,0,0,1,20.38,19.23Z"/><path class="cls-3" d="M26.19,19.23h0a2.9,2.9,0,0,1-2.9-2.9V8H29.1v8.33A2.9,2.9,0,0,1,26.19,19.23Z"/><path class="cls-4" d="M32,19.23h0a2.9,2.9,0,0,1-2.9-2.9v-4h5.8v4A2.9,2.9,0,0,1,32,19.23Z"/><path class="cls-3" d="M37.81,19.23h0a2.9,2.9,0,0,1-2.91-2.9V8h5.81v8.33A2.9,2.9,0,0,1,37.81,19.23Z"/><path class="cls-4" d="M43.62,19.23h0a2.9,2.9,0,0,1-2.91-2.9v-4h5.81v4A2.9,2.9,0,0,1,43.62,19.23Z"/><path class="cls-1" d="M46,32.8H18a.5.5,0,0,1-.5-.51h0a.5.5,0,0,1,.5-.5H46a.5.5,0,0,1,.5.5h0A.5.5,0,0,1,46,32.8Z"/><rect class="cls-1" x="20.38" y="21.9" width="14.1" height="6.05" rx="0.31"/><path class="cls-1" d="M42.39,31.79H37.2V24.5a2.6,2.6,0,0,1,2.6-2.6h0a2.6,2.6,0,0,1,2.59,2.6Z"/></svg>