<svg id="Layer_1" data-name="Layer 1" xmlns="http://www.w3.org/2000/svg" viewBox="0 0 64 64"><defs><style>.cls-1{fill:#FC0707;}.cls-2{fill:#DD1515;}.cls-3{fill:#F4DFDF;}.cls-4{fill:#e5cccc;}</style></defs><title>commerce, ecommerce, shopping, add, new, unbox, box</title><rect class="cls-1" x="25.25" y="14.55" width="13.5" height="3.03" rx="0.13"/><rect class="cls-1" x="25.25" y="14.55" width="13.5" height="3.03" rx="0.13" transform="translate(48.06 -15.94) rotate(90)"/><path class="cls-2" d="M54.5,44.58H36.75L32,36.75H51.23l4,6.57A.83.83,0,0,1,54.5,44.58Z"/><rect class="cls-3" x="12.77" y="36.75" width="19.23" height="19.25"/><path class="cls-4" d="M12.77,40.38v4.2l5.89,5.9A18.88,18.88,0,0,0,32,56h0V36.75H23.16Z"/><rect class="cls-1" x="31.99" y="36.75" width="19.23" height="19.25"/><path class="cls-2" d="M51.22,40.38v4.2l-5.9,5.9A18.86,18.86,0,0,1,32,56h0V36.75H51.23Z"/><path class="cls-4" d="M32,36.75H12.77l-4-6.57a.83.83,0,0,1,.71-1.26H26.77a.83.83,0,0,1,.71.4Z"/><path class="cls-3" d="M9.49,44.58H26.77a.83.83,0,0,0,.71-.4L32,36.75H12.77l-4,6.57A.83.83,0,0,0,9.49,44.58Z"/><path class="cls-2" d="M32,36.75H51.23l4-6.57a.83.83,0,0,0-.71-1.26H37.22a.83.83,0,0,0-.71.4Z"/></svg>