<svg id="Layer_1" data-name="Layer 1" xmlns="http://www.w3.org/2000/svg" viewBox="0 0 64 64"><defs><style>.cls-1{fill:#dfe8f4;}.cls-2{fill:#ccd8e5;}.cls-3{fill:#dd1515;}.cls-4{fill:#ff5454;}</style></defs><title>commerce, ecommerce, shopping, shop, store, building</title><rect class="cls-1" x="9.47" y="27.85" width="45.05" height="28.15"/><polygon class="cls-2" points="54.53 28.35 47.69 27.85 11.17 27.85 9.84 32.55 33.28 56 54.53 56 54.53 28.35"/><path class="cls-2" d="M55.17,56H8.83A.83.83,0,0,1,8,55.17H8a.84.84,0,0,1,.83-.84H55.17a.84.84,0,0,1,.83.84h0A.83.83,0,0,1,55.17,56Z"/><path class="cls-3" d="M28.39,38h7.21a.68.68,0,0,1,.68.68V54.33a0,0,0,0,1,0,0H27.72a0,0,0,0,1,0,0V38.68A.68.68,0,0,1,28.39,38Z"/><path class="cls-4" d="M34.46,47.33a.67.67,0,1,1-.67-.67A.67.67,0,0,1,34.46,47.33Z"/><path class="cls-3" d="M56,27.29H8l4.39-10.45a2.38,2.38,0,0,1,2.2-1.46H49.41a2.38,2.38,0,0,1,2.2,1.46Z"/><polygon class="cls-4" points="46.39 27.29 17.61 27.29 20.64 15.38 43.36 15.38 46.39 27.29"/><polygon class="cls-3" points="36.78 27.29 27.22 27.29 28.23 15.38 35.77 15.38 36.78 27.29"/><path class="cls-3" d="M12.8,33.58h0A4.8,4.8,0,0,1,8,28.78V27.29h9.6v1.49A4.8,4.8,0,0,1,12.8,33.58Z"/><path class="cls-4" d="M22.4,33.58h0a4.8,4.8,0,0,1-4.8-4.8V27.29h9.6v1.49A4.8,4.8,0,0,1,22.4,33.58Z"/><path class="cls-3" d="M32,33.58h0a4.8,4.8,0,0,1-4.8-4.8V27.29h9.6v1.49A4.8,4.8,0,0,1,32,33.58Z"/><path class="cls-4" d="M41.6,33.58h0a4.8,4.8,0,0,1-4.8-4.8V27.29h9.6v1.49A4.8,4.8,0,0,1,41.6,33.58Z"/><path class="cls-3" d="M51.2,33.58h0a4.8,4.8,0,0,1-4.8-4.8V27.29H56v1.49A4.8,4.8,0,0,1,51.2,33.58Z"/><path class="cls-3" d="M19.24,41.89h3.89V38.83A.83.83,0,0,0,22.3,38H19.24Z"/><path class="cls-3" d="M18.37,41.89V38H15.3a.83.83,0,0,0-.82.83v3.06Z"/><path class="cls-3" d="M19.24,42.77v3.89H22.3a.83.83,0,0,0,.83-.83V42.77Z"/><path class="cls-3" d="M18.37,42.77H14.48v3.06a.83.83,0,0,0,.82.83h3.07Z"/><path class="cls-3" d="M45.63,41.89h3.89V38.83A.83.83,0,0,0,48.7,38H45.63Z"/><path class="cls-3" d="M44.76,41.89V38H41.7a.83.83,0,0,0-.83.83v3.06Z"/><path class="cls-3" d="M45.63,42.77v3.89H48.7a.83.83,0,0,0,.82-.83V42.77Z"/><path class="cls-3" d="M44.76,42.77H40.87v3.06a.83.83,0,0,0,.83.83h3.06Z"/></svg>