<svg id="Layer_1" data-name="Layer 1" xmlns="http://www.w3.org/2000/svg" viewBox="0 0 64 64"><defs><style>.cls-1{fill:#dfe8f4;}.cls-2{fill:#ccd8e5;}.cls-3{fill:#ff5454;}.cls-4{fill:#dd1515;}</style></defs><title>commerce, ecommerce, shopping, duplex, building, shop, store</title><path class="cls-1" d="M15,8H49a3.46,3.46,0,0,1,3.46,3.46V56a0,0,0,0,1,0,0H11.53a0,0,0,0,1,0,0V11.46A3.46,3.46,0,0,1,15,8Z"/><polygon class="cls-2" points="52.47 33.88 11.53 33.88 11.53 37.94 29.59 56 52.47 56 52.47 33.88"/><path class="cls-2" d="M49,8H15a3.46,3.46,0,0,0-3.47,3.46v3L31.79,34.71H52.47V11.46A3.46,3.46,0,0,0,49,8Z"/><path class="cls-3" d="M19.42,37.94h0a3.16,3.16,0,0,1-3.17-3.16v-3.3h6.33v3.3A3.15,3.15,0,0,1,19.42,37.94Z"/><path class="cls-4" d="M25.75,37.94h0a3.16,3.16,0,0,1-3.17-3.16v-3.3h6.34v3.3A3.16,3.16,0,0,1,25.75,37.94Z"/><path class="cls-4" d="M11.53,31.48h4.72a0,0,0,0,1,0,0v3.29a3.17,3.17,0,0,1-3.17,3.17H10.33a.41.41,0,0,1-.41-.41V33.1A1.62,1.62,0,0,1,11.53,31.48Z"/><path class="cls-3" d="M32.08,37.94h0a3.15,3.15,0,0,1-3.16-3.16v-3.3h6.33v3.3A3.16,3.16,0,0,1,32.08,37.94Z"/><path class="cls-4" d="M38.42,37.94h0a3.16,3.16,0,0,1-3.17-3.16v-3.3h6.33v3.3A3.15,3.15,0,0,1,38.42,37.94Z"/><path class="cls-4" d="M47.92,31.48h4.72a1.62,1.62,0,0,1,1.62,1.62v4.43a.42.42,0,0,1-.42.42H51.08a3.17,3.17,0,0,1-3.17-3.17V31.48A0,0,0,0,1,47.92,31.48Z"/><path class="cls-3" d="M44.75,37.94h0a3.16,3.16,0,0,1-3.17-3.16v-3.3h6.34v3.3A3.16,3.16,0,0,1,44.75,37.94Z"/><path class="cls-3" d="M19.42,14.46h0a3.17,3.17,0,0,1-3.17-3.17V8h6.33v3.29A3.16,3.16,0,0,1,19.42,14.46Z"/><path class="cls-4" d="M25.75,14.46h0a3.17,3.17,0,0,1-3.17-3.17V8h6.34v3.29A3.17,3.17,0,0,1,25.75,14.46Z"/><path class="cls-4" d="M11.53,8h4.72a0,0,0,0,1,0,0v3.29a3.17,3.17,0,0,1-3.17,3.17H10.33A.41.41,0,0,1,9.92,14V9.62A1.62,1.62,0,0,1,11.53,8Z"/><path class="cls-3" d="M32.08,14.46h0a3.16,3.16,0,0,1-3.16-3.17V8h6.33v3.29A3.17,3.17,0,0,1,32.08,14.46Z"/><path class="cls-4" d="M38.42,14.46h0a3.17,3.17,0,0,1-3.17-3.17V8h6.33v3.29A3.16,3.16,0,0,1,38.42,14.46Z"/><path class="cls-4" d="M47.92,8h4.72a1.62,1.62,0,0,1,1.62,1.62V14a.42.42,0,0,1-.42.42H51.08a3.17,3.17,0,0,1-3.17-3.17V8A0,0,0,0,1,47.92,8Z"/><path class="cls-3" d="M44.75,14.46h0a3.17,3.17,0,0,1-3.17-3.17V8h6.34v3.29A3.17,3.17,0,0,1,44.75,14.46Z"/><path class="cls-2" d="M55.17,56H8.83A.83.83,0,0,1,8,55.17H8a.84.84,0,0,1,.83-.84H55.17a.84.84,0,0,1,.83.84h0A.83.83,0,0,1,55.17,56Z"/><rect class="cls-3" x="15.75" y="18.34" width="32.5" height="8.04" rx="0.65"/><rect class="cls-3" x="15.75" y="40.92" width="19.5" height="8.04" rx="0.77"/><path class="cls-4" d="M34.48,40.92h-18a.76.76,0,0,0-.76.77v.47l6.8,6.8H34.48a.77.77,0,0,0,.77-.77v-6.5A.76.76,0,0,0,34.48,40.92Z"/><path class="cls-4" d="M23.45,26.38H47.6a.66.66,0,0,0,.65-.66V19a.65.65,0,0,0-.65-.65H16.4a.65.65,0,0,0-.6.39Z"/><path class="cls-4" d="M39.27,40.92a.85.85,0,0,0-.85.85V54.33h4.5V40.92Z"/><path class="cls-4" d="M47.4,40.92H43.75V54.33h4.5V41.77A.85.85,0,0,0,47.4,40.92Z"/></svg>