<svg id="Layer_1" data-name="Layer 1" xmlns="http://www.w3.org/2000/svg" viewBox="0 0 64 64"><defs><style>.cls-1{fill:#ff5454;}.cls-2{fill:#dd1515;}.cls-3{fill:#dfe8f4;}.cls-4{fill:#ccd8e5;}.cls-5{fill:#fff;}</style></defs><title>commerce, ecommerce, shopping, groceries, food</title><path class="cls-1" d="M33.75,17.12H43a3.17,3.17,0,0,1,3.17,3.17V53A3.17,3.17,0,0,1,43,56.14H33.75a0,0,0,0,1,0,0v-39A0,0,0,0,1,33.75,17.12Z"/><path class="cls-2" d="M33.75,52.31v3.83H43A3.17,3.17,0,0,0,46.18,53V37.31a6,6,0,0,0-3.59-5.5L35.9,28.87Z"/><path class="cls-3" d="M11.17,17.12H35.9a0,0,0,0,1,0,0V54.35a1.79,1.79,0,0,1-1.79,1.79H11.17A3.17,3.17,0,0,1,8,53V20.28A3.17,3.17,0,0,1,11.17,17.12Z"/><polygon class="cls-4" points="35.9 28.87 29.21 22.18 26.06 28.51 18.04 29.37 35.9 47.23 35.9 28.87"/><path class="cls-5" d="M21,30.43a7.71,7.71,0,0,1-6.55-7.73v-.2a1.23,1.23,0,0,1,1.23-1.23h0a1.23,1.23,0,0,1,1.23,1.23v.23A5.23,5.23,0,0,0,21.44,28,5.08,5.08,0,0,0,27,23V22.5a1.23,1.23,0,0,1,1.23-1.23h0a1.24,1.24,0,0,1,1.24,1.23V23A7.55,7.55,0,0,1,21,30.43Z"/><path class="cls-1" d="M28.38,7.86a7.56,7.56,0,0,1,7.54,7.54v1.69H33.45V15.4a5.08,5.08,0,0,0-10.15,0v1.69H20.84V15.4A7.55,7.55,0,0,1,28.38,7.86Z"/><rect class="cls-2" x="20.84" y="15.72" width="2.46" height="1.38"/><rect class="cls-2" x="33.45" y="15.72" width="2.46" height="1.38"/><circle class="cls-4" cx="47.98" cy="47.98" r="8.02" transform="translate(-9.4 84.2) rotate(-77.26)"/><circle class="cls-3" cx="45.19" cy="45.19" r="2.02"/><path class="cls-4" d="M43.79,37.14a5,5,0,0,0,4.15,1.41A5,5,0,0,0,42.37,33,5,5,0,0,0,43.79,37.14Z"/><path class="cls-3" d="M43.79,37.14a5,5,0,0,0,4.15,1.41L42.37,33A5,5,0,0,0,43.79,37.14Z"/><polygon class="cls-4" points="17.94 37 13.25 41.67 13.25 56.11 17.94 56.11 22.64 56.11 25.95 56.11 25.95 37 17.94 37"/><polygon class="cls-5" points="13.25 41.67 25.95 41.67 25.95 37 17.94 37 13.25 41.67"/><polygon class="cls-1" points="25.95 37 21.26 41.67 21.26 56.11 30.65 56.11 30.65 41.67 25.95 37"/><path class="cls-2" d="M18.4,35.06h7.07a.48.48,0,0,1,.48.48V37a0,0,0,0,1,0,0h-8a0,0,0,0,1,0,0V35.54A.48.48,0,0,1,18.4,35.06Z"/><path class="cls-2" d="M30.65,56.11h0V41.67L26,37l-4.69,4.67,3.44,3.44a4.62,4.62,0,0,1,1.35,3.25v3.16A4.59,4.59,0,0,0,30.65,56.11Z"/></svg>