<svg id="Layer_1" data-name="Layer 1" xmlns="http://www.w3.org/2000/svg" viewBox="0 0 64 64"><defs><style>.cls-1{fill:#dd1515;}.cls-2{fill:#ff5454;}.cls-3{fill:#ccd8e5;}.cls-4{fill:#dfe8f4;}</style></defs><title>commerce, ecommerce, shopping, add, new, gift, present</title><path class="cls-1" d="M28.73,18.85A10.86,10.86,0,0,1,39.58,8a9.6,9.6,0,0,1,0,19.19H28.73Zm6.34,0v2h4.51a3.25,3.25,0,0,0,0-6.49A4.51,4.51,0,0,0,35.07,18.85Z"/><path class="cls-2" d="M35.07,27.19H24.22A9.6,9.6,0,0,1,24.22,8,10.87,10.87,0,0,1,35.07,18.85ZM24.22,14.35a3.25,3.25,0,1,0,0,6.49h4.5v-2A4.51,4.51,0,0,0,24.22,14.35Z"/><path class="cls-3" d="M11.73,30.11H52.07a0,0,0,0,1,0,0V55a1,1,0,0,1-1,1h-35a4.34,4.34,0,0,1-4.34-4.34V30.11A0,0,0,0,1,11.73,30.11Z"/><path class="cls-4" d="M11.73,31.68v1.89a.95.95,0,0,0,0-1.89Z"/><circle class="cls-4" cx="15.09" cy="32.62" r="0.94"/><circle class="cls-4" cx="18.45" cy="32.62" r="0.94"/><path class="cls-4" d="M22.76,32.62a.95.95,0,1,1-.94-.94A1,1,0,0,1,22.76,32.62Z"/><circle class="cls-4" cx="25.18" cy="32.62" r="0.94"/><circle class="cls-4" cx="28.54" cy="32.62" r="0.94"/><circle class="cls-4" cx="31.9" cy="32.62" r="0.94"/><circle class="cls-4" cx="35.26" cy="32.62" r="0.94"/><path class="cls-4" d="M39.56,32.62a.94.94,0,1,1-.94-.94A.95.95,0,0,1,39.56,32.62Z"/><circle class="cls-4" cx="41.98" cy="32.62" r="0.94"/><circle class="cls-4" cx="45.34" cy="32.62" r="0.94"/><circle class="cls-4" cx="48.7" cy="32.62" r="0.94"/><path class="cls-4" d="M51.12,32.62a1,1,0,0,0,1,1V31.68A1,1,0,0,0,51.12,32.62Z"/><path class="cls-4" d="M13.41,35.22v1.89a.95.95,0,0,0,0-1.89Z"/><circle class="cls-4" cx="16.77" cy="36.17" r="0.94"/><path class="cls-4" d="M14.35,36.17a.94.94,0,1,1-.94-1A.94.94,0,0,1,14.35,36.17Z"/><circle class="cls-4" cx="20.13" cy="36.17" r="0.94"/><circle class="cls-4" cx="23.5" cy="36.17" r="0.94"/><circle class="cls-4" cx="26.86" cy="36.17" r="0.94"/><path class="cls-4" d="M31.16,36.17a.94.94,0,1,1-.94-1A.94.94,0,0,1,31.16,36.17Z"/><circle class="cls-4" cx="33.58" cy="36.17" r="0.94"/><circle class="cls-4" cx="36.94" cy="36.17" r="0.94"/><circle class="cls-4" cx="40.3" cy="36.17" r="0.94"/><circle class="cls-4" cx="43.66" cy="36.17" r="0.94"/><path class="cls-4" d="M48,36.17a.95.95,0,1,1-.95-1A.95.95,0,0,1,48,36.17Z"/><path class="cls-4" d="M51.33,36.17a.95.95,0,0,1-1.89,0,.95.95,0,1,1,1.89,0Z"/><path class="cls-4" d="M13.41,42.31v1.88a.94.94,0,1,0,0-1.88Z"/><circle class="cls-4" cx="16.77" cy="43.25" r="0.94"/><path class="cls-4" d="M14.35,43.25a.94.94,0,1,1-.94-.94A.94.94,0,0,1,14.35,43.25Z"/><circle class="cls-4" cx="20.13" cy="43.25" r="0.94"/><circle class="cls-4" cx="23.5" cy="43.25" r="0.94"/><circle class="cls-4" cx="26.86" cy="43.25" r="0.94"/><path class="cls-4" d="M31.16,43.25a.94.94,0,1,1-.94-.94A.94.94,0,0,1,31.16,43.25Z"/><circle class="cls-4" cx="33.58" cy="43.25" r="0.94"/><circle class="cls-4" cx="36.94" cy="43.25" r="0.94"/><circle class="cls-4" cx="40.3" cy="43.25" r="0.94"/><circle class="cls-4" cx="43.66" cy="43.25" r="0.94"/><path class="cls-4" d="M48,43.25a.95.95,0,1,1-.95-.94A.95.95,0,0,1,48,43.25Z"/><path class="cls-4" d="M51.33,43.25a.95.95,0,1,1-.94-.94A.94.94,0,0,1,51.33,43.25Z"/><path class="cls-4" d="M13.41,49.39v1.88a.94.94,0,1,0,0-1.88Z"/><circle class="cls-4" cx="16.77" cy="50.33" r="0.94"/><path class="cls-4" d="M14.35,50.33a.94.94,0,1,1-.94-.94A.94.94,0,0,1,14.35,50.33Z"/><circle class="cls-4" cx="20.13" cy="50.33" r="0.94"/><circle class="cls-4" cx="23.5" cy="50.33" r="0.94"/><circle class="cls-4" cx="26.86" cy="50.33" r="0.94"/><path class="cls-4" d="M31.16,50.33a.94.94,0,1,1-.94-.94A.94.94,0,0,1,31.16,50.33Z"/><circle class="cls-4" cx="33.58" cy="50.33" r="0.94"/><circle class="cls-4" cx="36.94" cy="50.33" r="0.94"/><circle class="cls-4" cx="40.3" cy="50.33" r="0.94"/><circle class="cls-4" cx="43.66" cy="50.33" r="0.94"/><path class="cls-4" d="M48,50.33a.95.95,0,1,1-.95-.94A.95.95,0,0,1,48,50.33Z"/><path class="cls-4" d="M51.33,50.33a.95.95,0,1,1-.94-.94A.94.94,0,0,1,51.33,50.33Z"/><path class="cls-4" d="M11.73,38.77v1.88a.94.94,0,1,0,0-1.88Z"/><circle class="cls-4" cx="15.09" cy="39.71" r="0.94"/><circle class="cls-4" cx="18.45" cy="39.71" r="0.94"/><path class="cls-4" d="M22.76,39.71a.95.95,0,1,1-.94-.94A.95.95,0,0,1,22.76,39.71Z"/><circle class="cls-4" cx="25.18" cy="39.71" r="0.94"/><circle class="cls-4" cx="28.54" cy="39.71" r="0.94"/><circle class="cls-4" cx="31.9" cy="39.71" r="0.94"/><circle class="cls-4" cx="35.26" cy="39.71" r="0.94"/><path class="cls-4" d="M39.56,39.71a.94.94,0,1,1-.94-.94A.94.94,0,0,1,39.56,39.71Z"/><circle class="cls-4" cx="41.98" cy="39.71" r="0.94"/><circle class="cls-4" cx="45.34" cy="39.71" r="0.94"/><circle class="cls-4" cx="48.7" cy="39.71" r="0.94"/><path class="cls-4" d="M51.12,39.71a1,1,0,0,0,1,.94V38.77A1,1,0,0,0,51.12,39.71Z"/><path class="cls-4" d="M11.73,45.85v1.88a.94.94,0,1,0,0-1.88Z"/><circle class="cls-4" cx="15.09" cy="46.79" r="0.94"/><circle class="cls-4" cx="18.45" cy="46.79" r="0.94"/><path class="cls-4" d="M22.76,46.79a.95.95,0,1,1-.94-.94A.95.95,0,0,1,22.76,46.79Z"/><circle class="cls-4" cx="25.18" cy="46.79" r="0.94"/><circle class="cls-4" cx="28.54" cy="46.79" r="0.94"/><circle class="cls-4" cx="31.9" cy="46.79" r="0.94"/><circle class="cls-4" cx="35.26" cy="46.79" r="0.94"/><path class="cls-4" d="M39.56,46.79a.94.94,0,1,1-.94-.94A.94.94,0,0,1,39.56,46.79Z"/><circle class="cls-4" cx="41.98" cy="46.79" r="0.94"/><circle class="cls-4" cx="45.34" cy="46.79" r="0.94"/><circle class="cls-4" cx="48.7" cy="46.79" r="0.94"/><path class="cls-4" d="M51.12,46.79a1,1,0,0,0,1,.94V45.85A1,1,0,0,0,51.12,46.79Z"/><circle class="cls-4" cx="15.09" cy="53.87" r="0.94"/><circle class="cls-4" cx="18.45" cy="53.87" r="0.94"/><path class="cls-4" d="M22.76,53.87a.95.95,0,1,1-.94-.94A1,1,0,0,1,22.76,53.87Z"/><circle class="cls-4" cx="25.18" cy="53.87" r="0.94"/><circle class="cls-4" cx="28.54" cy="53.87" r="0.94"/><circle class="cls-4" cx="31.9" cy="53.87" r="0.94"/><circle class="cls-4" cx="35.26" cy="53.87" r="0.94"/><path class="cls-4" d="M39.56,53.87a.94.94,0,1,1-.94-.94A.95.95,0,0,1,39.56,53.87Z"/><circle class="cls-4" cx="41.98" cy="53.87" r="0.94"/><circle class="cls-4" cx="45.34" cy="53.87" r="0.94"/><circle class="cls-4" cx="48.7" cy="53.87" r="0.94"/><path class="cls-4" d="M51.12,53.87a1,1,0,0,0,1,1V52.93A1,1,0,0,0,51.12,53.87Z"/><rect class="cls-4" x="7.9" y="20.8" width="48" height="9.31" rx="0.89"/><rect class="cls-3" x="35.07" y="20.8" width="1.62" height="9.31"/><rect class="cls-1" x="28.73" y="30.11" width="6.34" height="25.89"/><rect class="cls-2" x="28.73" y="20" width="6.34" height="10.11"/><circle class="cls-1" cx="16.52" cy="47.38" r="8.62"/><rect class="cls-4" x="12.52" y="46.49" width="7.99" height="1.79" rx="0.08"/><rect class="cls-4" x="12.52" y="46.49" width="7.99" height="1.79" rx="0.08" transform="translate(63.9 30.87) rotate(90)"/></svg>