<svg id="Layer_1" data-name="Layer 1" xmlns="http://www.w3.org/2000/svg" viewBox="0 0 64 64"><defs><style>.cls-1{fill:#F4DFDF;}.cls-2{fill:#fff;}.cls-3{fill:#e5cccc;}.cls-4{fill:#FC0707;}.cls-5{fill:#DD1515;}</style></defs><title>commerce, ecommerce, shopping, search, find, magnifier, clothes, clothing</title><path class="cls-1" d="M55.14,55.11a3.67,3.67,0,0,1-5.2,0L38.78,44A3.68,3.68,0,0,1,44,38.76L55.14,49.91A3.67,3.67,0,0,1,55.14,55.11Z"/><path class="cls-2" d="M19.65,39.62a14.26,14.26,0,1,1,17.36,0A14.28,14.28,0,0,1,19.65,39.62Z"/><path class="cls-1" d="M55.07,49.84l-8.15-8.15A3.08,3.08,0,0,1,46.43,38a20.55,20.55,0,1,0-8.37,8.38,3.08,3.08,0,0,1,3.66.49l8.22,8.21a3.68,3.68,0,0,0,5.69-.59A3.75,3.75,0,0,0,55.07,49.84ZM19.65,39.62a14.26,14.26,0,1,1,17.36,0A14.28,14.28,0,0,1,19.65,39.62Z"/><path class="cls-3" d="M51.64,46.41l-5.21,5.2,3.51,3.5a3.68,3.68,0,0,0,5.2-5.2Z"/><path class="cls-4" d="M28.33,20.89h0a12.79,12.79,0,0,0-8.53,3.26l-.43.39a.58.58,0,0,0-.09.78l1.66,2.35a.61.61,0,0,0,.84.14L23,27v8.47a.3.3,0,0,0,.29.3H33.4a.3.3,0,0,0,.3-.3V27l1.19.85a.59.59,0,0,0,.83-.14l1.67-2.35a.59.59,0,0,0-.09-.78l-.43-.39A12.82,12.82,0,0,0,28.33,20.89Z"/><path class="cls-5" d="M28.33,20.89a12.65,12.65,0,0,0-3.07.38,3.09,3.09,0,0,0,6.15,0A12.67,12.67,0,0,0,28.33,20.89Z"/></svg>