<svg id="Layer_1" data-name="Layer 1" xmlns="http://www.w3.org/2000/svg" viewBox="0 0 64 64"><defs><style>.cls-1{fill:#dd1515;}.cls-2{fill:#ff5454;}.cls-3{fill:#ccd8e5;}.cls-4{fill:#dfe8f4;}</style></defs><title>commerce, ecommerce, shopping, delete, remove, gift, present</title><path class="cls-1" d="M28.62,18.85A10.87,10.87,0,0,1,39.48,8a9.6,9.6,0,0,1,0,19.19H28.62Zm6.35,0v2h4.51a3.25,3.25,0,0,0,0-6.49A4.51,4.51,0,0,0,35,18.85Z"/><path class="cls-2" d="M35,27.19H24.12A9.6,9.6,0,0,1,24.12,8,10.87,10.87,0,0,1,35,18.85ZM24.12,14.35a3.25,3.25,0,1,0,0,6.49h4.5v-2A4.51,4.51,0,0,0,24.12,14.35Z"/><path class="cls-3" d="M11.63,30.11H52a0,0,0,0,1,0,0V55a1,1,0,0,1-1,1H16a4.34,4.34,0,0,1-4.34-4.34V30.11A0,0,0,0,1,11.63,30.11Z"/><path class="cls-4" d="M11.63,31.68v1.89a.95.95,0,0,0,0-1.89Z"/><circle class="cls-4" cx="14.99" cy="32.62" r="0.94"/><circle class="cls-4" cx="18.35" cy="32.62" r="0.94"/><circle class="cls-4" cx="21.71" cy="32.62" r="0.94"/><circle class="cls-4" cx="25.07" cy="32.62" r="0.94"/><path class="cls-4" d="M29.38,32.62a.95.95,0,1,1-.94-.94A.95.95,0,0,1,29.38,32.62Z"/><circle class="cls-4" cx="31.8" cy="32.62" r="0.94"/><circle class="cls-4" cx="35.16" cy="32.62" r="0.94"/><circle class="cls-4" cx="38.52" cy="32.62" r="0.94"/><circle class="cls-4" cx="41.88" cy="32.62" r="0.94"/><path class="cls-4" d="M46.18,32.62a.94.94,0,1,1-.94-.94A.95.95,0,0,1,46.18,32.62Z"/><path class="cls-4" d="M49.54,32.62a.94.94,0,1,1-.94-.94A.95.95,0,0,1,49.54,32.62Z"/><path class="cls-4" d="M51,32.62a1,1,0,0,0,.94,1V31.68A.94.94,0,0,0,51,32.62Z"/><path class="cls-4" d="M13.31,35.22v1.89a.95.95,0,0,0,0-1.89Z"/><circle class="cls-4" cx="16.67" cy="36.17" r="0.94"/><path class="cls-4" d="M14.25,36.17a.94.94,0,1,1-.94-1A.94.94,0,0,1,14.25,36.17Z"/><path class="cls-4" d="M21,36.17a.94.94,0,1,1-.94-1A.94.94,0,0,1,21,36.17Z"/><circle class="cls-4" cx="23.39" cy="36.17" r="0.94"/><circle class="cls-4" cx="26.76" cy="36.17" r="0.94"/><circle class="cls-4" cx="30.12" cy="36.17" r="0.94"/><circle class="cls-4" cx="33.48" cy="36.17" r="0.94"/><path class="cls-4" d="M37.78,36.17a.94.94,0,1,1-.94-1A.94.94,0,0,1,37.78,36.17Z"/><circle class="cls-4" cx="40.2" cy="36.17" r="0.94"/><circle class="cls-4" cx="43.56" cy="36.17" r="0.94"/><path class="cls-4" d="M47.86,36.17a.94.94,0,1,1-.94-1A.94.94,0,0,1,47.86,36.17Z"/><circle class="cls-4" cx="50.28" cy="36.17" r="0.94"/><path class="cls-4" d="M13.31,42.31v1.88a.94.94,0,1,0,0-1.88Z"/><circle class="cls-4" cx="16.67" cy="43.25" r="0.94"/><path class="cls-4" d="M14.25,43.25a.94.94,0,1,1-.94-.94A.94.94,0,0,1,14.25,43.25Z"/><path class="cls-4" d="M21,43.25a.94.94,0,1,1-.94-.94A.94.94,0,0,1,21,43.25Z"/><circle class="cls-4" cx="23.39" cy="43.25" r="0.94"/><circle class="cls-4" cx="26.76" cy="43.25" r="0.94"/><circle class="cls-4" cx="30.12" cy="43.25" r="0.94"/><circle class="cls-4" cx="33.48" cy="43.25" r="0.94"/><path class="cls-4" d="M37.78,43.25a.94.94,0,1,1-.94-.94A.94.94,0,0,1,37.78,43.25Z"/><circle class="cls-4" cx="40.2" cy="43.25" r="0.94"/><circle class="cls-4" cx="43.56" cy="43.25" r="0.94"/><path class="cls-4" d="M47.86,43.25a.94.94,0,1,1-.94-.94A.94.94,0,0,1,47.86,43.25Z"/><circle class="cls-4" cx="50.28" cy="43.25" r="0.94"/><path class="cls-4" d="M13.31,49.39v1.88a.94.94,0,1,0,0-1.88Z"/><circle class="cls-4" cx="16.67" cy="50.33" r="0.94"/><path class="cls-4" d="M14.25,50.33a.94.94,0,1,1-.94-.94A.94.94,0,0,1,14.25,50.33Z"/><path class="cls-4" d="M21,50.33a.94.94,0,1,1-.94-.94A.94.94,0,0,1,21,50.33Z"/><circle class="cls-4" cx="23.39" cy="50.33" r="0.94"/><circle class="cls-4" cx="26.76" cy="50.33" r="0.94"/><circle class="cls-4" cx="30.12" cy="50.33" r="0.94"/><circle class="cls-4" cx="33.48" cy="50.33" r="0.94"/><path class="cls-4" d="M37.78,50.33a.94.94,0,1,1-.94-.94A.94.94,0,0,1,37.78,50.33Z"/><circle class="cls-4" cx="40.2" cy="50.33" r="0.94"/><circle class="cls-4" cx="43.56" cy="50.33" r="0.94"/><path class="cls-4" d="M47.86,50.33a.94.94,0,1,1-.94-.94A.94.94,0,0,1,47.86,50.33Z"/><circle class="cls-4" cx="50.28" cy="50.33" r="0.94"/><path class="cls-4" d="M11.63,38.77v1.88a.94.94,0,1,0,0-1.88Z"/><circle class="cls-4" cx="14.99" cy="39.71" r="0.94"/><circle class="cls-4" cx="18.35" cy="39.71" r="0.94"/><circle class="cls-4" cx="21.71" cy="39.71" r="0.94"/><circle class="cls-4" cx="25.07" cy="39.71" r="0.94"/><path class="cls-4" d="M29.38,39.71a.95.95,0,1,1-.94-.94A.94.94,0,0,1,29.38,39.71Z"/><circle class="cls-4" cx="31.8" cy="39.71" r="0.94"/><circle class="cls-4" cx="35.16" cy="39.71" r="0.94"/><circle class="cls-4" cx="38.52" cy="39.71" r="0.94"/><circle class="cls-4" cx="41.88" cy="39.71" r="0.94"/><path class="cls-4" d="M46.18,39.71a.94.94,0,1,1-.94-.94A.94.94,0,0,1,46.18,39.71Z"/><path class="cls-4" d="M49.54,39.71a.94.94,0,1,1-.94-.94A.94.94,0,0,1,49.54,39.71Z"/><path class="cls-4" d="M51,39.71a.94.94,0,0,0,.94.94V38.77A.94.94,0,0,0,51,39.71Z"/><path class="cls-4" d="M11.63,45.85v1.88a.94.94,0,1,0,0-1.88Z"/><circle class="cls-4" cx="14.99" cy="46.79" r="0.94"/><circle class="cls-4" cx="18.35" cy="46.79" r="0.94"/><circle class="cls-4" cx="21.71" cy="46.79" r="0.94"/><circle class="cls-4" cx="25.07" cy="46.79" r="0.94"/><path class="cls-4" d="M29.38,46.79a.95.95,0,1,1-.94-.94A.94.94,0,0,1,29.38,46.79Z"/><circle class="cls-4" cx="31.8" cy="46.79" r="0.94"/><circle class="cls-4" cx="35.16" cy="46.79" r="0.94"/><circle class="cls-4" cx="38.52" cy="46.79" r="0.94"/><circle class="cls-4" cx="41.88" cy="46.79" r="0.94"/><path class="cls-4" d="M46.18,46.79a.94.94,0,1,1-.94-.94A.94.94,0,0,1,46.18,46.79Z"/><path class="cls-4" d="M49.54,46.79a.94.94,0,1,1-.94-.94A.94.94,0,0,1,49.54,46.79Z"/><path class="cls-4" d="M51,46.79a.94.94,0,0,0,.94.94V45.85A.94.94,0,0,0,51,46.79Z"/><circle class="cls-4" cx="14.99" cy="53.87" r="0.94"/><circle class="cls-4" cx="18.35" cy="53.87" r="0.94"/><circle class="cls-4" cx="21.71" cy="53.87" r="0.94"/><circle class="cls-4" cx="25.07" cy="53.87" r="0.94"/><path class="cls-4" d="M29.38,53.87a.95.95,0,1,1-.94-.94A.95.95,0,0,1,29.38,53.87Z"/><circle class="cls-4" cx="31.8" cy="53.87" r="0.94"/><circle class="cls-4" cx="35.16" cy="53.87" r="0.94"/><circle class="cls-4" cx="38.52" cy="53.87" r="0.94"/><circle class="cls-4" cx="41.88" cy="53.87" r="0.94"/><path class="cls-4" d="M46.18,53.87a.94.94,0,1,1-.94-.94A.95.95,0,0,1,46.18,53.87Z"/><path class="cls-4" d="M49.54,53.87a.94.94,0,1,1-.94-.94A.95.95,0,0,1,49.54,53.87Z"/><path class="cls-4" d="M51,53.87a1,1,0,0,0,.94,1V52.93A.94.94,0,0,0,51,53.87Z"/><rect class="cls-4" x="7.8" y="20.8" width="48" height="9.31" rx="0.89"/><rect class="cls-3" x="34.97" y="20.8" width="1.62" height="9.31"/><rect class="cls-1" x="28.62" y="30.11" width="6.34" height="25.89"/><rect class="cls-2" x="28.63" y="20" width="6.34" height="10.11"/><circle class="cls-1" cx="16.41" cy="47.38" r="8.62"/><rect class="cls-4" x="12.42" y="46.49" width="7.99" height="1.79" rx="0.08"/></svg>