<svg id="Layer_1" data-name="Layer 1" xmlns="http://www.w3.org/2000/svg" viewBox="0 0 64 64"><defs><style>.cls-1{fill:#dfe8f4;}.cls-2{fill:#ff5454;}.cls-3{fill:#dd1515;}.cls-4{fill:#ccd8e5;}.cls-5{fill:#fff;}</style></defs><title>commerce, ecommerce, shopping, webpage, browser, shop</title><rect class="cls-1" x="8" y="8" width="48" height="41.13" rx="4.09"/><path class="cls-2" d="M51.91,8H12.09A4.09,4.09,0,0,0,8,12.09V14H56V12.09A4.09,4.09,0,0,0,51.91,8Z"/><rect class="cls-3" x="12.66" y="10.38" width="1.23" height="1.23"/><rect class="cls-3" x="15.19" y="10.38" width="1.23" height="1.23"/><rect class="cls-3" x="17.71" y="10.38" width="1.23" height="1.23"/><rect class="cls-3" x="8" y="14" width="48" height="1.65"/><path class="cls-4" d="M56,18.44H10.79A2.79,2.79,0,0,1,8,15.65H56Z"/><path class="cls-3" d="M45.3,55H18.7V36.67a1.46,1.46,0,0,1,1.18-1.44l23.65-4.78A1.48,1.48,0,0,1,45.3,31.9Z"/><path class="cls-2" d="M46,56H18a.5.5,0,0,1-.5-.5h0A.5.5,0,0,1,18,55H46a.5.5,0,0,1,.5.51h0A.5.5,0,0,1,46,56Z"/><path class="cls-4" d="M21.36,43.43A2.66,2.66,0,0,0,24,40.77V34.39l-4.14.84a1.46,1.46,0,0,0-1.18,1.44v4.1A2.66,2.66,0,0,0,21.36,43.43Z"/><path class="cls-5" d="M26.68,43.43a2.66,2.66,0,0,0,2.66-2.66V33.32L24,34.39v6.38A2.66,2.66,0,0,0,26.68,43.43Z"/><path class="cls-4" d="M32,43.43a2.66,2.66,0,0,0,2.66-2.66V32.24l-5.32,1.08v7.45A2.66,2.66,0,0,0,32,43.43Z"/><path class="cls-5" d="M37.32,43.43A2.66,2.66,0,0,0,40,40.77v-9.6l-5.32,1.07v8.53A2.66,2.66,0,0,0,37.32,43.43Z"/><path class="cls-4" d="M43.53,30.45,40,31.17v9.6a2.66,2.66,0,1,0,5.32,0V31.9A1.48,1.48,0,0,0,43.53,30.45Z"/><path class="cls-2" d="M29.12,45.11H39.66a2.28,2.28,0,0,1,2.28,2.28v3.15a.58.58,0,0,1-.58.58H29.12a.58.58,0,0,1-.58-.58V45.69A.58.58,0,0,1,29.12,45.11Z"/><path class="cls-2" d="M24.23,45.11H26.9a.47.47,0,0,1,.47.47V55a0,0,0,0,1,0,0H22.06a0,0,0,0,1,0,0V47.28A2.18,2.18,0,0,1,24.23,45.11Z"/></svg>