<svg id="Layer_1" data-name="Layer 1" xmlns="http://www.w3.org/2000/svg" viewBox="0 0 64 64"><defs><style>.cls-1{fill:#DD1515;}.cls-2{fill:#FC0707;}.cls-3{fill:#e5cccc;}.cls-4{fill:#F4DFDF;}</style></defs><title>commerce, ecommerce, shopping, favourite, gift, present</title><path class="cls-1" d="M28.93,18.85A10.87,10.87,0,0,1,39.78,8a9.6,9.6,0,0,1,0,19.19H28.93Zm6.35,0v2h4.5a3.25,3.25,0,1,0,0-6.49A4.51,4.51,0,0,0,35.28,18.85Z"/><path class="cls-2" d="M35.27,27.19H24.42A9.6,9.6,0,0,1,24.42,8,10.86,10.86,0,0,1,35.27,18.85ZM24.42,14.35a3.25,3.25,0,0,0,0,6.49h4.51v-2A4.51,4.51,0,0,0,24.42,14.35Z"/><path class="cls-3" d="M11.93,30.11H52.27a0,0,0,0,1,0,0V55a1,1,0,0,1-1,1h-35a4.34,4.34,0,0,1-4.34-4.34V30.11A0,0,0,0,1,11.93,30.11Z"/><path class="cls-4" d="M11.93,31.68v1.89a.95.95,0,1,0,0-1.89Z"/><circle class="cls-4" cx="15.3" cy="32.62" r="0.94"/><circle class="cls-4" cx="18.66" cy="32.62" r="0.94"/><circle class="cls-4" cx="22.02" cy="32.62" r="0.94"/><circle class="cls-4" cx="25.38" cy="32.62" r="0.94"/><circle class="cls-4" cx="28.74" cy="32.62" r="0.94"/><circle class="cls-4" cx="32.1" cy="32.62" r="0.94"/><circle class="cls-4" cx="35.46" cy="32.62" r="0.94"/><circle class="cls-4" cx="38.82" cy="32.62" r="0.94"/><circle class="cls-4" cx="42.18" cy="32.62" r="0.94"/><circle class="cls-4" cx="45.55" cy="32.62" r="0.94"/><circle class="cls-4" cx="48.91" cy="32.62" r="0.94"/><path class="cls-4" d="M51.33,32.62a1,1,0,0,0,.94,1V31.68A.94.94,0,0,0,51.33,32.62Z"/><path class="cls-4" d="M13.61,35.22v1.89a.95.95,0,1,0,0-1.89Z"/><circle class="cls-4" cx="16.98" cy="36.17" r="0.94"/><path class="cls-4" d="M14.56,36.17a.95.95,0,1,1-1-1A.95.95,0,0,1,14.56,36.17Z"/><circle class="cls-4" cx="20.34" cy="36.17" r="0.94"/><circle class="cls-4" cx="23.7" cy="36.17" r="0.94"/><circle class="cls-4" cx="27.06" cy="36.17" r="0.94"/><circle class="cls-4" cx="30.42" cy="36.17" r="0.94"/><circle class="cls-4" cx="33.78" cy="36.17" r="0.94"/><circle class="cls-4" cx="37.14" cy="36.17" r="0.94"/><circle class="cls-4" cx="40.5" cy="36.17" r="0.94"/><circle class="cls-4" cx="43.87" cy="36.17" r="0.94"/><circle class="cls-4" cx="47.23" cy="36.17" r="0.94"/><path class="cls-4" d="M51.53,36.17a.94.94,0,1,1-.94-1A.94.94,0,0,1,51.53,36.17Z"/><path class="cls-4" d="M13.61,42.31v1.88a.94.94,0,1,0,0-1.88Z"/><circle class="cls-4" cx="16.98" cy="43.25" r="0.94"/><path class="cls-4" d="M14.56,43.25a.95.95,0,1,1-1-.94A.95.95,0,0,1,14.56,43.25Z"/><circle class="cls-4" cx="20.34" cy="43.25" r="0.94"/><circle class="cls-4" cx="23.7" cy="43.25" r="0.94"/><circle class="cls-4" cx="27.06" cy="43.25" r="0.94"/><circle class="cls-4" cx="30.42" cy="43.25" r="0.94"/><circle class="cls-4" cx="33.78" cy="43.25" r="0.94"/><circle class="cls-4" cx="37.14" cy="43.25" r="0.94"/><circle class="cls-4" cx="40.5" cy="43.25" r="0.94"/><circle class="cls-4" cx="43.87" cy="43.25" r="0.94"/><circle class="cls-4" cx="47.23" cy="43.25" r="0.94"/><path class="cls-4" d="M51.53,43.25a.94.94,0,1,1-.94-.94A.94.94,0,0,1,51.53,43.25Z"/><path class="cls-4" d="M13.61,49.39v1.88a.94.94,0,1,0,0-1.88Z"/><circle class="cls-4" cx="16.98" cy="50.33" r="0.94"/><path class="cls-4" d="M14.56,50.33a.95.95,0,1,1-1-.94A.95.95,0,0,1,14.56,50.33Z"/><circle class="cls-4" cx="20.34" cy="50.33" r="0.94"/><circle class="cls-4" cx="23.7" cy="50.33" r="0.94"/><circle class="cls-4" cx="27.06" cy="50.33" r="0.94"/><circle class="cls-4" cx="30.42" cy="50.33" r="0.94"/><circle class="cls-4" cx="33.78" cy="50.33" r="0.94"/><circle class="cls-4" cx="37.14" cy="50.33" r="0.94"/><circle class="cls-4" cx="40.5" cy="50.33" r="0.94"/><circle class="cls-4" cx="43.87" cy="50.33" r="0.94"/><circle class="cls-4" cx="47.23" cy="50.33" r="0.94"/><path class="cls-4" d="M51.53,50.33a.94.94,0,1,1-.94-.94A.94.94,0,0,1,51.53,50.33Z"/><path class="cls-4" d="M11.93,38.77v1.88a.94.94,0,1,0,0-1.88Z"/><circle class="cls-4" cx="15.3" cy="39.71" r="0.94"/><circle class="cls-4" cx="18.66" cy="39.71" r="0.94"/><circle class="cls-4" cx="22.02" cy="39.71" r="0.94"/><circle class="cls-4" cx="25.38" cy="39.71" r="0.94"/><circle class="cls-4" cx="28.74" cy="39.71" r="0.94"/><circle class="cls-4" cx="32.1" cy="39.71" r="0.94"/><circle class="cls-4" cx="35.46" cy="39.71" r="0.94"/><circle class="cls-4" cx="38.82" cy="39.71" r="0.94"/><circle class="cls-4" cx="42.18" cy="39.71" r="0.94"/><circle class="cls-4" cx="45.55" cy="39.71" r="0.94"/><circle class="cls-4" cx="48.91" cy="39.71" r="0.94"/><path class="cls-4" d="M51.33,39.71a.94.94,0,0,0,.94.94V38.77A.94.94,0,0,0,51.33,39.71Z"/><path class="cls-4" d="M11.93,45.85v1.88a.94.94,0,1,0,0-1.88Z"/><circle class="cls-4" cx="15.3" cy="46.79" r="0.94"/><circle class="cls-4" cx="18.66" cy="46.79" r="0.94"/><circle class="cls-4" cx="22.02" cy="46.79" r="0.94"/><circle class="cls-4" cx="25.38" cy="46.79" r="0.94"/><circle class="cls-4" cx="28.74" cy="46.79" r="0.94"/><circle class="cls-4" cx="32.1" cy="46.79" r="0.94"/><circle class="cls-4" cx="35.46" cy="46.79" r="0.94"/><circle class="cls-4" cx="38.82" cy="46.79" r="0.94"/><circle class="cls-4" cx="42.18" cy="46.79" r="0.94"/><circle class="cls-4" cx="45.55" cy="46.79" r="0.94"/><circle class="cls-4" cx="48.91" cy="46.79" r="0.94"/><path class="cls-4" d="M51.33,46.79a.94.94,0,0,0,.94.94V45.85A.94.94,0,0,0,51.33,46.79Z"/><circle class="cls-4" cx="15.3" cy="53.87" r="0.94"/><circle class="cls-4" cx="18.66" cy="53.87" r="0.94"/><circle class="cls-4" cx="22.02" cy="53.87" r="0.94"/><circle class="cls-4" cx="25.38" cy="53.87" r="0.94"/><circle class="cls-4" cx="28.74" cy="53.87" r="0.94"/><circle class="cls-4" cx="32.1" cy="53.87" r="0.94"/><circle class="cls-4" cx="35.46" cy="53.87" r="0.94"/><circle class="cls-4" cx="38.82" cy="53.87" r="0.94"/><circle class="cls-4" cx="42.18" cy="53.87" r="0.94"/><circle class="cls-4" cx="45.55" cy="53.87" r="0.94"/><circle class="cls-4" cx="48.91" cy="53.87" r="0.94"/><path class="cls-4" d="M51.33,53.87a1,1,0,0,0,.94,1V52.93A.94.94,0,0,0,51.33,53.87Z"/><rect class="cls-4" x="8.1" y="20.8" width="48" height="9.31" rx="0.89"/><rect class="cls-3" x="35.27" y="20.8" width="1.62" height="9.31"/><rect class="cls-1" x="28.93" y="30.11" width="6.34" height="25.89"/><rect class="cls-2" x="28.93" y="20" width="6.34" height="10.11"/><circle class="cls-1" cx="16.72" cy="47.38" r="8.62"/><path class="cls-4" d="M17,45.13l-.3.3-.3-.3a2.34,2.34,0,0,0-3.32,0h0a2.36,2.36,0,0,0,0,3.32l.3.29h0l3,3a.42.42,0,0,0,.6,0l3-3,.3-.29a2.34,2.34,0,0,0,0-3.32h0A2.33,2.33,0,0,0,17,45.13Z"/></svg>