<svg id="Layer_1" data-name="Layer 1" xmlns="http://www.w3.org/2000/svg" viewBox="0 0 64 64"><defs><style>.cls-1{fill:#F4DFDF;}.cls-2{fill:#FC0707;}.cls-3{fill:#DD1515;}.cls-4{fill:#e5cccc;}.cls-5{fill:#fff;}</style></defs><title>commerce, ecommerce, shopping, browser, webpage, store, shop</title><rect class="cls-1" x="8" y="8" width="48" height="41.13" rx="4.09"/><path class="cls-2" d="M51.91,8H12.09A4.09,4.09,0,0,0,8,12.09V14H56V12.09A4.09,4.09,0,0,0,51.91,8Z"/><rect class="cls-3" x="12.66" y="10.38" width="1.23" height="1.23"/><rect class="cls-3" x="15.19" y="10.38" width="1.23" height="1.23"/><rect class="cls-3" x="17.71" y="10.38" width="1.23" height="1.23"/><rect class="cls-3" x="8" y="14" width="48" height="1.65"/><path class="cls-4" d="M56,18.44H10.79A2.79,2.79,0,0,1,8,15.65H56Z"/><path class="cls-3" d="M31.94,31.2h.13A12.79,12.79,0,0,1,44.85,44V56a0,0,0,0,1,0,0H19.15a0,0,0,0,1,0,0V44A12.79,12.79,0,0,1,31.94,31.2Z"/><path class="cls-4" d="M33.5,30.74h-3A11.87,11.87,0,0,0,18.62,42.61H45.38A11.87,11.87,0,0,0,33.5,30.74Z"/><path class="cls-5" d="M23.7,45.24h0a2.08,2.08,0,0,1-2.07-2.08V41h4.15v2.16A2.08,2.08,0,0,1,23.7,45.24Z"/><path class="cls-4" d="M25.78,41h4.15a0,0,0,0,1,0,0v2.16a2.07,2.07,0,0,1-2.07,2.07h0a2.07,2.07,0,0,1-2.07-2.07V41A0,0,0,0,1,25.78,41Z"/><path class="cls-4" d="M18.54,41h3.09a0,0,0,0,1,0,0v2.16a2.07,2.07,0,0,1-2.07,2.07h-1.8a.27.27,0,0,1-.27-.27v-2.9A1.06,1.06,0,0,1,18.54,41Z"/><path class="cls-5" d="M32,45.24h0a2.07,2.07,0,0,1-2.07-2.08V41h4.14v2.16A2.07,2.07,0,0,1,32,45.24Z"/><path class="cls-4" d="M34.07,41h4.15a0,0,0,0,1,0,0v2.16a2.07,2.07,0,0,1-2.07,2.07h0a2.07,2.07,0,0,1-2.07-2.07V41A0,0,0,0,1,34.07,41Z"/><path class="cls-4" d="M42.37,41h3.09a1.06,1.06,0,0,1,1.06,1.06V45a.27.27,0,0,1-.27.27h-1.8a2.07,2.07,0,0,1-2.07-2.07V41A0,0,0,0,1,42.37,41Z"/><path class="cls-5" d="M40.3,45.24h0a2.08,2.08,0,0,1-2.08-2.08V41h4.15v2.16A2.08,2.08,0,0,1,40.3,45.24Z"/><path class="cls-2" d="M25.78,51.86H21.63V49.79a2.08,2.08,0,0,1,2.07-2.08h0a2.08,2.08,0,0,1,2.08,2.08Z"/><rect class="cls-2" x="21.3" y="51.86" width="4.8" height="0.56" rx="0.14"/><path class="cls-2" d="M42.37,51.86H38.22V49.79a2.08,2.08,0,0,1,2.08-2.08h0a2.08,2.08,0,0,1,2.07,2.08Z"/><rect class="cls-2" x="37.9" y="51.86" width="4.8" height="0.56" rx="0.14"/><path class="cls-2" d="M46,56H18a.5.5,0,0,1-.5-.5h0A.5.5,0,0,1,18,55H46a.5.5,0,0,1,.5.51h0A.5.5,0,0,1,46,56Z"/><path class="cls-2" d="M31.74,47.71H28.28a.43.43,0,0,0-.43.43V55h3.89Z"/><path class="cls-2" d="M35.72,47.71H32.26V55h3.89V48.14A.43.43,0,0,0,35.72,47.71Z"/></svg>