<svg id="Layer_1" data-name="Layer 1" xmlns="http://www.w3.org/2000/svg" viewBox="0 0 64 64"><defs><style>.cls-1{fill:#dd1515;}.cls-2{fill:#ff5454;}.cls-3{fill:#dfe8f4;}.cls-4{fill:#ccd8e5;}</style></defs><title>commerce, ecommerce, shopping, architecture, shop, store, computer, monitor</title><path class="cls-1" d="M37.45,50.77h0a2.24,2.24,0,0,1-2.24-2.24V45.27H28.79v3.26a2.24,2.24,0,0,1-2.24,2.24h0A3.55,3.55,0,0,0,23,54.32h0a1.78,1.78,0,0,0,1.79,1.78H39.21A1.78,1.78,0,0,0,41,54.32h0A3.55,3.55,0,0,0,37.45,50.77Z"/><path class="cls-2" d="M37.45,50.77H26.55A3.55,3.55,0,0,0,23,54.32h0a1.78,1.78,0,0,0,1.79,1.78H39.21A1.78,1.78,0,0,0,41,54.32h0A3.55,3.55,0,0,0,37.45,50.77Z"/><rect class="cls-3" x="8" y="13.27" width="48" height="34" rx="4.04"/><path class="cls-2" d="M8,41.48v1.75a4,4,0,0,0,4,4H52a4,4,0,0,0,4-4V41.48Z"/><rect class="cls-4" x="8" y="39.42" width="48" height="2.06"/><path class="cls-1" d="M33.1,44.27A1.1,1.1,0,1,1,32,43.18,1.1,1.1,0,0,1,33.1,44.27Z"/><path class="cls-2" d="M45.3,32.78H18.7V14.47A1.47,1.47,0,0,1,19.88,13L43.53,8.24A1.48,1.48,0,0,1,45.3,9.69Z"/><path class="cls-1" d="M46,33.79H18a.5.5,0,0,1-.5-.5h0a.5.5,0,0,1,.5-.51H46a.5.5,0,0,1,.5.51h0A.5.5,0,0,1,46,33.79Z"/><path class="cls-4" d="M21.36,21.22A2.66,2.66,0,0,0,24,18.56V12.18L19.88,13a1.47,1.47,0,0,0-1.18,1.45v4.09A2.66,2.66,0,0,0,21.36,21.22Z"/><path class="cls-3" d="M26.68,21.22a2.66,2.66,0,0,0,2.66-2.66V11.11L24,12.18v6.38A2.66,2.66,0,0,0,26.68,21.22Z"/><path class="cls-4" d="M32,21.22a2.66,2.66,0,0,0,2.66-2.66V10l-5.32,1.08v7.45A2.66,2.66,0,0,0,32,21.22Z"/><path class="cls-3" d="M37.32,21.22A2.66,2.66,0,0,0,40,18.56V9L34.66,10v8.53A2.66,2.66,0,0,0,37.32,21.22Z"/><path class="cls-4" d="M43.53,8.24,40,9v9.6a2.66,2.66,0,1,0,5.32,0V9.69A1.48,1.48,0,0,0,43.53,8.24Z"/><path class="cls-1" d="M41.36,28.92H29.12a.58.58,0,0,1-.58-.58V23.48a.58.58,0,0,1,.58-.58H39.66a2.28,2.28,0,0,1,2.28,2.28v3.16A.58.58,0,0,1,41.36,28.92Z"/><path class="cls-1" d="M27.37,32.78H22.06v-7.7a2.17,2.17,0,0,1,2.17-2.18H26.9a.47.47,0,0,1,.47.48Z"/></svg>