<svg id="Layer_1" data-name="Layer 1" xmlns="http://www.w3.org/2000/svg" viewBox="0 0 64 64"><defs><style>.cls-1{fill:#dfe8f4;}.cls-2{fill:#ff5454;}.cls-3{fill:#dd1515;}.cls-4{fill:#ccd8e5;}</style></defs><title>commerce, ecommerce, shopping, duplex, building, shop, store, smartphone</title><rect class="cls-1" x="24.86" y="8" width="30.67" height="48" rx="5.39"/><path class="cls-2" d="M50.14,8H30.25a5.39,5.39,0,0,0-5.39,5.39V50.61A5.39,5.39,0,0,0,30.25,56H50.14a5.39,5.39,0,0,0,5.39-5.39V13.39A5.39,5.39,0,0,0,50.14,8Zm3.39,42.61A3.39,3.39,0,0,1,50.14,54H30.25a3.39,3.39,0,0,1-3.39-3.39V13.39A3.39,3.39,0,0,1,30.25,10h2.52a1.82,1.82,0,0,1,1.41.67h0a1.84,1.84,0,0,0,1.42.66h9.19a1.84,1.84,0,0,0,1.41-.66h0A1.82,1.82,0,0,1,47.62,10h2.52a3.39,3.39,0,0,1,3.39,3.39Z"/><path class="cls-3" d="M24.75,20.91h.11a0,0,0,0,1,0,0v3.69a0,0,0,0,1,0,0h-.11a.37.37,0,0,1-.37-.37v-3A.37.37,0,0,1,24.75,20.91Z"/><path class="cls-3" d="M24.75,25.36h.11a0,0,0,0,1,0,0V29a0,0,0,0,1,0,0h-.11a.37.37,0,0,1-.37-.37v-3A.37.37,0,0,1,24.75,25.36Z"/><path class="cls-3" d="M55.89,20.91H56a0,0,0,0,1,0,0v3.69a0,0,0,0,1,0,0h-.11a.37.37,0,0,1-.37-.37v-3A.37.37,0,0,1,55.89,20.91Z" transform="translate(111.53 45.5) rotate(180)"/><path class="cls-3" d="M12.23,27H32.81a2.1,2.1,0,0,1,2.1,2.1V56a0,0,0,0,1,0,0H10.14a0,0,0,0,1,0,0V29.05A2.1,2.1,0,0,1,12.23,27Z"/><path class="cls-1" d="M14.91,45.07h0A1.91,1.91,0,0,1,13,43.16v-2h3.83v2A1.9,1.9,0,0,1,14.91,45.07Z"/><path class="cls-4" d="M18.74,45.07h0a1.91,1.91,0,0,1-1.92-1.91v-2h3.84v2A1.91,1.91,0,0,1,18.74,45.07Z"/><path class="cls-4" d="M10.14,41.16H13a0,0,0,0,1,0,0v2a1.92,1.92,0,0,1-1.92,1.92H9.41a.25.25,0,0,1-.25-.25V42.14A1,1,0,0,1,10.14,41.16Z"/><path class="cls-1" d="M22.57,45.07h0a1.9,1.9,0,0,1-1.91-1.91v-2h3.83v2A1.91,1.91,0,0,1,22.57,45.07Z"/><path class="cls-4" d="M26.41,45.07h0a1.91,1.91,0,0,1-1.92-1.91v-2h3.83v2A1.91,1.91,0,0,1,26.41,45.07Z"/><path class="cls-4" d="M32.15,41.16H35a1,1,0,0,1,1,1v2.68a.25.25,0,0,1-.25.25H34.07a1.92,1.92,0,0,1-1.92-1.92v-2A0,0,0,0,1,32.15,41.16Z"/><path class="cls-1" d="M30.24,45.07h0a1.91,1.91,0,0,1-1.92-1.91v-2h3.83v2A1.9,1.9,0,0,1,30.24,45.07Z"/><path class="cls-1" d="M14.91,30.86h0A1.91,1.91,0,0,1,13,29V27h3.83v2A1.9,1.9,0,0,1,14.91,30.86Z"/><path class="cls-4" d="M18.74,30.86h0A1.91,1.91,0,0,1,16.82,29V27h3.84v2A1.91,1.91,0,0,1,18.74,30.86Z"/><path class="cls-4" d="M10.14,27H13a0,0,0,0,1,0,0v2a1.92,1.92,0,0,1-1.92,1.92H9.41a.25.25,0,0,1-.25-.25V27.93A1,1,0,0,1,10.14,27Z"/><path class="cls-1" d="M22.57,30.86h0A1.9,1.9,0,0,1,20.66,29V27h3.83v2A1.91,1.91,0,0,1,22.57,30.86Z"/><path class="cls-4" d="M26.41,30.86h0A1.91,1.91,0,0,1,24.49,29V27h3.83v2A1.91,1.91,0,0,1,26.41,30.86Z"/><path class="cls-4" d="M32.15,27H35a1,1,0,0,1,1,1v2.68a.25.25,0,0,1-.25.25H34.07a1.92,1.92,0,0,1-1.92-1.92V27a0,0,0,0,1,0,0Z"/><path class="cls-1" d="M30.24,30.86h0A1.91,1.91,0,0,1,28.32,29V27h3.83v2A1.9,1.9,0,0,1,30.24,30.86Z"/><path class="cls-2" d="M36.54,56H8.5a.51.51,0,0,1-.5-.5H8A.51.51,0,0,1,8.5,55h28a.51.51,0,0,1,.51.51h0A.51.51,0,0,1,36.54,56Z"/><rect class="cls-2" x="12.69" y="33.21" width="19.67" height="4.86" rx="0.4"/><rect class="cls-2" x="12.69" y="46.87" width="11.8" height="4.86" rx="0.46"/><path class="cls-2" d="M26.92,46.87a.52.52,0,0,0-.51.52V55h2.72V46.87Z"/><path class="cls-2" d="M31.84,46.87H29.63V55h2.73v-7.6A.52.52,0,0,0,31.84,46.87Z"/></svg>