<svg id="Layer_1" data-name="Layer 1" xmlns="http://www.w3.org/2000/svg" viewBox="0 0 64 64"><defs><style>.cls-1{fill:#FC0707;}.cls-2{fill:#DD1515;}.cls-3{fill:#F4DFDF;}.cls-4{fill:#e5cccc;}</style></defs><title>content marketing, digital marketing, marketing, search, money, finance</title><rect class="cls-1" x="25.1" y="12.97" width="31.36" height="19.05" rx="2.08"/><path class="cls-2" d="M46.37,22.49a5.59,5.59,0,1,1-5.59-5.59A5.59,5.59,0,0,1,46.37,22.49Z"/><path class="cls-2" d="M30.09,28.11A1.09,1.09,0,1,1,29,27,1.09,1.09,0,0,1,30.09,28.11Z"/><path class="cls-2" d="M53.65,16.88a1.09,1.09,0,1,1-1.09-1.09A1.09,1.09,0,0,1,53.65,16.88Z"/><path class="cls-3" d="M47.12,55.12a3,3,0,0,1-4.28,0L33.68,46A3,3,0,0,1,38,41.68l9.16,9.16A3,3,0,0,1,47.12,55.12Z"/><path class="cls-1" d="M18,42.39a11.71,11.71,0,1,1,14.26,0A11.72,11.72,0,0,1,18,42.39Z"/><path class="cls-2" d="M32.23,23.82a11.62,11.62,0,0,0-7.13-2.41v8.53A2.08,2.08,0,0,0,27.18,32h9.56A11.63,11.63,0,0,0,32.23,23.82Z"/><path class="cls-3" d="M47.06,50.78l-4.73-4.72a6.4,6.4,0,0,1-1.52-6.81,16.88,16.88,0,1,0-9.58,9.57,6.45,6.45,0,0,1,6.86,1.55l4.75,4.75a3,3,0,0,0,4.68-.5A3.08,3.08,0,0,0,47.06,50.78ZM18,42.39a11.71,11.71,0,1,1,14.26,0A11.72,11.72,0,0,1,18,42.39Z"/><path class="cls-4" d="M25.1,16.29v5.12A11.65,11.65,0,0,1,36.74,32h5.19A16.7,16.7,0,0,0,25.1,16.29Z"/><path class="cls-2" d="M44.24,48,40,52.24l2.87,2.88a3,3,0,1,0,4.28-4.28Z"/><rect class="cls-1" x="39.73" y="49.84" width="6.04" height="1.83" transform="translate(-23.36 45.09) rotate(-45)"/><path class="cls-1" d="M30.09,28.11A1.09,1.09,0,1,1,29,27,1.09,1.09,0,0,1,30.09,28.11Z"/></svg>