<svg id="Layer_1" data-name="Layer 1" xmlns="http://www.w3.org/2000/svg" viewBox="0 0 64 64"><defs><style>.cls-1{fill:#dd1515;}.cls-2{fill:#dfe8f4;}.cls-3{fill:#ff5454;}.cls-4{fill:#ccd8e5;}.cls-5{fill:#fff;}</style></defs><title>content marketing, digital marketing, marketing, bug, alert</title><path class="cls-1" d="M33.14,27.55H30.86a5.67,5.67,0,0,1-5.67-5.66V18.61A6.81,6.81,0,0,1,32,11.81h0a6.81,6.81,0,0,1,6.81,6.8v3.28A5.67,5.67,0,0,1,33.14,27.55Z"/><path class="cls-2" d="M26.65,25.88H25.14A5.93,5.93,0,0,1,19.22,20V18.44a2,2,0,0,0-4.07,0V20a10,10,0,0,0,7,9.53H16.49a10,10,0,0,1-4.87-1.27l-.6-.33a2,2,0,0,0-2,3.54l.59.33a14.07,14.07,0,0,0,6.86,1.79h7.85a2,2,0,0,0,2-2,2,2,0,0,0-.77-1.58h1a2,2,0,0,0,0-4.06Z"/><path class="cls-2" d="M21.92,35.8H20.41a10,10,0,0,0-10,10v1.51a2,2,0,1,0,4.06,0V45.78a5.93,5.93,0,0,1,5.93-5.92h1.51a2,2,0,0,0,0-4.06Z"/><path class="cls-2" d="M37.35,25.88h1.51A5.93,5.93,0,0,0,44.78,20V18.44a2,2,0,0,1,4.07,0V20a10,10,0,0,1-7,9.53h5.67a10,10,0,0,0,4.87-1.27l.6-.33a2,2,0,0,1,2,3.54l-.59.33a14.07,14.07,0,0,1-6.86,1.79H39.66a2,2,0,0,1-2-2,2,2,0,0,1,.77-1.58h-1a2,2,0,0,1,0-4.06Z"/><path class="cls-2" d="M42.08,35.8h1.51a10,10,0,0,1,10,10v1.51a2,2,0,1,1-4.06,0V45.78a5.93,5.93,0,0,0-5.93-5.92H42.08a2,2,0,0,1,0-4.06Z"/><path class="cls-3" d="M34.35,52.19h-4.7A11.7,11.7,0,0,1,18,40.49V33.74A14.05,14.05,0,0,1,32,19.68h0a14.05,14.05,0,0,1,14,14.06v6.75A11.7,11.7,0,0,1,34.35,52.19Z"/><path class="cls-4" d="M46.05,40.4A5.89,5.89,0,0,1,48.82,43a15,15,0,0,0,.23-2.52V37.43a9.85,9.85,0,0,0-3-1.31Z"/><path class="cls-4" d="M18,40.4V36.12a9.85,9.85,0,0,0-3,1.31v3.06A15,15,0,0,0,15.18,43,5.89,5.89,0,0,1,18,40.4Z"/><path class="cls-4" d="M19.19,28a14,14,0,0,1,2.2-3.43,6,6,0,0,1-1.78-2.49A17.27,17.27,0,0,0,17,25.69,10.44,10.44,0,0,0,19.19,28Z"/><path class="cls-4" d="M16.49,33.55H18a14,14,0,0,1,.64-4.06H16.49c-.33,0-.65,0-1-.06a16.75,16.75,0,0,0-.56,4A13.08,13.08,0,0,0,16.49,33.55Z"/><path class="cls-4" d="M48.48,29.43c-.32,0-.64.06-1,.06H45.4A14,14,0,0,1,46,33.55h1.47A13.08,13.08,0,0,0,49,33.46,16.75,16.75,0,0,0,48.48,29.43Z"/><path class="cls-4" d="M47,25.69a17.27,17.27,0,0,0-2.64-3.64,6,6,0,0,1-1.78,2.49A14,14,0,0,1,44.81,28,10.44,10.44,0,0,0,47,25.69Z"/><rect class="cls-5" x="29.71" y="26.2" width="4.58" height="12.19" rx="0.64"/><rect class="cls-5" x="29.71" y="41.09" width="4.58" height="4.58" rx="0.64"/></svg>