<svg id="Layer_1" data-name="Layer 1" xmlns="http://www.w3.org/2000/svg" viewBox="0 0 64 64"><defs><style>.cls-1{fill:#dfe8f4;}.cls-2{fill:#ccd8e5;}.cls-3{fill:#ff5454;}</style></defs><title>content marketing, digital marketing, marketing, contacts, phonebook, phone</title><rect class="cls-1" x="13.06" y="8" width="41" height="48" rx="4.42"/><path class="cls-2" d="M21.06,8H17.49a4.42,4.42,0,0,0-4.43,4.42V51.58A4.42,4.42,0,0,0,17.49,56h3.57Z"/><rect class="cls-3" x="9.94" y="13.51" width="7.12" height="4.73" rx="2.01"/><rect class="cls-3" x="9.94" y="24.26" width="7.12" height="4.73" rx="2.01"/><rect class="cls-3" x="9.94" y="35.01" width="7.12" height="4.73" rx="2.01"/><rect class="cls-3" x="9.94" y="45.76" width="7.12" height="4.73" rx="2.01"/><path class="cls-3" d="M47.8,36.35l-1.08-1.08a3.75,3.75,0,0,0-5.31,0h0a1.27,1.27,0,0,0-.38.9h0A1.26,1.26,0,0,1,40,37.44,7.08,7.08,0,0,1,32,29.52a1.27,1.27,0,0,1,1.27-1.09h0a1.29,1.29,0,0,0,.91-.37h0a3.76,3.76,0,0,0,0-5.32l-1.08-1.08a3.45,3.45,0,0,0-5.3.46,10.36,10.36,0,0,0-1.69,6.39A16,16,0,0,0,41,43.34a10.33,10.33,0,0,0,6.38-1.69A3.44,3.44,0,0,0,47.8,36.35Z"/></svg>