<svg id="Layer_1" data-name="Layer 1" xmlns="http://www.w3.org/2000/svg" viewBox="0 0 64 64"><defs><style>.cls-1{fill:#dfe8f4;}.cls-2{fill:#ff5454;}.cls-3{fill:#dd1515;}.cls-4{fill:#ccd8e5;}.cls-5{fill:#fff;}</style></defs><title>content marketing, digital marketing, marketing, dashboard, browser, web</title><rect class="cls-1" x="8" y="14.88" width="48" height="41.13" rx="4.09"/><path class="cls-2" d="M51.91,14.88H12.09A4.09,4.09,0,0,0,8,19v1.91H56V19A4.09,4.09,0,0,0,51.91,14.88Z"/><rect class="cls-3" x="12.66" y="17.26" width="1.23" height="1.23"/><rect class="cls-3" x="15.19" y="17.26" width="1.23" height="1.23"/><rect class="cls-3" x="17.71" y="17.26" width="1.23" height="1.23"/><rect class="cls-3" x="8" y="20.88" width="48" height="0.65"/><path class="cls-4" d="M56,24.31H10.79A2.79,2.79,0,0,1,8,21.52H56Z"/><path class="cls-2" d="M31.83,46.33a29.53,29.53,0,0,1,8.46,1.23A5,5,0,0,0,46.85,43a15.61,15.61,0,0,0-.19-2.95,15,15,0,0,0-29.85,2.47v.39a5.06,5.06,0,0,0,6.57,4.64A29.47,29.47,0,0,1,31.83,46.33Z"/><path class="cls-3" d="M46.66,40.06a15,15,0,0,0-29.85,2.47v.39a5.06,5.06,0,0,0,6.57,4.64,29.67,29.67,0,0,1,16.91,0A5,5,0,0,0,46.85,43,15.61,15.61,0,0,0,46.66,40.06Zm-2.61,5.69a3.85,3.85,0,0,1-3.39.56,30.87,30.87,0,0,0-17.66,0,3.81,3.81,0,0,1-3.37-.56,3.62,3.62,0,0,1-1.51-2.86c0-.12,0-.24,0-.36A13.72,13.72,0,1,1,45.55,43,3.54,3.54,0,0,1,44.05,45.75Z"/><path class="cls-1" d="M35.58,35.92,31.79,38.3A1.66,1.66,0,1,0,33,41.13,1.67,1.67,0,0,0,33.49,40l2.37-3.8A.2.2,0,0,0,35.58,35.92Z"/><path class="cls-5" d="M33,41.13a1.66,1.66,0,1,1,0-2.35A1.68,1.68,0,0,1,33,41.13Z"/><path class="cls-4" d="M16.31,42.32a5.08,5.08,0,0,0,2.46,3.84,4.63,4.63,0,0,0,4.09.33,27.12,27.12,0,0,1,10.31-1.57,27.59,27.59,0,0,1,5.2.72c.85.21,1.69.45,2.52.74a4.68,4.68,0,0,0,2,.25,4.59,4.59,0,0,0,3.43-2.17A5,5,0,0,0,47,42.28a20.74,20.74,0,0,0,.17-2.51,12.54,12.54,0,0,1,.58,2.51A5.72,5.72,0,0,1,47.49,45a5.91,5.91,0,0,1-4.27,3.69,6,6,0,0,1-3-.05c-.79-.19-1.57-.37-2.37-.5a33.45,33.45,0,0,0-4.78-.53,36.6,36.6,0,0,0-9.6.88,6.22,6.22,0,0,1-2.94,0A6,6,0,0,1,18,47.22a5.4,5.4,0,0,1-1.52-2.3A5.13,5.13,0,0,1,16.31,42.32Z"/></svg>