<svg id="Layer_1" data-name="Layer 1" xmlns="http://www.w3.org/2000/svg" viewBox="0 0 64 64"><defs><style>.cls-1{fill:#dfe8f4;}.cls-2{fill:#ccd8e5;}.cls-3{fill:#ff5454;}</style></defs><title>content marketing, digital marketing, marketing, star, bookmark, hand, gesture</title><path class="cls-1" d="M38.91,28.64l1.63-3.72A2.84,2.84,0,0,0,40,21.78h0a2.84,2.84,0,0,0-4,0l-7.86,7.86a18.05,18.05,0,0,1-12.76,5.29H8V54.79H37a9.53,9.53,0,0,0,7.89-4.19l6.23-9.16A14.57,14.57,0,0,1,54.49,38h0A3.71,3.71,0,0,0,56,35h0a3.73,3.73,0,0,0-3.73-3.73H40.6A1.85,1.85,0,0,1,38.91,28.64Z"/><path class="cls-2" d="M15.33,34.93H11.48V54.79h5.71s0,0,0,0V34.83C16.58,34.89,16,34.93,15.33,34.93Z"/><path class="cls-3" d="M8,33.34h4.47a1.25,1.25,0,0,1,1.25,1.25V54.75A1.25,1.25,0,0,1,12.47,56H8a0,0,0,0,1,0,0V33.34A0,0,0,0,1,8,33.34Z"/><path class="cls-3" d="M47.46,12.36l1,2a.61.61,0,0,0,.45.33l2.19.32a.58.58,0,0,1,.33,1l-1.59,1.55a.61.61,0,0,0-.17.53L50,20.26a.6.6,0,0,1-.86.63l-2-1a.59.59,0,0,0-.55,0l-2,1a.59.59,0,0,1-.85-.63l.37-2.18a.61.61,0,0,0-.17-.53L42.45,16a.58.58,0,0,1,.33-1l2.2-.32a.59.59,0,0,0,.44-.33l1-2A.6.6,0,0,1,47.46,12.36Z"/></svg>