<svg id="Layer_1" data-name="Layer 1" xmlns="http://www.w3.org/2000/svg" viewBox="0 0 64 64"><defs><style>.cls-1{fill:#dfe8f4;}.cls-2{fill:#ccd8e5;}.cls-3{fill:#ff5454;}.cls-4{fill:#fff;}</style></defs><title>content marketing, digital marketing, marketing, email, finance, money</title><path class="cls-1" d="M16.37,23H47.63A8.37,8.37,0,0,1,56,31.37V53.12A2.88,2.88,0,0,1,53.12,56H10.88A2.88,2.88,0,0,1,8,53.12V31.37A8.37,8.37,0,0,1,16.37,23Z"/><path class="cls-2" d="M56,53.12V29.38A6.39,6.39,0,0,0,49.61,23H32.24c-2.43,6.73-4.61,13.43-4.61,14.19v4.14a2.6,2.6,0,0,0,1.29,2.24l19.23,11.1a10,10,0,0,0,5,1.33h0A2.88,2.88,0,0,0,56,53.12Z"/><path class="cls-3" d="M56,29.82a9.74,9.74,0,0,0-4.87-8.44L33,10.91a2,2,0,0,0-2,0L12.87,21.38A9.74,9.74,0,0,0,8,29.82s0,0,0,.06S8,30,8,30a2.57,2.57,0,0,0,1.29,2.23L31,44.79a2,2,0,0,0,2,0L54.71,32.25A2.57,2.57,0,0,0,56,30c0-.05,0-.09,0-.14S56,29.84,56,29.82Z"/><path class="cls-4" d="M48,28.68a2.35,2.35,0,0,0-2.35-2.35H18.36A2.35,2.35,0,0,0,16,28.68v7.45l15,8.66a2,2,0,0,0,2,0l15-8.66Z"/><path class="cls-3" d="M32,35.42a.88.88,0,0,1-.86-.67.84.84,0,0,1,1.54-.58.84.84,0,0,0,.74.42h0a.86.86,0,0,0,.78-1.27,2.55,2.55,0,0,0-1.37-1.15h0a.82.82,0,0,0-.81-.82h-.12a.82.82,0,0,0-.81.82h0a2.59,2.59,0,0,0-1.49,3.5,2.64,2.64,0,0,0,2.4,1.5.83.83,0,0,1,0,1.66.82.82,0,0,1-.72-.42.85.85,0,0,0-.74-.41h0a.86.86,0,0,0-.78,1.27,2.55,2.55,0,0,0,1.37,1.15h0a.82.82,0,0,0,.81.82h.12a.82.82,0,0,0,.81-.82h0a2.57,2.57,0,0,0-.83-5Z"/></svg>