<svg id="Layer_1" data-name="Layer 1" xmlns="http://www.w3.org/2000/svg" viewBox="0 0 64 64"><defs><style>.cls-1{fill:#ff5454;}.cls-2{fill:#dd1515;}.cls-3{fill:#dfe8f4;}.cls-4{fill:#ccd8e5;}</style></defs><title>content marketing, digital marketing, marketing, search, user, account</title><circle class="cls-1" cx="42.31" cy="21.69" r="13.69" transform="translate(-2.94 36.27) rotate(-45)"/><path class="cls-2" d="M47.35,20.24V18a5,5,0,0,0-2.52-4.37h0a5,5,0,0,0-5,0h0A5,5,0,0,0,37.27,18v2.25a4.42,4.42,0,0,0,2.21,3.83h0a5.67,5.67,0,0,0,5.66,0h0A4.42,4.42,0,0,0,47.35,20.24Z"/><path class="cls-2" d="M42.31,35.38a13.63,13.63,0,0,0,9.42-3.78,11,11,0,0,0-18.84,0A13.66,13.66,0,0,0,42.31,35.38Z"/><path class="cls-3" d="M47,55.12a3,3,0,0,1-4.27,0L33.57,46a3,3,0,1,1,4.27-4.28L47,50.84A3,3,0,0,1,47,55.12Z"/><path class="cls-1" d="M17.86,42.39a11.71,11.71,0,1,1,14.26,0A11.72,11.72,0,0,1,17.86,42.39Z"/><path class="cls-2" d="M32.12,23.82A11.65,11.65,0,0,0,28.64,22a13.68,13.68,0,0,0,8,12.15A11.67,11.67,0,0,0,32.12,23.82Z"/><path class="cls-3" d="M46.94,50.78l-4.72-4.72a6.38,6.38,0,0,1-1.52-6.81,16.88,16.88,0,1,0-9.58,9.57A6.45,6.45,0,0,1,38,50.37l4.75,4.75a3,3,0,0,0,4.67-.5A3.07,3.07,0,0,0,46.94,50.78ZM17.86,42.39a11.71,11.71,0,1,1,14.26,0A11.72,11.72,0,0,1,17.86,42.39Z"/><path class="cls-4" d="M41.7,35.34A16.7,16.7,0,0,0,29.5,16.89a13.9,13.9,0,0,0-.88,4.8c0,.1,0,.2,0,.29a11.68,11.68,0,0,1,8,12.15A13.62,13.62,0,0,0,41.7,35.34Z"/><path class="cls-2" d="M44.13,48l-4.28,4.27,2.88,2.88A3,3,0,1,0,47,50.84Z"/><rect class="cls-1" x="39.62" y="49.83" width="6.04" height="1.83" transform="translate(-23.4 45.01) rotate(-45)"/></svg>