<svg id="Layer_1" data-name="Layer 1" xmlns="http://www.w3.org/2000/svg" viewBox="0 0 64 64"><defs><style>.cls-1{fill:#FC0707;}.cls-2{fill:#F4DFDF;}.cls-3{fill:#DD1515;}.cls-4{fill:#e5cccc;}</style></defs><title>content marketing, digital marketing, marketing, customize, laptop, computer</title><path class="cls-1" d="M9.13,50.67H54.87A1.13,1.13,0,0,1,56,51.8v.65A3.55,3.55,0,0,1,52.45,56H12.2A4.2,4.2,0,0,1,8,51.8v0A1.13,1.13,0,0,1,9.13,50.67Z"/><path class="cls-2" d="M48.79,24H15.21a3,3,0,0,0-3,3.05V50.67H24.28a2.3,2.3,0,0,1,1.95,1.07,2.3,2.3,0,0,0,1.95,1.07h7.64a2.3,2.3,0,0,0,2-1.07,2.3,2.3,0,0,1,1.95-1.07H51.83V27A3,3,0,0,0,48.79,24Z"/><path class="cls-3" d="M42.79,20.91l-6.46-3.73A1.3,1.3,0,0,1,35.68,16l.18-3.77A4,4,0,0,0,32.08,8a3.89,3.89,0,0,0-4,4.06L28.3,16a1.31,1.31,0,0,1-.64,1.18l-6.47,3.73A3.59,3.59,0,0,0,19.4,24v9.66a2.81,2.81,0,0,0,2.81,2.81H33.06a.62.62,0,0,0,.62-.62V34.19l.91,1.33a2.22,2.22,0,0,0,1.83,1h5.35a2.81,2.81,0,0,0,2.81-2.81V24A3.59,3.59,0,0,0,42.79,20.91Z"/><path class="cls-4" d="M33,11.86a1,1,0,1,1-1-1A1,1,0,0,1,33,11.86Z"/><path class="cls-1" d="M45.3,35.55a2.8,2.8,0,0,1-.72-1.87V24H19.4v9.72a2.81,2.81,0,0,0,2.81,2.81H33.14a.54.54,0,0,0,.54-.54V34.19l1.12,1.64a1.52,1.52,0,0,0,1.25.66h8.83A.56.56,0,0,0,45.3,35.55Z"/></svg>