<svg id="Layer_1" data-name="Layer 1" xmlns="http://www.w3.org/2000/svg" viewBox="0 0 64 64"><defs><style>.cls-1{fill:#dfe8f4;}.cls-2{fill:#ccd8e5;}.cls-3{fill:#ff5454;}.cls-4{fill:#dd1515;}</style></defs><title>content marketing, digital marketing, marketing, folder, file, share</title><path class="cls-1" d="M48.38,54.5H15.62a1.56,1.56,0,0,1-1.56-1.56h0a1.56,1.56,0,0,1,1.56-1.56H48.38a1.56,1.56,0,0,1,1.56,1.56h0A1.56,1.56,0,0,1,48.38,54.5Z"/><rect class="cls-1" x="22.91" y="43.85" width="18.17" height="3.12" transform="translate(-13.41 77.41) rotate(-90)"/><rect class="cls-2" x="30.44" y="41.39" width="3.12" height="6.33"/><circle class="cls-3" cx="32" cy="52.94" r="3.06"/><path class="cls-2" d="M35.06,52.94a3,3,0,0,1-.44,1.56h2.17a5.06,5.06,0,0,0,.27-1.56,5,5,0,0,0-.27-1.56H34.62A2.93,2.93,0,0,1,35.06,52.94Z"/><path class="cls-2" d="M28.94,52.94a2.93,2.93,0,0,1,.44-1.56H27.21a5,5,0,0,0-.27,1.56,5.06,5.06,0,0,0,.27,1.56h2.17A3,3,0,0,1,28.94,52.94Z"/><path class="cls-3" d="M8,15.13H54.48A1.52,1.52,0,0,1,56,16.65v28a1.52,1.52,0,0,1-1.52,1.52h-45A1.52,1.52,0,0,1,8,44.6V15.13A0,0,0,0,1,8,15.13Z"/><path class="cls-4" d="M9.2,11.38H24.42a1.2,1.2,0,0,1,1.2,1.2v2.55a0,0,0,0,1,0,0H8a0,0,0,0,1,0,0V12.57A1.2,1.2,0,0,1,9.2,11.38Z"/></svg>