<svg id="Layer_1" data-name="Layer 1" xmlns="http://www.w3.org/2000/svg" viewBox="0 0 64 64"><defs><style>.cls-1{fill:#DD1515;}.cls-2{fill:#FC0707;}.cls-3{fill:#F4DFDF;}.cls-4{fill:#e5cccc;}</style></defs><title>content marketing, digital marketing, marketing, search, image, photo</title><rect class="cls-1" x="32" y="8" width="24" height="24" rx="2.52"/><path class="cls-2" d="M56,29.48V23.77l-2.26-2.26a2.57,2.57,0,0,0-3.64,0h0a2.58,2.58,0,0,1-3.64,0L42,17.08a2.57,2.57,0,0,0-3.64,0L32,23.47v6A2.52,2.52,0,0,0,34.52,32h19A2.52,2.52,0,0,0,56,29.48Z"/><circle class="cls-2" cx="48.9" cy="14.88" r="2.34"/><path class="cls-3" d="M46.89,55.12a3,3,0,0,1-4.28,0L33.46,46a3,3,0,0,1,4.27-4.28l9.16,9.16A3,3,0,0,1,46.89,55.12Z"/><path class="cls-2" d="M17.75,42.39a11.7,11.7,0,1,1,14.25,0A11.72,11.72,0,0,1,17.75,42.39Z"/><path class="cls-1" d="M34.52,32h2A11.65,11.65,0,0,0,32,23.82h0v5.67A2.52,2.52,0,0,0,34.52,32Z"/><path class="cls-3" d="M46.83,50.78,42.1,46.06a6.42,6.42,0,0,1-1.52-6.81A16.88,16.88,0,1,0,31,48.82a6.47,6.47,0,0,1,6.87,1.55l4.74,4.75a3,3,0,0,0,4.68-.5A3.07,3.07,0,0,0,46.83,50.78ZM17.75,42.39a11.7,11.7,0,1,1,14.25,0A11.72,11.72,0,0,1,17.75,42.39Z"/><path class="cls-4" d="M32,17.84v6h0A11.65,11.65,0,0,1,36.51,32H41.7a16.8,16.8,0,0,0-4.64-10.59A16.59,16.59,0,0,0,32,17.84Z"/><path class="cls-1" d="M44,48l-4.27,4.27,2.87,2.88a3,3,0,1,0,4.28-4.28Z"/><rect class="cls-2" x="39.5" y="49.83" width="6.04" height="1.83" transform="translate(-23.43 44.93) rotate(-45)"/></svg>