<svg id="Layer_1" data-name="Layer 1" xmlns="http://www.w3.org/2000/svg" viewBox="0 0 64 64"><defs><style>.cls-1{fill:#FC0707;}.cls-2{fill:#F4DFDF;}.cls-3{fill:#e5cccc;}.cls-4{fill:#DD1515;}.cls-5{fill:#fff;}</style></defs><title>content marketing, digital marketing, marketing, hand, gesture, announcement</title><circle class="cls-1" cx="32.05" cy="20" r="12"/><path class="cls-2" d="M52.56,31,44.1,34.91a7.19,7.19,0,0,1-3.54.67l-8.14-.52a1,1,0,0,0-.74.25l-.46.4a1,1,0,0,1-1.41-.06,1,1,0,0,1,0-1.45l1.66-1.56a3.53,3.53,0,0,0,1.06-3.19l-.1-.59a2,2,0,0,0-2.6-1.54l-3.31,1.12A31.19,31.19,0,0,0,12,38.71L9,42.53l9.66,12H22l4.15-6.31a4.28,4.28,0,0,1,3.58-1.94H41.07a5.56,5.56,0,0,0,3.83-1.53l10.35-9.88A2.4,2.4,0,0,0,56,33.16h0A2.42,2.42,0,0,0,52.56,31Z"/><polygon class="cls-3" points="9.51 41.89 9.51 43.16 18.6 54.49 22.05 54.49 24.3 51.07 11.98 38.75 9.51 41.89"/><path class="cls-1" d="M8,42V55.84a.16.16,0,0,0,.16.16h13.7a1.81,1.81,0,0,0,1.28-3.08L11,40.74A1.74,1.74,0,0,0,8,42Z"/><path class="cls-4" d="M20.14,55.92,8,43.78V55.84a.16.16,0,0,0,.16.16h12Z"/><path class="cls-5" d="M36.55,14.27a1.13,1.13,0,0,0-.7.25,6.63,6.63,0,0,1-2.61,1.09l-3.31.71a11.4,11.4,0,0,1-2.26.23H26.4c-.51,0-.92,1.3-.92,2.91s.41,2.9.92,2.9h0a1.29,1.29,0,0,1,1.18.77L28.39,25a1.26,1.26,0,0,0,1.15.76h0l.08,0,.06,0h0a.85.85,0,0,0,.85-.86,4.41,4.41,0,0,1,0-.52,1.42,1.42,0,0,1,1.73-1.25h0l1.41.3a5.18,5.18,0,0,1,2.15,1,1.18,1.18,0,0,0,.7.24c1.43,0,2.07-2.6,2.07-5.18S38,14.27,36.55,14.27Zm.27,8.6a.29.29,0,0,1-.27.17V15.87a.29.29,0,0,1,.27.18,9.13,9.13,0,0,1,.53,3.41A9.22,9.22,0,0,1,36.82,22.87Z"/><path class="cls-5" d="M38,19.46C38,22,37.34,24,36.55,24s-1.44-2-1.44-4.54.64-4.55,1.44-4.55S38,16.94,38,19.46Z"/><path class="cls-2" d="M36.82,16.05a.3.3,0,0,0-.55,0,9.35,9.35,0,0,0-.53,3.41,9.44,9.44,0,0,0,.53,3.41.31.31,0,0,0,.55,0,9.22,9.22,0,0,0,.53-3.41A9.13,9.13,0,0,0,36.82,16.05Z"/><path class="cls-5" d="M26.42,22.36a1.29,1.29,0,0,1,1.18.77L28.39,25a1.26,1.26,0,0,0,1.15.76l.08,0,.06,0a.85.85,0,0,0,.85-.86,4.41,4.41,0,0,1,0-.52,1.42,1.42,0,0,1,1.54-1.28A37.23,37.23,0,0,0,26.42,22.36Z"/></svg>