<svg id="Layer_1" data-name="Layer 1" xmlns="http://www.w3.org/2000/svg" viewBox="0 0 64 64"><defs><style>.cls-1{fill:#FC0707;}.cls-2{fill:#F4DFDF;}.cls-3{fill:#DD1515;}.cls-4{fill:#e5cccc;}.cls-5{fill:#fff;}</style></defs><title>content marketing, digital marketing, marketing, search, find, bug, alert</title><path class="cls-1" d="M56,19.73a1.4,1.4,0,0,0-1.9-.54l-.41.23a6.92,6.92,0,0,1-2.69.83h0a4.89,4.89,0,0,1-.66.05H48.84c-.12-.36-.26-.71-.41-1.05l.18-.16a7.72,7.72,0,0,0,.61-.53,2.11,2.11,0,0,0,.19-.23,5,5,0,0,0,.51-.61l0,0h0a6.8,6.8,0,0,0,1.26-3.94v-1a1.4,1.4,0,1,0-2.8,0v1a3.87,3.87,0,0,1-.29,1.48,4,4,0,0,1-.46.87l-.11.12a3.71,3.71,0,0,1-.54.58l-.11.09a9.72,9.72,0,0,0-2.61-2.12V12.8a4.69,4.69,0,1,0-9.38,0v1.95a9.72,9.72,0,0,0-2.61,2.12l-.11-.09a4.26,4.26,0,0,1-.54-.58l-.1-.12a4.15,4.15,0,0,1-.76-2.35v-1a1.4,1.4,0,1,0-2.8,0v1a6.87,6.87,0,0,0,1.26,3.94h0s0,0,0,0a4.92,4.92,0,0,0,.5.61c.07.08.13.16.2.23a7.72,7.72,0,0,0,.61.53c.06.05.11.11.18.16a7.88,7.88,0,0,0-.41,1.05H28.91a5.16,5.16,0,0,1-.67-.05h0a6.92,6.92,0,0,1-2.69-.83l-.4-.23a1.4,1.4,0,0,0-1.37,2.45l.41.22A9.52,9.52,0,0,0,27.86,23h0c.35,0,.7.06,1.05.06h1v1.76h0a6.87,6.87,0,0,0-2.07.91h0a6.87,6.87,0,0,0-3.12,5.76v1a1.4,1.4,0,0,0,2.8,0v-1a4,4,0,0,1,.61-2.11c.05-.09.11-.18.17-.27a3.92,3.92,0,0,1,.27-.33l.2-.22a3.68,3.68,0,0,1,.38-.31,2.8,2.8,0,0,1,.4-.27c.12-.07.23-.14.36-.2v.06A8.06,8.06,0,0,0,38,35.94h3.24a8.06,8.06,0,0,0,8.07-8.06v-.06l.36.2a3.51,3.51,0,0,1,.4.27,2.76,2.76,0,0,1,.37.31c.08.07.14.15.21.22s.19.22.27.33l.17.27a4,4,0,0,1,.6,2.11v1a1.41,1.41,0,0,0,2.81,0v-1a6.9,6.9,0,0,0-3.12-5.76h0a7,7,0,0,0-2.07-.91h0V23.22s0-.08,0-.12h1c.35,0,.7,0,1.05-.06h0A9.57,9.57,0,0,0,55,21.86l.41-.22A1.41,1.41,0,0,0,56,19.73Z"/><path class="cls-2" d="M46.89,55.12a3,3,0,0,1-4.28,0L33.46,46a3,3,0,0,1,4.27-4.28l9.16,9.16A3,3,0,0,1,46.89,55.12Z"/><path class="cls-1" d="M17.75,42.39a11.7,11.7,0,1,1,14.25,0A11.72,11.72,0,0,1,17.75,42.39Z"/><path class="cls-3" d="M32,23.82a11.63,11.63,0,0,0-8.43-2.33l.21.15.41.22A9.52,9.52,0,0,0,27.86,23h0c.35,0,.7.06,1.05.06h1v1.76h0a6.87,6.87,0,0,0-2.07.91h0a6.87,6.87,0,0,0-3.12,5.76v1a1.4,1.4,0,0,0,2.8,0v-1a4,4,0,0,1,.61-2.12l.17-.26a3.92,3.92,0,0,1,.27-.33l.2-.22a3.68,3.68,0,0,1,.38-.31,2.8,2.8,0,0,1,.4-.27c.12-.07.23-.14.36-.2v.06a8.07,8.07,0,0,0,6.35,7.88A11.71,11.71,0,0,0,32,23.82Z"/><path class="cls-2" d="M46.83,50.78,42.1,46.06a6.42,6.42,0,0,1-1.52-6.81A16.88,16.88,0,1,0,31,48.82a6.47,6.47,0,0,1,6.87,1.55l4.74,4.75a3,3,0,0,0,4.68-.5A3.07,3.07,0,0,0,46.83,50.78ZM17.75,42.39a11.7,11.7,0,1,1,14.25,0A11.72,11.72,0,0,1,17.75,42.39Z"/><path class="cls-4" d="M38,35.94H41.5A16.74,16.74,0,0,0,28.69,16.7a7.18,7.18,0,0,0,.56,1h0s0,0,0,0a4.92,4.92,0,0,0,.5.61c.07.08.13.16.2.23a7.72,7.72,0,0,0,.61.53c.06.05.11.11.18.16a7.88,7.88,0,0,0-.41,1.05H28.91a5.16,5.16,0,0,1-.67-.05h0a6.92,6.92,0,0,1-2.69-.83l-.4-.23a1.4,1.4,0,0,0-1.58,2.3,11.68,11.68,0,0,1,12.7,14.27A8,8,0,0,0,38,35.94Z"/><path class="cls-3" d="M44,48l-4.27,4.27,2.87,2.88a3,3,0,1,0,4.28-4.28Z"/><rect class="cls-1" x="39.5" y="49.83" width="6.04" height="1.83" transform="translate(-23.43 44.93) rotate(-45)"/><rect class="cls-5" x="23.3" y="26.87" width="3.16" height="8.4" rx="0.44"/><rect class="cls-5" x="23.3" y="37.12" width="3.16" height="3.16" rx="0.44"/></svg>