<svg id="Layer_1" data-name="Layer 1" xmlns="http://www.w3.org/2000/svg" viewBox="0 0 64 64"><defs><style>.cls-1{fill:#F4DFDF;}.cls-2{fill:#FC0707;}</style></defs><title>content marketing, digital marketing, marketing, cloud, refresh, transfer</title><path class="cls-1" d="M50.46,22.85a10.1,10.1,0,0,1-4.28-5.06,15.16,15.16,0,0,0-28.36,0,10.1,10.1,0,0,1-4.28,5.06A11.3,11.3,0,0,0,8,32.58H8A11.34,11.34,0,0,0,19.33,43.92H44.67A11.34,11.34,0,0,0,56,32.58h0A11.3,11.3,0,0,0,50.46,22.85Z"/><path class="cls-2" d="M25.68,56h4.63c6.5,0,11.77-2.93,11.77-9.43V41.32a.61.61,0,0,0-1-.46l-5.94,5.06a.37.37,0,0,0,.24.65H37.1c0,3.75-3.05,5-6.79,5h-3c-1.44,0-2.6.58-2.6,2V55A1,1,0,0,0,25.68,56Z"/><path class="cls-2" d="M38.32,35.85H33.69c-6.5,0-11.77,2.92-11.77,9.42v5.25a.61.61,0,0,0,1,.47l5.94-5.06a.37.37,0,0,0-.24-.66H26.9c0-3.74,3.05-5,6.79-5h3c1.44,0,2.6-.58,2.6-2v-1.4A1,1,0,0,0,38.32,35.85Z"/></svg>