<svg id="Layer_1" data-name="Layer 1" xmlns="http://www.w3.org/2000/svg" viewBox="0 0 64 64"><defs><style>.cls-1{fill:#dd1515;}.cls-2{fill:#ff5454;}.cls-3{fill:#dfe8f4;}.cls-4{fill:#ccd8e5;}.cls-5{fill:#fff;}</style></defs><title>content marketing, digital marketing, marketing, monitor, computer, graph, finance</title><path class="cls-1" d="M37.45,50.67h0a2.24,2.24,0,0,1-2.24-2.25V45.17H28.79v3.25a2.24,2.24,0,0,1-2.24,2.25h0A3.55,3.55,0,0,0,23,54.22h0A1.79,1.79,0,0,0,24.79,56H39.21A1.79,1.79,0,0,0,41,54.22h0A3.55,3.55,0,0,0,37.45,50.67Z"/><path class="cls-2" d="M38.79,50.67H25.21A2.2,2.2,0,0,0,23,52.87v1.35A1.79,1.79,0,0,0,24.79,56H39.21A1.79,1.79,0,0,0,41,54.22V52.87A2.2,2.2,0,0,0,38.79,50.67Z"/><rect class="cls-3" x="8" y="13.17" width="48" height="34" rx="4.04"/><path class="cls-2" d="M8,41.38v1.75a4,4,0,0,0,4,4H52a4,4,0,0,0,4-4V41.38Z"/><rect class="cls-4" x="8" y="40.31" width="48" height="1.06"/><path class="cls-1" d="M32.58,44.27a.58.58,0,1,1-.58-.58A.58.58,0,0,1,32.58,44.27Z"/><circle class="cls-2" cx="23" cy="27.54" r="8.47"/><path class="cls-5" d="M23,26.78a.73.73,0,0,1-.74-.58.71.71,0,0,1,.7-.85.69.69,0,0,1,.62.36.75.75,0,0,0,.64.36h0a.75.75,0,0,0,.68-1.1,2.23,2.23,0,0,0-1.18-1h0a.71.71,0,0,0-.71-.7H23a.7.7,0,0,0-.7.7h0A2.25,2.25,0,0,0,21,27,2.28,2.28,0,0,0,23,28.29a.72.72,0,0,1,0,1.44.74.74,0,0,1-.62-.36.73.73,0,0,0-.64-.36h0a.75.75,0,0,0-.67,1.1,2.26,2.26,0,0,0,1.18,1h0a.7.7,0,0,0,.7.7h.1a.7.7,0,0,0,.71-.7h0A2.23,2.23,0,0,0,23,26.78Z"/><path class="cls-2" d="M34.23,7.72h5.42a.59.59,0,0,1,.59.59V30.17a0,0,0,0,1,0,0H33.64a0,0,0,0,1,0,0V8.31A.59.59,0,0,1,34.23,7.72Z"/><path class="cls-2" d="M50,3.82h5.42a.59.59,0,0,1,.59.59V30.17a0,0,0,0,1,0,0H49.41a0,0,0,0,1,0,0V4.41A.59.59,0,0,1,50,3.82Z"/><path class="cls-1" d="M42.11,11.2h5.42a.59.59,0,0,1,.59.59V30.17a0,0,0,0,1,0,0H41.53a0,0,0,0,1,0,0V11.79A.59.59,0,0,1,42.11,11.2Z"/></svg>