<svg id="Layer_1" data-name="Layer 1" xmlns="http://www.w3.org/2000/svg" viewBox="0 0 64 64"><defs><style>.cls-1{fill:#DD1515;}.cls-2{fill:#F4DFDF;}.cls-3{fill:#e5cccc;}.cls-4{fill:#FC0707;}.cls-5{fill:#fff;}</style></defs><title>content marketing, digital marketing, marketing, growth, money</title><path class="cls-1" d="M29.42,37.51h1a.22.22,0,0,1,.22.22v1a3.6,3.6,0,0,1-3.6,3.6H26a.22.22,0,0,1-.22-.22v-1A3.6,3.6,0,0,1,29.42,37.51Z" transform="translate(68.2 11.69) rotate(90)"/><path class="cls-1" d="M33.53,37.51h1a3.6,3.6,0,0,1,3.6,3.6v1a.22.22,0,0,1-.22.22h-1a3.6,3.6,0,0,1-3.6-3.6v-1a.22.22,0,0,1,.22-.22Z" transform="translate(75.69 4.2) rotate(90)"/><rect class="cls-1" x="30.5" y="31.07" width="3" height="16.06"/><rect class="cls-2" x="18.5" y="40.75" width="26.99" height="4.37" rx="1.13"/><path class="cls-3" d="M39.18,56H24.82a1.73,1.73,0,0,1-1.66-1.24l-2.89-9.64H43.73l-2.89,9.64A1.73,1.73,0,0,1,39.18,56Z"/><circle class="cls-4" cx="32" cy="21.41" r="13.41" transform="translate(5.93 49.75) rotate(-81.17)"/><path class="cls-5" d="M32.06,20.22a1.18,1.18,0,0,1-1.17-.92A1.13,1.13,0,0,1,33,18.51a1.17,1.17,0,0,0,1,.57h0a1.19,1.19,0,0,0,1.07-1.74,3.61,3.61,0,0,0-1.87-1.57h0a1.11,1.11,0,0,0-1.12-1.11h-.16a1.11,1.11,0,0,0-1.12,1.11h0a3.55,3.55,0,0,0-2,4.78,3.63,3.63,0,0,0,3.29,2.06A1.14,1.14,0,0,1,32,24.88a1.12,1.12,0,0,1-1-.57,1.17,1.17,0,0,0-1-.57h0a1.19,1.19,0,0,0-1.07,1.74,3.58,3.58,0,0,0,1.87,1.58h0a1.12,1.12,0,0,0,1.12,1.11h.16a1.12,1.12,0,0,0,1.12-1.11h0a3.52,3.52,0,0,0-1.14-6.84Z"/></svg>