<svg id="Layer_1" data-name="Layer 1" xmlns="http://www.w3.org/2000/svg" viewBox="0 0 64 64"><defs><style>.cls-1{fill:#dfe8f4;}.cls-2{fill:#ccd8e5;}.cls-3{fill:#ff5454;}.cls-4{fill:#dd1515;}</style></defs><title>content marketing, digital marketing, marketing, like, notification, bell</title><path class="cls-1" d="M32,33a.66.66,0,0,1-.64-.78l.79-4.15a7.07,7.07,0,0,0,.12-1.3v0a6.12,6.12,0,0,0-3.8-5.67h0a1.23,1.23,0,0,0-1.7,1.14h0a15.15,15.15,0,0,1-1.86,7.27h0a10.81,10.81,0,0,1-9.5,5.63H10.51v19h4.71a19,19,0,0,1,5.94.95h0a18.92,18.92,0,0,0,5.93,1H37.85a9.53,9.53,0,0,0,9.46-8.35l1.28-10.17A4,4,0,0,0,44.65,33Z"/><path class="cls-2" d="M12.23,54.1h3c.6,0,1.21,0,1.81.09V35a10.14,10.14,0,0,1-1.66.13H12.23Z"/><path class="cls-3" d="M8,34.15h5.89A1.11,1.11,0,0,1,15,35.26v18.8a.59.59,0,0,1-.59.59H8a0,0,0,0,1,0,0V34.15A0,0,0,0,1,8,34.15Z"/><path class="cls-4" d="M49.12,27.63a3.34,3.34,0,1,1-3.34-3.34A3.34,3.34,0,0,1,49.12,27.63Z"/><path class="cls-3" d="M55.12,24.88a4.86,4.86,0,0,1-1.95-3.77V17.54a7.38,7.38,0,0,0-5.14-7,.77.77,0,0,1-.55-.76A1.89,1.89,0,0,0,47.33,9a1.69,1.69,0,0,0-3.24.7h0a.82.82,0,0,1-.56.81,7.37,7.37,0,0,0-5.13,7v3.57a4.84,4.84,0,0,1-2,3.77,2.36,2.36,0,0,0-.8,2.44A2.41,2.41,0,0,0,38,29H53.57a2.4,2.4,0,0,0,2.35-1.72A2.34,2.34,0,0,0,55.12,24.88Z"/></svg>