<svg id="Layer_1" data-name="Layer 1" xmlns="http://www.w3.org/2000/svg" viewBox="0 0 64 64"><defs><style>.cls-1{fill:#dfe8f4;}.cls-2{fill:#ff5454;}.cls-3{fill:#ccd8e5;}.cls-4{fill:#dd1515;}.cls-5{fill:#fff;}</style></defs><title>content marketing, digital marketing, marketing, calendar, date, appointment</title><rect class="cls-1" x="8" y="10" width="48" height="46" rx="6.03"/><path class="cls-2" d="M50,10H14a6,6,0,0,0-6,6v4H56V16A6,6,0,0,0,50,10Z"/><rect class="cls-3" x="8" y="20" width="48" height="2.5"/><rect class="cls-4" x="15.36" y="8" width="7.08" height="6.25" rx="1.79"/><rect class="cls-4" x="41.56" y="8" width="7.08" height="6.25" rx="1.79"/><rect class="cls-3" x="14.98" y="26.21" width="8.7" height="8.7" rx="1.52"/><rect class="cls-5" x="27.65" y="26.21" width="8.7" height="8.7" rx="1.52"/><rect class="cls-3" x="40.32" y="26.21" width="8.7" height="8.7" rx="1.52"/><rect class="cls-3" x="14.98" y="39.5" width="8.7" height="8.7" rx="1.52"/><rect class="cls-3" x="27.65" y="39.5" width="8.7" height="8.7" rx="1.52"/><rect class="cls-5" x="40.32" y="39.5" width="8.7" height="8.7" rx="1.52"/><path class="cls-2" d="M30.89,32.61l-1.27-1.27a1,1,0,0,1-.14-1.2A.91.91,0,0,1,30.86,30l.43.43,1.81-1.82a.94.94,0,0,1,1.19-.13.89.89,0,0,1,.12,1.37l-2.72,2.73A.57.57,0,0,1,30.89,32.61Z"/><path class="cls-2" d="M43.56,45.89l-1.27-1.27a.93.93,0,0,1-.14-1.19.89.89,0,0,1,1.37-.12l.44.43,1.81-1.81A.92.92,0,0,1,47,41.8a.89.89,0,0,1,.12,1.37l-2.73,2.72A.56.56,0,0,1,43.56,45.89Z"/></svg>