<svg id="Layer_1" data-name="Layer 1" xmlns="http://www.w3.org/2000/svg" viewBox="0 0 64 64"><defs><style>.cls-1{fill:#DD1515;}.cls-2{fill:#FC0707;}.cls-3{fill:#F4DFDF;}.cls-4{fill:#e5cccc;}</style></defs><title>content marketing, digital marketing, marketing, customize, computer, monitor</title><path class="cls-1" d="M37.45,50.67h0a2.24,2.24,0,0,1-2.24-2.25V45.17H28.79v3.25a2.24,2.24,0,0,1-2.24,2.25h0A3.55,3.55,0,0,0,23,54.22h0A1.79,1.79,0,0,0,24.79,56H39.21A1.79,1.79,0,0,0,41,54.22h0A3.55,3.55,0,0,0,37.45,50.67Z"/><path class="cls-2" d="M38.79,50.67H25.21A2.2,2.2,0,0,0,23,52.87v1.35A1.79,1.79,0,0,0,24.79,56H39.21A1.79,1.79,0,0,0,41,54.22V52.87A2.2,2.2,0,0,0,38.79,50.67Z"/><rect class="cls-3" x="8" y="13.17" width="48" height="34" rx="4.04"/><path class="cls-2" d="M8,41.38v1.75a4,4,0,0,0,4,4H52a4,4,0,0,0,4-4V41.38Z"/><rect class="cls-4" x="8" y="40.31" width="48" height="1.06"/><circle class="cls-1" cx="32" cy="44.27" r="0.58"/><path class="cls-1" d="M42.81,20.91l-6.47-3.73A1.27,1.27,0,0,1,35.7,16l.17-3.77A4,4,0,0,0,32.09,8a3.87,3.87,0,0,0-4,4.06L28.31,16a1.27,1.27,0,0,1-.64,1.18L21.2,20.91A3.59,3.59,0,0,0,19.41,24v9.66a2.81,2.81,0,0,0,2.81,2.81H33.07a.62.62,0,0,0,.62-.62V34.19l.92,1.33a2.19,2.19,0,0,0,1.83,1h5.35a2.81,2.81,0,0,0,2.81-2.81V24A3.59,3.59,0,0,0,42.81,20.91Z"/><path class="cls-4" d="M33,11.86a1,1,0,1,1-1-1A1,1,0,0,1,33,11.86Z"/><path class="cls-2" d="M45.31,35.55a2.8,2.8,0,0,1-.71-1.87V24H19.41v9.72a2.81,2.81,0,0,0,2.81,2.81H33.16a.54.54,0,0,0,.53-.54V34.19l1.13,1.64a1.5,1.5,0,0,0,1.24.66H44.9A.56.56,0,0,0,45.31,35.55Z"/></svg>