<svg id="Layer_1" data-name="Layer 1" xmlns="http://www.w3.org/2000/svg" viewBox="0 0 64 64"><defs><style>.cls-1{fill:#ff5454;}.cls-2{fill:#dfe8f4;}.cls-3{fill:#dd1515;}</style></defs><title>content marketing, digital marketing, marketing, hierarchy, user, account</title><rect class="cls-1" x="10.64" y="48.79" width="11.99" height="7.21" rx="1.36"/><rect class="cls-1" x="26.01" y="48.79" width="11.99" height="7.21" rx="1.36"/><rect class="cls-1" x="41.37" y="48.79" width="11.99" height="7.21" rx="1.36"/><path class="cls-2" d="M48.49,46.77H46.24v-1.5a1.49,1.49,0,0,0-1.49-1.49H19.25a1.49,1.49,0,0,0-1.49,1.49v1.5H15.51v-1.5a3.75,3.75,0,0,1,3.74-3.74h25.5a3.75,3.75,0,0,1,3.74,3.74Z"/><rect class="cls-2" x="30.88" y="37.69" width="2.25" height="9.09"/><circle class="cls-1" cx="32" cy="21.92" r="13.69"/><path class="cls-3" d="M37,20.47V18.22a5,5,0,0,0-2.52-4.37h0a5,5,0,0,0-5,0h0A5,5,0,0,0,27,18.22v2.25a4.42,4.42,0,0,0,2.21,3.83h0a5.67,5.67,0,0,0,5.66,0h0A4.42,4.42,0,0,0,37,20.47Z"/><path class="cls-3" d="M32,35.6a13.64,13.64,0,0,0,9.42-3.77,11,11,0,0,0-18.84,0A13.64,13.64,0,0,0,32,35.6Z"/></svg>