<svg id="Layer_1" data-name="Layer 1" xmlns="http://www.w3.org/2000/svg" viewBox="0 0 64 64"><defs><style>.cls-1{fill:#F4DFDF;}.cls-2{fill:#e5cccc;}.cls-3{fill:#FC0707;}</style></defs><title>content marketing, digital marketing, marketing, like, social, media</title><path class="cls-1" d="M36.31,25.52a.78.78,0,0,1-.76-.92l.93-4.9a8,8,0,0,0,.15-1.54v0a7.24,7.24,0,0,0-4.49-6.69h0a1.45,1.45,0,0,0-2,1.34h0a18,18,0,0,1-2.2,8.6h0A12.78,12.78,0,0,1,16.71,28H11V50.43h5.57a22.27,22.27,0,0,1,7,1.13h0a22.61,22.61,0,0,0,7,1.12H43.27a11.26,11.26,0,0,0,11.18-9.86L56,30.8a4.69,4.69,0,0,0-4.65-5.28Z"/><path class="cls-2" d="M13,50.43h3.53c.71,0,1.43,0,2.14.12V27.86a12.74,12.74,0,0,1-2,.16H13Z"/><path class="cls-3" d="M8,26.87h7a1.31,1.31,0,0,1,1.31,1.31V50.4a.7.7,0,0,1-.7.7H8a0,0,0,0,1,0,0V26.87A0,0,0,0,1,8,26.87Z"/></svg>