<svg id="Layer_1" data-name="Layer 1" xmlns="http://www.w3.org/2000/svg" viewBox="0 0 64 64"><defs><style>.cls-1{fill:#F4DFDF;}.cls-2{fill:#FC0707;}.cls-3{fill:#DD1515;}.cls-4{fill:#e5cccc;}.cls-5{fill:#fff;}</style></defs><title>content marketing, digital marketing, marketing, speed, browser, web</title><rect class="cls-1" x="8" y="11.44" width="48" height="41.13" rx="4.09"/><path class="cls-2" d="M51.91,11.44H12.09A4.09,4.09,0,0,0,8,15.53v1.91H56V15.53A4.09,4.09,0,0,0,51.91,11.44Z"/><rect class="cls-3" x="12.66" y="13.82" width="1.23" height="1.23"/><rect class="cls-3" x="15.19" y="13.82" width="1.23" height="1.23"/><rect class="cls-3" x="17.71" y="13.82" width="1.23" height="1.23"/><rect class="cls-3" x="8" y="17.44" width="48" height="0.65"/><path class="cls-4" d="M56,20.88H10.79A2.79,2.79,0,0,1,8,18.08H56Z"/><path class="cls-3" d="M35.48,28.9h-7a.52.52,0,0,1-.52-.52V26.5a4,4,0,0,1,4-4h0a4,4,0,0,1,4,4v1.88A.52.52,0,0,1,35.48,28.9Z"/><circle class="cls-2" cx="32" cy="35.14" r="11.02"/><path class="cls-5" d="M30.77,33.91,36,31a.16.16,0,0,1,.22.22L33.26,36.3a1.86,1.86,0,0,1-2.06.92,1.8,1.8,0,0,1-1.1-2.63A2,2,0,0,1,30.77,33.91Z"/></svg>