<svg id="Layer_1" data-name="Layer 1" xmlns="http://www.w3.org/2000/svg" viewBox="0 0 64 64"><defs><style>.cls-1{fill:#F4DFDF;}.cls-2{fill:#FC0707;}.cls-3{fill:#DD1515;}.cls-4{fill:#e5cccc;}.cls-5{fill:#fff;}</style></defs><title>content marketing, digital marketing, marketing, flag, browser, web</title><rect class="cls-1" x="8" y="11.44" width="48" height="41.13" rx="4.09"/><path class="cls-2" d="M51.91,11.44H12.09A4.09,4.09,0,0,0,8,15.53v1.91H56V15.53A4.09,4.09,0,0,0,51.91,11.44Z"/><rect class="cls-3" x="12.66" y="13.82" width="1.23" height="1.23"/><rect class="cls-3" x="15.19" y="13.82" width="1.23" height="1.23"/><rect class="cls-3" x="17.71" y="13.82" width="1.23" height="1.23"/><rect class="cls-3" x="8" y="17.44" width="48" height="0.65"/><path class="cls-4" d="M56,20.88H10.79A2.79,2.79,0,0,1,8,18.08H56Z"/><path class="cls-5" d="M22.7,47.5h0a2.4,2.4,0,0,1-2.4-2.41V25.53a2.4,2.4,0,0,1,2.4-2.41h0a2.41,2.41,0,0,1,2.41,2.41V45.09A2.41,2.41,0,0,1,22.7,47.5Z"/><path class="cls-2" d="M22.7,26.44H42.12A1.58,1.58,0,0,1,43.7,28V42.6a1.58,1.58,0,0,1-1.58,1.58H22.7a0,0,0,0,1,0,0V26.44A0,0,0,0,1,22.7,26.44Z"/><rect class="cls-3" x="22.7" y="29.85" width="21" height="4.67"/></svg>