<svg id="Layer_1" data-name="Layer 1" xmlns="http://www.w3.org/2000/svg" viewBox="0 0 64 64"><defs><style>.cls-1{fill:#dd1515;}.cls-2{fill:#dfe8f4;}.cls-3{fill:#ccd8e5;}.cls-4{fill:#ff5454;}.cls-5{fill:#fff;}</style></defs><title>content marketing, digital marketing, marketing, suitcase, business</title><path class="cls-1" d="M40.37,29.14H23.63a2.93,2.93,0,0,1-2.93-2.93V19.78a2.93,2.93,0,0,1,2.93-2.93H40.37a2.93,2.93,0,0,1,2.93,2.93v6.43A2.93,2.93,0,0,1,40.37,29.14Zm-.07-9.36-16.67.07.07,6.36,16.6-.07Zm.07,6.36Z"/><rect class="cls-2" x="8" y="23" width="48" height="33" rx="2.88"/><path class="cls-3" d="M56,53.12V25.88A2.88,2.88,0,0,0,53.12,23H32.24c-2.43,6.73-4.61,13.43-4.61,14.19l-2.25,4.35L48.15,54.67a10,10,0,0,0,5,1.33h0A2.88,2.88,0,0,0,56,53.12Z"/><rect class="cls-3" x="29.06" y="39.5" width="7.25" height="8.25" rx="1.18"/><path class="cls-4" d="M53.12,23H10.88A2.88,2.88,0,0,0,8,25.88V30a2.57,2.57,0,0,0,1.29,2.23l16.09,9.29a13.22,13.22,0,0,0,13.24,0l16.09-9.29A2.57,2.57,0,0,0,56,30V25.88A2.88,2.88,0,0,0,53.12,23Z"/><rect class="cls-5" x="28.38" y="38.56" width="7.25" height="8.25" rx="1.18"/></svg>