<svg id="Layer_1" data-name="Layer 1" xmlns="http://www.w3.org/2000/svg" viewBox="0 0 64 64"><defs><style>.cls-1{fill:#FC0707;}.cls-2{fill:#F4DFDF;}.cls-3{fill:#fff;}.cls-4{fill:#e5cccc;}.cls-5{fill:#DD1515;}</style></defs><title>content marketing, digital marketing, marketing, hand, gesture, chart, graph</title><circle class="cls-1" cx="32.1" cy="20" r="12"/><path class="cls-2" d="M26.5,25.71c.19.17.37.34.57.5a8.26,8.26,0,0,0,2.57,1.32V22.06a.26.26,0,0,0-.27-.26h-2.6a.26.26,0,0,0-.27.26Z"/><path class="cls-3" d="M30.54,27.75a8.24,8.24,0,0,0,3.13,0V16.27a.27.27,0,0,0-.26-.27H30.8a.26.26,0,0,0-.26.27Z"/><path class="cls-2" d="M34.57,27.53a8.1,8.1,0,0,0,2.56-1.32c.2-.16.39-.33.57-.5v-6a.26.26,0,0,0-.26-.26H34.83a.26.26,0,0,0-.26.26Z"/><path class="cls-2" d="M52.56,31,44.1,34.91a7.19,7.19,0,0,1-3.54.67l-8.14-.52a1,1,0,0,0-.74.25l-.46.4a1,1,0,0,1-1.41-.06,1,1,0,0,1,0-1.45l1.66-1.56a3.53,3.53,0,0,0,1.06-3.19l-.1-.59a2,2,0,0,0-2.6-1.54l-3.31,1.12A31.19,31.19,0,0,0,12,38.71L9,42.53l9.66,12H22l4.15-6.31a4.28,4.28,0,0,1,3.58-1.94H41.07a5.56,5.56,0,0,0,3.83-1.53l10.35-9.88A2.4,2.4,0,0,0,56,33.16h0A2.42,2.42,0,0,0,52.56,31Z"/><polygon class="cls-4" points="9.51 41.89 9.51 43.16 18.6 54.49 22.05 54.49 24.3 51.07 11.98 38.75 9.51 41.89"/><path class="cls-1" d="M8,42V55.84a.16.16,0,0,0,.16.16h13.7a1.81,1.81,0,0,0,1.28-3.08L11,40.74A1.74,1.74,0,0,0,8,42Z"/><path class="cls-5" d="M20.14,55.92,8,43.78V55.84a.16.16,0,0,0,.16.16h12Z"/></svg>