<svg id="Layer_1" data-name="Layer 1" xmlns="http://www.w3.org/2000/svg" viewBox="0 0 64 64"><defs><style>.cls-1{fill:#dfe8f4;}.cls-2{fill:#ff5454;}.cls-3{fill:#dd1515;}.cls-4{fill:#ccd8e5;}.cls-5{fill:#fff;}</style></defs><title>content marketing, digital marketing, marketing, rate, rating, browser</title><rect class="cls-1" x="8" y="11.44" width="48" height="41.13" rx="4.09"/><path class="cls-2" d="M51.91,11.44H12.09A4.09,4.09,0,0,0,8,15.53v1.91H56V15.53A4.09,4.09,0,0,0,51.91,11.44Z"/><rect class="cls-3" x="12.66" y="13.82" width="1.23" height="1.23"/><rect class="cls-3" x="15.19" y="13.82" width="1.23" height="1.23"/><rect class="cls-3" x="17.71" y="13.82" width="1.23" height="1.23"/><rect class="cls-3" x="8" y="17.44" width="48" height="0.65"/><path class="cls-4" d="M56,20.88H10.79A2.79,2.79,0,0,1,8,18.08H56Z"/><path class="cls-2" d="M32.9,26.81l1.66,3.37a1,1,0,0,0,.75.55l3.72.54a1,1,0,0,1,.56,1.7L36.9,35.6a1,1,0,0,0-.29.88l.63,3.71a1,1,0,0,1-1.45,1.05l-3.32-1.75a1,1,0,0,0-.94,0l-3.32,1.75a1,1,0,0,1-1.45-1.05l.63-3.71a1,1,0,0,0-.29-.88L24.41,33a1,1,0,0,1,.56-1.7l3.72-.54a1,1,0,0,0,.75-.55l1.66-3.37A1,1,0,0,1,32.9,26.81Z"/><path class="cls-5" d="M19.41,36.69l.77,1.55a.44.44,0,0,0,.34.25l1.71.25a.46.46,0,0,1,.26.78l-1.24,1.21a.42.42,0,0,0-.13.4l.29,1.71a.46.46,0,0,1-.67.48l-1.53-.8a.45.45,0,0,0-.42,0l-1.53.8a.46.46,0,0,1-.67-.48l.29-1.71a.42.42,0,0,0-.13-.4l-1.24-1.21a.46.46,0,0,1,.26-.78l1.71-.25a.44.44,0,0,0,.34-.25l.77-1.55A.45.45,0,0,1,19.41,36.69Z"/><path class="cls-5" d="M45.41,36.69l.77,1.55a.44.44,0,0,0,.34.25l1.71.25a.46.46,0,0,1,.26.78l-1.24,1.21a.42.42,0,0,0-.13.4l.29,1.71a.46.46,0,0,1-.67.48l-1.53-.8a.45.45,0,0,0-.42,0l-1.53.8a.46.46,0,0,1-.67-.48l.29-1.71a.42.42,0,0,0-.13-.4l-1.24-1.21a.46.46,0,0,1,.26-.78l1.71-.25a.44.44,0,0,0,.34-.25l.77-1.55A.45.45,0,0,1,45.41,36.69Z"/></svg>