<svg id="Layer_1" data-name="Layer 1" xmlns="http://www.w3.org/2000/svg" viewBox="0 0 64 64"><defs><style>.cls-1{fill:#FC0707;}.cls-2{fill:#DD1515;}.cls-3{fill:#F4DFDF;}.cls-4{fill:#e5cccc;}</style></defs><title>content marketing, digital marketing, marketing, key, settings, options</title><path class="cls-1" d="M53.32,32.06c0-.14,0-.28,0-.42a5.65,5.65,0,0,1,1.85-4.37h0a2.56,2.56,0,0,0,.5-3.17l-2.75-4.76a2.55,2.55,0,0,0-3-1.15l-.34.11a5,5,0,0,1-4.23-.6c-.33-.2-.67-.4-1-.58a5.06,5.06,0,0,1-2.64-3.38l0-.17a2.61,2.61,0,0,0-2.53-2.19h-5.5a2.55,2.55,0,0,0-2.49,2l-.08.35a5.06,5.06,0,0,1-2.64,3.38c-.35.18-.69.38-1,.58a5,5,0,0,1-4.24.59L23,18.24a2.61,2.61,0,0,0-3.16,1.1L17.08,24.1a2.56,2.56,0,0,0,.5,3.17h0a5.65,5.65,0,0,1,1.85,4.37v.85a5.66,5.66,0,0,1-1.85,4.37h0a2.54,2.54,0,0,0-.5,3.16l2.76,4.77a2.54,2.54,0,0,0,3,1.15l.33-.11a5.09,5.09,0,0,1,4.24.59c.33.21.66.4,1,.58a5.1,5.1,0,0,1,2.66,3.41l.06.27a2.55,2.55,0,0,0,2.5,2.06h5.5a2.54,2.54,0,0,0,2.49-2l.08-.34A5,5,0,0,1,44.33,47c.35-.18.69-.38,1-.59a5.09,5.09,0,0,1,4.24-.59l.16.05a2.6,2.6,0,0,0,3.16-1.09L55.66,40a2.54,2.54,0,0,0-.5-3.16h0a5.66,5.66,0,0,1-1.85-4.37C53.31,32.35,53.32,32.21,53.32,32.06Z"/><path class="cls-2" d="M42.4,32.06a6,6,0,1,1-6-6A6,6,0,0,1,42.4,32.06Z"/><path class="cls-1" d="M34,30.74H24.93a1.87,1.87,0,0,1-1.78-1.27,7.8,7.8,0,1,0-.32,6,1.86,1.86,0,0,1,1.68-1h8.56a.67.67,0,0,1,.68.67v.78a1.84,1.84,0,1,0,3.67,0V34.14A3.4,3.4,0,0,0,34,30.74ZM16.61,36.11a4.13,4.13,0,1,1,3.24-3.24A4.13,4.13,0,0,1,16.61,36.11Z"/><path class="cls-3" d="M29.7,36.36a1.83,1.83,0,0,1-1.83-1.83v-2a1.84,1.84,0,1,1,3.67,0v2A1.83,1.83,0,0,1,29.7,36.36Z"/><path class="cls-3" d="M34,30.74H23.48a7.8,7.8,0,1,0-.25,3.67h9.85a.67.67,0,0,1,.67.67v.78a1.84,1.84,0,1,0,3.67,0V34.14A3.4,3.4,0,0,0,34,30.74ZM15.8,36.19a4.13,4.13,0,1,1,4.13-4.13A4.13,4.13,0,0,1,15.8,36.19Z"/><path class="cls-4" d="M34,30.74H23.48A7.82,7.82,0,0,0,17,24.36a2.55,2.55,0,0,0,.62,2.91h0a5.45,5.45,0,0,1,1.55,2.38,4,4,0,0,1,0,4.83,5.56,5.56,0,0,1-1.55,2.38,2.54,2.54,0,0,0-.62,2.9,7.79,7.79,0,0,0,6.27-5.35h9.85a.67.67,0,0,1,.67.67v.78a1.84,1.84,0,1,0,3.67,0V34.14A3.4,3.4,0,0,0,34,30.74Z"/></svg>