<svg id="Layer_1" data-name="Layer 1" xmlns="http://www.w3.org/2000/svg" viewBox="0 0 64 64"><defs><style>.cls-1{fill:#ff5454;}.cls-2{fill:#dfe8f4;}.cls-3{fill:#dd1515;}</style></defs><title>content marketing, digital marketing, marketing, settings, hierarchy</title><rect class="cls-1" x="10.64" y="48.67" width="11.99" height="7.21" rx="1.36"/><rect class="cls-1" x="26.01" y="48.67" width="11.99" height="7.21" rx="1.36"/><rect class="cls-1" x="41.37" y="48.67" width="11.99" height="7.21" rx="1.36"/><path class="cls-2" d="M48.49,46.66H46.24V45.15a1.49,1.49,0,0,0-1.49-1.49H19.25a1.49,1.49,0,0,0-1.49,1.49v1.51H15.51V45.15a3.75,3.75,0,0,1,3.74-3.74h25.5a3.75,3.75,0,0,1,3.74,3.74Z"/><rect class="cls-2" x="30.88" y="37.57" width="2.25" height="9.09"/><path class="cls-1" d="M43.21,21.69c0-.36,0-.72-.05-1.07a1.69,1.69,0,0,1,.54-1.44l.73-.67a1.68,1.68,0,0,0,.33-2.09l-1.82-3.15a1.67,1.67,0,0,0-2-.76l-.95.3a1.67,1.67,0,0,1-1.47-.22,11.6,11.6,0,0,0-1.94-1.11,1.67,1.67,0,0,1-.93-1.17l-.21-1A1.69,1.69,0,0,0,33.82,8H30.18a1.69,1.69,0,0,0-1.65,1.33l-.21,1a1.67,1.67,0,0,1-.93,1.17,11.6,11.6,0,0,0-1.94,1.11,1.67,1.67,0,0,1-1.47.22l-.95-.3a1.67,1.67,0,0,0-2,.76l-1.82,3.15a1.68,1.68,0,0,0,.33,2.09l.73.67a1.69,1.69,0,0,1,.54,1.44c0,.35-.05.71-.05,1.07s0,.71.05,1.06a1.71,1.71,0,0,1-.54,1.45l-.73.66A1.68,1.68,0,0,0,19.24,27l1.82,3.16a1.68,1.68,0,0,0,2,.76l.94-.3a1.63,1.63,0,0,1,1.48.22,11.21,11.21,0,0,0,1.94,1.11,1.65,1.65,0,0,1,.93,1.17l.21,1a1.69,1.69,0,0,0,1.65,1.34h3.64A1.69,1.69,0,0,0,35.47,34l.21-1a1.65,1.65,0,0,1,.93-1.17,11.21,11.21,0,0,0,1.94-1.11A1.63,1.63,0,0,1,40,30.57l.94.3a1.68,1.68,0,0,0,2-.76L44.76,27a1.68,1.68,0,0,0-.33-2.09l-.73-.66a1.71,1.71,0,0,1-.54-1.45C43.19,22.4,43.21,22.05,43.21,21.69Z"/><circle class="cls-3" cx="32" cy="21.69" r="3.99"/></svg>