<svg id="Layer_1" data-name="Layer 1" xmlns="http://www.w3.org/2000/svg" viewBox="0 0 64 64"><defs><style>.cls-1{fill:#DD1515;}.cls-2{fill:#FC0707;}.cls-3{fill:#F4DFDF;}.cls-4{fill:#e5cccc;}</style></defs><title>content marketing, digital marketing, marketing, direction, sign</title><path class="cls-1" d="M31,8h2A1.48,1.48,0,0,1,34.5,9.48V56a0,0,0,0,1,0,0h-5a0,0,0,0,1,0,0V9.48A1.48,1.48,0,0,1,31,8Z"/><path class="cls-2" d="M45.64,13.28H19.07a1.81,1.81,0,0,0-1.8,1.81V27.7a1.81,1.81,0,0,0,1.8,1.8H45.64a1.8,1.8,0,0,0,1.56-.9l3.64-6.31a1.81,1.81,0,0,0,0-1.8l-3.64-6.3A1.81,1.81,0,0,0,45.64,13.28Z"/><path class="cls-3" d="M18.36,32H44.93a1.81,1.81,0,0,1,1.8,1.8V46.41a1.81,1.81,0,0,1-1.8,1.81H18.36a1.81,1.81,0,0,1-1.56-.91L13.16,41a1.81,1.81,0,0,1,0-1.8L16.8,32.9A1.8,1.8,0,0,1,18.36,32Z"/><rect class="cls-4" x="29.5" y="32" width="5" height="16.22"/></svg>