<svg id="Layer_1" data-name="Layer 1" xmlns="http://www.w3.org/2000/svg" viewBox="0 0 64 64"><defs><style>.cls-1{fill:#dfe8f4;}.cls-2{fill:#ccd8e5;}.cls-3{fill:#ff5454;}</style></defs><title>content marketing, digital marketing, marketing, like, favourite, heart</title><path class="cls-1" d="M32,33a.66.66,0,0,1-.64-.78l.79-4.15a7.07,7.07,0,0,0,.12-1.3v0a6.12,6.12,0,0,0-3.8-5.67h0a1.23,1.23,0,0,0-1.7,1.14h0a15.15,15.15,0,0,1-1.86,7.27h0a10.81,10.81,0,0,1-9.5,5.63H10.51v19h4.71a19,19,0,0,1,5.94.95h0a18.92,18.92,0,0,0,5.93,1H37.85a9.53,9.53,0,0,0,9.46-8.35l1.28-10.17A4,4,0,0,0,44.65,33Z"/><path class="cls-2" d="M12.23,54.1h3c.6,0,1.21,0,1.81.09V35a10.14,10.14,0,0,1-1.66.13H12.23Z"/><path class="cls-3" d="M8,34.15h5.89A1.11,1.11,0,0,1,15,35.26v18.8a.59.59,0,0,1-.59.59H8a0,0,0,0,1,0,0V34.15A0,0,0,0,1,8,34.15Z"/><path class="cls-3" d="M54.15,11.27a5.81,5.81,0,0,0-7.9.43l-.5.5-.5-.5a5.81,5.81,0,0,0-7.9-.43,5.59,5.59,0,0,0-.21,8.11L45,27.2a1.16,1.16,0,0,0,1.6,0l7.81-7.82A5.59,5.59,0,0,0,54.15,11.27Z"/></svg>