<svg id="Layer_1" data-name="Layer 1" xmlns="http://www.w3.org/2000/svg" viewBox="0 0 64 64"><defs><style>.cls-1{fill:#ff5454;}.cls-2{fill:#dd1515;}.cls-3{fill:#dfe8f4;}.cls-4{fill:#ccd8e5;}.cls-5{fill:#fff;}</style></defs><title>content marketing, digital marketing, marketing, settings, options, key</title><path class="cls-1" d="M53.32,32.06c0-.14,0-.28,0-.42a5.65,5.65,0,0,1,1.85-4.37h0a2.56,2.56,0,0,0,.5-3.17l-2.75-4.76a2.55,2.55,0,0,0-3-1.15l-.34.11a5,5,0,0,1-4.23-.6c-.33-.2-.67-.4-1-.58a5.06,5.06,0,0,1-2.64-3.38l0-.17a2.61,2.61,0,0,0-2.53-2.19h-5.5a2.55,2.55,0,0,0-2.49,2l-.08.35a5.06,5.06,0,0,1-2.64,3.38c-.35.18-.69.38-1,.58a5,5,0,0,1-4.24.59L23,18.24a2.61,2.61,0,0,0-3.16,1.1L17.08,24.1a2.56,2.56,0,0,0,.5,3.17h0a5.65,5.65,0,0,1,1.85,4.37v.85a5.66,5.66,0,0,1-1.85,4.37h0a2.54,2.54,0,0,0-.5,3.16l2.76,4.77a2.54,2.54,0,0,0,3,1.15l.33-.11a5.09,5.09,0,0,1,4.24.59c.33.21.66.4,1,.58a5.1,5.1,0,0,1,2.66,3.41l.06.27a2.55,2.55,0,0,0,2.5,2.06h5.5a2.54,2.54,0,0,0,2.49-2l.08-.34A5,5,0,0,1,44.33,47c.35-.18.69-.38,1-.59a5.09,5.09,0,0,1,4.24-.59l.16.05a2.6,2.6,0,0,0,3.16-1.09L55.66,40a2.54,2.54,0,0,0-.5-3.16h0a5.66,5.66,0,0,1-1.85-4.37C53.31,32.35,53.32,32.21,53.32,32.06Z"/><path class="cls-2" d="M42.4,32.06a6,6,0,1,1-6-6A6,6,0,0,1,42.4,32.06Z"/><path class="cls-3" d="M23.14,28.2H30.3a7,7,0,0,1,5.15,2.24l1,1.06a.83.83,0,0,1,0,1.12l-1,1.06a7,7,0,0,1-5.15,2.24h-.24a.16.16,0,0,1-.16-.16v-.44a.17.17,0,0,0-.17-.16h-.87a.17.17,0,0,0-.17.16v.44a.16.16,0,0,1-.16.16h-.59a.16.16,0,0,1-.16-.16v-.6h-.6v.6a.17.17,0,0,1-.17.16h-.94a.16.16,0,0,1-.16-.16v-.44a.17.17,0,0,0-.17-.16H24.26a.16.16,0,0,0-.16.16v.44a.17.17,0,0,1-.17.16h-.81a1.31,1.31,0,0,0-1.09.54,7.63,7.63,0,1,1,0-8.81A1.35,1.35,0,0,0,23.14,28.2Z"/><circle class="cls-3" cx="15.8" cy="32.06" r="7.63"/><path class="cls-4" d="M35.45,30.44A7,7,0,0,0,30.3,28.2H23.14A1.35,1.35,0,0,1,22,27.65a7.65,7.65,0,0,0-5.13-3.14,2.57,2.57,0,0,0,.69,2.76h0a5.65,5.65,0,0,1,1.85,4.37v.85a5.66,5.66,0,0,1-1.85,4.37,2.55,2.55,0,0,0-.69,2.75A7.67,7.67,0,0,0,22,36.46a1.31,1.31,0,0,1,1.09-.54h.81a.17.17,0,0,0,.17-.16v-.44a.16.16,0,0,1,.16-.16h1.48a.17.17,0,0,1,.17.16v.44a.16.16,0,0,0,.16.16H27a.17.17,0,0,0,.17-.16v-.6h.6v.6a.16.16,0,0,0,.16.16h.59a.16.16,0,0,0,.16-.16v-.44a.17.17,0,0,1,.17-.16h.87a.17.17,0,0,1,.17.16v.44a.16.16,0,0,0,.16.16h.24a7,7,0,0,0,5.15-2.24l1-1.06a.83.83,0,0,0,0-1.12Z"/><path class="cls-5" d="M14,29.94a2.13,2.13,0,1,0,2.12,2.12A2.12,2.12,0,0,0,14,29.94Z"/></svg>