<svg id="Layer_1" data-name="Layer 1" xmlns="http://www.w3.org/2000/svg" viewBox="0 0 64 64"><defs><style>.cls-1{fill:#ccd8e5;}.cls-2{fill:#dfe8f4;}.cls-3{fill:#ff5454;}.cls-4{fill:#dd1515;}</style></defs><title>content marketing, digital marketing, marketing, money, hand, gesture, smartphone</title><rect class="cls-1" x="13.51" y="8.24" width="25.14" height="39.35" rx="4.42"/><path class="cls-2" d="M17.92,8.24a4.42,4.42,0,0,0-4.41,4.42V43.17a4.4,4.4,0,0,0,3,4.16,4.4,4.4,0,0,1-.25-1.41V29.3a1.66,1.66,0,0,0-1.66-1.66h0v-.89h0a1.66,1.66,0,0,0,1.66-1.66V13.17A2.17,2.17,0,0,1,18.44,11H28.56l1.3-2.75Z"/><path class="cls-3" d="M34.23,8.24H17.92a4.42,4.42,0,0,0-4.41,4.42V43.17a4.41,4.41,0,0,0,4.41,4.41H34.23a4.4,4.4,0,0,0,4.41-4.41V12.66A4.41,4.41,0,0,0,34.23,8.24ZM37,43.17A2.79,2.79,0,0,1,34.23,46H17.92a2.78,2.78,0,0,1-2.77-2.78V12.66a2.77,2.77,0,0,1,2.77-2.78H20a1.52,1.52,0,0,1,1.16.54h0a1.5,1.5,0,0,0,1.16.55h7.53A1.48,1.48,0,0,0,31,10.42h0a1.54,1.54,0,0,1,1.17-.54h2.06A2.78,2.78,0,0,1,37,12.66Z"/><path class="cls-4" d="M50.36,39.7,50,37.84,48.6,28.41A3.14,3.14,0,0,0,46,25.79l-7.39-1.33v14.9a.83.83,0,1,1-1.65,0V31.79a1.62,1.62,0,0,0-1.63-1.62h0a3.64,3.64,0,0,0-3.64,3.64V44.93a11.74,11.74,0,0,0,2.55,7.3A6,6,0,0,1,35.6,56h13V53.33a23.45,23.45,0,0,1,.66-5.54l1-4.14A9.92,9.92,0,0,0,50.36,39.7Z"/><path class="cls-3" d="M26.13,26.78A1.13,1.13,0,0,1,25,25.91a1.08,1.08,0,0,1,1.06-1.28,1.09,1.09,0,0,1,.93.54,1.09,1.09,0,0,0,1,.53h0a1.12,1.12,0,0,0,1-1.64,3.33,3.33,0,0,0-1.77-1.49h0a1.06,1.06,0,0,0-1.06-1.06H26a1.07,1.07,0,0,0-1.06,1.06h0A3.37,3.37,0,0,0,23,27.1a3.43,3.43,0,0,0,3.11,1.95,1.07,1.07,0,1,1-1,1.61,1.12,1.12,0,0,0-1-.54h0a1.13,1.13,0,0,0-1,1.65,3.46,3.46,0,0,0,1.77,1.49h0A1.06,1.06,0,0,0,26,34.31h.15a1.05,1.05,0,0,0,1.06-1.05h0a3.34,3.34,0,0,0-1.08-6.48Z"/></svg>