<svg id="Layer_1" data-name="Layer 1" xmlns="http://www.w3.org/2000/svg" viewBox="0 0 64 64"><defs><style>.cls-1{fill:#ff5454;}.cls-2{fill:#dfe8f4;}</style></defs><title>content marketing, digital marketing, marketing, magnet, audience, attract</title><path class="cls-1" d="M55.05,22.89H40.18a1,1,0,0,0-1,.94v8.26A7.23,7.23,0,0,1,32,39.32V56.09h.41A24,24,0,0,0,56,32.09V23.83A.94.94,0,0,0,55.05,22.89Z"/><path class="cls-2" d="M9,22.89H23.82a1,1,0,0,1,.95.94v8.26A7.23,7.23,0,0,0,32,39.32V56.09h-.41A24,24,0,0,1,8,32.09V23.83A.94.94,0,0,1,9,22.89Z"/><path class="cls-1" d="M21.06,11.43V10.37a2.36,2.36,0,0,0-1.19-2h0a2.34,2.34,0,0,0-2.37,0h0a2.38,2.38,0,0,0-1.19,2v1.06a2.09,2.09,0,0,0,1,1.81h0a2.7,2.7,0,0,0,2.67,0h0A2.09,2.09,0,0,0,21.06,11.43Z"/><path class="cls-1" d="M23.42,20.14H14a.46.46,0,0,1-.46-.46V18.43a5.19,5.19,0,0,1,5.19-5.2h0a5.2,5.2,0,0,1,5.19,5.2v1.25A.47.47,0,0,1,23.42,20.14Z"/><path class="cls-1" d="M34.37,11.43V10.37a2.37,2.37,0,0,0-1.18-2h0a2.36,2.36,0,0,0-2.38,0h0a2.37,2.37,0,0,0-1.18,2v1.06a2.07,2.07,0,0,0,1,1.81h0a2.69,2.69,0,0,0,2.66,0h0A2.07,2.07,0,0,0,34.37,11.43Z"/><path class="cls-1" d="M36.73,20.14H27.27a.47.47,0,0,1-.46-.46V18.43A5.19,5.19,0,0,1,32,13.23h0a5.19,5.19,0,0,1,5.19,5.2v1.25A.47.47,0,0,1,36.73,20.14Z"/><path class="cls-1" d="M47.69,11.43V10.37a2.38,2.38,0,0,0-1.19-2h0a2.34,2.34,0,0,0-2.37,0h0a2.36,2.36,0,0,0-1.19,2v1.06a2.09,2.09,0,0,0,1,1.81h0a2.7,2.7,0,0,0,2.67,0h0A2.09,2.09,0,0,0,47.69,11.43Z"/><path class="cls-1" d="M50,20.14H40.58a.47.47,0,0,1-.46-.46V18.43a5.2,5.2,0,0,1,5.19-5.2h0a5.19,5.19,0,0,1,5.19,5.2v1.25A.46.46,0,0,1,50,20.14Z"/></svg>