<svg id="Layer_1" data-name="Layer 1" xmlns="http://www.w3.org/2000/svg" viewBox="0 0 64 64"><defs><style>.cls-1{fill:#DD1515;}.cls-2{fill:#FC0707;}.cls-3{fill:#e5cccc;}.cls-4{fill:#F4DFDF;}</style></defs><title>content marketing, digital marketing, marketing, search, find, announcement, newsletter</title><path class="cls-1" d="M51.12,8a2.49,2.49,0,0,0-1.53.53,14.53,14.53,0,0,1-5.73,2.4l-7.25,1.54a23.44,23.44,0,0,1-4.95.52H28.87c-1.11,0-2,2.85-2,6.37s.9,6.37,2,6.37h0a2.8,2.8,0,0,1,2.58,1.69l1.76,4a2.73,2.73,0,0,0,2.51,1.65h0a.43.43,0,0,0,.17,0,.37.37,0,0,0,.14,0h0a1.85,1.85,0,0,0,1.85-1.88A10.55,10.55,0,0,1,38,30.09a3.13,3.13,0,0,1,3.81-2.74h0l3.08.65a11.56,11.56,0,0,1,4.72,2.19,2.49,2.49,0,0,0,1.53.53c3.14,0,4.55-5.71,4.55-11.36S54.26,8,51.12,8Zm.6,18.83a.64.64,0,0,1-.6.4V11.5a.63.63,0,0,1,.6.39,20.21,20.21,0,0,1,1.17,7.47A20.21,20.21,0,0,1,51.72,26.83Z"/><path class="cls-1" d="M54.28,19.36c0,5.51-1.42,10-3.16,10S48,24.87,48,19.36s1.42-10,3.16-10S54.28,13.85,54.28,19.36Z"/><path class="cls-2" d="M51.12,30.72c-3.14,0-4.55-5.7-4.55-11.36S48,8,51.12,8s4.55,5.71,4.55,11.36S54.26,30.72,51.12,30.72Zm.6-18.83a.65.65,0,0,0-1.2,0,20.21,20.21,0,0,0-1.17,7.47,20.21,20.21,0,0,0,1.17,7.47.65.65,0,0,0,1.2,0,20.21,20.21,0,0,0,1.17-7.47A20.21,20.21,0,0,0,51.72,11.89Z"/><path class="cls-3" d="M28.91,25.73a2.8,2.8,0,0,1,2.58,1.69l1.76,4a2.73,2.73,0,0,0,2.51,1.65.43.43,0,0,0,.17,0,.37.37,0,0,0,.14,0,1.85,1.85,0,0,0,1.85-1.88A10.55,10.55,0,0,1,38,30.09a3.13,3.13,0,0,1,3.39-2.8A80.2,80.2,0,0,0,28.91,25.73Z"/><path class="cls-4" d="M46.89,55.12a3,3,0,0,1-4.28,0L33.46,46a3,3,0,0,1,4.27-4.28l9.16,9.16A3,3,0,0,1,46.89,55.12Z"/><path class="cls-2" d="M17.75,42.39a11.7,11.7,0,1,1,14.25,0A11.72,11.72,0,0,1,17.75,42.39Z"/><path class="cls-1" d="M32,23.82a11.53,11.53,0,0,0-5-2.22c.28,2.41,1,4.13,1.88,4.13h0a2.8,2.8,0,0,1,2.58,1.69l1.76,4a2.73,2.73,0,0,0,2.51,1.65.53.53,0,0,0,.18,0,.28.28,0,0,0,.13,0,2.08,2.08,0,0,0,.5-.07A11.65,11.65,0,0,0,32,23.82Z"/><path class="cls-4" d="M46.83,50.78,42.1,46.06a6.42,6.42,0,0,1-1.52-6.81A16.88,16.88,0,1,0,31,48.82a6.47,6.47,0,0,1,6.87,1.55l4.74,4.75a3,3,0,0,0,4.68-.5A3.07,3.07,0,0,0,46.83,50.78ZM17.75,42.39a11.7,11.7,0,1,1,14.25,0A11.72,11.72,0,0,1,17.75,42.39Z"/><path class="cls-3" d="M38,30.09a3.13,3.13,0,0,1,2.74-2.78,16.68,16.68,0,0,0-13.63-10.9,17.93,17.93,0,0,0-.23,2.95A17.66,17.66,0,0,0,27,21.6a11.53,11.53,0,0,1,5,2.22A11.65,11.65,0,0,1,36.57,33a1.85,1.85,0,0,0,1.35-1.81A10.55,10.55,0,0,1,38,30.09Z"/><path class="cls-1" d="M44,48l-4.27,4.27,2.87,2.88a3,3,0,1,0,4.28-4.28Z"/><rect class="cls-2" x="39.5" y="49.83" width="6.04" height="1.83" transform="translate(-23.43 44.93) rotate(-45)"/></svg>