<svg id="Layer_1" data-name="Layer 1" xmlns="http://www.w3.org/2000/svg" viewBox="0 0 64 64"><defs><style>.cls-1{fill:#F4DFDF;}.cls-2{fill:#e5cccc;}.cls-3{fill:#FC0707;}.cls-4{fill:#DD1515;}</style></defs><title>content marketing, digital marketing, marketing, file, network, share</title><path class="cls-1" d="M48.88,54.5H16.12a1.56,1.56,0,0,1-1.56-1.56h0a1.56,1.56,0,0,1,1.56-1.56H48.88a1.56,1.56,0,0,1,1.56,1.56h0A1.56,1.56,0,0,1,48.88,54.5Z"/><rect class="cls-1" x="23.41" y="43.85" width="18.17" height="3.12" transform="translate(-12.91 77.91) rotate(-90)"/><rect class="cls-2" x="30.94" y="41.39" width="3.12" height="6.33"/><circle class="cls-3" cx="32.5" cy="52.94" r="3.06"/><path class="cls-2" d="M35.56,52.94a3,3,0,0,1-.44,1.56h2.17a5.06,5.06,0,0,0,.27-1.56,5,5,0,0,0-.27-1.56H35.12A2.93,2.93,0,0,1,35.56,52.94Z"/><path class="cls-2" d="M29.44,52.94a2.93,2.93,0,0,1,.44-1.56H27.71a5,5,0,0,0-.27,1.56,5.06,5.06,0,0,0,.27,1.56h2.17A3,3,0,0,1,29.44,52.94Z"/><path class="cls-3" d="M43,8a4.33,4.33,0,0,1,4.33,4.33V41.79A4.33,4.33,0,0,1,43,46.12H21a4.33,4.33,0,0,1-4.33-4.33V17.44a1.94,1.94,0,0,1,.57-1.38l7.49-7.49A2,2,0,0,1,26.09,8Z"/><path class="cls-4" d="M16.83,16.63a1.81,1.81,0,0,1,.39-.57l7.49-7.49a2.06,2.06,0,0,1,.57-.39V12.3A4.33,4.33,0,0,1,21,16.63Z"/></svg>