<svg width="18" height="18" viewBox="0 0 18 18" fill="none" xmlns="http://www.w3.org/2000/svg">
<g id="Group">
<path id="Vector" d="M4.16659 3.33334C3.70637 3.33334 3.33325 3.70646 3.33325 4.16668C3.33325 4.62689 3.70637 5.00001 4.16659 5.00001H9.99992C10.4601 5.00001 10.8333 4.62689 10.8333 4.16668C10.8333 3.70646 10.4601 3.33334 9.99992 3.33334H4.16659Z" fill="#DC2434"/>
<path id="Vector_2" d="M4.16659 6.66666C3.70637 6.66666 3.33325 7.03977 3.33325 7.49999C3.33325 7.96021 3.70637 8.33332 4.16659 8.33332H11.6666C12.1268 8.33332 12.4999 7.96021 12.4999 7.49999C12.4999 7.03977 12.1268 6.66666 11.6666 6.66666H4.16659Z" fill="#DC2434"/>
<path id="Vector_3" d="M3.33325 10.8333C3.33325 10.3731 3.70637 10 4.16659 10H6.66659C7.1268 10 7.49992 10.3731 7.49992 10.8333C7.49992 11.2936 7.1268 11.6667 6.66659 11.6667H4.16659C3.70637 11.6667 3.33325 11.2936 3.33325 10.8333Z" fill="#DC2434"/>
<path id="Vector_4" fill-rule="evenodd" clip-rule="evenodd" d="M2.5 0C1.11927 0 0 1.18145 0 2.63883V13.1943C0 14.6518 1.11927 15.8333 2.5 15.8333H9.99967C10.7598 16.8453 11.9702 17.5 13.3333 17.5C15.6345 17.5 17.5 15.6345 17.5 13.3333C17.5 12.3952 17.1899 11.5295 16.6667 10.833V2.639C16.6667 1.18158 15.5474 0.000166702 14.1667 0.000166702L2.5 0ZM9.16667 13.3333C9.16667 13.5862 9.18919 13.8337 9.23236 14.0741H2.50002C2.03981 14.0741 1.66669 13.6803 1.66669 13.1944V2.6389C1.66669 2.1531 2.03981 1.75928 2.50002 1.75928H14.1667C14.6269 1.75928 15 2.1531 15 2.6389V9.5134C14.4896 9.29042 13.9259 9.16672 13.3334 9.16672C11.0322 9.16672 9.16669 11.0322 9.16669 13.3334L9.16667 13.3333ZM12.5 10.9757C11.529 11.3188 10.8333 12.2449 10.8333 13.3333C10.8333 14.7141 11.9526 15.8333 13.3333 15.8333C13.9575 15.8333 14.5283 15.6046 14.9664 15.2263L12.9199 14.0568C12.6602 13.9085 12.5 13.6324 12.5 13.3333L12.5 10.9757ZM15.7937 13.7795C15.8197 13.6347 15.8333 13.4857 15.8333 13.3334C15.8333 12.2449 15.1377 11.3187 14.1666 10.9757V12.8499L15.7937 13.7795Z" fill="#DC2434"/>
</g>
</svg>
