<?xml version="1.0" encoding="UTF-8"?>
<svg width="1200pt" height="1200pt" version="1.1" viewBox="0 0 1200 1200" xmlns="http://www.w3.org/2000/svg">
 <g>
  <path d="m270.69 947.65c-54.922 0-99.461 44.77-99.461 99.691 0 54.691 44.539 99.461 99.461 99.461s99.461-44.77 99.461-99.461c0-54.922-44.539-99.691-99.461-99.691z"/>
  <path d="m46.152 892.04v104.31c0 40.848 33.23 74.078 74.074 74.078h6.9258c-1.3828-7.6172-2.0781-15.23-2.0781-23.078 0-80.309 65.309-145.85 145.62-145.85s145.62 65.539 145.62 145.85c0 7.8477-0.69141 15.461-2.0742 23.078l371.3-0.003906c-1.3828-7.6172-2.0742-15.23-2.0742-23.078 0-80.309 65.309-145.85 145.62-145.85 80.309 0 145.62 65.539 145.62 145.85 0 7.8477-0.69141 15.461-2.0781 23.078h7.1523c40.848 0 74.078-33.23 74.078-74.078v-104.31z"/>
  <path d="m929.08 947.65c-54.691 0-99.461 44.77-99.461 99.691 0 54.691 44.77 99.461 99.461 99.461 54.922 0 99.461-44.77 99.461-99.461 0-54.922-44.539-99.691-99.461-99.691z"/>
  <path d="m1153.6 823.04c0-23.539-11.309-45.926-30.461-60l-118.38-85.844c-4.8438-3.4609-8.3086-8.3086-10.152-13.848l-42-127.61c-9.9219-30.461-38.309-51-70.383-51h-400.24c-16.293 27.027-31.402 50.66-42.789 68.008-12.238 19.098-34.457 31.223-57.738 31.223-23.078 0-44.621-11.473-57.625-30.695-11.512-17.52-26.758-41.324-43.176-68.535l-160.66-0.003906c-40.617 0-73.848 33.23-73.848 74.078v287.08h1107.5zm-794.77-73.613c0 12.922-10.387 23.078-23.078 23.078l-164.77-0.003906c-12.691 0-23.078-10.152-23.078-23.078v-139.62c0-12.922 10.387-23.078 23.078-23.078h164.77c12.691 0 23.078 10.152 23.078 23.078zm266.77 0c0 12.922-10.387 23.078-23.078 23.078h-164.77c-12.922 0-23.078-10.152-23.078-23.078v-139.62c0-12.922 10.152-23.078 23.078-23.078h164.77c12.691 0 23.078 10.152 23.078 23.078zm284.31 13.383c-4.3828 6-11.309 9.4609-18.691 9.4609l-186.92 0.23047c-6 0-12-2.3086-16.152-6.6914-4.3828-4.3828-6.9219-10.152-6.9219-16.383v-139.62c0-12.922 10.383-23.078 23.078-23.078h141c10.152 0 18.922 6.2305 21.922 15.695l45.922 139.61c2.3047 7.1523 1.1523 14.77-3.2344 20.77z"/>
  <path d="m381.46 537.81c7.6172 0 15-3.9219 19.152-10.383 15-22.848 146.54-225 146.54-308.31 0-91.383-74.309-165.92-165.69-165.92-91.613 0-165.92 74.539-165.92 165.92 0 83.309 131.54 285.46 146.54 308.31 4.3828 6.4609 11.539 10.383 19.383 10.383zm-74.074-317.08c0-40.844 33.23-74.074 74.074-74.074 40.617 0 73.848 33.23 73.848 74.074 0 40.848-33.23 74.078-73.848 74.078-40.844 0-74.074-33.23-74.074-74.078z"/>
 </g>
</svg>
