<svg width="25" height="25" viewBox="0 0 25 25" fill="none" xmlns="http://www.w3.org/2000/svg">
<g clip-path="url(#clip0_65_1286)">
<path d="M24.2188 20.2637C24.2188 20.1601 24.1776 20.0608 24.1043 19.9875C24.0311 19.9143 23.9317 19.8731 23.8281 19.8731C23.7245 19.8731 23.6252 19.9143 23.5519 19.9875C23.4787 20.0608 23.4375 20.1601 23.4375 20.2637C23.4375 20.3673 23.4787 20.4667 23.5519 20.5399C23.6252 20.6132 23.7245 20.6544 23.8281 20.6544C23.9316 20.654 24.0308 20.6128 24.104 20.5396C24.1772 20.4665 24.2184 20.3673 24.2188 20.2637L24.2188 20.2637Z" fill="#DC2434"/>
<path d="M22.2666 20.6544C22.3702 20.6544 22.4696 20.6132 22.5428 20.5399C22.6161 20.4667 22.6572 20.3673 22.6572 20.2637C22.6572 20.1601 22.6161 20.0608 22.5428 19.9875C22.4696 19.9143 22.3702 19.8731 22.2666 19.8731C22.163 19.8731 22.0636 19.9143 21.9904 19.9875C21.9172 20.0608 21.876 20.1601 21.876 20.2637C21.8763 20.3673 21.9176 20.4664 21.9907 20.5396C22.064 20.6128 22.1631 20.654 22.2666 20.6544L22.2666 20.6544Z" fill="#DC2434"/>
<path d="M21.0938 20.2637C21.0938 20.4795 20.9189 20.6544 20.7031 20.6544C20.4874 20.6544 20.3125 20.4795 20.3125 20.2637C20.3125 20.048 20.4874 19.8731 20.7031 19.8731C20.9189 19.8731 21.0938 20.048 21.0938 20.2637Z" fill="#DC2434"/>
<path d="M18.75 20.2637C18.75 20.3673 18.7912 20.4667 18.8644 20.5399C18.9377 20.6132 19.037 20.6544 19.1406 20.6544C19.2442 20.6544 19.3436 20.6132 19.4168 20.5399C19.4901 20.4667 19.5313 20.3673 19.5313 20.2637C19.5313 20.1601 19.4901 20.0608 19.4168 19.9875C19.3436 19.9143 19.2442 19.8731 19.1406 19.8731C19.037 19.8731 18.9377 19.9142 18.8644 19.9875C18.7911 20.0608 18.75 20.1601 18.75 20.2637Z" fill="#DC2434"/>
<path d="M14.0625 20.2637C14.0625 20.3673 14.1037 20.4667 14.1769 20.5399C14.2502 20.6132 14.3495 20.6544 14.4531 20.6544C14.5567 20.6544 14.6561 20.6132 14.7293 20.5399C14.8026 20.4667 14.8438 20.3673 14.8438 20.2637C14.8438 20.1601 14.8026 20.0608 14.7293 19.9875C14.6561 19.9143 14.5567 19.8731 14.4531 19.8731C14.3495 19.8731 14.2502 19.9142 14.1769 19.9875C14.1036 20.0608 14.0625 20.1601 14.0625 20.2637Z" fill="#DC2434"/>
<path d="M13.2813 20.2637C13.2813 20.4795 13.1064 20.6544 12.8906 20.6544C12.6749 20.6544 12.5 20.4795 12.5 20.2637C12.5 20.048 12.6749 19.8731 12.8906 19.8731C13.1064 19.8731 13.2813 20.048 13.2813 20.2637Z" fill="#DC2434"/>
<path d="M11.7188 20.2637C11.7188 20.4795 11.5439 20.6544 11.3281 20.6544C11.1124 20.6544 10.9375 20.4795 10.9375 20.2637C10.9375 20.048 11.1124 19.8731 11.3281 19.8731C11.5439 19.8731 11.7188 20.048 11.7188 20.2637Z" fill="#DC2434"/>
<path d="M9.375 20.2637C9.375 20.3673 9.41618 20.4667 9.48942 20.5399C9.56266 20.6132 9.66203 20.6544 9.76563 20.6544C9.86923 20.6544 9.96859 20.6132 10.0418 20.5399C10.1151 20.4667 10.1563 20.3673 10.1563 20.2637C10.1563 20.1601 10.1151 20.0608 10.0418 19.9875C9.9686 19.9143 9.86923 19.8731 9.76563 19.8731C9.66203 19.8731 9.56267 19.9142 9.48942 19.9875C9.4161 20.0608 9.375 20.1601 9.375 20.2637Z" fill="#DC2434"/>
<path d="M4.6875 20.2637C4.6875 20.3673 4.72868 20.4667 4.80192 20.5399C4.87516 20.6132 4.97453 20.6544 5.07813 20.6544C5.18173 20.6544 5.28109 20.6132 5.35434 20.5399C5.42758 20.4667 5.46876 20.3673 5.46876 20.2637C5.46876 20.1601 5.42758 20.0608 5.35434 19.9875C5.2811 19.9143 5.18173 19.8731 5.07813 19.8731C4.97453 19.8731 4.87517 19.9142 4.80192 19.9875C4.7286 20.0608 4.6875 20.1601 4.6875 20.2637V20.2637Z" fill="#DC2434"/>
<path d="M3.90625 20.2637C3.90625 20.4795 3.73136 20.6544 3.51563 20.6544C3.29989 20.6544 3.125 20.4795 3.125 20.2637C3.125 20.048 3.29989 19.8731 3.51563 19.8731C3.73136 19.8731 3.90625 20.048 3.90625 20.2637Z" fill="#DC2434"/>
<path d="M2.34375 20.2637C2.34375 20.4795 2.16886 20.6544 1.95313 20.6544C1.73739 20.6544 1.5625 20.4795 1.5625 20.2637C1.5625 20.048 1.73739 19.8731 1.95313 19.8731C2.16886 19.8731 2.34375 20.048 2.34375 20.2637Z" fill="#DC2434"/>
<path d="M0.78125 20.2637C0.78125 20.4795 0.606365 20.6544 0.390625 20.6544C0.174885 20.6544 0 20.4795 0 20.2637C0 20.048 0.174885 19.8731 0.390625 19.8731C0.606365 19.8731 0.78125 20.048 0.78125 20.2637Z" fill="#DC2434"/>
<path d="M24.6083 16.9433H22.0691V17.7246H24.6083C24.7478 17.7246 24.8767 17.6501 24.9466 17.5293C25.0163 17.4084 25.0163 17.2595 24.9466 17.1386C24.8767 17.0178 24.7478 16.9433 24.6083 16.9433V16.9433Z" fill="#DC2434"/>
<path d="M0.3906 17.7246H2.92977V16.9433H0.3906C0.251033 16.9433 0.12212 17.0178 0.0523078 17.1386C-0.0174359 17.2595 -0.0174359 17.4084 0.0523078 17.5293C0.122133 17.6501 0.251039 17.7246 0.3906 17.7246Z" fill="#DC2434"/>
<path d="M24.6081 22.6562H0.389379C0.249812 22.6562 0.1209 22.7307 0.0510871 22.8516C-0.0186566 22.9724 -0.0186566 23.1213 0.0510871 23.2422C0.120912 23.363 0.249818 23.4375 0.389379 23.4375H24.6081C24.7477 23.4375 24.8766 23.363 24.9464 23.2422C25.0162 23.1213 25.0162 22.9724 24.9464 22.8516C24.8766 22.7307 24.7477 22.6562 24.6081 22.6562Z" fill="#DC2434"/>
<path d="M14.6782 3.37353L12.5 5.35228L10.3219 3.37353C10.2474 3.30517 10.1488 3.26912 10.0477 3.27327C9.94675 3.27742 9.85145 3.32137 9.78276 3.39551L8.51672 4.7439L8.3455 4.59693H8.34558C8.27014 4.53166 8.17224 4.49846 8.0727 4.50432C7.97309 4.51026 7.87983 4.55486 7.81262 4.62858L6.94364 5.56844V5.56836C6.87211 5.64664 6.83353 5.74959 6.83605 5.85554C6.8385 5.96158 6.88187 6.06258 6.95715 6.13736C7.03112 6.21084 7.13195 6.25088 7.23621 6.24828C7.34047 6.24567 7.43917 6.20059 7.5094 6.12352L8.12625 5.45638L8.29536 5.60148H8.29528C8.37031 5.66642 8.46764 5.69962 8.56667 5.69417C8.66571 5.68863 8.75873 5.64493 8.82611 5.5721L10.085 4.23137L12.2417 6.19076C12.2469 6.19557 12.2529 6.19882 12.2583 6.2033C12.2668 6.21021 12.2753 6.21672 12.2843 6.22291V6.22283C12.2976 6.23186 12.3115 6.24008 12.3258 6.2474C12.3346 6.25188 12.3431 6.2566 12.3521 6.26034V6.26043C12.3684 6.26718 12.3853 6.27271 12.4025 6.27711C12.4099 6.27906 12.4171 6.28183 12.4247 6.28329C12.4494 6.2885 12.4746 6.29119 12.4999 6.29135H12.5002C12.5255 6.29119 12.5507 6.2885 12.5754 6.28329C12.583 6.28175 12.5901 6.27906 12.5976 6.27711C12.6148 6.27271 12.6316 6.2671 12.648 6.26043C12.657 6.2566 12.6656 6.25196 12.6743 6.24749V6.2474C12.6886 6.24008 12.7024 6.23186 12.7158 6.22283C12.7247 6.21672 12.7333 6.21021 12.7418 6.20321C12.7473 6.19874 12.7532 6.19548 12.7584 6.19068L14.9151 4.23137L16.174 5.5721H16.1739C16.2413 5.64485 16.3344 5.68855 16.4334 5.69401C16.5324 5.69946 16.6297 5.66634 16.7047 5.60148L16.8738 5.45638L17.4907 6.12352H17.4906C17.5608 6.20059 17.6595 6.24568 17.7638 6.24828C17.868 6.25088 17.9689 6.21084 18.0429 6.13736C18.1181 6.06257 18.1615 5.96158 18.164 5.85555C18.1664 5.74951 18.1279 5.64665 18.0563 5.56836L17.1874 4.6285V4.62859C17.1202 4.55477 17.0269 4.51018 16.9274 4.50424C16.8277 4.49838 16.7298 4.53158 16.6544 4.59693L16.4832 4.7439L15.2171 3.39551H15.2172C15.1485 3.32137 15.0532 3.27742 14.9522 3.27327C14.8512 3.26912 14.7526 3.30517 14.6781 3.37353H14.6782Z" fill="#DC2434"/>
<path d="M21.2896 15.6169C21.2897 15.3536 21.2137 15.0959 21.0706 14.8749L19.1455 11.8961C18.8584 11.4498 18.3638 11.1805 17.8332 11.1817H16.0126C16.013 11.1698 16.0161 11.1586 16.0161 11.1466V10.4355C16.0159 10.2191 15.9298 10.0116 15.7768 9.85852C15.6237 9.70552 15.4162 9.61941 15.1998 9.61918H14.649V8.7856C14.6487 8.59232 14.5719 8.4071 14.4353 8.27039C14.2985 8.13376 14.1133 8.05693 13.9201 8.05668H13.0865V8.83793H13.8677V9.61918H13.0865V10.4004H15.1998C15.2192 10.4004 15.2349 10.4161 15.2349 10.4355V11.1466C15.2349 11.166 15.2192 11.1817 15.1998 11.1817H12.3052V7.86127C12.3052 7.72171 12.2308 7.59279 12.1099 7.52298C11.9891 7.45324 11.8401 7.45324 11.7193 7.52298C11.5984 7.59281 11.524 7.72171 11.524 7.86127V11.1817H8.62939C8.61002 11.1817 8.59431 11.166 8.59431 11.1466V10.4355C8.59431 10.4161 8.61002 10.4004 8.62939 10.4004H10.7427V9.61918H9.96147V8.83793H10.7427V8.05668H9.90914C9.71586 8.05693 9.53064 8.13375 9.39393 8.27039C9.25729 8.40711 9.18047 8.59233 9.18022 8.7856V9.61918H8.62937C8.41297 9.61943 8.20545 9.70553 8.05239 9.85852C7.89939 10.0116 7.81328 10.2191 7.81305 10.4355V11.1466C7.81305 11.1586 7.81606 11.1698 7.81663 11.1817H5.27393C4.8597 11.1822 4.46249 11.347 4.16959 11.6398C3.8767 11.9327 3.7119 12.3299 3.71143 12.7442V17.8223C3.71191 18.2365 3.87671 18.6337 4.16959 18.9266C4.46249 19.2195 4.8597 19.3843 5.27393 19.3848H6.10661C6.22234 19.8351 6.5328 20.2103 6.95345 20.4082C7.37418 20.6062 7.86116 20.6062 8.28191 20.4082C8.70255 20.2103 9.01303 19.8351 9.12874 19.3848H15.4817C15.5974 19.8351 15.9078 20.2103 16.3285 20.4082C16.7492 20.6062 17.2362 20.6062 17.6569 20.4082C18.0776 20.2103 18.3881 19.8351 18.5038 19.3848H20.3221C20.5792 19.3839 20.8255 19.281 21.0069 19.0988C21.1883 18.9165 21.2899 18.6697 21.2896 18.4126L21.2896 15.6169ZM7.6177 19.7754C7.41051 19.7754 7.21179 19.6932 7.06529 19.5466C6.91872 19.4001 6.83645 19.2014 6.83645 18.9942C6.83645 18.787 6.91873 18.5883 7.06529 18.4418C7.21177 18.2952 7.41049 18.2129 7.6177 18.2129C7.82491 18.2129 8.02362 18.2952 8.17012 18.4418C8.31668 18.5882 8.39895 18.787 8.39895 18.9942C8.39871 19.2013 8.31635 19.3999 8.16987 19.5463C8.02338 19.6928 7.82483 19.7752 7.6177 19.7754ZM16.9927 19.7754C16.7855 19.7754 16.5868 19.6932 16.4403 19.5466C16.2937 19.4001 16.2115 19.2014 16.2115 18.9942C16.2115 18.787 16.2937 18.5883 16.4403 18.4418C16.5868 18.2952 16.7855 18.2129 16.9927 18.2129C17.1999 18.2129 17.3986 18.2952 17.5451 18.4418C17.6917 18.5882 17.774 18.787 17.774 18.9942C17.7737 19.2013 17.6914 19.3999 17.5449 19.5463C17.3984 19.6928 17.1998 19.7752 16.9927 19.7754ZM20.5083 18.4126C20.5095 18.5166 20.4262 18.6021 20.322 18.6036H18.5038C18.3881 18.1533 18.0776 17.778 17.6569 17.5801C17.2362 17.3822 16.7492 17.3822 16.3285 17.5801C15.9078 17.778 15.5974 18.1533 15.4817 18.6036H9.12873C9.01301 18.1533 8.70255 17.778 8.2819 17.5801C7.86117 17.3822 7.37419 17.3822 6.95344 17.5801C6.5328 17.778 6.22232 18.1533 6.10661 18.6036H5.27392C5.06681 18.6033 4.86824 18.521 4.72176 18.3745C4.57528 18.228 4.49292 18.0294 4.49267 17.8223V16.683H20.5083L20.5083 18.4126ZM20.5083 15.9017H4.4927V12.7442C4.49295 12.5371 4.5753 12.3385 4.72178 12.1921C4.86827 12.0456 5.06683 11.9632 5.27395 11.963H17.8331C18.0983 11.9624 18.3457 12.097 18.4892 12.3202L20.4145 15.2991V15.299C20.4758 15.3938 20.5083 15.5042 20.5082 15.617L20.5083 15.9017Z" fill="#DC2434"/>
<path d="M18.8889 14.3792L18.005 13.0123V13.0122C17.8974 12.8448 17.7119 12.7438 17.5129 12.7442H16.4063C16.2509 12.7443 16.102 12.8061 15.9921 12.916C15.8822 13.0258 15.8205 13.1748 15.8203 13.3301V14.6973C15.8205 14.8527 15.8822 15.0016 15.9921 15.1114C16.102 15.2213 16.2509 15.2831 16.4063 15.2832H18.397C18.5381 15.2832 18.6745 15.2323 18.781 15.1398C18.8876 15.0473 18.9572 14.9194 18.9771 14.7797C18.9969 14.6399 18.9657 14.4978 18.8891 14.3793L18.8889 14.3792ZM16.6016 14.502V13.5254H17.4066L18.0381 14.502H16.6016Z" fill="#DC2434"/>
<path d="M14.1601 12.5487H13.1836C12.9506 12.549 12.7271 12.6417 12.5624 12.8065C12.3976 12.9712 12.3049 13.1947 12.3047 13.4276V14.4042C12.3049 14.6372 12.3976 14.8607 12.5624 15.0254C12.7271 15.1902 12.9506 15.2828 13.1836 15.2831H14.1601C14.3931 15.2828 14.6166 15.1902 14.7813 15.0254C14.9461 14.8606 15.0388 14.6372 15.039 14.4042V13.4276C15.0388 13.1946 14.9461 12.9712 14.7813 12.8065C14.6166 12.6417 14.3931 12.549 14.1601 12.5487ZM14.2578 14.4042C14.2578 14.4581 14.2141 14.5019 14.1601 14.5019H13.1836C13.1296 14.5019 13.0859 14.4581 13.0859 14.4042V13.4276C13.0859 13.3737 13.1296 13.33 13.1836 13.33H14.1601C14.2141 13.33 14.2578 13.3737 14.2578 13.4276V14.4042Z" fill="#DC2434"/>
<path d="M10.6445 12.5487H9.66796C9.43496 12.549 9.2115 12.6417 9.04679 12.8065C8.882 12.9712 8.78931 13.1947 8.78906 13.4276V14.4042C8.78931 14.6372 8.882 14.8607 9.04679 15.0254C9.2115 15.1902 9.43498 15.2828 9.66796 15.2831H10.6445C10.8775 15.2828 11.101 15.1902 11.2657 15.0254C11.4305 14.8606 11.5232 14.6372 11.5234 14.4042V13.4276C11.5232 13.1946 11.4305 12.9712 11.2657 12.8065C11.101 12.6417 10.8775 12.549 10.6445 12.5487ZM10.7422 14.4042C10.7422 14.4581 10.6985 14.5019 10.6445 14.5019H9.66796C9.614 14.5019 9.5703 14.4581 9.5703 14.4042V13.4276C9.5703 13.3737 9.614 13.33 9.66796 13.33H10.6445C10.6985 13.33 10.7422 13.3737 10.7422 13.4276V14.4042Z" fill="#DC2434"/>
<path d="M7.1289 12.5487H6.15233C5.91933 12.549 5.69587 12.6417 5.53117 12.8065C5.36637 12.9712 5.27369 13.1947 5.27344 13.4276V14.4042C5.27368 14.6372 5.36637 14.8607 5.53117 15.0254C5.69588 15.1902 5.91935 15.2828 6.15233 15.2831H7.1289C7.3619 15.2828 7.58535 15.1902 7.75006 15.0254C7.91486 14.8606 8.00754 14.6372 8.00779 14.4042V13.4276C8.00755 13.1946 7.91486 12.9712 7.75006 12.8065C7.58535 12.6417 7.36187 12.549 7.1289 12.5487ZM7.22655 14.4042C7.22655 14.4581 7.18285 14.5019 7.1289 14.5019H6.15233C6.09838 14.5019 6.05468 14.4581 6.05468 14.4042V13.4276C6.05468 13.3737 6.09838 13.33 6.15233 13.33H7.1289C7.18285 13.33 7.22655 13.3737 7.22655 13.4276V14.4042Z" fill="#DC2434"/>
<path d="M6.93466 1.68372L4.62466 4.11684L4.15868 3.66055C4.08691 3.58959 3.98998 3.54979 3.88908 3.54995C3.78809 3.55012 3.69124 3.59016 3.61971 3.66137L0.120538 7.10741C0.0454239 7.18236 0.0022114 7.28335 -0.000149015 7.38939C-0.00242777 7.49542 0.0363093 7.59828 0.108005 7.67641C0.178399 7.75339 0.277113 7.79823 0.381359 7.80067C0.485688 7.80312 0.586355 7.76291 0.660255 7.68926L3.89026 4.50843L4.36544 4.97376L4.36552 4.97384C4.43893 5.04652 4.53862 5.08647 4.6419 5.08452C4.74517 5.08257 4.84332 5.03895 4.91388 4.96351L7.22075 2.53351L8.39727 3.71368L8.9404 3.13513L7.48646 1.67672C7.41338 1.6025 7.3132 1.56132 7.20913 1.56262C7.10496 1.564 7.00592 1.60771 6.93471 1.68372L6.93466 1.68372Z" fill="#DC2434"/>
<path d="M24.6105 8.20312C24.7072 8.20304 24.8002 8.16642 24.8708 8.1005C24.9483 8.02807 24.9948 7.92846 25.0005 7.82259C25.0062 7.71671 24.9707 7.61271 24.9015 7.53229L21.559 3.68375C21.4896 3.60319 21.3901 3.55476 21.2838 3.54996C21.1775 3.54541 21.0742 3.58544 20.9988 3.6604L20.5328 4.11669L18.2228 1.68356C18.1517 1.60755 18.0526 1.56385 17.9485 1.56247C17.8443 1.56117 17.7442 1.60235 17.6711 1.67656L16.1365 3.21596L16.623 3.73419C16.6701 3.72231 16.7178 3.71352 16.766 3.70782L17.9368 2.53343L20.2435 4.96322C20.3141 5.03866 20.4122 5.08236 20.5155 5.08431C20.6188 5.08627 20.7185 5.04631 20.7919 4.97355L21.2451 4.52962L24.3191 8.06899C24.392 8.15395 24.4983 8.20294 24.6103 8.20311L24.6105 8.20312Z" fill="#DC2434"/>
</g>
<defs>
<clipPath id="clip0_65_1286">
<rect width="25" height="25" fill="white"/>
</clipPath>
</defs>
</svg>
