<svg id="Layer_1" data-name="Layer 1" xmlns="http://www.w3.org/2000/svg" viewBox="0 0 64 64"><defs><style>.cls-1{fill:#dfe8f4;}.cls-2{fill:#ff5454;}.cls-3{fill:#fff;}.cls-4{fill:#dd1515;}</style></defs><title>digital marketing, marketing, content marketing, like, photo, gallery</title><rect class="cls-1" x="16.83" y="8" width="39.17" height="39.17" rx="4.11"/><path class="cls-2" d="M56,43.05V33.73L52.31,30a4.2,4.2,0,0,0-5.94,0h0a4.2,4.2,0,0,1-5.94,0L33.2,22.82a4.2,4.2,0,0,0-5.94,0L16.83,33.25v9.8A4.13,4.13,0,0,0,21,47.17H51.89A4.12,4.12,0,0,0,56,43.05Z"/><path class="cls-3" d="M48.23,19.23a3.81,3.81,0,1,1-3.81-3.82A3.82,3.82,0,0,1,48.23,19.23Z"/><circle class="cls-4" cx="20" cy="44" r="12"/><path class="cls-3" d="M21.36,41a.25.25,0,0,1-.24-.29l.29-1.55a2.61,2.61,0,0,0,.05-.48v0A2.28,2.28,0,0,0,20,36.51h0a.46.46,0,0,0-.63.43h0a5.71,5.71,0,0,1-.69,2.71h0a4,4,0,0,1-3.54,2.09H13.37v7.07h1.75a6.91,6.91,0,0,1,2.21.36h0a7.26,7.26,0,0,0,2.22.35h4a3.55,3.55,0,0,0,3.53-3.11l.48-3.79A1.48,1.48,0,0,0,26.09,41Z"/><path class="cls-2" d="M13.51,41.49h1.22a.31.31,0,0,1,.31.31V48.9a.22.22,0,0,1-.22.22h-.65a1.74,1.74,0,0,1-1.74-1.74V42.57A1.08,1.08,0,0,1,13.51,41.49Z"/></svg>