<svg id="Layer_1" data-name="Layer 1" xmlns="http://www.w3.org/2000/svg" viewBox="0 0 64 64"><defs><style>.cls-1{fill:#dfe8f4;}.cls-2{fill:#ccd8e5;}.cls-3{fill:#fff;}.cls-4{fill:#ff5454;}</style></defs><title>digital marketing, marketing, content marketing, present, presentation, presentor</title><path class="cls-1" d="M8.83,11.49H36.27a0,0,0,0,1,0,0V29.06A1.93,1.93,0,0,1,34.34,31H10.76a1.92,1.92,0,0,1-1.92-1.92V11.49A0,0,0,0,1,8.83,11.49Z"/><rect class="cls-2" x="8.83" y="11.49" width="27.44" height="1.31"/><circle class="cls-2" cx="22.55" cy="9.54" r="1.54"/><rect class="cls-1" x="8" y="9.36" width="29.1" height="2.43" rx="0.54"/><path class="cls-2" d="M20.42,35a2.13,2.13,0,0,0,2.16,2.12,2.13,2.13,0,0,0,1-4,.45.45,0,0,1-.25-.41V31H21.77V32.7a.48.48,0,0,1-.25.42A2.13,2.13,0,0,0,20.42,35Zm2.13.56a.57.57,0,1,1,.57-.56A.56.56,0,0,1,22.55,35.54Z"/><path class="cls-2" d="M36.27,29.06V24.45l-3-3-4.21,4.21L22.42,19,14,27.42,11.49,24.9,8.83,27.55v1.51A1.93,1.93,0,0,0,10.76,31H34.34A1.92,1.92,0,0,0,36.27,29.06Z"/><polygon class="cls-3" points="36.27 24.02 33.28 21.02 29.07 25.23 22.42 18.58 14.01 26.99 11.49 24.47 8.83 27.13 8.83 27.98 11.49 25.33 14.01 27.85 22.42 19.44 29.07 26.09 33.28 21.88 36.27 24.88 36.27 24.02"/><path class="cls-4" d="M12.09,24.88a.64.64,0,0,1-1.28,0,.64.64,0,0,1,.64-.64A.64.64,0,0,1,12.09,24.88Z"/><path class="cls-4" d="M23,19a.64.64,0,0,1-.64.64A.64.64,0,1,1,23,19Z"/><circle class="cls-4" cx="33.3" cy="21.51" r="0.64"/><path class="cls-4" d="M52.52,14.08V11.89a3.72,3.72,0,0,0-1.86-3.22h0a3.72,3.72,0,0,0-3.71,0h0a3.74,3.74,0,0,0-1.85,3.22v2.19a3.24,3.24,0,0,0,1.63,2.81h0a4.13,4.13,0,0,0,4.16,0h0A3.24,3.24,0,0,0,52.52,14.08Z"/><path class="cls-4" d="M48.67,18.76c-4.05,0-7.33,3.58-7.33,20.1H56C56,22.34,52.72,18.76,48.67,18.76Z"/><path class="cls-4" d="M42.58,56h0a1.25,1.25,0,0,1-1.24-1.25V38.86h6.21L43.8,55A1.25,1.25,0,0,1,42.58,56Z"/><path class="cls-4" d="M54.75,56h0A1.25,1.25,0,0,0,56,54.75V38.86H49.79L53.54,55A1.24,1.24,0,0,0,54.75,56Z"/><path class="cls-4" d="M48.67,18.76c-4.05,0-7.33,3.58-7.33,20.1V54.75A1.25,1.25,0,0,0,43.8,55L47.29,40a1.41,1.41,0,0,1,1.38-1.09h0A1.41,1.41,0,0,1,50.05,40L53.54,55A1.25,1.25,0,0,0,56,54.75V38.86C56,22.34,52.72,18.76,48.67,18.76Z"/><path class="cls-4" d="M39.45,26.21a.16.16,0,0,1-.24,0l-1.59-1.59a.86.86,0,0,0-1.24,0h0a.87.87,0,0,0-.16,1l2,3.6a3.33,3.33,0,0,0,4.33,1.44L45.1,29.5l.18-9.5Z"/></svg>