<svg id="Layer_1" data-name="Layer 1" xmlns="http://www.w3.org/2000/svg" viewBox="0 0 64 64"><defs><style>.cls-1{fill:#dfe8f4;}.cls-2{fill:#ccd8e5;}.cls-3{fill:#fff;}.cls-4{fill:#ff5454;}.cls-5{fill:#dd1515;}</style></defs><title>digital marketing, marketing, content marketing, launch, startup, multimedia</title><rect class="cls-1" x="8" y="16.17" width="48" height="39.83" rx="3.85"/><path class="cls-1" d="M52.15,16.17H11.85A3.85,3.85,0,0,0,8,20V48.08H56V20A3.85,3.85,0,0,0,52.15,16.17Z"/><path class="cls-2" d="M8,48.08v4.07A3.86,3.86,0,0,0,11.85,56h40.3A3.86,3.86,0,0,0,56,52.15V48.08Z"/><rect class="cls-3" x="17.56" y="51.1" width="28.88" height="1.89" rx="0.49"/><path class="cls-4" d="M40.47,51.1H18.05a.49.49,0,0,0-.49.49v.9a.49.49,0,0,0,.49.49H40.47Z"/><rect class="cls-5" x="38.7" y="51.1" width="1.77" height="1.89"/><path class="cls-3" d="M36.07,44h0A2,2,0,0,1,34,42.32L33.2,37H30.8l-.75,5.3A2.1,2.1,0,0,1,28,44h0a5.27,5.27,0,0,0-.56,0c-2.37.34-2,3.94.4,3.94h8.37c2.39,0,2.77-3.6.4-3.94A5.27,5.27,0,0,0,36.07,44Z"/><path class="cls-5" d="M27.8,34.8l-2.59,2.76a3.16,3.16,0,0,0-.75,2.92l.23.87h.69l.3-.78a3.11,3.11,0,0,1,2-1.9l2.66-.81Z"/><path class="cls-5" d="M36.2,34.8l2.59,2.76a3.16,3.16,0,0,1,.75,2.92l-.23.87h-.69l-.3-.78a3.11,3.11,0,0,0-2-1.9l-2.66-.81Z"/><path class="cls-4" d="M32.43,11a.64.64,0,0,0-.86,0A21.24,21.24,0,0,0,28.1,38.24a.62.62,0,0,0,.39.26,19.41,19.41,0,0,0,7,0,.62.62,0,0,0,.39-.26A21.24,21.24,0,0,0,32.43,11Z"/><circle class="cls-3" cx="32" cy="24.09" r="2.64"/><path class="cls-5" d="M32.47,41.35h-.94a.27.27,0,0,1-.25-.22l-.53-4.21A1.26,1.26,0,0,1,32,35.49h0a1.26,1.26,0,0,1,1.25,1.43l-.53,4.21A.27.27,0,0,1,32.47,41.35Z"/><path class="cls-5" d="M32,16.64a25.16,25.16,0,0,0,4.59-.42A21.85,21.85,0,0,0,32.43,11a.64.64,0,0,0-.86,0,21.85,21.85,0,0,0-4.16,5.25A25.16,25.16,0,0,0,32,16.64Z"/></svg>