<svg id="Layer_1" data-name="Layer 1" xmlns="http://www.w3.org/2000/svg" viewBox="0 0 64 64"><defs><style>.cls-1{fill:#FC0707;}.cls-2{fill:#e5cccc;}.cls-3{fill:#F4DFDF;}.cls-4{fill:#DD1515;}</style></defs><title>digital marketing, marketing, content marketing, graph, chart, arrow, up</title><rect class="cls-1" x="10.79" y="39.55" width="8.67" height="14.45" rx="0.71"/><rect class="cls-2" x="22.04" y="29.04" width="8.67" height="24.96" rx="0.71"/><rect class="cls-3" x="33.29" y="18.52" width="8.67" height="35.48" rx="0.71"/><rect class="cls-2" x="44.54" y="8" width="8.67" height="46" rx="0.71"/><rect class="cls-1" x="8" y="52" width="48" height="4" rx="0.9"/><path class="cls-4" d="M19.64,9.4h2.21a.44.44,0,0,1,.44.44v25a0,0,0,0,1,0,0H19.2a0,0,0,0,1,0,0v-25A.44.44,0,0,1,19.64,9.4Z" transform="translate(19.77 52.4) rotate(-135)"/><path class="cls-1" d="M32.36,10.85l-.89,4.69a.31.31,0,0,1-.53.16l-3.79-3.79a.31.31,0,0,1,.16-.53L32,10.49A.31.31,0,0,1,32.36,10.85Z"/></svg>