<svg id="Layer_1" data-name="Layer 1" xmlns="http://www.w3.org/2000/svg" viewBox="0 0 64 64"><defs><style>.cls-1{fill:#ff5454;}.cls-2{fill:#ccd8e5;}.cls-3{fill:#dfe8f4;}</style></defs><title>digital marketing, marketing, content marketing, graph, arrow, up, person</title><path class="cls-1" d="M22.22,15.61h1.69a.34.34,0,0,1,.34.34V35.07a0,0,0,0,1,0,0H21.88a0,0,0,0,1,0,0V15.95A.34.34,0,0,1,22.22,15.61Z" transform="translate(46.12 50.68) rotate(180)"/><path class="cls-1" d="M23.26,13l2,3a.23.23,0,0,1-.19.37H21a.24.24,0,0,1-.2-.37l2.06-3A.24.24,0,0,1,23.26,13Z"/><path class="cls-1" d="M33.21,34H34.9a.34.34,0,0,1,.34.34V53.49a0,0,0,0,1,0,0H32.87a0,0,0,0,1,0,0V34.36A.34.34,0,0,1,33.21,34Z" transform="translate(68.1 87.51) rotate(180)"/><path class="cls-1" d="M34.25,31.37l2,3a.23.23,0,0,1-.19.37H32a.23.23,0,0,1-.2-.37l2.05-3A.24.24,0,0,1,34.25,31.37Z"/><path class="cls-1" d="M52.52,14.08V11.89a3.72,3.72,0,0,0-1.86-3.22h0a3.72,3.72,0,0,0-3.71,0h0a3.74,3.74,0,0,0-1.85,3.22v2.19a3.24,3.24,0,0,0,1.63,2.81h0a4.13,4.13,0,0,0,4.16,0h0A3.24,3.24,0,0,0,52.52,14.08Z"/><path class="cls-1" d="M48.67,18.76c-4.05,0-7.33,3.58-7.33,20.1H56C56,22.34,52.72,18.76,48.67,18.76Z"/><path class="cls-1" d="M42.58,56h0a1.25,1.25,0,0,1-1.24-1.25V38.86h6.21L43.8,55A1.25,1.25,0,0,1,42.58,56Z"/><path class="cls-1" d="M54.75,56h0A1.25,1.25,0,0,0,56,54.75V38.86H49.79L53.54,55A1.24,1.24,0,0,0,54.75,56Z"/><path class="cls-1" d="M48.67,18.76c-4.05,0-7.33,3.58-7.33,20.1V54.75A1.25,1.25,0,0,0,43.8,55L47.29,40a1.41,1.41,0,0,1,1.38-1.09h0A1.41,1.41,0,0,1,50.05,40L53.54,55A1.25,1.25,0,0,0,56,54.75V38.86C56,22.34,52.72,18.76,48.67,18.76Z"/><path class="cls-2" d="M9.3,8h5.78a1.3,1.3,0,0,1,1.3,1.3V56a0,0,0,0,1,0,0H8a0,0,0,0,1,0,0V9.3A1.3,1.3,0,0,1,9.3,8Z"/><path class="cls-3" d="M20.17,26H26a1.3,1.3,0,0,1,1.3,1.3V56a0,0,0,0,1,0,0H18.87a0,0,0,0,1,0,0V27.3A1.3,1.3,0,0,1,20.17,26Z"/><path class="cls-3" d="M31,42.38h5.78a1.3,1.3,0,0,1,1.3,1.3V56a0,0,0,0,1,0,0H29.73a0,0,0,0,1,0,0V43.68A1.3,1.3,0,0,1,31,42.38Z"/></svg>