<svg id="Layer_1" data-name="Layer 1" xmlns="http://www.w3.org/2000/svg" viewBox="0 0 64 64"><defs><style>.cls-1{fill:#F4DFDF;}.cls-2{fill:#FC0707;}.cls-3{fill:#DD1515;}.cls-4{fill:#fff;}.cls-5{fill:#e5cccc;}</style></defs><title>digital marketing, marketing, content marketing, search, find, launch, startup</title><path class="cls-1" d="M55,54.93a3.66,3.66,0,0,1-5.16,0L38.73,43.86a3.65,3.65,0,0,1,5.16-5.16L55,49.76A3.67,3.67,0,0,1,55,54.93Z"/><path class="cls-2" d="M19.75,39.55a14.14,14.14,0,1,1,17.22,0A14.16,14.16,0,0,1,19.75,39.55Z"/><path class="cls-1" d="M54.88,49.7,49.17,44a7.71,7.71,0,0,1-1.83-8.21A20.41,20.41,0,1,0,35.76,47.32a7.81,7.81,0,0,1,8.29,1.87l5.74,5.74a3.65,3.65,0,0,0,5.64-.6A3.69,3.69,0,0,0,54.88,49.7ZM19.75,39.55a14.14,14.14,0,1,1,17.22,0A14.16,14.16,0,0,1,19.75,39.55Z"/><path class="cls-3" d="M51.48,46.29l-5.16,5.16,3.47,3.48A3.65,3.65,0,1,0,55,49.76Z"/><rect class="cls-2" x="46.03" y="48.55" width="7.3" height="2.21" transform="translate(-20.56 49.67) rotate(-45)"/><path class="cls-1" d="M25.44,34.41l-1.8,1.92a2.19,2.19,0,0,0-.52,2l.15.6h.49l.2-.54a2.16,2.16,0,0,1,1.41-1.32l1.85-.56Z"/><path class="cls-1" d="M31.29,34.41l1.8,1.92a2.19,2.19,0,0,1,.52,2l-.15.6H33l-.2-.54a2.16,2.16,0,0,0-1.41-1.32l-1.85-.56Z"/><path class="cls-4" d="M28.66,17.82a.44.44,0,0,0-.59,0,14.78,14.78,0,0,0-2.42,19,.42.42,0,0,0,.27.18,13.7,13.7,0,0,0,4.89,0,.42.42,0,0,0,.27-.18,14.78,14.78,0,0,0-2.42-19Z"/><path class="cls-1" d="M30.2,27a1.84,1.84,0,1,1-1.84-1.84A1.84,1.84,0,0,1,30.2,27Z"/><path class="cls-1" d="M28.69,39H28a.17.17,0,0,1-.18-.15l-.37-2.93a.87.87,0,0,1,.87-1h0a.89.89,0,0,1,.88,1l-.38,2.93A.16.16,0,0,1,28.69,39Z"/><path class="cls-5" d="M28.36,21.76a17.61,17.61,0,0,0,3.2-.29,14.68,14.68,0,0,0-2.9-3.65.44.44,0,0,0-.59,0,14.68,14.68,0,0,0-2.9,3.65A17.58,17.58,0,0,0,28.36,21.76Z"/></svg>