<svg id="Layer_1" data-name="Layer 1" xmlns="http://www.w3.org/2000/svg" viewBox="0 0 64 64"><defs><style>.cls-1{fill:#FC0707;}.cls-2{fill:#DD1515;}.cls-3{fill:#F4DFDF;}</style></defs><title>digital marketing, marketing, content marketing, email, protection, shield, safety</title><path class="cls-1" d="M32,7.92a8.35,8.35,0,0,0-2.22.29L14.56,12.33a2.4,2.4,0,0,0-1.77,2.32V40.18a7.94,7.94,0,0,0,3.9,6.8c1.76,1.06,3.62,2.3,5.5,3.7,1.45,1.08,2.8,2.17,4,3.24a8.79,8.79,0,0,0,11.54,0c1.24-1.07,2.59-2.16,4-3.24,1.88-1.4,3.74-2.64,5.5-3.7a7.93,7.93,0,0,0,3.9-6.79V14.64a2.39,2.39,0,0,0-1.77-2.31L34.22,8.21A8.35,8.35,0,0,0,32,7.92Z"/><path class="cls-2" d="M32,15.92l0,0L21.57,18.72a1.06,1.06,0,0,0-.78,1V38.87a2.21,2.21,0,0,0,1.05,1.88C23.56,41.82,25.27,43,27,44.26s3.09,2.39,4.51,3.62a.74.74,0,0,0,.52.2Z"/><path class="cls-2" d="M32,15.92l0,0,10.41,2.82a1.06,1.06,0,0,1,.78,1V38.87a2.21,2.21,0,0,1-1.05,1.88C40.44,41.82,38.73,43,37,44.26s-3.09,2.39-4.51,3.62a.74.74,0,0,1-.52.2Z"/><path class="cls-3" d="M32,35.41A3.41,3.41,0,1,1,35.41,32,3.41,3.41,0,0,1,32,35.41Zm0-4.82A1.41,1.41,0,1,0,33.41,32,1.41,1.41,0,0,0,32,30.59Z"/><path class="cls-3" d="M32,39.81A7.81,7.81,0,1,1,39.81,32a1,1,0,0,1-2,0,5.8,5.8,0,1,0-2.39,4.7,1,1,0,1,1,1.18,1.62A7.73,7.73,0,0,1,32,39.81Z"/><path class="cls-3" d="M36.61,35.41A3.21,3.21,0,0,1,33.4,32.2l2-.06v.06a1.21,1.21,0,1,0,2.41,0V32h2v.2A3.21,3.21,0,0,1,36.61,35.41Z"/></svg>