<svg id="Layer_1" data-name="Layer 1" xmlns="http://www.w3.org/2000/svg" viewBox="0 0 64 64"><defs><style>.cls-1{fill:#ff5454;}.cls-2{fill:#dd1515;}.cls-3{fill:#dfe8f4;}.cls-4{fill:#fff;}</style></defs><title>digital marketing, marketing, content marketing, money, finance</title><path class="cls-1" d="M8,48.09v5.68c0,1.35,5.36,2.45,12,2.45s12-1.1,12-2.45V48.09Z"/><path class="cls-2" d="M32,48.09c0,1.35-5.36,2.45-12,2.45S8,49.44,8,48.09s5.36-2.45,12-2.45S32,46.73,32,48.09Z"/><path class="cls-1" d="M8,40v5.68C8,47,13.4,48.09,20,48.09S32,47,32,45.64V40Z"/><path class="cls-2" d="M32,40c0,1.35-5.36,2.45-12,2.45S8,41.31,8,40s5.36-2.45,12-2.45S32,38.6,32,40Z"/><path class="cls-1" d="M8,31.83v5.68C8,38.86,13.4,40,20,40s12-1.1,12-2.45V31.83Z"/><ellipse class="cls-2" cx="20" cy="31.83" rx="11.96" ry="2.45"/><rect class="cls-3" x="20" y="17.8" width="36" height="21.87" rx="2.39"/><circle class="cls-1" cx="38" cy="28.74" r="6.42"/><path class="cls-4" d="M25.73,35.18a1.26,1.26,0,1,1-1.26-1.25A1.25,1.25,0,0,1,25.73,35.18Z"/><path class="cls-4" d="M52.78,22.3A1.26,1.26,0,1,1,51.53,21,1.25,1.25,0,0,1,52.78,22.3Z"/></svg>