<svg id="Layer_1" data-name="Layer 1" xmlns="http://www.w3.org/2000/svg" viewBox="0 0 64 64"><defs><style>.cls-1{fill:#ff5454;}.cls-2{fill:#ccd8e5;}.cls-3{fill:#dfe8f4;}</style></defs><title>digital marketing, marketing, content marketing, anchor</title><path class="cls-1" d="M38.82,14.89A6.83,6.83,0,0,0,31.9,8.07a6.91,6.91,0,0,0-6.72,6.74,6.82,6.82,0,0,0,3.54,6,1.53,1.53,0,0,1,.78,1.34v5.48h5V22.2a1.53,1.53,0,0,1,.8-1.34A6.82,6.82,0,0,0,38.82,14.89ZM32,13.07a1.82,1.82,0,1,1-1.82,1.82A1.83,1.83,0,0,1,32,13.07Z"/><rect class="cls-2" x="22.94" y="24.5" width="18.12" height="5" rx="1.13"/><path class="cls-2" d="M34.5,53.42h-5V32.78a.78.78,0,0,1,.78-.78h3.44a.78.78,0,0,1,.78.78Z"/><path class="cls-3" d="M41.14,38.3l2,2a11.2,11.2,0,0,1-22.36,0l2-2a.34.34,0,0,0,0-.48L17,31.93a.69.69,0,0,0-1.18.49v6.83c0,8.72,6.68,16.22,15.38,16.65a16.22,16.22,0,0,0,17-16.18v-7.3A.69.69,0,0,0,47,31.93l-5.88,5.89A.34.34,0,0,0,41.14,38.3Z"/></svg>