<svg id="Layer_1" data-name="Layer 1" xmlns="http://www.w3.org/2000/svg" viewBox="0 0 64 64"><defs><style>.cls-1{fill:#FC0707;}.cls-2{fill:#DD1515;}</style></defs><title>digital marketing, marketing, content marketing, target, audience</title><path class="cls-1" d="M32,13A19,19,0,1,1,13,32,19,19,0,0,1,32,13m0-5A24,24,0,1,0,56,32,24,24,0,0,0,32,8Z"/><rect class="cls-1" x="30.83" y="10.33" width="2.33" height="5.83"/><rect class="cls-1" x="30.83" y="47.83" width="2.33" height="5.83"/><rect class="cls-1" x="49.58" y="29.08" width="2.33" height="5.83" transform="translate(82.75 -18.75) rotate(90)"/><rect class="cls-1" x="12.08" y="29.08" width="2.33" height="5.83" transform="translate(45.25 18.75) rotate(90)"/><circle class="cls-2" cx="32" cy="32" r="11.01"/><path class="cls-1" d="M36.05,30.84V29a4.07,4.07,0,0,0-2-3.51h0a4.09,4.09,0,0,0-4.06,0h0A4.07,4.07,0,0,0,28,29v1.82a3.56,3.56,0,0,0,1.77,3.08h0a4.58,4.58,0,0,0,4.56,0h0A3.56,3.56,0,0,0,36.05,30.84Z"/><path class="cls-1" d="M32,43a11,11,0,0,0,7.58-3,8.85,8.85,0,0,0-15.16,0A11,11,0,0,0,32,43Z"/></svg>