<svg id="Layer_1" data-name="Layer 1" xmlns="http://www.w3.org/2000/svg" viewBox="0 0 64 64"><defs><style>.cls-1{fill:#dd1515;}.cls-2{fill:#dfe8f4;}.cls-3{fill:#ccd8e5;}.cls-4{fill:#ff5454;}.cls-5{fill:#fff;}</style></defs><title>digital marketing, marketing, content marketing, idea, thought</title><circle class="cls-1" cx="32" cy="52.09" r="3.91"/><path class="cls-2" d="M51.06,27.06A19.06,19.06,0,1,0,19.91,41.77a11,11,0,0,1,4,8.49v1.19a2.72,2.72,0,0,0,2.73,2.72H37.33a2.72,2.72,0,0,0,2.73-2.72V50.26a10.94,10.94,0,0,1,4-8.47A19,19,0,0,0,51.06,27.06Z"/><path class="cls-3" d="M40.86,25.51,23.54,33.85l4.35,4.35A13.84,13.84,0,0,1,31.94,48v6.19h5.39a2.72,2.72,0,0,0,2.73-2.72V50.26a11.09,11.09,0,0,1,4.11-8.55l.14-.13a8.37,8.37,0,0,0,.35-12.27Z"/><path class="cls-4" d="M23.88,49.1a11.12,11.12,0,0,1,.06,1.16v1.19a2.72,2.72,0,0,0,2.73,2.72H37.33a2.72,2.72,0,0,0,2.73-2.72V50.26a11.12,11.12,0,0,1,.06-1.16Z"/><path class="cls-5" d="M33.64,24.54a.3.3,0,0,1-.29-.35l.36-1.87a3.92,3.92,0,0,0,0-.59h0a2.74,2.74,0,0,0-1.71-2.55h0a.55.55,0,0,0-.76.51h0A6.8,6.8,0,0,1,30.45,23h0a4.85,4.85,0,0,1-4.27,2.54H24V34h2.13a8.38,8.38,0,0,1,2.67.43h0a8.63,8.63,0,0,0,2.67.43h4.84a4.29,4.29,0,0,0,4.26-3.76l.58-4.58a1.79,1.79,0,0,0-1.78-2Z"/><path class="cls-4" d="M24.16,25.18h1.47a.37.37,0,0,1,.37.37v8.59a.27.27,0,0,1-.27.27H25a2.1,2.1,0,0,1-2.1-2.1V26.48A1.31,1.31,0,0,1,24.16,25.18Z"/></svg>