<svg id="Layer_1" data-name="Layer 1" xmlns="http://www.w3.org/2000/svg" viewBox="0 0 64 64"><defs><style>.cls-1{fill:#dfe8f4;}.cls-2{fill:#ff5454;}.cls-3{fill:#dd1515;}.cls-4{fill:#fff;}</style></defs><title>digital marketing, marketing, content marketing, search, find, social, media</title><path class="cls-1" d="M55,54.93a3.66,3.66,0,0,1-5.16,0L38.73,43.86a3.65,3.65,0,0,1,5.16-5.16L55,49.76A3.67,3.67,0,0,1,55,54.93Z"/><path class="cls-2" d="M19.75,39.55a14.14,14.14,0,1,1,17.22,0A14.16,14.16,0,0,1,19.75,39.55Z"/><path class="cls-1" d="M54.88,49.7,49.17,44a7.71,7.71,0,0,1-1.83-8.21A20.41,20.41,0,1,0,35.76,47.32a7.81,7.81,0,0,1,8.29,1.87l5.74,5.74a3.65,3.65,0,0,0,5.64-.6A3.69,3.69,0,0,0,54.88,49.7ZM19.75,39.55a14.14,14.14,0,1,1,17.22,0A14.16,14.16,0,0,1,19.75,39.55Z"/><path class="cls-3" d="M51.48,46.29l-5.16,5.16,3.47,3.48A3.65,3.65,0,1,0,55,49.76Z"/><rect class="cls-2" x="46.03" y="48.55" width="7.3" height="2.21" transform="translate(-20.56 49.67) rotate(-45)"/><path class="cls-4" d="M29.72,26.3a.25.25,0,0,1-.24-.29l.3-1.55a2.63,2.63,0,0,0,0-.49h0a2.29,2.29,0,0,0-1.41-2.11h0a.47.47,0,0,0-.64.43h0A5.71,5.71,0,0,1,27.08,25h0a4,4,0,0,1-3.54,2.09H21.73v7.07h1.76a7,7,0,0,1,2.21.36h0a7.19,7.19,0,0,0,2.21.35h4a3.54,3.54,0,0,0,3.52-3.11L35.92,28a1.48,1.48,0,0,0-1.47-1.66Z"/><path class="cls-3" d="M21.88,26.82H23.1a.31.31,0,0,1,.31.31v7.11a.22.22,0,0,1-.22.22h-.65a1.74,1.74,0,0,1-1.74-1.74V27.91A1.08,1.08,0,0,1,21.88,26.82Z"/></svg>