<svg id="Layer_1" data-name="Layer 1" xmlns="http://www.w3.org/2000/svg" viewBox="0 0 64 64"><defs><style>.cls-1{fill:#ff5454;}.cls-2{fill:#dfe8f4;}.cls-3{fill:#dd1515;}</style></defs><title>digital marketing, marketing, content marketing, target, bullseye, arrow</title><path class="cls-1" d="M32,13A19,19,0,1,1,13,32,19,19,0,0,1,32,13m0-5A24,24,0,1,0,56,32,24,24,0,0,0,32,8Z"/><path class="cls-2" d="M32,25a7,7,0,1,1-7,7,7,7,0,0,1,7-7m0-5A12,12,0,1,0,44,32,12,12,0,0,0,32,20Z"/><path class="cls-1" d="M32,29.84A2.16,2.16,0,1,0,34.16,32,2.16,2.16,0,0,0,32,29.84Z"/><path class="cls-3" d="M14.58,50.92a1.53,1.53,0,0,1-1.06-.44,1.51,1.51,0,0,1,0-2.12L30.94,30.94a1.5,1.5,0,0,1,2.12,2.12L15.64,50.48A1.49,1.49,0,0,1,14.58,50.92Z"/><path class="cls-3" d="M18.18,45.82l-4.95,5L8.47,49.58a.53.53,0,0,1-.24-.88l3.91-3.91a1,1,0,0,1,.92-.25Z"/><path class="cls-3" d="M18.18,45.82l-4.95,5,1.19,4.76a.53.53,0,0,0,.88.24l3.91-3.91a1,1,0,0,0,.25-.92Z"/><path class="cls-3" d="M22,42,17,47l-4.76-1.19A.53.53,0,0,1,12,44.9L15.94,41a1,1,0,0,1,.92-.25Z"/><path class="cls-3" d="M22,42,17,47l1.19,4.76a.53.53,0,0,0,.88.24L23,48.06a1,1,0,0,0,.25-.92Z"/></svg>