<svg id="Layer_1" data-name="Layer 1" xmlns="http://www.w3.org/2000/svg" viewBox="0 0 64 64"><defs><style>.cls-1{fill:#FC0707;}.cls-2{fill:#F4DFDF;}.cls-3{fill:#fff;}.cls-4{fill:#DD1515;}</style></defs><title>digital marketing, marketing, content marketing, flag, laptop, computer</title><path class="cls-1" d="M9.13,50.67H54.87A1.13,1.13,0,0,1,56,51.8v.65A3.55,3.55,0,0,1,52.45,56H12.2A4.2,4.2,0,0,1,8,51.8v0a1.13,1.13,0,0,1,1.13-1.13Z"/><path class="cls-2" d="M48.79,24H15.21a3,3,0,0,0-3,3.05V50.67H24.28a2.3,2.3,0,0,1,1.95,1.07,2.3,2.3,0,0,0,1.95,1.07h7.64a2.3,2.3,0,0,0,2-1.07,2.3,2.3,0,0,1,1.95-1.07H51.83V27A3,3,0,0,0,48.79,24Z"/><path class="cls-3" d="M22.7,27.62A2.4,2.4,0,0,0,20.3,30V49.59a2.46,2.46,0,0,0,.26,1.08h3.72a2.33,2.33,0,0,1,.53.06,2.31,2.31,0,0,0,.3-1.14V30A2.41,2.41,0,0,0,22.7,27.62Z"/><path class="cls-1" d="M22.7,30.94H42.12a1.58,1.58,0,0,1,1.58,1.58V47.1a1.58,1.58,0,0,1-1.58,1.58H22.7a0,0,0,0,1,0,0V30.94A0,0,0,0,1,22.7,30.94Z"/><rect class="cls-4" x="22.7" y="34.35" width="21" height="4.67"/></svg>