<svg id="Layer_1" data-name="Layer 1" xmlns="http://www.w3.org/2000/svg" viewBox="0 0 64 64"><defs><style>.cls-1{fill:#FC0707;}.cls-2{fill:#F4DFDF;}.cls-3{fill:#fff;}.cls-4{fill:#DD1515;}.cls-5{fill:#e5cccc;}</style></defs><title>digital marketing, marketing, content marketing, launch, startup, laptop</title><path class="cls-1" d="M9.13,50.67H54.87A1.13,1.13,0,0,1,56,51.8v.65A3.55,3.55,0,0,1,52.45,56H11.55A3.55,3.55,0,0,1,8,52.45V51.8a1.13,1.13,0,0,1,1.13-1.13Z"/><path class="cls-2" d="M48.79,24H15.21a3,3,0,0,0-3,3.05V50.67H24.28a2.3,2.3,0,0,1,1.95,1.07,2.3,2.3,0,0,0,1.95,1.07h7.64a2.3,2.3,0,0,0,2-1.07,2.3,2.3,0,0,1,1.95-1.07H51.83V27A3,3,0,0,0,48.79,24Z"/><path class="cls-3" d="M37.77,51.74a2.3,2.3,0,0,1,1.95-1.07H51.78a7.61,7.61,0,0,0-13.43-2.39,5,5,0,0,0-1.5-.26h-.13a2.3,2.3,0,0,1-2.4-2l-.93-6.56H30.5l-.92,6.55a2.34,2.34,0,0,1-2.4,2h0a5,5,0,0,0-1.5.26,7.61,7.61,0,0,0-13.43,2.39H24.28a2.3,2.3,0,0,1,1.95,1.07,2.3,2.3,0,0,0,1.95,1.07h7.64A2.3,2.3,0,0,0,37.77,51.74Z"/><path class="cls-4" d="M26.89,36.9l-3.12,3.33a3.76,3.76,0,0,0-.9,3.53l.26,1H24l.36-.94a3.76,3.76,0,0,1,2.44-2.29l3.2-1Z"/><path class="cls-4" d="M37,36.9l3.12,3.33a3.76,3.76,0,0,1,.9,3.53l-.26,1h-.84l-.36-.94a3.76,3.76,0,0,0-2.44-2.29l-3.2-1Z"/><path class="cls-1" d="M32.46,8.2a.76.76,0,0,0-1,0,25.57,25.57,0,0,0-4.18,32.85.68.68,0,0,0,.46.31,23.19,23.19,0,0,0,8.47,0,.68.68,0,0,0,.46-.31A25.42,25.42,0,0,0,40.79,27.1,25.58,25.58,0,0,0,32.46,8.2Z"/><circle class="cls-2" cx="31.94" cy="24" r="3.18"/><circle class="cls-5" cx="31.94" cy="24" r="1.56"/><path class="cls-4" d="M32.51,44.8H31.38a.31.31,0,0,1-.3-.27l-.65-5.07a1.53,1.53,0,0,1,1.51-1.72h0a1.54,1.54,0,0,1,1.52,1.72l-.65,5.07A.31.31,0,0,1,32.51,44.8Z"/><path class="cls-4" d="M31.94,15a29.78,29.78,0,0,0,5.54-.5,25.91,25.91,0,0,0-5-6.32.76.76,0,0,0-1,0,25.91,25.91,0,0,0-5,6.32A29.75,29.75,0,0,0,31.94,15Z"/><path class="cls-3" d="M20.91,39.52a1.82,1.82,0,1,1-1.82-1.82A1.82,1.82,0,0,1,20.91,39.52Z"/><path class="cls-3" d="M13,43.32a.66.66,0,1,1-.65-.66A.65.65,0,0,1,13,43.32Z"/><circle class="cls-3" cx="13.43" cy="45.52" r="0.33"/><path class="cls-3" d="M17.15,43.32a.66.66,0,1,1-.65-.66A.65.65,0,0,1,17.15,43.32Z"/><path class="cls-3" d="M43.09,39.52a1.82,1.82,0,1,0,1.82-1.82A1.82,1.82,0,0,0,43.09,39.52Z"/><path class="cls-3" d="M51.05,43.32a.66.66,0,1,0,.65-.66A.65.65,0,0,0,51.05,43.32Z"/><circle class="cls-3" cx="50.57" cy="45.52" r="0.33"/><path class="cls-3" d="M46.85,43.32a.66.66,0,1,0,.65-.66A.65.65,0,0,0,46.85,43.32Z"/></svg>