<svg id="Layer_1" data-name="Layer 1" xmlns="http://www.w3.org/2000/svg" viewBox="0 0 64 64"><defs><style>.cls-1{fill:#FC0707;}.cls-2{fill:#fff;}.cls-3{fill:#e5cccc;}.cls-4{fill:#DD1515;}</style></defs><title>digital marketing, marketing, content marketing, announcement, megaphone, money, dollar</title><path class="cls-1" d="M35,18.56a2.79,2.79,0,0,0-1.71.59,16.93,16.93,0,0,1-6.65,2.73l-7.81,1.66a26.2,26.2,0,0,1-5.52.58h-3.1C9,24.12,8,27.3,8,31.22s1,7.09,2.25,7.09h0a3.14,3.14,0,0,1,2.88,1.89l1.95,4.49a3.06,3.06,0,0,0,2.8,1.84h0a.65.65,0,0,0,.2,0,.74.74,0,0,0,.14,0h0a2.07,2.07,0,0,0,2.07-2.12A10.7,10.7,0,0,1,20.42,43a3.5,3.5,0,0,1,4.19-2.91h0l3.42.73a12.6,12.6,0,0,1,5.26,2.44,2.79,2.79,0,0,0,1.71.59c3.5,0,5.07-6.36,5.07-12.66S38.54,18.56,35,18.56Zm.67,21A.73.73,0,0,1,35,40V22.45a.73.73,0,0,1,.67.44A22.41,22.41,0,0,1,37,31.22,22.39,22.39,0,0,1,35.71,39.54Z"/><ellipse class="cls-2" cx="35.47" cy="31.22" rx="3.82" ry="12.06"/><path class="cls-3" d="M35.47,45c-3.8,0-5.5-6.9-5.5-13.74s1.7-13.75,5.5-13.75S41,24.37,41,31.22,39.28,45,35.47,45Zm.73-22.79a.79.79,0,0,0-1.45,0,24.24,24.24,0,0,0-1.42,9,24.18,24.18,0,0,0,1.42,9,.79.79,0,0,0,1.45,0,24.44,24.44,0,0,0,1.41-9A24.5,24.5,0,0,0,36.2,22.17Z"/><circle class="cls-4" cx="45.73" cy="31.75" r="10.26"/><path class="cls-2" d="M45.78,30.84a.91.91,0,0,1-.9-.71.87.87,0,0,1,1.6-.6.89.89,0,0,0,.78.44h0a.91.91,0,0,0,.82-1.33,2.74,2.74,0,0,0-1.43-1.21h0a.85.85,0,0,0-.85-.85h-.13a.85.85,0,0,0-.85.85h0a2.73,2.73,0,0,0-1.56,3.66,2.77,2.77,0,0,0,2.52,1.58A.87.87,0,1,1,45,34a.89.89,0,0,0-.78-.44h0a.91.91,0,0,0-.81,1.33,2.67,2.67,0,0,0,1.43,1.21h0a.85.85,0,0,0,.85.85h.13a.85.85,0,0,0,.85-.85h0a2.7,2.7,0,0,0-.87-5.23Z"/></svg>