<svg id="Layer_1" data-name="Layer 1" xmlns="http://www.w3.org/2000/svg" viewBox="0 0 64 64"><defs><style>.cls-1{fill:#ff5454;}.cls-2{fill:#fff;}.cls-3{fill:#ccd8e5;}.cls-4{fill:#dfe8f4;}.cls-5{fill:none;}</style></defs><title>digital marketing, marketing, content marketing, settings, maintenance, gear</title><path class="cls-1" d="M49.79,32a15.81,15.81,0,0,0-.09-1.69A2.7,2.7,0,0,1,50.56,28L51.73,27a2.68,2.68,0,0,0,.52-3.32l-2.89-5a2.68,2.68,0,0,0-3.14-1.21l-1.49.49a2.66,2.66,0,0,1-2.35-.36,18.14,18.14,0,0,0-3.06-1.76A2.66,2.66,0,0,1,37.83,14L37.5,12.4a2.66,2.66,0,0,0-2.61-2.12H29.11A2.66,2.66,0,0,0,26.5,12.4L26.17,14a2.66,2.66,0,0,1-1.49,1.85,18.14,18.14,0,0,0-3.06,1.76,2.66,2.66,0,0,1-2.35.36l-1.49-.49a2.68,2.68,0,0,0-3.14,1.21l-2.89,5A2.68,2.68,0,0,0,12.27,27L13.44,28a2.7,2.7,0,0,1,.86,2.29,15.91,15.91,0,0,0,0,3.38A2.7,2.7,0,0,1,13.44,36L12.27,37a2.68,2.68,0,0,0-.52,3.32l2.89,5a2.68,2.68,0,0,0,3.14,1.21l1.48-.48a2.62,2.62,0,0,1,2.35.35,18.63,18.63,0,0,0,3.07,1.76,2.68,2.68,0,0,1,1.49,1.86l.33,1.54a2.66,2.66,0,0,0,2.61,2.12h5.78A2.66,2.66,0,0,0,37.5,51.6l.33-1.54a2.68,2.68,0,0,1,1.49-1.86,18.63,18.63,0,0,0,3.07-1.76,2.62,2.62,0,0,1,2.35-.35l1.48.48a2.68,2.68,0,0,0,3.14-1.21l2.89-5A2.68,2.68,0,0,0,51.73,37L50.56,36a2.7,2.7,0,0,1-.86-2.29A15.67,15.67,0,0,0,49.79,32Z"/><path class="cls-1" d="M49.79,32a15.81,15.81,0,0,0-.09-1.69A2.7,2.7,0,0,1,50.56,28L51.73,27a2.68,2.68,0,0,0,.52-3.32l-2.89-5a2.68,2.68,0,0,0-3.14-1.21l-1.49.49a2.66,2.66,0,0,1-2.35-.36,18.14,18.14,0,0,0-3.06-1.76A2.66,2.66,0,0,1,37.83,14L37.5,12.4a2.66,2.66,0,0,0-2.61-2.12H29.11A2.66,2.66,0,0,0,26.5,12.4L26.17,14a2.66,2.66,0,0,1-1.49,1.85,18.14,18.14,0,0,0-3.06,1.76,2.66,2.66,0,0,1-2.35.36l-1.49-.49a2.68,2.68,0,0,0-3.14,1.21l-2.89,5A2.68,2.68,0,0,0,12.27,27L13.44,28a2.7,2.7,0,0,1,.86,2.29,15.91,15.91,0,0,0,0,3.38A2.7,2.7,0,0,1,13.44,36L12.27,37a2.68,2.68,0,0,0-.52,3.32l2.89,5a2.68,2.68,0,0,0,3.14,1.21l1.48-.48a2.62,2.62,0,0,1,2.35.35,18.63,18.63,0,0,0,3.07,1.76,2.68,2.68,0,0,1,1.49,1.86l.33,1.54a2.66,2.66,0,0,0,2.61,2.12h5.78A2.66,2.66,0,0,0,37.5,51.6l.33-1.54a2.68,2.68,0,0,1,1.49-1.86,18.63,18.63,0,0,0,3.07-1.76,2.62,2.62,0,0,1,2.35-.35l1.48.48a2.68,2.68,0,0,0,3.14-1.21l2.89-5A2.68,2.68,0,0,0,51.73,37L50.56,36a2.7,2.7,0,0,1-.86-2.29A15.67,15.67,0,0,0,49.79,32Z"/><circle class="cls-2" cx="32" cy="32" r="6.34"/><path class="cls-3" d="M56.07,48.34a2.94,2.94,0,0,1-.68-.49l-12-12a3,3,0,0,1-.85-2.51A10.5,10.5,0,0,0,28.86,22.07a.87.87,0,0,0-.33,1.43l6.33,6.33a.92.92,0,0,1,.24.9l-.78,2.93a1,1,0,0,1-.66.66l-2.93.78a.92.92,0,0,1-.9-.24L23.5,28.53a.87.87,0,0,0-1.43.33A10.47,10.47,0,0,0,33.31,42.48a3,3,0,0,1,2.48.85l12,12a3.19,3.19,0,0,1,.51.71h0a7.73,7.73,0,0,0,7.73-7.73Z"/><path class="cls-4" d="M28.53,23.5l6.33,6.33a.92.92,0,0,1,.24.9l-.78,2.93a1,1,0,0,1-.66.66l-2.93.78a.92.92,0,0,1-.9-.24L23.5,28.53a.86.86,0,0,0-1.43.34,10.5,10.5,0,0,0,2.47,10.54,10.52,10.52,0,1,0,4.32-17.34A.87.87,0,0,0,28.53,23.5Z"/><path class="cls-4" d="M49.58,49.58h0a1.06,1.06,0,0,1-1.49,0l-6-6a1,1,0,0,1,0-1.48h0a1,1,0,0,1,1.48,0l6,6A1.06,1.06,0,0,1,49.58,49.58Z"/><path class="cls-4" d="M52,52h0a1.06,1.06,0,0,1-1.49,0l0,0a1,1,0,0,1,0-1.48h0a1,1,0,0,1,1.48,0l0,0A1.06,1.06,0,0,1,52,52Z"/><rect class="cls-5" x="8" y="8" width="47.97" height="47.97"/></svg>