<svg id="Layer_1" data-name="Layer 1" xmlns="http://www.w3.org/2000/svg" viewBox="0 0 64 64"><defs><style>.cls-1{fill:#FC0707;}.cls-2{fill:#F4DFDF;}.cls-3{fill:#DD1515;}</style></defs><title>digital marketing, marketing, content marketing, bullseye, target, finance, money</title><path class="cls-1" d="M32,13A19,19,0,1,1,13,32,19,19,0,0,1,32,13m0-5A24,24,0,1,0,56,32,24,24,0,0,0,32,8Z"/><path class="cls-2" d="M32,25a7,7,0,1,1-7,7,7,7,0,0,1,7-7m0-5A12,12,0,1,0,44,32,12,12,0,0,0,32,20Z"/><path class="cls-3" d="M32,8A24,24,0,0,0,8,32H32Z"/><path class="cls-3" d="M32,29.84A2.16,2.16,0,1,1,29.84,32,2.16,2.16,0,0,1,32,29.84Z"/><path class="cls-3" d="M49.42,50.92a1.49,1.49,0,0,1-1.06-.44L30.94,33.06a1.5,1.5,0,1,1,2.12-2.12L50.48,48.36a1.51,1.51,0,0,1,0,2.12A1.53,1.53,0,0,1,49.42,50.92Z"/><path class="cls-3" d="M45.82,45.82l5,5,4.76-1.19a.53.53,0,0,0,.24-.88l-3.91-3.91a1,1,0,0,0-.92-.25Z"/><path class="cls-3" d="M45.82,45.82l5,5-1.19,4.76a.53.53,0,0,1-.88.24l-3.91-3.91a1,1,0,0,1-.25-.92Z"/><path class="cls-3" d="M42,42,47,47l4.76-1.19A.53.53,0,0,0,52,44.9L48.06,41a1,1,0,0,0-.92-.25Z"/><path class="cls-3" d="M42,42,47,47l-1.19,4.76a.53.53,0,0,1-.88.24L41,48.06a1,1,0,0,1-.25-.92Z"/><path class="cls-2" d="M22.36,21.41a.9.9,0,0,1-.89-.7.87.87,0,0,1,.85-1,.85.85,0,0,1,.74.44.9.9,0,0,0,.77.43h0a.92.92,0,0,0,.82-1.33A2.77,2.77,0,0,0,23.23,18h0a.85.85,0,0,0-.85-.85h-.13a.85.85,0,0,0-.84.85h0a2.69,2.69,0,0,0-1.54,3.63,2.75,2.75,0,0,0,2.49,1.57.86.86,0,1,1-.79,1.29.9.9,0,0,0-.77-.43h0A.9.9,0,0,0,20,25.41a2.64,2.64,0,0,0,1.42,1.19h0a.85.85,0,0,0,.84.85h.13a.85.85,0,0,0,.85-.85h0a2.67,2.67,0,0,0-.87-5.19Z"/></svg>