<svg id="Layer_1" data-name="Layer 1" xmlns="http://www.w3.org/2000/svg" viewBox="0 0 64 64"><defs><style>.cls-1{fill:#F4DFDF;}.cls-2{fill:#DD1515;}.cls-3{fill:#FC0707;}.cls-4{fill:#e5cccc;}</style></defs><title>digital marketing, marketing, content marketing, launch, startup</title><polygon class="cls-1" points="35.55 56 28.45 56 30.45 41.75 33.55 41.75 35.55 56"/><path class="cls-2" d="M26.58,39l-3.34,3.56a4.07,4.07,0,0,0-1,3.78l.29,1.12h.9l.38-1A4,4,0,0,1,26.46,44l3.42-1Z"/><path class="cls-2" d="M37.42,39l3.34,3.56a4.07,4.07,0,0,1,1,3.78l-.29,1.12h-.9l-.38-1A4,4,0,0,0,37.54,44l-3.42-1Z"/><path class="cls-3" d="M32.55,8.21a.83.83,0,0,0-1.1,0A27.41,27.41,0,0,0,27,43.4a.7.7,0,0,0,.5.33,24.64,24.64,0,0,0,9.06,0,.7.7,0,0,0,.5-.33,27.22,27.22,0,0,0,4.44-14.95A27.39,27.39,0,0,0,32.55,8.21Z"/><path class="cls-1" d="M35.41,25.14A3.41,3.41,0,1,1,32,21.73,3.41,3.41,0,0,1,35.41,25.14Z"/><circle class="cls-4" cx="32" cy="25.14" r="1.67"/><path class="cls-2" d="M32.6,47.42H31.4a.33.33,0,0,1-.33-.29l-.69-5.44A1.63,1.63,0,0,1,32,39.86h0a1.63,1.63,0,0,1,1.62,1.83l-.69,5.44A.33.33,0,0,1,32.6,47.42Z"/><path class="cls-2" d="M32,15.52A32.26,32.26,0,0,0,37.93,15a27.83,27.83,0,0,0-5.38-6.77.83.83,0,0,0-1.1,0A27.83,27.83,0,0,0,26.07,15,32.26,32.26,0,0,0,32,15.52Z"/><path class="cls-1" d="M26.87,50.87A5.13,5.13,0,0,0,21.74,56H32A5.13,5.13,0,0,0,26.87,50.87Z"/><path class="cls-4" d="M18.7,47.83A8.17,8.17,0,0,0,10.53,56H26.87A8.17,8.17,0,0,0,18.7,47.83Z"/><path class="cls-1" d="M8,56h9a6.51,6.51,0,0,0-6.51-6.52A6.37,6.37,0,0,0,8,50Z"/><path class="cls-1" d="M15.72,41.77a2,2,0,1,1-2-2A2,2,0,0,1,15.72,41.77Z"/><path class="cls-1" d="M11.66,45.83a.7.7,0,0,1-.71.7.7.7,0,0,1-.7-.7.7.7,0,0,1,.7-.71A.71.71,0,0,1,11.66,45.83Z"/><circle class="cls-1" cx="12.16" cy="48.19" r="0.35"/><path class="cls-1" d="M16.16,45.83a.7.7,0,0,1-.71.7.7.7,0,0,1-.7-.7.7.7,0,0,1,.7-.71A.71.71,0,0,1,16.16,45.83Z"/><path class="cls-1" d="M8,46.62v5.07a2.54,2.54,0,0,0,0-5.07Z"/><path class="cls-1" d="M37.25,50.87A5.13,5.13,0,0,1,42.38,56H32.12A5.13,5.13,0,0,1,37.25,50.87Z"/><path class="cls-4" d="M45.42,47.83A8.16,8.16,0,0,1,53.58,56H37.25A8.17,8.17,0,0,1,45.42,47.83Z"/><path class="cls-1" d="M56.12,56h-9a6.52,6.52,0,0,1,6.52-6.52,6.45,6.45,0,0,1,2.52.51Z"/><path class="cls-1" d="M48.4,41.77a2,2,0,1,0,2-2A2,2,0,0,0,48.4,41.77Z"/><path class="cls-1" d="M52.46,45.83a.71.71,0,0,0,1.41,0,.71.71,0,1,0-1.41,0Z"/><path class="cls-1" d="M51.6,48.19a.36.36,0,0,0,.71,0,.36.36,0,1,0-.71,0Z"/><path class="cls-1" d="M48,45.83a.71.71,0,0,0,1.41,0,.71.71,0,1,0-1.41,0Z"/><path class="cls-1" d="M56.12,46.62v5.07a2.54,2.54,0,1,1,0-5.07Z"/></svg>