<svg id="Layer_1" data-name="Layer 1" xmlns="http://www.w3.org/2000/svg" viewBox="0 0 64 64"><defs><style>.cls-1{fill:#dfe8f4;}.cls-2{fill:#ccd8e5;}.cls-3{fill:#fff;}.cls-4{fill:#ff5454;}.cls-5{fill:#dd1515;}</style></defs><title>digital marketing, marketing, content marketing, announcement, advertisement, video</title><rect class="cls-1" x="8" y="12.08" width="48" height="39.83" rx="3.85"/><path class="cls-1" d="M52.15,12.08H11.85A3.86,3.86,0,0,0,8,15.94V44H56V15.94A3.86,3.86,0,0,0,52.15,12.08Z"/><path class="cls-2" d="M8,44v4.06a3.86,3.86,0,0,0,3.85,3.86h40.3A3.86,3.86,0,0,0,56,48.06V44Z"/><rect class="cls-3" x="17.56" y="47.02" width="28.88" height="1.89" rx="0.49"/><path class="cls-4" d="M40.47,47H18.05a.49.49,0,0,0-.49.49v.9a.49.49,0,0,0,.49.49H40.47Z"/><rect class="cls-5" x="38.7" y="47.02" width="1.77" height="1.89"/><path class="cls-3" d="M39.53,19a1.94,1.94,0,0,0-1.17.41,11.51,11.51,0,0,1-4.56,1.87l-5.35,1.14a18.55,18.55,0,0,1-3.79.4H22.54C21.68,22.79,21,25,21,27.65s.69,4.86,1.55,4.86h0a2.15,2.15,0,0,1,2,1.3l1.34,3.08a2.09,2.09,0,0,0,1.92,1.26h0a.5.5,0,0,0,.13,0,.29.29,0,0,0,.1,0h0a1.43,1.43,0,0,0,1.42-1.46,7.3,7.3,0,0,1,.06-.94,2.4,2.4,0,0,1,2.87-2h0l2.35.5a8.72,8.72,0,0,1,3.6,1.67,1.87,1.87,0,0,0,1.17.41c2.4,0,3.48-4.36,3.48-8.68S41.93,19,39.53,19ZM40,33.36a.49.49,0,0,1-.46.3v-12a.49.49,0,0,1,.46.3,15.47,15.47,0,0,1,.89,5.71A15.39,15.39,0,0,1,40,33.36Z"/><ellipse class="cls-5" cx="39.53" cy="27.65" rx="2.41" ry="7.62"/><path class="cls-4" d="M39.53,36.33c-2.4,0-3.47-4.36-3.47-8.68S37.13,19,39.53,19,43,23.33,43,27.65,41.93,36.33,39.53,36.33ZM40,21.94a.5.5,0,0,0-.92,0,15.47,15.47,0,0,0-.89,5.71,15.39,15.39,0,0,0,.89,5.71.5.5,0,0,0,.92,0,15.39,15.39,0,0,0,.89-5.71A15.47,15.47,0,0,0,40,21.94Z"/></svg>