<svg id="Layer_1" data-name="Layer 1" xmlns="http://www.w3.org/2000/svg" viewBox="0 0 64 64"><defs><style>.cls-1{fill:#dfe8f4;}.cls-2{fill:#fff;}.cls-3{fill:#ccd8e5;}.cls-4{fill:#ff5454;}.cls-5{fill:#dd1515;}</style></defs><title>digital marketing, marketing, content marketing, seo, settings, options</title><path class="cls-1" d="M33.82,9.22,9.22,33.82a4,4,0,0,0,0,5.72L24.46,54.78a4,4,0,0,0,5.72,0l24.6-24.6a4,4,0,0,0,1-3.91l-3.22-12a4.05,4.05,0,0,0-2.86-2.86l-12-3.22A4,4,0,0,0,33.82,9.22Z"/><path class="cls-2" d="M49.88,15.67a1.55,1.55,0,1,1-1.55-1.55A1.55,1.55,0,0,1,49.88,15.67Z"/><path class="cls-3" d="M30.67,37.44a2,2,0,0,1,1.24.5,1.68,1.68,0,0,1-.14,2.52l-2.31,2.31a2.23,2.23,0,0,1-1.4.73A1.89,1.89,0,0,1,26.59,43a.81.81,0,0,1-.07-1.19.71.71,0,0,1,1,0c.31.31.52.19.82-.11l2.28-2.28c.08-.08.38-.32.22-.47s-.39-.1-.49-.12l-8.25-1a1.77,1.77,0,0,1-1.2-.51,1.68,1.68,0,0,1-.46-1.57,2,2,0,0,1,.69-1.06l2.23-2.23a2.07,2.07,0,0,1,1.38-.69,2,2,0,0,1,1.5.5.77.77,0,0,1,.06,1.16.67.67,0,0,1-1,0c-.36-.36-.59-.23-.91.09l-2.23,2.23c-.12.12-.39.33-.21.5s.33.11.44.13Z"/><path class="cls-3" d="M38.22,31.91A.74.74,0,1,1,39.27,33L34.6,37.63l-8.18-8.18,4.67-4.67a.75.75,0,1,1,1.05,1.06l-3.61,3.61L31,32l1.54-1.54a.69.69,0,0,1,1.05,0,.68.68,0,0,1,0,1L32.09,33l2.51,2.51Z"/><path class="cls-3" d="M40.11,21.67a3.46,3.46,0,0,1,1.45.89,3.71,3.71,0,0,1,.9,1.6l1,2.9a2,2,0,0,1-2.57,2.57l-2.9-1a3.63,3.63,0,0,1-1.6-.91,3.37,3.37,0,0,1-.89-1.44l-1-3.14A1.93,1.93,0,0,1,37,20.63Zm-3.55.38c-.25-.09-.45-.18-.67,0s-.13.42,0,.67l.95,2.85a2.36,2.36,0,0,0,.61,1.09,2,2,0,0,0,.88.52l3,1c.22.07.47.16.67-.05s.12-.45,0-.67l-1-3a2,2,0,0,0-.52-.88A2.36,2.36,0,0,0,39.41,23Z"/><path class="cls-4" d="M54.28,43c0-.34,0-.68-.05-1a1.61,1.61,0,0,1,.51-1.37l.7-.63a1.58,1.58,0,0,0,.31-2L54,35a1.6,1.6,0,0,0-1.87-.72l-.9.29a1.56,1.56,0,0,1-1.4-.22,11.09,11.09,0,0,0-1.84-1,1.59,1.59,0,0,1-.89-1.11l-.2-.93A1.6,1.6,0,0,0,45.36,30H41.9a1.6,1.6,0,0,0-1.56,1.26l-.2.93a1.59,1.59,0,0,1-.89,1.11,11.09,11.09,0,0,0-1.84,1,1.55,1.55,0,0,1-1.4.22l-.9-.29a1.6,1.6,0,0,0-1.87.72l-1.73,3a1.58,1.58,0,0,0,.31,2l.7.63A1.61,1.61,0,0,1,33,42c0,.34-.05.68-.05,1s0,.68.05,1a1.59,1.59,0,0,1-.51,1.37l-.7.63a1.6,1.6,0,0,0-.31,2l1.73,3a1.6,1.6,0,0,0,1.87.72l.9-.29a1.59,1.59,0,0,1,1.4.21,10.47,10.47,0,0,0,1.84,1.06,1.57,1.57,0,0,1,.89,1.11l.2.92A1.59,1.59,0,0,0,41.9,56h3.46a1.59,1.59,0,0,0,1.56-1.27l.2-.92A1.57,1.57,0,0,1,48,52.67a10.47,10.47,0,0,0,1.84-1.06,1.59,1.59,0,0,1,1.4-.21l.9.29A1.6,1.6,0,0,0,54,51l1.73-3a1.6,1.6,0,0,0-.31-2l-.7-.63A1.59,1.59,0,0,1,54.23,44C54.26,43.65,54.28,43.31,54.28,43Z"/><path class="cls-4" d="M54.28,43c0-.34,0-.68-.05-1a1.61,1.61,0,0,1,.51-1.37l.7-.63a1.58,1.58,0,0,0,.31-2L54,35a1.6,1.6,0,0,0-1.87-.72l-.9.29a1.56,1.56,0,0,1-1.4-.22,11.09,11.09,0,0,0-1.84-1,1.59,1.59,0,0,1-.89-1.11l-.2-.93A1.6,1.6,0,0,0,45.36,30H41.9a1.6,1.6,0,0,0-1.56,1.26l-.2.93a1.59,1.59,0,0,1-.89,1.11,11.09,11.09,0,0,0-1.84,1,1.55,1.55,0,0,1-1.4.22l-.9-.29a1.6,1.6,0,0,0-1.87.72l-1.73,3a1.58,1.58,0,0,0,.31,2l.7.63A1.61,1.61,0,0,1,33,42c0,.34-.05.68-.05,1s0,.68.05,1a1.59,1.59,0,0,1-.51,1.37l-.7.63a1.6,1.6,0,0,0-.31,2l1.73,3a1.6,1.6,0,0,0,1.87.72l.9-.29a1.59,1.59,0,0,1,1.4.21,10.47,10.47,0,0,0,1.84,1.06,1.57,1.57,0,0,1,.89,1.11l.2.92A1.59,1.59,0,0,0,41.9,56h3.46a1.59,1.59,0,0,0,1.56-1.27l.2-.92A1.57,1.57,0,0,1,48,52.67a10.47,10.47,0,0,0,1.84-1.06,1.59,1.59,0,0,1,1.4-.21l.9.29A1.6,1.6,0,0,0,54,51l1.73-3a1.6,1.6,0,0,0-.31-2l-.7-.63A1.59,1.59,0,0,1,54.23,44C54.26,43.65,54.28,43.31,54.28,43Z"/><path class="cls-5" d="M49.85,34.32a11.09,11.09,0,0,0-1.84-1,1.59,1.59,0,0,1-.89-1.11l-.2-.93A1.6,1.6,0,0,0,45.36,30H41.9a1.6,1.6,0,0,0-1.56,1.26l-.2.93a1.59,1.59,0,0,1-.89,1.11,11.09,11.09,0,0,0-1.84,1,1.55,1.55,0,0,1-1.4.22l-.9-.29a1.6,1.6,0,0,0-1.87.72l-1.73,3a1.58,1.58,0,0,0,.31,2l.7.63A1.61,1.61,0,0,1,33,42c0,.34-.05.68-.05,1s0,.68.05,1a1.59,1.59,0,0,1-.51,1.37l-.7.63a1.6,1.6,0,0,0-.31,2l1.73,3a1.69,1.69,0,0,0,.34.41L50.4,34.56A1.36,1.36,0,0,1,49.85,34.32Z"/><path class="cls-2" d="M47.42,43a3.79,3.79,0,1,1-3.79-3.79A3.79,3.79,0,0,1,47.42,43Z"/></svg>