<svg id="Layer_1" data-name="Layer 1" xmlns="http://www.w3.org/2000/svg" viewBox="0 0 64 64"><defs><style>.cls-1{fill:#F4DFDF;}.cls-2{fill:#FC0707;}.cls-3{fill:#fff;}</style></defs><title>digital marketing, marketing, content marketing, calculate, calculator</title><rect class="cls-1" x="12.29" y="8" width="39.41" height="48" rx="5.87"/><rect class="cls-2" x="18.13" y="15.5" width="27.75" height="8.88" rx="1.14"/><path class="cls-3" d="M23.31,22.44H20.94l-.5-.5v-4l.5-.5h2.37l.5.5v4Zm-1.87-1h1.37v-3H21.44Z"/><rect class="cls-3" x="21.88" y="28" width="5.34" height="5.34" rx="2.42"/><rect class="cls-3" x="29.33" y="28" width="5.34" height="5.34" rx="2.42"/><rect class="cls-3" x="36.78" y="28" width="5.34" height="5.34" rx="2.42"/><rect class="cls-3" x="21.88" y="35.29" width="5.34" height="5.34" rx="2.42"/><rect class="cls-3" x="29.33" y="35.29" width="5.34" height="5.34" rx="2.42"/><rect class="cls-3" x="36.78" y="35.29" width="5.34" height="5.34" rx="2.42"/><rect class="cls-3" x="21.88" y="42.58" width="5.34" height="5.34" rx="2.42"/><rect class="cls-3" x="29.33" y="42.58" width="5.34" height="5.34" rx="2.42"/><rect class="cls-3" x="36.78" y="42.58" width="5.34" height="5.34" rx="2.42"/></svg>