<svg id="Layer_1" data-name="Layer 1" xmlns="http://www.w3.org/2000/svg" viewBox="0 0 64 64"><defs><style>.cls-1{fill:#FC0707;}.cls-2{fill:#F4DFDF;}.cls-3{fill:#DD1515;}</style></defs><title>digital marketing, marketing, content marketing, target, social, media</title><path class="cls-1" d="M32,13A19,19,0,1,1,13,32,19,19,0,0,1,32,13m0-5A24,24,0,1,0,56,32,24,24,0,0,0,32,8Z"/><rect class="cls-1" x="30.83" y="10.33" width="2.33" height="5.83"/><rect class="cls-1" x="30.83" y="47.83" width="2.33" height="5.83"/><rect class="cls-1" x="49.58" y="29.08" width="2.33" height="5.83" transform="translate(82.75 -18.75) rotate(90)"/><rect class="cls-1" x="12.08" y="29.08" width="2.33" height="5.83" transform="translate(45.25 18.75) rotate(90)"/><path class="cls-2" d="M33.77,29.33a.32.32,0,0,1-.31-.38l.38-2a3.39,3.39,0,0,0,.06-.64h0a3,3,0,0,0-1.84-2.76h0a.6.6,0,0,0-.83.56h0a7.45,7.45,0,0,1-.9,3.54h0a5.29,5.29,0,0,1-4.62,2.73H23.34v9.23h2.29a9.15,9.15,0,0,1,2.89.46h0a9.44,9.44,0,0,0,2.89.46h5.23a4.64,4.64,0,0,0,4.6-4.06l.62-4.94a1.94,1.94,0,0,0-1.92-2.18Z"/><path class="cls-3" d="M23.54,30h1.59a.4.4,0,0,1,.4.4v9.28a.29.29,0,0,1-.29.29h-.84a2.27,2.27,0,0,1-2.27-2.27V31.44A1.41,1.41,0,0,1,23.54,30Z"/></svg>