<svg id="Layer_1" data-name="Layer 1" xmlns="http://www.w3.org/2000/svg" viewBox="0 0 64 64"><defs><style>.cls-1{fill:#dfe8f4;}.cls-2{fill:#ccd8e5;}.cls-3{fill:#dd1515;}.cls-4{fill:#ff5454;}.cls-5{fill:#fff;}</style></defs><title>digital marketing, marketing, content marketing, graph, chart, presentation</title><path class="cls-1" d="M9.38,13.75H54.63a0,0,0,0,1,0,0v29a3.17,3.17,0,0,1-3.17,3.17H12.55a3.17,3.17,0,0,1-3.17-3.17v-29A0,0,0,0,1,9.38,13.75Z"/><rect class="cls-2" x="9.38" y="13.75" width="45.25" height="2.17"/><path class="cls-3" d="M34.54,10.54A2.54,2.54,0,1,1,32,8,2.54,2.54,0,0,1,34.54,10.54Z"/><rect class="cls-4" x="8" y="10.25" width="48" height="4" rx="0.9"/><path class="cls-3" d="M28.49,52.49A3.51,3.51,0,0,0,32.05,56a3.55,3.55,0,0,0,3.46-3.46,3.51,3.51,0,0,0-1.82-3.12.78.78,0,0,1-.4-.69V45.92H30.71v2.81a.77.77,0,0,1-.41.69A3.51,3.51,0,0,0,28.49,52.49Zm3.51.94a.94.94,0,1,1,.94-.94A.94.94,0,0,1,32,53.43Z"/><path class="cls-5" d="M40.48,21.91a7.73,7.73,0,1,0,7.73,7.73H40.48Z"/><path class="cls-4" d="M40.48,21v8.68h8.68a.79.79,0,0,0,.79-.87,9.5,9.5,0,0,0-8.59-8.6A.8.8,0,0,0,40.48,21Z"/><rect class="cls-5" x="16.21" y="23.73" width="13.32" height="1.08"/><rect class="cls-5" x="16.21" y="26.73" width="13.32" height="1.08"/><rect class="cls-5" x="16.21" y="29.73" width="13.32" height="1.08"/><rect class="cls-5" x="16.21" y="32.73" width="6.66" height="1.08"/></svg>