<svg id="Layer_1" data-name="Layer 1" xmlns="http://www.w3.org/2000/svg" viewBox="0 0 64 64"><defs><style>.cls-1{fill:#ff5454;}.cls-2{fill:#fff;}.cls-3{fill:#dfe8f4;}</style></defs><title>digital marketing, marketing, content marketing, cloud, transfer</title><path class="cls-1" d="M50.46,22.93a10.12,10.12,0,0,1-4.28-5.05,15.16,15.16,0,0,0-28.36,0,10.12,10.12,0,0,1-4.28,5.05A11.32,11.32,0,0,0,8,32.67H8A11.33,11.33,0,0,0,19.33,44H44.67A11.33,11.33,0,0,0,56,32.67h0A11.32,11.32,0,0,0,50.46,22.93Z"/><path class="cls-2" d="M27.79,42.61h0a3,3,0,0,1-3-3v-3h6v3A3,3,0,0,1,27.79,42.61Z"/><path class="cls-2" d="M27.29,29.93,22.1,37.57a.6.6,0,0,0,.5.94H33a.6.6,0,0,0,.5-.94l-5.2-7.64A.6.6,0,0,0,27.29,29.93Z"/><path class="cls-3" d="M36.21,43.06h0a3,3,0,0,1,3,3v3h-6V46A3,3,0,0,1,36.21,43.06Z"/><path class="cls-3" d="M36.71,55.74,41.9,48.1a.6.6,0,0,0-.5-.94H31a.6.6,0,0,0-.5.94l5.2,7.64A.6.6,0,0,0,36.71,55.74Z"/></svg>