<svg id="Layer_1" data-name="Layer 1" xmlns="http://www.w3.org/2000/svg" viewBox="0 0 64 64"><defs><style>.cls-1{fill:#FC0707;}.cls-2{fill:#F4DFDF;}</style></defs><title>digital marketing, marketing, content marketing, target, bullseye</title><path class="cls-1" d="M32,13A19,19,0,1,1,13,32,19,19,0,0,1,32,13m0-5A24,24,0,1,0,56,32,24,24,0,0,0,32,8Z"/><path class="cls-2" d="M32,25a7,7,0,1,1-7,7,7,7,0,0,1,7-7m0-5A12,12,0,1,0,44,32,12,12,0,0,0,32,20Z"/><path class="cls-1" d="M32,29.84A2.16,2.16,0,1,0,34.16,32,2.16,2.16,0,0,0,32,29.84Z"/></svg>