<svg id="Layer_1" data-name="Layer 1" xmlns="http://www.w3.org/2000/svg" viewBox="0 0 64 64"><defs><style>.cls-1{fill:#F4DFDF;}.cls-2{fill:#fff;}.cls-3{fill:#FC0707;}</style></defs><title>digital marketing, marketing, content marketing, tag</title><path class="cls-1" d="M33.82,9.22,9.22,33.82a4,4,0,0,0,0,5.72L24.46,54.78a4,4,0,0,0,5.72,0l24.6-24.6a4,4,0,0,0,1-3.91l-3.22-12a4.05,4.05,0,0,0-2.86-2.86l-12-3.22A4,4,0,0,0,33.82,9.22Z"/><path class="cls-2" d="M49.88,15.67a1.55,1.55,0,1,1-1.55-1.55A1.55,1.55,0,0,1,49.88,15.67Z"/><path class="cls-3" d="M23.62,36.67l.31.31a.6.6,0,0,1-.85.84l-1.15-1.15,4.18-4.19,1.16,1.15a.53.53,0,0,1,0,.85.52.52,0,0,1-.85,0l-.31-.3-.82.82,5.33,5.33a.6.6,0,0,1-.85.84l-5.33-5.32Z"/><path class="cls-3" d="M28.71,30.75c-.16-.3-.27-.6,0-.87s.6-.17.88,0L37,34c.26.14.25.59,0,.83a.71.71,0,0,1-.88,0l-1.33-.7L33,35.94l.7,1.35a.71.71,0,0,1,0,.88.56.56,0,0,1-.83,0Zm2,1.13v0l1.63,3,1.33-1.33Z"/><path class="cls-3" d="M39,28.5a.6.6,0,0,1-.84-.85L39.81,26l1.67,1.67a1.79,1.79,0,0,1,0,2.69L40,31.8a1.79,1.79,0,0,1-1.31.63,1.71,1.71,0,0,1-1.44-.64l-2.12-2.12a2.4,2.4,0,0,1-.8-1.68L34,25.71A1.84,1.84,0,0,1,34.65,24l1.14-1.14a.54.54,0,0,1,.84,0,.55.55,0,0,1,0,.85l-1,1c-.47.47-.44.43-.37,1.06l.26,2.11a2.2,2.2,0,0,0,.84,1.36L38,30.87c.46.46.71.5,1.19,0l1.35-1.35c.31-.3.49-.63.12-1l-.86-.86Z"/></svg>