<svg id="Layer_1" data-name="Layer 1" xmlns="http://www.w3.org/2000/svg" viewBox="0 0 64 64"><defs><style>.cls-1{fill:#dfe8f4;}.cls-2{fill:#ccd8e5;}.cls-3{fill:#dd1515;}.cls-4{fill:#ff5454;}.cls-5{fill:#fff;}</style></defs><title>digital marketing, marketing, content marketing, announcement, presentation</title><path class="cls-1" d="M9.38,13.75H54.63a0,0,0,0,1,0,0v29a3.17,3.17,0,0,1-3.17,3.17H12.55a3.17,3.17,0,0,1-3.17-3.17v-29A0,0,0,0,1,9.38,13.75Z"/><rect class="cls-2" x="9.38" y="13.75" width="45.25" height="2.17"/><path class="cls-3" d="M34.54,10.54A2.54,2.54,0,1,1,32,8,2.54,2.54,0,0,1,34.54,10.54Z"/><rect class="cls-4" x="8" y="10.25" width="48" height="4" rx="0.9"/><path class="cls-3" d="M28.49,52.49A3.51,3.51,0,0,0,32.05,56a3.56,3.56,0,0,0,3.46-3.46,3.51,3.51,0,0,0-1.82-3.12.78.78,0,0,1-.4-.69V45.92H30.71v2.81a.77.77,0,0,1-.41.69A3.51,3.51,0,0,0,28.49,52.49Zm3.51.94a.94.94,0,1,1,.94-.94A.94.94,0,0,1,32,53.43Z"/><path class="cls-5" d="M39.53,20.25a1.93,1.93,0,0,0-1.17.4,11.68,11.68,0,0,1-4.56,1.88l-5.35,1.13a17.87,17.87,0,0,1-3.79.4H22.54c-.86,0-1.55,2.18-1.55,4.86s.69,4.87,1.55,4.87h0a2.14,2.14,0,0,1,2,1.29l1.34,3.08a2.08,2.08,0,0,0,1.92,1.26h0a.28.28,0,0,0,.13,0,.29.29,0,0,0,.1,0h0A1.43,1.43,0,0,0,29.45,38a7.42,7.42,0,0,1,.06-.94,2.4,2.4,0,0,1,2.87-2h0l2.35.5a8.86,8.86,0,0,1,3.6,1.68,1.93,1.93,0,0,0,1.17.4c2.4,0,3.48-4.36,3.48-8.68S41.93,20.25,39.53,20.25ZM40,34.63a.49.49,0,0,1-.46.3v-12a.49.49,0,0,1,.46.3,15.36,15.36,0,0,1,.89,5.7A15.39,15.39,0,0,1,40,34.63Z"/><ellipse class="cls-3" cx="39.53" cy="28.92" rx="2.41" ry="7.62"/><path class="cls-4" d="M39.53,37.6c-2.4,0-3.47-4.36-3.47-8.68s1.07-8.67,3.47-8.67S43,24.6,43,28.92,41.93,37.6,39.53,37.6ZM40,23.22a.5.5,0,0,0-.92,0,15.36,15.36,0,0,0-.89,5.7,15.39,15.39,0,0,0,.89,5.71.5.5,0,0,0,.92,0,15.39,15.39,0,0,0,.89-5.71A15.36,15.36,0,0,0,40,23.22Z"/></svg>