<svg id="Layer_1" data-name="Layer 1" xmlns="http://www.w3.org/2000/svg" viewBox="0 0 64 64"><defs><style>.cls-1{fill:#DD1515;}.cls-2{fill:#F4DFDF;}.cls-3{fill:#FC0707;}</style></defs><title>digital marketing, marketing, content marketing, idea, thought, money, finance</title><circle class="cls-1" cx="32" cy="52.09" r="3.91"/><path class="cls-2" d="M51.06,27.06A19.06,19.06,0,1,0,19.91,41.77a11,11,0,0,1,4,8.49v1.19a2.72,2.72,0,0,0,2.73,2.72H37.33a2.72,2.72,0,0,0,2.73-2.72V50.26a10.94,10.94,0,0,1,4-8.47A19,19,0,0,0,51.06,27.06Z"/><path class="cls-3" d="M23.88,49.1a11.12,11.12,0,0,1,.06,1.16v1.19a2.72,2.72,0,0,0,2.73,2.72H37.33a2.72,2.72,0,0,0,2.73-2.72V50.26a11.12,11.12,0,0,1,.06-1.16Z"/><path class="cls-3" d="M32.09,26.71a1.75,1.75,0,0,1-1.74-1.36,1.68,1.68,0,0,1,3.11-1.16A1.72,1.72,0,0,0,35,25h0a1.76,1.76,0,0,0,1.58-2.58,5.28,5.28,0,0,0-2.77-2.34h0a1.65,1.65,0,0,0-1.65-1.65h-.24a1.65,1.65,0,0,0-1.65,1.65h0a5.27,5.27,0,0,0-3,7.1,5.38,5.38,0,0,0,4.87,3.05,1.68,1.68,0,1,1-1.55,2.52,1.72,1.72,0,0,0-1.5-.84h0a1.76,1.76,0,0,0-1.58,2.58,5.26,5.26,0,0,0,2.77,2.33h0a1.65,1.65,0,0,0,1.65,1.65h.24a1.65,1.65,0,0,0,1.65-1.65h0a5.22,5.22,0,0,0-1.68-10.14Z"/></svg>