<svg id="Layer_1" data-name="Layer 1" xmlns="http://www.w3.org/2000/svg" viewBox="0 0 64 64"><defs><style>.cls-1{fill:#dfe8f4;}.cls-2{fill:#ccd8e5;}.cls-3{fill:#dd1515;}.cls-4{fill:#ff5454;}.cls-5{fill:#fff;}</style></defs><title>digital marketing, marketing, content marketing, idea, presentation</title><path class="cls-1" d="M9.38,13.75H54.63a0,0,0,0,1,0,0v29a3.17,3.17,0,0,1-3.17,3.17H12.55a3.17,3.17,0,0,1-3.17-3.17v-29A0,0,0,0,1,9.38,13.75Z"/><rect class="cls-2" x="9.38" y="13.75" width="45.25" height="2.17"/><path class="cls-3" d="M34.54,10.54A2.54,2.54,0,1,1,32,8,2.54,2.54,0,0,1,34.54,10.54Z"/><rect class="cls-4" x="8" y="10.25" width="48" height="4" rx="0.9"/><path class="cls-3" d="M28.49,52.49A3.51,3.51,0,0,0,32.05,56a3.55,3.55,0,0,0,3.46-3.46,3.51,3.51,0,0,0-1.82-3.12.78.78,0,0,1-.4-.69V45.92H30.71v2.81a.77.77,0,0,1-.41.69A3.51,3.51,0,0,0,28.49,52.49Zm3.51.94a.94.94,0,1,1,.94-.94A.94.94,0,0,1,32,53.43Z"/><circle class="cls-3" cx="32" cy="38.62" r="1.71"/><path class="cls-5" d="M40.34,27.67a8.34,8.34,0,1,0-13.63,6.44,4.78,4.78,0,0,1,1.77,3.71v.52a1.19,1.19,0,0,0,1.19,1.19h4.66a1.19,1.19,0,0,0,1.19-1.19v-.52a4.8,4.8,0,0,1,1.76-3.7A8.34,8.34,0,0,0,40.34,27.67Z"/><path class="cls-4" d="M28.45,37.31c0,.17,0,.34,0,.51v.52a1.19,1.19,0,0,0,1.19,1.19h4.66a1.19,1.19,0,0,0,1.19-1.19v-.52a4.36,4.36,0,0,1,0-.51Z"/></svg>