<svg id="Layer_1" data-name="Layer 1" xmlns="http://www.w3.org/2000/svg" viewBox="0 0 64 64"><defs><style>.cls-1{fill:#FC0707;}.cls-2{fill:#F4DFDF;}.cls-3{fill:#DD1515;}</style></defs><title>digital marketing, marketing, content marketing, favourite, heart, video</title><path class="cls-1" d="M51.11,31.4l-2.49,1.67a1.36,1.36,0,0,1-2.11-1.13V30.68a5,5,0,0,0-5-5H13a5,5,0,0,0-5,5V51a5,5,0,0,0,5,5H41.49a5,5,0,0,0,5-5V49.73a1.35,1.35,0,0,1,2.11-1.13l2.49,1.66A3.14,3.14,0,0,0,56,47.65V34A3.14,3.14,0,0,0,51.11,31.4Z"/><path class="cls-2" d="M51.11,31.4l-2.49,1.67a1.36,1.36,0,0,1-2.11-1.13V30.68c0-.17,0-.33,0-.49V51.48c0-.16,0-.32,0-.49V49.73a1.35,1.35,0,0,1,2.11-1.13l2.49,1.66A3.14,3.14,0,0,0,56,47.65V34A3.14,3.14,0,0,0,51.11,31.4Z"/><path class="cls-3" d="M33.69,36.1a4.53,4.53,0,0,0-6.17.33l-.39.39-.38-.39a4.54,4.54,0,0,0-6.18-.33,4.36,4.36,0,0,0-.17,6.33l6.11,6.11a.88.88,0,0,0,.62.25.86.86,0,0,0,.62-.25l6.11-6.11A4.36,4.36,0,0,0,33.69,36.1Z"/></svg>