<svg id="Layer_1" data-name="Layer 1" xmlns="http://www.w3.org/2000/svg" viewBox="0 0 64 64"><defs><style>.cls-1{fill:#F4DFDF;}.cls-2{fill:#e5cccc;}.cls-3{fill:#fff;}.cls-4{fill:#FC0707;}.cls-5{fill:#DD1515;}</style></defs><title>digital marketing, marketing, content marketing, video, multimedia</title><rect class="cls-1" x="8" y="16.17" width="48" height="39.83" rx="3.85"/><path class="cls-1" d="M52.15,16.17H11.85A3.85,3.85,0,0,0,8,20V48.08H56V20A3.85,3.85,0,0,0,52.15,16.17Z"/><path class="cls-2" d="M8,48.08v4.07A3.86,3.86,0,0,0,11.85,56h40.3A3.86,3.86,0,0,0,56,52.15V48.08Z"/><rect class="cls-3" x="17.56" y="51.1" width="28.88" height="1.89" rx="0.49"/><path class="cls-4" d="M40.47,51.1H18.05a.49.49,0,0,0-.49.49v.9a.49.49,0,0,0,.49.49H40.47Z"/><rect class="cls-5" x="38.7" y="51.1" width="1.77" height="1.89"/><path class="cls-4" d="M26,26.94V39.32a1.14,1.14,0,0,0,1.75,1l9.68-6.19a1.14,1.14,0,0,0,0-1.92L27.77,26A1.14,1.14,0,0,0,26,26.94Z"/></svg>