<svg id="Layer_1" data-name="Layer 1" xmlns="http://www.w3.org/2000/svg" viewBox="0 0 64 64"><defs><style>.cls-1{fill:#dfe8f4;}.cls-2{fill:#dd1515;}.cls-3{fill:#ff5454;}.cls-4{fill:#fff;}</style></defs><title>digital marketing, marketing, content marketing, like, eye, view, graph</title><path class="cls-1" d="M40.36,7.57h7.51a1.55,1.55,0,0,1,1.55,1.55v7.51A25.79,25.79,0,0,1,23.64,42.43H16.13a1.55,1.55,0,0,1-1.55-1.55V33.36A25.79,25.79,0,0,1,40.36,7.57Z" transform="translate(27.05 -15.31) rotate(45)"/><circle class="cls-2" cx="32" cy="25" r="7.99"/><path class="cls-3" d="M32,17a8,8,0,0,0-8,8h8Z"/><circle class="cls-3" cx="32" cy="44.96" r="8"/><path class="cls-4" d="M32.91,42.93a.16.16,0,0,1-.16-.19l.19-1a1.82,1.82,0,0,0,0-.32h0A1.52,1.52,0,0,0,32,40h0a.31.31,0,0,0-.42.28h0a3.7,3.7,0,0,1-.47,1.81h0a2.68,2.68,0,0,1-2.35,1.4H27.58v4.71h1.17a4.57,4.57,0,0,1,1.47.24h0a5,5,0,0,0,1.48.23h2.67a2.37,2.37,0,0,0,2.35-2.07L37,44a1,1,0,0,0-1-1.11Z"/><path class="cls-2" d="M27.68,43.29h.81a.2.2,0,0,1,.2.2v4.74a.15.15,0,0,1-.15.15h-.43A1.16,1.16,0,0,1,27,47.22V44A.72.72,0,0,1,27.68,43.29Z"/></svg>