<svg id="Layer_1" data-name="Layer 1" xmlns="http://www.w3.org/2000/svg" viewBox="0 0 64 64"><defs><style>.cls-1{fill:#dd1515;}.cls-2{fill:#dfe8f4;}.cls-3{fill:#ff5454;}.cls-4{fill:#fff;}</style></defs><title>digital marketing, marketing, content marketing, idea, launch, startup</title><circle class="cls-1" cx="32" cy="52.09" r="3.91"/><path class="cls-2" d="M51.06,27.06A19.06,19.06,0,1,0,19.91,41.77a11,11,0,0,1,4,8.49v1.19a2.72,2.72,0,0,0,2.73,2.72H37.33a2.72,2.72,0,0,0,2.73-2.72V50.26a10.94,10.94,0,0,1,4-8.47A19,19,0,0,0,51.06,27.06Z"/><path class="cls-3" d="M23.88,49.1a11.12,11.12,0,0,1,.06,1.16v1.19a2.72,2.72,0,0,0,2.73,2.72H37.33a2.72,2.72,0,0,0,2.73-2.72V50.26a11.12,11.12,0,0,1,.06-1.16Z"/><path class="cls-4" d="M35.36,43.17h0a1.69,1.69,0,0,1-1.75-1.42L33,37.26H31l-.62,4.44a1.77,1.77,0,0,1-1.7,1.47h0a3.71,3.71,0,0,0-.47,0c-2,.28-1.67,3.3.34,3.3h7c2,0,2.32-3,.33-3.3A3.59,3.59,0,0,0,35.36,43.17Z"/><path class="cls-1" d="M28.45,35.45l-2.17,2.31a2.65,2.65,0,0,0-.63,2.45l.19.72h.58l.25-.65a2.65,2.65,0,0,1,1.69-1.59L30.59,38Z"/><path class="cls-1" d="M35.47,35.45l2.17,2.31a2.65,2.65,0,0,1,.63,2.45l-.19.72H37.5l-.25-.65a2.62,2.62,0,0,0-1.69-1.59L33.33,38Z"/><path class="cls-3" d="M32.32,15.51a.55.55,0,0,0-.72,0,17.78,17.78,0,0,0-2.9,22.82.52.52,0,0,0,.32.22,16.75,16.75,0,0,0,5.88,0,.52.52,0,0,0,.32-.22,17.78,17.78,0,0,0-2.9-22.82Z"/><path class="cls-4" d="M34.17,26.49A2.21,2.21,0,1,1,32,24.28,2.21,2.21,0,0,1,34.17,26.49Z"/><path class="cls-1" d="M32.35,40.93h-.78a.21.21,0,0,1-.21-.18l-.45-3.53A1.06,1.06,0,0,1,32,36h0a1.06,1.06,0,0,1,1,1.19l-.45,3.53A.21.21,0,0,1,32.35,40.93Z"/><path class="cls-1" d="M32,20.25a20.83,20.83,0,0,0,3.84-.35,18.07,18.07,0,0,0-3.48-4.39.55.55,0,0,0-.72,0,18.07,18.07,0,0,0-3.48,4.39A20.83,20.83,0,0,0,32,20.25Z"/></svg>