<svg id="Layer_1" data-name="Layer 1" xmlns="http://www.w3.org/2000/svg" viewBox="0 0 64 64"><defs><style>.cls-1{fill:#dfe8f4;}.cls-2{fill:#fff;}.cls-3{fill:#ff5454;}.cls-4{fill:#dd1515;}</style></defs><title>digital marketing, marketing, content marketing, money, finance, dollar</title><circle class="cls-1" cx="38.5" cy="25.5" r="17.5"/><path class="cls-2" d="M38.58,23.94a1.54,1.54,0,0,1-1.53-1.2,1.48,1.48,0,0,1,2.73-1,1.53,1.53,0,0,0,1.33.74h0a1.55,1.55,0,0,0,1.39-2.27,4.61,4.61,0,0,0-2.44-2.05h0a1.45,1.45,0,0,0-1.45-1.46h-.22a1.45,1.45,0,0,0-1.45,1.46h0a4.63,4.63,0,0,0-2.65,6.24,4.73,4.73,0,0,0,4.29,2.68,1.48,1.48,0,1,1-1.36,2.22,1.53,1.53,0,0,0-1.33-.74h0a1.55,1.55,0,0,0-1.39,2.27,4.61,4.61,0,0,0,2.44,2.05h0a1.45,1.45,0,0,0,1.45,1.46h.22a1.45,1.45,0,0,0,1.45-1.46h0a4.6,4.6,0,0,0-1.48-8.92Z"/><path class="cls-3" d="M8.09,48.09v5.68c0,1.35,5.35,2.45,12,2.45s12-1.1,12-2.45V48.09Z"/><path class="cls-4" d="M32,48.09c0,1.35-5.35,2.45-12,2.45S8.09,49.44,8.09,48.09s5.35-2.45,12-2.45S32,46.73,32,48.09Z"/><path class="cls-3" d="M8.09,40v5.68c0,1.35,5.35,2.45,12,2.45S32,47,32,45.64V40Z"/><path class="cls-4" d="M32,40c0,1.35-5.35,2.45-12,2.45S8.09,41.31,8.09,40s5.35-2.45,12-2.45S32,38.6,32,40Z"/><path class="cls-3" d="M8.09,31.83v5.68c0,1.35,5.35,2.45,12,2.45s12-1.1,12-2.45V31.83Z"/><ellipse class="cls-4" cx="20.04" cy="31.83" rx="11.96" ry="2.45"/></svg>