<svg id="Layer_1" data-name="Layer 1" xmlns="http://www.w3.org/2000/svg" viewBox="0 0 64 64"><defs><style>.cls-1{fill:#DD1515;}.cls-2{fill:#FC0707;}.cls-3{fill:#F4DFDF;}.cls-4{fill:#fff;}</style></defs><title>digital marketing, marketing, content marketing, camera, photo, social, media</title><path class="cls-1" d="M54.23,26.82H9.77L20.64,16.69a2.61,2.61,0,0,1,1.79-.7H41.57a2.61,2.61,0,0,1,1.79.7Z"/><rect class="cls-2" x="8.02" y="18.38" width="47.96" height="37.62" rx="4.69"/><circle class="cls-3" cx="32" cy="37.19" r="10.69"/><path class="cls-4" d="M33.34,34.11a.25.25,0,0,1-.24-.29l.29-1.52a2.42,2.42,0,0,0,0-.47v0A2.24,2.24,0,0,0,32,29.74h0a.45.45,0,0,0-.62.42h0a5.63,5.63,0,0,1-.68,2.66h0a4,4,0,0,1-3.48,2.06H25.47v7H27.2a7.05,7.05,0,0,1,2.18.35h0a6.94,6.94,0,0,0,2.17.35H35.5A3.49,3.49,0,0,0,39,39.48l.47-3.73A1.46,1.46,0,0,0,38,34.11Z"/><path class="cls-2" d="M25.62,34.63h1.2a.3.3,0,0,1,.3.3v7a.22.22,0,0,1-.22.22h-.64a1.71,1.71,0,0,1-1.71-1.71V35.7A1.06,1.06,0,0,1,25.62,34.63Z"/></svg>