<svg id="Layer_1" data-name="Layer 1" xmlns="http://www.w3.org/2000/svg" viewBox="0 0 64 64"><defs><style>.cls-1{fill:#FC0707;}.cls-2{fill:#fff;}</style></defs><title>digital marketing, marketing, content marketing, email, address</title><circle class="cls-1" cx="32" cy="32" r="24"/><path class="cls-2" d="M32,36.54A4.54,4.54,0,1,1,36.54,32,4.55,4.55,0,0,1,32,36.54Zm0-7.08A2.54,2.54,0,1,0,34.54,32,2.54,2.54,0,0,0,32,29.46Z"/><path class="cls-2" d="M32,43A11,11,0,1,1,43,32a1,1,0,0,1-2,0,9,9,0,1,0-3.71,7.29,1,1,0,0,1,1.39.22,1,1,0,0,1-.21,1.4A11,11,0,0,1,32,43Z"/><path class="cls-2" d="M38.77,36.54a4.24,4.24,0,0,1-4.24-4.24l2-.1v.1a2.25,2.25,0,0,0,4.49,0V32h2v.3A4.25,4.25,0,0,1,38.77,36.54Z"/></svg>