<svg id="Layer_1" data-name="Layer 1" xmlns="http://www.w3.org/2000/svg" viewBox="0 0 64 64"><defs><style>.cls-1{fill:#DD1515;}.cls-2{fill:#FC0707;}.cls-3{fill:#F4DFDF;}.cls-4{fill:#e5cccc;}.cls-5{fill:#fff;}</style></defs><title>digital marketing, marketing, content marketing, launch, startup, monitor</title><path class="cls-1" d="M37.45,50.79h0a2.24,2.24,0,0,1-2.24-2.24V45.29H28.79v3.26a2.24,2.24,0,0,1-2.24,2.24h0A3.55,3.55,0,0,0,23,54.34h0a1.78,1.78,0,0,0,1.79,1.78H39.21A1.78,1.78,0,0,0,41,54.34h0A3.55,3.55,0,0,0,37.45,50.79Z"/><path class="cls-2" d="M38.79,50.79H25.21A2.21,2.21,0,0,0,23,53v1.34a1.78,1.78,0,0,0,1.79,1.78H39.21A1.78,1.78,0,0,0,41,54.34V53A2.21,2.21,0,0,0,38.79,50.79Z"/><rect class="cls-3" x="8" y="13.29" width="48" height="34" rx="4.04"/><path class="cls-2" d="M8,41.5v1.75a4,4,0,0,0,4,4H52a4,4,0,0,0,4-4V41.5Z"/><rect class="cls-4" x="8" y="40.44" width="48" height="1.06"/><circle class="cls-1" cx="32" cy="44.4" r="0.58"/><path class="cls-5" d="M35.57,37h-.09a1.69,1.69,0,0,1-1.75-1.41l-.66-4.75H31l-.67,4.74A1.68,1.68,0,0,1,28.57,37h0a3.47,3.47,0,0,0-3.47,3.47H39A3.47,3.47,0,0,0,35.57,37Z"/><path class="cls-1" d="M28.36,28.92,26.1,31.33a2.71,2.71,0,0,0-.65,2.55l.19.76h.61L26.5,34a2.76,2.76,0,0,1,1.77-1.66l2.32-.7Z"/><path class="cls-1" d="M35.68,28.92l2.26,2.41a2.74,2.74,0,0,1,.65,2.55l-.19.76h-.61L37.53,34a2.72,2.72,0,0,0-1.76-1.66l-2.32-.7Z"/><path class="cls-2" d="M32.39,8.14a.55.55,0,0,0-.74,0,18.52,18.52,0,0,0-3,23.78.51.51,0,0,0,.34.23,16.86,16.86,0,0,0,6.12,0,.54.54,0,0,0,.34-.23,18.52,18.52,0,0,0-3-23.78Z"/><path class="cls-3" d="M34.32,19.58a2.31,2.31,0,1,1-2.3-2.3A2.3,2.3,0,0,1,34.32,19.58Z"/><path class="cls-1" d="M32.43,34.64h-.82a.23.23,0,0,1-.22-.2l-.46-3.67A1.09,1.09,0,0,1,32,29.53h0a1.1,1.1,0,0,1,1.09,1.24l-.46,3.67A.23.23,0,0,1,32.43,34.64Z"/><path class="cls-1" d="M32,13.08a21.63,21.63,0,0,0,4-.36,18.52,18.52,0,0,0-3.63-4.58.55.55,0,0,0-.74,0A18.8,18.8,0,0,0,28,12.72,21.82,21.82,0,0,0,32,13.08Z"/><path class="cls-5" d="M23,34.92a5.52,5.52,0,0,0-5.52,5.52h11A5.52,5.52,0,0,0,23,34.92Z"/><path class="cls-5" d="M21,30.82A1.32,1.32,0,1,1,19.7,29.5,1.32,1.32,0,0,1,21,30.82Z"/><path class="cls-5" d="M18.27,33.56a.48.48,0,1,1-.47-.47A.47.47,0,0,1,18.27,33.56Z"/><path class="cls-5" d="M18.85,35.16a.23.23,0,0,1-.24.23.23.23,0,0,1-.23-.23.24.24,0,1,1,.47,0Z"/><path class="cls-5" d="M21.31,33.56a.48.48,0,1,1-.47-.47A.47.47,0,0,1,21.31,33.56Z"/><path class="cls-5" d="M41.09,34.92a5.52,5.52,0,0,1,5.51,5.52h-11A5.52,5.52,0,0,1,41.09,34.92Z"/><circle class="cls-5" cx="44.42" cy="30.82" r="1.32"/><path class="cls-5" d="M45.85,33.56a.47.47,0,0,0,.47.48.48.48,0,1,0,0-.95A.47.47,0,0,0,45.85,33.56Z"/><path class="cls-5" d="M45.26,35.16a.24.24,0,0,0,.48,0,.24.24,0,0,0-.48,0Z"/><path class="cls-5" d="M42.81,33.56a.47.47,0,0,0,.47.48.48.48,0,1,0,0-.95A.47.47,0,0,0,42.81,33.56Z"/></svg>