<svg id="Layer_1" data-name="Layer 1" xmlns="http://www.w3.org/2000/svg" viewBox="0 0 64 64"><defs><style>.cls-1{fill:#dfe8f4;}.cls-2{fill:#ff5454;}.cls-3{fill:#dd1515;}.cls-4{fill:#fff;}</style></defs><title>digital marketing, marketing, content marketing, search, find, email, address</title><path class="cls-1" d="M55,54.93a3.65,3.65,0,0,1-5.17,0L38.73,43.87a3.65,3.65,0,0,1,5.17-5.16L55,49.77A3.66,3.66,0,0,1,55,54.93Z"/><path class="cls-2" d="M19.76,39.56a14.14,14.14,0,1,1,17.22,0A14.15,14.15,0,0,1,19.76,39.56Z"/><path class="cls-1" d="M54.89,49.7,49.18,44a7.72,7.72,0,0,1-1.84-8.22A20.38,20.38,0,1,0,35.77,47.33a7.81,7.81,0,0,1,8.29,1.87l5.73,5.73a3.66,3.66,0,0,0,5.65-.59A3.72,3.72,0,0,0,54.89,49.7ZM19.76,39.56a14.14,14.14,0,1,1,17.22,0A14.15,14.15,0,0,1,19.76,39.56Z"/><path class="cls-3" d="M51.48,46.3l-5.16,5.16,3.47,3.47A3.65,3.65,0,1,0,55,49.77Z"/><rect class="cls-2" x="46.04" y="48.55" width="7.3" height="2.21" transform="translate(-20.56 49.68) rotate(-45)"/><path class="cls-4" d="M28.37,31.75a3.41,3.41,0,1,1,3.41-3.4A3.41,3.41,0,0,1,28.37,31.75Zm0-4.81a1.41,1.41,0,1,0,1.41,1.41A1.41,1.41,0,0,0,28.37,26.94Z"/><path class="cls-4" d="M28.37,36.16a7.82,7.82,0,1,1,7.81-7.81,1,1,0,0,1-2,0,5.81,5.81,0,1,0-5.81,5.81,5.75,5.75,0,0,0,3.42-1.11A1,1,0,1,1,33,34.66,7.74,7.74,0,0,1,28.37,36.16Z"/><path class="cls-4" d="M33,31.75a3.21,3.21,0,0,1-3.21-3.2l2-.07v.07a1.21,1.21,0,0,0,2.41,0v-.2h2v.2A3.2,3.2,0,0,1,33,31.75Z"/></svg>