<svg width="35" height="35" viewBox="0 0 35 35" fill="none" xmlns="http://www.w3.org/2000/svg">
<path d="M24.0623 14.1395C26.2895 14.1395 28.4256 13.3946 30.0007 12.0688C31.5756 10.743 32.4605 8.94476 32.4605 7.06975C32.4605 5.19475 31.5756 3.39666 30.0007 2.0707C28.4258 0.744894 26.2896 0 24.0623 0C21.8349 0 19.699 0.744894 18.1239 2.0707C16.5489 3.3965 15.6641 5.19475 15.6641 7.06975C15.6667 8.94407 16.5523 10.741 18.1267 12.0663C19.7012 13.3916 21.8357 14.1371 24.0621 14.1394L24.0623 14.1395ZM22.6216 7.36455C21.7465 7.36455 20.9379 6.97153 20.5003 6.33356C20.0628 5.69556 20.0628 4.90957 20.5003 4.27157C20.9379 3.63357 21.7465 3.24059 22.6216 3.24059H23.0125V2.35688H23.7123V3.24059H24.4122V2.35688H25.112V3.24059H25.5029C26.1468 3.24587 26.7621 3.46594 27.2135 3.85245C27.665 4.23908 27.9159 4.76045 27.9114 5.30258H27.2116C27.2164 4.9167 27.0392 4.54493 26.7189 4.26877C26.3986 3.99274 25.9613 3.83479 25.5029 3.82973H25.112V6.77544H25.5029C26.378 6.77544 27.1866 7.16845 27.6242 7.80642C28.0618 8.44442 28.0618 9.23041 27.6242 9.86841C27.1866 10.5064 26.378 10.8994 25.5029 10.8994H25.112V11.7831H24.4122V10.8994H23.7123V11.7831H23.0125V10.8994H22.6216C21.9777 10.8941 21.3625 10.674 20.9111 10.2875C20.4595 9.9009 20.2086 9.37953 20.2131 8.8374H20.913C20.9082 9.22328 21.0853 9.59505 21.4056 9.87121C21.7259 10.1472 22.1632 10.3052 22.6216 10.3103H23.0125V7.36455H22.6216Z" fill="#DC2434"/>
<path d="M23.0121 3.82971H22.6212C21.9962 3.82971 21.4185 4.11041 21.106 4.56615C20.7934 5.02188 20.7934 5.58328 21.106 6.03901C21.4185 6.49473 21.9962 6.77545 22.6212 6.77545H23.0121V3.82971Z" fill="#DC2434"/>
<path d="M27.2113 8.83723C27.2162 8.45135 27.039 8.07958 26.7187 7.80342C26.3984 7.52738 25.9611 7.36944 25.5027 7.36438H25.1118V10.3101H25.5027C25.9611 10.3051 26.3984 10.1471 26.7187 9.87104C27.039 9.59488 27.2162 9.22311 27.2113 8.83723Z" fill="#DC2434"/>
<path d="M23.7119 3.82971H24.4118V6.77542H23.7119V3.82971Z" fill="#DC2434"/>
<path d="M23.7119 7.36456H24.4118V10.3103H23.7119V7.36456Z" fill="#DC2434"/>
<path d="M32.2523 19.0352L29.5578 20.2609C28.1901 20.8823 26.6606 21.208 25.1065 21.2091H16.3638V20.62H23.0122C23.7623 20.62 24.4553 20.2831 24.8304 19.7363C25.2055 19.1895 25.2055 18.5157 24.8304 17.9689C24.4553 17.4221 23.7623 17.0852 23.0122 17.0852H15.5188L15.4163 16.9989C14.3632 16.1773 12.9276 15.7968 11.505 15.9622C10.0818 16.0965 8.81673 16.787 8.0902 17.826C6.18341 20.5015 0.892442 28.0067 0 29.2729L6.16759 35L13.2362 25.1703C13.4271 24.9067 13.7668 24.7453 14.1335 24.7441H25.0477C26.9801 24.7428 28.8802 24.3282 30.5703 23.5392L34.0303 21.7901C34.4912 21.5793 34.824 21.2136 34.9461 20.7841C34.9816 20.6618 34.9997 20.5363 35 20.4103C34.9969 19.859 34.6505 19.3492 34.0874 19.0677C33.5242 18.786 32.8269 18.7737 32.2502 19.0353L32.2523 19.0352Z" fill="#DC2434"/>
</svg>
