<svg width="18" height="18" viewBox="0 0 18 18" fill="none" xmlns="http://www.w3.org/2000/svg">
<path d="M14.7656 9.02344C14.7655 8.87846 14.7078 8.73946 14.6053 8.63692C14.5027 8.53439 14.3637 8.47674 14.2188 8.47656H13.6719V7.65625H14.2188V7.92969H14.7656V7.65625C14.7655 7.51127 14.7078 7.37227 14.6053 7.26973C14.5027 7.1672 14.3637 7.10955 14.2188 7.10938H13.6719V6.5625H13.125V7.10938H12.5781C12.4331 7.10955 12.2941 7.1672 12.1916 7.26973C12.0891 7.37227 12.0314 7.51126 12.0312 7.65625V8.47656C12.0314 8.62154 12.0891 8.76054 12.1916 8.86308C12.2941 8.96562 12.4331 9.02326 12.5781 9.02344H13.125V9.84375H12.5781V9.57031H12.0312V9.84375C12.0314 9.98873 12.0891 10.1277 12.1916 10.2303C12.2941 10.3328 12.4331 10.3905 12.5781 10.3906H13.125V10.9375H13.6719V10.3906H14.2188C14.3637 10.3905 14.5027 10.3328 14.6053 10.2303C14.7078 10.1277 14.7655 9.98874 14.7656 9.84375V9.02344ZM12.5781 8.47656V7.65625H13.125V8.47656H12.5781ZM14.2188 9.84375H13.6719V9.02344H14.2188V9.84375Z" fill="#DC2434"/>
<path d="M16.4063 13.3984H15.3125V12.8516H14.7656V13.3984H2.73438V12.8516H2.1875V13.3984H1.09375C0.948771 13.3986 0.809769 13.4563 0.707233 13.5588C0.604698 13.6613 0.54705 13.8003 0.546875 13.9453V14.4922C0.547103 14.7097 0.633634 14.9182 0.787383 15.072C0.941194 15.2257 1.14969 15.3123 1.36719 15.3125H16.1328C16.3503 15.3123 16.5588 15.2257 16.7126 15.072C16.8664 14.9182 16.9529 14.7097 16.9531 14.4922V13.9453C16.953 13.8003 16.8953 13.6613 16.7928 13.5588C16.6902 13.4563 16.5512 13.3986 16.4063 13.3984ZM16.4063 14.4922C16.4062 14.5647 16.3774 14.6342 16.3261 14.6855C16.2748 14.7367 16.2053 14.7656 16.1328 14.7656H1.36719C1.29467 14.7656 1.22517 14.7367 1.1739 14.6855C1.12263 14.6342 1.0938 14.5647 1.09375 14.4922V13.9453H16.4062L16.4063 14.4922Z" fill="#DC2434"/>
<path d="M16.1321 5.19531H10.6633C10.4458 5.19554 10.2373 5.28207 10.0835 5.43582C9.92977 5.58963 9.84324 5.79813 9.84302 6.01563V11.4844C9.84325 11.7019 9.92978 11.9104 10.0835 12.0642C10.2373 12.2179 10.4458 12.3045 10.6633 12.3047H16.1321C16.3496 12.3045 16.5581 12.2179 16.7119 12.0642C16.8656 11.9104 16.9522 11.7019 16.9524 11.4844V6.01563C16.9522 5.79813 16.8656 5.58963 16.7119 5.43582C16.5581 5.28207 16.3496 5.19553 16.1321 5.19531ZM16.4055 11.4844C16.4055 11.5569 16.3766 11.6264 16.3254 11.6777C16.2741 11.7289 16.2046 11.7578 16.1321 11.7578H10.6633C10.5908 11.7578 10.5213 11.7289 10.47 11.6777C10.4188 11.6264 10.3899 11.5569 10.3899 11.4844V6.01563C10.3899 5.94311 10.4188 5.87361 10.47 5.82234C10.5213 5.77107 10.5908 5.74224 10.6633 5.74219H16.1321C16.2046 5.74224 16.2741 5.77107 16.3254 5.82234C16.3766 5.87361 16.4055 5.94311 16.4055 6.01563V11.4844Z" fill="#DC2434"/>
<path d="M12.3047 4.64844V4.375C12.3045 4.23002 12.2469 4.09102 12.1443 3.98848C12.0418 3.88595 11.9028 3.8283 11.7578 3.82812H6.01563C5.79813 3.82835 5.58963 3.91488 5.43582 4.06863C5.28207 4.22244 5.19553 4.43094 5.19531 4.64844V10.1172C5.19554 10.3347 5.28207 10.5432 5.43582 10.697C5.58963 10.8507 5.79813 10.9373 6.01563 10.9375H9.29688V10.3906H6.01563C5.94311 10.3906 5.87361 10.3617 5.82234 10.3105C5.77107 10.2592 5.74224 10.1897 5.74219 10.1172V4.64844C5.74224 4.57592 5.77107 4.50642 5.82234 4.45515C5.87361 4.40388 5.94311 4.37505 6.01563 4.375H11.7578V4.64843L12.3047 4.64844Z" fill="#DC2434"/>
<path d="M1.36719 12.3047H6.83594C6.98092 12.3045 7.11992 12.2469 7.22245 12.1443C7.32499 12.0418 7.38264 11.9028 7.38281 11.7578V11.4844H6.83594V11.7578H1.36719C1.29467 11.7578 1.22517 11.7289 1.1739 11.6777C1.12263 11.6264 1.09381 11.5569 1.09375 11.4844V5.74219C1.09381 5.66967 1.12263 5.60017 1.1739 5.5489C1.22517 5.49763 1.29467 5.46881 1.36719 5.46875H4.64844V4.92188H1.36719C1.14969 4.9221 0.941194 5.00863 0.787383 5.16238C0.633631 5.31619 0.547094 5.52469 0.546875 5.74219V11.4844C0.547103 11.7019 0.633634 11.9104 0.787383 12.0642C0.941194 12.2179 1.14969 12.3045 1.36719 12.3047V12.3047Z" fill="#DC2434"/>
<path d="M11.4844 7.10938C11.4844 7.03686 11.5133 6.96736 11.5645 6.91609C11.6158 6.86482 11.6853 6.83599 11.7578 6.83594H12.0313V6.28906H11.7578C11.5403 6.28929 11.3318 6.37582 11.178 6.52957C11.0243 6.68338 10.9377 6.89188 10.9375 7.10938V7.65625H11.4844L11.4844 7.10938Z" fill="#DC2434"/>
<path d="M11.4844 10.3906V10.1172H10.9375V10.3906C10.9377 10.6081 11.0243 10.8166 11.178 10.9704C11.3318 11.1242 11.5403 11.2107 11.7578 11.2109H12.0313V10.6641H11.7578C11.6853 10.664 11.6158 10.6352 11.5645 10.5839C11.5133 10.5326 11.4844 10.4631 11.4844 10.3906L11.4844 10.3906Z" fill="#DC2434"/>
<path d="M15.3125 10.3906C15.3124 10.4631 15.2836 10.5326 15.2324 10.5839C15.1811 10.6352 15.1116 10.664 15.0391 10.6641H14.7656V11.2109H15.0391C15.2566 11.2107 15.4651 11.1242 15.6189 10.9704C15.7726 10.8166 15.8592 10.6081 15.8594 10.3906V10.1172H15.3125L15.3125 10.3906Z" fill="#DC2434"/>
<path d="M15.0383 6.28906H14.7649V6.83594H15.0383C15.1108 6.83599 15.1803 6.86482 15.2316 6.91609C15.2829 6.96736 15.3117 7.03686 15.3118 7.10938V7.38281H15.8586V7.10938C15.8584 6.89188 15.7719 6.68338 15.6181 6.52957C15.4643 6.37582 15.2558 6.28928 15.0383 6.28906L15.0383 6.28906Z" fill="#DC2434"/>
<path d="M7.38281 6.5625C7.52779 6.56233 7.66679 6.50468 7.76933 6.40214C7.87187 6.2996 7.92951 6.16061 7.92969 6.01563V5.46875C7.92952 5.32377 7.87187 5.18477 7.76933 5.08223C7.66679 4.9797 7.5278 4.92205 7.38281 4.92188H6.83594C6.69096 4.92205 6.55196 4.9797 6.44942 5.08223C6.34689 5.18477 6.28924 5.32376 6.28906 5.46875V6.01563C6.28923 6.1606 6.34688 6.29961 6.44942 6.40214C6.55196 6.50468 6.69095 6.56233 6.83594 6.5625H7.38281ZM6.83594 5.46875H7.38281L7.38321 6.01563H6.83594L6.83594 5.46875Z" fill="#DC2434"/>
<path d="M6.28906 7.10938H6.83594V7.65625H6.28906V7.10938Z" fill="#DC2434"/>
<path d="M7.38281 7.10938H9.29688V7.65625H7.38281V7.10938Z" fill="#DC2434"/>
<path d="M6.28906 8.20312H6.83594V8.75H6.28906V8.20312Z" fill="#DC2434"/>
<path d="M7.38281 8.20312H9.29688V8.75H7.38281V8.20312Z" fill="#DC2434"/>
<path d="M1.64062 10.3906H2.1875V10.9375H1.64062V10.3906Z" fill="#DC2434"/>
<path d="M2.73438 10.3906H4.64844V10.9375H2.73438V10.3906Z" fill="#DC2434"/>
<path d="M6.28906 9.29688H6.83594V9.84375H6.28906V9.29688Z" fill="#DC2434"/>
<path d="M7.38281 9.29688H9.29688V9.84375H7.38281V9.29688Z" fill="#DC2434"/>
<path d="M8.47656 6.01562H9.29688V6.5625H8.47656V6.01562Z" fill="#DC2434"/>
<path d="M8.47656 4.92188H9.29688V5.46875H8.47656V4.92188Z" fill="#DC2434"/>
<path d="M4.10147 8.20312H4.64835V7.65625H4.10147C4.02895 7.65619 3.95946 7.62736 3.90819 7.5761C3.85691 7.52483 3.82809 7.45533 3.82803 7.38281V6.59297C3.97199 6.62123 4.11041 6.67261 4.2379 6.74514L4.5119 6.27198C3.91969 5.93013 3.19006 5.93018 2.59784 6.27209C2.00569 6.61406 1.64087 7.24587 1.64087 7.92964C1.64087 8.6134 2.00569 9.24527 2.59784 9.58718C3.19 9.92908 3.91963 9.92914 4.5119 9.58729L4.2379 9.11414C3.89064 9.31442 3.47296 9.35225 3.09532 9.21759C2.71769 9.08286 2.41822 8.78926 2.27615 8.41437C2.13402 8.03947 2.16364 7.62111 2.35704 7.26997C2.5505 6.91877 2.88831 6.67023 3.28114 6.59002V7.3827C3.28137 7.60019 3.3679 7.80869 3.52165 7.9625C3.67546 8.11625 3.88396 8.20279 4.10146 8.20301L4.10147 8.20312Z" fill="#DC2434"/>
<path d="M2.73437 3.00781C2.73443 2.93529 2.76325 2.8658 2.81452 2.81453C2.86579 2.76325 2.93529 2.73443 3.00781 2.73437H14.4922C14.5647 2.73443 14.6342 2.76326 14.6855 2.81453C14.7367 2.86579 14.7656 2.93529 14.7656 3.00781V4.375H15.3125V3.00781C15.3123 2.79032 15.2257 2.58182 15.072 2.42801C14.9182 2.27426 14.7097 2.18772 14.4922 2.1875H3.00781C2.79032 2.18773 2.58182 2.27426 2.42801 2.42801C2.27426 2.58182 2.18772 2.79032 2.1875 3.00781V4.375H2.73438L2.73437 3.00781Z" fill="#DC2434"/>
</svg>
