<svg id="Layer_1" data-name="Layer 1" xmlns="http://www.w3.org/2000/svg" viewBox="0 0 65 65"><defs><style>.cls-1{fill:#dfe8f4;}.cls-2{fill:#dd1515;}.cls-3{fill:#ff5454;}</style></defs><title>door, front, real, estate, property</title><path class="cls-1" d="M55.07,56.52H9.93A1.43,1.43,0,0,1,8.5,55.09h0a1.43,1.43,0,0,1,1.43-1.43H55.07a1.43,1.43,0,0,1,1.43,1.43h0A1.43,1.43,0,0,1,55.07,56.52Z"/><path class="cls-2" d="M21.38,8.48h22.4a7,7,0,0,1,7,7V53.66a0,0,0,0,1,0,0H14.33a0,0,0,0,1,0,0V15.53A7,7,0,0,1,21.38,8.48Z"/><path class="cls-3" d="M32.5,8.48H21.38a7,7,0,0,0-7,7V53.66H32.5Z"/><circle class="cls-1" cx="26.54" cy="31.07" r="1.62"/></svg>