<svg id="Layer_1" data-name="Layer 1" xmlns="http://www.w3.org/2000/svg" viewBox="0 0 64 64"><defs><style>.cls-1{fill:#F4DFDF;}.cls-2{fill:#e5cccc;}.cls-3{fill:#FC0707;}.cls-4{fill:#fff;}.cls-5{fill:#DD1515;}</style></defs><title>e-commerce, commerce, shopping, delivery, pickup, location, map, pin</title><path class="cls-1" d="M52,56H11.08a2.64,2.64,0,0,1-2.52-3.39L17,24.5a2.65,2.65,0,0,1,2.52-1.88H43.58A2.63,2.63,0,0,1,46.1,24.5l8.43,28.11A2.63,2.63,0,0,1,52,56Z"/><path class="cls-1" d="M52,56H11.08a2.64,2.64,0,0,1-2.52-3.39L17,24.5a2.65,2.65,0,0,1,2.52-1.88H43.58A2.63,2.63,0,0,1,46.1,24.5l8.43,28.11A2.63,2.63,0,0,1,52,56Z"/><path class="cls-2" d="M45.5,43.06a2,2,0,0,0-1-1.32l-11-5.93V22.62h-4v5.3H16l-1.2,4H29.55V35.5l-20,20a2.63,2.63,0,0,0,1.52.5h3.63L31.47,39.23l10.33,5.6L44.3,56h4.09Z"/><path class="cls-3" d="M52.17,27.73l-7.62,7.62a.78.78,0,0,1-1.1,0l-7.61-7.62a11.53,11.53,0,0,1,0-16.32h0a11.55,11.55,0,0,1,16.33,0h0A11.53,11.53,0,0,1,52.17,27.73Z"/><path class="cls-4" d="M45.25,38A1.25,1.25,0,1,1,44,36.73,1.25,1.25,0,0,1,45.25,38Z"/><path class="cls-5" d="M48.43,15.29H45.78V18.6a.24.24,0,0,1-.24.24H42.47a.24.24,0,0,1-.24-.24V15.29H39.57a1,1,0,0,0-.94.95v7.52a1,1,0,0,0,.94.95h8.86a1,1,0,0,0,1-.95V16.24A1,1,0,0,0,48.43,15.29Z"/></svg>