<svg id="Layer_1" data-name="Layer 1" xmlns="http://www.w3.org/2000/svg" viewBox="0 0 64 64"><defs><style>.cls-1{fill:#ff5454;}.cls-2{fill:#dd1515;}.cls-3{fill:#fff;}</style></defs><title>e-commerce, commerce, shopping, location, map, pin, store</title><path class="cls-1" d="M44.55,38.34,32.84,50a1.2,1.2,0,0,1-1.68,0L19.45,38.34a17.77,17.77,0,0,1,0-25.1h0a17.77,17.77,0,0,1,25.1,0h0A17.77,17.77,0,0,1,44.55,38.34Z"/><path class="cls-2" d="M33.92,54.08A1.92,1.92,0,1,1,32,52.17,1.92,1.92,0,0,1,33.92,54.08Z"/><path class="cls-3" d="M41.09,24h0a1.19,1.19,0,0,0-.17-.36l-2.29-3.38a4.35,4.35,0,0,0-3.58-1.89H29a4.35,4.35,0,0,0-3.58,1.89L23.08,23.6a1.19,1.19,0,0,0-.17.36h0a1.47,1.47,0,0,0-.07.41v1.1a.78.78,0,0,0,.78.77h.63v7.4a.49.49,0,0,0,.49.49h1.05a.49.49,0,0,0,.49-.49V30a2,2,0,0,1,1.59-2,1.91,1.91,0,0,1,2.23,1.88v3.72a.49.49,0,0,0,.49.49h8.67a.49.49,0,0,0,.49-.49v-7.4h.63a.78.78,0,0,0,.78-.77v-1.1A1.47,1.47,0,0,0,41.09,24Zm-3.37,7.16a.35.35,0,0,1-.35.35h-5a.35.35,0,0,1-.35-.35V28.36a.35.35,0,0,1,.35-.35h5a.35.35,0,0,1,.35.35Z"/></svg>