<svg id="Layer_1" data-name="Layer 1" xmlns="http://www.w3.org/2000/svg" viewBox="0 0 64 64"><defs><style>.cls-1{fill:#dfe8f4;}.cls-2{fill:#ccd8e5;}.cls-3{fill:#ff5454;}.cls-4{fill:#dd1515;}.cls-5{fill:#fff;}</style></defs><title>e-commerce, commerce, shopping, checklist, clipboard, clipchart</title><rect class="cls-1" x="13.33" y="13.36" width="37.33" height="42.64" rx="4.42"/><path class="cls-2" d="M21.5,13.56H42.17a0,0,0,0,1,0,0v1.83a2.49,2.49,0,0,1-2.49,2.49H24a2.49,2.49,0,0,1-2.49-2.49V13.56A0,0,0,0,1,21.5,13.56Z"/><path class="cls-3" d="M39.68,11.07H37.13A2.83,2.83,0,0,1,34.7,9.58a3.1,3.1,0,0,0-5.4,0,2.82,2.82,0,0,1-2.43,1.49H24.33a2.58,2.58,0,0,0-2.83,2.49v.84a1.26,1.26,0,0,0,1.26,1.26H40.91a1.27,1.27,0,0,0,1.26-1.26v-.84A2.48,2.48,0,0,0,39.68,11.07Z"/><path class="cls-4" d="M34.7,9.58a3.1,3.1,0,0,0-5.4,0,2.82,2.82,0,0,1-2.43,1.49H37.13A2.83,2.83,0,0,1,34.7,9.58Z"/><path class="cls-5" d="M24.15,31.42,22,29.26a1.57,1.57,0,0,1-.22-2,1.52,1.52,0,0,1,2.32-.2l.74.73,3.08-3.07a1.58,1.58,0,0,1,2-.23,1.53,1.53,0,0,1,.19,2.33L25.5,31.42A1,1,0,0,1,24.15,31.42Z"/><rect class="cls-2" x="33.51" y="24.85" width="8.65" height="1.19"/><rect class="cls-2" x="33.51" y="27.36" width="8.65" height="1.19"/><rect class="cls-2" x="33.51" y="29.87" width="4.33" height="1.19"/><path class="cls-5" d="M24.15,44.88,22,42.72a1.57,1.57,0,0,1-.22-2,1.52,1.52,0,0,1,2.32-.2l.74.74,3.08-3.08a1.58,1.58,0,0,1,2-.23,1.53,1.53,0,0,1,.19,2.33L25.5,44.88A1,1,0,0,1,24.15,44.88Z"/><rect class="cls-2" x="33.51" y="38.31" width="8.65" height="1.19"/><rect class="cls-2" x="33.51" y="40.82" width="8.65" height="1.19"/><rect class="cls-2" x="33.51" y="43.33" width="4.33" height="1.19"/></svg>