<svg id="Layer_1" data-name="Layer 1" xmlns="http://www.w3.org/2000/svg" viewBox="0 0 64 64"><defs><style>.cls-1{fill:#ff5454;}.cls-2{fill:#dd1515;}.cls-3{fill:#dfe8f4;}.cls-4{fill:#ccd8e5;}.cls-5{fill:#fff;}</style></defs><title>e-commerce, commerce, shopping, buy, click, hand, gesture</title><rect class="cls-1" x="8" y="8" width="44" height="20.13" rx="3.85"/><path class="cls-2" d="M48.15,27.06H37.23l-1.34-6.38-.21.52a18.35,18.35,0,0,0-1,3.3,3.27,3.27,0,0,1-3.18,2.56H11.85A3.85,3.85,0,0,1,8,23.21v1.06a3.85,3.85,0,0,0,3.85,3.85h36.3A3.85,3.85,0,0,0,52,24.27V23.21A3.85,3.85,0,0,1,48.15,27.06Z"/><path class="cls-2" d="M48.15,28.12A3.85,3.85,0,0,0,52,24.27v-.18H50.9a13.34,13.34,0,0,1-9.43-3.91L40,18.73l-.67,9.39Z"/><path class="cls-3" d="M56,43.29l-.12-1.58a7.68,7.68,0,0,0-5.62-6.84l-7.88-2.18a.93.93,0,0,1-.68-.8L40.44,19.55a1.26,1.26,0,0,0-1.25-1.13A3.53,3.53,0,0,0,35.66,22V36.53a3.6,3.6,0,0,1-1,2.52l-1.16,1.19a6.23,6.23,0,0,0-.57,8l2.16,3a2.71,2.71,0,0,1,.51,1.58V56H53.16l-.37-2.57a2.07,2.07,0,0,1,.47-1.65A11.93,11.93,0,0,0,56,43.29Z"/><path class="cls-4" d="M33.47,40.24a6.27,6.27,0,0,0-1,1.35h0A3,3,0,0,1,34,43.25h0a.82.82,0,0,0,.78.54h0a.84.84,0,0,0,.84-.84V36.53a3.6,3.6,0,0,1-1,2.52Z"/><polygon class="cls-4" points="35.57 56 53.16 56 52.92 54.38 35.57 54.38 35.57 56"/><path class="cls-5" d="M19.76,19.42a2.59,2.59,0,0,1-.29,1.31,2.12,2.12,0,0,1-.79.81,3.4,3.4,0,0,1-1.2.42,8.89,8.89,0,0,1-1.51.12c-.43,0-.82,0-1.16,0l-1.12-.13V13.34c.3-.05.64-.09,1-.13s.78,0,1.26,0a7.24,7.24,0,0,1,1.27.11,3.12,3.12,0,0,1,1,.38,2,2,0,0,1,.7.72,2.21,2.21,0,0,1,.26,1.14,2,2,0,0,1-.25,1,2,2,0,0,1-.64.72,2.77,2.77,0,0,1,.54.28,2,2,0,0,1,.77,1.05A2.64,2.64,0,0,1,19.76,19.42Zm-4-2.81h.33a1.37,1.37,0,0,0,.81-.21.84.84,0,0,0,.28-.73.82.82,0,0,0-.1-.42.81.81,0,0,0-.26-.26,1,1,0,0,0-.34-.13,2.58,2.58,0,0,0-.38,0h-.17l-.17,0Zm0,1.7v2l.21,0h.33a2.45,2.45,0,0,0,.46,0,1.75,1.75,0,0,0,.42-.16,1,1,0,0,0,.31-.32.91.91,0,0,0,.11-.49.85.85,0,0,0-.37-.8,1.92,1.92,0,0,0-1-.23Z"/><path class="cls-5" d="M24.11,22.07a4.43,4.43,0,0,1-1.62-.26,2.32,2.32,0,0,1-1-.77,3,3,0,0,1-.52-1.2,7.7,7.7,0,0,1-.15-1.6v-4.9a5.3,5.3,0,0,1,.6-.07l.48,0,.45,0a5.42,5.42,0,0,1,.59.07V18A9.63,9.63,0,0,0,23,19a2.17,2.17,0,0,0,.17.68.74.74,0,0,0,.36.38,1.28,1.28,0,0,0,.6.12,1.31,1.31,0,0,0,.6-.12.71.71,0,0,0,.36-.38,1.93,1.93,0,0,0,.17-.68,10,10,0,0,0,0-1V13.34a5.72,5.72,0,0,1,.61-.07l.45,0,.47,0a5.87,5.87,0,0,1,.6.07v4.9a7.7,7.7,0,0,1-.15,1.6,3,3,0,0,1-.53,1.2,2.26,2.26,0,0,1-1,.77A4.41,4.41,0,0,1,24.11,22.07Z"/><path class="cls-5" d="M33.27,13.34a5.4,5.4,0,0,1,.58-.08l.61,0,.53,0a5.42,5.42,0,0,1,.55.07l-2.67,5.5V21.9a5.85,5.85,0,0,1-1.06.11,5.7,5.7,0,0,1-1.07-.11V18.84l-.65-1.35-.69-1.4c-.22-.47-.45-.94-.67-1.4l-.65-1.35a4.47,4.47,0,0,1,.55-.07l.66,0,.56,0c.2,0,.38,0,.53.07l1.48,3.33Z"/></svg>