<svg id="Layer_1" data-name="Layer 1" xmlns="http://www.w3.org/2000/svg" viewBox="0 0 64 64"><defs><style>.cls-1{fill:#dfe8f4;}.cls-2{fill:#ccd8e5;}.cls-3{fill:#ff5454;}.cls-4{fill:#dd1515;}.cls-5{fill:#fff;}</style></defs><title>e-commerce, commerce, shopping, download, sticker, cart</title><path class="cls-1" d="M36.23,53.43H30.78a1.33,1.33,0,0,1-1.29-1l-1.84-8a1.39,1.39,0,0,1,.77-1.59,1.33,1.33,0,0,1,1.8.93l1.56,6.75a.31.31,0,0,0,.31.25h4.07a1.38,1.38,0,0,1,1.38,1.1A1.33,1.33,0,0,1,36.23,53.43Z"/><path class="cls-2" d="M30.22,43.78a1.33,1.33,0,0,0-1.8-.93,1.39,1.39,0,0,0-.77,1.59l.64,2.74H31Z"/><path class="cls-1" d="M37.18,51A2.5,2.5,0,0,0,35,54.71h-.34V56h2.51a2.52,2.52,0,1,0,0-5Z"/><path class="cls-1" d="M36.87,49.68h-2.2v.73a3.74,3.74,0,0,0-1.56,3h1.56v0h2.18v0h3.33a.4.4,0,0,0,.41-.44A3.75,3.75,0,0,0,36.87,49.68Z"/><path class="cls-1" d="M34.67,49.68a3.76,3.76,0,0,0-3.76,3.76h7.51A3.75,3.75,0,0,0,34.67,49.68Z"/><path class="cls-2" d="M37.18,53.46A2.52,2.52,0,1,0,34.67,56,2.51,2.51,0,0,0,37.18,53.46Z"/><path class="cls-1" d="M26.2,53.43H20.75a1.33,1.33,0,0,1-1.29-1l-1.84-8a1.37,1.37,0,0,1,.76-1.59,1.34,1.34,0,0,1,1.81.93l1.56,6.75a.31.31,0,0,0,.3.25h4.08a1.36,1.36,0,0,1,1.37,1.1A1.32,1.32,0,0,1,26.2,53.43Z"/><path class="cls-2" d="M20.19,43.78a1.34,1.34,0,0,0-1.81-.93,1.37,1.37,0,0,0-.76,1.59l.63,2.74H21Z"/><path class="cls-1" d="M27.15,51a2.51,2.51,0,0,0-2.52,2.51A2.42,2.42,0,0,0,25,54.71h-.35V56h2.52a2.52,2.52,0,0,0,0-5Z"/><path class="cls-1" d="M26.83,49.68h-2.2v.73a3.73,3.73,0,0,0-1.55,3h1.55v0h2.19v0h3.33a.41.41,0,0,0,.41-.44A3.76,3.76,0,0,0,26.83,49.68Z"/><path class="cls-1" d="M24.63,49.68a3.75,3.75,0,0,0-3.75,3.76h7.51A3.76,3.76,0,0,0,24.63,49.68Z"/><path class="cls-2" d="M27.15,53.46A2.52,2.52,0,1,0,24.63,56,2.51,2.51,0,0,0,27.15,53.46Z"/><path class="cls-1" d="M9.62,27.76h1.43a1,1,0,0,1,1,.76l1.5,5.35h3.74L15.55,27.7a4.34,4.34,0,0,0-4.17-3.17H9.71A1.67,1.67,0,0,0,8,26,1.61,1.61,0,0,0,9.62,27.76Z"/><polygon class="cls-2" points="13.54 33.87 17.28 33.87 16.36 30.59 12.63 30.59 13.54 33.87"/><path class="cls-1" d="M20.23,27.76h1.43a1,1,0,0,1,1,.76l1.49,5.35h3.74L26.17,27.7A4.36,4.36,0,0,0,22,24.53H20.32A1.67,1.67,0,0,0,18.62,26,1.61,1.61,0,0,0,20.23,27.76Z"/><polygon class="cls-2" points="24.15 33.87 27.89 33.87 26.97 30.59 23.24 30.59 24.15 33.87"/><path class="cls-1" d="M41,47.28H28.63a2.28,2.28,0,0,1-2.21-1.68L22.65,32.11h23a1,1,0,0,1,.94,1.24L43.17,45.6A2.29,2.29,0,0,1,41,47.28Z"/><path class="cls-2" d="M45.65,32.11H13.05l4.11,14.74a.59.59,0,0,0,.57.43H29.88A4.23,4.23,0,0,0,34,44.18l2.24-8a2.5,2.5,0,0,1,2.4-1.82h6.66a1.38,1.38,0,0,0,1.33-1h0A1,1,0,0,0,45.65,32.11Z"/><rect class="cls-1" x="18.7" y="35.97" width="1.36" height="1.36" rx="0.36"/><rect class="cls-1" x="22.57" y="35.97" width="1.36" height="1.36" rx="0.36"/><rect class="cls-1" x="26.45" y="35.97" width="1.36" height="1.36" rx="0.36"/><rect class="cls-1" x="30.33" y="35.97" width="1.36" height="1.36" rx="0.36"/><rect class="cls-1" x="20.63" y="39.02" width="1.36" height="1.36" rx="0.36"/><rect class="cls-1" x="24.51" y="39.02" width="1.36" height="1.36" rx="0.36"/><rect class="cls-1" x="28.39" y="39.02" width="1.36" height="1.36" rx="0.36"/><rect class="cls-1" x="22.57" y="42.07" width="1.36" height="1.36" rx="0.36"/><rect class="cls-1" x="26.45" y="42.07" width="1.36" height="1.36" rx="0.36"/><path class="cls-3" d="M56,20.93a4.11,4.11,0,0,0-.87-2.54,1.76,1.76,0,0,1-.34-1.27,4.17,4.17,0,0,0-2.54-4.41,1.7,1.7,0,0,1-.93-.93,4.16,4.16,0,0,0-4.41-2.55,1.69,1.69,0,0,1-1.27-.34,4.17,4.17,0,0,0-5.1,0,1.69,1.69,0,0,1-1.27.34,4.18,4.18,0,0,0-4.41,2.55,1.7,1.7,0,0,1-.93.93,4.17,4.17,0,0,0-2.54,4.41,1.76,1.76,0,0,1-.34,1.27,4.16,4.16,0,0,0,0,5.09,1.75,1.75,0,0,1,.34,1.27,4.14,4.14,0,0,0,.52,2.64h0a4.17,4.17,0,0,0,2,1.77,1.7,1.7,0,0,1,.93.93,4.21,4.21,0,0,0,4.41,2.55,1.69,1.69,0,0,1,1.27.34,4.21,4.21,0,0,0,5.1,0,1.69,1.69,0,0,1,1.27-.34,4.19,4.19,0,0,0,4.41-2.55,1.7,1.7,0,0,1,.93-.93,4.17,4.17,0,0,0,2-1.77h0a4.14,4.14,0,0,0,.52-2.64,1.75,1.75,0,0,1,.34-1.27A4.14,4.14,0,0,0,56,20.93Z"/><path class="cls-4" d="M46.51,32.64a1,1,0,0,0-.86-.53h-9a4.19,4.19,0,0,0,2.63.53,1.69,1.69,0,0,1,1.27.34,4.21,4.21,0,0,0,5.1,0A1.62,1.62,0,0,1,46.51,32.64Z"/><path class="cls-5" d="M38.55,20.65l3.84,5a.88.88,0,0,0,1.4,0l3.84-5a.89.89,0,0,0-.71-1.43H46V16.9a1,1,0,0,0-1-1H41.15a1,1,0,0,0-1,1v2.32h-.89A.89.89,0,0,0,38.55,20.65Z"/></svg>