<svg id="Layer_1" data-name="Layer 1" xmlns="http://www.w3.org/2000/svg" viewBox="0 0 64 64"><defs><style>.cls-1{fill:#FC0707;}.cls-2{fill:#DD1515;}.cls-3{fill:#e5cccc;}.cls-4{fill:#F4DFDF;}.cls-5{fill:#fff;}</style></defs><title>e-commerce, commerce, shopping, sale, sign</title><rect class="cls-1" x="8" y="29.5" width="48" height="26.5" rx="2.26"/><path class="cls-2" d="M41.28,32.39a1,1,0,0,0,.92.61,1.09,1.09,0,0,0,.39-.08,1,1,0,0,0,.53-1.31l-.89-2.11H40.05Z"/><path class="cls-2" d="M24.52,29.5l-.89,2.11a1,1,0,0,0,.53,1.31,1.09,1.09,0,0,0,.39.08,1,1,0,0,0,.92-.61L26.7,29.5Z"/><rect class="cls-2" x="23" y="32.05" width="1.48" height="0.95"/><rect class="cls-2" x="40.89" y="32.05" width="1.48" height="0.95"/><path class="cls-3" d="M40.83,33a1,1,0,0,1-.92-.61L31.08,11.64a1,1,0,0,1,1.84-.78l8.83,20.75a1,1,0,0,1-.53,1.31A1.09,1.09,0,0,1,40.83,33Z"/><path class="cls-4" d="M23.17,33a1.09,1.09,0,0,1-.39-.08,1,1,0,0,1-.53-1.31l8.83-20.75a1,1,0,0,1,1.84.78L24.09,32.39A1,1,0,0,1,23.17,33Z"/><path class="cls-2" d="M34.65,12.49A2.65,2.65,0,1,1,32,9.83,2.65,2.65,0,0,1,34.65,12.49Z"/><path class="cls-5" d="M17.54,45.23a5.36,5.36,0,0,0,2.33.58c1,0,1.47-.4,1.47-1s-.44-.91-1.55-1.31c-1.55-.54-2.55-1.39-2.55-2.74,0-1.58,1.32-2.79,3.51-2.79a5.63,5.63,0,0,1,2.36.47l-.46,1.69a4.42,4.42,0,0,0-1.94-.44c-.91,0-1.35.41-1.35.89s.52.86,1.72,1.31c1.64.61,2.4,1.46,2.4,2.77,0,1.55-1.19,2.87-3.74,2.87A6.16,6.16,0,0,1,17.12,47Z"/><path class="cls-5" d="M27.07,45l-.66,2.38H24.23l2.84-9.27h2.75l2.87,9.27H30.44L29.72,45Zm2.35-1.57-.58-2c-.16-.55-.33-1.24-.47-1.79h0c-.14.55-.28,1.25-.43,1.79l-.55,2Z"/><path class="cls-5" d="M33.94,38.12H36v7.51h3.69v1.76H33.94Z"/><path class="cls-5" d="M46.48,43.47H43.07v2.2h3.81v1.72H41V38.12h5.72v1.72H43.07v1.93h3.41Z"/></svg>