<svg id="Layer_1" data-name="Layer 1" xmlns="http://www.w3.org/2000/svg" viewBox="0 0 64 64"><defs><style>.cls-1{fill:#dfe8f4;}.cls-2{fill:#ccd8e5;}.cls-3{fill:#ff5454;}.cls-4{fill:#dd1515;}</style></defs><title>e-commerce, commerce, shopping, chart, analytics, statistics, finance</title><path class="cls-1" d="M32,32H56a23.9,23.9,0,0,0-6.55-16.47Z"/><path class="cls-2" d="M49.45,15.53l-6.73,6.36a14.69,14.69,0,0,1,4,10.11H56A23.9,23.9,0,0,0,49.45,15.53Z"/><path class="cls-1" d="M32,15A17,17,0,1,1,15,32,17,17,0,0,1,32,15m0-7A24,24,0,1,0,56,32,24,24,0,0,0,32,8Z"/><path class="cls-2" d="M49,32c0,.46,0,.92-.07,1.38h7c0-.46,0-.92,0-1.38s0-.67,0-1H49C49,31.33,49,31.66,49,32Z"/><path class="cls-3" d="M32,8v7A17,17,0,0,1,49,32h7A24,24,0,0,0,32,8Z"/><path class="cls-4" d="M44.35,20.35A16.93,16.93,0,0,1,49,32h7a23.9,23.9,0,0,0-6.55-16.47Z"/><path class="cls-3" d="M24.86,33.72a1,1,0,1,1,.87-1.49.93.93,0,0,0,.79.5h0a1.1,1.1,0,0,0,.93-1.7,3.16,3.16,0,0,0-1.17-1,.67.67,0,0,1-.36-.61h0a1,1,0,0,0-1-1.05h0a1,1,0,0,0-1.05,1.05h0a.71.71,0,0,1-.37.62,3.13,3.13,0,0,0-1.21,4.43,3,3,0,0,0,2.64,1.39A1,1,0,1,1,24,37.31a.93.93,0,0,0-.79-.5h0a1.1,1.1,0,0,0-.9,1.73,3.05,3.05,0,0,0,1.14,1,.7.7,0,0,1,.36.62h0a1,1,0,0,0,1.05,1.05h0a1,1,0,0,0,1-1.05h0a.7.7,0,0,1,.37-.62,3.14,3.14,0,0,0,1.18-4.49A3,3,0,0,0,24.86,33.72Z"/></svg>