<svg id="Layer_1" data-name="Layer 1" xmlns="http://www.w3.org/2000/svg" viewBox="0 0 64 64"><defs><style>.cls-1{fill:#dfe8f4;}.cls-2{fill:#fff;}.cls-3{fill:#ff5454;}.cls-4{fill:#dd1515;}</style></defs><title>e-commerce, commerce, shopping, smartphone, qr, code, scan</title><rect class="cls-1" x="16.67" y="8" width="30.67" height="48" rx="5.39"/><path class="cls-2" d="M22.06,8a5.39,5.39,0,0,0-5.39,5.39V50.61a5.37,5.37,0,0,0,3.66,5.08A5.19,5.19,0,0,1,20,54V33.69a2,2,0,0,0-2-2h0V30.58h0a2,2,0,0,0,2-2V14a2.66,2.66,0,0,1,2.66-2.66H35L36.62,8Z"/><path class="cls-3" d="M41.94,8H22.06a5.39,5.39,0,0,0-5.39,5.39V50.61A5.39,5.39,0,0,0,22.06,56H41.94a5.39,5.39,0,0,0,5.39-5.39V13.39A5.39,5.39,0,0,0,41.94,8Zm3.39,42.61A3.39,3.39,0,0,1,41.94,54H22.06a3.39,3.39,0,0,1-3.39-3.39V13.39A3.39,3.39,0,0,1,22.06,10h2.51a1.82,1.82,0,0,1,1.42.67h0a1.84,1.84,0,0,0,1.42.66h9.18A1.84,1.84,0,0,0,38,10.67h0A1.82,1.82,0,0,1,39.43,10h2.51a3.39,3.39,0,0,1,3.39,3.39Z"/><path class="cls-4" d="M16.56,20.91h.11a0,0,0,0,1,0,0v3.69a0,0,0,0,1,0,0h-.11a.37.37,0,0,1-.37-.37v-3A.37.37,0,0,1,16.56,20.91Z"/><path class="cls-4" d="M16.56,25.36h.11a0,0,0,0,1,0,0V29a0,0,0,0,1,0,0h-.11a.37.37,0,0,1-.37-.37v-3A.37.37,0,0,1,16.56,25.36Z"/><path class="cls-4" d="M47.7,20.91h.11a0,0,0,0,1,0,0v3.69a0,0,0,0,1,0,0H47.7a.37.37,0,0,1-.37-.37v-3A.37.37,0,0,1,47.7,20.91Z" transform="translate(95.14 45.5) rotate(180)"/><path class="cls-3" d="M29.38,21H23.94v5.43h5.44Zm-2,3.43H25.94V23h1.44Z"/><path class="cls-4" d="M23.94,37.11h5.44V31.67H23.94Zm2-3.44h1.44v1.44H25.94Z"/><path class="cls-4" d="M34.62,21v5.43h5.44V21Zm3.44,3.43H36.62V23h1.44Z"/><rect class="cls-4" x="23.94" y="27.9" width="3.23" height="2"/><rect class="cls-3" x="30.81" y="35.11" width="3.23" height="2"/><polygon class="cls-3" points="30.81 31.77 30.81 33.77 32.81 33.77 32.81 31.67 30.81 31.77"/><polygon class="cls-4" points="36.04 31.67 34.04 31.77 34.04 33.77 36.04 33.77 36.04 31.67"/><polygon class="cls-4" points="34.04 27.89 32.81 27.89 32.81 20.99 30.81 20.99 30.81 27.89 28.81 27.89 28.81 29.89 30.81 29.89 32.04 29.89 32.81 29.89 34.04 29.89 36.04 29.89 38.06 29.89 38.06 31.73 37.27 31.77 37.27 33.77 38.06 33.77 38.06 34.25 38.06 35.11 35.63 35.11 35.63 37.11 40.06 37.11 40.06 34.25 40.06 32.67 40.06 29.89 40.06 28.9 40.06 27.89 36.04 27.89 34.04 27.89"/><rect class="cls-2" x="26.64" y="40.5" width="13.39" height="1.19"/><rect class="cls-2" x="26.64" y="43.41" width="13.39" height="1.19"/><rect class="cls-2" x="26.64" y="46.31" width="6.69" height="1.19"/><rect class="cls-2" x="23.94" y="40.5" width="1.31" height="1.19"/><rect class="cls-2" x="23.94" y="43.41" width="1.31" height="1.19"/><rect class="cls-2" x="23.94" y="46.31" width="1.31" height="1.19"/></svg>