<svg id="Layer_1" data-name="Layer 1" xmlns="http://www.w3.org/2000/svg" viewBox="0 0 64 64"><defs><style>.cls-1{fill:#F4DFDF;}.cls-2{fill:#e5cccc;}.cls-3{fill:#FC0707;}.cls-4{fill:#fff;}</style></defs><title>e-commerce, commerce, shopping, sticker, sale, discount, hand, gesture</title><path class="cls-1" d="M8,41l4.77-1a26,26,0,0,0,5-1.54h0a11.66,11.66,0,0,1,8-.37L34.91,41a2,2,0,0,1,1.25,2.56h0a1,1,0,0,1-.95.64l-5.92-.14L35,45.38a26.59,26.59,0,0,0,10.77.23l2.48-.46a1.72,1.72,0,0,1,2,1.69h0a.85.85,0,0,1-.53.79l-3,1.23a26.63,26.63,0,0,1-13.33,1.71l-8.58-1.11c-2.69-.52-5.48.86-7.94,2.09L8,56Z"/><polygon class="cls-2" points="10.36 40.53 8.01 41 7.98 56 10.36 54.81 10.36 40.53"/><path class="cls-3" d="M56,23.5a5,5,0,0,0-1-3.06,2,2,0,0,1-.41-1.52,5,5,0,0,0-3.06-5.3A2.07,2.07,0,0,1,50.4,12.5a5,5,0,0,0-2.13-2.42,5,5,0,0,0-3.17-.63A2.11,2.11,0,0,1,43.57,9a5,5,0,0,0-3-1,5,5,0,0,0-3.06,1,2.08,2.08,0,0,1-1.53.41,5,5,0,0,0-5.29,3.05,2.05,2.05,0,0,1-1.12,1.12,5,5,0,0,0-3.05,5.3,2.07,2.07,0,0,1-.41,1.52,5,5,0,0,0,0,6.12,2.07,2.07,0,0,1,.41,1.52,5,5,0,0,0,.63,3.17h0a5,5,0,0,0,2.42,2.13,2.05,2.05,0,0,1,1.12,1.12,5,5,0,0,0,5.29,3,2.08,2.08,0,0,1,1.53.41,5,5,0,0,0,3.06,1,5,5,0,0,0,3-1,2.11,2.11,0,0,1,1.53-.41,5,5,0,0,0,3.17-.63A5,5,0,0,0,50.4,34.5a2.07,2.07,0,0,1,1.11-1.12,5,5,0,0,0,2.43-2.13h0a5,5,0,0,0,.63-3.17A2,2,0,0,1,55,26.56,5,5,0,0,0,56,23.5Z"/><path class="cls-4" d="M39.17,20.19a2,2,0,1,1-2-2A2,2,0,0,1,39.17,20.19Z"/><path class="cls-4" d="M45.79,26.81a2,2,0,1,1-2-2A2,2,0,0,1,45.79,26.81Z"/><path class="cls-4" d="M37.07,27.84a.91.91,0,0,1-.63-.26.89.89,0,0,1,0-1.26l6.9-6.9a.89.89,0,0,1,1.25,1.26l-6.89,6.9A.91.91,0,0,1,37.07,27.84Z"/></svg>