<svg id="Layer_1" data-name="Layer 1" xmlns="http://www.w3.org/2000/svg" viewBox="0 0 64 64"><defs><style>.cls-1{fill:#F4DFDF;}.cls-2{fill:#e5cccc;}.cls-3{fill:#FC0707;}.cls-4{fill:#DD1515;}.cls-5{fill:#fff;}</style></defs><title>e-commerce, commerce, shopping, clothes, clothing, sale, percentage</title><path class="cls-1" d="M24.79,28.83h0a23.44,23.44,0,0,0-15.64,6l-.79.7A1.1,1.1,0,0,0,8.2,37l3.05,4.3a1.1,1.1,0,0,0,1.53.25L15,39.94V55.46a.54.54,0,0,0,.54.54H34.08a.54.54,0,0,0,.54-.54V39.94L36.8,41.5a1.1,1.1,0,0,0,1.53-.25L41.38,37a1.09,1.09,0,0,0-.17-1.45l-.78-.7A23.44,23.44,0,0,0,24.79,28.83Z"/><path class="cls-2" d="M24.79,28.83a23.17,23.17,0,0,0-5.64.69,5.68,5.68,0,0,0,11.28,0A23.23,23.23,0,0,0,24.79,28.83Z"/><path class="cls-3" d="M53,8H36.21a3.13,3.13,0,0,0-3.13,3.13V28.65a1,1,0,0,0,1.65.68l2.14-2.14a2.61,2.61,0,0,1,1.82-.76H53a3.12,3.12,0,0,0,3.12-3.12V11.13A3.13,3.13,0,0,0,53,8Z"/><path class="cls-4" d="M33.08,28.65a1,1,0,0,0,1.65.68l2.14-2.14a2.61,2.61,0,0,1,1.82-.76H35a1.89,1.89,0,0,0-1.89,1.89Z"/><path class="cls-5" d="M43.35,14a1.82,1.82,0,1,1-1.81-1.82A1.81,1.81,0,0,1,43.35,14Z"/><path class="cls-5" d="M49.49,20.16a1.82,1.82,0,1,1-1.82-1.82A1.83,1.83,0,0,1,49.49,20.16Z"/><path class="cls-5" d="M41.41,21.11a.86.86,0,0,1-.59-.24.82.82,0,0,1,0-1.16l6.4-6.39a.8.8,0,0,1,1.16,0,.82.82,0,0,1,0,1.16L42,20.87A.82.82,0,0,1,41.41,21.11Z"/></svg>