<svg id="Layer_1" data-name="Layer 1" xmlns="http://www.w3.org/2000/svg" viewBox="0 0 64 64"><defs><style>.cls-1{fill:#dfe8f4;}.cls-2{fill:#ccd8e5;}.cls-3{fill:#ff5454;}.cls-4{fill:#dd1515;}.cls-5{fill:#fff;}</style></defs><title>e-commerce, commerce, shopping, percentage, sale, sticker, cart</title><path class="cls-1" d="M36.23,53.4H30.78a1.33,1.33,0,0,1-1.29-1l-1.84-8a1.39,1.39,0,0,1,.77-1.59,1.32,1.32,0,0,1,1.8.93l1.56,6.75a.31.31,0,0,0,.31.24h4.07a1.38,1.38,0,0,1,1.38,1.1A1.33,1.33,0,0,1,36.23,53.4Z"/><path class="cls-2" d="M30.22,43.76a1.32,1.32,0,0,0-1.8-.93,1.39,1.39,0,0,0-.77,1.59l.64,2.74H31Z"/><path class="cls-1" d="M37.18,50.92A2.5,2.5,0,0,0,35,54.68h-.34V56h2.51a2.52,2.52,0,1,0,0-5Z"/><path class="cls-1" d="M36.87,49.66h-2.2v.72a3.75,3.75,0,0,0-1.56,3h1.56v0h2.18v0h3.33a.4.4,0,0,0,.41-.43A3.75,3.75,0,0,0,36.87,49.66Z"/><path class="cls-1" d="M34.67,49.66a3.75,3.75,0,0,0-3.76,3.75h7.51A3.75,3.75,0,0,0,34.67,49.66Z"/><path class="cls-2" d="M37.18,53.44A2.52,2.52,0,1,0,34.67,56,2.51,2.51,0,0,0,37.18,53.44Z"/><path class="cls-1" d="M26.2,53.4H20.75a1.32,1.32,0,0,1-1.29-1l-1.84-8a1.37,1.37,0,0,1,.76-1.59,1.33,1.33,0,0,1,1.81.93l1.56,6.75a.31.31,0,0,0,.3.24h4.08a1.36,1.36,0,0,1,1.37,1.1A1.32,1.32,0,0,1,26.2,53.4Z"/><path class="cls-2" d="M20.19,43.76a1.33,1.33,0,0,0-1.81-.93,1.37,1.37,0,0,0-.76,1.59l.63,2.74H21Z"/><path class="cls-1" d="M27.15,50.92a2.52,2.52,0,0,0-2.52,2.52A2.41,2.41,0,0,0,25,54.68h-.35V56h2.52a2.52,2.52,0,0,0,0-5Z"/><path class="cls-1" d="M26.83,49.66h-2.2v.72a3.74,3.74,0,0,0-1.55,3h1.55v0h2.19v0h3.33a.4.4,0,0,0,.41-.43A3.76,3.76,0,0,0,26.83,49.66Z"/><path class="cls-1" d="M24.63,49.66a3.75,3.75,0,0,0-3.75,3.75h7.51A3.75,3.75,0,0,0,24.63,49.66Z"/><path class="cls-2" d="M27.15,53.44A2.52,2.52,0,1,0,24.63,56,2.52,2.52,0,0,0,27.15,53.44Z"/><path class="cls-1" d="M9.62,27.74h1.43a1,1,0,0,1,1,.75l1.5,5.36h3.74l-1.73-6.17a4.32,4.32,0,0,0-4.17-3.17H9.71A1.67,1.67,0,0,0,8,26,1.62,1.62,0,0,0,9.62,27.74Z"/><polygon class="cls-2" points="13.54 33.85 17.28 33.85 16.36 30.57 12.63 30.57 13.54 33.85"/><path class="cls-1" d="M20.23,27.74h1.43a1,1,0,0,1,1,.75l1.49,5.36h3.74l-1.72-6.17A4.34,4.34,0,0,0,22,24.51H20.32A1.67,1.67,0,0,0,18.62,26,1.62,1.62,0,0,0,20.23,27.74Z"/><polygon class="cls-2" points="24.15 33.85 27.89 33.85 26.97 30.57 23.24 30.57 24.15 33.85"/><path class="cls-1" d="M41,47.26H28.63a2.29,2.29,0,0,1-2.21-1.68L22.65,32.09h23a1,1,0,0,1,.94,1.23L43.17,45.58A2.3,2.3,0,0,1,41,47.26Z"/><path class="cls-2" d="M45.65,32.09H13.05l4.11,14.74a.6.6,0,0,0,.57.43H29.88A4.24,4.24,0,0,0,34,44.16l2.24-8a2.48,2.48,0,0,1,2.4-1.82h6.66a1.38,1.38,0,0,0,1.33-1h0A1,1,0,0,0,45.65,32.09Z"/><rect class="cls-1" x="18.7" y="35.95" width="1.36" height="1.36" rx="0.36"/><rect class="cls-1" x="22.57" y="35.95" width="1.36" height="1.36" rx="0.36"/><rect class="cls-1" x="26.45" y="35.95" width="1.36" height="1.36" rx="0.36"/><rect class="cls-1" x="30.33" y="35.95" width="1.36" height="1.36" rx="0.36"/><rect class="cls-1" x="20.63" y="39" width="1.36" height="1.36" rx="0.36"/><rect class="cls-1" x="24.51" y="39" width="1.36" height="1.36" rx="0.36"/><rect class="cls-1" x="28.39" y="39" width="1.36" height="1.36" rx="0.36"/><rect class="cls-1" x="22.57" y="42.05" width="1.36" height="1.36" rx="0.36"/><rect class="cls-1" x="26.45" y="42.05" width="1.36" height="1.36" rx="0.36"/><path class="cls-3" d="M56,20.91a4.14,4.14,0,0,0-.87-2.55,1.74,1.74,0,0,1-.34-1.27,4.16,4.16,0,0,0-.52-2.64,4.22,4.22,0,0,0-2-1.77,1.64,1.64,0,0,1-.93-.93,4.22,4.22,0,0,0-1.77-2,4.16,4.16,0,0,0-2.64-.52,1.74,1.74,0,0,1-1.27-.34,4.17,4.17,0,0,0-5.1,0,1.74,1.74,0,0,1-1.27.34,4.12,4.12,0,0,0-2.63.52,4.19,4.19,0,0,0-1.78,2,1.64,1.64,0,0,1-.93.93,4.22,4.22,0,0,0-2,1.77,4.16,4.16,0,0,0-.52,2.64,1.74,1.74,0,0,1-.34,1.27,4.17,4.17,0,0,0,0,5.1,1.74,1.74,0,0,1,.34,1.27,4.12,4.12,0,0,0,.52,2.63h0a4.19,4.19,0,0,0,2,1.78,1.64,1.64,0,0,1,.93.93,4.19,4.19,0,0,0,1.78,2,4.12,4.12,0,0,0,2.63.52,1.74,1.74,0,0,1,1.27.34,4.17,4.17,0,0,0,5.1,0,1.74,1.74,0,0,1,1.27-.34,4.16,4.16,0,0,0,2.64-.52,4.22,4.22,0,0,0,1.77-2,1.64,1.64,0,0,1,.93-.93,4.19,4.19,0,0,0,2-1.78h0a4.12,4.12,0,0,0,.52-2.63,1.74,1.74,0,0,1,.34-1.27A4.14,4.14,0,0,0,56,20.91Z"/><path class="cls-4" d="M46.51,32.61a1,1,0,0,0-.86-.52h-9a4.12,4.12,0,0,0,2.63.52,1.74,1.74,0,0,1,1.27.34,4.14,4.14,0,0,0,2.55.87A4.2,4.2,0,0,0,45.64,33,1.7,1.7,0,0,1,46.51,32.61Z"/><circle class="cls-5" cx="39.31" cy="17.13" r="2.24"/><path class="cls-5" d="M49.11,24.69a2.24,2.24,0,1,1-2.24-2.24A2.24,2.24,0,0,1,49.11,24.69Z"/><path class="cls-5" d="M39.15,25.87a1,1,0,0,1-.72-1.74l7.88-7.88a1,1,0,1,1,1.44,1.44l-7.88,7.88A1,1,0,0,1,39.15,25.87Z"/></svg>