<svg id="Layer_1" data-name="Layer 1" xmlns="http://www.w3.org/2000/svg" viewBox="0 0 64 64"><defs><style>.cls-1{fill:#ff5454;}.cls-2{fill:#dd1515;}.cls-3{fill:#fff;}</style></defs><title>e-commerce, commerce, shopping, percentage, sale, map, pin</title><path class="cls-1" d="M44.55,38.34,32.84,50a1.2,1.2,0,0,1-1.68,0L19.45,38.34a17.77,17.77,0,0,1,0-25.1h0a17.77,17.77,0,0,1,25.1,0h0A17.77,17.77,0,0,1,44.55,38.34Z"/><path class="cls-2" d="M33.92,54.08A1.92,1.92,0,1,1,32,52.17,1.92,1.92,0,0,1,33.92,54.08Z"/><circle class="cls-3" cx="27.82" cy="22.04" r="2.73"/><circle class="cls-3" cx="36.18" cy="30.41" r="2.73"/><path class="cls-3" d="M27.64,31.71a1.11,1.11,0,0,1-.79-.33,1.12,1.12,0,0,1,0-1.59l8.71-8.72a1.14,1.14,0,0,1,1.59,0,1.12,1.12,0,0,1,0,1.59l-8.72,8.72A1.09,1.09,0,0,1,27.64,31.71Z"/></svg>