<svg id="Layer_1" data-name="Layer 1" xmlns="http://www.w3.org/2000/svg" viewBox="0 0 64 64"><defs><style>.cls-1{fill:#dfe8f4;}.cls-2{fill:#ccd8e5;}.cls-3{fill:#ff5454;}.cls-4{fill:#dd1515;}</style></defs><title>e-commerce, commerce, shopping, payment, cash, finance, money</title><rect class="cls-1" x="16.49" y="26" width="39.5" height="24" rx="2.62"/><path class="cls-2" d="M36.22,37a1,1,0,0,1,0-2,1,1,0,0,1,.85.49.94.94,0,0,0,.79.5h0a1.1,1.1,0,0,0,.93-1.69,3.2,3.2,0,0,0-1.17-1.05.67.67,0,0,1-.36-.61h0a1,1,0,0,0-1-1.05h0a1,1,0,0,0-1.05,1.05h0a.71.71,0,0,1-.36.62,3.12,3.12,0,0,0-1.22,4.43,3,3,0,0,0,2.64,1.39,1,1,0,1,1-.87,1.49.93.93,0,0,0-.79-.5h0a1.1,1.1,0,0,0-.9,1.73,3.2,3.2,0,0,0,1.15,1,.68.68,0,0,1,.35.61h0a1,1,0,0,0,1.05,1h0a1,1,0,0,0,1-1h0a.7.7,0,0,1,.37-.62,3.13,3.13,0,0,0,1.18-4.49A3,3,0,0,0,36.22,37Z"/><path class="cls-2" d="M53,29V47H19.49V29H53m.38-3H19.11a2.62,2.62,0,0,0-2.62,2.62V47.38A2.62,2.62,0,0,0,19.11,50H53.37A2.62,2.62,0,0,0,56,47.38V28.62A2.62,2.62,0,0,0,53.37,26Z"/><rect class="cls-3" x="8.01" y="14" width="39.5" height="24" rx="2.62"/><circle class="cls-4" cx="27.76" cy="26" r="7.04"/><circle class="cls-4" cx="12.92" cy="33.07" r="1.37"/><circle class="cls-4" cx="42.6" cy="18.93" r="1.38"/><path class="cls-2" d="M19.45,41.59V47h5.43A5.43,5.43,0,0,0,19.45,41.59Z"/><path class="cls-2" d="M53,34.41V29H47.6A5.43,5.43,0,0,0,53,34.41Z"/></svg>