<svg id="Layer_1" data-name="Layer 1" xmlns="http://www.w3.org/2000/svg" viewBox="0 0 64 64"><defs><style>.cls-1{fill:#dfe8f4;}.cls-2{fill:#ccd8e5;}.cls-3{fill:#dd1515;}.cls-4{fill:#ff5454;}.cls-5{fill:#fff;}</style></defs><title>e-commerce, commerce, shopping, basket, groceries, cart</title><path class="cls-1" d="M43.1,52.79H36.33a1.65,1.65,0,0,1-1.6-1.28l-2.28-9.87a1.7,1.7,0,0,1,.95-2,1.65,1.65,0,0,1,2.23,1.15l1.94,8.39a.4.4,0,0,0,.38.3H43a1.7,1.7,0,0,1,1.71,1.37A1.65,1.65,0,0,1,43.1,52.79Z"/><path class="cls-2" d="M35.63,40.81a1.65,1.65,0,0,0-2.23-1.15,1.7,1.7,0,0,0-.95,2l.78,3.4h3.38Z"/><path class="cls-3" d="M44.28,49.71a3.1,3.1,0,0,0-2.7,4.67h-.43V56h3.13a3.12,3.12,0,0,0,0-6.24Z"/><path class="cls-3" d="M47.26,53.7a2.84,2.84,0,0,0,0-1.85h-5.9a2.89,2.89,0,0,0-.18,1,2.83,2.83,0,0,0,.14.87Z"/><path class="cls-2" d="M43.88,48.14H41.15V49a4.64,4.64,0,0,0-1.93,3.76h1.93v0h2.72v0H48a.5.5,0,0,0,.51-.54A4.66,4.66,0,0,0,43.88,48.14Z"/><path class="cls-1" d="M41.15,48.14a4.66,4.66,0,0,0-4.66,4.66h9.32A4.66,4.66,0,0,0,41.15,48.14Z"/><path class="cls-4" d="M44.28,52.83A3.13,3.13,0,1,0,41.15,56,3.12,3.12,0,0,0,44.28,52.83Z"/><path class="cls-5" d="M41.93,52.83a.78.78,0,1,0-.78.78A.78.78,0,0,0,41.93,52.83Z"/><path class="cls-1" d="M30.64,52.79H23.88a1.66,1.66,0,0,1-1.61-1.28L20,41.64a1.7,1.7,0,0,1,1-2,1.65,1.65,0,0,1,2.23,1.15l1.94,8.39a.4.4,0,0,0,.38.3h5.06a1.7,1.7,0,0,1,1.71,1.37A1.64,1.64,0,0,1,30.64,52.79Z"/><path class="cls-2" d="M23.17,40.81a1.65,1.65,0,0,0-2.23-1.15,1.7,1.7,0,0,0-1,2l.79,3.4h3.37Z"/><path class="cls-3" d="M31.82,49.71a3.11,3.11,0,0,0-2.7,4.67H28.7V56h3.12a3.12,3.12,0,1,0,0-6.24Z"/><path class="cls-3" d="M34.81,53.7a2.94,2.94,0,0,0,0-1.85h-5.9a2.94,2.94,0,0,0,0,1.85Z"/><path class="cls-2" d="M31.43,48.14H28.7V49a4.62,4.62,0,0,0-1.93,3.76H28.7v0h2.71v0h4.13a.5.5,0,0,0,.51-.54A4.65,4.65,0,0,0,31.43,48.14Z"/><path class="cls-1" d="M28.7,48.14A4.66,4.66,0,0,0,24,52.8h9.32A4.66,4.66,0,0,0,28.7,48.14Z"/><path class="cls-4" d="M31.82,52.83A3.13,3.13,0,1,0,28.7,56,3.12,3.12,0,0,0,31.82,52.83Z"/><path class="cls-5" d="M29.48,52.83a.78.78,0,1,0-.78.78A.78.78,0,0,0,29.48,52.83Z"/><path class="cls-2" d="M50.71,26.75l-9.09,4.77a.79.79,0,0,1-1.07-1.07l4.76-9.09a4,4,0,0,1,3.54-2.14h0a4,4,0,0,1,4,4h0A4,4,0,0,1,50.71,26.75Z"/><path class="cls-1" d="M46.81,23.13l-1.59-1.59-.49.92,1.38,1.38a.5.5,0,0,0,.7,0A.5.5,0,0,0,46.81,23.13Z"/><path class="cls-1" d="M48.49,24.8a.51.51,0,0,0-.71,0,.5.5,0,0,0,0,.71l1.82,1.82.93-.48Z"/><path class="cls-1" d="M45.71,26.45l-1.08-1.08a.51.51,0,0,1,0-.71h0a.51.51,0,0,1,.71,0l1.08,1.08a.51.51,0,0,1,0,.71h0A.51.51,0,0,1,45.71,26.45Z"/><path class="cls-1" d="M45.88,28a.5.5,0,0,0-.71.71l.64.64.93-.49Z"/><path class="cls-1" d="M55.36,21a1.23,1.23,0,0,0-1-1.44l-.25,0a8.17,8.17,0,0,0,1.42-1,1.41,1.41,0,0,0-2-2,7.27,7.27,0,0,0-1,1.42.9.9,0,0,0,0-.25,1.23,1.23,0,1,0-2.42.46,7.05,7.05,0,0,0,1.17,2.41l0,0,.08.09.08.07,0,0a7.05,7.05,0,0,0,2.41,1.17A1.23,1.23,0,0,0,55.36,21Z"/><rect class="cls-1" x="17.31" y="23.28" width="10.9" height="1.16"/><path class="cls-1" d="M10.05,20.92h1.78a1.3,1.3,0,0,1,1.24.94l1.85,6.65h4.64l-2.14-7.66a5.38,5.38,0,0,0-5.18-3.94H10.17a2.09,2.09,0,0,0-2.11,1.8A2,2,0,0,0,10.05,20.92Z"/><polygon class="cls-2" points="14.93 28.51 19.56 28.51 18.43 24.44 13.79 24.44 14.93 28.51"/><path class="cls-1" d="M23.23,20.92H25a1.28,1.28,0,0,1,1.23.94l1.86,6.65h4.64L30.6,20.85a5.39,5.39,0,0,0-5.19-3.94H23.34a2.09,2.09,0,0,0-2.11,1.8A2,2,0,0,0,23.23,20.92Z"/><polygon class="cls-2" points="28.1 28.51 32.74 28.51 31.6 24.44 26.96 24.44 28.1 28.51"/><path class="cls-3" d="M49,45.16H33.66a2.85,2.85,0,0,1-2.75-2.08L26.23,26.33H54.79A1.2,1.2,0,0,1,56,27.86L51.71,43.08A2.86,2.86,0,0,1,49,45.16Z"/><path class="cls-4" d="M35.58,45.16H21.74A2.85,2.85,0,0,1,19,43.08L14.31,26.33H44.46L40.18,41.67A4.79,4.79,0,0,1,35.58,45.16Z"/><path class="cls-4" d="M54.79,26.33H14.31l5.11,18.29a.74.74,0,0,0,.71.54H35.21a5.27,5.27,0,0,0,5.07-3.85l2.77-9.94a3.09,3.09,0,0,1,3-2.26h8.28A1.69,1.69,0,0,0,56,27.86h0A1.2,1.2,0,0,0,54.79,26.33Z"/><rect class="cls-3" x="21.32" y="31.11" width="1.68" height="1.68" rx="0.45"/><rect class="cls-3" x="26.14" y="31.11" width="1.68" height="1.68" rx="0.45"/><rect class="cls-3" x="30.95" y="31.11" width="1.68" height="1.68" rx="0.45"/><rect class="cls-3" x="35.77" y="31.11" width="1.68" height="1.68" rx="0.45"/><rect class="cls-3" x="23.73" y="34.9" width="1.68" height="1.68" rx="0.45"/><rect class="cls-3" x="28.55" y="34.9" width="1.68" height="1.68" rx="0.45"/><rect class="cls-3" x="33.36" y="34.9" width="1.68" height="1.68" rx="0.45"/><rect class="cls-3" x="26.14" y="38.69" width="1.68" height="1.68" rx="0.45"/><rect class="cls-3" x="30.95" y="38.69" width="1.68" height="1.68" rx="0.45"/></svg>