<svg id="Layer_1" data-name="Layer 1" xmlns="http://www.w3.org/2000/svg" viewBox="0 0 64 64"><defs><style>.cls-1{fill:#dfe8f4;}.cls-2{fill:#ccd8e5;}.cls-3{fill:#ff5454;}.cls-4{fill:#dd1515;}.cls-5{fill:#fff;}</style></defs><title>e-commerce, commerce, shopping, hand, gesture, store, shop</title><path class="cls-1" d="M8,41l4.77-1a26,26,0,0,0,5-1.54h0a11.63,11.63,0,0,1,8-.37L34.93,41a2,2,0,0,1,1.25,2.56h0a1,1,0,0,1-1,.64l-5.92-.14L35,45.38a26.58,26.58,0,0,0,10.77.23l2.48-.46a1.72,1.72,0,0,1,2,1.69h0a.85.85,0,0,1-.53.79l-3,1.23a26.66,26.66,0,0,1-13.34,1.71l-8.57-1.11c-2.69-.52-5.49.86-7.94,2.09L8,56Z"/><polygon class="cls-2" points="10.38 40.53 8.03 41 8 56 10.38 54.81 10.38 40.53"/><path class="cls-3" d="M33.5,18.86l3.92-8.61H34.56a1.17,1.17,0,0,0-1,.52l-5.1,7.52a2.1,2.1,0,0,0-.36,1.17v1.66a1.18,1.18,0,0,0,1.19,1.18h4V19.53A1.56,1.56,0,0,1,33.5,18.86Z"/><path class="cls-3" d="M55.64,18.29l-5.1-7.52a1.17,1.17,0,0,0-1-.52H46.7l3.92,8.61a1.56,1.56,0,0,1,.15.67V22.3h4A1.18,1.18,0,0,0,56,21.12V19.46A2.1,2.1,0,0,0,55.64,18.29Z"/><rect class="cls-3" x="30.27" y="20.36" width="23.59" height="13.94"/><path class="cls-4" d="M33.5,18.86v0H28.22a2.19,2.19,0,0,0-.1.63v1.66a1.18,1.18,0,0,0,1.19,1.18h4V19.53A1.56,1.56,0,0,1,33.5,18.86Z"/><path class="cls-4" d="M55.9,18.83H50.61v0a1.56,1.56,0,0,1,.15.67V22.3h4A1.18,1.18,0,0,0,56,21.12V19.46A1.89,1.89,0,0,0,55.9,18.83Z"/><path class="cls-5" d="M46.7,10.25H37.42L33.5,18.86a1.56,1.56,0,0,0-.15.67V22.3H50.77V19.53a1.56,1.56,0,0,0-.15-.67Z"/><path class="cls-1" d="M33.5,18.86a1.56,1.56,0,0,0-.15.67V22.3H50.77V19.53a1.56,1.56,0,0,0-.15-.67v0H33.51Z"/><path class="cls-3" d="M43.57,10.25h-3l-1.38,8.81a1.93,1.93,0,0,0,0,.24v3H45v-3a1.94,1.94,0,0,0,0-.24Z"/><path class="cls-4" d="M44.9,18.83H39.22l0,.23a1.93,1.93,0,0,0,0,.24v3H45v-3a1.94,1.94,0,0,0,0-.24Z"/><path class="cls-4" d="M45,34.3H39.16V27.9A2.9,2.9,0,0,1,42.06,25h0A2.91,2.91,0,0,1,45,27.9Z"/><rect class="cls-1" x="28.12" y="34.25" width="27.88" height="1.25"/></svg>