<svg id="Layer_1" data-name="Layer 1" xmlns="http://www.w3.org/2000/svg" viewBox="0 0 64 64"><defs><style>.cls-1{fill:#dfe8f4;}.cls-2{fill:#fff;}.cls-3{fill:#ccd8e5;}.cls-4{fill:#dd1515;}.cls-5{fill:#ff5454;}</style></defs><title>e-commerce, commerce, shopping, search, find, magnifier, store</title><path class="cls-1" d="M55.06,55.06a3.67,3.67,0,0,1-5.2,0L38.71,43.91a3.68,3.68,0,0,1,5.2-5.2L55.06,49.86A3.67,3.67,0,0,1,55.06,55.06Z"/><path class="cls-2" d="M19.57,39.56a14.26,14.26,0,1,1,17.37,0A14.27,14.27,0,0,1,19.57,39.56Z"/><path class="cls-1" d="M55,49.79l-8.14-8.15A3.08,3.08,0,0,1,46.36,38,20.58,20.58,0,1,0,38,46.35a3.1,3.1,0,0,1,3.66.5l8.22,8.21a3.67,3.67,0,0,0,5.69-.6A3.72,3.72,0,0,0,55,49.79ZM19.57,39.56a14.26,14.26,0,1,1,17.37,0A14.27,14.27,0,0,1,19.57,39.56Z"/><path class="cls-3" d="M51.56,46.36l-5.2,5.2,3.5,3.5a3.68,3.68,0,0,0,5.2-5.2Z"/><path class="cls-4" d="M36.26,26.26h0a1,1,0,0,0-.15-.31l-2-3a3.8,3.8,0,0,0-3.15-1.67H25.57A3.8,3.8,0,0,0,22.42,23l-2,3a1.77,1.77,0,0,0-.15.31h0a1.15,1.15,0,0,0-.06.37v1a.69.69,0,0,0,.69.68h.55v6.51a.43.43,0,0,0,.43.43h.93a.43.43,0,0,0,.43-.43V31.6a1.75,1.75,0,0,1,1.4-1.75,1.68,1.68,0,0,1,2,1.66v3.27a.43.43,0,0,0,.43.43h7.64a.43.43,0,0,0,.43-.43V28.27h.56a.69.69,0,0,0,.68-.68v-1A1.15,1.15,0,0,0,36.26,26.26Zm-3,6.31a.3.3,0,0,1-.3.31H28.56a.3.3,0,0,1-.3-.31V30.14a.3.3,0,0,1,.3-.31H33a.3.3,0,0,1,.3.31Z"/><path class="cls-5" d="M36.26,26.26h0a1,1,0,0,0-.15-.31l-2-3a3.8,3.8,0,0,0-3.15-1.67H25.57A3.8,3.8,0,0,0,22.42,23l-2,3a1.77,1.77,0,0,0-.15.31h0a1.15,1.15,0,0,0-.06.37v1a.69.69,0,0,0,.62.67H35.7a.68.68,0,0,0,.62-.67v-1a1.15,1.15,0,0,0-.06-.37Z"/></svg>