<svg id="Layer_1" data-name="Layer 1" xmlns="http://www.w3.org/2000/svg" viewBox="0 0 64 64"><defs><style>.cls-1{fill:#FC0707;}.cls-2{fill:#F4DFDF;}.cls-3{fill:#e5cccc;}.cls-4{fill:#DD1515;}</style></defs><title>e-commerce, commerce, shopping, sale, chart, analytics, statistics</title><circle class="cls-1" cx="21.97" cy="31.46" r="1.96"/><path class="cls-1" d="M30.55,38.08a2,2,0,1,1-2-2A2,2,0,0,1,30.55,38.08Z"/><path class="cls-1" d="M21.84,39.1a.85.85,0,0,1-.63-.26.88.88,0,0,1,0-1.25l6.9-6.9A.89.89,0,0,1,29.36,32l-6.9,6.89A.85.85,0,0,1,21.84,39.1Z"/><path class="cls-2" d="M32,32H56a23.9,23.9,0,0,0-6.55-16.47Z"/><path class="cls-3" d="M49.45,15.53l-6.73,6.36a14.69,14.69,0,0,1,4,10.11H56A23.9,23.9,0,0,0,49.45,15.53Z"/><path class="cls-2" d="M32,15A17,17,0,1,1,15,32,17,17,0,0,1,32,15m0-7A24,24,0,1,0,56,32,24,24,0,0,0,32,8Z"/><path class="cls-3" d="M49,32c0,.46,0,.92-.07,1.38h7c0-.46,0-.92,0-1.38s0-.67,0-1H49C49,31.33,49,31.66,49,32Z"/><path class="cls-1" d="M32,8v7A17,17,0,0,1,49,32h7A24,24,0,0,0,32,8Z"/><path class="cls-4" d="M44.35,20.35A16.93,16.93,0,0,1,49,32h7a23.9,23.9,0,0,0-6.55-16.47Z"/></svg>