<svg id="Layer_1" data-name="Layer 1" xmlns="http://www.w3.org/2000/svg" viewBox="0 0 64 64"><defs><style>.cls-1{fill:#ff5454;}.cls-2{fill:#dd1515;}.cls-3{fill:#dfe8f4;}.cls-4{fill:#ccd8e5;}.cls-5{fill:#fff;}</style></defs><title>e-commerce, commerce, shopping, protection, shield, finance, payment</title><path class="cls-1" d="M51.67,37v-23a3.15,3.15,0,0,0-2.47-3.07l-9.05-2a38.29,38.29,0,0,0-16.3,0l-9,2a3.15,3.15,0,0,0-2.47,3.07V37a14.7,14.7,0,0,0,7.35,12.73l9.64,5.57a5.35,5.35,0,0,0,5.36,0l9.64-5.57A14.7,14.7,0,0,0,51.67,37Z"/><path class="cls-2" d="M49.2,10.85l-9.05-2a38.29,38.29,0,0,0-16.3,0l-1.68.36,7.36,1.6A3.15,3.15,0,0,1,32,13.92V37a14.68,14.68,0,0,1-7.35,12.73l-2.48,1.44,7.15,4.13a5.35,5.35,0,0,0,5.36,0l9.64-5.57A14.7,14.7,0,0,0,51.67,37v-23A3.15,3.15,0,0,0,49.2,10.85Z"/><path class="cls-3" d="M32,12a34.5,34.5,0,0,1,7.3.79l8.37,1.81V37a10.73,10.73,0,0,1-5.35,9.27l-9.64,5.56a1.31,1.31,0,0,1-1.36,0l-9.64-5.56A10.73,10.73,0,0,1,16.33,37V14.61L24.7,12.8A34.5,34.5,0,0,1,32,12m0-4a38,38,0,0,0-8.15.88l-9,2a3.15,3.15,0,0,0-2.47,3.07V37a14.7,14.7,0,0,0,7.35,12.73l9.64,5.57a5.35,5.35,0,0,0,5.36,0l9.64-5.57A14.7,14.7,0,0,0,51.67,37v-23a3.15,3.15,0,0,0-2.47-3.07l-9.05-2A38,38,0,0,0,32,8Z"/><path class="cls-4" d="M49.2,10.85l-9.05-2a37.71,37.71,0,0,0-4.06-.66A37.23,37.23,0,0,0,32,8a39.16,39.16,0,0,0-6.12.49c-.68.11-1.36.24-2,.39l-1.68.36,7.36,1.6A3.18,3.18,0,0,1,31.36,12L32,12a34.5,34.5,0,0,1,7.3.79l8.37,1.81V37a10.73,10.73,0,0,1-5.35,9.27l-9.64,5.56a1.31,1.31,0,0,1-1.36,0l-5.26-3a14.93,14.93,0,0,1-1.41.93l-2.48,1.44,7.15,4.13a5.35,5.35,0,0,0,5.36,0l9.64-5.57a14.7,14.7,0,0,0,3.72-3,15.49,15.49,0,0,0,1-1.3c.23-.33.45-.67.66-1a15.77,15.77,0,0,0,.84-1.7,16.08,16.08,0,0,0,.62-1.81A14.88,14.88,0,0,0,51.67,37v-23A3.15,3.15,0,0,0,49.2,10.85Z"/><path class="cls-5" d="M32,30a1.58,1.58,0,0,1-1.55-1.58,1.57,1.57,0,0,1,2.93-.79,1.48,1.48,0,0,0,1.26.79h0a1.74,1.74,0,0,0,1.46-2.69,4.78,4.78,0,0,0-1.86-1.65,1.12,1.12,0,0,1-.56-1h0A1.66,1.66,0,0,0,32,21.43h0a1.66,1.66,0,0,0-1.66,1.66h0a1.12,1.12,0,0,1-.58,1,5,5,0,0,0-1.93,7A4.68,4.68,0,0,0,32,33.31a1.58,1.58,0,1,1-1.38,2.37,1.47,1.47,0,0,0-1.26-.8h0A1.75,1.75,0,0,0,28,37.64a5.08,5.08,0,0,0,1.82,1.59,1.09,1.09,0,0,1,.56,1h0A1.66,1.66,0,0,0,32,41.87h0a1.66,1.66,0,0,0,1.66-1.66h0a1.1,1.1,0,0,1,.58-1,5,5,0,0,0,1.87-7.13A4.63,4.63,0,0,0,32,30Z"/></svg>