<svg id="Layer_1" data-name="Layer 1" xmlns="http://www.w3.org/2000/svg" viewBox="0 0 64 64"><defs><style>.cls-1{fill:#FC0707;}.cls-2{fill:#DD1515;}.cls-3{fill:#F4DFDF;}.cls-4{fill:#e5cccc;}.cls-5{fill:#fff;}</style></defs><title>e-commerce, commerce, shopping, ecology, ecological, bag</title><path class="cls-1" d="M38.66,17h9.26a3.17,3.17,0,0,1,3.17,3.17V52.83A3.17,3.17,0,0,1,47.92,56H38.66a0,0,0,0,1,0,0V17A0,0,0,0,1,38.66,17Z"/><path class="cls-2" d="M38.66,52.17V56h9.26a3.17,3.17,0,0,0,3.17-3.17V37.17a6,6,0,0,0-3.59-5.5l-6.69-2.93Z"/><path class="cls-3" d="M16.08,17H40.81a0,0,0,0,1,0,0V54.21A1.79,1.79,0,0,1,39,56H16.08a3.17,3.17,0,0,1-3.17-3.17V20.15A3.17,3.17,0,0,1,16.08,17Z"/><polygon class="cls-4" points="40.8 28.74 34.12 22.05 30.97 28.38 22.95 29.24 40.8 47.09 40.8 28.74"/><path class="cls-5" d="M25.87,30.3a7.72,7.72,0,0,1-6.55-7.74v-.2a1.23,1.23,0,0,1,1.23-1.23h0a1.23,1.23,0,0,1,1.23,1.23v.24a5.22,5.22,0,0,0,4.57,5.27,5.07,5.07,0,0,0,5.58-5.05v-.46a1.24,1.24,0,0,1,1.23-1.23h0a1.24,1.24,0,0,1,1.24,1.23v.46A7.56,7.56,0,0,1,25.87,30.3Z"/><path class="cls-1" d="M33.29,7.73a7.55,7.55,0,0,1,7.54,7.54V17H38.36V15.27a5.08,5.08,0,1,0-10.15,0V17H25.75V15.27A7.55,7.55,0,0,1,33.29,7.73Z"/><rect class="cls-2" x="25.75" y="15.58" width="2.46" height="1.38"/><rect class="cls-2" x="38.36" y="15.58" width="2.46" height="1.38"/><path class="cls-1" d="M32.32,34.57A5.46,5.46,0,0,0,26.86,40v1.29h0V40a5.47,5.47,0,0,0-5.47-5.47H17.8v3.59a5.47,5.47,0,0,0,5.46,5.47h1.26a1.17,1.17,0,0,1,1.17,1.17v2.12a1.16,1.16,0,0,0,1.17,1.16h0A1.16,1.16,0,0,0,28,46.92V44.8a1.17,1.17,0,0,1,1.17-1.17h1.26a5.47,5.47,0,0,0,5.47-5.47V34.57Z"/><path class="cls-2" d="M29.24,35.53,35,41.25a5.46,5.46,0,0,0,1-3.09V34.57h-3.6A5.38,5.38,0,0,0,29.24,35.53Z"/></svg>