<svg id="Layer_1" data-name="Layer 1" xmlns="http://www.w3.org/2000/svg" viewBox="0 0 64 64"><defs><style>.cls-1{fill:#ff5454;}.cls-2{fill:#dd1515;}.cls-3{fill:#fff;}.cls-4{fill:#dfe8f4;}.cls-5{fill:#ccd8e5;}</style></defs><title>e-commerce, commerce, shopping, click, purchase, hand, gesture</title><circle class="cls-1" cx="27.17" cy="27.17" r="19.17" transform="translate(-5.71 47.04) rotate(-76.15)"/><path class="cls-2" d="M26.82,46.32h.35a19.05,19.05,0,0,0,13-5.13L29.26,33.88l-2.44,1.93Z"/><path class="cls-3" d="M30.88,31.07H23.56a.76.76,0,0,1-.75-.59l-1.32-5.27a.78.78,0,0,1,.75-1h10a.78.78,0,0,1,.76,1l-1.32,5.27A.78.78,0,0,1,30.88,31.07Z"/><circle class="cls-3" cx="24" cy="33.61" r="1.17"/><path class="cls-3" d="M23.84,27.45l-1.32-5.27h0a.75.75,0,0,0-.72-.56H19.43a.76.76,0,1,0,0,1.51h1.11a.54.54,0,0,1,.53.42l1,3.9a.78.78,0,0,0,.75.59h1.8A.79.79,0,0,1,23.84,27.45Z"/><path class="cls-4" d="M56,46.31l-1.61-1.2a1.66,1.66,0,0,1-.65-1.17,9.23,9.23,0,0,0-3.18-6.16L49.61,37a6,6,0,0,0-6.85-.67l-5.54,3.14a.71.71,0,0,1-.81-.07l-7.48-6.12a1,1,0,0,0-1.31.07,2.76,2.76,0,0,0,0,3.89l8,8a2.77,2.77,0,0,1,.82,1.95l0,1.29a4.85,4.85,0,0,0,4.09,4.72l2.82.45a2,2,0,0,1,1.15.58L46.31,56H56V46.31Z"/><polygon class="cls-4" points="33.63 43.22 27.62 37.21 27.62 37.21 33.63 43.22 33.63 43.22"/><path class="cls-5" d="M56,46.31l-1.61-1.2a1.86,1.86,0,0,1-.4-.44V49.8A4.18,4.18,0,0,1,49.8,54H44.3l.25.25L46.31,56H56V46.31Z"/><polygon class="cls-5" points="44.29 53.98 44.3 53.98 44.29 53.97 44.29 53.98"/><path class="cls-5" d="M36.49,48.48a5,5,0,0,0,.21,1.28h0a2.3,2.3,0,0,1,1.73.08h0a.64.64,0,0,0,.73-.14h0a.64.64,0,0,0,0-.92l-3.53-3.53a2.77,2.77,0,0,1,.82,1.95Z"/></svg>