<svg id="Layer_1" data-name="Layer 1" xmlns="http://www.w3.org/2000/svg" viewBox="0 0 64 64"><defs><style>.cls-1{fill:#FC0707;}.cls-2{fill:#DD1515;}.cls-3{fill:#fff;}</style></defs><title>e-commerce, commerce, shopping, location, basket, pin</title><path class="cls-1" d="M44.55,38.34,32.84,50a1.2,1.2,0,0,1-1.68,0L19.45,38.34a17.77,17.77,0,0,1,0-25.1h0a17.77,17.77,0,0,1,25.1,0h0A17.77,17.77,0,0,1,44.55,38.34Z"/><path class="cls-2" d="M33.92,54.08A1.92,1.92,0,1,1,32,52.17,1.92,1.92,0,0,1,33.92,54.08Z"/><path class="cls-3" d="M35.68,30.41H28.37a.78.78,0,0,1-.76-.59l-1.32-5.27a.78.78,0,0,1,.76-1H37a.76.76,0,0,1,.75,1l-1.31,5.27A.78.78,0,0,1,35.68,30.41Z"/><circle class="cls-3" cx="28.81" cy="32.96" r="1.17"/><circle class="cls-3" cx="35.24" cy="32.96" r="1.17"/><path class="cls-3" d="M28.65,26.79l-1.32-5.27h0a.74.74,0,0,0-.72-.56H24.23a.76.76,0,0,0-.76.76.75.75,0,0,0,.76.75h1.12a.56.56,0,0,1,.53.42l1,3.9a.78.78,0,0,0,.76.59H29.4A.76.76,0,0,1,28.65,26.79Z"/></svg>