<svg id="Layer_1" data-name="Layer 1" xmlns="http://www.w3.org/2000/svg" viewBox="0 0 64 64"><defs><style>.cls-1{fill:#F4DFDF;}.cls-2{fill:#DD1515;}.cls-3{fill:#e5cccc;}.cls-4{fill:#fff;}.cls-5{fill:#FC0707;}</style></defs><title>e-commerce, commerce, shopping, basket, store</title><path class="cls-1" d="M41.75,17.5H35.5a2.5,2.5,0,0,0,0,5h6.25a3.5,3.5,0,0,1,0,7H22.29a8.5,8.5,0,0,0,0,17h6.25a2.5,2.5,0,0,0,0-5H22.29a3.5,3.5,0,0,1,0-7H41.75a8.5,8.5,0,0,0,0-17Z"/><path class="cls-2" d="M22.73,16.28a1.25,1.25,0,0,1-.88-.37,1.24,1.24,0,0,1,0-1.76l5.71-5.7a1.24,1.24,0,0,1,1.76,0,1.26,1.26,0,0,1,0,1.76l-5.71,5.7A1.25,1.25,0,0,1,22.73,16.28Z"/><path class="cls-3" d="M15.11,13.68a1.17,1.17,0,0,0-1.17,1.18v1A1.14,1.14,0,0,0,15.13,17a1.17,1.17,0,0,1,1.13.95l1.28,6.4a1.18,1.18,0,0,0,1.15.95h8.72a1.18,1.18,0,0,0,1.15-.95L29.84,18A1.27,1.27,0,0,1,31,17a1.17,1.17,0,0,0,1.13-1.17V14.28a.6.6,0,0,0-.6-.6Z"/><path class="cls-1" d="M8,14.24v1.59A1.17,1.17,0,0,0,9.17,17h0a1.19,1.19,0,0,1,1.16.95l1.28,6.4a1.18,1.18,0,0,0,1.15.95h8.71a1.18,1.18,0,0,0,1.15-.95L23.91,18A1.18,1.18,0,0,1,25.06,17h0a1.17,1.17,0,0,0,1.17-1.17V13.68H8.56A.56.56,0,0,0,8,14.24Z"/><rect class="cls-4" x="12.88" y="18.33" width="0.88" height="0.88"/><rect class="cls-4" x="15.41" y="18.33" width="0.88" height="0.88"/><rect class="cls-4" x="17.94" y="18.33" width="0.88" height="0.88"/><rect class="cls-4" x="20.47" y="18.33" width="0.88" height="0.88"/><rect class="cls-4" x="14.14" y="20.32" width="0.88" height="0.88"/><rect class="cls-4" x="16.67" y="20.32" width="0.88" height="0.88"/><rect class="cls-4" x="19.2" y="20.32" width="0.88" height="0.88"/><rect class="cls-4" x="15.41" y="22.31" width="0.88" height="0.88"/><rect class="cls-4" x="17.94" y="22.31" width="0.88" height="0.88"/><path class="cls-5" d="M17.12,16.28a1.25,1.25,0,0,1-.88-.37,1.24,1.24,0,0,1,0-1.76l5.7-5.7a1.22,1.22,0,0,1,.88-.37h5.62a1.25,1.25,0,0,1,0,2.49h-5.1L18,15.91A1.29,1.29,0,0,1,17.12,16.28Z"/><path class="cls-5" d="M39.21,43.59l2.93-6.42H40a.86.86,0,0,0-.72.38l-3.81,5.61a1.59,1.59,0,0,0-.27.87v1.24a.88.88,0,0,0,.88.88h3V44.09A1.22,1.22,0,0,1,39.21,43.59Z"/><path class="cls-5" d="M55.73,43.16l-3.81-5.61a.87.87,0,0,0-.73-.38H49.06L52,43.59a1.08,1.08,0,0,1,.11.5v2.06h3a.87.87,0,0,0,.88-.88V44A1.58,1.58,0,0,0,55.73,43.16Z"/><rect class="cls-5" x="36.8" y="44.71" width="17.6" height="10.4"/><path class="cls-2" d="M39.21,43.59v0H35.28a1.5,1.5,0,0,0-.08.47v1.24a.88.88,0,0,0,.88.88h3V44.09A1.22,1.22,0,0,1,39.21,43.59Z"/><path class="cls-2" d="M55.92,43.56H52v0a1.08,1.08,0,0,1,.11.5v2.06h3a.87.87,0,0,0,.88-.88V44A1.49,1.49,0,0,0,55.92,43.56Z"/><path class="cls-4" d="M49.06,37.17H42.14l-2.93,6.42a1.22,1.22,0,0,0-.11.5v2.06h13V44.09a1.08,1.08,0,0,0-.11-.5Z"/><path class="cls-1" d="M39.21,43.59a1.22,1.22,0,0,0-.11.5v2.06h13V44.09a1.08,1.08,0,0,0-.11-.5v0H39.22Z"/><path class="cls-5" d="M46.72,37.17H44.48l-1,6.57a1,1,0,0,0,0,.17v2.24h4.32V43.91a1,1,0,0,0,0-.17Z"/><path class="cls-2" d="M47.72,43.56H43.48l0,.18a1,1,0,0,0,0,.17v2.24h4.32V43.91a1,1,0,0,0,0-.17Z"/><path class="cls-2" d="M43.44,55.11H39.1V50.33a2.17,2.17,0,0,1,2.17-2.17h0a2.17,2.17,0,0,1,2.17,2.17Z"/><rect class="cls-1" x="35.2" y="55.07" width="20.79" height="0.93"/><rect class="cls-2" x="45.6" y="48.16" width="6.49" height="3.93" rx="0.4"/></svg>