<svg id="Layer_1" data-name="Layer 1" xmlns="http://www.w3.org/2000/svg" viewBox="0 0 64 64"><defs><style>.cls-1{fill:#dfe8f4;}.cls-2{fill:#ccd8e5;}.cls-3{fill:#ff5454;}.cls-4{fill:#fff;}.cls-5{fill:#dd1515;}</style></defs><title>e-commerce, commerce, shopping, map, location, cart, pin</title><path class="cls-1" d="M52.46,56H11.54A2.63,2.63,0,0,1,9,52.61L17.44,24.5A2.65,2.65,0,0,1,20,22.62H44a2.65,2.65,0,0,1,2.52,1.88L55,52.61A2.63,2.63,0,0,1,52.46,56Z"/><path class="cls-1" d="M52.46,56H11.54A2.63,2.63,0,0,1,9,52.61L17.44,24.5A2.65,2.65,0,0,1,20,22.62H44a2.65,2.65,0,0,1,2.52,1.88L55,52.61A2.63,2.63,0,0,1,52.46,56Z"/><path class="cls-2" d="M46,43.06a2,2,0,0,0-1-1.32L34,35.81V22.62H30v5.3H16.42l-1.2,4H30V35.5l-20,20a2.64,2.64,0,0,0,1.53.5h3.62L31.93,39.23l10.32,5.6L44.75,56h4.1Z"/><path class="cls-3" d="M52.62,27.73,45,35.35a.77.77,0,0,1-1.09,0l-7.62-7.62a11.53,11.53,0,0,1,0-16.32h0a11.55,11.55,0,0,1,16.33,0h0A11.53,11.53,0,0,1,52.62,27.73Z"/><path class="cls-4" d="M45.7,38a1.25,1.25,0,1,1-1.25-1.25A1.25,1.25,0,0,1,45.7,38Z"/><path class="cls-5" d="M47.52,23.11H41.67a.62.62,0,0,1-.61-.47L40,18.43a.62.62,0,0,1,.6-.78h8a.62.62,0,0,1,.6.78l-1.06,4.21A.6.6,0,0,1,47.52,23.11Z"/><path class="cls-5" d="M43,25.15a.94.94,0,1,1-.94-.94A.93.93,0,0,1,43,25.15Z"/><path class="cls-5" d="M48.1,25.15a.94.94,0,0,1-1.87,0,.94.94,0,1,1,1.87,0Z"/><path class="cls-5" d="M41.89,20.21l-1-4.21h0a.6.6,0,0,0-.58-.45H38.36a.61.61,0,1,0,0,1.21h.89a.45.45,0,0,1,.43.33l.78,3.12a.63.63,0,0,0,.6.48H42.5A.63.63,0,0,1,41.89,20.21Z"/></svg>