<svg id="Layer_1" data-name="Layer 1" xmlns="http://www.w3.org/2000/svg" viewBox="0 0 64 64"><defs><style>.cls-1{fill:#F4DFDF;}.cls-2{fill:#fff;}.cls-3{fill:#FC0707;}.cls-4{fill:#DD1515;}</style></defs><title>e-commerce, commerce, shopping, percentage, sale, discount, smartphone</title><rect class="cls-1" x="16.67" y="8" width="30.67" height="48" rx="5.39"/><path class="cls-2" d="M22.06,8a5.39,5.39,0,0,0-5.39,5.39V50.61a5.37,5.37,0,0,0,3.66,5.08A5.19,5.19,0,0,1,20,54V33.69a2,2,0,0,0-2-2h0V30.58h0a2,2,0,0,0,2-2V14a2.66,2.66,0,0,1,2.66-2.66H35L36.62,8Z"/><path class="cls-3" d="M41.94,8H22.06a5.39,5.39,0,0,0-5.39,5.39V50.61A5.39,5.39,0,0,0,22.06,56H41.94a5.39,5.39,0,0,0,5.39-5.39V13.39A5.39,5.39,0,0,0,41.94,8Zm3.39,42.61A3.39,3.39,0,0,1,41.94,54H22.06a3.39,3.39,0,0,1-3.39-3.39V13.39A3.39,3.39,0,0,1,22.06,10h2.51a1.82,1.82,0,0,1,1.42.67h0a1.84,1.84,0,0,0,1.42.66h9.18A1.84,1.84,0,0,0,38,10.67h0A1.82,1.82,0,0,1,39.43,10h2.51a3.39,3.39,0,0,1,3.39,3.39Z"/><path class="cls-4" d="M16.56,20.91h.11a0,0,0,0,1,0,0v3.69a0,0,0,0,1,0,0h-.11a.37.37,0,0,1-.37-.37v-3A.37.37,0,0,1,16.56,20.91Z"/><path class="cls-4" d="M16.56,25.36h.11a0,0,0,0,1,0,0V29a0,0,0,0,1,0,0h-.11a.37.37,0,0,1-.37-.37v-3A.37.37,0,0,1,16.56,25.36Z"/><path class="cls-4" d="M47.7,20.91h.11a0,0,0,0,1,0,0v3.69a0,0,0,0,1,0,0H47.7a.37.37,0,0,1-.37-.37v-3A.37.37,0,0,1,47.7,20.91Z" transform="translate(95.14 45.5) rotate(180)"/><rect class="cls-2" x="26.66" y="39.68" width="13.39" height="1.19"/><rect class="cls-2" x="26.66" y="42.58" width="13.39" height="1.19"/><rect class="cls-2" x="26.66" y="45.49" width="6.69" height="1.19"/><rect class="cls-2" x="23.96" y="39.68" width="1.31" height="1.19"/><rect class="cls-2" x="23.96" y="42.58" width="1.31" height="1.19"/><rect class="cls-2" x="23.96" y="45.49" width="1.31" height="1.19"/><circle class="cls-4" cx="28.07" cy="23.28" r="2.33"/><circle class="cls-4" cx="35.92" cy="31.13" r="2.33"/><path class="cls-3" d="M27.91,32.35a1,1,0,0,1-.74-.31,1,1,0,0,1,0-1.49l8.18-8.18a1.05,1.05,0,1,1,1.48,1.49L28.65,32A1,1,0,0,1,27.91,32.35Z"/></svg>