<svg id="Layer_1" data-name="Layer 1" xmlns="http://www.w3.org/2000/svg" viewBox="0 0 64 64"><defs><style>.cls-1{fill:#ff5454;}.cls-2{fill:#dd1515;}.cls-3{fill:#dfe8f4;}.cls-4{fill:#ccd8e5;}.cls-5{fill:#fff;}</style></defs><title>e-commerce, commerce, shopping, favourite, bag</title><path class="cls-1" d="M39.69,17H49a3.17,3.17,0,0,1,3.17,3.17V52.83A3.17,3.17,0,0,1,49,56H39.69a0,0,0,0,1,0,0V17A0,0,0,0,1,39.69,17Z"/><path class="cls-2" d="M39.69,52.17V56H49a3.17,3.17,0,0,0,3.17-3.17V37.17a6,6,0,0,0-3.59-5.5l-6.69-2.93Z"/><path class="cls-3" d="M17.11,17H41.84a0,0,0,0,1,0,0V54.21A1.79,1.79,0,0,1,40,56H17.11a3.17,3.17,0,0,1-3.17-3.17V20.15A3.17,3.17,0,0,1,17.11,17Z"/><polygon class="cls-4" points="41.84 28.74 35.15 22.05 32 28.38 23.98 29.24 41.84 47.09 41.84 28.74"/><path class="cls-5" d="M26.9,30.3a7.72,7.72,0,0,1-6.55-7.74v-.2a1.23,1.23,0,0,1,1.23-1.23h0a1.23,1.23,0,0,1,1.23,1.23v.24a5.22,5.22,0,0,0,4.57,5.27A5.07,5.07,0,0,0,33,22.82v-.46a1.23,1.23,0,0,1,1.23-1.23h0a1.24,1.24,0,0,1,1.24,1.23v.46A7.56,7.56,0,0,1,26.9,30.3Z"/><path class="cls-1" d="M34.32,7.73a7.55,7.55,0,0,1,7.54,7.54V17H39.39V15.27a5.08,5.08,0,1,0-10.15,0V17H26.78V15.27A7.55,7.55,0,0,1,34.32,7.73Z"/><path class="cls-1" d="M33.91,36.53a4.16,4.16,0,0,0-5.67.31l-.35.35-.36-.35a4.14,4.14,0,0,0-5.66-.31,4,4,0,0,0-.16,5.81l5.61,5.6a.78.78,0,0,0,.57.24.81.81,0,0,0,.57-.24l5.6-5.6A4,4,0,0,0,33.91,36.53Z"/><path class="cls-2" d="M30.4,35.66l4.72,4.72a3.91,3.91,0,0,0-4.72-4.72Z"/><rect class="cls-2" x="26.78" y="15.58" width="2.46" height="1.38"/><rect class="cls-2" x="39.39" y="15.58" width="2.46" height="1.38"/></svg>