<svg id="Layer_1" data-name="Layer 1" xmlns="http://www.w3.org/2000/svg" viewBox="0 0 64 64"><defs><style>.cls-1{fill:#F4DFDF;}.cls-2{fill:#e5cccc;}.cls-3{fill:#FC0707;}.cls-4{fill:#fff;}</style></defs><title>e-commerce, commerce, shopping, sticker, sale, price, hand, gesture</title><path class="cls-1" d="M8,41l4.77-1a26.1,26.1,0,0,0,5-1.54h0a11.63,11.63,0,0,1,8-.37L34.89,41a2,2,0,0,1,1.25,2.56h0a1,1,0,0,1-1,.64l-5.91-.14L35,45.38a26.63,26.63,0,0,0,10.78.23l2.47-.46a1.73,1.73,0,0,1,2,1.69h0a.84.84,0,0,1-.54.79l-3,1.23a26.61,26.61,0,0,1-13.33,1.71l-8.57-1.11c-2.7-.52-5.49.86-7.95,2.09L8,56Z"/><polygon class="cls-2" points="10.34 40.53 7.99 41 7.96 56 10.34 54.81 10.34 40.53"/><path class="cls-3" d="M56,23.5a5,5,0,0,0-1-3.06,2.07,2.07,0,0,1-.41-1.52,5,5,0,0,0-3-5.3,2.05,2.05,0,0,1-1.12-1.12,5,5,0,0,0-5.3-3.05A2.07,2.07,0,0,1,43.56,9a5,5,0,0,0-6.12,0,2.07,2.07,0,0,1-1.52.41,5,5,0,0,0-5.3,3.05,2.05,2.05,0,0,1-1.12,1.12,5,5,0,0,0-3.05,5.3A2.07,2.07,0,0,1,26,20.44a5,5,0,0,0,0,6.12,2.07,2.07,0,0,1,.41,1.52,5,5,0,0,0,.63,3.17h0a5,5,0,0,0,2.42,2.13,2.05,2.05,0,0,1,1.12,1.12,5,5,0,0,0,5.3,3,2.07,2.07,0,0,1,1.52.41,5,5,0,0,0,6.12,0,2.07,2.07,0,0,1,1.52-.41,5,5,0,0,0,5.3-3,2.05,2.05,0,0,1,1.12-1.12,5,5,0,0,0,2.42-2.13h0a5,5,0,0,0,.63-3.17A2.07,2.07,0,0,1,55,26.56,5,5,0,0,0,56,23.5Z"/><path class="cls-4" d="M40.49,22.45a1,1,0,0,1,0-2,1,1,0,0,1,.86.49.93.93,0,0,0,.79.5h0a1.09,1.09,0,0,0,.92-1.69,3.12,3.12,0,0,0-1.17-1.05.68.68,0,0,1-.35-.61h0a1,1,0,0,0-1-1.05h0a1,1,0,0,0-1,1.05h0a.69.69,0,0,1-.36.62,3.13,3.13,0,0,0-1.22,4.43,3,3,0,0,0,2.64,1.39,1,1,0,0,1,0,2,1,1,0,0,1-.86-.49.93.93,0,0,0-.79-.5h0a1.1,1.1,0,0,0-.9,1.73,3.2,3.2,0,0,0,1.15,1,.68.68,0,0,1,.35.61h0a1,1,0,0,0,1,1.05h0a1,1,0,0,0,1-1.05h0a.69.69,0,0,1,.36-.62,3.13,3.13,0,0,0,1.18-4.49A2.94,2.94,0,0,0,40.49,22.45Z"/></svg>