<svg id="Layer_1" data-name="Layer 1" xmlns="http://www.w3.org/2000/svg" viewBox="0 0 64 64"><defs><style>.cls-1{fill:#DD1515;}.cls-2{fill:#FC0707;}.cls-3{fill:#F4DFDF;}.cls-4{fill:#e5cccc;}.cls-5{fill:#fff;}</style></defs><title>e-commerce, commerce, shopping, monitor, computer, qr, code</title><path class="cls-1" d="M37.45,50.67h0a2.24,2.24,0,0,1-2.24-2.25V45.17H28.79v3.25a2.24,2.24,0,0,1-2.24,2.25h0A3.55,3.55,0,0,0,23,54.22h0A1.79,1.79,0,0,0,24.79,56H39.21A1.79,1.79,0,0,0,41,54.22h0A3.55,3.55,0,0,0,37.45,50.67Z"/><path class="cls-2" d="M37.45,50.67H26.55A3.55,3.55,0,0,0,23,54.22h0A1.79,1.79,0,0,0,24.79,56H39.21A1.79,1.79,0,0,0,41,54.22h0A3.55,3.55,0,0,0,37.45,50.67Z"/><rect class="cls-3" x="8" y="13.17" width="48" height="34" rx="4.04"/><path class="cls-2" d="M8,41.38v1.75a4,4,0,0,0,4,4H52a4,4,0,0,0,4-4V41.38Z"/><rect class="cls-4" x="8" y="39.31" width="48" height="2.06"/><path class="cls-1" d="M33.1,44.27A1.1,1.1,0,1,1,32,43.18,1.1,1.1,0,0,1,33.1,44.27Z"/><path class="cls-2" d="M19.38,20H13.94v5.44h5.44Zm-2,3.44H15.94V22h1.44Z"/><path class="cls-1" d="M13.94,36.11h5.44V30.68H13.94Zm2-3.43h1.44v1.43H15.94Z"/><path class="cls-1" d="M24.63,20v5.44h5.43V20Zm3.43,3.44H26.63V22h1.43Z"/><rect class="cls-1" x="13.94" y="26.9" width="3.23" height="2"/><rect class="cls-2" x="20.81" y="34.11" width="3.23" height="2"/><polygon class="cls-2" points="20.81 30.77 20.81 32.77 22.81 32.77 22.81 30.68 20.81 30.77"/><polygon class="cls-1" points="26.04 30.68 24.04 30.77 24.04 32.77 26.04 32.77 26.04 30.68"/><polygon class="cls-1" points="24.04 26.9 22.81 26.9 22.81 19.99 20.81 19.99 20.81 26.9 18.81 26.9 18.81 28.9 20.81 28.9 22.04 28.9 22.81 28.9 24.04 28.9 26.04 28.9 28.06 28.9 28.06 30.73 27.27 30.77 27.27 32.77 28.06 32.77 28.06 33.25 28.06 34.11 25.63 34.11 25.63 36.11 30.06 36.11 30.06 33.25 30.06 31.68 30.06 28.9 30.06 27.91 30.06 26.9 26.04 26.9 24.04 26.9"/><rect class="cls-5" x="36.68" y="24.4" width="13.39" height="1.19"/><rect class="cls-5" x="36.68" y="27.3" width="13.39" height="1.19"/><rect class="cls-5" x="36.68" y="30.21" width="6.69" height="1.19"/><rect class="cls-5" x="33.97" y="24.4" width="1.31" height="1.19"/><rect class="cls-5" x="33.97" y="27.3" width="1.31" height="1.19"/><rect class="cls-5" x="33.97" y="30.21" width="1.31" height="1.19"/></svg>