<svg id="Layer_1" data-name="Layer 1" xmlns="http://www.w3.org/2000/svg" viewBox="0 0 64 64"><defs><style>.cls-1{fill:#F4DFDF;}.cls-2{fill:#e5cccc;}.cls-3{fill:#FC0707;}.cls-4{fill:#DD1515;}.cls-5{fill:#fff;}</style></defs><title>e-commerce, commerce, shopping, message, mail, email, payment, finance</title><path class="cls-1" d="M29.4,16,10.61,26.85A5.19,5.19,0,0,0,8,31.35V50.86a5.19,5.19,0,0,0,5.19,5.19H50.8A5.19,5.19,0,0,0,56,50.86V31.35a5.19,5.19,0,0,0-2.6-4.5L34.6,16A5.19,5.19,0,0,0,29.4,16Z"/><path class="cls-2" d="M56,50.86V31.35a5.19,5.19,0,0,0-2.6-4.5L37.93,17.92,25.59,44.77l15.58,8.76a19.58,19.58,0,0,0,9.63,2.52h0A5.19,5.19,0,0,0,56,50.86Z"/><path class="cls-3" d="M53.39,26.85,34.6,16a5.19,5.19,0,0,0-5.2,0L10.61,26.85A5.19,5.19,0,0,0,8,31.35v.27a5.19,5.19,0,0,0,2.6,4.5L29.4,47a5.19,5.19,0,0,0,5.2,0L53.39,36.12a5.19,5.19,0,0,0,2.6-4.5v-.27A5.19,5.19,0,0,0,53.39,26.85Z"/><path class="cls-4" d="M8,31.57a5.2,5.2,0,0,0,2.6,4.5L29.4,46.92a5.19,5.19,0,0,0,5.2,0L53.39,36.07a5.2,5.2,0,0,0,2.6-4.5V31.3C56,31.19,8,31.57,8,31.57Z"/><path class="cls-5" d="M32,31.33a1,1,0,0,1-1-1,1,1,0,0,1,1-1,1,1,0,0,1,.86.49.93.93,0,0,0,.79.5h0a1.1,1.1,0,0,0,.92-1.7,3.18,3.18,0,0,0-1.17-1,.68.68,0,0,1-.35-.61h0a1,1,0,0,0-1-1h0A1,1,0,0,0,31,27h0a.69.69,0,0,1-.36.62A3.13,3.13,0,0,0,29.37,32,3,3,0,0,0,32,33.43a1,1,0,0,1,0,2,1,1,0,0,1-.86-.49.93.93,0,0,0-.79-.5h0a1.1,1.1,0,0,0-.9,1.73,3.2,3.2,0,0,0,1.15,1,.68.68,0,0,1,.35.61h0a1,1,0,0,0,1.05,1h0a1,1,0,0,0,1-1h0a.69.69,0,0,1,.36-.62,3.13,3.13,0,0,0,1.18-4.49A2.94,2.94,0,0,0,32,31.33Z"/></svg>