<svg id="Layer_1" data-name="Layer 1" xmlns="http://www.w3.org/2000/svg" viewBox="0 0 64 64"><defs><style>.cls-1{fill:#ff5454;}.cls-2{fill:#dd1515;}.cls-3{fill:#dfe8f4;}.cls-4{fill:#ccd8e5;}.cls-5{fill:#fff;}</style></defs><title>e-commerce, commerce, shopping, sale, click, hand, gesture</title><circle class="cls-1" cx="27.17" cy="27.17" r="19.17" transform="translate(-5.87 46.79) rotate(-75.71)"/><path class="cls-2" d="M26.82,46.32h.35a19.05,19.05,0,0,0,13-5.13L29.26,33.88l-2.44,1.93Z"/><path class="cls-3" d="M56,46.31l-1.61-1.2a1.66,1.66,0,0,1-.65-1.17,9.23,9.23,0,0,0-3.18-6.16L49.61,37a6,6,0,0,0-6.85-.67l-5.54,3.14a.71.71,0,0,1-.81-.07l-7.48-6.12a1,1,0,0,0-1.31.07,2.76,2.76,0,0,0,0,3.89l8,8a2.77,2.77,0,0,1,.82,1.95l0,1.29a4.85,4.85,0,0,0,4.09,4.72l2.82.45a2,2,0,0,1,1.15.58L46.31,56H56V46.31Z"/><polygon class="cls-3" points="33.63 43.22 27.62 37.21 27.62 37.21 33.63 43.22 33.63 43.22"/><path class="cls-4" d="M56,46.31l-1.61-1.2a1.86,1.86,0,0,1-.4-.44V49.8A4.18,4.18,0,0,1,49.8,54H44.3l.25.25L46.31,56H56V46.31Z"/><polygon class="cls-4" points="44.29 53.98 44.3 53.98 44.29 53.97 44.29 53.98"/><path class="cls-4" d="M36.49,48.48a5,5,0,0,0,.21,1.28h0a2.3,2.3,0,0,1,1.73.08h0a.64.64,0,0,0,.73-.14h0a.64.64,0,0,0,0-.92l-3.53-3.53a2.77,2.77,0,0,1,.82,1.95Z"/><circle class="cls-5" cx="23.4" cy="23.4" r="2.23"/><path class="cls-5" d="M33.17,30.94a2.24,2.24,0,1,1-2.23-2.24A2.23,2.23,0,0,1,33.17,30.94Z"/><path class="cls-5" d="M23.24,32.1a1,1,0,0,1-.72-.29,1,1,0,0,1,0-1.43l7.86-7.86A1,1,0,0,1,31.81,24L24,31.81A1,1,0,0,1,23.24,32.1Z"/></svg>