<svg id="Layer_1" data-name="Layer 1" xmlns="http://www.w3.org/2000/svg" viewBox="0 0 64 64"><defs><style>.cls-1{fill:#F4DFDF;}.cls-2{fill:#e5cccc;}.cls-3{fill:#fff;}.cls-4{fill:#FC0707;}.cls-5{fill:#DD1515;}</style></defs><title>e-commerce, commerce, shopping, package, box, percentage, delivery</title><rect class="cls-1" x="14.28" y="8" width="35.43" height="31" rx="3.13"/><path class="cls-2" d="M46.59,8H37.68L26.36,19.42l9.27,9.27A6,6,0,0,1,37.4,33h0a6,6,0,0,0,6,6h3.15a3.13,3.13,0,0,0,3.13-3.13V11.13A3.13,3.13,0,0,0,46.59,8Z"/><path class="cls-3" d="M26.16,8V18.89a.79.79,0,0,0,.79.8h10.1a.79.79,0,0,0,.79-.8V8Z"/><circle class="cls-4" cx="32" cy="44" r="12"/><path class="cls-5" d="M21.1,39H42.9a12,12,0,0,0-21.8,0Z"/><circle class="cls-3" cx="28.93" cy="40.93" r="1.82"/><circle class="cls-3" cx="35.07" cy="47.07" r="1.82"/><path class="cls-3" d="M28.8,48a.82.82,0,0,1-.58-.24.83.83,0,0,1,0-1.17l6.39-6.39a.83.83,0,0,1,1.17,1.17l-6.39,6.39A.86.86,0,0,1,28.8,48Z"/></svg>