<svg id="Layer_1" data-name="Layer 1" xmlns="http://www.w3.org/2000/svg" viewBox="0 0 64 64"><defs><style>.cls-1{fill:#F4DFDF;}.cls-2{fill:#e5cccc;}.cls-3{fill:#FC0707;}.cls-4{fill:#DD1515;}</style></defs><title>e-commerce, commerce, shopping, payment, finance, credit, card</title><rect class="cls-1" x="16.49" y="26" width="39.5" height="24" rx="2.62"/><rect class="cls-2" x="16.49" y="32" width="39.5" height="6"/><rect class="cls-3" x="8.01" y="14" width="39.5" height="24" rx="2.62"/><rect class="cls-4" x="12.83" y="18.29" width="6" height="4.33" rx="0.6"/><path class="cls-4" d="M35,29.83a3.83,3.83,0,0,1,1.94-3.33A3.77,3.77,0,0,0,35,26a3.88,3.88,0,1,0,1.94,7.21A3.85,3.85,0,0,1,35,29.83Z"/><path class="cls-4" d="M38.83,26a3.77,3.77,0,0,0-1.94.54,3.84,3.84,0,0,1,0,6.67A3.87,3.87,0,1,0,38.83,26Z"/><path class="cls-3" d="M38.83,29.83a3.85,3.85,0,0,0-1.94-3.33,3.84,3.84,0,0,0,0,6.67A3.87,3.87,0,0,0,38.83,29.83Z"/></svg>