<svg id="Layer_1" data-name="Layer 1" xmlns="http://www.w3.org/2000/svg" viewBox="0 0 64 64"><defs><style>.cls-1{fill:#F4DFDF;}.cls-2{fill:#e5cccc;}.cls-3{fill:#FC0707;}.cls-4{fill:#DD1515;}.cls-5{fill:#fff;}</style></defs><title>e-commerce, commerce, shopping, clothes, clothing, download, arrow</title><path class="cls-1" d="M24.79,28.83h0a23.43,23.43,0,0,0-15.63,6l-.79.7A1.1,1.1,0,0,0,8.21,37l3,4.3a1.09,1.09,0,0,0,1.52.25L15,39.94V55.46a.54.54,0,0,0,.54.54H34.08a.54.54,0,0,0,.54-.54V39.94l2.19,1.56a1.09,1.09,0,0,0,1.52-.25L41.38,37a1.1,1.1,0,0,0-.16-1.45l-.79-.7A23.44,23.44,0,0,0,24.79,28.83Z"/><path class="cls-2" d="M24.79,28.83a23.09,23.09,0,0,0-5.63.69,5.67,5.67,0,0,0,11.27,0A23.11,23.11,0,0,0,24.79,28.83Z"/><path class="cls-3" d="M53,8H36.21a3.13,3.13,0,0,0-3.12,3.13V28.65a1,1,0,0,0,1.65.68l2.14-2.14a2.59,2.59,0,0,1,1.82-.76H53a3.13,3.13,0,0,0,3.13-3.12V11.13A3.13,3.13,0,0,0,53,8Z"/><path class="cls-4" d="M33.09,28.65a1,1,0,0,0,1.65.68l2.14-2.14a2.59,2.59,0,0,1,1.82-.76H35a1.89,1.89,0,0,0-1.88,1.89Z"/><path class="cls-5" d="M40.41,17,44,21.62a.82.82,0,0,0,1.3,0L48.8,17a.82.82,0,0,0-.65-1.32h-.82V13.55a.93.93,0,0,0-.92-.93h-3.6a.93.93,0,0,0-.92.93V15.7h-.83A.82.82,0,0,0,40.41,17Z"/></svg>