<svg id="Layer_1" data-name="Layer 1" xmlns="http://www.w3.org/2000/svg" viewBox="0 0 64 64"><defs><style>.cls-1{fill:#dfe8f4;}.cls-2{fill:#ccd8e5;}.cls-3{fill:#ff5454;}.cls-4{fill:#fff;}</style></defs><title>e-commerce, commerce, shopping, sticker, basket, hand, gesture</title><path class="cls-1" d="M8,41l4.77-1a26,26,0,0,0,5-1.54h0a11.63,11.63,0,0,1,8-.37L34.93,41a2,2,0,0,1,1.25,2.56h0a1,1,0,0,1-1,.64l-5.92-.14L35,45.38a26.58,26.58,0,0,0,10.77.23l2.48-.46a1.72,1.72,0,0,1,2,1.69h0a.85.85,0,0,1-.53.79l-3,1.23a26.66,26.66,0,0,1-13.34,1.71l-8.57-1.11c-2.69-.52-5.49.86-7.94,2.09L8,56Z"/><polygon class="cls-2" points="10.38 40.53 8.03 41 8 56 10.38 54.81 10.38 40.53"/><path class="cls-3" d="M56,23.5a5,5,0,0,0-1-3.06,2,2,0,0,1-.41-1.52,5,5,0,0,0-3.06-5.3,2.05,2.05,0,0,1-1.12-1.12,5,5,0,0,0-5.29-3.05A2.09,2.09,0,0,1,43.59,9a5,5,0,0,0-6.11,0A2.09,2.09,0,0,1,36,9.45a5,5,0,0,0-5.29,3.05,2.05,2.05,0,0,1-1.12,1.12,5,5,0,0,0-3.05,5.3,2.07,2.07,0,0,1-.41,1.52,5,5,0,0,0,0,6.12,2.07,2.07,0,0,1,.41,1.52,5,5,0,0,0,.62,3.17h0a5,5,0,0,0,2.43,2.13,2.05,2.05,0,0,1,1.12,1.12,5,5,0,0,0,5.29,3,2.09,2.09,0,0,1,1.53.41,5,5,0,0,0,6.11,0,2.09,2.09,0,0,1,1.53-.41,5,5,0,0,0,5.29-3,2.05,2.05,0,0,1,1.12-1.12A5,5,0,0,0,54,31.25h0a5,5,0,0,0,.63-3.17A2,2,0,0,1,55,26.56,5,5,0,0,0,56,23.5Z"/><path class="cls-4" d="M44.21,28.28H36.89a.78.78,0,0,1-.75-.58l-1.32-5.27a.78.78,0,0,1,.76-1h10a.78.78,0,0,1,.75,1L45,27.7A.76.76,0,0,1,44.21,28.28Z"/><circle class="cls-4" cx="37.34" cy="30.83" r="1.17"/><circle class="cls-4" cx="43.77" cy="30.83" r="1.17"/><path class="cls-4" d="M37.17,24.66l-1.31-5.27h0a.75.75,0,0,0-.72-.56H32.76a.76.76,0,0,0,0,1.52h1.11a.56.56,0,0,1,.54.41l1,3.9a.78.78,0,0,0,.76.59h1.79A.78.78,0,0,1,37.17,24.66Z"/></svg>