<svg id="Layer_1" data-name="Layer 1" xmlns="http://www.w3.org/2000/svg" viewBox="0 0 64 64"><defs><style>.cls-1{fill:#dfe8f4;}.cls-2{fill:#fff;}.cls-3{fill:#ccd8e5;}.cls-4{fill:#ff5454;}.cls-5{fill:#dd1515;}</style></defs><title>e-commerce, commerce, shopping, credit, card, payment, finance</title><rect class="cls-1" x="16.49" y="26" width="39.5" height="24" rx="2.62"/><rect class="cls-2" x="21.3" y="30.29" width="6" height="4.33" rx="0.6"/><path class="cls-2" d="M43.42,41.83a3.85,3.85,0,0,1,1.94-3.33A3.77,3.77,0,0,0,43.42,38a3.88,3.88,0,1,0,1.94,7.21A3.87,3.87,0,0,1,43.42,41.83Z"/><path class="cls-3" d="M47.3,38a3.77,3.77,0,0,0-1.94.54,3.84,3.84,0,0,1,0,6.67A3.87,3.87,0,1,0,47.3,38Z"/><path class="cls-1" d="M47.3,41.83a3.83,3.83,0,0,0-1.94-3.33,3.84,3.84,0,0,0,0,6.67A3.85,3.85,0,0,0,47.3,41.83Z"/><rect class="cls-4" x="8.01" y="14" width="39.5" height="24" rx="2.62"/><rect class="cls-5" x="8.01" y="20" width="39.5" height="6"/></svg>