<svg id="Layer_1" data-name="Layer 1" xmlns="http://www.w3.org/2000/svg" viewBox="0 0 64 64"><defs><style>.cls-1{fill:#dfe8f4;}.cls-2{fill:#ccd8e5;}.cls-3{fill:#ff5454;}.cls-4{fill:#dd1515;}</style></defs><title>e-commerce, commerce, shopping, chart, analytics, statistics</title><path class="cls-1" d="M32,32H56a23.9,23.9,0,0,0-6.55-16.47Z"/><path class="cls-2" d="M49.45,15.53l-6.73,6.36a14.69,14.69,0,0,1,4,10.11H56A23.9,23.9,0,0,0,49.45,15.53Z"/><path class="cls-1" d="M32,15A17,17,0,1,1,15,32,17,17,0,0,1,32,15m0-7A24,24,0,1,0,56,32,24,24,0,0,0,32,8Z"/><path class="cls-2" d="M49,32c0,.46,0,.92-.07,1.38h7c0-.46,0-.92,0-1.38s0-.67,0-1H49C49,31.33,49,31.66,49,32Z"/><path class="cls-3" d="M32,8v7A17,17,0,0,1,49,32h7A24,24,0,0,0,32,8Z"/><path class="cls-4" d="M44.35,20.35A16.93,16.93,0,0,1,49,32h7a23.9,23.9,0,0,0-6.55-16.47Z"/><path class="cls-3" d="M27.68,37.5H21.83a.63.63,0,0,1-.61-.47l-1-4.22a.62.62,0,0,1,.6-.77h8a.63.63,0,0,1,.61.77L28.28,37A.63.63,0,0,1,27.68,37.5Z"/><path class="cls-3" d="M23.12,39.53a.94.94,0,1,1-.94-.93A.94.94,0,0,1,23.12,39.53Z"/><path class="cls-3" d="M28.26,39.53a.94.94,0,1,1-.94-.93A.94.94,0,0,1,28.26,39.53Z"/><path class="cls-3" d="M22.05,34.6,21,30.39h0a.59.59,0,0,0-.57-.45H18.52a.61.61,0,1,0,0,1.21h.89a.43.43,0,0,1,.42.33l.79,3.12a.6.6,0,0,0,.6.47h1.43A.62.62,0,0,1,22.05,34.6Z"/></svg>