<svg id="Layer_1" data-name="Layer 1" xmlns="http://www.w3.org/2000/svg" viewBox="0 0 64 64"><defs><style>.cls-1{fill:#F4DFDF;}.cls-2{fill:#e5cccc;}.cls-3{fill:#FC0707;}.cls-4{fill:#DD1515;}.cls-5{fill:#fff;}</style></defs><title>e-commerce, commerce, shopping, message, mail, newsletter, basket</title><path class="cls-1" d="M29.4,16,10.61,26.8A5.19,5.19,0,0,0,8,31.3V50.8A5.2,5.2,0,0,0,13.2,56H50.8A5.2,5.2,0,0,0,56,50.8V31.3a5.19,5.19,0,0,0-2.6-4.5L34.6,16A5.19,5.19,0,0,0,29.4,16Z"/><path class="cls-2" d="M56,50.8V31.3a5.19,5.19,0,0,0-2.6-4.5L37.93,17.87,25.59,44.71l15.58,8.77A19.69,19.69,0,0,0,50.8,56h0A5.19,5.19,0,0,0,56,50.8Z"/><path class="cls-3" d="M53.39,26.8,34.6,16a5.19,5.19,0,0,0-5.2,0L10.61,26.8A5.19,5.19,0,0,0,8,31.3v.27a5.2,5.2,0,0,0,2.6,4.5L29.4,46.92a5.19,5.19,0,0,0,5.2,0L53.39,36.07a5.2,5.2,0,0,0,2.6-4.5V31.3A5.19,5.19,0,0,0,53.39,26.8Z"/><path class="cls-4" d="M8,31.57a5.2,5.2,0,0,0,2.6,4.5L29.4,46.92a5.19,5.19,0,0,0,5.2,0L53.39,36.07a5.2,5.2,0,0,0,2.6-4.5V31.3C56,31.19,8,31.57,8,31.57Z"/><path class="cls-5" d="M35.74,36.43H28.42a.78.78,0,0,1-.75-.59l-1.32-5.27a.78.78,0,0,1,.76-1h10a.77.77,0,0,1,.75,1l-1.32,5.27A.76.76,0,0,1,35.74,36.43Z"/><path class="cls-5" d="M30,39a1.17,1.17,0,0,1-2.34,0A1.17,1.17,0,0,1,30,39Z"/><path class="cls-5" d="M36.47,39a1.17,1.17,0,0,1-2.34,0,1.17,1.17,0,0,1,2.34,0Z"/><path class="cls-5" d="M28.7,32.81l-1.31-5.27h0a.75.75,0,0,0-.72-.56H24.29a.76.76,0,0,0-.76.76.75.75,0,0,0,.76.75H25.4a.57.57,0,0,1,.54.42l1,3.9a.78.78,0,0,0,.76.59h1.79A.78.78,0,0,1,28.7,32.81Z"/></svg>