<svg id="Layer_1" data-name="Layer 1" xmlns="http://www.w3.org/2000/svg" viewBox="0 0 64 64"><defs><style>.cls-1{fill:#FC0707;}.cls-2{fill:#DD1515;}.cls-3{fill:#F4DFDF;}.cls-4{fill:#e5cccc;}.cls-5{fill:#fff;}</style></defs><title>e-commerce, commerce, shopping, protection, shield, cart</title><path class="cls-1" d="M51.67,37v-23a3.15,3.15,0,0,0-2.47-3.07l-9.05-2a38.29,38.29,0,0,0-16.3,0l-9,2a3.15,3.15,0,0,0-2.47,3.07V37a14.7,14.7,0,0,0,7.35,12.73l9.64,5.57a5.35,5.35,0,0,0,5.36,0l9.64-5.57A14.7,14.7,0,0,0,51.67,37Z"/><path class="cls-2" d="M49.2,10.85l-9.05-2a38.29,38.29,0,0,0-16.3,0l-1.68.36,7.36,1.6A3.15,3.15,0,0,1,32,13.92V37a14.68,14.68,0,0,1-7.35,12.73l-2.48,1.44,7.15,4.13a5.35,5.35,0,0,0,5.36,0l9.64-5.57A14.7,14.7,0,0,0,51.67,37v-23A3.15,3.15,0,0,0,49.2,10.85Z"/><path class="cls-3" d="M32,12a34.5,34.5,0,0,1,7.3.79l8.37,1.81V37a10.73,10.73,0,0,1-5.35,9.27l-9.64,5.56a1.31,1.31,0,0,1-1.36,0l-9.64-5.56A10.73,10.73,0,0,1,16.33,37V14.61L24.7,12.8A34.5,34.5,0,0,1,32,12m0-4a38,38,0,0,0-8.15.88l-9,2a3.15,3.15,0,0,0-2.47,3.07V37a14.7,14.7,0,0,0,7.35,12.73l9.64,5.57a5.35,5.35,0,0,0,5.36,0l9.64-5.57A14.7,14.7,0,0,0,51.67,37v-23a3.15,3.15,0,0,0-2.47-3.07l-9.05-2A38,38,0,0,0,32,8Z"/><path class="cls-4" d="M49.2,10.85l-9.05-2a37.71,37.71,0,0,0-4.06-.66A37.23,37.23,0,0,0,32,8a39.16,39.16,0,0,0-6.12.49c-.68.11-1.36.24-2,.39l-1.68.36,7.36,1.6A3.18,3.18,0,0,1,31.36,12L32,12a34.5,34.5,0,0,1,7.3.79l8.37,1.81V37a10.73,10.73,0,0,1-5.35,9.27l-9.64,5.56a1.31,1.31,0,0,1-1.36,0l-5.26-3a14.93,14.93,0,0,1-1.41.93l-2.48,1.44,7.15,4.13a5.35,5.35,0,0,0,5.36,0l9.64-5.57a14.7,14.7,0,0,0,3.72-3,15.49,15.49,0,0,0,1-1.3c.23-.33.45-.67.66-1a15.77,15.77,0,0,0,.84-1.7,16.08,16.08,0,0,0,.62-1.81A14.88,14.88,0,0,0,51.67,37v-23A3.15,3.15,0,0,0,49.2,10.85Z"/><path class="cls-5" d="M37.23,36.52H26.78a1.11,1.11,0,0,1-1.08-.84l-1.88-7.53a1.11,1.11,0,0,1,1.08-1.38H39.11a1.11,1.11,0,0,1,1.08,1.38l-1.88,7.53A1.1,1.1,0,0,1,37.23,36.52Z"/><path class="cls-5" d="M29.08,40.16a1.67,1.67,0,1,1-1.67-1.67A1.67,1.67,0,0,1,29.08,40.16Z"/><path class="cls-5" d="M38.27,40.16a1.67,1.67,0,1,1-1.67-1.67A1.67,1.67,0,0,1,38.27,40.16Z"/><path class="cls-5" d="M27.18,31.35,25.3,23.82h0a1.07,1.07,0,0,0-1-.8H20.87a1.08,1.08,0,0,0,0,2.16h1.6a.79.79,0,0,1,.76.6l1.39,5.57a1.11,1.11,0,0,0,1.08.84h2.56A1.12,1.12,0,0,1,27.18,31.35Z"/></svg>