<svg id="Layer_1" data-name="Layer 1" xmlns="http://www.w3.org/2000/svg" viewBox="0 0 64 64"><defs><style>.cls-1{fill:#DD1515;}.cls-2{fill:#FC0707;}.cls-3{fill:#F4DFDF;}.cls-4{fill:#e5cccc;}.cls-5{fill:#fff;}</style></defs><title>e-commerce, commerce, shopping, monitor, computer, percentage, sale</title><path class="cls-1" d="M37.45,50.67h0a2.24,2.24,0,0,1-2.24-2.25V45.17H28.79v3.25a2.24,2.24,0,0,1-2.24,2.25h0A3.55,3.55,0,0,0,23,54.22h0A1.79,1.79,0,0,0,24.79,56H39.21A1.79,1.79,0,0,0,41,54.22h0A3.55,3.55,0,0,0,37.45,50.67Z"/><path class="cls-2" d="M37.45,50.67H26.55A3.55,3.55,0,0,0,23,54.22h0A1.79,1.79,0,0,0,24.79,56H39.21A1.79,1.79,0,0,0,41,54.22h0A3.55,3.55,0,0,0,37.45,50.67Z"/><rect class="cls-3" x="8" y="13.17" width="48" height="34" rx="4.04"/><path class="cls-2" d="M8,41.38v1.75a4,4,0,0,0,4,4H52a4,4,0,0,0,4-4V41.38Z"/><rect class="cls-4" x="8" y="39.31" width="48" height="2.06"/><circle class="cls-1" cx="32" cy="44.27" r="1.1"/><rect class="cls-5" x="36.68" y="24.4" width="13.39" height="1.19"/><rect class="cls-5" x="36.68" y="27.3" width="13.39" height="1.19"/><rect class="cls-5" x="36.68" y="30.21" width="6.69" height="1.19"/><rect class="cls-5" x="33.97" y="24.4" width="1.31" height="1.19"/><rect class="cls-5" x="33.97" y="27.3" width="1.31" height="1.19"/><rect class="cls-5" x="33.97" y="30.21" width="1.31" height="1.19"/><path class="cls-1" d="M20.35,24A2.4,2.4,0,1,1,18,21.6,2.39,2.39,0,0,1,20.35,24Z"/><path class="cls-1" d="M28.45,32.1a2.4,2.4,0,1,1-2.4-2.4A2.39,2.39,0,0,1,28.45,32.1Z"/><path class="cls-2" d="M17.78,33.36A1.09,1.09,0,0,1,17,31.5l8.44-8.44A1.09,1.09,0,1,1,27,24.6L18.55,33A1.09,1.09,0,0,1,17.78,33.36Z"/></svg>