<svg id="Layer_1" data-name="Layer 1" xmlns="http://www.w3.org/2000/svg" viewBox="0 0 64 64"><defs><style>.cls-1{fill:#DD1515;}.cls-2{fill:#FC0707;}.cls-3{fill:#F4DFDF;}.cls-4{fill:#e5cccc;}.cls-5{fill:#fff;}</style></defs><title>e-commerce, commerce, shopping, monitor, computer, store, shop</title><path class="cls-1" d="M37.45,50.67h0a2.24,2.24,0,0,1-2.24-2.25V45.17H28.79v3.25a2.24,2.24,0,0,1-2.24,2.25h0A3.55,3.55,0,0,0,23,54.22h0A1.79,1.79,0,0,0,24.79,56H39.21A1.79,1.79,0,0,0,41,54.22h0A3.55,3.55,0,0,0,37.45,50.67Z"/><path class="cls-2" d="M37.45,50.67H26.55A3.55,3.55,0,0,0,23,54.22h0A1.79,1.79,0,0,0,24.79,56H39.21A1.79,1.79,0,0,0,41,54.22h0A3.55,3.55,0,0,0,37.45,50.67Z"/><rect class="cls-3" x="8" y="13.17" width="48" height="34" rx="4.04"/><path class="cls-2" d="M8,41.38v1.75a4,4,0,0,0,4,4H52a4,4,0,0,0,4-4V41.38Z"/><rect class="cls-4" x="8" y="39.31" width="48" height="2.06"/><circle class="cls-1" cx="32" cy="44.27" r="1.1"/><rect class="cls-5" x="36.68" y="24.4" width="13.39" height="1.19"/><rect class="cls-5" x="36.68" y="27.3" width="13.39" height="1.19"/><rect class="cls-5" x="36.68" y="30.21" width="6.69" height="1.19"/><rect class="cls-5" x="33.97" y="24.4" width="1.31" height="1.19"/><rect class="cls-5" x="33.97" y="27.3" width="1.31" height="1.19"/><rect class="cls-5" x="33.97" y="30.21" width="1.31" height="1.19"/><path class="cls-1" d="M30,25.9h0a1.77,1.77,0,0,0-.15-.31l-2-3a3.79,3.79,0,0,0-3.14-1.67H19.32a3.82,3.82,0,0,0-3.15,1.67l-2,3a1,1,0,0,0-.15.31h0a1.15,1.15,0,0,0-.06.37v1a.68.68,0,0,0,.68.68h.56v6.51a.43.43,0,0,0,.43.43h.92a.43.43,0,0,0,.43-.43V31.24a1.76,1.76,0,0,1,1.4-1.75,1.69,1.69,0,0,1,2,1.66v3.27a.43.43,0,0,0,.43.43h7.63a.44.44,0,0,0,.44-.43V27.91h.55a.68.68,0,0,0,.68-.68v-1A1.5,1.5,0,0,0,30,25.9Zm-3,6.31a.31.31,0,0,1-.31.31H22.31a.31.31,0,0,1-.31-.31V29.78a.31.31,0,0,1,.31-.31h4.42a.31.31,0,0,1,.31.31Z"/><path class="cls-2" d="M30,25.9h0a1.77,1.77,0,0,0-.15-.31l-2-3a3.79,3.79,0,0,0-3.14-1.67H19.32a3.82,3.82,0,0,0-3.15,1.67l-2,3a1,1,0,0,0-.15.31h0a1.15,1.15,0,0,0-.06.37v1a.68.68,0,0,0,.61.67h14.9a.68.68,0,0,0,.61-.67v-1a1.5,1.5,0,0,0,0-.37Z"/></svg>