<svg id="Layer_1" data-name="Layer 1" xmlns="http://www.w3.org/2000/svg" viewBox="0 0 64 64"><defs><style>.cls-1{fill:#dd1515;}.cls-2{fill:#ff5454;}.cls-3{fill:#dfe8f4;}.cls-4{fill:#ccd8e5;}.cls-5{fill:#fff;}</style></defs><title>e-commerce, commerce, shopping, monitor, computer, clothes, clothing</title><path class="cls-1" d="M37.45,50.67h0a2.24,2.24,0,0,1-2.24-2.25V45.17H28.79v3.25a2.24,2.24,0,0,1-2.24,2.25h0A3.55,3.55,0,0,0,23,54.22h0A1.79,1.79,0,0,0,24.79,56H39.21A1.79,1.79,0,0,0,41,54.22h0A3.55,3.55,0,0,0,37.45,50.67Z"/><path class="cls-2" d="M37.45,50.67H26.55A3.55,3.55,0,0,0,23,54.22h0A1.79,1.79,0,0,0,24.79,56H39.21A1.79,1.79,0,0,0,41,54.22h0A3.55,3.55,0,0,0,37.45,50.67Z"/><rect class="cls-3" x="8" y="13.17" width="48" height="34" rx="4.04"/><path class="cls-2" d="M8,41.38v1.75a4,4,0,0,0,4,4H52a4,4,0,0,0,4-4V41.38Z"/><rect class="cls-4" x="8" y="39.31" width="48" height="2.06"/><circle class="cls-1" cx="32" cy="44.27" r="1.1"/><rect class="cls-5" x="36.68" y="24.4" width="13.39" height="1.19"/><rect class="cls-5" x="36.68" y="27.3" width="13.39" height="1.19"/><rect class="cls-5" x="36.68" y="30.21" width="6.69" height="1.19"/><rect class="cls-5" x="33.97" y="24.4" width="1.31" height="1.19"/><rect class="cls-5" x="33.97" y="27.3" width="1.31" height="1.19"/><rect class="cls-5" x="33.97" y="30.21" width="1.31" height="1.19"/><path class="cls-2" d="M22,21.37h0a11.26,11.26,0,0,0-7.51,2.87l-.38.34a.51.51,0,0,0-.07.69l1.46,2.07a.53.53,0,0,0,.73.12l1.05-.75v7.45a.26.26,0,0,0,.26.26h8.92a.26.26,0,0,0,.26-.26V26.71l1.05.75a.53.53,0,0,0,.73-.12L30,25.27a.52.52,0,0,0-.08-.69l-.38-.34A11.26,11.26,0,0,0,22,21.37Z"/><path class="cls-1" d="M22,21.37a11.69,11.69,0,0,0-2.71.33,2.73,2.73,0,0,0,5.42,0A11.69,11.69,0,0,0,22,21.37Z"/></svg>