<svg width="18" height="18" viewBox="0 0 18 18" fill="none" xmlns="http://www.w3.org/2000/svg">
<path d="M12.9885 14.7411C12.9892 14.8879 13.0471 15.0284 13.1496 15.1319C13.2522 15.2353 13.3909 15.2932 13.5354 15.2929H15.176C15.3205 15.2932 15.4593 15.2353 15.5618 15.1319C15.6643 15.0284 15.7223 14.8879 15.7229 14.7411V13.6376C15.7223 13.4908 15.6643 13.3503 15.5618 13.2468C15.4593 13.1434 15.3205 13.0855 15.176 13.0858H13.5354C13.3909 13.0855 13.2522 13.1434 13.1496 13.2468C13.0471 13.3503 12.9892 13.4908 12.9885 13.6376V14.7411ZM13.5354 13.6375H15.176L15.1764 14.7411H13.5354L13.5354 13.6375Z" fill="#DC2434"/>
<path d="M3.82813 13.086H2.1875C2.04298 13.0857 1.90426 13.1436 1.80173 13.247C1.69925 13.3505 1.64125 13.491 1.64062 13.6378V14.7413V14.7413C1.64125 14.8881 1.69924 15.0286 1.80173 15.132C1.90427 15.2355 2.04298 15.2934 2.1875 15.293H3.82813C3.97265 15.2934 4.11136 15.2355 4.2139 15.132C4.31638 15.0286 4.37437 14.8881 4.375 14.7413V13.6378C4.37437 13.491 4.31638 13.3505 4.2139 13.247C4.11136 13.1436 3.97265 13.0856 3.82813 13.086V13.086ZM2.1875 14.7412V13.6378H3.82813L3.82852 14.7413L2.1875 14.7412Z" fill="#DC2434"/>
<path d="M0.533559 5.68939C0.542845 5.71184 0.552472 5.73418 0.562385 5.75629C0.483088 5.89512 0.451357 6.05674 0.47215 6.21588C0.493 6.37496 0.565176 6.52259 0.677396 6.63561L0.924861 6.88527C1.04107 7.00205 1.19265 7.07561 1.35519 7.09407C1.51766 7.11247 1.68149 7.07468 1.82015 6.98678C1.83188 6.9917 1.84367 6.99656 1.85552 7.0013H1.85558C1.89255 7.16276 1.98233 7.30668 2.11016 7.40969C2.23805 7.51264 2.39648 7.56865 2.55962 7.56843H2.90962C3.07278 7.56866 3.2312 7.51264 3.35908 7.40969C3.48691 7.30668 3.57669 7.16276 3.61366 7.0013C3.62551 6.99656 3.6373 6.9917 3.64904 6.98678H3.64909C3.78775 7.07468 3.95158 7.11247 4.11411 7.09407C4.27658 7.07561 4.42816 7.00206 4.54438 6.88527L4.79184 6.63557C4.90407 6.52261 4.97625 6.37498 4.99709 6.2159C5.01788 6.05676 4.98615 5.89513 4.90685 5.7563C4.91682 5.73414 4.92645 5.7118 4.93568 5.68935V5.6894C5.08824 5.64797 5.22313 5.55665 5.31951 5.42957C5.4159 5.30249 5.46842 5.1467 5.46899 4.98628V4.63316C5.46848 4.47963 5.4204 4.33015 5.33148 4.20596C5.24255 4.08183 5.11733 3.9893 4.97367 3.94155C4.95943 3.90191 4.94411 3.86267 4.92776 3.8239H4.92782C4.99515 3.68721 5.01822 3.53234 4.99384 3.38149C4.9694 3.23061 4.89871 3.09144 4.79183 2.9838L4.54437 2.7341V2.73416C4.44046 2.62981 4.30801 2.55968 4.1643 2.53294C4.02057 2.50615 3.87229 2.52397 3.7387 2.5841C3.68771 2.56014 3.63593 2.53803 3.58341 2.51784C3.53038 2.38016 3.43769 2.26194 3.3175 2.17865C3.1973 2.09538 3.05512 2.05088 2.90962 2.05093H2.55962C2.41413 2.05088 2.27193 2.09538 2.15174 2.17865C2.03154 2.26193 1.93885 2.38016 1.88582 2.51784C1.8333 2.53803 1.78152 2.56014 1.73054 2.5841C1.59695 2.52397 1.44867 2.50615 1.30494 2.53294C1.16121 2.55968 1.02876 2.62982 0.92487 2.73416L0.677405 2.98381C0.570537 3.09145 0.499838 3.23063 0.475397 3.3815C0.451015 3.53237 0.474087 3.68723 0.54142 3.82391C0.525071 3.86268 0.509803 3.90192 0.495506 3.94156H0.495563C0.351894 3.9893 0.226675 4.08184 0.137761 4.20597C0.0488358 4.33016 0.000757474 4.47965 0.000244141 4.63317V4.9863C0.000813795 5.14671 0.0533362 5.3025 0.149723 5.42958C0.24611 5.55666 0.381 5.64792 0.533557 5.68942L0.533559 5.68939ZM0.547117 4.63314C0.547288 4.58615 0.565801 4.54113 0.598614 4.50803C0.631426 4.47493 0.67586 4.45641 0.722117 4.45658H0.924694C0.966051 4.20646 1.05811 3.96775 1.19494 3.75567L1.06409 3.62366C1.03127 3.59062 1.01282 3.54571 1.01282 3.49878C1.01282 3.45191 1.03127 3.40694 1.06409 3.37396L1.31161 3.12425H1.31155C1.38008 3.05533 1.49053 3.05533 1.55908 3.12425L1.6815 3.24775H1.68144C1.89244 3.09821 2.13199 2.9955 2.38463 2.94624V2.77928C2.3848 2.73229 2.40332 2.68726 2.43613 2.65416C2.46894 2.62106 2.51338 2.60254 2.55963 2.60271H2.90963C2.95589 2.60254 3.00032 2.62106 3.03314 2.65416C3.06595 2.68726 3.08446 2.73229 3.08463 2.77928V2.94624C3.33727 2.99549 3.57682 3.09821 3.78783 3.24775L3.91025 3.12425H3.91019C3.97872 3.05533 4.08917 3.05533 4.15771 3.12425L4.40518 3.37396C4.43799 3.40694 4.45645 3.45191 4.45645 3.49878C4.45645 3.54571 4.43799 3.59068 4.40518 3.62366L4.27432 3.75567H4.27438C4.41116 3.96781 4.50321 4.20648 4.54457 4.45658H4.74714C4.7934 4.45641 4.83783 4.47493 4.87065 4.50803C4.90346 4.54113 4.92197 4.58615 4.92214 4.63314V4.98627C4.92197 5.03326 4.90346 5.07822 4.87065 5.11138C4.83783 5.14448 4.7934 5.163 4.74714 5.16283H4.52879C4.47683 5.40201 4.37835 5.62822 4.239 5.8281L4.40518 5.99574C4.43799 6.02873 4.45645 6.07369 4.45645 6.12057C4.45645 6.16744 4.43799 6.21241 4.40518 6.24539L4.15771 6.4951C4.08918 6.56408 3.97873 6.56408 3.91019 6.4951L3.73559 6.31893V6.31899C3.53751 6.44937 3.31649 6.53966 3.08463 6.5849V6.84012C3.08429 6.93797 3.00596 7.01702 2.90963 7.01668H2.55963C2.4633 7.01702 2.38496 6.93797 2.38463 6.84012V6.5849C2.15278 6.53965 1.93174 6.44937 1.73361 6.31899L1.55901 6.49515L1.55906 6.4951C1.49053 6.56408 1.38013 6.56408 1.31154 6.4951L1.06408 6.24539C1.03126 6.21241 1.01281 6.16744 1.01281 6.12057C1.01281 6.07369 1.03126 6.02873 1.06408 5.99574L1.23025 5.8281C1.09092 5.62822 0.992415 5.402 0.940469 5.16283H0.722113C0.625783 5.16318 0.547448 5.08413 0.547113 4.98627L0.547117 4.63314Z" fill="#DC2434"/>
<path d="M16.9533 8.1202H11.4517L11.9804 8.67193H16.9533V9.22366H12.509L12.7733 9.49953V9.49959L13.0377 9.77545H16.4064V15.8447H12.3048V10.879H12.6898C12.7433 10.8791 12.7957 10.8632 12.8404 10.8333C12.8852 10.8034 12.9203 10.7608 12.9414 10.7108C12.9624 10.661 12.9684 10.6059 12.9585 10.5526C12.9487 10.4993 12.9236 10.4502 12.8863 10.4114L8.92139 6.27336V6.2733C8.86864 6.22162 8.79817 6.19269 8.72485 6.19269C8.65153 6.19269 8.58107 6.22162 8.52831 6.2733L4.56339 10.4113V10.4114C4.52608 10.4502 4.50096 10.4993 4.49116 10.5526C4.48131 10.6059 4.48729 10.661 4.50825 10.7108C4.52939 10.7608 4.56448 10.8034 4.60925 10.8333C4.65397 10.8632 4.70638 10.8791 4.75993 10.879H5.19531V15.8447H1.09375V9.77545H4.4119L4.94054 9.22372L0.546875 9.22366V8.67193H5.46919L5.99783 8.1202H0.546875C0.402351 8.11968 0.263521 8.17755 0.160927 8.28102C0.0583888 8.38449 0.000510417 8.52512 0 8.67193V9.22366C0.000512692 9.37054 0.0583902 9.51116 0.160927 9.61464C0.263524 9.71811 0.402354 9.77593 0.546875 9.77545V15.8447C0.402351 15.8442 0.263521 15.9021 0.160927 16.0056C0.0583888 16.109 0.000510417 16.2497 0 16.3965V16.9483C0.000512692 17.0951 0.0583902 17.2357 0.160927 17.3392C0.263524 17.4427 0.402354 17.5005 0.546875 17.5H16.9531C17.0976 17.5005 17.2365 17.4426 17.3391 17.3392C17.4416 17.2357 17.4995 17.0951 17.5 16.9483V16.3965C17.4995 16.2497 17.4416 16.109 17.3391 16.0056C17.2365 15.9021 17.0976 15.8442 16.9531 15.8447V9.77545C17.0976 9.77592 17.2365 9.7181 17.3391 9.61464C17.4416 9.51117 17.4995 9.37054 17.5 9.22366V8.67193C17.4995 8.52512 17.4416 8.3845 17.3391 8.28102C17.2365 8.17754 17.0976 8.11967 16.9531 8.1202H16.9533ZM8.72493 6.86183L12.0451 10.3271H5.40474L8.72493 6.86183ZM11.758 10.879V15.8447H11.2111V10.879H11.758ZM8.75016 11.9825C8.38893 11.9816 8.04212 12.1264 7.78583 12.385C7.52949 12.6436 7.38462 12.9949 7.38297 13.3619V15.8447H6.8361V10.8789H10.6642V15.8447H10.1173V13.3619C10.1157 12.9949 9.97083 12.6436 9.71448 12.385C9.45819 12.1264 9.11139 11.9816 8.75016 11.9825ZM9.57047 13.3619V15.8447H7.92985V13.3619C7.93184 13.0655 8.08861 12.7925 8.34159 12.6449C8.59458 12.4973 8.90573 12.4973 9.15871 12.6449C9.4117 12.7925 9.56847 13.0655 9.57046 13.3619H9.57047ZM6.28922 10.8789V15.8447H5.74235V10.8789H6.28922ZM16.9533 16.9482L0.547032 16.9483V16.3966L16.9533 16.3965V16.9482Z" fill="#DC2434"/>
<path d="M12.9885 11.3718V11.9824C12.9892 12.1292 13.0471 12.2698 13.1496 12.3732C13.2522 12.4766 13.3909 12.5345 13.5354 12.5342H15.176C15.3206 12.5345 15.4593 12.4766 15.5618 12.3732C15.6643 12.2698 15.7223 12.1292 15.7229 11.9824V10.8789C15.7223 10.7322 15.6643 10.5916 15.5618 10.4882C15.4593 10.3848 15.3205 10.3268 15.176 10.3272H13.5354C13.5121 10.328 13.4889 10.3304 13.4658 10.3343C13.5345 10.5363 13.5231 10.7576 13.434 10.9513C13.3449 11.1449 13.1852 11.2957 12.9885 11.3718L12.9885 11.3718ZM13.5354 10.8789H15.176L15.1764 11.9824H13.5354L13.5354 10.8789Z" fill="#DC2434"/>
<path d="M4.37499 11.3321C4.20552 11.2425 4.07272 11.0949 4.00027 10.9153C3.92781 10.7358 3.92035 10.536 3.97919 10.3513C3.9302 10.3361 3.87933 10.328 3.82813 10.3272H2.1875C2.04298 10.3269 1.90426 10.3848 1.80173 10.4882C1.69925 10.5916 1.64125 10.7322 1.64062 10.8789V11.9825C1.64125 12.1292 1.69924 12.2698 1.80173 12.3732C1.90427 12.4767 2.04298 12.5345 2.1875 12.5342H3.82813C3.97265 12.5345 4.11136 12.4767 4.2139 12.3732C4.31638 12.2698 4.37437 12.1292 4.375 11.9825L4.37499 11.3321ZM2.18749 11.9825V10.8789H3.82811L3.82851 11.9825H2.18749Z" fill="#DC2434"/>
<path d="M12.7642 4.76245C12.7675 4.76968 12.8359 4.9228 12.8857 5.0687C12.9723 5.32264 13.2742 5.9132 14.2034 5.9132C14.2642 5.9132 14.3276 5.91053 14.3917 5.90533C14.3957 5.90498 14.3994 5.90382 14.4034 5.90342V6.46492C14.4034 6.56417 14.4555 6.65584 14.5401 6.70549C14.6247 6.75508 14.7289 6.75508 14.8135 6.70549C14.8981 6.65583 14.9502 6.56417 14.9502 6.46492V5.36013C15.8535 5.34624 16.1502 4.76778 16.2359 4.51697C16.2866 4.36824 16.3567 4.21199 16.3574 4.21048V4.21042C16.4036 4.10782 16.4175 3.99324 16.3974 3.88225C16.3771 3.77131 16.3238 3.66934 16.2445 3.59029C16.1649 3.51089 16.0634 3.45794 15.9534 3.43856C15.8435 3.41917 15.7303 3.43422 15.6291 3.48173C15.5768 3.50627 15.5346 3.52994 15.5007 3.54898V3.54892C15.4315 3.59111 15.3528 3.61425 15.2722 3.61622C15.121 3.63682 14.9734 3.67861 14.8335 3.74047C14.5935 3.85256 14.4031 4.05158 14.2998 4.29863C14.2957 4.2966 14.2921 4.29423 14.288 4.29226V4.2922C14.1482 4.2304 14.0006 4.18856 13.8494 4.16796C13.7688 4.16599 13.69 4.14284 13.6209 4.10071C13.587 4.08167 13.5448 4.058 13.4925 4.03347C13.3911 3.9859 13.2779 3.97085 13.1679 3.99024C13.0579 4.00968 12.9564 4.06263 12.8768 4.14209C12.7975 4.2212 12.7442 4.32323 12.7241 4.43422C12.7039 4.54521 12.7179 4.65985 12.7642 4.76245L12.7642 4.76245ZM15.0713 4.23734C15.1557 4.20244 15.2439 4.17797 15.3341 4.16442C15.5212 4.14764 15.7015 4.08508 15.8596 3.98203C15.8596 3.98203 15.7792 4.1601 15.7188 4.33728C15.6628 4.5014 15.4913 4.80962 14.9181 4.80962C14.8813 4.80962 14.8416 4.80736 14.8014 4.8047C14.7906 4.78173 14.7791 4.75904 14.7664 4.73659V4.73665C14.7604 4.63161 14.7864 4.52727 14.841 4.43786C14.8956 4.34851 14.976 4.27848 15.0713 4.23734L15.0713 4.23734ZM13.7875 4.71615C13.8777 4.72969 13.9658 4.75423 14.0503 4.78907C14.1256 4.82437 14.1923 4.87639 14.2453 4.94122C14.2638 5.01326 14.2965 5.08074 14.3415 5.13954C14.3581 5.21026 14.3603 5.28375 14.3479 5.35533C14.2971 5.35944 14.2491 5.36141 14.2035 5.36141C13.6303 5.36141 13.4589 5.05319 13.4029 4.88907C13.3424 4.71187 13.262 4.53381 13.262 4.53381C13.4201 4.63682 13.6004 4.69938 13.7875 4.71617L13.7875 4.71615Z" fill="#DC2434"/>
<path d="M2.73462 6.05104C3.05824 6.04878 3.36774 5.9162 3.59533 5.6824C3.82286 5.44861 3.94978 5.1327 3.94829 4.80393C3.94681 4.47518 3.81704 4.16041 3.58741 3.92877C3.35778 3.69705 3.04708 3.56736 2.72346 3.56812C2.39984 3.56887 2.08972 3.7 1.86111 3.93275C1.6325 4.16551 1.50415 4.48084 1.50415 4.80961C1.50563 5.13987 1.63603 5.45608 1.86668 5.68877C2.09739 5.92153 2.40951 6.05179 2.73462 6.05104V6.05104ZM2.73462 4.11994C2.9144 4.12121 3.08638 4.19482 3.21279 4.32474C3.3392 4.4546 3.40973 4.63011 3.40887 4.81275C3.40807 4.99544 3.33595 5.17027 3.2084 5.29897C3.0808 5.42767 2.90819 5.49972 2.72841 5.49931C2.54862 5.4989 2.37629 5.42604 2.24932 5.29676C2.12234 5.16742 2.05101 4.99224 2.05101 4.80961C2.05164 4.62604 2.12398 4.45029 2.25222 4.32096C2.38039 4.19162 2.55392 4.11929 2.7346 4.11992L2.73462 4.11994Z" fill="#DC2434"/>
<path d="M14.6288 7.7063C15.3839 7.70103 16.1061 7.39172 16.637 6.84617C17.168 6.30063 17.4642 5.56348 17.4607 4.7964C17.4572 4.02933 17.1544 3.29493 16.6186 2.75434C16.0828 2.21372 15.3579 1.91112 14.6028 1.91291C13.8476 1.91465 13.124 2.22061 12.5907 2.76366C12.0573 3.30671 11.7578 4.04253 11.7578 4.80972C11.7613 5.58033 12.0655 6.31816 12.6038 6.86112C13.142 7.40417 13.8703 7.70816 14.629 7.70637L14.6288 7.7063ZM14.6288 2.4647C15.2401 2.46898 15.8247 2.71938 16.2545 3.16099C16.6843 3.6026 16.9241 4.19936 16.9213 4.82039C16.9185 5.44139 16.6733 6.03589 16.2396 6.47356C15.8059 6.91118 15.219 7.15614 14.6077 7.1547C13.9964 7.15331 13.4106 6.90564 12.9789 6.46599C12.5472 6.02641 12.3047 5.43076 12.3047 4.80971C12.3068 4.18564 12.5529 3.58801 12.9887 3.14824C13.4245 2.70846 14.0146 2.4626 14.6289 2.46473L14.6288 2.4647Z" fill="#DC2434"/>
<path d="M5.85375 1.79433C5.92792 1.7945 5.9989 1.76401 6.05057 1.70996C6.51302 1.22043 7.09704 0.866909 7.74092 0.686822C8.38481 0.506734 9.0647 0.506734 9.70865 0.686822C10.3526 0.866909 10.9366 1.22045 11.399 1.70996C11.4495 1.76273 11.5185 1.79306 11.5909 1.79439C11.6632 1.79572 11.7332 1.76794 11.7855 1.71707C11.8378 1.66649 11.8679 1.59682 11.8692 1.52356C11.8705 1.45024 11.8429 1.37952 11.7926 1.32697C11.3959 0.906945 10.9196 0.572813 10.3924 0.344741C9.86512 0.116668 9.29792 -0.000575642 8.7249 2.1318e-06H8.72478C8.1517 -0.000576561 7.5845 0.116668 7.05732 0.344741C6.53005 0.572813 6.0537 0.906945 5.65693 1.32697C5.60663 1.37952 5.57906 1.45023 5.58037 1.52356C5.58173 1.59683 5.61181 1.6665 5.66405 1.71707C5.71503 1.76678 5.78305 1.7945 5.85375 1.79433L5.85375 1.79433Z" fill="#DC2434"/>
<path d="M10.6392 2.79596C10.7098 2.79608 10.7779 2.76841 10.8289 2.7187C10.8811 2.66813 10.9112 2.59839 10.9125 2.52514C10.9138 2.45187 10.8863 2.3811 10.836 2.3286C10.563 2.03942 10.2354 1.80933 9.87261 1.65222C9.50985 1.49516 9.11957 1.41427 8.7252 1.41449H8.72508C8.33071 1.41426 7.94037 1.49516 7.57761 1.65222C7.21485 1.80933 6.88712 2.03943 6.6142 2.3286C6.5639 2.38109 6.53633 2.45187 6.53764 2.52514C6.53901 2.5984 6.56909 2.66813 6.62133 2.7187C6.67362 2.76951 6.74363 2.79729 6.81604 2.79596C6.88839 2.79463 6.95738 2.76431 7.00784 2.71159C7.45616 2.23549 8.07652 1.96623 8.72503 1.96623C9.37359 1.96623 9.99395 2.2355 10.4422 2.71159C10.4938 2.76564 10.5649 2.79613 10.639 2.79596H10.6392Z" fill="#DC2434"/>
<path d="M8.72508 2.85938C8.28958 2.85897 7.87276 3.0393 7.57124 3.35862C7.52094 3.41111 7.49336 3.48188 7.49467 3.55515C7.49598 3.62841 7.52606 3.69809 7.57819 3.74872C7.63054 3.79953 7.70055 3.82731 7.77295 3.82597C7.84541 3.82464 7.91434 3.79426 7.96486 3.74154C8.16333 3.53073 8.43792 3.4114 8.72508 3.4111H8.72525C9.01237 3.41139 9.28688 3.53072 9.48529 3.74154C9.53582 3.79426 9.60475 3.82459 9.67715 3.82592C9.74949 3.82725 9.81951 3.79947 9.87186 3.74872C9.92404 3.69814 9.95418 3.62841 9.95549 3.55515C9.9568 3.48189 9.92923 3.41111 9.87893 3.35862C9.57746 3.03929 9.1607 2.85896 8.7252 2.85938H8.72508Z" fill="#DC2434"/>
</svg>
