<svg width="16" height="18" viewBox="0 0 16 18" fill="none" xmlns="http://www.w3.org/2000/svg">
<g clip-path="url(#clip0_83_1453)">
<path d="M4.52791 12.627C3.84219 12.3642 3.15648 12.2076 3.15648 11.7486V11.7486C3.166 11.5851 3.25752 11.4313 3.41094 11.3209C3.56436 11.2106 3.76718 11.1527 3.97479 11.16C4.39591 11.1756 4.78446 11.3429 5.0285 11.6136L5.66622 10.8936C5.29776 10.5248 4.74955 10.2949 4.15536 10.26V9.55078H3.46964V10.2474C2.44107 10.3968 1.8308 11.0124 1.8308 11.8458C1.8308 12.708 2.51652 13.0374 3.18393 13.2858C3.85134 13.5342 4.53705 13.7052 4.53705 14.2308C4.55022 14.4283 4.45975 14.6212 4.28682 14.7645C4.11391 14.9078 3.87379 14.9889 3.62277 14.9886C2.98505 14.9886 2.55535 14.598 2.28794 14.1858L1.43994 14.8302C1.91539 15.5196 2.47766 15.8508 3.4788 15.939V16.659H4.16452V15.9102C5.25938 15.7302 5.89711 15.0102 5.89711 14.148C5.88796 13.2552 5.21363 12.888 4.52791 12.627V12.627Z" fill="#DC2434"/>
<path d="M14.2399 14.3389H7.52451C7.36119 14.3389 7.2103 14.4075 7.1286 14.5189C7.04698 14.6302 7.04698 14.7675 7.1286 14.8789C7.2103 14.9902 7.36119 15.0589 7.52451 15.0589H14.2399C14.4033 15.0589 14.5542 14.9902 14.6358 14.8789C14.7175 14.7675 14.7175 14.6302 14.6358 14.5189C14.5542 14.4075 14.4033 14.3389 14.2399 14.3389V14.3389Z" fill="#DC2434"/>
<path d="M14.2399 9.49506H7.52451C7.36119 9.49506 7.2103 9.56367 7.1286 9.67506C7.04698 9.78644 7.04698 9.92367 7.1286 10.0351C7.2103 10.1464 7.36119 10.2151 7.52451 10.2151H14.2399C14.4033 10.2151 14.5542 10.1464 14.6358 10.0351C14.7175 9.92367 14.7175 9.78645 14.6358 9.67506C14.5542 9.56367 14.4033 9.49506 14.2399 9.49506V9.49506Z" fill="#DC2434"/>
<path d="M14.2399 15.954H7.52451C7.36119 15.954 7.2103 16.0227 7.1286 16.134C7.04698 16.2454 7.04698 16.3827 7.1286 16.494C7.2103 16.6054 7.36119 16.674 7.52451 16.674H14.2399C14.4033 16.674 14.5542 16.6054 14.6358 16.494C14.7175 16.3827 14.7175 16.2454 14.6358 16.134C14.5542 16.0227 14.4033 15.954 14.2399 15.954V15.954Z" fill="#DC2434"/>
<path d="M14.2399 11.1096H7.52451C7.36119 11.1096 7.2103 11.1782 7.1286 11.2896C7.04698 11.401 7.04698 11.5382 7.1286 11.6496C7.2103 11.761 7.36119 11.8296 7.52451 11.8296H14.2399C14.4033 11.8296 14.5542 11.761 14.6358 11.6496C14.7175 11.5382 14.7175 11.401 14.6358 11.2896C14.5542 11.1782 14.4033 11.1096 14.2399 11.1096V11.1096Z" fill="#DC2434"/>
<path d="M14.2399 12.7242H7.52451C7.36119 12.7242 7.2103 12.7929 7.1286 12.9042C7.04698 13.0156 7.04698 13.1529 7.1286 13.2642C7.2103 13.3756 7.36119 13.4442 7.52451 13.4442H14.2399C14.4033 13.4442 14.5542 13.3756 14.6358 13.2642C14.7175 13.1529 14.7175 13.0156 14.6358 12.9042C14.5542 12.7929 14.4033 12.7242 14.2399 12.7242V12.7242Z" fill="#DC2434"/>
<path d="M14.8846 0.360007C15.0587 0.35907 15.2262 0.412858 15.3498 0.509539C15.4734 0.60616 15.5429 0.737644 15.5429 0.874819V17.1258C15.5429 17.263 15.4734 17.3945 15.3498 17.4911C15.2262 17.5878 15.0587 17.6416 14.8846 17.6406H1.11541C0.941305 17.6416 0.773811 17.5878 0.65023 17.4911C0.526643 17.3945 0.457144 17.263 0.457144 17.1258V0.874819C0.457144 0.737652 0.526637 0.606169 0.65023 0.509539C0.773817 0.41286 0.941297 0.359074 1.11541 0.360007H14.8846M14.8846 7.23131e-06H1.11541C0.820021 -0.000930269 0.536325 0.0907692 0.32701 0.254947C0.117638 0.419122 0 0.642187 0 0.874807V17.1258C0 17.3584 0.117635 17.5815 0.32701 17.7457C0.536306 17.9098 0.820021 18.0016 1.11541 18.0006H14.8846C15.18 18.0015 15.4637 17.9098 15.673 17.7457C15.8824 17.5815 16 17.3584 16 17.1258V0.874807C16 0.642187 15.8824 0.419122 15.673 0.254947C15.4637 0.0907723 15.18 -0.000937769 14.8846 7.23131e-06V7.23131e-06Z" fill="#DC2434"/>
<path d="M8.68583 1.17188V4.37227H12.7476C12.748 3.8106 12.5606 3.25877 12.2042 2.77223C11.8478 2.28572 11.335 1.88166 10.7174 1.60069C10.0998 1.31979 9.39911 1.1719 8.68579 1.1719L8.68583 1.17188Z" fill="#DC2434"/>
<path d="M7.54296 2.09524V5.27224H11.5773C11.4629 5.97829 11.016 6.62482 10.3253 7.08379C9.63439 7.54276 8.74988 7.78076 7.84696 7.75064C6.94391 7.72059 6.0881 7.42457 5.44905 6.92125C4.80991 6.41798 4.43402 5.74405 4.39585 5.0329C4.35761 4.32175 4.65983 3.62524 5.24265 3.08125C5.82547 2.53726 6.64644 2.18534 7.54304 2.0953M8.00018 1.71191C6.92309 1.71191 5.89008 2.04883 5.12836 2.64853C4.36665 3.24823 3.93863 4.06169 3.93848 4.90993C3.93825 5.75813 4.36587 6.57178 5.12732 7.17163C5.88871 7.77157 6.92151 8.10878 7.99875 8.10913C9.07584 8.10942 10.109 7.7728 10.8709 7.17332C11.633 6.57379 12.0614 5.7605 12.0619 4.91237H8.00022L8.00018 1.71191Z" fill="#DC2434"/>
</g>
<defs>
<clipPath id="clip0_83_1453">
<rect width="16" height="18" fill="white"/>
</clipPath>
</defs>
</svg>
