<svg width="22" height="25" viewBox="0 0 22 25" fill="none" xmlns="http://www.w3.org/2000/svg">
<path d="M6.71984 7.70954C6.71984 7.39333 6.26444 7.16932 5.78198 7.01877V8.49201C6.35311 8.35299 6.71984 8.0187 6.71984 7.70954Z" fill="#DC2434"/>
<path d="M4.65197 4.18423C4.08094 4.32317 3.71411 4.65746 3.71411 4.9667C3.71411 5.21504 4.08973 5.48003 4.65197 5.66357V4.18423Z" fill="#DC2434"/>
<path d="M21.4334 7.51735H16.9861C15.2536 7.51735 13.8443 6.21838 13.8443 4.62146V0.522709C13.8443 0.341551 13.8819 0.166907 13.9454 0.0020718L2.01162 0.00198364C0.898435 0.00198364 0 0.830107 0 1.85606V23.146C0 24.1668 0.898435 25.0001 2.01162 25.0001H19.9867C21.0999 25.0001 21.9983 24.1668 21.9983 23.146V7.42465C21.8196 7.48292 21.6301 7.5173 21.4333 7.5173L21.4334 7.51735ZM2.58463 7.70962C2.58463 7.42179 2.83762 7.1888 3.14973 7.1888C3.46183 7.1888 3.71483 7.4217 3.71483 7.70962C3.71483 8.01887 4.08156 8.35316 4.65269 8.49209L4.65259 6.75428C3.59088 6.4906 2.58463 5.91151 2.58463 4.96676C2.58463 4.04597 3.45716 3.30009 4.65259 3.11876V2.77575C4.65259 2.48792 4.90558 2.25493 5.21769 2.25493C5.5297 2.25493 5.78279 2.48783 5.78279 2.77575V3.11876C6.97822 3.30009 7.85075 4.04597 7.85075 4.96676C7.85075 5.25459 7.59775 5.48758 7.28565 5.48758C6.97354 5.48758 6.72055 5.25468 6.72055 4.96676C6.72055 4.65751 6.35382 4.32322 5.78269 4.18429V5.93381C7.15538 6.28643 7.85065 6.8805 7.85065 7.70953C7.85065 8.63032 6.97812 9.3762 5.78269 9.55753V9.90054C5.78269 10.1884 5.5297 10.4214 5.21759 10.4214C4.90549 10.4214 4.65249 10.1885 4.65249 9.90054V9.55753C3.45706 9.3762 2.58463 8.63041 2.58463 7.70962H2.58463ZM4.66263 16.5438C4.64991 16.401 4.64063 16.258 4.63938 16.1153C4.62245 14.5478 5.27231 13.0687 6.45895 11.9543C7.65123 10.8346 9.24478 10.2097 10.9456 10.1993C11.3807 10.1993 11.7967 10.2435 12.2026 10.3155C12.1332 10.3989 12.073 10.4869 12.027 10.5796L9.78011 14.8088L4.97487 16.406C4.8643 16.4425 4.76023 16.4891 4.66257 16.5438L4.66263 16.5438ZM11.0529 21.9275H10.9963C8.32927 21.9275 5.92763 20.3703 5.01796 18.0526C4.96708 17.9224 4.97836 17.7766 5.04053 17.6516C5.10271 17.5266 5.21567 17.4329 5.35695 17.386L9.30834 16.0728C9.31016 16.5624 9.55876 17.0366 10.0218 17.3355L14.7761 20.4343C14.8625 20.4874 14.9538 20.5303 15.0474 20.568C13.9316 21.4198 12.524 21.916 11.0529 21.9273L11.0529 21.9275ZM16.1894 19.4433C16.0821 19.5891 15.9069 19.662 15.7317 19.662C15.6187 19.662 15.5057 19.6307 15.4039 19.5683L10.6744 16.4851C10.4483 16.3393 10.3692 16.0633 10.4935 15.834L13.042 11.0375C13.1042 10.9125 13.2229 10.8188 13.3641 10.7719C13.5054 10.7303 13.6636 10.7407 13.7992 10.798C15.9748 11.7823 17.3422 13.7821 17.3649 16.0111C17.3762 17.2454 16.9694 18.4328 16.1896 19.4432L16.1894 19.4433Z" fill="#DC2434"/>
<path d="M16.9853 6.47554H21.4325C21.6642 6.47554 21.8676 6.35053 21.958 6.15271C22.0427 5.95991 21.9976 5.73608 21.8337 5.58499L15.94 0.153164C15.7761 0.00215423 15.5331 -0.0395441 15.324 0.0385628C15.1149 0.121869 14.9736 0.309376 14.9736 0.522889V4.62164C14.9737 5.64238 15.8778 6.47563 16.9853 6.47563L16.9853 6.47554Z" fill="#DC2434"/>
</svg>
