<svg xmlns="http://www.w3.org/2000/svg" width="50.234" height="49" viewBox="0 0 50.234 49">
  <g id="noun-petition-125742" transform="translate(-127.196 -150)">
    <path id="Path_185" data-name="Path 185" d="M753.9,447.6c5.036,0,12.112,6.664,12.112,17.444a4.42,4.42,0,0,1-.064.915,13.461,13.461,0,0,0-11.666-9.147,11.91,11.91,0,0,0-1.466-2.679,18.87,18.87,0,0,0-4.016-4.639,8.977,8.977,0,0,1,5.1-1.895Z" transform="translate(-588.58 -281.397)" fill="#dc2434"/>
    <path id="Path_186" data-name="Path 186" d="M764.063,150a6.543,6.543,0,0,1,6.439,6.6,5.756,5.756,0,0,1-1.721,4.443,6.283,6.283,0,0,1-4.59,2.025,5.816,5.816,0,0,1-3.761-1.241,11.617,11.617,0,0,0,.829-4.181,10.706,10.706,0,0,0-1.657-5.619A5.8,5.8,0,0,1,764.063,150Z" transform="translate(-598.81)" fill="#dc2434"/>
    <path id="Path_187" data-name="Path 187" d="M658,676.8a12.88,12.88,0,0,1,2.359.327,9.967,9.967,0,0,1,7.395,8.951,4.412,4.412,0,0,1,.064.915,8.9,8.9,0,0,1-.319,2.613,9.913,9.913,0,0,1-9.562,7.513,9.663,9.663,0,0,1-5.674-1.829,10.4,10.4,0,0,1-2.8-3.005,10.542,10.542,0,0,1-1.466-5.227A10.229,10.229,0,0,1,656.409,677a1.372,1.372,0,0,1,.51-.065A3.464,3.464,0,0,1,658,676.8Zm5.865,8.232a1.543,1.543,0,0,0,.255-1.633,1.524,1.524,0,0,0-2.486-.457c-1.657,1.895-3.315,3.855-5.036,5.749-.574-.588-1.211-1.176-1.785-1.764a1.562,1.562,0,0,0-2.486.523,1.426,1.426,0,0,0,.382,1.633l2.869,2.809a1.519,1.519,0,0,0,1.083.457,1.579,1.579,0,0,0,1.148-.523l1.658-1.96c1.53-1.568,3-3.2,4.4-4.835Z" transform="translate(-493.132 -498.119)" fill="#dc2434"/>
    <path id="Path_188" data-name="Path 188" d="M359.862,487.092a15.62,15.62,0,0,1,4.59,5.161c-.319.065-.765.2-1.084.261a13.462,13.462,0,0,0-9.435,12.936,13.206,13.206,0,0,0,1.148,5.488c-3.889.065-7.841-.392-10.518-1.633a6.9,6.9,0,0,1-2.231-1.372,4.424,4.424,0,0,1-1.148-1.7,4.975,4.975,0,0,1-.382-2.025c0-8.428,3.889-14.569,8.032-17.444a10.066,10.066,0,0,1,2.741-1.437,7.741,7.741,0,0,1,2.614-.523,9.2,9.2,0,0,1,3.06.653,16.849,16.849,0,0,1,2.614,1.633Z" transform="translate(-202.258 -316.577)" fill="#dc2434"/>
    <path id="Path_189" data-name="Path 189" d="M467.812,154.8a7.189,7.189,0,1,1-7.012,7.187A7.081,7.081,0,0,1,467.812,154.8Z" transform="translate(-315.882 -4.539)" fill="#dc2434"/>
    <path id="Path_190" data-name="Path 190" d="M127.2,463.844c0-10.78,7.076-17.444,12.112-17.444a8.694,8.694,0,0,1,4.781,1.7,16.857,16.857,0,0,0-4.335,4.9,27.105,27.105,0,0,0-4.335,14.831,5.757,5.757,0,0,0,.191,1.829c-3.06-.327-5.674-1.176-6.949-2.483a4.252,4.252,0,0,1-1.466-3.332Z" transform="translate(0 -280.263)" fill="#dc2434"/>
    <path id="Path_191" data-name="Path 191" d="M232.8,157.8a6.544,6.544,0,0,1,6.439-6.6,6.074,6.074,0,0,1,4.207,1.633,10.569,10.569,0,0,0-1.785,6.011,12.158,12.158,0,0,0,.893,4.573,5.587,5.587,0,0,1-3.315,1.045,6.282,6.282,0,0,1-4.59-2.025,6.1,6.1,0,0,0-.574-.784A6.486,6.486,0,0,1,232.8,157.8Z" transform="translate(-99.994 -1.135)" fill="#dc2434"/>
  </g>
</svg>
