<svg xmlns="http://www.w3.org/2000/svg" width="18.769" height="16.304" viewBox="0 0 18.769 16.304">
  <path id="noun-increase-1929473" d="M47.564,198.618l-5.3,1.756a.989.989,0,0,0-.336,1.512l1.107,1.366-3.144,3.878H34.828a1.063,1.063,0,0,0-.831.415l-3.955,4.878a1.708,1.708,0,0,0,0,2.049,1.047,1.047,0,0,0,.831.415,1.093,1.093,0,0,0,.831-.415l3.6-4.439h5.063a1.063,1.063,0,0,0,.831-.415l3.481-4.292,1.107,1.366c.4.488,1.088.268,1.226-.415l1.424-6.561c.178-.683-.316-1.293-.87-1.1Z" transform="translate(-29.701 -198.581)" fill="#06ab49"/>
</svg>
