<svg id="Layer_1" data-name="Layer 1" xmlns="http://www.w3.org/2000/svg" viewBox="0 0 64 64"><defs><style>.cls-1{fill:#dfe8f4;}.cls-2{fill:#ff5454;}.cls-3{fill:#ccd8e5;}.cls-4{fill:#dd1515;}.cls-5{fill:#fff;}</style></defs><title>hand, delivery, logistic, gesture, package, box copy</title><path class="cls-1" d="M52.23,27.4H43.14a1.7,1.7,0,0,0-1.69,1.7v9.29a1.22,1.22,0,0,1-1.22,1.21h-9.3V45H54.59A1.41,1.41,0,0,0,56,43.63V31.18A3.77,3.77,0,0,0,52.23,27.4Z"/><path class="cls-2" d="M14.68,14.84h22.1a5.33,5.33,0,0,1,5.33,5.33V45a0,0,0,0,1,0,0H10a2,2,0,0,1-2-2V21.52A6.68,6.68,0,0,1,14.68,14.84Z"/><path class="cls-3" d="M8,43.05H56a0,0,0,0,1,0,0v1.8a1,1,0,0,1-1,1H9.23A1.23,1.23,0,0,1,8,44.65v-1.6A0,0,0,0,1,8,43.05Z"/><rect class="cls-2" x="53.57" y="39.38" width="2.43" height="2.79"/><path class="cls-4" d="M18.19,45.88a3.28,3.28,0,1,1-3.27-3.27A3.27,3.27,0,0,1,18.19,45.88Z"/><path class="cls-2" d="M16,45.88a1.12,1.12,0,1,1-1.11-1.11A1.12,1.12,0,0,1,16,45.88Z"/><path class="cls-4" d="M26.45,45.88a3.28,3.28,0,1,1-3.28-3.27A3.28,3.28,0,0,1,26.45,45.88Z"/><path class="cls-2" d="M24.28,45.88a1.11,1.11,0,1,1-1.11-1.11A1.12,1.12,0,0,1,24.28,45.88Z"/><circle class="cls-4" cx="49.23" cy="45.88" r="3.28"/><circle class="cls-2" cx="49.23" cy="45.88" r="1.11"/><path class="cls-2" d="M45.27,31.46v5.19a.82.82,0,0,0,.82.82H56V30.82l0,0h-10A.67.67,0,0,0,45.27,31.46Z"/><path class="cls-5" d="M28.94,24.59a1.35,1.35,0,0,0-.67-1.93A8.71,8.71,0,0,0,25,22a8.8,8.8,0,0,0-3.14.58,1.35,1.35,0,0,0-.67,1.93l1.65,2.81a1.32,1.32,0,0,0,1.46.62,3.19,3.19,0,0,1,.7-.08,2.76,2.76,0,0,1,.77.1,1.36,1.36,0,0,0,1.55-.6Z"/><path class="cls-5" d="M28.44,37.19a1.34,1.34,0,0,0,2,.38,8.52,8.52,0,0,0,2.2-2.52,9,9,0,0,0,1.07-3,1.35,1.35,0,0,0-1.34-1.54l-3.25,0a1.34,1.34,0,0,0-1.28.95,2.8,2.8,0,0,1-.27.65,2.93,2.93,0,0,1-.48.62,1.37,1.37,0,0,0-.25,1.64Z"/><path class="cls-5" d="M21.67,37.19a1.34,1.34,0,0,1-2,.38A8.74,8.74,0,0,1,16.4,32a1.34,1.34,0,0,1,1.34-1.54l3.25,0a1.32,1.32,0,0,1,1.27.95,3.36,3.36,0,0,0,.28.65,2.64,2.64,0,0,0,.48.62,1.35,1.35,0,0,1,.24,1.64Z"/><circle class="cls-5" cx="24.99" cy="30.77" r="1.56"/></svg>