<svg id="Layer_1" data-name="Layer 1" xmlns="http://www.w3.org/2000/svg" viewBox="0 0 64 64"><defs><style>.cls-1{fill:#FC0707;}.cls-2{fill:#DD1515;}.cls-3{fill:#e5cccc;}.cls-4{fill:#F4DFDF;}</style></defs><title>hand, delivery, logistic, gesture, package, box</title><rect class="cls-1" x="27.46" y="19.02" width="28.54" height="25.86" rx="0.63"/><path class="cls-2" d="M28.63,33.9l-1.17,1.88v8.47a.63.63,0,0,0,.63.63H53.56Z"/><path class="cls-3" d="M37.63,19h8.2a0,0,0,0,1,0,0v6a1.39,1.39,0,0,1-1.39,1.39H39A1.39,1.39,0,0,1,37.63,25V19A0,0,0,0,1,37.63,19Z"/><path class="cls-4" d="M28,38.33,29,35.93a1.84,1.84,0,0,0-.38-2h0a1.83,1.83,0,0,0-2.58,0L21,39a11.71,11.71,0,0,1-8.25,3.41H8V55.22H29.18a11,11,0,0,0,9.11-4.83l2.57-3.79A9.1,9.1,0,0,1,43,44.35h0a2.43,2.43,0,0,0,1-1.94h0A2.41,2.41,0,0,0,41.59,40H29.05A1.19,1.19,0,0,1,28,38.33Z"/><path class="cls-3" d="M12.73,42.39H10.25V55.22h3.69V42.33A12.1,12.1,0,0,1,12.73,42.39Z"/><path class="cls-1" d="M8,41.37h2.89a.81.81,0,0,1,.81.81v13a.81.81,0,0,1-.81.81H8a0,0,0,0,1,0,0V41.37A0,0,0,0,1,8,41.37Z"/></svg>