<svg width="30" height="30" viewBox="0 0 30 30" fill="none" xmlns="http://www.w3.org/2000/svg">
<path d="M22.1693 18.4325H25.0211C25.4754 18.4325 25.8661 18.704 26.0402 19.0936L28.3701 23.7569C29.0236 25.0697 27.0275 26.0633 26.374 24.7505L26.2623 24.527L26.2763 24.7632C26.3623 26.2252 24.1396 26.3557 24.0537 24.894L23.8022 20.664L20.0107 20.6596C19.3969 20.6596 18.8994 20.1621 18.8994 19.5483V10.6525C18.7647 8.91523 21.7811 9.5955 22.0211 10.0099L24.3927 14.0964L26.169 13.3915C27.5277 12.8526 28.3469 14.9184 26.9883 15.4573L24.3203 16.516C23.8015 16.7218 23.2347 16.5095 22.9636 16.04L22.1693 14.7001L22.1693 18.4325Z" fill="#DC2434"/>
<path d="M22.7791 6.25201C22.7791 7.45543 21.8034 8.43111 20.6 8.43111C19.3965 8.43111 18.4209 7.45543 18.4209 6.25201C18.4209 5.04848 19.3965 4.07291 20.6 4.07291C21.8034 4.07291 22.7791 5.04848 22.7791 6.25201" fill="#DC2434"/>
<path d="M6.63613 18.4325H9.48788C9.94218 18.4325 10.3329 18.704 10.507 19.0936L12.8369 23.7569C13.4904 25.0697 11.4943 26.0633 10.8408 24.7505L10.7291 24.527L10.7431 24.7632C10.8291 26.2252 8.60642 26.3557 8.52049 24.894L8.26902 20.664L4.47752 20.6596C3.86374 20.6596 3.36619 20.1621 3.36619 19.5483V10.6525C3.23152 8.91523 6.24794 9.5955 6.48794 10.0099L8.85952 14.0964L10.6359 13.3915C11.9946 12.8526 12.8138 14.9184 11.4552 15.4573L8.78722 16.516C8.26837 16.7218 7.70157 16.5095 7.43047 16.04L6.63622 14.7001L6.63613 18.4325Z" fill="#DC2434"/>
<path d="M7.24541 6.25201C7.24541 7.45543 6.26983 8.43111 5.06631 8.43111C3.86288 8.43111 2.88721 7.45543 2.88721 6.25201C2.88721 5.04848 3.86288 4.07291 5.06631 4.07291C6.26983 4.07291 7.24541 5.04848 7.24541 6.25201" fill="#DC2434"/>
<path d="M17.9924 21.5563V11.7975H17.0336V16.6235H10.5688V17.5823H17.0336V22.5151H23.0756V21.5563H17.9924Z" fill="#DC2434"/>
<path d="M2.4588 21.5563V11.7975H1.5V22.515H7.542V21.5562L2.4588 21.5563Z" fill="#DC2434"/>
</svg>
