<svg width="25" height="25" viewBox="0 0 25 25" fill="none" xmlns="http://www.w3.org/2000/svg">
<g clip-path="url(#clip0_69_1745)">
<path d="M7.81337 10.1562C7.56102 10.1562 7.31337 10.0343 7.16258 9.80857C6.92348 9.45001 7.02041 8.96401 7.37898 8.72499L7.57583 8.59372H5.46875C5.03752 8.59372 4.6875 8.2437 4.6875 7.81247C4.6875 7.38124 5.03752 7.03122 5.46875 7.03122H10.1563C10.5 7.03122 10.8047 7.25697 10.9039 7.58591C11.0039 7.91484 10.8757 8.27105 10.5899 8.46245L8.2461 10.0249C8.11248 10.1141 7.96177 10.1562 7.81333 10.1562L7.81337 10.1562Z" fill="#DC2434"/>
<path d="M10.1562 8.59375C9.95618 8.59375 9.75623 8.51718 9.60388 8.36484L7.26013 6.02109C6.95463 5.71559 6.95463 5.22186 7.26013 4.91644C7.56563 4.61094 8.05936 4.61094 8.36478 4.91644L10.7085 7.26019C11.014 7.56569 11.014 8.05942 10.7085 8.36484C10.5562 8.51718 10.3562 8.59375 10.1562 8.59375H10.1562Z" fill="#DC2434"/>
<path d="M6.25 25C4.52652 25 3.125 23.5985 3.125 21.875C3.125 20.1515 4.52652 18.75 6.25 18.75C7.97348 18.75 9.375 20.1515 9.375 21.875C9.375 23.5985 7.97348 25 6.25 25ZM6.25 20.3125C5.38827 20.3125 4.6875 21.0133 4.6875 21.875C4.6875 22.7367 5.38827 23.4375 6.25 23.4375C7.11173 23.4375 7.8125 22.7367 7.8125 21.875C7.8125 21.0133 7.11173 20.3125 6.25 20.3125Z" fill="#DC2434"/>
<path d="M19.5313 25C17.8078 25 16.4062 23.5985 16.4062 21.875C16.4062 20.1515 17.8078 18.75 19.5313 18.75C21.2547 18.75 22.6563 20.1515 22.6563 21.875C22.6563 23.5985 21.2547 25 19.5313 25ZM19.5313 20.3125C18.6695 20.3125 17.9688 21.0133 17.9688 21.875C17.9688 22.7367 18.6695 23.4375 19.5313 23.4375C20.393 23.4375 21.0938 22.7367 21.0938 21.875C21.0938 21.0133 20.393 20.3125 19.5313 20.3125Z" fill="#DC2434"/>
<path d="M3.90625 22.6563H1.95231C0.875812 22.6563 0 21.7804 0 20.7039V8.9804C0 7.90536 0.874187 7.03119 1.94921 7.03119C2.38044 7.03119 2.73046 7.38121 2.73046 7.81244C2.73046 8.24367 2.38044 8.59369 1.94921 8.59369C1.73592 8.59369 1.5625 8.76711 1.5625 8.9804V20.7039C1.5625 20.9188 1.73747 21.0938 1.95231 21.0938H3.90625C4.33748 21.0938 4.6875 21.443 4.6875 21.875C4.6875 22.307 4.33748 22.6563 3.90625 22.6563Z" fill="#DC2434"/>
<path d="M23.0541 22.6562H21.8753C21.4432 22.6562 21.094 22.307 21.094 21.875C21.094 21.4429 21.4432 21.0937 21.8753 21.0937H23.0541C23.2651 21.0937 23.4378 20.9211 23.4378 20.7101V15.0905C23.4378 14.6702 23.2526 14.2741 22.93 14.0054L19.6416 11.2648C19.3877 11.0538 19.0666 10.9375 18.7369 10.9375H14.844C14.412 10.9375 14.0627 10.5874 14.0627 10.1562C14.0627 9.72499 14.412 9.37497 14.844 9.37497H18.7369C19.4314 9.37497 20.1072 9.61951 20.6416 10.064L23.93 12.8046C24.6096 13.3711 25.0003 14.2046 25.0003 15.0898V20.7094C25.0003 21.7836 24.1276 22.6563 23.0541 22.6563V22.6562Z" fill="#DC2434"/>
<path d="M17.1875 22.6563H9.375C8.94377 22.6563 8.59375 22.307 8.59375 21.875C8.59375 21.443 8.94377 21.0938 9.375 21.0938H17.1875C17.6195 21.0938 17.9688 21.443 17.9688 21.875C17.9688 22.307 17.6195 22.6563 17.1875 22.6563Z" fill="#DC2434"/>
<path d="M8.25 14.5C4.80396 14.5 2 11.696 2 8.25C2 4.80396 4.80396 2 8.25 2C11.696 2 14.5 4.80396 14.5 8.25C14.5 11.696 11.696 14.5 8.25 14.5ZM8.25 3.5625C5.66479 3.5625 3.5625 5.66479 3.5625 8.25C3.5625 10.8352 5.66479 12.9375 8.25 12.9375C10.8352 12.9375 12.9375 10.8352 12.9375 8.25C12.9375 5.66479 10.8352 3.5625 8.25 3.5625Z" fill="#DC2434"/>
<path d="M14.8437 22.6563C14.4117 22.6563 14.0625 22.3071 14.0625 21.875V8.98043C14.0625 8.76714 13.8891 8.59372 13.6758 8.59372C13.2446 8.59372 12.8945 8.2437 12.8945 7.81247C12.8945 7.38124 13.2446 7.03122 13.6758 7.03122C14.7508 7.03122 15.625 7.90541 15.625 8.98043V21.875C15.625 22.3071 15.2758 22.6563 14.8437 22.6563Z" fill="#DC2434"/>
</g>
<defs>
<clipPath id="clip0_69_1745">
<rect width="25" height="25" fill="white"/>
</clipPath>
</defs>
</svg>
