<svg id="Layer_1" data-name="Layer 1" xmlns="http://www.w3.org/2000/svg" viewBox="0 0 64 64"><defs><style>.cls-1{fill:#dfe8f4;}.cls-2{fill:#dd1515;}.cls-3{fill:#ff5454;}.cls-4{fill:#fff;}</style></defs><title>interaction, interact, preferences, preformance, account, user, woman, rating</title><path class="cls-1" d="M27.31,16.24h1.94a3.33,3.33,0,0,0,.81.68,4.18,4.18,0,0,0,4.16,0h0a3.33,3.33,0,0,0,.81-.68h1.66a.88.88,0,0,0,.88-.9C37.35,9.4,34.94,8.08,32,8.08s-5.35,1.32-5.57,7.26A.88.88,0,0,0,27.31,16.24Z"/><path class="cls-1" d="M46.25,18.78H17.75a2.22,2.22,0,0,0-2.19,1.64,2.16,2.16,0,0,0,1.78,2.63l8.54,1.23C24.74,27.6,24,32.75,24,40.57a.91.91,0,0,0,.09.44,5.55,5.55,0,0,1,.61,2.23V54.73h0A1.25,1.25,0,0,0,25.92,56a1.24,1.24,0,0,0,1.22-1l2.72-11.74A2.2,2.2,0,0,1,32,41.56h0a2.2,2.2,0,0,1,2.14,1.71L36.86,55a1.28,1.28,0,0,0,.44.7,1.58,1.58,0,0,0,.36.2,1.42,1.42,0,0,0,.42.07h0a1.25,1.25,0,0,0,1.24-1.25h0V43.24A5.55,5.55,0,0,1,39.93,41a.91.91,0,0,0,.09-.44c-.05-7.82-.76-13-1.9-16.29l8.54-1.23a2.16,2.16,0,0,0,1.78-2.63A2.22,2.22,0,0,0,46.25,18.78Z"/><circle class="cls-2" cx="15.46" cy="32" r="7.5"/><circle class="cls-3" cx="48.54" cy="32" r="7.5"/><rect class="cls-4" x="48.17" y="28.82" width="1.87" height="6.36" rx="0.53" transform="translate(37.01 -25.35) rotate(45)"/><rect class="cls-4" x="46.02" y="31.29" width="1.87" height="3.47" rx="0.53" transform="translate(103.5 23.17) rotate(135)"/><rect class="cls-4" x="14.53" y="28.82" width="1.87" height="6.36" rx="0.53" transform="translate(27.16 -1.56) rotate(45)"/><rect class="cls-4" x="14.53" y="28.82" width="1.87" height="6.36" rx="0.53" transform="translate(49.02 43.69) rotate(135)"/></svg>