<svg id="Layer_1" data-name="Layer 1" xmlns="http://www.w3.org/2000/svg" viewBox="0 0 64 64"><defs><style>.cls-1{fill:#F4DFDF;}.cls-2{fill:#FC0707;}.cls-3{fill:#DD1515;}.cls-4{fill:#e5cccc;}.cls-5{fill:#fff;}</style></defs><title>interaction, interact, preferences, preformance, webpage, website, browser, selection</title><rect class="cls-1" x="8" y="11.44" width="48" height="41.13" rx="4.09"/><path class="cls-2" d="M51.91,11.44H12.09A4.09,4.09,0,0,0,8,15.53v1.91H56V15.53A4.09,4.09,0,0,0,51.91,11.44Z"/><rect class="cls-3" x="12.66" y="13.82" width="1.23" height="1.23"/><rect class="cls-3" x="15.19" y="13.82" width="1.23" height="1.23"/><rect class="cls-3" x="17.71" y="13.82" width="1.23" height="1.23"/><rect class="cls-3" x="8" y="17.44" width="48" height="1.65"/><path class="cls-4" d="M56,21.88H10.79A2.79,2.79,0,0,1,8,19.08H56Z"/><circle class="cls-4" cx="21.57" cy="34.82" r="7.5" transform="matrix(0.91, -0.42, 0.42, 0.91, -12.57, 12.19)"/><circle class="cls-2" cx="42.43" cy="34.82" r="7.5" transform="translate(-10.71 21.06) rotate(-24.86)"/><rect class="cls-5" x="42.06" y="31.65" width="1.87" height="6.36" rx="0.53" transform="translate(37.21 -20.2) rotate(44.99)"/><rect class="cls-5" x="39.91" y="34.11" width="1.87" height="3.47" rx="0.53" transform="translate(95.07 32.31) rotate(135)"/><rect class="cls-5" x="20.64" y="31.65" width="1.87" height="6.36" rx="0.53" transform="translate(30.94 -5.05) rotate(44.99)"/><rect class="cls-5" x="20.64" y="31.65" width="1.87" height="6.36" rx="0.53" transform="translate(61.45 44.2) rotate(135)"/></svg>