<svg id="Layer_1" data-name="Layer 1" xmlns="http://www.w3.org/2000/svg" viewBox="0 0 64 64"><defs><style>.cls-1{fill:#ff5454;}.cls-2{fill:#dfe8f4;}</style></defs><title>interaction, interact, preferences, preformance, heart, favourite, rating, rate</title><path class="cls-1" d="M19.31,27.48a3.53,3.53,0,0,0-4.79.26l-.3.31-.3-.31a3.54,3.54,0,0,0-4.8-.26A3.4,3.4,0,0,0,9,32.4l4.74,4.74a.71.71,0,0,0,.49.2.69.69,0,0,0,.48-.2l4.74-4.74A3.39,3.39,0,0,0,19.31,27.48Z"/><path class="cls-1" d="M37.09,27.48a3.53,3.53,0,0,0-4.79.26l-.3.31-.3-.31a3.53,3.53,0,0,0-4.79-.26,3.38,3.38,0,0,0-.13,4.92l4.74,4.74a.68.68,0,0,0,1,0l4.74-4.74A3.38,3.38,0,0,0,37.09,27.48Z"/><path class="cls-2" d="M54.88,27.48a3.54,3.54,0,0,0-4.8.26l-.3.31-.3-.31a3.53,3.53,0,0,0-4.79-.26,3.39,3.39,0,0,0-.13,4.92l4.74,4.74a.69.69,0,0,0,.48.2.71.71,0,0,0,.49-.2L55,32.4A3.4,3.4,0,0,0,54.88,27.48Z"/></svg>