<svg id="Layer_1" data-name="Layer 1" xmlns="http://www.w3.org/2000/svg" viewBox="0 0 64 64"><defs><style>.cls-1{fill:#ccd8e5;}.cls-2{fill:#dfe8f4;}.cls-3{fill:#ff5454;}.cls-4{fill:#fff;}</style></defs><title>interaction, interact, preferences, preformance, toolbar, favourite, rating, rate</title><rect class="cls-1" x="8.07" y="25.13" width="13.75" height="13.75" rx="1.25" transform="translate(46.94 17.06) rotate(90)"/><rect class="cls-2" x="8.07" y="42.25" width="13.75" height="13.75" rx="1.25" transform="translate(64.07 34.18) rotate(90)"/><rect class="cls-3" x="8.07" y="8" width="13.75" height="13.75" rx="1.25" transform="translate(29.82 -0.07) rotate(90)"/><rect class="cls-4" x="14.57" y="11.69" width="1.87" height="6.37" rx="0.53" transform="translate(15.06 -6.61) rotate(45)"/><rect class="cls-4" x="12.42" y="14.16" width="1.87" height="3.48" rx="0.53" transform="translate(34.04 17.7) rotate(135.01)"/><path class="cls-3" d="M34.51,12.22a2.06,2.06,0,0,0-2.81.16l-.18.17-.17-.17a2.07,2.07,0,0,0-2.82-.16,2,2,0,0,0-.07,2.89l2.78,2.78a.39.39,0,0,0,.28.12.42.42,0,0,0,.29-.12l2.78-2.78A2,2,0,0,0,34.51,12.22Z"/><path class="cls-3" d="M45,12.22a2.06,2.06,0,0,0-2.81.16l-.18.17-.18-.17A2.06,2.06,0,0,0,39,12.22a2,2,0,0,0-.08,2.89l2.79,2.78A.38.38,0,0,0,42,18a.39.39,0,0,0,.28-.12L45,15.11A2,2,0,0,0,45,12.22Z"/><path class="cls-3" d="M55.39,12.22a2.07,2.07,0,0,0-2.82.16l-.17.17-.18-.17a2.06,2.06,0,0,0-2.81-.16,2,2,0,0,0-.08,2.89l2.78,2.78a.42.42,0,0,0,.29.12.39.39,0,0,0,.28-.12l2.78-2.78A2,2,0,0,0,55.39,12.22Z"/><path class="cls-3" d="M34.51,29.35a2.06,2.06,0,0,0-2.81.15l-.18.18-.17-.18a2.07,2.07,0,0,0-2.82-.15,2,2,0,0,0-.07,2.88L31.24,35a.43.43,0,0,0,.28.11.46.46,0,0,0,.29-.11l2.78-2.79A2,2,0,0,0,34.51,29.35Z"/><path class="cls-3" d="M45,29.35a2.06,2.06,0,0,0-2.81.15l-.18.18-.18-.18A2.06,2.06,0,0,0,39,29.35a2,2,0,0,0-.08,2.88L41.68,35a.41.41,0,0,0,.28.11.43.43,0,0,0,.28-.11L45,32.23A2,2,0,0,0,45,29.35Z"/><path class="cls-2" d="M55.39,29.35a2.07,2.07,0,0,0-2.82.15l-.17.18-.18-.18a2.06,2.06,0,0,0-2.81-.15,2,2,0,0,0-.08,2.88L52.11,35a.46.46,0,0,0,.29.11.43.43,0,0,0,.28-.11l2.78-2.79A2,2,0,0,0,55.39,29.35Z"/><path class="cls-1" d="M34.51,46.47a2.06,2.06,0,0,0-2.81.16l-.18.17-.17-.17a2.07,2.07,0,0,0-2.82-.16,2,2,0,0,0-.07,2.89l2.78,2.78a.39.39,0,0,0,.28.12.42.42,0,0,0,.29-.12l2.78-2.78A2,2,0,0,0,34.51,46.47Z"/><path class="cls-2" d="M45,46.47a2.06,2.06,0,0,0-2.81.16L42,46.8l-.18-.17A2.06,2.06,0,0,0,39,46.47a2,2,0,0,0-.08,2.89l2.79,2.78a.38.38,0,0,0,.28.12.39.39,0,0,0,.28-.12L45,49.36A2,2,0,0,0,45,46.47Z"/><path class="cls-2" d="M55.39,46.47a2.07,2.07,0,0,0-2.82.16l-.17.17-.18-.17a2.06,2.06,0,0,0-2.81-.16,2,2,0,0,0-.08,2.89l2.78,2.78a.42.42,0,0,0,.29.12.39.39,0,0,0,.28-.12l2.78-2.78A2,2,0,0,0,55.39,46.47Z"/></svg>