<svg id="Layer_1" data-name="Layer 1" xmlns="http://www.w3.org/2000/svg" viewBox="0 0 64 64"><defs><style>.cls-1{fill:#F4DFDF;}.cls-2{fill:#FC0707;}.cls-3{fill:#DD1515;}.cls-4{fill:#fff;}</style></defs><title>interaction, interact, preferences, preformance, dislike, statistics, analytics, graph</title><rect class="cls-1" x="8" y="8" width="48" height="48" rx="5.04" transform="translate(64 64) rotate(180)"/><path class="cls-2" d="M51,56H13a5,5,0,0,1-5-5V25l7.25,7.25,9-9L44,42.88l5.63-5.63L56,43.67V51A5,5,0,0,1,51,56Z"/><polygon class="cls-3" points="8 24.29 15.25 31.54 24.29 22.5 43.95 42.17 49.58 36.54 56 42.96 56 44.37 49.58 37.96 43.95 43.59 24.29 23.92 15.25 32.96 8 25.71 8 24.29"/><path class="cls-4" d="M47.71,37.27a2,2,0,1,0,2-2A2,2,0,0,0,47.71,37.27Z"/><circle class="cls-4" cx="24.31" cy="23.21" r="1.98"/><circle class="cls-4" cx="44" cy="42.71" r="1.98"/><path class="cls-4" d="M13.24,32a2,2,0,1,0,2-2A2,2,0,0,0,13.24,32Z"/><path class="cls-4" d="M39.31,23.18a.28.28,0,0,1,.27.33l-.33,1.74a3.29,3.29,0,0,0,0,.54v0a2.57,2.57,0,0,0,1.59,2.37h0a.51.51,0,0,0,.71-.48h0a6.34,6.34,0,0,1,.78-3h0a4.51,4.51,0,0,1,4-2.36h2V14.36h-2a8.11,8.11,0,0,1-2.49-.4h0a7.76,7.76,0,0,0-2.48-.4H36.84a4,4,0,0,0-4,3.49l-.53,4.26A1.66,1.66,0,0,0,34,23.18Z"/><path class="cls-2" d="M47.64,14.12H52a.47.47,0,0,1,.47.47v7.87a.25.25,0,0,1-.25.25H47.64a1.23,1.23,0,0,1-1.23-1.23V15.35A1.23,1.23,0,0,1,47.64,14.12Z" transform="translate(98.91 36.83) rotate(180)"/></svg>