<svg id="Layer_1" data-name="Layer 1" xmlns="http://www.w3.org/2000/svg" viewBox="0 0 64 64"><defs><style>.cls-1{fill:#DD1515;}.cls-2{fill:#FC0707;}.cls-3{fill:#F4DFDF;}.cls-4{fill:#e5cccc;}.cls-5{fill:#fff;}</style></defs><title>interaction, interact, preferences, preformance, computer, online, rating, review</title><path class="cls-1" d="M37.45,50.67h0a2.24,2.24,0,0,1-2.24-2.25V45.17H28.79v3.25a2.24,2.24,0,0,1-2.24,2.25h0A3.55,3.55,0,0,0,23,54.22h0A1.79,1.79,0,0,0,24.79,56H39.21A1.79,1.79,0,0,0,41,54.22h0A3.55,3.55,0,0,0,37.45,50.67Z"/><path class="cls-2" d="M38.79,50.67H25.21A2.2,2.2,0,0,0,23,52.87v1.35A1.79,1.79,0,0,0,24.79,56H39.21A1.79,1.79,0,0,0,41,54.22V52.87A2.2,2.2,0,0,0,38.79,50.67Z"/><rect class="cls-3" x="8" y="13.17" width="48" height="34" rx="4.04"/><path class="cls-2" d="M8,41.38v1.75a4,4,0,0,0,4,4H52a4,4,0,0,0,4-4V41.38Z"/><rect class="cls-4" x="8" y="39.31" width="48" height="2.06"/><circle class="cls-1" cx="32" cy="44.27" r="1.01"/><rect class="cls-2" x="14.69" y="18.72" width="6.29" height="6.29" rx="0.57" transform="translate(39.7 4.03) rotate(90)"/><rect class="cls-5" x="17.66" y="20.41" width="0.86" height="2.91" rx="0.24" transform="translate(20.75 -6.39) rotate(44.99)"/><rect class="cls-5" x="16.68" y="21.54" width="0.86" height="1.59" rx="0.24" transform="translate(44.99 26.02) rotate(134.99)"/><rect class="cls-5" x="23.61" y="19.96" width="25.7" height="1.11"/><rect class="cls-5" x="23.61" y="22.64" width="19.44" height="1.11"/><rect class="cls-5" x="14.69" y="29.17" width="6.29" height="6.29" rx="0.57" transform="translate(50.15 14.48) rotate(90)"/><rect class="cls-5" x="23.61" y="30.41" width="25.7" height="1.11"/><rect class="cls-5" x="23.61" y="33.1" width="19.44" height="1.11"/><path class="cls-3" d="M18.9,32.32a1.07,1.07,0,1,1-1.07-1.07A1.07,1.07,0,0,1,18.9,32.32Z"/></svg>