<svg id="Layer_1" data-name="Layer 1" xmlns="http://www.w3.org/2000/svg" viewBox="0 0 64 64"><defs><style>.cls-1{fill:#DD1515;}.cls-2{fill:#F4DFDF;}.cls-3{fill:#FC0707;}.cls-4{fill:#fff;}</style></defs><title>interaction, interact, preferences, preformance, rating, rate, confirm</title><path class="cls-1" d="M48.91,56h.49a1.18,1.18,0,0,0,1.09-1.66L47,46.19V44H17v2.19l-3.51,8.15A1.18,1.18,0,0,0,14.6,56h.49a1.17,1.17,0,0,0,1.09-.72h0a6.84,6.84,0,0,1,6.27-4.12h19.1a6.84,6.84,0,0,1,6.27,4.12h0A1.17,1.17,0,0,0,48.91,56Z"/><path class="cls-2" d="M11.39,13.13H52.61a2.12,2.12,0,0,1,2.12,2.12V42.79a0,0,0,0,1,0,0H9.28a0,0,0,0,1,0,0V15.24A2.12,2.12,0,0,1,11.39,13.13Z"/><rect class="cls-3" x="8" y="42.79" width="48" height="4.8" rx="1.08"/><circle class="cls-1" cx="22.34" cy="29.4" r="7.5" transform="translate(-14.24 24.41) rotate(-45)"/><circle class="cls-3" cx="41.66" cy="29.4" r="7.5" transform="translate(3.5 63.22) rotate(-76.76)"/><rect class="cls-4" x="41.29" y="26.22" width="1.87" height="6.36" rx="0.53" transform="translate(33.16 -21.25) rotate(45.01)"/><rect class="cls-4" x="39.14" y="28.69" width="1.87" height="3.47" rx="0.53" transform="translate(89.92 23.6) rotate(135.01)"/><rect class="cls-4" x="21.41" y="26.22" width="1.87" height="6.36" rx="0.53" transform="translate(27.33 -7.19) rotate(45)"/><rect class="cls-4" x="21.41" y="26.22" width="1.87" height="6.36" rx="0.53" transform="translate(58.93 34.39) rotate(135)"/></svg>