<svg id="Layer_1" data-name="Layer 1" xmlns="http://www.w3.org/2000/svg" viewBox="0 0 64 64"><defs><style>.cls-1{fill:#DD1515;}.cls-2{fill:#F4DFDF;}.cls-3{fill:#FC0707;}</style></defs><title>interaction, interact, preferences, preformance, question, ?</title><path class="cls-1" d="M48.91,56h.49a1.18,1.18,0,0,0,1.09-1.66L47,46.19V44H17v2.19l-3.51,8.15A1.18,1.18,0,0,0,14.6,56h.49a1.17,1.17,0,0,0,1.09-.72h0a6.84,6.84,0,0,1,6.27-4.12h19.1a6.84,6.84,0,0,1,6.27,4.12h0A1.17,1.17,0,0,0,48.91,56Z"/><path class="cls-2" d="M11.39,13.13H52.61a2.12,2.12,0,0,1,2.12,2.12V42.79a0,0,0,0,1,0,0H9.28a0,0,0,0,1,0,0V15.24A2.12,2.12,0,0,1,11.39,13.13Z"/><rect class="cls-3" x="8" y="42.79" width="48" height="4.8" rx="1.08"/><path class="cls-3" d="M32,33.17a1.52,1.52,0,0,1-1.51-1.51v-.41a4.63,4.63,0,0,1,2.67-4.18,2.64,2.64,0,1,0-3.8-2.38,1.51,1.51,0,1,1-3,0,5.67,5.67,0,0,1,11.2-1.2,5.69,5.69,0,0,1-3.06,6.29,1.65,1.65,0,0,0-1,1.47v.41A1.51,1.51,0,0,1,32,33.17Z"/><path class="cls-3" d="M32,37.57a1.54,1.54,0,0,1-1.07-.44,1.3,1.3,0,0,1-.18-.23,1.35,1.35,0,0,1-.15-.26c0-.1-.06-.19-.08-.28a1.53,1.53,0,0,1,0-.3,1.43,1.43,0,0,1,0-.29c0-.1.05-.19.08-.29a1.74,1.74,0,0,1,.15-.26,1.24,1.24,0,0,1,.18-.22,1.55,1.55,0,0,1,2.14,0,1.24,1.24,0,0,1,.18.22,1.74,1.74,0,0,1,.15.26,1.57,1.57,0,0,1,.08.29,1.43,1.43,0,0,1,0,.29,1.53,1.53,0,0,1,0,.3,1.72,1.72,0,0,1-.08.28,1.35,1.35,0,0,1-.15.26,1.3,1.3,0,0,1-.18.23A1.52,1.52,0,0,1,32,37.57Z"/></svg>