<svg id="Layer_1" data-name="Layer 1" xmlns="http://www.w3.org/2000/svg" viewBox="0 0 64 64"><defs><style>.cls-1{fill:#F4DFDF;}.cls-2{fill:#FC0707;}.cls-3{fill:#DD1515;}.cls-4{fill:#fff;}</style></defs><title>interaction, interact, preferences, preformance, statistics, analytics, like</title><rect class="cls-1" x="8" y="8" width="48" height="48" rx="5.04"/><path class="cls-2" d="M13,56H51a5,5,0,0,0,5-5V25l-7.25,7.25-9-9L20.05,42.88l-5.63-5.63L8,43.67V51A5,5,0,0,0,13,56Z"/><polygon class="cls-3" points="56 24.29 48.75 31.54 39.71 22.5 20.05 42.17 14.42 36.54 8 42.96 8 44.37 14.42 37.96 20.05 43.59 39.71 23.92 48.75 32.96 56 25.71 56 24.29"/><path class="cls-4" d="M16.29,37.27a2,2,0,1,1-2-2A2,2,0,0,1,16.29,37.27Z"/><circle class="cls-4" cx="39.69" cy="23.21" r="1.98"/><circle class="cls-4" cx="20" cy="42.71" r="1.98"/><path class="cls-4" d="M50.76,32a2,2,0,1,1-2-2A2,2,0,0,1,50.76,32Z"/><path class="cls-4" d="M25.52,16.77a.27.27,0,0,1-.27-.32l.33-1.74a2.47,2.47,0,0,0,.05-.54v0A2.57,2.57,0,0,0,24,11.78h0a.51.51,0,0,0-.71.48h0a6.34,6.34,0,0,1-.78,3h0a4.51,4.51,0,0,1-4,2.36h-2V25.6h2A8.11,8.11,0,0,1,21,26h0a7.76,7.76,0,0,0,2.48.4H28a4,4,0,0,0,4-3.49l.53-4.27a1.66,1.66,0,0,0-1.65-1.87Z"/><path class="cls-2" d="M13.56,17.25H18a.47.47,0,0,1,.47.47v7.87a.25.25,0,0,1-.25.25H13.56a1.23,1.23,0,0,1-1.23-1.23V18.48A1.23,1.23,0,0,1,13.56,17.25Z"/></svg>