<svg id="Layer_1" data-name="Layer 1" xmlns="http://www.w3.org/2000/svg" viewBox="0 0 64 64"><defs><style>.cls-1{fill:#DD1515;}.cls-2{fill:#FC0707;}.cls-3{fill:#e5cccc;}.cls-4{fill:#F4DFDF;}.cls-5{fill:#fff;}</style></defs><title>interaction, interact, preferences, preformance, question, no answer, message</title><path class="cls-1" d="M27.48,28.14,17.39,38.23a1,1,0,0,1-1.62-.67V28.14Z"/><rect class="cls-2" x="8" y="8" width="37.61" height="26.32" rx="2.5" transform="translate(53.61 42.32) rotate(180)"/><path class="cls-3" d="M44.31,49.78l6,6a.57.57,0,0,0,1-.4V49.78Z"/><rect class="cls-4" x="21.63" y="37.7" width="34.37" height="15.79" rx="1.5"/><path class="cls-5" d="M30.64,14.13H23a.91.91,0,0,0-.64.27l-1.25,1.25a.9.9,0,0,0-.26.64V26a.9.9,0,0,0,.26.64l1.25,1.25a.91.91,0,0,0,.64.27h7.67a.89.89,0,0,0,.63-.27l1.25-1.25a.91.91,0,0,0,.27-.64V16.29a.91.91,0,0,0-.27-.64L31.27,14.4A.89.89,0,0,0,30.64,14.13Zm-5.36,3.56h3a.9.9,0,0,1,.9.9v4.65l-2-2.45a.59.59,0,0,0-.93.74L28,23.59a.64.64,0,0,1-.49,1H25.28a.9.9,0,0,1-.9-.9V18.59A.9.9,0,0,1,25.28,17.69Z"/><path class="cls-3" d="M38.81,37.7H23.13a1.5,1.5,0,0,0-1.5,1.5V52a1.5,1.5,0,0,0,1.5,1.5H38.81Z"/><rect class="cls-5" x="46.63" y="41.46" width="2.43" height="8.26" rx="0.69" transform="translate(46.25 -20.48) rotate(45)"/><rect class="cls-5" x="43.84" y="44.66" width="2.43" height="4.51" rx="0.69" transform="translate(110.08 48.23) rotate(135)"/><rect class="cls-5" x="29.08" y="41.46" width="2.43" height="8.26" rx="0.69" transform="translate(41.11 -8.07) rotate(45)"/><rect class="cls-5" x="29.08" y="41.46" width="2.43" height="8.26" rx="0.69" transform="translate(83.95 56.41) rotate(135)"/></svg>