<svg id="Layer_1" data-name="Layer 1" xmlns="http://www.w3.org/2000/svg" viewBox="0 0 64 64"><defs><style>.cls-1{fill:#F4DFDF;}.cls-2{fill:#DD1515;}.cls-3{fill:#FC0707;}.cls-4{fill:#fff;}</style></defs><title>interaction, interact, preferences, preformance, customer, service, call, happy</title><path class="cls-1" d="M40.7,45.42,39.07,43.8a5.67,5.67,0,0,0-8,0h0a1.92,1.92,0,0,0-.56,1.36h0a1.91,1.91,0,0,1-1.64,1.92A10.67,10.67,0,0,1,16.92,35.14a1.91,1.91,0,0,1,1.92-1.64h0a1.92,1.92,0,0,0,1.36-.56h0a5.67,5.67,0,0,0,0-8L18.58,23.3a5.2,5.2,0,0,0-8,.7A15.53,15.53,0,0,0,8,33.62,24.11,24.11,0,0,0,30.38,56,15.53,15.53,0,0,0,40,53.41,5.2,5.2,0,0,0,40.7,45.42Z"/><path class="cls-2" d="M39.9,28.15l-8,8a.75.75,0,0,1-1.29-.53V28.15Z"/><rect class="cls-3" x="26.09" y="8" width="29.91" height="25.06" rx="1.99" transform="translate(82.09 41.06) rotate(180)"/><circle class="cls-4" cx="41.04" cy="20.53" r="8.25"/><ellipse class="cls-1" cx="38.52" cy="18.67" rx="0.75" ry="1.07"/><ellipse class="cls-1" cx="43.57" cy="18.67" rx="0.75" ry="1.07"/><path class="cls-1" d="M38.19,21a.39.39,0,0,0-.38.46,3.27,3.27,0,0,0,6.47,0A.4.4,0,0,0,43.9,21Z"/></svg>