<svg id="Layer_1" data-name="Layer 1" xmlns="http://www.w3.org/2000/svg" viewBox="0 0 64 64"><defs><style>.cls-1{fill:#ff5454;}.cls-2{fill:#dfe8f4;}.cls-3{fill:#fff;}.cls-4{fill:#ccd8e5;}</style></defs><title>interaction, interact, preferences, preformance, happy, unhappy, emoji, emoticon</title><circle class="cls-1" cx="22.85" cy="41.15" r="14.84"/><path class="cls-2" d="M19.65,37.8c0,1.06-.6,1.93-1.34,1.93S17,38.86,17,37.8s.6-1.93,1.34-1.93S19.65,36.73,19.65,37.8Z"/><ellipse class="cls-2" cx="27.38" cy="37.8" rx="1.34" ry="1.93"/><path class="cls-2" d="M17.71,42a.71.71,0,0,0-.69.81,5.88,5.88,0,0,0,11.65,0A.71.71,0,0,0,28,42Z"/><path class="cls-3" d="M22.85,44.14A5.89,5.89,0,0,0,18.58,46a5.8,5.8,0,0,0,8.53,0A5.87,5.87,0,0,0,22.85,44.14Z"/><circle class="cls-2" cx="41.15" cy="22.85" r="14.84"/><path class="cls-4" d="M37.12,37.12A14.87,14.87,0,0,0,26.88,26.88,14.87,14.87,0,0,0,37.12,37.12Z"/><path class="cls-3" d="M38,19.49c0,1.07-.6,1.93-1.34,1.93s-1.35-.86-1.35-1.93.6-1.92,1.35-1.92S38,18.43,38,19.49Z"/><path class="cls-3" d="M47,19.49c0,1.07-.6,1.93-1.34,1.93s-1.34-.86-1.34-1.93.6-1.92,1.34-1.92S47,18.43,47,19.49Z"/><path class="cls-3" d="M46.29,29.56a.71.71,0,0,0,.69-.82,5.88,5.88,0,0,0-11.65,0,.71.71,0,0,0,.69.82Z"/></svg>