<svg id="Layer_1" data-name="Layer 1" xmlns="http://www.w3.org/2000/svg" viewBox="0 0 64 64"><defs><style>.cls-1{fill:#FC0707;}.cls-2{fill:#F4DFDF;}.cls-3{fill:#fff;}</style></defs><title>interaction, interact, preferences, preformance, file, confirm, complete</title><path class="cls-1" d="M45.88,8a5.45,5.45,0,0,1,5.45,5.45v37.1A5.45,5.45,0,0,1,45.88,56H18.12a5.45,5.45,0,0,1-5.45-5.45V19.89a2.45,2.45,0,0,1,.72-1.74l9.43-9.43A2.45,2.45,0,0,1,24.56,8Z"/><path class="cls-2" d="M12.9,18.87a2.36,2.36,0,0,1,.49-.72l9.43-9.43a2.36,2.36,0,0,1,.72-.49v5.19a5.45,5.45,0,0,1-5.45,5.45Z"/><rect class="cls-3" x="30.93" y="23.73" width="5.44" height="18.54" rx="1.56" transform="translate(33.19 -14.13) rotate(45)"/><rect class="cls-3" x="24.65" y="30.92" width="5.44" height="10.11" rx="1.56" transform="translate(72.17 42.06) rotate(135)"/></svg>