<svg id="Layer_1" data-name="Layer 1" xmlns="http://www.w3.org/2000/svg" viewBox="0 0 64 64"><defs><style>.cls-1{fill:#dfe8f4;}.cls-2{fill:#ccd8e5;}.cls-3{fill:#ff5454;}.cls-4{fill:#fff;}.cls-5{fill:#dd1515;}</style></defs><title>interaction, interact, preferences, preformance, hand, gesture, customer, rating</title><rect class="cls-1" x="13.17" y="12.18" width="37.67" height="43.82" rx="2.73"/><path class="cls-2" d="M48.11,12.18H24.3v1.16a1.12,1.12,0,0,0,1.12,1.12H50.79A2.73,2.73,0,0,0,48.11,12.18Z"/><path class="cls-3" d="M38.47,11.08H36.36a1.49,1.49,0,0,1-1.41-1,3.13,3.13,0,0,0-5.9,0,1.49,1.49,0,0,1-1.41,1H25.53a1.24,1.24,0,0,0-1.23,1.24v1.62a.52.52,0,0,0,.52.52H39.18a.52.52,0,0,0,.52-.52V12.32A1.24,1.24,0,0,0,38.47,11.08ZM32,10a1.12,1.12,0,0,1,1.12,1.08H30.88A1.12,1.12,0,0,1,32,10Z"/><rect class="cls-2" x="27.63" y="17.13" width="8.75" height="8.75" rx="0.8"/><rect class="cls-2" x="38.52" y="17.13" width="8.75" height="8.75" rx="0.8"/><rect class="cls-3" x="16.73" y="17.13" width="8.75" height="8.75" rx="0.8"/><rect class="cls-4" x="20.87" y="19.47" width="1.19" height="4.05" rx="0.34" transform="translate(21.49 -8.88) rotate(45)"/><rect class="cls-4" x="19.5" y="21.05" width="1.19" height="2.21" rx="0.34" transform="translate(49.96 23.61) rotate(135)"/><path class="cls-3" d="M20.65,37.8l-.49-8.18A1.72,1.72,0,0,0,18.44,28h0a1.73,1.73,0,0,0-1.72,1.62L15.9,43.18a.39.39,0,0,1-.48.35L13.25,43a7.78,7.78,0,0,0-3.36-.13h0A1.14,1.14,0,0,0,9,44H9A1.13,1.13,0,0,0,9.72,45h0a8.3,8.3,0,0,1,3.12,2l1.32,1.3A9.63,9.63,0,0,1,17,55.12H27.51V54A4.1,4.1,0,0,1,28,52.11h0A10.71,10.71,0,0,0,29.1,47.3V43a3.34,3.34,0,0,0-2.45-3.22l-5.72-1.6A.37.37,0,0,1,20.65,37.8Z"/><path class="cls-5" d="M16.83,54H27.62a.68.68,0,0,1,.68.68V56a0,0,0,0,1,0,0H16.15a0,0,0,0,1,0,0V54.73A.68.68,0,0,1,16.83,54Z"/><rect class="cls-2" x="32" y="29.89" width="12" height="1.01"/><rect class="cls-2" x="32" y="32.41" width="12" height="1.01"/><rect class="cls-2" x="32" y="34.93" width="12" height="1.01"/><rect class="cls-2" x="32" y="37.44" width="6.34" height="1.01"/><rect class="cls-2" x="32" y="41.13" width="12" height="1.01"/><rect class="cls-2" x="32" y="43.64" width="12" height="1.01"/><rect class="cls-2" x="32" y="46.16" width="12" height="1.01"/><rect class="cls-2" x="32" y="48.68" width="6.34" height="1.01"/></svg>