<svg id="Layer_1" data-name="Layer 1" xmlns="http://www.w3.org/2000/svg" viewBox="0 0 64 64"><defs><style>.cls-1{fill:#F4DFDF;}.cls-2{fill:#DD1515;}.cls-3{fill:#FC0707;}.cls-4{fill:#fff;}</style></defs><title>interaction, interact, preferences, preformance, customer, service, call, unhappy</title><path class="cls-1" d="M40.7,45.42,39.07,43.8a5.67,5.67,0,0,0-8,0h0a1.92,1.92,0,0,0-.56,1.36h0a1.91,1.91,0,0,1-1.64,1.92A10.67,10.67,0,0,1,16.92,35.14a1.91,1.91,0,0,1,1.92-1.64h0a1.92,1.92,0,0,0,1.36-.56h0a5.67,5.67,0,0,0,0-8L18.58,23.3a5.2,5.2,0,0,0-8,.7A15.53,15.53,0,0,0,8,33.62,24.11,24.11,0,0,0,30.38,56,15.53,15.53,0,0,0,40,53.41,5.2,5.2,0,0,0,40.7,45.42Z"/><path class="cls-2" d="M39.9,28.15l-8,8a.75.75,0,0,1-1.29-.53V28.15Z"/><rect class="cls-3" x="26.09" y="8" width="29.91" height="25.06" rx="1.99" transform="translate(82.09 41.06) rotate(180)"/><circle class="cls-1" cx="41.04" cy="20.53" r="8.25" transform="translate(12.14 56.17) rotate(-77.53)"/><path class="cls-4" d="M39.27,18.66c0,.6-.34,1.08-.75,1.08s-.75-.48-.75-1.08.34-1.07.75-1.07S39.27,18.07,39.27,18.66Z"/><path class="cls-4" d="M44.31,18.66c0,.6-.33,1.08-.74,1.08s-.75-.48-.75-1.08.33-1.07.75-1.07S44.31,18.07,44.31,18.66Z"/><path class="cls-4" d="M43.9,24.26a.39.39,0,0,0,.38-.45,3.27,3.27,0,0,0-6.48,0,.39.39,0,0,0,.39.45Z"/></svg>