<svg id="Layer_1" data-name="Layer 1" xmlns="http://www.w3.org/2000/svg" viewBox="0 0 64 64"><defs><style>.cls-1{fill:#ff5454;}.cls-2{fill:#dd1515;}.cls-3{fill:#dfe8f4;}.cls-4{fill:#ccd8e5;}.cls-5{fill:#fff;}</style></defs><title>interaction, interact, preferences, preformance, award, unhappy, customer, review</title><path class="cls-1" d="M8,9.07v6.56a4.39,4.39,0,0,0,2.19,3.8L31.46,31.69a1.09,1.09,0,0,0,1.08,0L53.77,19.43A4.39,4.39,0,0,0,56,15.63V9.07A1.07,1.07,0,0,0,54.89,8H9.11A1.07,1.07,0,0,0,8,9.07Z"/><path class="cls-2" d="M39.92,8H24.08V27.43l7.38,4.26a1.09,1.09,0,0,0,1.08,0l7.38-4.26Z"/><circle class="cls-3" cx="32" cy="44.53" r="11.47" transform="translate(-14.24 15.05) rotate(-21.77)"/><circle class="cls-4" cx="32" cy="44.53" r="7.34" transform="translate(-17.16 68.85) rotate(-80.62)"/><circle class="cls-3" cx="32" cy="44.53" r="11.46" transform="translate(-14.24 15.05) rotate(-21.77)"/><ellipse class="cls-5" cx="28.5" cy="41.94" rx="1.04" ry="1.49"/><ellipse class="cls-5" cx="35.5" cy="41.94" rx="1.04" ry="1.49"/><path class="cls-5" d="M36,49.72a.55.55,0,0,0,.54-.63,4.54,4.54,0,0,0-9,0,.55.55,0,0,0,.54.63Z"/></svg>