<svg id="Layer_1" data-name="Layer 1" xmlns="http://www.w3.org/2000/svg" viewBox="0 0 64 64"><defs><style>.cls-1{fill:#F4DFDF;}.cls-2{fill:#e5cccc;}.cls-3{fill:#FC0707;}.cls-4{fill:#fff;}</style></defs><title>interaction, interact, preferences, preformance, selection, happy, unhappy</title><rect class="cls-1" x="13.17" y="12.18" width="37.67" height="43.82" rx="2.73"/><path class="cls-2" d="M48.11,12.18H24.3v1.16a1.12,1.12,0,0,0,1.11,1.12H50.79A2.73,2.73,0,0,0,48.11,12.18Z"/><path class="cls-3" d="M38.47,11.08H36.36a1.49,1.49,0,0,1-1.41-1,3.13,3.13,0,0,0-5.9,0,1.49,1.49,0,0,1-1.41,1H25.53a1.24,1.24,0,0,0-1.23,1.24v1.62a.52.52,0,0,0,.52.52H39.18a.52.52,0,0,0,.52-.52V12.32A1.24,1.24,0,0,0,38.47,11.08ZM32,10a1.12,1.12,0,0,1,1.12,1.08H30.88A1.12,1.12,0,0,1,32,10Z"/><path class="cls-3" d="M32.76,27a6.33,6.33,0,1,1-6.33-6.33A6.32,6.32,0,0,1,32.76,27Z"/><path class="cls-1" d="M25.07,25.58c0,.46-.26.82-.57.82s-.58-.36-.58-.82.26-.82.58-.82S25.07,25.13,25.07,25.58Z"/><path class="cls-1" d="M28.94,25.58c0,.46-.26.82-.57.82s-.58-.36-.58-.82.26-.82.58-.82S28.94,25.13,28.94,25.58Z"/><path class="cls-1" d="M24.24,27.37a.3.3,0,0,0-.29.35,2.5,2.5,0,0,0,5,0,.3.3,0,0,0-.29-.35Z"/><path class="cls-4" d="M26.43,28.29a2.51,2.51,0,0,0-1.82.79,2.47,2.47,0,0,0,3.64,0A2.51,2.51,0,0,0,26.43,28.29Z"/><path class="cls-2" d="M32.76,43.42a6.33,6.33,0,1,1-6.33-6.33A6.32,6.32,0,0,1,32.76,43.42Z"/><path class="cls-4" d="M25.07,42c0,.46-.26.82-.57.82s-.58-.36-.58-.82.26-.82.58-.82S25.07,41.54,25.07,42Z"/><path class="cls-4" d="M28.94,42c0,.46-.26.82-.57.82s-.58-.36-.58-.82.26-.82.58-.82S28.94,41.54,28.94,42Z"/><path class="cls-4" d="M28.32,45.63H24.54A.59.59,0,0,1,24,45h0a.59.59,0,0,1,.59-.6h3.78a.6.6,0,0,1,.6.6h0A.6.6,0,0,1,28.32,45.63Z"/><rect class="cls-4" x="39.78" y="23.2" width="2.12" height="7.23" rx="0.61" transform="translate(30.92 -21.02) rotate(45)"/><rect class="cls-4" x="37.33" y="26.01" width="2.12" height="3.95" rx="0.61" transform="translate(85.32 20.62) rotate(135)"/></svg>