<svg id="Layer_1" data-name="Layer 1" xmlns="http://www.w3.org/2000/svg" viewBox="0 0 64 64"><defs><style>.cls-1{fill:#dfe8f4;}.cls-2{fill:#ccd8e5;}.cls-3{fill:#ff5454;}.cls-4{fill:#dd1515;}</style></defs><title>interaction, interact, preferences, preformance, like, dislike, rating, rate</title><path class="cls-1" d="M28.34,15.76a.42.42,0,0,1-.42-.5l.51-2.68a4.78,4.78,0,0,0,.08-.84v0a4,4,0,0,0-2.46-3.66h0A.79.79,0,0,0,25,8.8h0a9.85,9.85,0,0,1-1.2,4.69h0a7,7,0,0,1-6.13,3.64H14.48V29.37h3.05a12.19,12.19,0,0,1,3.83.62h0a12.18,12.18,0,0,0,3.83.61h7a6.16,6.16,0,0,0,6.11-5.38l.82-6.58a2.56,2.56,0,0,0-2.54-2.88Z"/><path class="cls-2" d="M16.6,17.13V29.37h.93a13.17,13.17,0,0,1,2.17.2V16.8a6.89,6.89,0,0,1-2.07.33Z"/><path class="cls-3" d="M8,16.5h8.67a.72.72,0,0,1,.72.72V29.35a.38.38,0,0,1-.38.38H8a0,0,0,0,1,0,0V16.5A0,0,0,0,1,8,16.5Z"/><path class="cls-3" d="M35.66,48.24a.42.42,0,0,1,.42.5l-.51,2.68a4.78,4.78,0,0,0-.08.84v0A4,4,0,0,0,38,55.94h0A.79.79,0,0,0,39,55.2h0a9.85,9.85,0,0,1,1.2-4.69h0a7,7,0,0,1,6.13-3.64h3.15V34.63H46.47A12.19,12.19,0,0,1,42.64,34h0a12.18,12.18,0,0,0-3.83-.61h-7a6.16,6.16,0,0,0-6.11,5.38l-.82,6.57a2.56,2.56,0,0,0,2.54,2.89Z"/><path class="cls-4" d="M44.33,47.19a7,7,0,0,1,2-.32h1.05V34.63h-1a11.84,11.84,0,0,1-2.14-.2Z"/><path class="cls-1" d="M46.61,34.26h8.67A.72.72,0,0,1,56,35V47.12a.38.38,0,0,1-.38.38h-9a0,0,0,0,1,0,0V34.26A0,0,0,0,1,46.61,34.26Z" transform="translate(102.61 81.76) rotate(180)"/></svg>