<svg id="Layer_1" data-name="Layer 1" xmlns="http://www.w3.org/2000/svg" viewBox="0 0 64 64"><defs><style>.cls-1{fill:#ccd8e5;}.cls-2{fill:#dfe8f4;}.cls-3{fill:#fff;}.cls-4{fill:#ff5454;}</style></defs><title>interaction, interact, preferences, preformance, dislike, message, review</title><path class="cls-1" d="M32.87,38.24,20,51.11a1.21,1.21,0,0,1-2.07-.85v-12Z"/><rect class="cls-2" x="8" y="12.53" width="48" height="33.59" rx="3.19" transform="translate(64 58.65) rotate(180)"/><path class="cls-3" d="M27.72,32.49a.38.38,0,0,1,.38.45l-.46,2.39a3.67,3.67,0,0,0-.07.75h0a3.53,3.53,0,0,0,2.19,3.27h0a.71.71,0,0,0,1-.66h0a8.79,8.79,0,0,1,1.07-4.19h0a6.24,6.24,0,0,1,5.47-3.24h2.81V20.33H37.37A10.79,10.79,0,0,1,34,19.78h0a11,11,0,0,0-3.42-.54h-6.2a5.49,5.49,0,0,0-5.45,4.81l-.74,5.86a2.29,2.29,0,0,0,2.27,2.58Z"/><path class="cls-1" d="M39.1,20.33H37.37c-.35,0-.69,0-1,0V31.34a7.45,7.45,0,0,1,1-.07H39.1Z"/><path class="cls-4" d="M37.5,20h7.74a.64.64,0,0,1,.64.64V31.48a.34.34,0,0,1-.34.34h-8a0,0,0,0,1,0,0V20A0,0,0,0,1,37.5,20Z" transform="translate(83.38 51.84) rotate(180)"/></svg>