<svg id="Layer_1" data-name="Layer 1" xmlns="http://www.w3.org/2000/svg" viewBox="0 0 64 64"><defs><style>.cls-1{fill:#ff5454;}.cls-2{fill:#dfe8f4;}</style></defs><title>interaction, interact, preferences, preformance, star, rate, rating, three</title><path class="cls-1" d="M14.45,27.1l1,2.09a.9.9,0,0,0,.69.5l2.31.34A.92.92,0,0,1,19,31.6l-1.67,1.62a.94.94,0,0,0-.27.82l.4,2.29a.93.93,0,0,1-1.34,1l-2.06-1.09a.93.93,0,0,0-.86,0l-2.06,1.09a.93.93,0,0,1-1.34-1l.4-2.29a.94.94,0,0,0-.27-.82L8.26,31.6A.92.92,0,0,1,8.77,30l2.3-.34a.9.9,0,0,0,.69-.5l1-2.09A.93.93,0,0,1,14.45,27.1Z"/><path class="cls-1" d="M32.83,27.1l1,2.09a.9.9,0,0,0,.69.5l2.3.34a.92.92,0,0,1,.52,1.57L35.7,33.22a.94.94,0,0,0-.27.82l.4,2.29a.93.93,0,0,1-1.34,1l-2.06-1.09a.93.93,0,0,0-.86,0l-2.06,1.09a.93.93,0,0,1-1.34-1l.4-2.29a.94.94,0,0,0-.27-.82L26.63,31.6A.92.92,0,0,1,27.15,30l2.3-.34a.9.9,0,0,0,.69-.5l1-2.09A.93.93,0,0,1,32.83,27.1Z"/><path class="cls-2" d="M51.21,27.1l1,2.09a.9.9,0,0,0,.69.5l2.3.34a.92.92,0,0,1,.51,1.57l-1.66,1.62a.94.94,0,0,0-.27.82l.4,2.29a.93.93,0,0,1-1.34,1l-2.06-1.09a.93.93,0,0,0-.86,0l-2.06,1.09a.93.93,0,0,1-1.34-1L47,34a.94.94,0,0,0-.27-.82L45,31.6A.92.92,0,0,1,45.52,30l2.31-.34a.9.9,0,0,0,.69-.5l1-2.09A.93.93,0,0,1,51.21,27.1Z"/></svg>