<svg id="Layer_1" data-name="Layer 1" xmlns="http://www.w3.org/2000/svg" viewBox="0 0 64 64"><defs><style>.cls-1{fill:#DD1515;}.cls-2{fill:#F4DFDF;}.cls-3{fill:#fff;}.cls-4{fill:#FC0707;}</style></defs><title>interaction, interact, preferences, preformance, medal, award, reward, bad</title><path class="cls-1" d="M25.42,55.65,29,52.11a4.32,4.32,0,0,1,6.1,0l3.53,3.54a1.2,1.2,0,0,0,2.05-.85V31.88H23.37V54.8A1.2,1.2,0,0,0,25.42,55.65Z"/><path class="cls-2" d="M35.16,9.41h0a4.26,4.26,0,0,1,7.41,3.07h0A4.26,4.26,0,0,0,47,17h0a4.26,4.26,0,0,1,3.07,7.41h0a4.26,4.26,0,0,0,0,6.32h0A4.26,4.26,0,0,1,47,38.09h0a4.26,4.26,0,0,0-4.47,4.47h0a4.26,4.26,0,0,1-7.41,3.07h0a4.26,4.26,0,0,0-6.32,0h0a4.26,4.26,0,0,1-7.41-3.07h0A4.26,4.26,0,0,0,17,38.09h0a4.26,4.26,0,0,1-3.07-7.41h0a4.26,4.26,0,0,0,0-6.32h0A4.26,4.26,0,0,1,17,17h0a4.26,4.26,0,0,0,4.47-4.47h0a4.26,4.26,0,0,1,7.41-3.07h0A4.25,4.25,0,0,0,35.16,9.41Z"/><path class="cls-3" d="M28.42,32.67a.31.31,0,0,1,.31.37l-.38,2a3.36,3.36,0,0,0-.06.63v0a3,3,0,0,0,1.84,2.73h0a.6.6,0,0,0,.82-.55h0a7.41,7.41,0,0,1,.89-3.51h0a5.23,5.23,0,0,1,4.58-2.71h2.35V22.5H36.5A9.32,9.32,0,0,1,33.63,22h0a9,9,0,0,0-2.86-.46H25.58a4.59,4.59,0,0,0-4.56,4l-.62,4.91a1.92,1.92,0,0,0,1.9,2.16Z"/><path class="cls-4" d="M38,22.22h5.06a.54.54,0,0,1,.54.54v9.07a.29.29,0,0,1-.29.29H38A1.42,1.42,0,0,1,36.6,30.7V23.64A1.42,1.42,0,0,1,38,22.22Z" transform="translate(80.22 54.34) rotate(180)"/></svg>