<svg id="Layer_1" data-name="Layer 1" xmlns="http://www.w3.org/2000/svg" viewBox="0 0 64 64"><defs><style>.cls-1{fill:#F4DFDF;}.cls-2{fill:#DD1515;}.cls-3{fill:#FC0707;}.cls-4{fill:#fff;}</style></defs><title>interaction, interact, preferences, preformance, account, user, rating</title><path class="cls-1" d="M30.05,16.75h0a4.16,4.16,0,0,0,4.18,0h0a3.26,3.26,0,0,0,1.63-2.83v-2.2a3.72,3.72,0,0,0-7.44,0v2.2A3.26,3.26,0,0,0,30.05,16.75Z"/><path class="cls-1" d="M46.42,18.62H17.58a2.16,2.16,0,0,0-.31,4.29l8.89,1.29-.06.19q-.21.7-.39,1.53c-.19.82-.35,1.73-.49,2.73a75.07,75.07,0,0,0-.58,10.14v16a1.25,1.25,0,0,0,.77,1.15,1.12,1.12,0,0,0,.48.1h0a1.24,1.24,0,0,0,1.22-1l2-8.58,1.52-6.56a1.42,1.42,0,0,1,2.76,0L36.89,55a1.34,1.34,0,0,0,.16.39,1.27,1.27,0,0,0,1.06.58h0a1.12,1.12,0,0,0,.48-.1,1.24,1.24,0,0,0,.67-.66,1.34,1.34,0,0,0,.1-.49v-16a60.48,60.48,0,0,0-1.07-12.87c-.14-.63-.29-1.2-.45-1.72l8.89-1.29a2.16,2.16,0,0,0-.31-4.29Z"/><circle class="cls-2" cx="15.5" cy="32" r="7.5"/><circle class="cls-3" cx="48.57" cy="32" r="7.5"/><rect class="cls-4" x="48.21" y="28.82" width="1.87" height="6.36" rx="0.53" transform="translate(37.03 -25.38) rotate(45.01)"/><rect class="cls-4" x="46.06" y="31.29" width="1.87" height="3.47" rx="0.53" transform="translate(103.56 23.14) rotate(135)"/><rect class="cls-4" x="14.57" y="28.82" width="1.87" height="6.36" rx="0.53" transform="translate(27.17 -1.59) rotate(45.01)"/><rect class="cls-4" x="14.57" y="28.82" width="1.87" height="6.36" rx="0.53" transform="translate(49.09 43.66) rotate(134.99)"/></svg>