<svg id="Layer_1" data-name="Layer 1" xmlns="http://www.w3.org/2000/svg" viewBox="0 0 64 64"><defs><style>.cls-1{fill:#FC0707;}.cls-2{fill:#F4DFDF;}.cls-3{fill:#fff;}</style></defs><title>interaction, interact, preferences, toolbar, selection, confirm, cancel</title><path class="cls-1" d="M34.09,32.6l-.63-10.51A2.21,2.21,0,0,0,31.25,20h0A2.22,2.22,0,0,0,29,22.08L28,39.52a.5.5,0,0,1-.62.45l-2.79-.73a10.16,10.16,0,0,0-4.32-.16h0a1.46,1.46,0,0,0-1.19,1.44h0a1.46,1.46,0,0,0,1,1.37h0a10.78,10.78,0,0,1,4,2.52l1.69,1.67a12.41,12.41,0,0,1,3.66,8.8H42.9V53.37A5.27,5.27,0,0,1,43.47,51h0a13.68,13.68,0,0,0,1.47-6.18V39.25a4.29,4.29,0,0,0-3.14-4.14l-7.35-2.06A.5.5,0,0,1,34.09,32.6Z"/><path class="cls-2" d="M29.18,53.48H43a.88.88,0,0,1,.88.88V56a0,0,0,0,1,0,0H28.3a0,0,0,0,1,0,0V54.36A.88.88,0,0,1,29.18,53.48Z"/><circle class="cls-1" cx="17.75" cy="17.75" r="9.75"/><circle class="cls-2" cx="46.25" cy="17.75" r="9.75"/><rect class="cls-1" x="45.77" y="13.62" width="2.43" height="8.26" rx="0.69" transform="translate(26.31 -28.02) rotate(45)"/><rect class="cls-1" x="42.98" y="16.82" width="2.43" height="4.51" rx="0.69" transform="translate(88.92 1.32) rotate(135)"/><rect class="cls-3" x="16.54" y="13.62" width="2.43" height="8.26" rx="0.69" transform="translate(17.75 -7.35) rotate(45)"/><rect class="cls-3" x="16.54" y="13.62" width="2.43" height="8.26" rx="0.69" transform="translate(42.85 17.75) rotate(135)"/></svg>