<svg id="Layer_1" data-name="Layer 1" xmlns="http://www.w3.org/2000/svg" viewBox="0 0 64 64"><defs><style>.cls-1{fill:#dfe8f4;}.cls-2{fill:#ccd8e5;}.cls-3{fill:#ff5454;}.cls-4{fill:#fff;}</style></defs><title>interaction, interact, preferences, toolbar, clock, selection, confirm</title><rect class="cls-1" x="25.13" y="11.5" width="13.75" height="13.75" rx="1.25"/><path class="cls-2" d="M31.19,20v5.25h6.43A1.26,1.26,0,0,0,38.88,24V20Z"/><rect class="cls-2" x="42.25" y="11.5" width="13.75" height="13.75" rx="1.25"/><path class="cls-3" d="M34.09,32.6l-.63-10.51A2.21,2.21,0,0,0,31.25,20h0A2.22,2.22,0,0,0,29,22.08L28,39.52a.5.5,0,0,1-.62.45l-2.79-.73a10.16,10.16,0,0,0-4.32-.16h0a1.46,1.46,0,0,0-1.19,1.44h0a1.46,1.46,0,0,0,1,1.37h0a10.78,10.78,0,0,1,4,2.52l1.69,1.67a12.41,12.41,0,0,1,3.66,8.8H42.9V53.37A5.27,5.27,0,0,1,43.47,51h0a13.68,13.68,0,0,0,1.47-6.18V39.25a4.29,4.29,0,0,0-3.14-4.14l-7.35-2.06A.5.5,0,0,1,34.09,32.6Z"/><path class="cls-1" d="M29.18,53.48H43a.88.88,0,0,1,.88.88V56a0,0,0,0,1,0,0H28.3a0,0,0,0,1,0,0V54.36A.88.88,0,0,1,29.18,53.48Z"/><rect class="cls-3" x="8" y="11.5" width="13.75" height="13.75" rx="1.25"/><rect class="cls-4" x="14.51" y="15.19" width="1.87" height="6.37" rx="0.53" transform="translate(17.52 -5.54) rotate(45)"/><rect class="cls-4" x="12.35" y="17.66" width="1.87" height="3.48" rx="0.53" transform="translate(36.4 23.72) rotate(135.01)"/></svg>