<svg id="Layer_1" data-name="Layer 1" xmlns="http://www.w3.org/2000/svg" viewBox="0 0 64 64"><defs><style>.cls-1{fill:#FC0707;}.cls-2{fill:#fff;}.cls-3{fill:#F4DFDF;}.cls-4{fill:#DD1515;}.cls-5{fill:#e5cccc;}</style></defs><title>interaction, interact, preferences, preformance, scale, happy, unhappy, review, emoji</title><circle class="cls-1" cx="16.25" cy="30.11" r="8.25"/><path class="cls-2" d="M14.48,28.24c0,.6-.34,1.07-.75,1.07S13,28.84,13,28.24s.34-1.07.75-1.07S14.48,27.65,14.48,28.24Z"/><path class="cls-2" d="M19.52,28.24c0,.6-.33,1.07-.75,1.07S18,28.84,18,28.24s.33-1.07.74-1.07S19.52,27.65,19.52,28.24Z"/><path class="cls-2" d="M13.4,30.57A.4.4,0,0,0,13,31a3.27,3.27,0,0,0,6.48,0,.4.4,0,0,0-.38-.46Z"/><circle class="cls-3" cx="47.75" cy="21.86" r="8.25" transform="translate(-0.98 41.44) rotate(-46.5)"/><path class="cls-2" d="M46,20c0,.59-.33,1.07-.74,1.07s-.75-.48-.75-1.07.33-1.07.75-1.07S46,19.4,46,20Z"/><path class="cls-2" d="M51,20c0,.59-.34,1.07-.75,1.07s-.75-.48-.75-1.07.34-1.07.75-1.07S51,19.4,51,20Z"/><path class="cls-2" d="M50.6,25.59a.4.4,0,0,0,.39-.45,3.27,3.27,0,0,0-6.48,0,.39.39,0,0,0,.38.45Z"/><path class="cls-4" d="M53.53,39.43l-41.66,9.4A3.17,3.17,0,0,1,8,45.74H8a3.17,3.17,0,0,1,2.47-3.09l41.66-9.4A3.17,3.17,0,0,1,56,36.34h0A3.17,3.17,0,0,1,53.53,39.43Z"/><path class="cls-3" d="M21,56H43l-8.12-16a3.26,3.26,0,0,0-5.82,0Z"/><rect class="cls-5" x="18.67" y="54.33" width="26.67" height="1.63" rx="0.56"/><circle class="cls-5" cx="32" cy="42.38" r="1.33"/></svg>