<svg id="Layer_1" data-name="Layer 1" xmlns="http://www.w3.org/2000/svg" viewBox="0 0 64 64"><defs><style>.cls-1{fill:#DD1515;}.cls-2{fill:#F4DFDF;}.cls-3{fill:#e5cccc;}.cls-4{fill:#FC0707;}</style></defs><title>interaction, interact, preferences, preformance, scale, like, dislike, review</title><path class="cls-1" d="M53.53,39.43l-41.66,9.4A3.17,3.17,0,0,1,8,45.74H8a3.17,3.17,0,0,1,2.47-3.09l41.66-9.4A3.17,3.17,0,0,1,56,36.34h0A3.17,3.17,0,0,1,53.53,39.43Z"/><path class="cls-2" d="M21,56H43l-8.12-16a3.26,3.26,0,0,0-5.82,0Z"/><rect class="cls-3" x="18.67" y="54.33" width="26.67" height="1.63" rx="0.56"/><circle class="cls-3" cx="32" cy="42.38" r="1.33"/><path class="cls-2" d="M21.19,26.69a.27.27,0,0,1-.27-.32l.33-1.74a3.29,3.29,0,0,0,.05-.54v0a2.57,2.57,0,0,0-1.59-2.37h0a.51.51,0,0,0-.71.48h0a6.34,6.34,0,0,1-.78,3h0a4.53,4.53,0,0,1-4,2.36h-2v7.94h2a8,8,0,0,1,2.48.4h0a7.82,7.82,0,0,0,2.49.4h4.5a4,4,0,0,0,4-3.49l.54-4.27a1.67,1.67,0,0,0-1.65-1.87Z"/><path class="cls-3" d="M12.93,35.52h1.25c.25,0,.5,0,.76,0v-8a4,4,0,0,1-.7.06H12.93Z"/><path class="cls-4" d="M8,27.17h5.62a.47.47,0,0,1,.47.47v7.87a.25.25,0,0,1-.25.25H8a0,0,0,0,1,0,0V27.17A0,0,0,0,1,8,27.17Z"/><path class="cls-4" d="M42.81,25.73a.28.28,0,0,1,.27.33l-.33,1.73a3.41,3.41,0,0,0,0,.55h0a2.58,2.58,0,0,0,1.59,2.38h0a.52.52,0,0,0,.71-.48h0a6.38,6.38,0,0,1,.78-3.05h0a4.54,4.54,0,0,1,4-2.35h2v-8h-2a7.76,7.76,0,0,1-2.48-.4h0a8.1,8.1,0,0,0-2.49-.39h-4.5a4,4,0,0,0-4,3.49l-.54,4.26a1.67,1.67,0,0,0,1.65,1.87Z"/><path class="cls-1" d="M51.07,16.9H49.82a6.56,6.56,0,0,1-.76,0v8a5.36,5.36,0,0,1,.7,0h1.31Z"/><path class="cls-2" d="M49.91,16.67h5.62a.47.47,0,0,1,.47.47V25a.25.25,0,0,1-.25.25H49.91a0,0,0,0,1,0,0V16.67A0,0,0,0,1,49.91,16.67Z" transform="translate(105.91 41.92) rotate(180)"/></svg>