<svg id="Layer_1" data-name="Layer 1" xmlns="http://www.w3.org/2000/svg" viewBox="0 0 64 64"><defs><style>.cls-1{fill:#DD1515;}.cls-2{fill:#FC0707;}.cls-3{fill:#F4DFDF;}.cls-4{fill:#e5cccc;}.cls-5{fill:#fff;}</style></defs><title>interaction, interact, preferences, preformance, computer, monitor, selection</title><path class="cls-1" d="M37.45,50.67h0a2.24,2.24,0,0,1-2.24-2.25V45.17H28.79v3.25a2.24,2.24,0,0,1-2.24,2.25h0A3.55,3.55,0,0,0,23,54.22h0A1.79,1.79,0,0,0,24.79,56H39.21A1.79,1.79,0,0,0,41,54.22h0A3.55,3.55,0,0,0,37.45,50.67Z"/><path class="cls-2" d="M38.79,50.67H25.21A2.2,2.2,0,0,0,23,52.87v1.35A1.79,1.79,0,0,0,24.79,56H39.21A1.79,1.79,0,0,0,41,54.22V52.87A2.2,2.2,0,0,0,38.79,50.67Z"/><rect class="cls-3" x="8" y="13.17" width="48" height="34" rx="4.04"/><path class="cls-2" d="M8,41.38v1.75a4,4,0,0,0,4,4H52a4,4,0,0,0,4-4V41.38Z"/><rect class="cls-4" x="8" y="39.31" width="48" height="2.06"/><circle class="cls-1" cx="32" cy="44.27" r="1.03"/><circle class="cls-1" cx="22.34" cy="27.9" r="7.5" transform="translate(-9.94 43.23) rotate(-76.72)"/><circle class="cls-2" cx="41.66" cy="27.9" r="7.5" transform="translate(-7.52 37.63) rotate(-45)"/><rect class="cls-5" x="41.29" y="24.72" width="1.87" height="6.36" rx="0.53" transform="translate(32.1 -21.69) rotate(45.01)"/><rect class="cls-5" x="39.14" y="27.18" width="1.87" height="3.47" rx="0.53" transform="translate(88.86 21.03) rotate(135)"/><rect class="cls-5" x="21.41" y="24.72" width="1.87" height="6.36" rx="0.53" transform="translate(26.27 -7.63) rotate(45)"/><rect class="cls-5" x="21.41" y="24.72" width="1.87" height="6.36" rx="0.53" transform="translate(57.86 31.82) rotate(135)"/></svg>