<svg id="Layer_1" data-name="Layer 1" xmlns="http://www.w3.org/2000/svg" viewBox="0 0 64 64"><defs><style>.cls-1{fill:#ff5454;}.cls-2{fill:#dfe8f4;}.cls-3{fill:#fff;}.cls-4{fill:#ccd8e5;}</style></defs><title>interaction, interact, preferences, preformance, toolbar, rating, rate</title><circle class="cls-1" cx="15" cy="14.99" r="6.99"/><path class="cls-2" d="M13.5,13.41c0,.5-.28.91-.63.91s-.64-.41-.64-.91.29-.91.64-.91S13.5,12.91,13.5,13.41Z"/><path class="cls-2" d="M17.77,13.41c0,.5-.28.91-.63.91s-.63-.41-.63-.91.28-.91.63-.91S17.77,12.91,17.77,13.41Z"/><path class="cls-2" d="M12.59,15.38a.34.34,0,0,0-.33.39,2.77,2.77,0,0,0,5.49,0,.35.35,0,0,0-.33-.39Z"/><path class="cls-3" d="M15,16.4a2.72,2.72,0,0,0-2,.88,2.75,2.75,0,0,0,4,0A2.72,2.72,0,0,0,15,16.4Z"/><circle class="cls-2" cx="15" cy="49.01" r="6.99"/><path class="cls-3" d="M13.5,47.43c0,.5-.28.91-.63.91s-.64-.41-.64-.91.29-.91.64-.91S13.5,46.93,13.5,47.43Z"/><path class="cls-3" d="M17.77,47.43c0,.5-.28.91-.63.91s-.63-.41-.63-.91.28-.91.63-.91S17.77,46.93,17.77,47.43Z"/><path class="cls-3" d="M17.42,52.17a.34.34,0,0,0,.33-.38,2.77,2.77,0,0,0-5.49,0,.33.33,0,0,0,.33.38Z"/><circle class="cls-4" cx="15" cy="32" r="6.99"/><path class="cls-3" d="M13.5,30.42c0,.5-.28.91-.63.91s-.64-.41-.64-.91.29-.91.64-.91S13.5,29.92,13.5,30.42Z"/><path class="cls-3" d="M17.77,30.42c0,.5-.28.91-.63.91s-.63-.41-.63-.91.28-.91.63-.91S17.77,29.92,17.77,30.42Z"/><path class="cls-3" d="M17.09,34.44H12.92a.66.66,0,0,1-.66-.66h0a.65.65,0,0,1,.66-.66h4.17a.66.66,0,0,1,.66.66h0A.67.67,0,0,1,17.09,34.44Z"/><rect class="cls-1" x="25.33" y="10.82" width="30.67" height="6.99" rx="0.84"/><rect class="cls-2" x="25.33" y="28.5" width="30.67" height="6.99" rx="0.84"/><rect class="cls-2" x="25.33" y="46.19" width="30.67" height="6.99" rx="0.84"/><path class="cls-1" d="M47.5,28.5H26.18a.85.85,0,0,0-.85.85v5.3a.85.85,0,0,0,.85.85H47.5Z"/><path class="cls-4" d="M33.46,46.19H26.18a.84.84,0,0,0-.85.84v5.3a.85.85,0,0,0,.85.85h7.28Z"/></svg>