<svg id="Layer_1" data-name="Layer 1" xmlns="http://www.w3.org/2000/svg" viewBox="0 0 64 64"><defs><style>.cls-1{fill:#e5cccc;}.cls-2{fill:#F4DFDF;}.cls-3{fill:#FC0707;}.cls-4{fill:#fff;}.cls-5{fill:#DD1515;}</style></defs><title>interaction, interact, preferences, preformance, fill, pencil, rating</title><rect class="cls-1" x="11.1" y="25.13" width="13.75" height="13.75" rx="1.25" transform="translate(49.98 14.02) rotate(90)"/><rect class="cls-2" x="11.1" y="42.25" width="13.75" height="13.75" rx="1.25" transform="translate(67.1 31.15) rotate(90)"/><rect class="cls-3" x="11.1" y="8" width="13.75" height="13.75" rx="1.25" transform="translate(32.85 -3.1) rotate(90)"/><rect class="cls-4" x="17.61" y="11.69" width="1.87" height="6.37" rx="0.53" transform="translate(15.95 -8.76) rotate(45)"/><rect class="cls-4" x="15.45" y="14.16" width="1.87" height="3.48" rx="0.53" transform="translate(39.22 15.55) rotate(135.01)"/><path class="cls-3" d="M43.73,16.35,21.84,38.24a5.33,5.33,0,0,0-1.31,2.14L18,48.17a1.25,1.25,0,0,0,1.57,1.57l7.79-2.5a5.34,5.34,0,0,0,2.15-1.3L51.43,24a5,5,0,0,0,1.3-4.84l-.13-.48a5,5,0,0,0-3.55-3.55l-.47-.12A5,5,0,0,0,43.73,16.35Z"/><path class="cls-5" d="M49.05,15.17l-.47-.12a5,5,0,0,0-4.85,1.3L38.37,21.7a5,5,0,0,1,4.85-1.3l.47.13a5,5,0,0,1,3.55,3.55l.13.47a5,5,0,0,1-1.3,4.85L51.43,24a5,5,0,0,0,1.3-4.84l-.13-.48A5,5,0,0,0,49.05,15.17Z"/><path class="cls-1" d="M24.58,43.19a12,12,0,0,0-4.09-2.7L18,48.17a1.25,1.25,0,0,0,1.57,1.57l7.69-2.46A12.22,12.22,0,0,0,24.58,43.19Z"/><path class="cls-4" d="M19.6,49.74l1.59-.51a11.9,11.9,0,0,0-2.65-2.65L18,48.17A1.25,1.25,0,0,0,19.6,49.74Z"/></svg>