<svg id="Layer_1" data-name="Layer 1" xmlns="http://www.w3.org/2000/svg" viewBox="0 0 64 64"><defs><style>.cls-1{fill:#ff5454;}.cls-2{fill:#dfe8f4;}.cls-3{fill:#fff;}</style></defs><title>interaction, interact, preferences, toolbar, selection, rating, happy, unhappy</title><path class="cls-1" d="M34.09,32.6l-.63-10.51A2.21,2.21,0,0,0,31.25,20h0A2.22,2.22,0,0,0,29,22.08L28,39.52a.5.5,0,0,1-.62.45l-2.79-.73a10.16,10.16,0,0,0-4.32-.16h0a1.46,1.46,0,0,0-1.19,1.44h0a1.46,1.46,0,0,0,1,1.37h0a10.78,10.78,0,0,1,4,2.52l1.69,1.67a12.41,12.41,0,0,1,3.66,8.8H42.9V53.37A5.27,5.27,0,0,1,43.47,51h0a13.68,13.68,0,0,0,1.47-6.18V39.25a4.29,4.29,0,0,0-3.14-4.14l-7.35-2.06A.5.5,0,0,1,34.09,32.6Z"/><path class="cls-2" d="M29.18,53.48H43a.88.88,0,0,1,.88.88V56a0,0,0,0,1,0,0H28.3a0,0,0,0,1,0,0V54.36A.88.88,0,0,1,29.18,53.48Z"/><circle class="cls-1" cx="17.75" cy="17.75" r="9.75"/><ellipse class="cls-2" cx="14.77" cy="15.55" rx="0.88" ry="1.27"/><ellipse class="cls-2" cx="20.73" cy="15.55" rx="0.88" ry="1.27"/><path class="cls-2" d="M14.38,18.3a.46.46,0,0,0-.46.54,3.87,3.87,0,0,0,7.66,0,.46.46,0,0,0-.46-.54Z"/><path class="cls-3" d="M17.75,19.71A3.82,3.82,0,0,0,15,20.94a3.82,3.82,0,0,0,5.6,0A3.82,3.82,0,0,0,17.75,19.71Z"/><circle class="cls-2" cx="46.25" cy="17.75" r="9.75"/><ellipse class="cls-3" cx="43.27" cy="15.55" rx="0.88" ry="1.27"/><ellipse class="cls-3" cx="49.23" cy="15.55" rx="0.88" ry="1.27"/><path class="cls-3" d="M49.62,22.16a.47.47,0,0,0,.46-.54,3.87,3.87,0,0,0-7.66,0,.47.47,0,0,0,.46.54Z"/></svg>