<svg id="Layer_1" data-name="Layer 1" xmlns="http://www.w3.org/2000/svg" viewBox="0 0 64 64"><defs><style>.cls-1{fill:#dfe8f4;}.cls-2{fill:#ff5454;}.cls-3{fill:#dd1515;}.cls-4{fill:#ccd8e5;}.cls-5{fill:#fff;}</style></defs><title>interaction, interact, preferences, preformance, laptop, computer, online, review, rating</title><path class="cls-1" d="M15.21,24H48.79a3,3,0,0,1,3,3V50.67a0,0,0,0,1,0,0H12.17a0,0,0,0,1,0,0V27A3,3,0,0,1,15.21,24Z"/><path class="cls-2" d="M9.13,50.67H54.87A1.13,1.13,0,0,1,56,51.8v.65A3.55,3.55,0,0,1,52.45,56H11.55A3.55,3.55,0,0,1,8,52.45V51.8a1.13,1.13,0,0,1,1.13-1.13Z"/><path class="cls-3" d="M26.23,51.74a2.3,2.3,0,0,0,1.95,1.07h7.64a2.3,2.3,0,0,0,2-1.07,2.3,2.3,0,0,1,1.95-1.07H24.28A2.3,2.3,0,0,1,26.23,51.74Z"/><rect class="cls-4" x="12.17" y="48.25" width="39.58" height="2.42"/><rect class="cls-2" x="17.13" y="28.18" width="6.29" height="6.29" rx="0.57" transform="translate(51.6 11.05) rotate(90)"/><rect class="cls-5" x="20.11" y="29.87" width="0.86" height="2.91" rx="0.24" transform="translate(28.17 -5.34) rotate(45)"/><rect class="cls-5" x="19.12" y="31" width="0.86" height="1.59" rx="0.24" transform="translate(55.86 40.45) rotate(134.99)"/><rect class="cls-5" x="26.05" y="29.43" width="20.82" height="1.11"/><rect class="cls-5" x="26.05" y="32.11" width="14.55" height="1.11"/><rect class="cls-5" x="17.13" y="38.64" width="6.29" height="6.29" rx="0.57" transform="translate(62.06 21.5) rotate(90)"/><rect class="cls-5" x="26.05" y="39.88" width="20.82" height="1.11"/><rect class="cls-5" x="26.05" y="42.56" width="14.55" height="1.11"/><path class="cls-1" d="M21.34,41.78a1.07,1.07,0,1,1-1.06-1.06A1.06,1.06,0,0,1,21.34,41.78Z"/></svg>