<svg id="Layer_1" data-name="Layer 1" xmlns="http://www.w3.org/2000/svg" viewBox="0 0 64 64"><defs><style>.cls-1{fill:#dfe8f4;}.cls-2{fill:#ccd8e5;}.cls-3{fill:#ff5454;}.cls-4{fill:#fff;}</style></defs><title>interaction, interact, preferences, preformance, clipboard, star, rate, rating</title><rect class="cls-1" x="13.17" y="12.18" width="37.67" height="43.82" rx="2.73"/><path class="cls-2" d="M48.11,12.18H24.3v1.16a1.12,1.12,0,0,0,1.11,1.12H50.79A2.73,2.73,0,0,0,48.11,12.18Z"/><path class="cls-3" d="M38.47,11.08H36.36a1.49,1.49,0,0,1-1.41-1,3.13,3.13,0,0,0-5.9,0,1.49,1.49,0,0,1-1.41,1H25.53a1.24,1.24,0,0,0-1.23,1.24v1.62a.52.52,0,0,0,.52.52H39.18a.52.52,0,0,0,.52-.52V12.32A1.24,1.24,0,0,0,38.47,11.08ZM32,10a1.12,1.12,0,0,1,1.12,1.08H30.88A1.12,1.12,0,0,1,32,10Z"/><path class="cls-3" d="M30.27,24.9l.37.74a.29.29,0,0,0,.24.17l.81.12a.32.32,0,0,1,.17.55l-.58.57a.31.31,0,0,0-.09.29l.14.8a.33.33,0,0,1-.47.34l-.73-.38a.32.32,0,0,0-.3,0l-.72.38a.33.33,0,0,1-.47-.34l.14-.8a.33.33,0,0,0-.09-.29l-.59-.57a.32.32,0,0,1,.18-.55l.81-.12a.29.29,0,0,0,.24-.17l.36-.74A.32.32,0,0,1,30.27,24.9Z"/><path class="cls-3" d="M36.71,24.9l.37.74a.29.29,0,0,0,.24.17l.81.12a.32.32,0,0,1,.18.55l-.59.57a.33.33,0,0,0-.09.29l.14.8a.33.33,0,0,1-.47.34l-.72-.38a.32.32,0,0,0-.3,0l-.73.38a.33.33,0,0,1-.47-.34l.14-.8a.31.31,0,0,0-.09-.29l-.58-.57a.32.32,0,0,1,.17-.55l.81-.12a.29.29,0,0,0,.24-.17l.37-.74A.32.32,0,0,1,36.71,24.9Z"/><path class="cls-3" d="M43.16,24.9l.36.74a.29.29,0,0,0,.24.17l.81.12a.32.32,0,0,1,.18.55l-.59.57a.33.33,0,0,0-.09.29l.14.8a.32.32,0,0,1-.47.34L43,28.1a.32.32,0,0,0-.3,0l-.73.38a.32.32,0,0,1-.46-.34l.13-.8a.31.31,0,0,0-.09-.29L41,26.48a.32.32,0,0,1,.18-.55l.8-.12a.32.32,0,0,0,.25-.17l.36-.74A.32.32,0,0,1,43.16,24.9Z"/><path class="cls-3" d="M30.27,34.27l.37.73a.28.28,0,0,0,.24.18l.81.12a.32.32,0,0,1,.17.55l-.58.57a.3.3,0,0,0-.09.28l.14.81a.33.33,0,0,1-.47.34l-.73-.38a.32.32,0,0,0-.3,0l-.72.38a.33.33,0,0,1-.47-.34l.14-.81a.32.32,0,0,0-.09-.28l-.59-.57a.32.32,0,0,1,.18-.55l.81-.12a.28.28,0,0,0,.24-.18l.36-.73A.32.32,0,0,1,30.27,34.27Z"/><path class="cls-3" d="M36.71,34.27l.37.73a.28.28,0,0,0,.24.18l.81.12a.32.32,0,0,1,.18.55l-.59.57a.32.32,0,0,0-.09.28l.14.81a.33.33,0,0,1-.47.34l-.72-.38a.32.32,0,0,0-.3,0l-.73.38a.33.33,0,0,1-.47-.34l.14-.81a.3.3,0,0,0-.09-.28l-.58-.57a.32.32,0,0,1,.17-.55l.81-.12a.28.28,0,0,0,.24-.18l.37-.73A.32.32,0,0,1,36.71,34.27Z"/><path class="cls-2" d="M43.16,34.27l.36.73a.28.28,0,0,0,.24.18l.81.12a.32.32,0,0,1,.18.55l-.59.57a.32.32,0,0,0-.09.28l.14.81a.33.33,0,0,1-.47.34L43,37.47a.32.32,0,0,0-.3,0l-.73.38a.32.32,0,0,1-.46-.34l.13-.81a.3.3,0,0,0-.09-.28L41,35.85a.32.32,0,0,1,.18-.55l.8-.12a.31.31,0,0,0,.25-.18l.36-.73A.32.32,0,0,1,43.16,34.27Z"/><path class="cls-3" d="M30.27,43.64l.37.73a.3.3,0,0,0,.24.18l.81.12a.32.32,0,0,1,.17.55l-.58.57a.3.3,0,0,0-.09.28l.14.81a.33.33,0,0,1-.47.34l-.73-.38a.32.32,0,0,0-.3,0l-.72.38a.33.33,0,0,1-.47-.34l.14-.81a.32.32,0,0,0-.09-.28l-.59-.57a.32.32,0,0,1,.18-.55l.81-.12a.3.3,0,0,0,.24-.18l.36-.73A.32.32,0,0,1,30.27,43.64Z"/><path class="cls-2" d="M36.71,43.64l.37.73a.3.3,0,0,0,.24.18l.81.12a.32.32,0,0,1,.18.55l-.59.57a.32.32,0,0,0-.09.28l.14.81a.33.33,0,0,1-.47.34l-.72-.38a.32.32,0,0,0-.3,0l-.73.38a.33.33,0,0,1-.47-.34l.14-.81a.3.3,0,0,0-.09-.28l-.58-.57a.32.32,0,0,1,.17-.55l.81-.12a.3.3,0,0,0,.24-.18l.37-.73A.32.32,0,0,1,36.71,43.64Z"/><path class="cls-2" d="M43.16,43.64l.36.73a.3.3,0,0,0,.24.18l.81.12a.32.32,0,0,1,.18.55l-.59.57a.32.32,0,0,0-.09.28l.14.81a.33.33,0,0,1-.47.34L43,46.84a.32.32,0,0,0-.3,0l-.73.38a.32.32,0,0,1-.46-.34l.13-.81a.3.3,0,0,0-.09-.28L41,45.22a.32.32,0,0,1,.18-.55l.8-.12a.34.34,0,0,0,.25-.18l.36-.73A.32.32,0,0,1,43.16,43.64Z"/><rect class="cls-4" x="22.44" y="21.84" width="2.12" height="7.23" rx="0.61" transform="translate(24.89 -9.16) rotate(45)"/><rect class="cls-4" x="19.99" y="24.65" width="2.12" height="3.95" rx="0.61" transform="translate(54.76 30.57) rotate(135)"/></svg>