<svg id="Layer_1" data-name="Layer 1" xmlns="http://www.w3.org/2000/svg" viewBox="0 0 64 64"><defs><style>.cls-1{fill:#dfe8f4;}.cls-2{fill:#ff5454;}.cls-3{fill:#dd1515;}.cls-4{fill:#ccd8e5;}.cls-5{fill:#fff;}</style></defs><title>interaction, interact, preferences, preformance, toolbar, pedometer, rating, rate</title><path class="cls-1" d="M56,42.4H43.07a11.07,11.07,0,1,0-22.14,0H8a24,24,0,0,1,48,0Z"/><path class="cls-2" d="M43.07,42.4H56a24,24,0,0,0-24-24V31.33A11.09,11.09,0,0,1,43.07,42.4Z"/><path class="cls-3" d="M34.59,43.72h-4V39.77l5.88-4.31a1.7,1.7,0,0,1,2.38,2.38Z"/><path class="cls-3" d="M32,18.4V31.33a11,11,0,0,1,6.16,1.88L47.38,24A23.93,23.93,0,0,0,32,18.4Z"/><path class="cls-4" d="M32,18.4a23.84,23.84,0,0,0-14.34,4.79L27,32.54a10.89,10.89,0,0,1,10,0l9.35-9.35A23.84,23.84,0,0,0,32,18.4Z"/><path class="cls-2" d="M35.24,42.36A3.24,3.24,0,1,1,32,39.12,3.24,3.24,0,0,1,35.24,42.36Z"/><circle class="cls-2" cx="48.06" cy="34.57" r="4.89"/><path class="cls-5" d="M47,33.47c0,.35-.19.63-.44.63s-.44-.28-.44-.63.2-.64.44-.64S47,33.12,47,33.47Z"/><path class="cls-5" d="M50,33.47c0,.35-.19.63-.44.63s-.44-.28-.44-.63.2-.64.44-.64S50,33.12,50,33.47Z"/><path class="cls-5" d="M46.36,34.85a.23.23,0,0,0-.22.27,1.94,1.94,0,0,0,3.84,0,.24.24,0,0,0-.23-.27Z"/><circle class="cls-4" cx="32" cy="24.89" r="4.89"/><path class="cls-5" d="M31,23.79c0,.35-.2.63-.45.63s-.44-.28-.44-.63.2-.64.44-.64S31,23.44,31,23.79Z"/><path class="cls-5" d="M33.94,23.79c0,.35-.2.63-.44.63s-.45-.28-.45-.63.2-.64.45-.64S33.94,23.44,33.94,23.79Z"/><path class="cls-5" d="M33.46,26.6H30.54a.46.46,0,0,1-.46-.46h0a.45.45,0,0,1,.46-.46h2.92a.45.45,0,0,1,.46.46h0A.46.46,0,0,1,33.46,26.6Z"/><circle class="cls-1" cx="17.06" cy="34.1" r="4.89"/><path class="cls-5" d="M16,33c0,.35-.2.63-.44.63s-.44-.28-.44-.63.19-.64.44-.64S16,32.65,16,33Z"/><path class="cls-5" d="M19,33c0,.35-.19.63-.44.63s-.44-.28-.44-.63.2-.64.44-.64S19,32.65,19,33Z"/><path class="cls-5" d="M18.76,36.32a.23.23,0,0,0,.22-.27,1.94,1.94,0,0,0-3.84,0,.24.24,0,0,0,.23.27Z"/></svg>