<svg id="Layer_1" data-name="Layer 1" xmlns="http://www.w3.org/2000/svg" viewBox="0 0 64 64"><defs><style>.cls-1{fill:#ccd8e5;}.cls-2{fill:#dfe8f4;}.cls-3{fill:#ff5454;}.cls-4{fill:#fff;}</style></defs><title>interaction, interact, preferences, preformance, toolbar, rate, rating, star</title><rect class="cls-1" x="8" y="25.13" width="13.75" height="13.75" rx="1.25" transform="translate(46.88 17.13) rotate(90)"/><rect class="cls-2" x="8" y="42.25" width="13.75" height="13.75" rx="1.25" transform="translate(64 34.25) rotate(90)"/><rect class="cls-3" x="8" y="8" width="13.75" height="13.75" rx="1.25" transform="translate(29.75 0) rotate(90)"/><rect class="cls-4" x="14.51" y="11.69" width="1.87" height="6.37" rx="0.53" transform="translate(15.04 -6.56) rotate(45)"/><rect class="cls-4" x="12.35" y="14.16" width="1.87" height="3.48" rx="0.53" transform="translate(33.92 17.75) rotate(135.01)"/><path class="cls-3" d="M31.93,12l.6,1.21a.57.57,0,0,0,.4.29l1.34.19a.53.53,0,0,1,.29.91l-1,.94a.54.54,0,0,0-.16.48l.23,1.32a.53.53,0,0,1-.77.57l-1.2-.63a.53.53,0,0,0-.49,0L30,18a.54.54,0,0,1-.77-.57l.23-1.32a.54.54,0,0,0-.16-.48l-1-.94a.53.53,0,0,1,.3-.91L30,13.54a.57.57,0,0,0,.4-.29L31,12A.53.53,0,0,1,31.93,12Z"/><path class="cls-3" d="M42.57,12l.6,1.21a.57.57,0,0,0,.4.29l1.33.19a.53.53,0,0,1,.3.91l-1,.94a.56.56,0,0,0-.15.48l.23,1.32a.54.54,0,0,1-.77.57l-1.2-.63a.53.53,0,0,0-.49,0l-1.2.63a.53.53,0,0,1-.77-.57l.23-1.32a.54.54,0,0,0-.16-.48l-1-.94a.53.53,0,0,1,.29-.91l1.34-.19a.57.57,0,0,0,.4-.29l.6-1.21A.53.53,0,0,1,42.57,12Z"/><path class="cls-3" d="M53.21,12l.6,1.21a.57.57,0,0,0,.4.29l1.33.19a.54.54,0,0,1,.3.91l-1,.94a.56.56,0,0,0-.15.48L55,17.38a.54.54,0,0,1-.78.57L53,17.32a.55.55,0,0,0-.5,0L51.29,18a.53.53,0,0,1-.77-.57l.23-1.32a.54.54,0,0,0-.16-.48l-1-.94a.53.53,0,0,1,.29-.91l1.34-.19a.57.57,0,0,0,.4-.29L52.25,12A.53.53,0,0,1,53.21,12Z"/><path class="cls-3" d="M31.93,29.16l.6,1.21a.52.52,0,0,0,.4.29l1.34.2a.53.53,0,0,1,.29.91l-1,.94a.52.52,0,0,0-.16.47l.23,1.33a.53.53,0,0,1-.77.56l-1.2-.63a.53.53,0,0,0-.49,0l-1.2.63a.53.53,0,0,1-.77-.56l.23-1.33a.52.52,0,0,0-.16-.47l-1-.94a.53.53,0,0,1,.3-.91l1.33-.2a.52.52,0,0,0,.4-.29l.6-1.21A.53.53,0,0,1,31.93,29.16Z"/><path class="cls-3" d="M42.57,29.16l.6,1.21a.52.52,0,0,0,.4.29l1.33.2a.53.53,0,0,1,.3.91l-1,.94a.54.54,0,0,0-.15.47l.23,1.33a.53.53,0,0,1-.77.56l-1.2-.63a.53.53,0,0,0-.49,0l-1.2.63a.53.53,0,0,1-.77-.56l.23-1.33a.52.52,0,0,0-.16-.47l-1-.94a.53.53,0,0,1,.29-.91l1.34-.2a.52.52,0,0,0,.4-.29l.6-1.21A.53.53,0,0,1,42.57,29.16Z"/><path class="cls-2" d="M53.21,29.16l.6,1.21a.52.52,0,0,0,.4.29l1.33.2a.54.54,0,0,1,.3.91l-1,.94a.54.54,0,0,0-.15.47L55,34.51a.54.54,0,0,1-.78.56L53,34.44a.55.55,0,0,0-.5,0l-1.19.63a.53.53,0,0,1-.77-.56l.23-1.33a.52.52,0,0,0-.16-.47l-1-.94a.53.53,0,0,1,.29-.91l1.34-.2a.52.52,0,0,0,.4-.29l.59-1.21A.54.54,0,0,1,53.21,29.16Z"/><path class="cls-1" d="M31.93,46.29l.6,1.21a.57.57,0,0,0,.4.29l1.34.19a.53.53,0,0,1,.29.91l-1,.94a.54.54,0,0,0-.16.48l.23,1.32a.53.53,0,0,1-.77.57l-1.2-.63a.53.53,0,0,0-.49,0L30,52.2a.54.54,0,0,1-.77-.57l.23-1.32a.54.54,0,0,0-.16-.48l-1-.94a.53.53,0,0,1,.3-.91L30,47.79a.57.57,0,0,0,.4-.29l.6-1.21A.53.53,0,0,1,31.93,46.29Z"/><path class="cls-2" d="M42.57,46.29l.6,1.21a.57.57,0,0,0,.4.29L44.9,48a.53.53,0,0,1,.3.91l-1,.94a.56.56,0,0,0-.15.48l.23,1.32a.54.54,0,0,1-.77.57l-1.2-.63a.53.53,0,0,0-.49,0l-1.2.63a.53.53,0,0,1-.77-.57l.23-1.32a.54.54,0,0,0-.16-.48l-1-.94a.53.53,0,0,1,.29-.91l1.34-.19a.57.57,0,0,0,.4-.29l.6-1.21A.53.53,0,0,1,42.57,46.29Z"/><path class="cls-2" d="M53.21,46.29l.6,1.21a.57.57,0,0,0,.4.29l1.33.19a.54.54,0,0,1,.3.91l-1,.94a.56.56,0,0,0-.15.48L55,51.63a.54.54,0,0,1-.78.57L53,51.57a.55.55,0,0,0-.5,0l-1.19.63a.53.53,0,0,1-.77-.57l.23-1.32a.54.54,0,0,0-.16-.48l-1-.94a.53.53,0,0,1,.29-.91l1.34-.19a.57.57,0,0,0,.4-.29l.59-1.21A.53.53,0,0,1,53.21,46.29Z"/></svg>