<svg id="Layer_1" data-name="Layer 1" xmlns="http://www.w3.org/2000/svg" viewBox="0 0 64 64"><defs><style>.cls-1{fill:#dfe8f4;}.cls-2{fill:#ff5454;}.cls-3{fill:#dd1515;}.cls-4{fill:#fff;}</style></defs><title>interaction, interact, preferences, preformance, toolbar, smartphone, rating</title><rect class="cls-1" x="16.67" y="8" width="30.67" height="48" rx="5.39"/><path class="cls-2" d="M41.94,8H22.06a5.39,5.39,0,0,0-5.39,5.39V50.61A5.39,5.39,0,0,0,22.06,56H41.94a5.39,5.39,0,0,0,5.39-5.39V13.39A5.39,5.39,0,0,0,41.94,8Zm3.39,42.61A3.39,3.39,0,0,1,41.94,54H22.06a3.39,3.39,0,0,1-3.39-3.39V13.39A3.39,3.39,0,0,1,22.06,10h2.51a1.82,1.82,0,0,1,1.42.67h0a1.84,1.84,0,0,0,1.42.66h9.18A1.84,1.84,0,0,0,38,10.67h0A1.82,1.82,0,0,1,39.43,10h2.51a3.39,3.39,0,0,1,3.39,3.39Z"/><circle class="cls-3" cx="17.75" cy="32" r="9.75"/><circle class="cls-2" cx="46.25" cy="32" r="9.75"/><rect class="cls-4" x="45.77" y="27.87" width="2.43" height="8.26" rx="0.69" transform="translate(36.39 -23.85) rotate(45)"/><rect class="cls-4" x="42.98" y="31.07" width="2.43" height="4.51" rx="0.69" transform="translate(99 25.65) rotate(135)"/><rect class="cls-4" x="16.54" y="27.87" width="2.43" height="8.26" rx="0.69" transform="translate(27.83 -3.18) rotate(45)"/><rect class="cls-4" x="16.54" y="27.87" width="2.43" height="8.26" rx="0.69" transform="translate(52.93 42.08) rotate(135)"/></svg>