<svg id="Layer_1" data-name="Layer 1" xmlns="http://www.w3.org/2000/svg" viewBox="0 0 64 64"><defs><style>.cls-1{fill:#F4DFDF;}.cls-2{fill:#FC0707;}.cls-3{fill:#fff;}</style></defs><title>interaction, interact, preferences, preformance, smartphone, online, review, rating</title><rect class="cls-1" x="16.67" y="8" width="30.67" height="48" rx="5.39"/><path class="cls-2" d="M41.94,8H22.06a5.39,5.39,0,0,0-5.39,5.39V50.61A5.39,5.39,0,0,0,22.06,56H41.94a5.39,5.39,0,0,0,5.39-5.39V13.39A5.39,5.39,0,0,0,41.94,8Zm3.39,42.61A3.39,3.39,0,0,1,41.94,54H22.06a3.39,3.39,0,0,1-3.39-3.39V13.39A3.39,3.39,0,0,1,22.06,10h2.51a1.82,1.82,0,0,1,1.42.67h0a1.84,1.84,0,0,0,1.42.66h9.18A1.84,1.84,0,0,0,38,10.67h0A1.82,1.82,0,0,1,39.43,10h2.51a3.39,3.39,0,0,1,3.39,3.39Z"/><rect class="cls-2" x="22.1" y="16.95" width="5.38" height="5.37" rx="0.49" transform="translate(44.43 -5.15) rotate(90)"/><rect class="cls-3" x="24.65" y="18.39" width="0.73" height="2.49" rx="0.21" transform="translate(21.21 -11.94) rotate(45)"/><rect class="cls-3" x="23.8" y="19.36" width="0.73" height="1.36" rx="0.21" transform="translate(55.43 17.11) rotate(135)"/><rect class="cls-3" x="29.73" y="18.01" width="12.17" height="0.95"/><rect class="cls-3" x="29.73" y="20.3" width="6.81" height="0.95"/><rect class="cls-3" x="22.1" y="25.89" width="5.38" height="5.37" rx="0.49" transform="translate(53.37 3.78) rotate(90)"/><rect class="cls-3" x="29.73" y="26.95" width="12.17" height="0.95"/><rect class="cls-3" x="29.73" y="29.24" width="6.81" height="0.95"/><rect class="cls-3" x="22.1" y="34.82" width="5.38" height="5.37" rx="0.49" transform="translate(62.3 12.72) rotate(90)"/><rect class="cls-3" x="29.73" y="35.89" width="12.17" height="0.95"/><rect class="cls-3" x="29.73" y="38.18" width="6.81" height="0.95"/><rect class="cls-3" x="22.1" y="43.76" width="5.38" height="5.37" rx="0.49" transform="translate(71.24 21.66) rotate(90)"/><rect class="cls-3" x="29.73" y="44.82" width="12.17" height="0.95"/><rect class="cls-3" x="29.73" y="47.12" width="6.81" height="0.95"/><circle class="cls-1" cx="24.79" cy="28.57" r="0.91"/><circle class="cls-1" cx="24.79" cy="37.51" r="0.91"/><path class="cls-1" d="M25.7,46.45a.91.91,0,1,1-.91-.91A.91.91,0,0,1,25.7,46.45Z"/></svg>