<svg id="Layer_1" data-name="Layer 1" xmlns="http://www.w3.org/2000/svg" viewBox="0 0 64 64"><defs><style>.cls-1{fill:#F4DFDF;}.cls-2{fill:#FC0707;}.cls-3{fill:#DD1515;}.cls-4{fill:#e5cccc;}.cls-5{fill:#fff;}</style></defs><title>interaction, interact, preferences, preformance, website, webpage, browser, review</title><rect class="cls-1" x="8" y="11.44" width="48" height="41.13" rx="4.09"/><path class="cls-2" d="M51.91,11.44H12.09A4.09,4.09,0,0,0,8,15.53v1.91H56V15.53A4.09,4.09,0,0,0,51.91,11.44Z"/><rect class="cls-3" x="12.66" y="13.82" width="1.23" height="1.23"/><rect class="cls-3" x="15.19" y="13.82" width="1.23" height="1.23"/><rect class="cls-3" x="17.71" y="13.82" width="1.23" height="1.23"/><rect class="cls-3" x="8" y="17.44" width="48" height="1.65"/><path class="cls-4" d="M56,21.88H10.79A2.79,2.79,0,0,1,8,19.08H56Z"/><rect class="cls-2" x="14.63" y="23.34" width="5.38" height="5.37" rx="0.49" transform="translate(43.34 8.7) rotate(90)"/><rect class="cls-5" x="17.18" y="24.78" width="0.73" height="2.49" rx="0.21" transform="translate(23.54 -4.78) rotate(45)"/><rect class="cls-5" x="16.33" y="25.74" width="0.73" height="1.36" rx="0.21" transform="translate(47.19 33.3) rotate(135)"/><rect class="cls-5" x="22.26" y="24.4" width="27.11" height="0.95"/><rect class="cls-5" x="22.26" y="26.69" width="21.75" height="0.95"/><rect class="cls-5" x="14.63" y="32.27" width="5.38" height="5.37" rx="0.49" transform="translate(52.28 17.64) rotate(90)"/><rect class="cls-5" x="22.26" y="33.34" width="27.11" height="0.95"/><rect class="cls-5" x="22.26" y="35.63" width="21.75" height="0.95"/><rect class="cls-5" x="14.63" y="41.21" width="5.38" height="5.37" rx="0.49" transform="translate(61.22 26.58) rotate(90)"/><rect class="cls-5" x="22.26" y="42.27" width="27.11" height="0.95"/><rect class="cls-5" x="22.26" y="44.56" width="21.75" height="0.95"/><circle class="cls-1" cx="17.32" cy="34.96" r="0.91"/><path class="cls-1" d="M18.23,43.9a.91.91,0,1,1-.91-.91A.91.91,0,0,1,18.23,43.9Z"/></svg>