<svg id="Layer_1" data-name="Layer 1" xmlns="http://www.w3.org/2000/svg" viewBox="0 0 64 64"><defs><style>.cls-1{fill:#FC0707;}.cls-2{fill:#DD1515;}.cls-3{fill:#F4DFDF;}.cls-4{fill:#e5cccc;}.cls-5{fill:#fff;}</style></defs><title>interaction, interact, preferences, preformance, medal, happy, review, rating</title><path class="cls-1" d="M8,9.07v6.56a4.39,4.39,0,0,0,2.19,3.8L31.46,31.69a1.09,1.09,0,0,0,1.08,0L53.77,19.43A4.39,4.39,0,0,0,56,15.63V9.07A1.07,1.07,0,0,0,54.89,8H9.11A1.07,1.07,0,0,0,8,9.07Z"/><path class="cls-2" d="M39.92,8H24.08V27.43l7.38,4.26a1.09,1.09,0,0,0,1.08,0l7.38-4.26Z"/><circle class="cls-3" cx="32" cy="44.53" r="11.47" transform="translate(-14.61 15.64) rotate(-22.5)"/><circle class="cls-4" cx="32" cy="44.53" r="7.34" transform="translate(-17.09 68.99) rotate(-80.78)"/><circle class="cls-3" cx="32" cy="44.53" r="11.46" transform="translate(-14.61 15.64) rotate(-22.5)"/><path class="cls-5" d="M29.53,41.94c0,.82-.46,1.49-1,1.49s-1-.67-1-1.49.46-1.49,1-1.49S29.53,41.12,29.53,41.94Z"/><path class="cls-5" d="M36.54,41.94c0,.82-.46,1.49-1,1.49s-1-.67-1-1.49.46-1.49,1-1.49S36.54,41.12,36.54,41.94Z"/><path class="cls-5" d="M28,45.17a.56.56,0,0,0-.54.64,4.54,4.54,0,0,0,9,0,.56.56,0,0,0-.54-.64Z"/></svg>