<svg id="Layer_1" data-name="Layer 1" xmlns="http://www.w3.org/2000/svg" viewBox="0 0 64 64"><defs><style>.cls-1{fill:#dd1515;}.cls-2{fill:#ff5454;}.cls-3{fill:#dfe8f4;}.cls-4{fill:#ccd8e5;}</style></defs><title>interaction, interact, preferences, preformance, like, review, message</title><path class="cls-1" d="M32.87,38.24,20,51.11a1.21,1.21,0,0,1-2.07-.85v-12Z"/><rect class="cls-2" x="8" y="12.53" width="48" height="33.59" rx="3.19" transform="translate(64 58.65) rotate(180)"/><path class="cls-3" d="M36.28,26.16a.38.38,0,0,1-.38-.44l.46-2.4a3.67,3.67,0,0,0,.07-.75h0a3.53,3.53,0,0,0-2.19-3.27h0a.71.71,0,0,0-1,.66h0a8.79,8.79,0,0,1-1.07,4.19h0a6.24,6.24,0,0,1-5.47,3.24H23.91V38.32h2.72a10.79,10.79,0,0,1,3.42.55h0a11,11,0,0,0,3.42.54h6.2a5.49,5.49,0,0,0,5.45-4.81l.74-5.86a2.29,2.29,0,0,0-2.27-2.58Z"/><path class="cls-4" d="M24.9,38.32h1.73c.35,0,.69,0,1,0V27.31a6,6,0,0,1-1,.07H24.9Z"/><path class="cls-1" d="M18.12,26.82h7.74a.64.64,0,0,1,.64.64V38.3a.34.34,0,0,1-.34.34h-8a0,0,0,0,1,0,0V26.82A0,0,0,0,1,18.12,26.82Z"/></svg>