<svg id="Layer_1" data-name="Layer 1" xmlns="http://www.w3.org/2000/svg" viewBox="0 0 64 64"><defs><style>.cls-1{fill:#e5cccc;}.cls-2{fill:#F4DFDF;}.cls-3{fill:#DD1515;}.cls-4{fill:#FC0707;}.cls-5{fill:#fff;}</style></defs><title>interaction, interact, preferences, preformance, communication, customer, service</title><path class="cls-1" d="M40.59,42l8,8a.75.75,0,0,0,1.29-.53V42Z"/><rect class="cls-2" x="26.17" y="26" width="29.91" height="20.94" rx="1.99"/><path class="cls-3" d="M23.41,29.75l-8,8a.75.75,0,0,1-1.29-.53V29.75Z"/><rect class="cls-4" x="7.92" y="13.73" width="29.91" height="20.94" rx="1.99" transform="translate(45.75 48.39) rotate(180)"/><rect class="cls-4" x="40.45" y="30.61" width="3.44" height="11.72" rx="0.98" transform="translate(38.14 -19.13) rotate(45)"/><rect class="cls-4" x="36.48" y="35.16" width="3.44" height="6.4" rx="0.98" transform="translate(92.34 38.46) rotate(135)"/><rect class="cls-5" x="21.15" y="18.33" width="3.44" height="11.72" rx="0.98" transform="translate(23.81 -9.09) rotate(45)"/><rect class="cls-5" x="21.15" y="18.33" width="3.44" height="11.72" rx="0.98" transform="translate(56.16 25.13) rotate(135)"/></svg>