<svg width="17" height="18" viewBox="0 0 17 18" fill="none" xmlns="http://www.w3.org/2000/svg">
<g clip-path="url(#clip0_169_2610)">
<path d="M13.7814 0.449997H3.10765C1.79029 0.449997 0.726318 1.58403 0.726318 2.988V10.926C0.726318 12.33 1.79035 13.464 3.10765 13.464H5.48899C5.47211 14.112 5.35385 14.958 5.03301 15.858C4.84725 16.344 4.98232 16.884 5.35392 17.244C5.5735 17.442 5.84371 17.5499 6.11392 17.5499C6.31656 17.5499 6.50239 17.4959 6.68815 17.3879C8.34326 16.398 9.72815 14.7599 10.6402 13.4821H13.7815C15.0988 13.4821 16.1628 12.348 16.1628 10.9441V2.98807C16.1628 1.5841 15.0988 0.450072 13.7815 0.450072L13.7814 0.449997ZM15.0819 10.926C15.0819 11.682 14.4908 12.312 13.7815 12.312L10.3699 12.312C10.201 12.312 10.0322 12.402 9.93083 12.5461C9.23835 13.554 7.81972 15.3721 6.16461 16.3801C6.14773 16.3801 6.11392 16.416 6.06329 16.3621C6.02953 16.3261 6.02953 16.2901 6.04641 16.2721C6.5362 14.9221 6.60377 13.6621 6.56995 12.8701C6.55308 12.5641 6.31662 12.3121 6.02954 12.3121H3.10776C2.39845 12.3121 1.80734 11.6821 1.80734 10.9261L1.80729 2.98811C1.80729 2.23214 2.3984 1.60214 3.1077 1.60214H13.7646C14.4739 1.60214 15.065 2.23214 15.065 2.98811L15.0651 10.9261L15.0819 10.926Z" fill="#333333"/>
<path d="M8.44443 2.57399C6.11377 2.57399 4.20532 4.60799 4.20532 7.09199C4.20532 9.57599 6.11377 11.61 8.44443 11.61C10.7751 11.61 12.6835 9.57599 12.6835 7.09199C12.6835 4.60799 10.7751 2.57399 8.44443 2.57399ZM11.4675 7.36199L11.4169 8.02796V8.06394L11.6195 8.62192C11.0622 9.91795 9.84616 10.7999 8.44438 10.7999C7.76883 10.7999 7.14397 10.6019 6.62038 10.2419L6.85684 9.05395C6.87372 8.99993 6.85684 8.96395 6.83996 8.90993L6.48531 8.06396C6.45156 7.99194 6.40087 7.95597 6.3333 7.93798L5.53955 7.81201C5.37066 7.79402 5.30309 7.57798 5.40441 7.45201L5.47198 7.37999C5.52267 7.32597 5.59018 7.28999 5.65774 7.30798L6.04622 7.36201H6.11378L6.62045 7.23603C6.63733 7.23603 6.65421 7.21804 6.67114 7.21804L6.99204 7.05603C7.05961 7.02005 7.09337 6.96603 7.11024 6.89401L7.24538 5.88603C7.26225 5.77804 7.21162 5.68804 7.11024 5.652L6.92442 5.57993C6.83998 5.54395 6.77241 5.4359 6.78929 5.32791C6.80617 5.23791 6.87373 5.14791 6.97505 5.14791L7.21151 5.12992C7.32971 5.11193 7.41415 5.02193 7.39728 4.89589L7.3804 4.58992L7.34664 3.97791C7.34664 3.88791 7.29595 3.81589 7.21151 3.77992L7.00887 3.70791C7.44797 3.49194 7.92088 3.38388 8.42754 3.38388C8.68087 3.38388 8.9342 3.41986 9.18754 3.47388L9.22129 4.0859V4.10388L9.15373 4.76985C9.15373 4.78784 9.15373 4.82388 9.1706 4.84187L9.23817 4.94985C9.27192 5.00388 9.33949 5.00388 9.3733 4.96784L9.55907 4.78784C9.60976 4.73382 9.6942 4.76985 9.71108 4.84187L9.72796 4.87784C9.74484 4.91382 9.77865 4.94985 9.8124 4.94985H10.032H10.0657L10.2515 4.87784C10.3191 4.84187 10.4035 4.91382 10.3697 5.00382L10.2684 5.34583C10.2515 5.38181 10.2177 5.41784 10.1839 5.41784H9.93061H9.89685L9.59282 5.32784H9.52526L9.39012 5.39986C9.37324 5.41784 9.33943 5.41784 9.32256 5.39986L9.13679 5.30986C9.10304 5.29187 9.06922 5.29187 9.05235 5.30986L8.81589 5.48986C8.78213 5.50784 8.7652 5.54388 8.78213 5.57986L8.81589 5.86784C8.81589 5.90382 8.79901 5.95784 8.7652 5.97583L8.57944 6.06583C8.52875 6.10181 8.51187 6.17382 8.56256 6.22784L8.69769 6.35382C8.71457 6.37181 8.74838 6.3898 8.78214 6.37181L9.01859 6.31778H9.06928L9.17061 6.37181C9.20436 6.3898 9.28881 6.46181 9.33949 6.51583C9.37325 6.55181 9.44082 6.55181 9.47463 6.49784C9.49151 6.47986 9.50838 6.46187 9.54219 6.46187L9.72796 6.44388C9.74484 6.44388 9.76171 6.42589 9.77865 6.42589L9.79553 6.4079C9.84621 6.35388 9.91373 6.38992 9.94754 6.44388L10.0489 6.71388C10.0489 6.73187 10.0489 6.73187 10.0657 6.73187L10.1671 6.87589C10.2008 6.91187 10.1839 6.96589 10.1502 7.00187L9.89685 7.25388C9.8631 7.28986 9.81241 7.28986 9.77865 7.25388L9.52532 7.01985C9.52532 7.01985 9.50844 7.00187 9.49156 7.00187L9.15378 6.83985H9.12003L8.66406 6.78583H8.6303L8.10665 6.91192C8.07289 6.91192 8.05596 6.9479 8.03908 6.98393L7.87019 7.5599V7.63191L8.12353 8.22594C8.1404 8.26192 8.15728 8.27997 8.19109 8.27997L8.69776 8.33399C8.71464 8.33399 8.73151 8.33399 8.73151 8.35198L8.91728 8.47796C8.95103 8.49594 8.96797 8.51393 8.96797 8.54997L9.01866 9.08997C9.01866 9.10796 9.01866 9.10796 9.03553 9.12594L9.27199 9.61191C9.27199 9.6299 9.28887 9.6299 9.30575 9.64789L9.59283 9.88192C9.62659 9.9179 9.69415 9.89991 9.72796 9.86393L9.82929 9.70192C9.82929 9.70192 9.82929 9.68393 9.84616 9.68393L10.0488 9.14393V9.10795L10.1164 8.33392C10.1164 8.31594 10.1164 8.31593 10.1332 8.29795L10.2684 7.97392C10.2853 7.93794 10.3191 7.91989 10.3697 7.91989L10.8595 7.99191C10.8932 7.99191 10.9102 7.9919 10.9439 7.95593L11.0453 7.84794C11.079 7.81196 11.079 7.75794 11.0453 7.72196L10.8089 7.39789C10.7751 7.34387 10.792 7.25387 10.8595 7.23587L10.944 7.21789C10.9609 7.21789 11.096 7.1999 11.1466 7.1999H11.1635L11.4 7.23587C11.4507 7.25392 11.4675 7.30789 11.4675 7.36191L11.4675 7.36199Z" fill="#333333"/>
</g>
<defs>
<clipPath id="clip0_169_2610">
<rect width="16.8889" height="18" fill="white"/>
</clipPath>
</defs>
</svg>
