<svg width="11" height="12" viewBox="0 0 11 12" fill="none" xmlns="http://www.w3.org/2000/svg">
<rect width="10.3376" height="10.3768" transform="matrix(1 0 6.97765e-06 1 0.537102 0.751072)" fill="black" fill-opacity="0.01"/>
<path d="M9.41881 4.40458C8.96652 2.40704 7.23067 1.50772 5.70588 1.50772C5.70588 1.50772 5.70588 1.50772 5.70157 1.50772C4.18109 1.50772 2.44094 2.40272 1.98869 4.40026C1.48475 6.63128 2.84587 8.52072 4.07777 9.70974C4.53435 10.1508 5.12015 10.3713 5.70594 10.3713C6.29174 10.3713 6.87753 10.1508 7.3298 9.70974C8.56168 8.52072 9.92278 6.6356 9.41881 4.40458ZM5.70592 6.57075C4.95644 6.57075 4.34911 5.96111 4.3491 5.20879C4.3491 4.45647 4.95642 3.84683 5.7059 3.84683C6.45537 3.84683 7.0627 4.45647 7.06271 5.20879C7.06272 5.96111 6.45539 6.57075 5.70592 6.57075Z" fill="black"/>
</svg>
