<svg width="18" height="18" viewBox="0 0 18 18" fill="none" xmlns="http://www.w3.org/2000/svg">
<g clip-path="url(#clip0_189_1076)">
<path d="M-6.91406e-05 3.38627C0.030009 3.23246 0.0563275 3.07865 0.0908492 2.92484C0.468193 1.25826 1.95154 0.0469671 3.67077 0.00832127C4.16295 -0.00295807 4.65548 -0.00159088 5.14762 0.00832127C5.9717 0.022335 6.62287 0.671061 6.63381 1.47803C6.64156 1.87149 6.49356 2.25208 6.22212 2.53697C5.95062 2.82191 5.57761 2.98809 5.18425 2.99936C4.74709 3.01509 4.30925 3.00176 3.87142 3.00483C3.29959 3.00893 2.99608 3.31586 2.99573 3.88803V13.5982C2.99573 14.1813 3.30061 14.4869 3.88065 14.4906C4.33626 14.493 4.79325 14.4769 5.24784 14.5022C6.31493 14.5617 6.97086 15.7488 6.45984 16.6897C6.20589 17.157 5.81043 17.4629 5.27175 17.4834C4.61721 17.508 3.95584 17.521 3.30534 17.4578C1.65144 17.2951 0.267045 15.9237 0.0383784 14.279C0.0301752 14.2189 0.0127438 14.1615 -0.000244141 14.103V3.3863L-6.91406e-05 3.38627Z" fill="#DC2434"/>
<path d="M12.3579 7.50896C12.2865 7.43069 12.2451 7.38249 12.2007 7.33806C11.5673 6.69923 10.9306 6.0635 10.3016 5.42064C9.79408 4.90144 9.73153 4.10575 10.1413 3.53254C10.5765 2.9238 11.3609 2.70607 12.0168 3.02839C12.1792 3.11031 12.3274 3.21792 12.4556 3.34695C13.9837 4.86959 15.5085 6.39545 17.0298 7.92466C17.657 8.55458 17.656 9.45693 17.0268 10.0879C15.538 11.581 14.0468 13.0718 12.5533 14.5607C11.9313 15.1807 11.0046 15.1848 10.3979 14.5808C9.80558 13.9909 9.8196 13.0663 10.4369 12.4432C11.0227 11.8508 11.6117 11.2624 12.2039 10.6782C12.2502 10.6388 12.2996 10.6033 12.3516 10.5719L12.3236 10.5059H12.124H5.99618C5.26917 10.5059 4.64779 10.0322 4.48856 9.36636C4.25887 8.40727 4.96093 7.5169 5.96133 7.51252C7.28032 7.50637 8.5996 7.51252 9.91895 7.51252H12.3577L12.3579 7.50896Z" fill="#DC2434"/>
</g>
<defs>
<clipPath id="clip0_189_1076">
<rect width="17.5" height="17.5" fill="white"/>
</clipPath>
</defs>
</svg>
