<svg id="Layer_1" data-name="Layer 1" xmlns="http://www.w3.org/2000/svg" viewBox="0 0 64 64"><defs><style>.cls-1{fill:#dd1515;}.cls-2{fill:#ccd8e5;}.cls-3{fill:#dfe8f4;}.cls-4{fill:#ff5454;}</style></defs><title>logistic, delivery, international, global, package, box, location</title><rect class="cls-1" x="29.55" y="32.02" width="26.45" height="23.96" rx="0.58"/><path class="cls-2" d="M39,32h7.6a0,0,0,0,1,0,0v5.54a1.29,1.29,0,0,1-1.29,1.29h-5A1.29,1.29,0,0,1,39,37.56V32A0,0,0,0,1,39,32Z"/><circle class="cls-3" cx="24.06" cy="24.06" r="16.06"/><path class="cls-4" d="M20.22,28.53h0a2.09,2.09,0,0,0,2.1,2.09h.21a2.08,2.08,0,0,0,2.09-2.09v-9a5.87,5.87,0,0,1,1.72-4.15h0a5.88,5.88,0,0,0,1.72-4.15V8.52A16,16,0,0,0,8.78,19.13a2.5,2.5,0,0,0,.63,2.53l1.66,1.66a2.1,2.1,0,0,0,1.49.62h0a9.51,9.51,0,0,1,6.73,2.79l.31.31A2.1,2.1,0,0,1,20.22,28.53Z"/><rect class="cls-4" x="28.06" y="21" width="3.94" height="3.94" rx="1.54"/><path class="cls-4" d="M39.9,26.62H37.1a3.56,3.56,0,0,0-2.52,1.05l-.6.6a1.92,1.92,0,0,0-.56,1.36v.46A1.93,1.93,0,0,1,31.49,32h0A1.94,1.94,0,0,0,29.55,34v5.19A16,16,0,0,0,39.9,26.62Z"/><path class="cls-4" d="M28.81,28.46h0a.75.75,0,0,1-.75-.75h0a.75.75,0,0,1,.75-.74h0a.74.74,0,0,1,.74.74h0A.74.74,0,0,1,28.81,28.46Z"/><path class="cls-4" d="M34,18.81h0a.75.75,0,0,1-.74-.75h0a.74.74,0,0,1,.74-.74h0a.75.75,0,0,1,.75.74h0A.76.76,0,0,1,34,18.81Z"/><path class="cls-4" d="M20,39.59v-1.3a4.51,4.51,0,0,0-4.51-4.51h-4.2A16.1,16.1,0,0,0,20,39.59Z"/></svg>