<svg id="Layer_1" data-name="Layer 1" xmlns="http://www.w3.org/2000/svg" viewBox="0 0 64 64"><defs><style>.cls-1{fill:#dfe8f4;}.cls-2{fill:#ccd8e5;}.cls-3{fill:#ff5454;}.cls-4{fill:#dd1515;}</style></defs><title>logistic, delivery, sort, sorting, package, box</title><path class="cls-1" d="M49,56H8V42H49a7,7,0,0,1,7,7h0A7,7,0,0,1,49,56Z"/><path class="cls-2" d="M48.76,43.63H8v2.3H48.76a3.07,3.07,0,0,1,0,6.14H8v2.3H48.76a5.37,5.37,0,0,0,0-10.74Z"/><path class="cls-3" d="M49,42H8v3H49a4,4,0,0,1,0,8H8v3H49a7,7,0,0,0,0-14Z"/><circle class="cls-2" cx="11.99" cy="49" r="1.15"/><circle class="cls-4" cx="11.99" cy="49" r="0.57"/><circle class="cls-2" cx="16.37" cy="49" r="1.15"/><circle class="cls-4" cx="16.37" cy="49" r="0.57"/><circle class="cls-2" cx="20.74" cy="49" r="1.15"/><circle class="cls-4" cx="20.74" cy="49" r="0.57"/><circle class="cls-2" cx="25.12" cy="49" r="1.15"/><circle class="cls-4" cx="25.12" cy="49" r="0.57"/><circle class="cls-2" cx="29.49" cy="49" r="1.15"/><circle class="cls-4" cx="29.49" cy="49" r="0.57"/><circle class="cls-2" cx="33.87" cy="49" r="1.15"/><circle class="cls-4" cx="33.87" cy="49" r="0.57"/><circle class="cls-2" cx="38.24" cy="49" r="1.15"/><circle class="cls-4" cx="38.24" cy="49" r="0.57"/><circle class="cls-2" cx="42.62" cy="49" r="1.15"/><circle class="cls-4" cx="42.62" cy="49" r="0.57"/><circle class="cls-2" cx="46.99" cy="49" r="1.15"/><circle class="cls-4" cx="46.99" cy="49" r="0.57"/><rect class="cls-3" x="16.7" y="29.5" width="13.8" height="12.5" rx="0.3"/><path class="cls-2" d="M21.62,29.5h4a0,0,0,0,1,0,0v2.89a.67.67,0,0,1-.67.67H22.29a.67.67,0,0,1-.67-.67V29.5A0,0,0,0,1,21.62,29.5Z"/><rect class="cls-4" x="33.5" y="17.57" width="13.8" height="24.43" rx="0.3"/><path class="cls-2" d="M38.42,17.57h4a0,0,0,0,1,0,0v2.89a.67.67,0,0,1-.67.67H39.09a.67.67,0,0,1-.67-.67V17.57A0,0,0,0,1,38.42,17.57Z"/></svg>