<svg id="Layer_1" data-name="Layer 1" xmlns="http://www.w3.org/2000/svg" viewBox="0 0 64 64"><defs><style>.cls-1{fill:#F4DFDF;}.cls-2{fill:#e5cccc;}.cls-3{fill:#FC0707;}.cls-4{fill:#DD1515;}.cls-5{fill:#fff;}</style></defs><title>logistic, delivery, checklist, confirm, package, clipboard, box</title><rect class="cls-1" x="13.33" y="13.36" width="37.33" height="42.64" rx="4.42"/><path class="cls-2" d="M21.5,13.56H42.17a0,0,0,0,1,0,0v1.83a2.49,2.49,0,0,1-2.49,2.49H24a2.49,2.49,0,0,1-2.49-2.49V13.56A0,0,0,0,1,21.5,13.56Z"/><path class="cls-3" d="M39.68,11.07H37.13A2.83,2.83,0,0,1,34.7,9.58a3.1,3.1,0,0,0-5.4,0,2.82,2.82,0,0,1-2.43,1.49H24.33a2.58,2.58,0,0,0-2.83,2.49v.84a1.26,1.26,0,0,0,1.26,1.26H40.91a1.27,1.27,0,0,0,1.26-1.26v-.84A2.48,2.48,0,0,0,39.68,11.07Z"/><path class="cls-4" d="M34.7,9.58a3.1,3.1,0,0,0-5.4,0,2.82,2.82,0,0,1-2.43,1.49H37.13A2.83,2.83,0,0,1,34.7,9.58Z"/><rect class="cls-4" x="21.59" y="21.16" width="8.65" height="7.84" rx="0.62"/><path class="cls-5" d="M24.67,21.16h2.49a0,0,0,0,1,0,0V23a.42.42,0,0,1-.42.42H25.09a.42.42,0,0,1-.42-.42V21.16A0,0,0,0,1,24.67,21.16Z"/><path class="cls-5" d="M35.58,28.64l-2.22-2.22a1.62,1.62,0,0,1-.23-2.07,1.56,1.56,0,0,1,2.38-.21l.76.76,3.16-3.16a1.62,1.62,0,0,1,2.08-.23,1.57,1.57,0,0,1,.2,2.38L37,28.64A1,1,0,0,1,35.58,28.64Z"/><rect class="cls-4" x="21.59" y="31.92" width="8.65" height="7.84" rx="0.62"/><path class="cls-5" d="M24.67,31.92h2.49a0,0,0,0,1,0,0v1.81a.42.42,0,0,1-.42.42H25.09a.42.42,0,0,1-.42-.42V31.92a0,0,0,0,1,0,0Z"/><path class="cls-5" d="M35.58,39.41l-2.22-2.22a1.63,1.63,0,0,1-.23-2.08,1.55,1.55,0,0,1,2.38-.2l.76.75,3.16-3.16a1.63,1.63,0,0,1,2.08-.23,1.58,1.58,0,0,1,.2,2.39L37,39.41A1,1,0,0,1,35.58,39.41Z"/><rect class="cls-4" x="21.59" y="42.69" width="8.65" height="7.84" rx="0.62"/><path class="cls-5" d="M24.67,42.69h2.49a0,0,0,0,1,0,0V44.5a.42.42,0,0,1-.42.42H25.09a.42.42,0,0,1-.42-.42V42.69A0,0,0,0,1,24.67,42.69Z"/><path class="cls-5" d="M35.58,50.17,33.36,48a1.63,1.63,0,0,1-.23-2.08,1.57,1.57,0,0,1,2.38-.2l.76.76,3.16-3.17A1.64,1.64,0,0,1,41.51,43a1.58,1.58,0,0,1,.2,2.39L37,50.17A1,1,0,0,1,35.58,50.17Z"/></svg>