<svg id="Layer_1" data-name="Layer 1" xmlns="http://www.w3.org/2000/svg" viewBox="0 0 64 64"><defs><style>.cls-1{fill:#FC0707;}.cls-2{fill:#F4DFDF;}.cls-3{fill:#e5cccc;}.cls-4{fill:#DD1515;}.cls-5{fill:#fff;}</style></defs><title>logistic, delivery, airplane, air, transport, transportation, package</title><path class="cls-1" d="M18.92,37.25H12.77A3.77,3.77,0,0,1,9,33.48V22.91a.54.54,0,0,1,.54-.53H10.8A2.33,2.33,0,0,1,13,23.78Z"/><path class="cls-2" d="M54.06,37.25H15.88V26.88h33.2a4.27,4.27,0,0,1,3,1.23l1.57,1.56A7.91,7.91,0,0,1,56,35.31h0A1.94,1.94,0,0,1,54.06,37.25Z"/><path class="cls-3" d="M49.12,37.25H12.49a1.54,1.54,0,0,1-1.55-1.55V26.88h33.2a4.27,4.27,0,0,1,3,1.23l1.58,1.56a7.94,7.94,0,0,1,2.34,5.64h0A1.94,1.94,0,0,1,49.12,37.25Z"/><path class="cls-4" d="M13.15,37.25l2-5.09a1.75,1.75,0,0,0,0-1.31L12,23.78a2.33,2.33,0,0,0-2.15-1.4H8.54a.54.54,0,0,0-.54.53v10.6a3.73,3.73,0,0,0,3.74,3.74Z"/><path class="cls-4" d="M18.35,26.88h-2.3l1.76,4a1.75,1.75,0,0,1,0,1.31l-2,5.09h2.3l2-5.09a1.7,1.7,0,0,0,0-1.31Z"/><path class="cls-1" d="M53.65,29.67l-.74-.73H46.59a1.53,1.53,0,0,0,0,3.06h8.68A7.76,7.76,0,0,0,53.65,29.67Z"/><path class="cls-4" d="M48.72,29.67,48,28.94H46.59a1.53,1.53,0,0,0,0,3.06h3.74A7.91,7.91,0,0,0,48.72,29.67Z"/><path class="cls-4" d="M18,47.75h0a.74.74,0,0,1-.52-1.26l9.28-9.24H37.93l-15,9.13A9.41,9.41,0,0,1,18,47.75Z"/><path class="cls-1" d="M18,16.38h0a.73.73,0,0,0-.52,1.25l9.28,9.25H37.93l-15-9.14A9.5,9.5,0,0,0,18,16.38Z"/><circle class="cls-2" cx="34.55" cy="29.57" r="0.63"/><circle class="cls-2" cx="37.32" cy="29.57" r="0.63"/><path class="cls-2" d="M40.72,29.57a.63.63,0,0,1-.63.63.63.63,0,0,1,0-1.26A.63.63,0,0,1,40.72,29.57Z"/><circle class="cls-2" cx="42.86" cy="29.57" r="0.63"/><path class="cls-2" d="M51.35,45h-.17a2.44,2.44,0,0,1-2.08-1.28,2.55,2.55,0,0,0-2.2-1.26H41.72A2.66,2.66,0,0,0,39,44.78a2.55,2.55,0,0,0,2.53,2.81h.32A2.43,2.43,0,0,1,44,48.87a2.55,2.55,0,0,0,2.2,1.26H51.5A2.55,2.55,0,0,0,54,47.32,2.65,2.65,0,0,0,51.35,45Z"/><path class="cls-2" d="M38.43,17.79h-.12a1.65,1.65,0,0,1-1.4-.87,1.71,1.71,0,0,0-1.48-.85H31.94a1.77,1.77,0,0,0-1.8,1.54,1.71,1.71,0,0,0,1.7,1.89h.21a1.65,1.65,0,0,1,1.41.86,1.69,1.69,0,0,0,1.48.85h3.59a1.71,1.71,0,0,0,1.7-1.89A1.78,1.78,0,0,0,38.43,17.79Z"/><path class="cls-2" d="M34.44,47.19h0a2.34,2.34,0,0,1-2.34-2.34h0a2.35,2.35,0,0,1,2.34-2.35h0a2.35,2.35,0,0,1,2.35,2.35h0A2.35,2.35,0,0,1,34.44,47.19Z"/><path class="cls-2" d="M42.45,24.88h0a1.58,1.58,0,0,1-1.58-1.59h0a1.58,1.58,0,0,1,1.58-1.58h0A1.58,1.58,0,0,1,44,23.29h0A1.59,1.59,0,0,1,42.45,24.88Z"/><path class="cls-2" d="M16.43,39.14h8.43a0,0,0,0,1,0,0v8.43A8.43,8.43,0,0,1,16.43,56h0A8.43,8.43,0,0,1,8,47.57v0a8.43,8.43,0,0,1,8.43-8.43Z"/><path class="cls-3" d="M24.86,45.19v-6h0l-7.38,7.35A.74.74,0,0,0,18,47.75a9.41,9.41,0,0,0,4.9-1.37Z"/><rect class="cls-5" x="12.13" y="43.28" width="8.59" height="8.59" rx="0.55"/><path class="cls-2" d="M15.12,43.28h2.62a0,0,0,0,1,0,0v2a.32.32,0,0,1-.32.32h-2a.32.32,0,0,1-.32-.32v-2A0,0,0,0,1,15.12,43.28Z"/></svg>