<svg id="Layer_1" data-name="Layer 1" xmlns="http://www.w3.org/2000/svg" viewBox="0 0 64 64"><defs><style>.cls-1{fill:#dd1515;}.cls-2{fill:#ff5454;}.cls-3{fill:#dfe8f4;}.cls-4{fill:#ccd8e5;}.cls-5{fill:#fff;}</style></defs><title>logistic, delivery, transport, transportation, ship, free</title><path class="cls-1" d="M34.39,33.36h5.46a0,0,0,0,1,0,0v5.46a.37.37,0,0,1-.37.37H34.39a.37.37,0,0,1-.37-.37V33.73A.37.37,0,0,1,34.39,33.36Z"/><path class="cls-2" d="M36,33.36h1.78a0,0,0,0,1,0,0v1.33a.22.22,0,0,1-.22.22H36.26a.22.22,0,0,1-.22-.22V33.36A0,0,0,0,1,36,33.36Z"/><path class="cls-1" d="M39.85,33.36h5.83a0,0,0,0,1,0,0v5.46a.37.37,0,0,1-.37.37H40.22a.37.37,0,0,1-.37-.37V33.36A0,0,0,0,1,39.85,33.36Z"/><path class="cls-2" d="M41.87,33.36h1.78a0,0,0,0,1,0,0v1.33a.22.22,0,0,1-.22.22H42.09a.22.22,0,0,1-.22-.22V33.36A0,0,0,0,1,41.87,33.36Z"/><path class="cls-1" d="M40.22,27.52h5.09a.37.37,0,0,1,.37.37v5.46a0,0,0,0,1,0,0H39.85a0,0,0,0,1,0,0V27.89A.37.37,0,0,1,40.22,27.52Z"/><path class="cls-2" d="M41.87,27.52h1.78a0,0,0,0,1,0,0v1.33a.22.22,0,0,1-.22.22H42.09a.22.22,0,0,1-.22-.22V27.52A0,0,0,0,1,41.87,27.52Z"/><path class="cls-3" d="M23,32.35H18.86l-.54-2.9a.42.42,0,0,1,.41-.49H22a.42.42,0,0,1,.41.34Z"/><path class="cls-4" d="M22.44,29.55l0-.25A.42.42,0,0,0,22,29H18.73a.42.42,0,0,0-.41.49l.54,2.9H21L20.59,30a.38.38,0,0,1,.37-.44Z"/><path class="cls-3" d="M17.78,32.35H13.67l-.54-2.9a.42.42,0,0,1,.41-.49H16.8a.42.42,0,0,1,.41.34Z"/><path class="cls-4" d="M17.26,29.55l-.05-.25A.42.42,0,0,0,16.8,29H13.54a.42.42,0,0,0-.41.49l.71,3.95,2-1L15.41,30a.37.37,0,0,1,.36-.44Z"/><path class="cls-3" d="M55.12,36.58H46.31a2.4,2.4,0,0,0-2.13,1.31h0a2.37,2.37,0,0,1-2.12,1.3H16.27a17.5,17.5,0,0,0,5.36,12.42,4.48,4.48,0,0,1,1.12,2.87.32.32,0,0,0,.32.3H49A2.05,2.05,0,0,0,51,52.73h0A4.06,4.06,0,0,1,52,50.15a17.26,17.26,0,0,0,4-11V37.46A.87.87,0,0,0,55.12,36.58Z"/><path class="cls-4" d="M55.12,36.58H40a6,6,0,0,0-4.39,2.19,1.3,1.3,0,0,1-1,.42H21.18A4.34,4.34,0,0,1,17,36l-.56-2.07a2.12,2.12,0,0,0-2-1.57A6.38,6.38,0,0,0,8,38.72v.47a17.54,17.54,0,0,0,5.35,12.42A3.3,3.3,0,0,1,14,52.67a3.53,3.53,0,0,0,3.31,2.11H40.69a2,2,0,0,0,2.06-2,4.07,4.07,0,0,1,.94-2.65,17.34,17.34,0,0,0,4-9.66,1.39,1.39,0,0,1,1.39-1.26H56V37.46A.87.87,0,0,0,55.12,36.58Z"/><path class="cls-2" d="M26.75,36.91l-.82-3a2.13,2.13,0,0,0-2.06-1.57H14.45v6.84h15.3A3.11,3.11,0,0,1,26.75,36.91Z"/><path class="cls-1" d="M17,36l-.56-2.07a2.12,2.12,0,0,0-2-1.57A6.38,6.38,0,0,0,8,38.72v.47H21.18A4.34,4.34,0,0,1,17,36Z"/><path class="cls-3" d="M35.56,43.26A1.53,1.53,0,1,1,34,41.73,1.52,1.52,0,0,1,35.56,43.26Z"/><path class="cls-3" d="M25.53,35.77a.57.57,0,0,0-.55-.42H15.37a.92.92,0,0,0,0,1.84H25.49a.34.34,0,0,0,.32-.43Z"/><path class="cls-4" d="M17,36l-.18-.64H15.37a.92.92,0,0,0,0,1.84h2.16A4.06,4.06,0,0,1,17,36Z"/><path class="cls-5" d="M34.8,43.26A.78.78,0,0,1,34,44a.77.77,0,0,1,0-1.54A.78.78,0,0,1,34.8,43.26Z"/><path class="cls-3" d="M40.31,43.26a1.53,1.53,0,1,1-1.53-1.53A1.52,1.52,0,0,1,40.31,43.26Z"/><path class="cls-5" d="M39.55,43.26a.78.78,0,0,1-.77.77.77.77,0,0,1,0-1.54A.78.78,0,0,1,39.55,43.26Z"/><path class="cls-3" d="M45.06,43.26a1.53,1.53,0,1,1-1.53-1.53A1.52,1.52,0,0,1,45.06,43.26Z"/><path class="cls-5" d="M44.3,43.26a.78.78,0,0,1-.77.77.77.77,0,0,1,0-1.54A.78.78,0,0,1,44.3,43.26Z"/><path class="cls-1" d="M8,39.19H21.18a4.3,4.3,0,0,1-1.89-.44H8Z"/><path class="cls-2" d="M53.57,53.13a5.29,5.29,0,0,1-1.94-.35,1.2,1.2,0,0,0-.91,0,5.55,5.55,0,0,1-3.88,0,1.2,1.2,0,0,0-.91,0,5.29,5.29,0,0,1-1.94.35,5.21,5.21,0,0,1-1.94-.35,1.22,1.22,0,0,0-.92,0,5.55,5.55,0,0,1-3.88,0,1.2,1.2,0,0,0-.91,0,5.29,5.29,0,0,1-1.94.35,5.21,5.21,0,0,1-1.94-.35,1.22,1.22,0,0,0-.92,0,5.21,5.21,0,0,1-1.94.35,5.32,5.32,0,0,1-1.86-.32,1.3,1.3,0,0,0-.95,0,5.7,5.7,0,0,1-4.12,0,1.21,1.21,0,0,0-.88,0,5.4,5.4,0,0,1-1.78.29,5.29,5.29,0,0,1-1.94-.35,1.2,1.2,0,0,0-.91,0,5.55,5.55,0,0,1-3.88,0,1.2,1.2,0,0,0-.91,0,5.29,5.29,0,0,1-1.94.35,5.2,5.2,0,0,1-1.74-.28.51.51,0,0,0-.69.47V56H56V53.32a.51.51,0,0,0-.69-.47A5.2,5.2,0,0,1,53.57,53.13Z"/><path class="cls-1" d="M14.2,53a3.6,3.6,0,0,0,3.13,1.74H49A2.05,2.05,0,0,0,51,52.73h0a1.07,1.07,0,0,0-.3.06,5.55,5.55,0,0,1-3.88,0,1.2,1.2,0,0,0-.91,0,5.29,5.29,0,0,1-1.94.35,5.21,5.21,0,0,1-1.94-.35,1.22,1.22,0,0,0-.92,0,5.55,5.55,0,0,1-3.88,0,1.2,1.2,0,0,0-.91,0,5.29,5.29,0,0,1-1.94.35,5.21,5.21,0,0,1-1.94-.35,1.22,1.22,0,0,0-.92,0,5.21,5.21,0,0,1-1.94.35,5.32,5.32,0,0,1-1.86-.32,1.3,1.3,0,0,0-.95,0,5.7,5.7,0,0,1-4.12,0,1.21,1.21,0,0,0-.88,0,5.4,5.4,0,0,1-1.78.29,5.29,5.29,0,0,1-1.94-.35,1.2,1.2,0,0,0-.91,0,5.25,5.25,0,0,1-1.94.35A5.53,5.53,0,0,1,14.2,53Z"/></svg>