<svg id="Layer_1" data-name="Layer 1" xmlns="http://www.w3.org/2000/svg" viewBox="0 0 64 64"><defs><style>.cls-1{fill:#DD1515;}.cls-2{fill:#e5cccc;}.cls-3{fill:#FC0707;}.cls-4{fill:#F4DFDF;}</style></defs><title>logistic, delivery, alert, notification, package, box, bell</title><rect class="cls-1" x="29.55" y="32.12" width="26.45" height="23.96" rx="0.58"/><path class="cls-2" d="M39,32.12h7.6a0,0,0,0,1,0,0v5.54a1.29,1.29,0,0,1-1.29,1.29h-5A1.29,1.29,0,0,1,39,37.66V32.12A0,0,0,0,1,39,32.12Z"/><circle class="cls-3" cx="22.46" cy="35.78" r="4.72"/><path class="cls-4" d="M35.67,31.89a6.9,6.9,0,0,1-2.76-5.34V21.49a10.45,10.45,0,0,0-7.27-9.94,1.1,1.1,0,0,1-.78-1.07,2.44,2.44,0,0,0-.21-1.06,2.34,2.34,0,0,0-1.53-1.33,2.4,2.4,0,0,0-3.06,2.31h0a1.16,1.16,0,0,1-.79,1.14A10.44,10.44,0,0,0,12,21.49v5.06a6.9,6.9,0,0,1-2.76,5.34,3.32,3.32,0,0,0-1.14,3.45,3.42,3.42,0,0,0,3.33,2.44h22a3.4,3.4,0,0,0,3.32-2.44A3.3,3.3,0,0,0,35.67,31.89Z"/></svg>