<svg id="Layer_1" data-name="Layer 1" xmlns="http://www.w3.org/2000/svg" viewBox="0 0 64 64"><defs><style>.cls-1{fill:#dfe8f4;}.cls-2{fill:#ccd8e5;}.cls-3{fill:#ff5454;}.cls-4{fill:#dd1515;}.cls-5{fill:#fff;}</style></defs><title>logistic, delivery, transport, transportation, scooter, vehicle, speed, express</title><rect class="cls-1" x="18.49" y="11.14" width="17.9" height="17.9" rx="0.93"/><path class="cls-2" d="M33.49,23.71l-5.34,5.34h7.31a.93.93,0,0,0,.93-.93V25.25Z"/><path class="cls-3" d="M21.62,47.52a4.36,4.36,0,0,0-4.36,4.35,4.3,4.3,0,0,0,.6,2.16h-.6v2.2h4.36a4.36,4.36,0,1,0,0-8.71Z"/><path class="cls-4" d="M17.26,51.87a4.2,4.2,0,0,0,.47,1.9h7.79a4.33,4.33,0,0,0,.46-1.9,4.16,4.16,0,0,0-.25-1.37H17.51A4.16,4.16,0,0,0,17.26,51.87Z"/><path class="cls-4" d="M25.78,53.08a4.09,4.09,0,0,0,.2-1.21,4.16,4.16,0,0,0-.25-1.37H17.51a4.16,4.16,0,0,0-.25,1.37,4,4,0,0,0,.19,1.21Z"/><path class="cls-4" d="M21.3,51.91A4.32,4.32,0,1,0,17,56.23,4.31,4.31,0,0,0,21.3,51.91Z"/><path class="cls-1" d="M21.8,51.91h-1a3.82,3.82,0,0,0-7.64,0h-1a4.82,4.82,0,0,1,9.64,0Z"/><path class="cls-3" d="M49.74,49.62a3.31,3.31,0,0,0-3.3,3.31,3.24,3.24,0,0,0,.45,1.63h-.45v1.67h3.3a3.31,3.31,0,0,0,0-6.61Z"/><path class="cls-4" d="M52.89,53.84a3.1,3.1,0,0,0,.15-.91,3.2,3.2,0,0,0-.18-1H46.62a3.2,3.2,0,0,0-.18,1,3.09,3.09,0,0,0,.14.91Z"/><path class="cls-2" d="M42.66,26.68l11.2-1a1.11,1.11,0,0,0,1-1.1h0a1.11,1.11,0,0,0-1.11-1.11H42.66Z"/><path class="cls-1" d="M54.88,24.6a1.11,1.11,0,0,0-1.11-1.11H34.16a1.14,1.14,0,0,0-1.14.88,1.1,1.1,0,0,0,1,1.33l3.36.3a2.07,2.07,0,0,1,1.89,2.06,4.58,4.58,0,0,0,4.57,4.57h2A3.67,3.67,0,0,0,49.53,29v-3a1.33,1.33,0,0,1,1.33-1.32h4A0,0,0,0,1,54.88,24.6Z"/><path class="cls-3" d="M53.31,23.49h.46a1.11,1.11,0,0,1,.09,2.21l-.55.05Z"/><path class="cls-1" d="M37.16,39.08v2a2.5,2.5,0,0,1-2.5,2.5h0a2.49,2.49,0,0,1-2.49-2.5V34.91c0-1.26-1-2.28-2.28-3H8.07v.86a3.58,3.58,0,0,0,2,3.23,1,1,0,0,1,.32,1.54,12,12,0,0,0-2.36,7.15v2.85A5.42,5.42,0,0,0,13.49,53h37a1,1,0,0,0,1-1V39.08a6.45,6.45,0,0,0-6.45-6.45H43.6A6.44,6.44,0,0,0,37.16,39.08Z"/><path class="cls-1" d="M37.16,39.08v2a2.5,2.5,0,0,1-2.5,2.5h0a2.49,2.49,0,0,1-2.49-2.5V34.91c0-1.26-1-2.28-2.28-3H8.07v.86a3.58,3.58,0,0,0,2,3.23,1,1,0,0,1,.32,1.54,12,12,0,0,0-2.36,7.15v2.85A5.42,5.42,0,0,0,13.49,53h37a1,1,0,0,0,1-1V39.08a6.45,6.45,0,0,0-6.45-6.45H43.6A6.44,6.44,0,0,0,37.16,39.08Z"/><path class="cls-2" d="M29.89,31.9H8.07v.86a3.27,3.27,0,0,0,.08.7H31.68A5.59,5.59,0,0,0,29.89,31.9Z"/><path class="cls-2" d="M32.17,41.09v-4.2H28.56v3.33a3.37,3.37,0,0,0,3.37,3.37h2.73A2.49,2.49,0,0,1,32.17,41.09Z"/><path class="cls-3" d="M30.94,29.05h-20a2.84,2.84,0,0,0-2.84,2.84h0a.74.74,0,0,0,.74.74H26.49a2.07,2.07,0,0,1,2.07,2.07v2.19a3.37,3.37,0,0,0,3.36,3.36h0a2.64,2.64,0,0,0,2.64-2.64V32.67A3.62,3.62,0,0,0,30.94,29.05Z"/><path class="cls-4" d="M28.56,35.12v1.77a3.33,3.33,0,0,0,1.24,2.58,2.65,2.65,0,0,0,.77-1.86V32.92a3.87,3.87,0,0,0-3.87-3.87H10.91a2.85,2.85,0,0,0-2.75,3.58H26.07A2.49,2.49,0,0,1,28.56,35.12Z"/><path class="cls-2" d="M51.4,45.08H49.65a2.58,2.58,0,0,1-2.58-2.58V40a1.54,1.54,0,0,0-1.33-1.56A1.48,1.48,0,0,0,44.11,40V45.6a4.81,4.81,0,0,1-4.8,4.81H28.45A2.47,2.47,0,0,1,26,47.94V45.49a7,7,0,0,0-5.28-6.85l-.36-.07a1.13,1.13,0,0,0-1,1.89,6.7,6.7,0,0,1,2,4.76h0a5.19,5.19,0,0,1-5.18,5.19H8.92A2.54,2.54,0,0,0,11.46,53H55.52a.56.56,0,0,0,.55-.56V49.75A4.67,4.67,0,0,0,51.4,45.08Z"/><path class="cls-1" d="M51.4,45.08H48.63a4.67,4.67,0,0,1,4.68,4.67v2.64a.56.56,0,0,1-.56.56h2.77a.56.56,0,0,0,.55-.56V49.75A4.67,4.67,0,0,0,51.4,45.08Z"/><path class="cls-4" d="M34.56,23.49h-.45A1.11,1.11,0,0,0,34,25.7l.55.05Z"/><path class="cls-5" d="M46.41,30.56h0a1.69,1.69,0,0,1-1.69-1.69V27.2a1.65,1.65,0,0,1,1.65-1.65h.52a1.22,1.22,0,0,1,1.22,1.22v2.1A1.69,1.69,0,0,1,46.41,30.56Z"/><path class="cls-4" d="M49.5,53a3.28,3.28,0,1,0-3.28,3.28A3.27,3.27,0,0,0,49.5,53Z"/><path class="cls-1" d="M50,53H49a2.78,2.78,0,0,0-5.55,0h-1A3.78,3.78,0,0,1,50,53Z"/><path class="cls-2" d="M9,11.14H26a0,0,0,0,1,0,0V29a0,0,0,0,1,0,0H9a.93.93,0,0,1-.93-.93v-16A.93.93,0,0,1,9,11.14Z"/><path class="cls-5" d="M23.55,14.09h-7a1.62,1.62,0,0,0-1.34.69l-4.86,7a.18.18,0,0,0,.14.27h3.81a.16.16,0,0,1,.14.26L12,25.84a.17.17,0,0,0,.24.23L22.29,19a.16.16,0,0,0-.09-.3H19.3a.17.17,0,0,1-.12-.3l4.48-4A.17.17,0,0,0,23.55,14.09Z"/></svg>