<svg id="Layer_1" data-name="Layer 1" xmlns="http://www.w3.org/2000/svg" viewBox="0 0 64 64"><defs><style>.cls-1{fill:#ccd8e5;}.cls-2{fill:#dfe8f4;}.cls-3{fill:#ff5454;}.cls-4{fill:#dd1515;}</style></defs><title>logistic, delivery, steel, material, building, build</title><path class="cls-1" d="M38.49,54V43.34a.69.69,0,0,1,.68-.68h.45A.67.67,0,0,0,40.3,42h0a.67.67,0,0,0-.68-.68H14.77a.67.67,0,0,0-.68.68h0a.67.67,0,0,0,.68.67h.45a.69.69,0,0,1,.68.68V54a.69.69,0,0,1-.68.68h-.45a.67.67,0,0,0-.68.67h0a.67.67,0,0,0,.68.68H39.62a.67.67,0,0,0,.68-.68h0a.67.67,0,0,0-.68-.67h-.45A.69.69,0,0,1,38.49,54Z"/><path class="cls-1" d="M25.14,51.72h0a.35.35,0,0,1-.35-.35V47.31a.35.35,0,0,1,.35-.35h0a.35.35,0,0,1,.35.35v4.06A.35.35,0,0,1,25.14,51.72Z"/><path class="cls-1" d="M27.48,51.72h0a.34.34,0,0,1-.34-.35V47.31a.35.35,0,0,1,.34-.35h0a.35.35,0,0,1,.35.35v4.06A.34.34,0,0,1,27.48,51.72Z"/><path class="cls-1" d="M29.83,51.72h0a.35.35,0,0,1-.35-.35V47.31a.35.35,0,0,1,.35-.35h0a.35.35,0,0,1,.35.35v4.06A.35.35,0,0,1,29.83,51.72Z"/><path class="cls-1" d="M32.17,51.72h0a.35.35,0,0,1-.35-.35V47.31a.35.35,0,0,1,.35-.35h0a.35.35,0,0,1,.35.35v4.06A.35.35,0,0,1,32.17,51.72Z"/><path class="cls-1" d="M34.51,51.72h0a.34.34,0,0,1-.34-.35V47.31a.35.35,0,0,1,.34-.35h0a.35.35,0,0,1,.35.35v4.06A.34.34,0,0,1,34.51,51.72Z"/><path class="cls-2" d="M22.07,42.65A.67.67,0,0,0,22,41.31H8.68a.68.68,0,1,0,0,1.35h.45a.68.68,0,0,1,.67.68V54a.68.68,0,0,1-.67.68H8.68a.68.68,0,1,0,0,1.35h31a.68.68,0,0,0,0-1.35H21.56a.68.68,0,0,1-.67-.68V46.76a2.26,2.26,0,0,1,2.27-2.27H38.49V43.34a.69.69,0,0,1,.68-.68H22.07Z"/><path class="cls-3" d="M53.65,54V43.34a.69.69,0,0,1,.68-.68h.45a.67.67,0,0,0,.68-.67h0a.67.67,0,0,0-.68-.68H29.93a.67.67,0,0,0-.68.68h0a.67.67,0,0,0,.68.67h.45a.69.69,0,0,1,.68.68V54a.69.69,0,0,1-.68.68h-.45a.67.67,0,0,0-.68.67h0a.67.67,0,0,0,.68.68H54.78a.67.67,0,0,0,.68-.68h0a.67.67,0,0,0-.68-.67h-.45A.69.69,0,0,1,53.65,54Z"/><path class="cls-4" d="M40.3,51.72h0a.35.35,0,0,1-.35-.35V47.31A.35.35,0,0,1,40.3,47h0a.35.35,0,0,1,.35.35v4.06A.35.35,0,0,1,40.3,51.72Z"/><path class="cls-4" d="M42.64,51.72h0a.34.34,0,0,1-.34-.35V47.31a.35.35,0,0,1,.34-.35h0a.35.35,0,0,1,.35.35v4.06A.34.34,0,0,1,42.64,51.72Z"/><path class="cls-4" d="M45,51.72h0a.35.35,0,0,1-.35-.35V47.31A.35.35,0,0,1,45,47h0a.35.35,0,0,1,.35.35v4.06A.35.35,0,0,1,45,51.72Z"/><path class="cls-4" d="M47.33,51.72h0a.35.35,0,0,1-.35-.35V47.31a.35.35,0,0,1,.35-.35h0a.35.35,0,0,1,.35.35v4.06A.35.35,0,0,1,47.33,51.72Z"/><path class="cls-4" d="M49.67,51.72h0a.34.34,0,0,1-.34-.35V47.31a.35.35,0,0,1,.34-.35h0a.35.35,0,0,1,.35.35v4.06A.34.34,0,0,1,49.67,51.72Z"/><path class="cls-4" d="M37.23,42.65a.67.67,0,0,0,.62-.66.67.67,0,0,0-.68-.68H23.84a.68.68,0,1,0,0,1.35h.45a.68.68,0,0,1,.67.68V54a.68.68,0,0,1-.67.68h-.45a.68.68,0,1,0,0,1.35h31a.68.68,0,0,0,0-1.35H36.72a.68.68,0,0,1-.67-.68V46.76a2.26,2.26,0,0,1,2.27-2.27H53.65V43.34a.69.69,0,0,1,.68-.68H37.23Z"/><path class="cls-2" d="M46.32,39.28V28.65A.68.68,0,0,1,47,28h.46a.67.67,0,0,0,.67-.67h0a.67.67,0,0,0-.67-.68H22.59a.68.68,0,0,0-.68.68h0a.68.68,0,0,0,.68.67H23a.68.68,0,0,1,.68.68V39.28A.68.68,0,0,1,23,40h-.45a.68.68,0,0,0-.68.67h0a.68.68,0,0,0,.68.68H47.45a.67.67,0,0,0,.67-.68h0a.67.67,0,0,0-.67-.67H47A.68.68,0,0,1,46.32,39.28Z"/><path class="cls-1" d="M33,37h0a.34.34,0,0,1-.34-.35V32.62a.35.35,0,0,1,.34-.35h0a.35.35,0,0,1,.35.35v4.06A.34.34,0,0,1,33,37Z"/><path class="cls-1" d="M35.31,37h0a.35.35,0,0,1-.35-.35V32.62a.35.35,0,0,1,.35-.35h0a.35.35,0,0,1,.35.35v4.06A.35.35,0,0,1,35.31,37Z"/><path class="cls-1" d="M37.65,37h0a.35.35,0,0,1-.35-.35V32.62a.35.35,0,0,1,.35-.35h0a.35.35,0,0,1,.35.35v4.06A.35.35,0,0,1,37.65,37Z"/><path class="cls-1" d="M40,37h0a.34.34,0,0,1-.34-.35V32.62a.35.35,0,0,1,.34-.35h0a.35.35,0,0,1,.35.35v4.06A.34.34,0,0,1,40,37Z"/><path class="cls-1" d="M42.34,37h0a.35.35,0,0,1-.35-.35V32.62a.35.35,0,0,1,.35-.35h0a.35.35,0,0,1,.35.35v4.06A.35.35,0,0,1,42.34,37Z"/><path class="cls-1" d="M29.89,28a.67.67,0,0,0,.62-.66.67.67,0,0,0-.67-.68H16.5a.68.68,0,1,0,0,1.35H17a.68.68,0,0,1,.68.68V39.28A.68.68,0,0,1,17,40H16.5a.68.68,0,1,0,0,1.35h31a.68.68,0,1,0,0-1.35H29.39a.68.68,0,0,1-.68-.68V32.07A2.28,2.28,0,0,1,31,29.79H46.32V28.65A.68.68,0,0,1,47,28H29.89Z"/></svg>