<svg id="Layer_1" data-name="Layer 1" xmlns="http://www.w3.org/2000/svg" viewBox="0 0 64 64"><defs><style>.cls-1{fill:#ff5454;}.cls-2{fill:#dd1515;}.cls-3{fill:#dfe8f4;}.cls-4{fill:#ccd8e5;}.cls-5{fill:#fff;}</style></defs><title>logistic, delivery, warehouse, storage, box, package</title><path class="cls-1" d="M8,23V56H56V23a2.83,2.83,0,0,0-1.42-2.46L33.42,8.35a2.83,2.83,0,0,0-2.84,0L9.43,20.56A2.83,2.83,0,0,0,8,23Z"/><rect class="cls-2" x="8.01" y="53.17" width="47.97" height="2.83"/><path class="cls-3" d="M17.17,28.25H46.83a1.1,1.1,0,0,1,1.1,1.1V56a0,0,0,0,1,0,0H16.06a0,0,0,0,1,0,0V29.35A1.1,1.1,0,0,1,17.17,28.25Z"/><path class="cls-4" d="M46.83,28.25H17.17a1.11,1.11,0,0,0-1.11,1.1V56H47.94V29.35A1.11,1.11,0,0,0,46.83,28.25ZM44.94,53H19.06V31.25H44.94Z"/><rect class="cls-2" x="21.79" y="46.74" width="10.21" height="9.26" rx="0.23"/><path class="cls-5" d="M25.43,46.74h2.94a0,0,0,0,1,0,0v2.14a.5.5,0,0,1-.5.5H25.92a.5.5,0,0,1-.5-.5V46.74A0,0,0,0,1,25.43,46.74Z"/><rect class="cls-1" x="32" y="46.74" width="10.21" height="9.26" rx="0.23"/><path class="cls-5" d="M35.64,46.74h2.94a0,0,0,0,1,0,0v2.14a.5.5,0,0,1-.5.5H36.14a.5.5,0,0,1-.5-.5V46.74A0,0,0,0,1,35.64,46.74Z"/><rect class="cls-2" x="26.89" y="37.5" width="10.21" height="9.26" rx="0.23"/><path class="cls-5" d="M30.53,37.5h2.94a0,0,0,0,1,0,0v2.14a.5.5,0,0,1-.5.5H31a.5.5,0,0,1-.5-.5V37.5A0,0,0,0,1,30.53,37.5Z"/></svg>