<svg id="Layer_1" data-name="Layer 1" xmlns="http://www.w3.org/2000/svg" viewBox="0 0 64 64"><defs><style>.cls-1{fill:#DD1515;}.cls-2{fill:#F4DFDF;}.cls-3{fill:#FC0707;}.cls-4{fill:#e5cccc;}</style></defs><title>logistic, delivery, transport, transportation, train, free</title><path class="cls-1" d="M47.57,52.29a1.82,1.82,0,0,0-1.82,1.82A1.74,1.74,0,0,0,46,55h-.25v.92h1.82a1.82,1.82,0,0,0,0-3.64Z"/><path class="cls-1" d="M49.3,54.61a1.64,1.64,0,0,0,.08-.5,1.8,1.8,0,0,0-.1-.57H45.85a1.8,1.8,0,0,0-.1.57,1.64,1.64,0,0,0,.08.5Z"/><path class="cls-1" d="M47.43,54.12a1.8,1.8,0,1,0-1.8,1.81A1.8,1.8,0,0,0,47.43,54.12Z"/><path class="cls-2" d="M47.93,54.12h-1a1.3,1.3,0,1,0-2.6,0h-1a2.3,2.3,0,0,1,4.6,0Z"/><path class="cls-2" d="M9.07,14.13h9.28a15,15,0,0,1,15,15V55.69a0,0,0,0,1,0,0H9.07A1.07,1.07,0,0,1,8,54.61V15.2A1.07,1.07,0,0,1,9.07,14.13Z"/><path class="cls-3" d="M27.5,46.93H13.85V29.79A6.82,6.82,0,0,1,20.68,23h0a6.82,6.82,0,0,1,6.82,6.82Z"/><path class="cls-1" d="M20.68,24.51a3.84,3.84,0,0,1,3.83,3.83V42.47H16.85V28.34a3.84,3.84,0,0,1,3.83-3.83m0-3h0a6.83,6.83,0,0,0-6.83,6.83V45.47H27.51V28.34a6.83,6.83,0,0,0-6.83-6.83Z"/><path class="cls-2" d="M55.11,54.12H13.85V39.75h34.3a4.2,4.2,0,0,1,3.58,2l1.93,3.17A15.9,15.9,0,0,1,56,53.23h0A.89.89,0,0,1,55.11,54.12Z"/><path class="cls-1" d="M24.42,52.29a1.82,1.82,0,0,0-1.82,1.82,1.74,1.74,0,0,0,.25.9H22.6v.92h1.82a1.82,1.82,0,0,0,0-3.64Z"/><path class="cls-1" d="M26.15,54.61a1.64,1.64,0,0,0,.08-.5,1.8,1.8,0,0,0-.1-.57H22.7a1.8,1.8,0,0,0-.1.57,1.64,1.64,0,0,0,.08.5Z"/><path class="cls-1" d="M17.59,52.29a1.82,1.82,0,0,0-1.82,1.82A1.84,1.84,0,0,0,16,55h-.25v.92h1.82a1.82,1.82,0,0,0,0-3.64Z"/><path class="cls-1" d="M19.33,54.61a2,2,0,0,0,.07-.5,1.8,1.8,0,0,0-.1-.57H15.87a1.8,1.8,0,0,0-.1.57,1.64,1.64,0,0,0,.08.5Z"/><path class="cls-1" d="M39.09,52.29A1.82,1.82,0,0,0,37.52,55h-.24v.92h1.81a1.82,1.82,0,0,0,0-3.64Z"/><path class="cls-1" d="M40.83,54.61a1.64,1.64,0,0,0,.08-.5,1.8,1.8,0,0,0-.1-.57H37.38a1.8,1.8,0,0,0-.1.57,2,2,0,0,0,.07.5Z"/><path class="cls-1" d="M32.26,52.29A1.82,1.82,0,0,0,30.69,55h-.24v.92h1.81a1.82,1.82,0,1,0,0-3.64Z"/><path class="cls-1" d="M34,54.61a1.64,1.64,0,0,0,.08-.5,1.8,1.8,0,0,0-.1-.57H30.55a1.8,1.8,0,0,0-.1.57,2,2,0,0,0,.07.5Z"/><path class="cls-4" d="M43.81,44.93l-1.93-3.17a4.2,4.2,0,0,0-3.58-2H13.85V54.12h31.4a.89.89,0,0,0,.9-.89h0A15.9,15.9,0,0,0,43.81,44.93Z"/><path class="cls-3" d="M53.66,44.93l-1.93-3.17a4.2,4.2,0,0,0-3.58-2H38.43v6.48A3.6,3.6,0,0,0,42,49.84h13.6A16,16,0,0,0,53.66,44.93Z"/><path class="cls-1" d="M43.81,44.93l-1.93-3.17a4.18,4.18,0,0,0-3.45-2v6.47A3.6,3.6,0,0,0,42,49.84h3.75A16,16,0,0,0,43.81,44.93Z"/><path class="cls-1" d="M39,54.12a1.8,1.8,0,1,0-1.8,1.81A1.81,1.81,0,0,0,39,54.12Z"/><path class="cls-2" d="M39.46,54.12h-1a1.3,1.3,0,0,0-2.6,0h-1a2.3,2.3,0,0,1,4.6,0Z"/><path class="cls-2" d="M37.61,54.12a.45.45,0,1,0-.45.46A.45.45,0,0,0,37.61,54.12Z"/><path class="cls-1" d="M32.13,54.12a1.8,1.8,0,1,0-1.8,1.81A1.81,1.81,0,0,0,32.13,54.12Z"/><path class="cls-2" d="M32.63,54.12h-1a1.3,1.3,0,0,0-2.6,0H28a2.3,2.3,0,0,1,4.6,0Z"/><path class="cls-2" d="M30.78,54.12a.45.45,0,1,0-.45.46A.45.45,0,0,0,30.78,54.12Z"/><path class="cls-1" d="M24.28,54.12a1.8,1.8,0,1,0-1.8,1.81A1.8,1.8,0,0,0,24.28,54.12Z"/><path class="cls-2" d="M24.78,54.12h-1a1.3,1.3,0,0,0-2.6,0h-1a2.3,2.3,0,0,1,4.6,0Z"/><path class="cls-2" d="M22.93,54.12a.45.45,0,1,0-.45.46A.45.45,0,0,0,22.93,54.12Z"/><path class="cls-1" d="M17.45,54.12a1.8,1.8,0,1,0-1.8,1.81A1.8,1.8,0,0,0,17.45,54.12Z"/><path class="cls-2" d="M18,54.12H17a1.31,1.31,0,0,0-2.61,0h-1a2.31,2.31,0,0,1,4.61,0Z"/><path class="cls-2" d="M16.1,54.12a.45.45,0,1,0-.45.46A.45.45,0,0,0,16.1,54.12Z"/><path class="cls-4" d="M55.87,51.23H47.81l.11,1.23h8C56,52.05,55.92,51.64,55.87,51.23Z"/><rect class="cls-1" x="27.5" y="43.37" width="2.85" height="2.85" rx="0.5"/><rect class="cls-1" x="22.33" y="43.37" width="2.85" height="2.85" rx="0.5"/><rect class="cls-1" x="17.15" y="43.37" width="2.85" height="2.85" rx="0.5"/></svg>