<svg id="Layer_1" data-name="Layer 1" xmlns="http://www.w3.org/2000/svg" viewBox="0 0 64 64"><defs><style>.cls-1{fill:#ccd8e5;}.cls-2{fill:#dfe8f4;}.cls-3{fill:#ff5454;}.cls-4{fill:#dd1515;}</style></defs><title>logistic, delivery, airdrop, drop, parachute, package, box</title><rect class="cls-1" x="17.62" y="22.91" width="2" height="25.33" transform="translate(-18.51 20.29) rotate(-39.99)"/><rect class="cls-1" x="32.72" y="34.58" width="25.33" height="2" transform="translate(-11.04 47.49) rotate(-50.01)"/><rect class="cls-1" x="31" y="22.25" width="2" height="23.03"/><path class="cls-2" d="M12.75,26.63a9.46,9.46,0,0,1,5.9,1.85.8.8,0,0,0,1,0,9.46,9.46,0,0,1,5.9-1.85,9.46,9.46,0,0,1,5.9,1.85.81.81,0,0,0,1,0,9.46,9.46,0,0,1,5.9-1.85,9.46,9.46,0,0,1,5.9,1.85.8.8,0,0,0,1,0,9.46,9.46,0,0,1,5.9-1.85A11,11,0,0,1,54,27a.88.88,0,0,0,1.09-1.08,23.86,23.86,0,0,0-46.2,0A.88.88,0,0,0,10,27,11,11,0,0,1,12.75,26.63Z"/><rect class="cls-3" x="23.69" y="40.94" width="16.62" height="15.06" rx="0.37"/><path class="cls-4" d="M29.61,40.94h4.78a0,0,0,0,1,0,0v3.48a.81.81,0,0,1-.81.81H30.42a.81.81,0,0,1-.81-.81V40.94A0,0,0,0,1,29.61,40.94Z"/></svg>