<svg id="Layer_1" data-name="Layer 1" xmlns="http://www.w3.org/2000/svg" viewBox="0 0 64 64"><defs><style>.cls-1{fill:#FC0707;}.cls-2{fill:#DD1515;}.cls-3{fill:#F4DFDF;}.cls-4{fill:#e5cccc;}.cls-5{fill:#fff;}</style></defs><title>logistic, delivery, truck, vehicle, transportation, transport, arrow</title><path class="cls-1" d="M50.35,49.37a3.3,3.3,0,0,0-2.86,5H47V56h3.31a3.32,3.32,0,1,0,0-6.63Z"/><path class="cls-2" d="M53.53,53.6a3.47,3.47,0,0,0,.14-.92,3.29,3.29,0,0,0-.18-1H47.22a3.29,3.29,0,0,0-.18,1,3.1,3.1,0,0,0,.14.92Z"/><path class="cls-2" d="M50.35,52.68A3.32,3.32,0,1,0,47,56,3.31,3.31,0,0,0,50.35,52.68Z"/><path class="cls-3" d="M23.15,24.25H40.44a7.64,7.64,0,0,1,7.64,7.64v20.8a0,0,0,0,1,0,0H21.32a2,2,0,0,1-2-2V28.09A3.84,3.84,0,0,1,23.15,24.25Z"/><path class="cls-1" d="M39.59,32H49.88A6.12,6.12,0,0,1,56,38.15V51.43a1.26,1.26,0,0,1-1.26,1.26h-18a0,0,0,0,1,0,0V34.85A2.82,2.82,0,0,1,39.59,32Z"/><path class="cls-1" d="M40.33,49.31a3.33,3.33,0,0,0-2.89,5H37V56h3.34a3.35,3.35,0,1,0,0-6.69Z"/><path class="cls-2" d="M43.53,53.58a3.11,3.11,0,0,0,.15-.92,3.42,3.42,0,0,0-.19-1.06H37.17A3.42,3.42,0,0,0,37,52.66a3.1,3.1,0,0,0,.14.92Z"/><path class="cls-2" d="M56,45.94H48.7V38.15A6.13,6.13,0,0,0,42.57,32h-5.8V52.68H47.44a1.26,1.26,0,0,0,1.26-1.25V47.21a.74.74,0,0,1,.74-.74H56Z"/><path class="cls-1" d="M28.23,49.37a3.32,3.32,0,0,0-3.32,3.31,3.42,3.42,0,0,0,.45,1.65h-.45V56h3.32a3.32,3.32,0,1,0,0-6.63Z"/><path class="cls-2" d="M31.4,53.6a3.11,3.11,0,0,0,.15-.92,3.3,3.3,0,0,0-.19-1H25.1a3.3,3.3,0,0,0-.19,1,3.47,3.47,0,0,0,.14.92Z"/><path class="cls-2" d="M28.23,52.68A3.32,3.32,0,1,0,24.91,56,3.32,3.32,0,0,0,28.23,52.68Z"/><path class="cls-1" d="M18.25,49.31a3.33,3.33,0,0,0-2.89,5h-.45V56h3.34a3.35,3.35,0,1,0,0-6.69Z"/><path class="cls-2" d="M21.45,53.58a3.11,3.11,0,0,0,.15-.92,3.42,3.42,0,0,0-.19-1.06H15.09a3.42,3.42,0,0,0-.18,1.06,3.1,3.1,0,0,0,.14.92Z"/><path class="cls-4" d="M11.76,24.25H29.13a7.64,7.64,0,0,1,7.64,7.64v20.8a0,0,0,0,1,0,0H10a2,2,0,0,1-2-2V28A3.76,3.76,0,0,1,11.76,24.25Z"/><path class="cls-3" d="M42.34,51.17a1.32,1.32,0,0,1-1.17-.73,4.9,4.9,0,0,0-8.8,0,1.31,1.31,0,0,1-1.17.73H20.44a1.31,1.31,0,0,1-1.17-.73,4.9,4.9,0,0,0-8.8,0,1.32,1.32,0,0,1-1.17.73H8.07A2,2,0,0,0,10,52.68H36.77v0h3.15v0H54.74A1.25,1.25,0,0,0,56,51.43v-.26Z"/><path class="cls-2" d="M18.19,52.68A3.32,3.32,0,1,0,14.87,56,3.32,3.32,0,0,0,18.19,52.68Z"/><circle class="cls-3" cx="14.87" cy="52.68" r="0.83"/><path class="cls-3" d="M48.7,51.43v-.26H39.92v1.51h7.52A1.26,1.26,0,0,0,48.7,51.43Z"/><path class="cls-2" d="M40.09,52.68A3.32,3.32,0,1,0,36.77,56,3.32,3.32,0,0,0,40.09,52.68Z"/><circle class="cls-3" cx="36.77" cy="52.68" r="0.83"/><path class="cls-3" d="M56,38.75H44.7a1.38,1.38,0,0,0-1.39,1.38v4.42a1.39,1.39,0,0,0,1.39,1.39H56Z"/><path class="cls-4" d="M48.7,38.75H43.85a.54.54,0,0,0-.54.54v5.26a1.39,1.39,0,0,0,1.39,1.39h4Z"/><path class="cls-3" d="M56,48.18H46.8a.41.41,0,0,0-.41.41.41.41,0,0,0,.41.41H56Z"/><path class="cls-5" d="M48.7,48.18H46.8a.41.41,0,0,0-.41.41.41.41,0,0,0,.41.41h1.9Z"/><rect class="cls-5" x="54.91" y="48.18" width="1.09" height="0.82"/><path class="cls-5" d="M28.15,37.64l-6.17-5a.51.51,0,0,0-.84.39v1.2a.5.5,0,0,1-.5.5H17.07A1.11,1.11,0,0,0,16,35.79v4.49a1.11,1.11,0,0,0,1.11,1.11h3.57a.5.5,0,0,1,.5.51v1.19a.52.52,0,0,0,.84.4l6.17-5.06A.51.51,0,0,0,28.15,37.64Z"/></svg>