<svg id="Layer_1" data-name="Layer 1" xmlns="http://www.w3.org/2000/svg" viewBox="0 0 64 64"><defs><style>.cls-1{fill:#dfe8f4;}.cls-2{fill:#ccd8e5;}.cls-3{fill:#fff;}.cls-4{fill:#ff5454;}.cls-5{fill:#dd1515;}</style></defs><title>logistic, delivery, online, smartphone, confirm, package, box</title><rect class="cls-1" x="18.11" y="9.2" width="27.91" height="45.6" rx="5.01"/><polygon class="cls-2" points="46.02 48.6 46.02 38.53 38.71 41.29 46.02 48.6"/><path class="cls-3" d="M21.78,54.6l.16,0,.23.05h0A.87.87,0,0,0,21.78,54.6Z"/><path class="cls-3" d="M18.54,14.44V51.8h0a4.48,4.48,0,0,0,.35.65l.18.27a4.6,4.6,0,0,0,.45.54,1.8,1.8,0,0,0,.2.19,4.22,4.22,0,0,0,.46.38l.23.17.13.06V13.72a2.56,2.56,0,0,1,2.55-2.56H45a5.51,5.51,0,0,0-.71-.74l-.17-.14a4.8,4.8,0,0,0-.52-.36c-.14-.08-.29-.17-.44-.24l-.29-.13a6.34,6.34,0,0,0-.74-.23l-.19,0A5.27,5.27,0,0,0,41,9.2H23.44A5.25,5.25,0,0,0,18.54,14.44Z"/><path class="cls-3" d="M20.71,54.16a5.11,5.11,0,0,0,1,.4l-.33-.1-.27-.11C21,54.3,20.83,54.22,20.71,54.16Z"/><path class="cls-3" d="M45.91,14.44V50.8h0a4.74,4.74,0,0,0,.11-1V14.21c0-.11,0-.21,0-.32A2.51,2.51,0,0,0,45.91,14.44Z"/><path class="cls-4" d="M41.48,10a3.28,3.28,0,0,1,3.27,3.27V50.73A3.28,3.28,0,0,1,41.48,54H22.65a3.27,3.27,0,0,1-3.27-3.27V13.27A3.27,3.27,0,0,1,22.65,10H41.48m0-2H22.65a5.27,5.27,0,0,0-5.27,5.27V50.73A5.27,5.27,0,0,0,22.65,56H41.48a5.27,5.27,0,0,0,5.27-5.27V13.27A5.27,5.27,0,0,0,41.48,8Z"/><path class="cls-4" d="M41.27,12.12H38.85a1,1,0,0,0,0,2.09h2.42a1,1,0,0,0,0-2.09Z"/><rect class="cls-4" x="38.41" y="25.61" width="17.8" height="16.13" rx="1.27"/><path class="cls-5" d="M49,30.21H45.62a.87.87,0,0,1-.87-.87V25.61h5.12v3.73A.87.87,0,0,1,49,30.21Z"/><path class="cls-3" d="M27.26,37.66l-2.48-2.48a1.81,1.81,0,0,1-.26-2.32,1.75,1.75,0,0,1,2.67-.22l.84.84,3.53-3.54a1.83,1.83,0,0,1,2.32-.25,1.75,1.75,0,0,1,.23,2.67l-5.31,5.3A1.08,1.08,0,0,1,27.26,37.66Z"/></svg>