<svg id="Layer_1" data-name="Layer 1" xmlns="http://www.w3.org/2000/svg" viewBox="0 0 64 64"><defs><style>.cls-1{fill:#dd1515;}.cls-2{fill:#dfe8f4;}.cls-3{fill:#ff5454;}.cls-4{fill:#ccd8e5;}</style></defs><title>logistic, delivery, man, hand, package, boxes, multiple</title><path class="cls-1" d="M25.75,12.26H22.91V11h2.84a.65.65,0,0,1,.66.65h0A.66.66,0,0,1,25.75,12.26Z"/><path class="cls-2" d="M24.14,14.11V11a2.08,2.08,0,0,0-1.05-1.81l-1.61-.94a2.11,2.11,0,0,0-2.09,0l-1.62.94a2.09,2.09,0,0,0-1,1.81v3.12a3.25,3.25,0,0,0,1.62,2.82l.52.3a3.13,3.13,0,0,0,3.13,0l.52-.3A3.25,3.25,0,0,0,24.14,14.11Z"/><path class="cls-3" d="M20.43,12a22.3,22.3,0,0,1,3.71.3V11a2.08,2.08,0,0,0-1.05-1.81l-1.61-.94a2.11,2.11,0,0,0-2.09,0l-1.62.94a2.09,2.09,0,0,0-1,1.81v1.27A22.17,22.17,0,0,1,20.43,12Z"/><path class="cls-2" d="M16.62,20.31,10.4,26.67a2.36,2.36,0,0,0-.69,1.67h0a2.39,2.39,0,0,0,2.4,2.39H17Z"/><path class="cls-2" d="M20.29,18.79c-3.27,0-6,2.34-7,11.94h3.25a.92.92,0,0,1,.92.92h0a.92.92,0,0,1-.92.92H15.24a2.19,2.19,0,0,0-2.19,2.09C13,36,13,37.37,13,38.89v15.9a1.25,1.25,0,0,0,2.46.28L18.92,40a1.42,1.42,0,0,1,1.37-1.1h0A1.42,1.42,0,0,1,21.67,40l3.5,15.08a1.25,1.25,0,0,0,2.46-.28V38.89C27.63,22.38,24.34,18.79,20.29,18.79Z"/><path class="cls-2" d="M20.29,18.79c-3.27,0-6,2.34-7,11.94h3.25a.92.92,0,0,1,.92.92h0a.92.92,0,0,1-.92.92H15.24a2.19,2.19,0,0,0-2.19,2.09C13,36,13,37.37,13,38.89v15.9a1.25,1.25,0,0,0,2.46.28L18.92,40a1.42,1.42,0,0,1,1.37-1.1h0A1.42,1.42,0,0,1,21.67,40l3.5,15.08a1.25,1.25,0,0,0,2.46-.28V38.89C27.63,22.38,24.34,18.79,20.29,18.79Z"/><polygon class="cls-4" points="20.45 19.73 15.38 27.96 21.1 30.38 24.38 27.96 20.45 19.73"/><path class="cls-4" d="M26.88,27.69l-10.32,3a.92.92,0,0,1,0,1.84H15.25a2.63,2.63,0,0,0-.49,0H27.43A48.31,48.31,0,0,0,26.88,27.69Z"/><path class="cls-2" d="M35,27.89l-2-.63a11.69,11.69,0,0,1-4.58-2.72l-4.67-4.49,2,8.48,1.36.32h0c0-.27-.07-.54-.11-.8a1,1,0,0,1,1-1.14h0a1,1,0,0,1,1,.83c0,.24.07.48.11.73a1,1,0,0,0,.85.85,24.29,24.29,0,0,0,2.83.17h2a.82.82,0,0,0,.82-.82A.83.83,0,0,0,35,27.89Z"/><rect class="cls-3" x="20.29" y="19.33" width="12.58" height="11.4" rx="0.9"/><path class="cls-1" d="M24.78,19.33h3.62a0,0,0,0,1,0,0V22a.61.61,0,0,1-.61.61H25.39a.61.61,0,0,1-.61-.61V19.33a0,0,0,0,1,0,0Z"/><path class="cls-4" d="M17.57,31.65a.92.92,0,0,1-.91.92H15.34a2.2,2.2,0,0,0-2.2,2.09c-.05,1.31-.08,2.71-.08,4.23v15.9a1.25,1.25,0,0,0,2.46.28L19,40a1.42,1.42,0,0,1,1.38-1.1h0a2.82,2.82,0,0,1-2.82-2.82Z"/><path class="cls-2" d="M21.1,30.73H15.38V28l5.83.57a1.1,1.1,0,0,1,1,1.1h0A1.11,1.11,0,0,1,21.1,30.73Z"/><path class="cls-4" d="M17.48,31.65a.92.92,0,0,1-.92.92H15.25a2.19,2.19,0,0,0-2.2,2.09C13,36,13,37.37,13,38.89v15.9a1.25,1.25,0,0,0,2.46.28L18.92,40a1.42,1.42,0,0,1,1.37-1.1h0A1.42,1.42,0,0,1,21.67,40l3.5,15.08a1.25,1.25,0,0,0,2.46-.28V38.89c0-3-.11-5.56-.32-7.77h-10A.92.92,0,0,1,17.48,31.65Z"/><path class="cls-3" d="M31.74,44.64H43.42a0,0,0,0,1,0,0V56a0,0,0,0,1,0,0H31.74a.9.9,0,0,1-.9-.9V45.53A.9.9,0,0,1,31.74,44.64Z"/><path class="cls-1" d="M35.32,44.64h3.62a0,0,0,0,1,0,0v2.63a.61.61,0,0,1-.61.61H35.93a.61.61,0,0,1-.61-.61V44.64A0,0,0,0,1,35.32,44.64Z"/><path class="cls-1" d="M43.42,44.64H55.1a.9.9,0,0,1,.9.9v9.61a.9.9,0,0,1-.9.9H43.42a0,0,0,0,1,0,0V44.64A0,0,0,0,1,43.42,44.64Z"/><path class="cls-3" d="M47.9,44.64h3.62a0,0,0,0,1,0,0v2.63a.61.61,0,0,1-.61.61H48.51a.61.61,0,0,1-.61-.61V44.64A0,0,0,0,1,47.9,44.64Z"/><path class="cls-3" d="M39.83,33.24H50.62a.9.9,0,0,1,.9.9v10.5a0,0,0,0,1,0,0H38.94a0,0,0,0,1,0,0V34.13A.9.9,0,0,1,39.83,33.24Z"/><path class="cls-1" d="M43.42,33.24H47a0,0,0,0,1,0,0v2.63a.61.61,0,0,1-.61.61H44a.61.61,0,0,1-.61-.61V33.24A0,0,0,0,1,43.42,33.24Z"/></svg>