<svg id="Layer_1" data-name="Layer 1" xmlns="http://www.w3.org/2000/svg" viewBox="0 0 64 64"><defs><style>.cls-1{fill:#dfe8f4;}.cls-2{fill:#ccd8e5;}.cls-3{fill:#ff5454;}.cls-4{fill:#dd1515;}.cls-5{fill:#fff;}</style></defs><title>logistic, delivery, transport, transportation, scooter, vehicle, arrow</title><rect class="cls-1" x="18.45" y="11.14" width="17.9" height="17.9" rx="0.93"/><path class="cls-2" d="M33.45,23.71l-5.33,5.34h7.31a.93.93,0,0,0,.93-.93V25.25Z"/><path class="cls-3" d="M21.58,47.52A4.33,4.33,0,0,0,17.82,54h-.59v2.2h4.35a4.36,4.36,0,1,0,0-8.71Z"/><path class="cls-4" d="M17.23,51.87a4.33,4.33,0,0,0,.46,1.9h7.8a4.32,4.32,0,0,0,.45-1.9,4.43,4.43,0,0,0-.24-1.37H17.47A4.43,4.43,0,0,0,17.23,51.87Z"/><path class="cls-4" d="M25.75,53.08a4,4,0,0,0-.05-2.58H17.47a4.43,4.43,0,0,0-.24,1.37,4.37,4.37,0,0,0,.18,1.21Z"/><circle class="cls-4" cx="16.95" cy="51.91" r="4.32"/><path class="cls-1" d="M21.77,51.91h-1a3.83,3.83,0,0,0-7.65,0h-1a4.83,4.83,0,0,1,9.65,0Z"/><path class="cls-3" d="M49.7,49.62a3.31,3.31,0,0,0-3.3,3.31,3.24,3.24,0,0,0,.45,1.63H46.4v1.67h3.3a3.31,3.31,0,0,0,0-6.61Z"/><path class="cls-4" d="M52.86,53.84a3.46,3.46,0,0,0,.14-.91,3.2,3.2,0,0,0-.18-1H46.58a3.49,3.49,0,0,0-.18,1,3.09,3.09,0,0,0,.14.91Z"/><path class="cls-2" d="M42.63,26.68l11.2-1a1.11,1.11,0,0,0,1-1.1h0a1.11,1.11,0,0,0-1.11-1.11H42.63Z"/><path class="cls-1" d="M54.84,24.6a1.11,1.11,0,0,0-1.11-1.11H34.12a1.15,1.15,0,0,0-1.14.88,1.11,1.11,0,0,0,1,1.33l3.36.3a2.07,2.07,0,0,1,1.89,2.06,4.58,4.58,0,0,0,4.58,4.57h2A3.67,3.67,0,0,0,49.5,29v-3a1.32,1.32,0,0,1,1.32-1.32h4Z"/><path class="cls-3" d="M53.27,23.49h.46a1.11,1.11,0,0,1,.1,2.21l-.56.05Z"/><path class="cls-1" d="M37.12,39.08v2a2.49,2.49,0,0,1-2.49,2.5h0a2.5,2.5,0,0,1-2.5-2.5V34.91c0-1.26-1-2.28-2.27-3H8v.86A3.59,3.59,0,0,0,10.08,36a1,1,0,0,1,.31,1.54A12,12,0,0,0,8,44.68v2.85A5.42,5.42,0,0,0,13.45,53h37a1,1,0,0,0,1-1V39.08A6.44,6.44,0,0,0,45,32.63H43.57A6.45,6.45,0,0,0,37.12,39.08Z"/><path class="cls-1" d="M37.12,39.08v2a2.49,2.49,0,0,1-2.49,2.5h0a2.5,2.5,0,0,1-2.5-2.5V34.91c0-1.26-1-2.28-2.27-3H8v.86A3.59,3.59,0,0,0,10.08,36a1,1,0,0,1,.31,1.54A12,12,0,0,0,8,44.68v2.85A5.42,5.42,0,0,0,13.45,53h37a1,1,0,0,0,1-1V39.08A6.44,6.44,0,0,0,45,32.63H43.57A6.45,6.45,0,0,0,37.12,39.08Z"/><path class="cls-2" d="M29.86,31.9H8v.86a4.06,4.06,0,0,0,.08.7H31.64A5.45,5.45,0,0,0,29.86,31.9Z"/><path class="cls-2" d="M32.13,41.09v-4.2h-3.6v3.33a3.36,3.36,0,0,0,3.36,3.37h2.74A2.5,2.5,0,0,1,32.13,41.09Z"/><path class="cls-3" d="M30.9,29.05h-20A2.84,2.84,0,0,0,8,31.89H8a.75.75,0,0,0,.75.74H26.46a2.07,2.07,0,0,1,2.07,2.07v2.19a3.36,3.36,0,0,0,3.36,3.36h0a2.64,2.64,0,0,0,2.64-2.64V32.67A3.62,3.62,0,0,0,30.9,29.05Z"/><path class="cls-4" d="M28.53,35.12v1.77a3.32,3.32,0,0,0,1.23,2.58,2.61,2.61,0,0,0,.77-1.86V32.92a3.87,3.87,0,0,0-3.87-3.87H10.87a2.84,2.84,0,0,0-2.74,3.58H26A2.5,2.5,0,0,1,28.53,35.12Z"/><path class="cls-2" d="M51.36,45.08H49.61A2.59,2.59,0,0,1,47,42.5V40a1.53,1.53,0,0,0-1.32-1.56A1.48,1.48,0,0,0,44.08,40V45.6a4.81,4.81,0,0,1-4.81,4.81H28.41a2.48,2.48,0,0,1-2.47-2.47V45.49a7,7,0,0,0-5.28-6.85l-.35-.07a1.13,1.13,0,0,0-1,1.89,6.71,6.71,0,0,1,2,4.76h0a5.2,5.2,0,0,1-5.19,5.19H8.88A2.54,2.54,0,0,0,11.42,53H55.48a.56.56,0,0,0,.56-.56V49.75A4.68,4.68,0,0,0,51.36,45.08Z"/><path class="cls-1" d="M51.36,45.08H48.6a4.67,4.67,0,0,1,4.67,4.67v2.64a.56.56,0,0,1-.55.56h2.76a.56.56,0,0,0,.56-.56V49.75A4.68,4.68,0,0,0,51.36,45.08Z"/><path class="cls-4" d="M34.53,23.49h-.46A1.11,1.11,0,0,0,34,25.7l.56.05Z"/><path class="cls-5" d="M46.38,30.56h0a1.68,1.68,0,0,1-1.69-1.69V27.2a1.64,1.64,0,0,1,1.64-1.65h.52a1.22,1.22,0,0,1,1.22,1.22v2.1A1.69,1.69,0,0,1,46.38,30.56Z"/><circle class="cls-4" cx="46.19" cy="52.95" r="3.27"/><path class="cls-1" d="M50,53H49a2.78,2.78,0,0,0-5.55,0h-1A3.78,3.78,0,0,1,50,53Z"/><path class="cls-2" d="M9,11.14h17a0,0,0,0,1,0,0V29a0,0,0,0,1,0,0H9A.93.93,0,0,1,8,28.12v-16A.93.93,0,0,1,9,11.14Z"/><path class="cls-5" d="M23,19.7l-6.17-5.06A.51.51,0,0,0,16,15v1.2a.51.51,0,0,1-.51.5H11.91a1.11,1.11,0,0,0-1.11,1.11v4.49a1.11,1.11,0,0,0,1.11,1.11h3.57A.51.51,0,0,1,16,24v1.2a.51.51,0,0,0,.83.4L23,20.49A.51.51,0,0,0,23,19.7Z"/></svg>