<svg id="Layer_1" data-name="Layer 1" xmlns="http://www.w3.org/2000/svg" viewBox="0 0 64 64"><defs><style>.cls-1{fill:#ff5454;}.cls-2{fill:#dd1515;}.cls-3{fill:#dfe8f4;}.cls-4{fill:#ccd8e5;}.cls-5{fill:#fff;}</style></defs><title>logistic, delivery, warehouse, storage, empty, vacant</title><path class="cls-1" d="M8,23V56H56V23a2.83,2.83,0,0,0-1.42-2.46L33.42,8.35a2.83,2.83,0,0,0-2.84,0L9.43,20.56A2.83,2.83,0,0,0,8,23Z"/><rect class="cls-2" x="8.01" y="53.17" width="47.97" height="2.83"/><path class="cls-3" d="M17.17,28.25H46.83a1.1,1.1,0,0,1,1.1,1.1V56a0,0,0,0,1,0,0H16.06a0,0,0,0,1,0,0V29.35A1.1,1.1,0,0,1,17.17,28.25Z"/><path class="cls-4" d="M46.83,28.25H17.17a1.11,1.11,0,0,0-1.11,1.1V56H47.94V29.35A1.11,1.11,0,0,0,46.83,28.25ZM44.94,53H19.06V31.25H44.94Z"/><path class="cls-5" d="M32,40.64a.82.82,0,0,0-.82.82v2.16a.82.82,0,1,0,1.64,0V41.46A.82.82,0,0,0,32,40.64Z"/><path class="cls-5" d="M26.89,42.61a.82.82,0,0,0-1.42.82l1.08,1.87A.82.82,0,0,0,28,44.48Z"/><path class="cls-5" d="M38.23,42.31a.82.82,0,0,0-1.12.3L36,44.48a.82.82,0,0,0,1.42.82l1.08-1.87A.83.83,0,0,0,38.23,42.31Z"/><path class="cls-5" d="M24.2,47.65l-1.87-1.08A.82.82,0,0,0,21.52,48l1.87,1.08a.82.82,0,0,0,.81-1.42Z"/><path class="cls-5" d="M40.61,49.07,42.48,48a.82.82,0,0,0-.81-1.42L39.8,47.65a.82.82,0,0,0,.81,1.42Z"/></svg>