<svg id="Layer_1" data-name="Layer 1" xmlns="http://www.w3.org/2000/svg" viewBox="0 0 64 64"><defs><style>.cls-1{fill:#ff5454;}.cls-2{fill:#dfe8f4;}.cls-3{fill:#ccd8e5;}.cls-4{fill:#dd1515;}</style></defs><title>logistic, delivery, transport, transportation, airplane, air, free</title><path class="cls-1" d="M18.92,37.43H12.77A3.77,3.77,0,0,1,9,33.65V23.09a.54.54,0,0,1,.54-.54H10.8A2.35,2.35,0,0,1,13,24Z"/><path class="cls-2" d="M54.06,37.43H15.88V27.05H49.07a4.29,4.29,0,0,1,3,1.24l1.57,1.56A7.91,7.91,0,0,1,56,35.48h0A1.94,1.94,0,0,1,54.06,37.43Z"/><path class="cls-3" d="M49.12,37.43H12.76a1.82,1.82,0,0,1-1.82-1.83V27.05h33.2a4.28,4.28,0,0,1,3,1.24l1.58,1.56a7.94,7.94,0,0,1,2.34,5.63h0A1.94,1.94,0,0,1,49.12,37.43Z"/><path class="cls-4" d="M13.15,37.43l2-5.09a1.77,1.77,0,0,0,0-1.32L12,24a2.35,2.35,0,0,0-2.15-1.4H8.54a.54.54,0,0,0-.54.54v10.6a3.74,3.74,0,0,0,3.74,3.74Z"/><path class="cls-4" d="M18.35,27.05h-2.3l1.76,4a1.77,1.77,0,0,1,0,1.32l-2,5.09h2.3l2-5.09a1.73,1.73,0,0,0,0-1.32Z"/><path class="cls-1" d="M53.65,29.85l-.74-.74H46.59a1.54,1.54,0,0,0,0,3.07h8.68A7.76,7.76,0,0,0,53.65,29.85Z"/><path class="cls-4" d="M48.72,29.85,48,29.11H46.59a1.54,1.54,0,0,0,0,3.07h3.74A7.91,7.91,0,0,0,48.72,29.85Z"/><path class="cls-4" d="M18,47.93h0a.74.74,0,0,1-.52-1.26l9.28-9.24H37.93l-15,9.13A9.51,9.51,0,0,1,18,47.93Z"/><path class="cls-1" d="M18,16.55h0a.74.74,0,0,0-.52,1.26l9.28,9.24H37.93l-15-9.13A9.51,9.51,0,0,0,18,16.55Z"/><circle class="cls-2" cx="34.55" cy="29.74" r="0.63"/><circle class="cls-2" cx="37.32" cy="29.74" r="0.63"/><path class="cls-2" d="M40.72,29.74a.64.64,0,0,1-.63.64.64.64,0,0,1,0-1.27A.63.63,0,0,1,40.72,29.74Z"/><circle class="cls-2" cx="42.86" cy="29.74" r="0.63"/><path class="cls-2" d="M48.31,44.35H48.2a1.6,1.6,0,0,1-1.37-.84,1.66,1.66,0,0,0-1.44-.83H42a1.74,1.74,0,0,0-1.76,1.5A1.67,1.67,0,0,0,41.88,46h.21a1.61,1.61,0,0,1,1.37.85,1.69,1.69,0,0,0,1.44.83h3.51a1.67,1.67,0,0,0,1.66-1.85A1.73,1.73,0,0,0,48.31,44.35Z"/><path class="cls-2" d="M37.19,45.76h0a1.54,1.54,0,0,1-1.54-1.54h0a1.54,1.54,0,0,1,1.54-1.54h0a1.54,1.54,0,0,1,1.54,1.54h0A1.54,1.54,0,0,1,37.19,45.76Z"/></svg>