<svg id="Layer_1" data-name="Layer 1" xmlns="http://www.w3.org/2000/svg" viewBox="0 0 64 64"><defs><style>.cls-1{fill:#e5cccc;}.cls-2{fill:#F4DFDF;}.cls-3{fill:#FC0707;}.cls-4{fill:#DD1515;}</style></defs><title>logistic, delivery, weight, scale, weigh, package, box</title><path class="cls-1" d="M44,20A12,12,0,0,0,31.52,8a12,12,0,0,0-3.58,23.28,4,4,0,0,1,2.68,3.82V49.5h2.76V35.12A4,4,0,0,1,36,31.32,12,12,0,0,0,44,20Z"/><circle class="cls-2" cx="32" cy="20" r="12"/><path class="cls-3" d="M30.67,18.67l5.64-3.22a.18.18,0,0,1,.24.24l-3.18,5.58a2,2,0,0,1-2.24,1,2,2,0,0,1-1.2-2.86A1.85,1.85,0,0,1,30.67,18.67Z"/><path class="cls-1" d="M55.17,46.88H8.83a.83.83,0,0,0-.83.83V52a.84.84,0,0,0,.83.84h0a1.55,1.55,0,0,1,1.56,1.55h0A1.56,1.56,0,0,0,12,56h1.19a1.56,1.56,0,0,0,1.56-1.56h0a1.56,1.56,0,0,1,1.56-1.56H47.74a1.56,1.56,0,0,1,1.56,1.56h0A1.56,1.56,0,0,0,50.86,56h1.19a1.56,1.56,0,0,0,1.56-1.56h0a1.55,1.55,0,0,1,1.56-1.55h0A.84.84,0,0,0,56,52V47.71A.83.83,0,0,0,55.17,46.88Z"/><rect class="cls-2" x="8" y="46.88" width="48" height="6" rx="0.83"/><rect class="cls-3" x="12.85" y="35.33" width="12.81" height="11.6" rx="0.28"/><path class="cls-1" d="M17.41,35.33h3.68a0,0,0,0,1,0,0V38a.62.62,0,0,1-.62.62H18a.62.62,0,0,1-.62-.62V35.33A0,0,0,0,1,17.41,35.33Z"/><rect class="cls-4" x="38.35" y="35.33" width="12.81" height="11.6" rx="0.28"/><path class="cls-1" d="M42.91,35.33h3.68a0,0,0,0,1,0,0V38a.62.62,0,0,1-.62.62H43.53a.62.62,0,0,1-.62-.62V35.33A0,0,0,0,1,42.91,35.33Z"/></svg>