<svg id="Layer_1" data-name="Layer 1" xmlns="http://www.w3.org/2000/svg" viewBox="0 0 64 64"><defs><style>.cls-1{fill:#ccd8e5;}.cls-2{fill:#dfe8f4;}.cls-3{fill:#ff5454;}.cls-4{fill:#dd1515;}</style></defs><title>logistic, delivery, weight, weigh, scale, package, box</title><path class="cls-1" d="M52.71,29.38H11.29A1.73,1.73,0,0,0,9.56,31.1v.84a1.74,1.74,0,0,0,1.73,1.73h7.85a3.46,3.46,0,0,1,3.46,3.45H41.4a3.46,3.46,0,0,1,3.46-3.45h7.85a1.74,1.74,0,0,0,1.73-1.73V31.1A1.73,1.73,0,0,0,52.71,29.38Z"/><path class="cls-1" d="M45.12,36H18.88A10.88,10.88,0,0,0,8,46.88v6A3.11,3.11,0,0,0,11.11,56h0a3.13,3.13,0,0,0,2.57-1.35l1.39-2a3.13,3.13,0,0,1,2.57-1.35H46.36a3.13,3.13,0,0,1,2.57,1.35l1.39,2A3.13,3.13,0,0,0,52.89,56h0A3.11,3.11,0,0,0,56,52.89v-6A10.88,10.88,0,0,0,45.12,36Z"/><path class="cls-2" d="M45.12,36H18.88A10.88,10.88,0,0,0,8,46.88H8a4.29,4.29,0,0,0,4.29,4.29H51.71A4.29,4.29,0,0,0,56,46.88h0A10.88,10.88,0,0,0,45.12,36Z"/><path class="cls-3" d="M30.3,46H17.63A1.61,1.61,0,0,1,16,44.4h0a1.61,1.61,0,0,1,1.61-1.61H30.3a1.61,1.61,0,0,1,1.6,1.61h0A1.6,1.6,0,0,1,30.3,46Z"/><rect class="cls-1" x="34.39" y="43.79" width="1.21" height="1.21" rx="0.41"/><rect class="cls-1" x="37.48" y="43.79" width="1.21" height="1.21" rx="0.41"/><rect class="cls-1" x="40.58" y="43.79" width="1.21" height="1.21" rx="0.41"/><rect class="cls-1" x="43.67" y="43.79" width="1.21" height="1.21" rx="0.41"/><rect class="cls-1" x="46.77" y="43.79" width="1.21" height="1.21" rx="0.41"/><path class="cls-2" d="M52.71,29.38H11.29A1.73,1.73,0,0,0,9.56,31.1v.28H54.44V31.1A1.73,1.73,0,0,0,52.71,29.38Z"/><rect class="cls-3" x="14.28" y="14.9" width="15.98" height="14.48" rx="0.35"/><path class="cls-1" d="M20,14.9h4.59a0,0,0,0,1,0,0v3.35a.78.78,0,0,1-.78.78h-3a.78.78,0,0,1-.78-.78V14.9A0,0,0,0,1,20,14.9Z"/><rect class="cls-4" x="33.74" y="14.9" width="15.98" height="14.48" rx="0.35"/><path class="cls-1" d="M39.44,14.9H44a0,0,0,0,1,0,0v3.35a.78.78,0,0,1-.78.78h-3a.78.78,0,0,1-.78-.78V14.9A0,0,0,0,1,39.44,14.9Z"/></svg>