<svg id="Layer_1" data-name="Layer 1" xmlns="http://www.w3.org/2000/svg" viewBox="0 0 64 64"><defs><style>.cls-1{fill:#F4DFDF;}.cls-2{fill:#e5cccc;}.cls-3{fill:#FC0707;}.cls-4{fill:#DD1515;}</style></defs><title>logistic, delivery, home, front, door, package, box</title><path class="cls-1" d="M34,14.62V49.38H13V14.62H34m1.17-3.09H11.84a1.92,1.92,0,0,0-1.92,1.92v37.1a1.92,1.92,0,0,0,1.92,1.92H35.18a1.93,1.93,0,0,0,1.93-1.92V13.45a1.93,1.93,0,0,0-1.93-1.92Z"/><path class="cls-2" d="M12.67,13.19V50.81a2.12,2.12,0,0,0,.8,1.66H29V49.38H13V14.62H29V11.53H13.47A2.12,2.12,0,0,0,12.67,13.19Z"/><path class="cls-3" d="M23.61,55.93l-12.08-3a2.13,2.13,0,0,1-1.61-2.07V13.19a2.13,2.13,0,0,1,1.61-2.07l12.08-3a2.12,2.12,0,0,1,2.65,2.06V53.87A2.12,2.12,0,0,1,23.61,55.93Z"/><path class="cls-1" d="M20.14,33.28h0A1.28,1.28,0,0,1,18.85,32h0a1.28,1.28,0,0,1,1.29-1.28h0A1.28,1.28,0,0,1,21.42,32h0A1.28,1.28,0,0,1,20.14,33.28Z"/><rect class="cls-4" x="33.92" y="37.73" width="20.17" height="18.27" rx="0.45"/><path class="cls-2" d="M41.1,37.73h5.8a0,0,0,0,1,0,0v4.22a1,1,0,0,1-1,1H42.08a1,1,0,0,1-1-1V37.73A0,0,0,0,1,41.1,37.73Z"/></svg>