<svg id="Layer_1" data-name="Layer 1" xmlns="http://www.w3.org/2000/svg" viewBox="0 0 64 64"><defs><style>.cls-1{fill:#ff5454;}.cls-2{fill:#dd1515;}.cls-3{fill:#ccd8e5;}.cls-4{fill:#dfe8f4;}.cls-5{fill:#fff;}</style></defs><title>logistic, delivery, van, transportation, transport, vehicle, arrow</title><path class="cls-1" d="M49.24,50.14a2.93,2.93,0,0,0-2.93,2.93,2.87,2.87,0,0,0,.4,1.45h-.4V56h2.93a2.93,2.93,0,0,0,0-5.86Z"/><path class="cls-2" d="M52,53.88a3,3,0,0,0,.13-.81,3.12,3.12,0,0,0-.16-.92H46.47a3.12,3.12,0,0,0-.16.92,3,3,0,0,0,.12.81Z"/><circle class="cls-2" cx="46.31" cy="53.07" r="2.93"/><path class="cls-1" d="M31.89,50.14A2.93,2.93,0,0,0,29,53.07a2.87,2.87,0,0,0,.4,1.45H29V56h2.93a2.93,2.93,0,0,0,0-5.86Z"/><path class="cls-2" d="M34.69,53.88a3,3,0,0,0,.12-.81,2.82,2.82,0,0,0-.16-.92H29.12a2.82,2.82,0,0,0-.16.92,2.69,2.69,0,0,0,.12.81Z"/><circle class="cls-2" cx="28.96" cy="53.07" r="2.93"/><path class="cls-1" d="M40.45,50.14a2.93,2.93,0,0,0-2.93,2.93,3,3,0,0,0,.4,1.45h-.4V56h2.93a2.93,2.93,0,1,0,0-5.86Z"/><path class="cls-2" d="M43.25,53.88a2.69,2.69,0,0,0,.13-.81,2.82,2.82,0,0,0-.16-.92H37.69a2.83,2.83,0,0,0-.17.92,2.69,2.69,0,0,0,.13.81Z"/><path class="cls-1" d="M23.1,50.14a2.93,2.93,0,0,0-2.93,2.93,2.87,2.87,0,0,0,.4,1.45h-.4V56H23.1a2.93,2.93,0,0,0,0-5.86Z"/><path class="cls-2" d="M25.9,53.88a2.69,2.69,0,0,0,.13-.81,3.12,3.12,0,0,0-.16-.92H20.33a3.12,3.12,0,0,0-.16.92,2.69,2.69,0,0,0,.13.81Z"/><path class="cls-3" d="M53.8,53H15.66A1.7,1.7,0,0,1,14,51.35V32a3,3,0,0,1,3-3h25.8a5.87,5.87,0,0,1,4.51,2.11l7.87,9.43A3.75,3.75,0,0,1,56,43v7.88A2.2,2.2,0,0,1,53.8,53Z"/><path class="cls-4" d="M55.12,40.54l-7.87-9.43A5.87,5.87,0,0,0,42.74,29H32.85a5.87,5.87,0,0,1,4.51,2.11l7.87,9.43A3.75,3.75,0,0,1,46.11,43v5.86a3,3,0,0,1-3.06,3.07h-.63a1,1,0,0,1-.92-.59,4.33,4.33,0,0,0-8,0,1,1,0,0,1-.92.59H25.08a1,1,0,0,1-.92-.59,4.34,4.34,0,0,0-8,0,1,1,0,0,1-.92.59h-1.2A1.69,1.69,0,0,0,15.66,53H53.8a2.2,2.2,0,0,0,2.2-2.2V43A3.75,3.75,0,0,0,55.12,40.54Z"/><path class="cls-2" d="M36.92,34.54v3.68a3.37,3.37,0,0,0,3.37,3.37H55.74a3.59,3.59,0,0,0-.62-1.05L48.79,33H38.51A1.59,1.59,0,0,0,36.92,34.54Z"/><path class="cls-1" d="M38.9,33l6.33,7.58a3.56,3.56,0,0,1,.61,1.05h9.9a4,4,0,0,0-.27-.55,4.1,4.1,0,0,0-.35-.5L48.79,33Z"/><circle class="cls-2" cx="20.17" cy="53.07" r="2.93"/><path class="cls-4" d="M20.9,53.07a.73.73,0,1,0-.73.73A.73.73,0,0,0,20.9,53.07Z"/><circle class="cls-2" cx="37.52" cy="53.07" r="2.93"/><path class="cls-4" d="M38.26,53.07a.74.74,0,0,0-1.47,0,.74.74,0,0,0,1.47,0Z"/><rect class="cls-3" x="48.2" y="45.45" width="6.09" height="2.63"/><path class="cls-5" d="M48.2,48.08h0a.8.8,0,0,1-.8-.8v-1a.8.8,0,0,1,.8-.8h0a.8.8,0,0,1,.8.8v1A.8.8,0,0,1,48.2,48.08Z"/><path class="cls-5" d="M54.3,48.08h0a.8.8,0,0,1-.8-.8v-1a.8.8,0,0,1,.8-.8h0a.8.8,0,0,1,.8.8v1A.8.8,0,0,1,54.3,48.08Z"/><path class="cls-3" d="M8,30.19H8a1.18,1.18,0,0,0,1.19,1.18h3.58A1.19,1.19,0,0,1,14,32.56h0a1.19,1.19,0,0,1-1.19,1.19h-.58A1.19,1.19,0,0,0,11,34.94h0a1.18,1.18,0,0,0,1.19,1.18h.58A1.19,1.19,0,0,1,14,37.31V38.5h6V29H9.19A1.19,1.19,0,0,0,8,30.19Z"/><path class="cls-3" d="M9.19,36.12h0A1.18,1.18,0,0,1,8,34.94H8a1.19,1.19,0,0,1,1.19-1.19h0a1.19,1.19,0,0,1,1.19,1.19h0A1.19,1.19,0,0,1,9.19,36.12Z"/><path class="cls-5" d="M32.19,40.63,26,35.57a.52.52,0,0,0-.84.4v1.19a.5.5,0,0,1-.5.51H21.11A1.11,1.11,0,0,0,20,38.77v4.5a1.11,1.11,0,0,0,1.11,1.11h3.57a.5.5,0,0,1,.5.5v1.2a.51.51,0,0,0,.84.39l6.17-5A.51.51,0,0,0,32.19,40.63Z"/><path class="cls-4" d="M40.28,19.52h-.17A2.43,2.43,0,0,1,38,18.24,2.53,2.53,0,0,0,35.83,17H30.65A2.65,2.65,0,0,0,28,19.26a2.54,2.54,0,0,0,2.53,2.8h.32a2.44,2.44,0,0,1,2.08,1.29,2.55,2.55,0,0,0,2.2,1.26h5.33A2.55,2.55,0,0,0,43,21.8,2.65,2.65,0,0,0,40.28,19.52Z"/><path class="cls-4" d="M23.37,21.67h0A2.35,2.35,0,0,1,21,19.32h0A2.34,2.34,0,0,1,23.37,17h0a2.35,2.35,0,0,1,2.35,2.34h0A2.35,2.35,0,0,1,23.37,21.67Z"/></svg>