<svg id="Layer_1" data-name="Layer 1" xmlns="http://www.w3.org/2000/svg" viewBox="0 0 64 64"><defs><style>.cls-1{fill:#FC0707;}.cls-2{fill:#F4DFDF;}.cls-3{fill:#e5cccc;}.cls-4{fill:#DD1515;}.cls-5{fill:#fff;}</style></defs><title>logistic, delivery, airplane, air, transport, transportation, arrow</title><path class="cls-1" d="M18.92,37.48H12.77A3.77,3.77,0,0,1,9,33.7V23.14a.54.54,0,0,1,.54-.54H10.8A2.35,2.35,0,0,1,13,24Z"/><path class="cls-2" d="M54.06,37.48H15.88V27.1H49.07a4.29,4.29,0,0,1,3,1.24l1.57,1.56A7.91,7.91,0,0,1,56,35.53h0A1.94,1.94,0,0,1,54.06,37.48Z"/><path class="cls-3" d="M49.12,37.48H12.33a1.39,1.39,0,0,1-1.39-1.39v-9h33.2a4.28,4.28,0,0,1,3,1.24l1.58,1.56a7.94,7.94,0,0,1,2.34,5.63h0A1.94,1.94,0,0,1,49.12,37.48Z"/><path class="cls-4" d="M13.15,37.48l2-5.09a1.77,1.77,0,0,0,0-1.32L12,24A2.35,2.35,0,0,0,9.8,22.6H8.54a.54.54,0,0,0-.54.54v10.6a3.74,3.74,0,0,0,3.74,3.74Z"/><path class="cls-4" d="M18.35,27.1h-2.3l1.76,4a1.77,1.77,0,0,1,0,1.32l-2,5.09h2.3l2-5.09a1.73,1.73,0,0,0,0-1.32Z"/><path class="cls-1" d="M53.65,29.9l-.74-.74H46.59a1.54,1.54,0,0,0,0,3.07h8.68A7.76,7.76,0,0,0,53.65,29.9Z"/><path class="cls-4" d="M48.72,29.9,48,29.16H46.59a1.54,1.54,0,0,0,0,3.07h3.74A7.91,7.91,0,0,0,48.72,29.9Z"/><path class="cls-4" d="M18,48h0a.74.74,0,0,1-.52-1.26l9.28-9.24H37.93l-15,9.13A9.51,9.51,0,0,1,18,48Z"/><path class="cls-1" d="M18,16.6h0a.74.74,0,0,0-.52,1.26l9.28,9.24H37.93L22.89,18A9.41,9.41,0,0,0,18,16.6Z"/><path class="cls-2" d="M35.18,29.79a.63.63,0,1,1-1.26,0,.63.63,0,1,1,1.26,0Z"/><path class="cls-2" d="M38,29.79a.63.63,0,0,1-1.26,0,.63.63,0,0,1,1.26,0Z"/><path class="cls-2" d="M40.72,29.79a.63.63,0,0,1-.63.63.63.63,0,0,1-.63-.63.64.64,0,0,1,.63-.63A.63.63,0,0,1,40.72,29.79Z"/><path class="cls-2" d="M43.49,29.79a.63.63,0,0,1-.63.63.63.63,0,0,1-.63-.63.64.64,0,0,1,.63-.63A.63.63,0,0,1,43.49,29.79Z"/><path class="cls-2" d="M51.35,45.27h-.17A2.44,2.44,0,0,1,49.1,44a2.53,2.53,0,0,0-2.2-1.26H41.72A2.65,2.65,0,0,0,39,45a2.54,2.54,0,0,0,2.53,2.8h.32A2.44,2.44,0,0,1,44,49.1a2.55,2.55,0,0,0,2.2,1.26H51.5A2.55,2.55,0,0,0,54,47.55,2.65,2.65,0,0,0,51.35,45.27Z"/><path class="cls-2" d="M38.43,18h-.12a1.64,1.64,0,0,1-1.4-.86,1.71,1.71,0,0,0-1.48-.85H31.94a1.77,1.77,0,0,0-1.8,1.54,1.7,1.7,0,0,0,1.7,1.88h.21a1.66,1.66,0,0,1,1.41.87,1.69,1.69,0,0,0,1.48.85h3.59a1.72,1.72,0,0,0,1.7-1.89A1.79,1.79,0,0,0,38.43,18Z"/><path class="cls-2" d="M34.44,47.42h0a2.35,2.35,0,0,1-2.34-2.35h0a2.34,2.34,0,0,1,2.34-2.34h0a2.35,2.35,0,0,1,2.35,2.34h0A2.35,2.35,0,0,1,34.44,47.42Z"/><path class="cls-2" d="M42.45,25.1h0a1.58,1.58,0,0,1-1.58-1.58h0a1.58,1.58,0,0,1,1.58-1.58h0A1.58,1.58,0,0,1,44,23.52h0A1.58,1.58,0,0,1,42.45,25.1Z"/><path class="cls-2" d="M16.43,56.23h0A8.43,8.43,0,0,1,8,47.8H8a8.42,8.42,0,0,1,8.43-8.43h8.43V47.8A8.44,8.44,0,0,1,16.43,56.23Z"/><path class="cls-3" d="M24.86,45.41v-6h0l-7.38,7.35A.74.74,0,0,0,18,48a9.51,9.51,0,0,0,4.9-1.37Z"/><path class="cls-5" d="M21.33,47.47l-5-4.12a.41.41,0,0,0-.68.32v1a.41.41,0,0,1-.41.41H12.28a.9.9,0,0,0-.9.9v3.67a.9.9,0,0,0,.9.91H15.2a.41.41,0,0,1,.41.41v1a.42.42,0,0,0,.68.32l5-4.13A.43.43,0,0,0,21.33,47.47Z"/></svg>