<svg id="Layer_1" data-name="Layer 1" xmlns="http://www.w3.org/2000/svg" viewBox="0 0 64 64"><defs><style>.cls-1{fill:#F4DFDF;}.cls-2{fill:#e5cccc;}.cls-3{fill:#FC0707;}.cls-4{fill:#fff;}.cls-5{fill:#DD1515;}</style></defs><title>logistic, delivery, location, navigation, pin, pointer, package, box</title><polygon class="cls-1" points="21.61 32.13 21.61 44.13 32 50.13 42.39 44.13 42.39 32.13 32 26.13 21.61 32.13"/><polygon class="cls-2" points="32 26.13 32 50.13 42.39 44.13 42.39 32.13 32 26.13"/><path class="cls-3" d="M11.22,38.54V49.69a.74.74,0,0,0,.37.64l9.65,5.57a.75.75,0,0,0,.74,0l9.65-5.57a.74.74,0,0,0,.37-.64V38.54a.74.74,0,0,0-.37-.64L22,32.33a.75.75,0,0,0-.74,0L11.59,37.9A.74.74,0,0,0,11.22,38.54Z"/><path class="cls-1" d="M21.61,44.11,31.9,38.17a.78.78,0,0,0-.27-.27L26.8,35.11,22,32.33a.75.75,0,0,0-.74,0l-4.83,2.78L11.59,37.9a.81.81,0,0,0-.28.27Z"/><polygon class="cls-1" points="21.44 36.25 14.71 40.14 14.71 44.56 17.88 46.39 17.88 41.97 24.61 38.08 21.44 36.25"/><polygon class="cls-4" points="21.44 36.25 14.71 40.14 17.88 41.97 24.61 38.08 21.44 36.25"/><path class="cls-2" d="M21.61,44.11V56a.71.71,0,0,0,.37-.1l4.82-2.79,4.83-2.78a.74.74,0,0,0,.37-.64V38.54a.79.79,0,0,0-.1-.37Z"/><path class="cls-3" d="M32,38.54V49.69a.74.74,0,0,0,.37.64L42,55.9a.75.75,0,0,0,.74,0l9.65-5.57a.74.74,0,0,0,.37-.64V38.54a.74.74,0,0,0-.37-.64l-9.65-5.57a.75.75,0,0,0-.74,0L32.37,37.9A.74.74,0,0,0,32,38.54Z"/><path class="cls-1" d="M42.39,44.11l10.3-5.94a.81.81,0,0,0-.28-.27l-4.82-2.79-4.83-2.78a.75.75,0,0,0-.74,0L37.2,35.11,32.37,37.9a.78.78,0,0,0-.27.27Z"/><polygon class="cls-1" points="42.22 36.25 35.49 40.14 35.49 44.56 38.66 46.39 38.66 41.97 45.4 38.08 42.22 36.25"/><polygon class="cls-4" points="42.22 36.25 35.49 40.14 38.66 41.97 45.4 38.08 42.22 36.25"/><path class="cls-2" d="M42.39,44.11V56a.69.69,0,0,0,.37-.1l4.83-2.79,4.82-2.78a.74.74,0,0,0,.37-.64V38.54a.78.78,0,0,0-.09-.37Z"/><path class="cls-5" d="M41.48,17.71a9.48,9.48,0,0,0-9.95-9.47,9.92,9.92,0,0,0-9,8.82,9.47,9.47,0,0,0,3.52,8,20.48,20.48,0,0,1,5.47,6.49l.27.53a.23.23,0,0,0,.4,0l.16-.31a20.85,20.85,0,0,1,5.55-6.69A9.41,9.41,0,0,0,41.48,17.71Z"/><circle class="cls-4" cx="32" cy="17.71" r="2.25"/></svg>