<svg id="Layer_1" data-name="Layer 1" xmlns="http://www.w3.org/2000/svg" viewBox="0 0 64 64"><defs><style>.cls-1{fill:#DD1515;}.cls-2{fill:#F4DFDF;}.cls-3{fill:#FC0707;}.cls-4{fill:#e5cccc;}.cls-5{fill:#fff;}</style></defs><title>logistic, delivery, transport, transportation, train, package</title><path class="cls-1" d="M47.57,52.33a1.81,1.81,0,0,0-1.82,1.81A1.71,1.71,0,0,0,46,55h-.25V56h1.82a1.82,1.82,0,0,0,0-3.63Z"/><path class="cls-1" d="M49.3,54.65a1.7,1.7,0,0,0,.08-.51,1.8,1.8,0,0,0-.1-.57H45.85a1.8,1.8,0,0,0-.1.57,1.7,1.7,0,0,0,.08.51Z"/><path class="cls-1" d="M47.43,54.16a1.8,1.8,0,1,0-1.8,1.8A1.79,1.79,0,0,0,47.43,54.16Z"/><path class="cls-2" d="M47.93,54.16h-1a1.3,1.3,0,1,0-2.6,0h-1a2.3,2.3,0,0,1,4.6,0Z"/><path class="cls-2" d="M9.07,24.62h9.28a15,15,0,0,1,15,15V56a0,0,0,0,1,0,0H9.07A1.07,1.07,0,0,1,8,54.89V25.69A1.07,1.07,0,0,1,9.07,24.62Z"/><path class="cls-3" d="M27.5,56H13.85V38.83A6.83,6.83,0,0,1,20.68,32h0a6.82,6.82,0,0,1,6.82,6.83Z"/><path class="cls-1" d="M20.68,35a3.83,3.83,0,0,1,3.82,3.83V53H16.85V38.83A3.84,3.84,0,0,1,20.68,35m0-3h0a6.83,6.83,0,0,0-6.83,6.83V56H27.5V38.83A6.82,6.82,0,0,0,20.68,32Z"/><path class="cls-2" d="M55.11,54.16H13.85V39.78h34.3a4.2,4.2,0,0,1,3.58,2L53.66,45A15.9,15.9,0,0,1,56,53.26h0A.89.89,0,0,1,55.11,54.16Z"/><path class="cls-1" d="M24.42,52.33a1.81,1.81,0,0,0-1.82,1.81,1.71,1.71,0,0,0,.25.9H22.6V56h1.82a1.82,1.82,0,0,0,0-3.63Z"/><path class="cls-1" d="M26.15,54.65a1.7,1.7,0,0,0,.08-.51,1.8,1.8,0,0,0-.1-.57H22.7a1.8,1.8,0,0,0-.1.57,1.7,1.7,0,0,0,.08.51Z"/><path class="cls-1" d="M17.59,52.33A1.8,1.8,0,0,0,16,55h-.25V56h1.82a1.82,1.82,0,0,0,0-3.63Z"/><path class="cls-1" d="M19.33,54.65a2.09,2.09,0,0,0,.07-.51,1.8,1.8,0,0,0-.1-.57H15.87a1.8,1.8,0,0,0-.1.57,1.7,1.7,0,0,0,.08.51Z"/><path class="cls-1" d="M39.09,52.33A1.81,1.81,0,0,0,37.52,55h-.24V56h1.81a1.82,1.82,0,1,0,0-3.63Z"/><path class="cls-1" d="M40.83,54.65a1.7,1.7,0,0,0,.08-.51,1.8,1.8,0,0,0-.1-.57H37.38a1.8,1.8,0,0,0-.1.57,2.09,2.09,0,0,0,.07.51Z"/><path class="cls-1" d="M32.26,52.33A1.81,1.81,0,0,0,30.69,55h-.24V56h1.81a1.82,1.82,0,1,0,0-3.63Z"/><path class="cls-1" d="M34,54.65a1.7,1.7,0,0,0,.08-.51,1.8,1.8,0,0,0-.1-.57H30.55a1.8,1.8,0,0,0-.1.57,2.09,2.09,0,0,0,.07.51Z"/><path class="cls-4" d="M43.81,45l-1.93-3.17a4.2,4.2,0,0,0-3.58-2H13.85V54.16h31.4a.9.9,0,0,0,.9-.9h0A15.9,15.9,0,0,0,43.81,45Z"/><path class="cls-3" d="M53.66,45l-1.93-3.17a4.2,4.2,0,0,0-3.58-2H38.43v6.49A3.61,3.61,0,0,0,42,49.88h13.6A16,16,0,0,0,53.66,45Z"/><path class="cls-1" d="M43.81,45l-1.93-3.17a4.21,4.21,0,0,0-3.45-2v6.48A3.61,3.61,0,0,0,42,49.88h3.75A16,16,0,0,0,43.81,45Z"/><path class="cls-1" d="M39,54.16a1.8,1.8,0,1,0-1.8,1.8A1.8,1.8,0,0,0,39,54.16Z"/><path class="cls-2" d="M39.46,54.16h-1a1.3,1.3,0,0,0-2.6,0h-1a2.3,2.3,0,0,1,4.6,0Z"/><path class="cls-2" d="M37.61,54.16a.45.45,0,1,0-.45.45A.45.45,0,0,0,37.61,54.16Z"/><circle class="cls-1" cx="30.33" cy="54.16" r="1.8"/><path class="cls-2" d="M32.63,54.16h-1a1.3,1.3,0,0,0-2.6,0H28a2.3,2.3,0,0,1,4.6,0Z"/><circle class="cls-2" cx="30.33" cy="54.16" r="0.45"/><path class="cls-1" d="M24.28,54.16a1.8,1.8,0,1,0-1.8,1.8A1.79,1.79,0,0,0,24.28,54.16Z"/><path class="cls-2" d="M24.78,54.16h-1a1.3,1.3,0,0,0-2.6,0h-1a2.3,2.3,0,0,1,4.6,0Z"/><path class="cls-2" d="M22.93,54.16a.45.45,0,1,0-.45.45A.45.45,0,0,0,22.93,54.16Z"/><circle class="cls-1" cx="15.65" cy="54.16" r="1.8"/><path class="cls-2" d="M18,54.16H17a1.3,1.3,0,1,0-2.6,0h-1a2.3,2.3,0,1,1,4.6,0Z"/><circle class="cls-2" cx="15.65" cy="54.16" r="0.45"/><path class="cls-4" d="M55.87,51.27H47.81l.11,1.23h8C56,52.08,55.92,51.67,55.87,51.27Z"/><rect class="cls-1" x="27.5" y="43.41" width="2.85" height="2.85" rx="0.5"/><rect class="cls-1" x="22.33" y="43.41" width="2.85" height="2.85" rx="0.5"/><rect class="cls-1" x="17.15" y="43.41" width="2.85" height="2.85" rx="0.5"/><path class="cls-4" d="M44.9,8h0A11.1,11.1,0,0,1,56,19.1v0A11.1,11.1,0,0,1,44.9,30.2H34.52a.72.72,0,0,1-.72-.72V19.1A11.1,11.1,0,0,1,44.9,8Z"/><rect class="cls-5" x="39.64" y="13.84" width="10.52" height="10.52" rx="0.67"/><path class="cls-2" d="M43.29,13.84h3.21a0,0,0,0,1,0,0v2.4a.4.4,0,0,1-.4.4H43.69a.4.4,0,0,1-.4-.4v-2.4A0,0,0,0,1,43.29,13.84Z"/></svg>