<svg id="Layer_1" data-name="Layer 1" xmlns="http://www.w3.org/2000/svg" viewBox="0 0 64 64"><defs><style>.cls-1{fill:#ccd8e5;}.cls-2{fill:#dfe8f4;}.cls-3{fill:#fff;}.cls-4{fill:#ff5454;}.cls-5{fill:#dd1515;}</style></defs><title>logistic, delivery, box, package, parcel, arrow</title><path class="cls-1" d="M11.22,20.86V43.14A1.49,1.49,0,0,0,12,44.43l19.3,11.14a1.45,1.45,0,0,0,1.48,0L52,44.43a1.49,1.49,0,0,0,.74-1.29V20.86A1.49,1.49,0,0,0,52,19.57L32.74,8.43a1.45,1.45,0,0,0-1.48,0L12,19.57A1.49,1.49,0,0,0,11.22,20.86Z"/><path class="cls-2" d="M32,32,52.59,20.11a1.5,1.5,0,0,0-.55-.54L42.39,14,32.74,8.43a1.45,1.45,0,0,0-1.48,0L21.61,14,12,19.57a1.5,1.5,0,0,0-.55.54Z"/><polygon class="cls-2" points="31.66 16.27 18.2 24.04 18.2 32.9 24.54 36.56 24.54 27.71 38.01 19.93 31.66 16.27"/><polygon class="cls-3" points="31.66 16.27 18.2 24.04 24.54 27.71 38.01 19.93 31.66 16.27"/><path class="cls-4" d="M32,32V55.77a1.49,1.49,0,0,0,.74-.2L42.39,50,52,44.43a1.49,1.49,0,0,0,.74-1.29V20.86a1.61,1.61,0,0,0-.19-.75Z"/><path class="cls-5" d="M38.32,41.46a.12.12,0,0,1,.14,0l1.8,1.48c.1.08,0,.33-.14.42l-.42.24a.4.4,0,0,0-.18.31v1.46a.86.86,0,0,1-.39.68L37.54,47c-.22.12-.4,0-.4-.23V45.29c0-.12-.08-.16-.18-.11l-.43.25c-.15.09-.23-.07-.14-.26l1.79-3.55A.45.45,0,0,1,38.32,41.46Z"/><path class="cls-5" d="M43.82,38.34a.12.12,0,0,1,.14,0l1.8,1.48c.1.08,0,.33-.14.42l-.42.25a.37.37,0,0,0-.18.31v1.45a.85.85,0,0,1-.39.68L43,43.84c-.22.13-.4,0-.4-.22V42.16c0-.11-.08-.16-.18-.1L42,42.3c-.15.09-.23-.06-.14-.26l1.79-3.54A.38.38,0,0,1,43.82,38.34Z"/></svg>