<svg id="Layer_1" data-name="Layer 1" xmlns="http://www.w3.org/2000/svg" viewBox="0 0 64 64"><defs><style>.cls-1{fill:#dd1515;}.cls-2{fill:#ff5454;}.cls-3{fill:#dfe8f4;}.cls-4{fill:#ccd8e5;}.cls-5{fill:#fff;}</style></defs><title>logistic, delivery, online, computer, confirm, package, box</title><path class="cls-1" d="M37.45,50.67h0a2.24,2.24,0,0,1-2.24-2.25V45.17H28.79v3.25a2.24,2.24,0,0,1-2.24,2.25h0A3.55,3.55,0,0,0,23,54.22h0A1.79,1.79,0,0,0,24.79,56H39.21A1.79,1.79,0,0,0,41,54.22h0A3.55,3.55,0,0,0,37.45,50.67Z"/><path class="cls-2" d="M37.45,50.67H26.55A3.55,3.55,0,0,0,23,54.22h0A1.79,1.79,0,0,0,24.79,56H39.21A1.79,1.79,0,0,0,41,54.22h0A3.55,3.55,0,0,0,37.45,50.67Z"/><rect class="cls-3" x="8" y="13.17" width="48" height="34" rx="4.04"/><path class="cls-4" d="M56,43.13V17.21a4,4,0,0,0-4-4H39.8L23.69,24.37l22.79,22.8H52A4,4,0,0,0,56,43.13Z"/><path class="cls-2" d="M8,41.38v1.75a4,4,0,0,0,4,4H52a4,4,0,0,0,4-4V41.38Z"/><rect class="cls-4" x="8" y="39.31" width="48" height="2.06"/><path class="cls-1" d="M32.84,44.27a.84.84,0,1,1-.84-.84A.83.83,0,0,1,32.84,44.27Z"/><rect class="cls-2" x="23.1" y="8.44" width="17.8" height="16.13" rx="1.27"/><path class="cls-1" d="M33.69,13H30.31a.87.87,0,0,1-.87-.86V8.44h5.12v3.73A.87.87,0,0,1,33.69,13Z"/><path class="cls-5" d="M29.84,35.46,27.36,33a1.81,1.81,0,0,1-.26-2.32,1.75,1.75,0,0,1,2.67-.22l.84.84,3.54-3.54a1.83,1.83,0,0,1,2.32-.25,1.75,1.75,0,0,1,.22,2.67l-5.3,5.3A1.09,1.09,0,0,1,29.84,35.46Z"/></svg>