<svg id="Layer_1" data-name="Layer 1" xmlns="http://www.w3.org/2000/svg" viewBox="0 0 64 64"><defs><style>.cls-1{fill:#dd1515;}.cls-2{fill:#dfe8f4;}.cls-3{fill:#ff5454;}.cls-4{fill:#ccd8e5;}</style></defs><title>logistic, delivery, trolley, package, box, cart</title><path class="cls-1" d="M44.84,48.51a3.71,3.71,0,0,0-3.23,5.59H41.1V56h3.74a3.74,3.74,0,0,0,0-7.48Z"/><path class="cls-1" d="M48.41,53.29a3.64,3.64,0,0,0,.16-1,3.89,3.89,0,0,0-.2-1.18H41.31a3.44,3.44,0,0,0-.05,2.22Z"/><circle class="cls-1" cx="41.1" cy="52.25" r="3.74"/><path class="cls-2" d="M45.34,52.25h-1a3.24,3.24,0,1,0-6.47,0h-1a4.24,4.24,0,1,1,8.47,0Z"/><path class="cls-3" d="M28.26,48.51a3.74,3.74,0,0,0-3.73,3.74A3.64,3.64,0,0,0,25,54.1h-.51V56h3.73a3.74,3.74,0,0,0,0-7.48Z"/><path class="cls-1" d="M31.84,53.29a4,4,0,0,0,.16-1,3.62,3.62,0,0,0-.21-1.18h-7a3.44,3.44,0,0,0,0,2.22Z"/><path class="cls-2" d="M32.48,48.57,27.12,22.32a.39.39,0,0,0-.38-.32H25.61a2,2,0,0,1-2-2h0a2,2,0,0,1,2-2h3.08a2,2,0,0,1,2,1.6L36.4,47.77Z"/><rect class="cls-2" x="16.81" y="46.88" width="39.19" height="5.38" rx="1.32"/><rect class="cls-4" x="16.81" y="46.88" width="24.44" height="5.38" rx="1.32"/><path class="cls-4" d="M16.87,48.57,11.51,22.32a.39.39,0,0,0-.38-.32H10a2,2,0,0,1-2-2H8a2,2,0,0,1,2-2h3.08a2,2,0,0,1,2,1.6l5.75,28.17Z"/><path class="cls-1" d="M28.26,52.25A3.74,3.74,0,1,0,24.53,56,3.74,3.74,0,0,0,28.26,52.25Z"/><path class="cls-2" d="M28.76,52.25h-1a3.24,3.24,0,1,0-6.47,0h-1a4.24,4.24,0,1,1,8.47,0Z"/><path class="cls-2" d="M25.46,52.25a.94.94,0,1,0-.93.93A.93.93,0,0,0,25.46,52.25Z"/><rect class="cls-3" x="27.27" y="22.06" width="10.21" height="24.82" rx="0.23"/><rect class="cls-1" x="20" y="22.06" width="10.21" height="24.82" rx="0.23"/><path class="cls-2" d="M23.64,22.06h2.94a0,0,0,0,1,0,0V24.2a.5.5,0,0,1-.5.5H24.14a.5.5,0,0,1-.5-.5V22.06A0,0,0,0,1,23.64,22.06Z"/><rect class="cls-3" x="40.46" y="37.62" width="10.21" height="9.26" rx="0.23"/><path class="cls-1" d="M33.18,37.62h10a.23.23,0,0,1,.23.23v8.8a.23.23,0,0,1-.23.23H33.41a.23.23,0,0,1-.23-.23v-9A0,0,0,0,1,33.18,37.62Z"/><path class="cls-2" d="M36.82,37.62h2.94a0,0,0,0,1,0,0v2.14a.5.5,0,0,1-.5.5H37.32a.5.5,0,0,1-.5-.5V37.62A0,0,0,0,1,36.82,37.62Z"/></svg>