<svg id="Layer_1" data-name="Layer 1" xmlns="http://www.w3.org/2000/svg" viewBox="0 0 64 64"><defs><style>.cls-1{fill:#dfe8f4;}.cls-2{fill:#fff;}.cls-3{fill:#dd1515;}.cls-4{fill:#ff5454;}.cls-5{fill:#ccd8e5;}</style></defs><title>logistic, delivery, search, magnifier, find, locate, package, box</title><path class="cls-1" d="M55.14,55.11a3.67,3.67,0,0,1-5.2,0L38.78,44A3.68,3.68,0,0,1,44,38.76L55.14,49.91A3.67,3.67,0,0,1,55.14,55.11Z"/><path class="cls-2" d="M19.65,39.62a14.26,14.26,0,1,1,17.36,0A14.28,14.28,0,0,1,19.65,39.62Z"/><path class="cls-1" d="M55.07,49.84l-8.15-8.15A3.08,3.08,0,0,1,46.43,38a20.55,20.55,0,1,0-8.37,8.38,3.08,3.08,0,0,1,3.66.49l8.22,8.21a3.68,3.68,0,0,0,5.69-.59A3.75,3.75,0,0,0,55.07,49.84ZM19.65,39.62a14.26,14.26,0,1,1,17.36,0A14.28,14.28,0,0,1,19.65,39.62Z"/><path class="cls-3" d="M51.64,46.41l-5.21,5.2,3.51,3.5a3.68,3.68,0,0,0,5.2-5.2Z"/><path class="cls-4" d="M19.38,23.51v9.6a.62.62,0,0,0,.32.55L28,38.46a.61.61,0,0,0,.64,0L37,33.66a.62.62,0,0,0,.32-.55v-9.6A.65.65,0,0,0,37,23l-8.32-4.8a.66.66,0,0,0-.64,0L19.7,23A.65.65,0,0,0,19.38,23.51Z"/><path class="cls-1" d="M28.33,28.31l8.87-5.12A.59.59,0,0,0,37,23l-4.16-2.4-4.16-2.4a.66.66,0,0,0-.64,0l-4.15,2.4L19.7,23a.59.59,0,0,0-.23.24Z"/><polygon class="cls-1" points="28.19 21.53 22.39 24.88 22.39 28.7 25.12 30.27 25.12 26.46 30.92 23.11 28.19 21.53"/><polygon class="cls-2" points="28.19 21.53 22.39 24.88 25.12 26.46 30.92 23.11 28.19 21.53"/><path class="cls-5" d="M28.33,28.31V38.55a.62.62,0,0,0,.32-.09l4.16-2.4L37,33.66a.62.62,0,0,0,.32-.55v-9.6a.57.57,0,0,0-.09-.32Z"/></svg>