<svg id="Layer_1" data-name="Layer 1" xmlns="http://www.w3.org/2000/svg" viewBox="0 0 64 64"><defs><style>.cls-1{fill:#DD1515;}.cls-2{fill:#e5cccc;}.cls-3{fill:#F4DFDF;}.cls-4{fill:#FC0707;}</style></defs><title>logistic, delivery, timer, hourglass, time, package, box</title><rect class="cls-1" x="29.52" y="32.12" width="26.45" height="23.96" rx="0.58"/><path class="cls-2" d="M38.94,32.12h7.6a0,0,0,0,1,0,0v5.54a1.29,1.29,0,0,1-1.29,1.29h-5a1.29,1.29,0,0,1-1.29-1.29V32.12A0,0,0,0,1,38.94,32.12Z"/><path class="cls-3" d="M9.94,10.4v2.36a9.34,9.34,0,0,0,2.53,6.4,8.25,8.25,0,0,1,2.29,5.64H25.33a8.24,8.24,0,0,1,2.28-5.64,9.34,9.34,0,0,0,2.53-6.4V10.4Z"/><rect class="cls-4" x="8" y="8.08" width="24.08" height="4.64" rx="1.74"/><path class="cls-2" d="M30.14,39.2V36.84a9.34,9.34,0,0,0-2.53-6.4,8.26,8.26,0,0,1-2.28-5.64H14.76a8.27,8.27,0,0,1-2.29,5.64,9.34,9.34,0,0,0-2.53,6.4V39.2Z"/><rect class="cls-4" x="8" y="36.88" width="24.08" height="4.64" rx="1.74" transform="translate(40.08 78.4) rotate(180)"/></svg>