<svg id="Layer_1" data-name="Layer 1" xmlns="http://www.w3.org/2000/svg" viewBox="0 0 64 64"><defs><style>.cls-1{fill:#dfe8f4;}.cls-2{fill:#ccd8e5;}.cls-3{fill:#ff5454;}.cls-4{fill:#dd1515;}.cls-5{fill:#fff;}</style></defs><title>logistic, delivery, online, computer, laptop, confirm, package, box</title><path class="cls-1" d="M15.21,24H48.79a3,3,0,0,1,3,3V50.67a0,0,0,0,1,0,0H12.17a0,0,0,0,1,0,0V27A3,3,0,0,1,15.21,24Z"/><path class="cls-2" d="M48.79,24H40.53L23.42,35.71l15,15H51.83V27A3,3,0,0,0,48.79,24Z"/><path class="cls-3" d="M9.13,50.67H54.87A1.13,1.13,0,0,1,56,51.8v.65A3.55,3.55,0,0,1,52.45,56H12.2A4.2,4.2,0,0,1,8,51.8v0a1.13,1.13,0,0,1,1.13-1.13Z"/><path class="cls-4" d="M26.23,51.74a2.3,2.3,0,0,0,1.95,1.07h7.64a2.3,2.3,0,0,0,2-1.07,2.3,2.3,0,0,1,1.95-1.07H24.28A2.3,2.3,0,0,1,26.23,51.74Z"/><rect class="cls-2" x="12.17" y="48.25" width="39.58" height="2.42"/><rect class="cls-3" x="23.1" y="20" width="17.8" height="16.13" rx="1.27"/><path class="cls-4" d="M29.44,20h5.12a0,0,0,0,1,0,0v3.73a.87.87,0,0,1-.87.87H30.31a.87.87,0,0,1-.87-.87V20A0,0,0,0,1,29.44,20Z"/><path class="cls-5" d="M29.84,47.07l-2.48-2.48a1.83,1.83,0,0,1-.26-2.33A1.76,1.76,0,0,1,29.77,42l.84.84,3.54-3.53a1.82,1.82,0,0,1,2.32-.26,1.75,1.75,0,0,1,.22,2.67l-5.3,5.3A1.1,1.1,0,0,1,29.84,47.07Z"/></svg>