<svg id="Layer_1" data-name="Layer 1" xmlns="http://www.w3.org/2000/svg" viewBox="0 0 64 64"><defs><style>.cls-1{fill:#F4DFDF;}.cls-2{fill:#e5cccc;}.cls-3{fill:#FC0707;}.cls-4{fill:#DD1515;}.cls-5{fill:#fff;}</style></defs><title>logistic, delivery, transport, transportation, vehicle, scooter, package</title><rect class="cls-1" x="18.42" y="11.14" width="17.9" height="17.9" rx="0.93"/><path class="cls-2" d="M33.42,23.71l-5.34,5.34h7.31a.93.93,0,0,0,.93-.93V25.25Z"/><path class="cls-3" d="M21.55,47.52a4.36,4.36,0,0,0-4.36,4.35,4.3,4.3,0,0,0,.6,2.16h-.6v2.2h4.36a4.36,4.36,0,0,0,0-8.71Z"/><path class="cls-4" d="M17.19,51.87a4.2,4.2,0,0,0,.47,1.9h7.79a4.32,4.32,0,0,0,.45-1.9,4.15,4.15,0,0,0-.24-1.37H17.44A4.16,4.16,0,0,0,17.19,51.87Z"/><path class="cls-4" d="M25.71,53.08a4.08,4.08,0,0,0,.19-1.21,4.15,4.15,0,0,0-.24-1.37H17.44a4.16,4.16,0,0,0-.25,1.37,4,4,0,0,0,.19,1.21Z"/><path class="cls-4" d="M21.23,51.91a4.32,4.32,0,1,0-4.32,4.32A4.31,4.31,0,0,0,21.23,51.91Z"/><path class="cls-1" d="M21.73,51.91h-1a3.82,3.82,0,0,0-7.64,0h-1a4.82,4.82,0,0,1,9.64,0Z"/><path class="cls-3" d="M49.67,49.62a3.3,3.3,0,0,0-3.3,3.31,3.24,3.24,0,0,0,.45,1.63h-.45v1.67h3.3a3.31,3.31,0,0,0,0-6.61Z"/><path class="cls-4" d="M52.82,53.84a3.1,3.1,0,0,0,.15-.91,3.2,3.2,0,0,0-.18-1H46.55a3.2,3.2,0,0,0-.18,1,3.09,3.09,0,0,0,.14.91Z"/><path class="cls-2" d="M42.59,26.68l11.2-1a1.11,1.11,0,0,0,1-1.1h0a1.11,1.11,0,0,0-1.11-1.11H42.59Z"/><path class="cls-1" d="M54.81,24.6a1.11,1.11,0,0,0-1.11-1.11H34.09a1.14,1.14,0,0,0-1.14.88,1.1,1.1,0,0,0,1,1.33l3.36.3a2.07,2.07,0,0,1,1.89,2.06,4.58,4.58,0,0,0,4.57,4.57h2A3.67,3.67,0,0,0,49.46,29v-3a1.32,1.32,0,0,1,1.33-1.32h4A0,0,0,0,1,54.81,24.6Z"/><path class="cls-3" d="M53.24,23.49h.46a1.11,1.11,0,0,1,.09,2.21l-.55.05Z"/><path class="cls-1" d="M37.09,39.08v2a2.5,2.5,0,0,1-2.5,2.5h0a2.49,2.49,0,0,1-2.49-2.5V34.91c0-1.26-1-2.28-2.28-3H8v.86A3.58,3.58,0,0,0,10,36a1,1,0,0,1,.32,1.54A12,12,0,0,0,8,44.68v2.85A5.42,5.42,0,0,0,13.41,53h37a1,1,0,0,0,1-1V39.08A6.45,6.45,0,0,0,45,32.63H43.53A6.44,6.44,0,0,0,37.09,39.08Z"/><path class="cls-1" d="M37.09,39.08v2a2.5,2.5,0,0,1-2.5,2.5h0a2.49,2.49,0,0,1-2.49-2.5V34.91c0-1.26-1-2.28-2.28-3H8v.86A3.58,3.58,0,0,0,10,36a1,1,0,0,1,.32,1.54A12,12,0,0,0,8,44.68v2.85A5.42,5.42,0,0,0,13.41,53h37a1,1,0,0,0,1-1V39.08A6.45,6.45,0,0,0,45,32.63H43.53A6.44,6.44,0,0,0,37.09,39.08Z"/><path class="cls-2" d="M29.82,31.9H8v.86a3.27,3.27,0,0,0,.08.7H31.61A5.59,5.59,0,0,0,29.82,31.9Z"/><path class="cls-2" d="M32.1,41.09v-4.2H28.49v3.33a3.37,3.37,0,0,0,3.37,3.37h2.73A2.49,2.49,0,0,1,32.1,41.09Z"/><path class="cls-3" d="M30.87,29.05h-20A2.84,2.84,0,0,0,8,31.89H8a.74.74,0,0,0,.74.74H26.42a2.07,2.07,0,0,1,2.07,2.07v2.19a3.37,3.37,0,0,0,3.36,3.36h0a2.64,2.64,0,0,0,2.64-2.64V32.67A3.62,3.62,0,0,0,30.87,29.05Z"/><path class="cls-4" d="M28.49,35.12v1.77a3.33,3.33,0,0,0,1.24,2.58,2.65,2.65,0,0,0,.77-1.86V32.92a3.87,3.87,0,0,0-3.87-3.87H10.84a2.85,2.85,0,0,0-2.75,3.58H26A2.49,2.49,0,0,1,28.49,35.12Z"/><path class="cls-2" d="M51.33,45.08H49.58A2.58,2.58,0,0,1,47,42.5V40a1.54,1.54,0,0,0-1.33-1.56A1.48,1.48,0,0,0,44,40V45.6a4.81,4.81,0,0,1-4.8,4.81H28.38a2.48,2.48,0,0,1-2.48-2.47V45.49a6.94,6.94,0,0,0-5.27-6.85l-.36-.07a1.13,1.13,0,0,0-1,1.89,6.7,6.7,0,0,1,2,4.76h0A5.19,5.19,0,0,1,16,50.41H8.85A2.54,2.54,0,0,0,11.38,53H55.45a.56.56,0,0,0,.55-.56V49.75A4.67,4.67,0,0,0,51.33,45.08Z"/><path class="cls-1" d="M51.33,45.08H48.56a4.67,4.67,0,0,1,4.68,4.67v2.64a.56.56,0,0,1-.56.56h2.77a.56.56,0,0,0,.55-.56V49.75A4.67,4.67,0,0,0,51.33,45.08Z"/><path class="cls-4" d="M34.49,23.49H34a1.11,1.11,0,0,0-.1,2.21l.55.05Z"/><path class="cls-5" d="M46.34,30.56h0a1.69,1.69,0,0,1-1.69-1.69V27.2a1.65,1.65,0,0,1,1.65-1.65h.52A1.22,1.22,0,0,1,48,26.77v2.1A1.69,1.69,0,0,1,46.34,30.56Z"/><circle class="cls-4" cx="46.15" cy="52.95" r="3.27"/><path class="cls-1" d="M49.93,53h-1a2.78,2.78,0,0,0-5.55,0h-1a3.78,3.78,0,0,1,7.55,0Z"/><path class="cls-2" d="M8.93,11.14h17a0,0,0,0,1,0,0V29a0,0,0,0,1,0,0h-17A.93.93,0,0,1,8,28.12v-16A.93.93,0,0,1,8.93,11.14Z"/><rect class="cls-5" x="11.69" y="14.84" width="10.52" height="10.52" rx="0.67"/><path class="cls-1" d="M15.35,14.84h3.21a0,0,0,0,1,0,0v2.4a.4.4,0,0,1-.4.4H15.74a.4.4,0,0,1-.4-.4v-2.4A0,0,0,0,1,15.35,14.84Z"/></svg>