<svg id="Layer_1" data-name="Layer 1" xmlns="http://www.w3.org/2000/svg" viewBox="0 0 64 64"><defs><style>.cls-1{fill:#ff5454;}.cls-2{fill:#dd1515;}.cls-3{fill:#dfe8f4;}.cls-4{fill:#ccd8e5;}</style></defs><title>logistic, delivery, warehouse, lift, sorting, sort</title><path class="cls-1" d="M26.66,50a3,3,0,0,0-2.61,4.51h-.41V56h3a3,3,0,0,0,0-6Z"/><path class="cls-2" d="M29.55,53.82a2.84,2.84,0,0,0,0-1.79H23.81a2.76,2.76,0,0,0,0,1.79Z"/><path class="cls-1" d="M38.16,50a3,3,0,0,0-2.61,4.51h-.41V56h3a3,3,0,1,0,0-6Z"/><path class="cls-2" d="M41.05,53.82A2.84,2.84,0,0,0,41,52H35.31a2.76,2.76,0,0,0,0,1.79Z"/><path class="cls-2" d="M38.16,53a3,3,0,1,0-3,3A3,3,0,0,0,38.16,53Z"/><path class="cls-3" d="M38.66,53h-1a2.52,2.52,0,0,0-5,0h-1a3.52,3.52,0,1,1,7,0Z"/><path class="cls-3" d="M35.9,53a.76.76,0,0,0-.76-.76.75.75,0,0,0-.75.76.74.74,0,0,0,.75.75A.75.75,0,0,0,35.9,53Z"/><path class="cls-2" d="M26.66,53a3,3,0,1,0-3,3A3,3,0,0,0,26.66,53Z"/><path class="cls-3" d="M27.16,53h-1a2.52,2.52,0,0,0-5,0h-1a3.52,3.52,0,0,1,7,0Z"/><path class="cls-3" d="M24.39,53a.75.75,0,0,0-.75-.76.76.76,0,0,0-.76.76.75.75,0,0,0,.76.75A.74.74,0,0,0,24.39,53Z"/><path class="cls-1" d="M15.83,50a3,3,0,0,0-3,3,2.9,2.9,0,0,0,.42,1.49H12.8V56h3a3,3,0,1,0,0-6Z"/><path class="cls-2" d="M18.72,53.82a3.35,3.35,0,0,0,.13-.84,3,3,0,0,0-.17-.95H13a2.76,2.76,0,0,0,0,1.79Z"/><path class="cls-1" d="M26.66,50a3,3,0,0,0-2.61,4.51h-.41V56h3a3,3,0,0,0,0-6Z"/><path class="cls-2" d="M29.55,53.82a2.84,2.84,0,0,0,0-1.79H23.81a2.76,2.76,0,0,0,0,1.79Z"/><path class="cls-3" d="M54,49H39a1,1,0,0,1-1.05-1V43.53a14.91,14.91,0,0,0-3.13-9.14L32,30.74a3.09,3.09,0,0,0-2.45-1.2h-11V51.89a1.1,1.1,0,0,0,1.1,1.1H54a2,2,0,0,0,2-2h0A2,2,0,0,0,54,49Z"/><path class="cls-4" d="M40.85,49H28.47a1,1,0,0,1-1-1V43.53a14.91,14.91,0,0,0-3.13-9.14l-2.83-3.65A3.09,3.09,0,0,0,19,29.54H13.55A5.54,5.54,0,0,0,8,35.08V51.89A1.1,1.1,0,0,0,9.11,53H40.85a2,2,0,0,0,2-2h0A2,2,0,0,0,40.85,49Z"/><path class="cls-1" d="M37.94,43.53a14.91,14.91,0,0,0-3.13-9.14L33.76,33H16.14a4.09,4.09,0,0,0-4.09,4.1h0a8,8,0,0,0,8,8H37.94Z"/><path class="cls-3" d="M46.85,50H45.54V20.33a.66.66,0,0,1,.65-.66h0a.67.67,0,0,1,.66.66Z"/><rect class="cls-3" x="37.92" y="27.23" width="8.06" height="0.56"/><rect class="cls-3" x="37.92" y="21.66" width="8.06" height="0.56"/><path class="cls-4" d="M38.57,50H37.26V20.33a.67.67,0,0,1,.66-.66h0a.66.66,0,0,1,.65.66Z"/><path class="cls-2" d="M24.29,34.39,23.24,33h-7.1a4.09,4.09,0,0,0-4.09,4.1v1.19a6.77,6.77,0,0,0,6.77,6.78h8.6V43.53A14.91,14.91,0,0,0,24.29,34.39Z"/><path class="cls-2" d="M26.66,53a3,3,0,1,0-3,3A3,3,0,0,0,26.66,53Z"/><path class="cls-3" d="M27.16,53h-1a2.52,2.52,0,0,0-5,0h-1a3.52,3.52,0,0,1,7,0Z"/><path class="cls-3" d="M24.39,53a.75.75,0,0,0-.75-.76.76.76,0,0,0-.76.76.75.75,0,0,0,.76.75A.74.74,0,0,0,24.39,53Z"/><path class="cls-2" d="M15.83,53a3,3,0,1,0-3,3A3,3,0,0,0,15.83,53Z"/><path class="cls-3" d="M16.33,53h-1a2.53,2.53,0,0,0-5.05,0h-1a3.53,3.53,0,0,1,7,0Z"/><path class="cls-3" d="M13.56,53a.76.76,0,1,0-1.51,0,.76.76,0,0,0,1.51,0Z"/><rect class="cls-1" x="46.09" y="42.76" width="6.89" height="6.25" rx="0.15"/><path class="cls-2" d="M41.18,42.76h6.74a.15.15,0,0,1,.15.15v5.94a.15.15,0,0,1-.15.15H41.34a.15.15,0,0,1-.15-.15V42.76A0,0,0,0,1,41.18,42.76Z"/><path class="cls-3" d="M43.64,42.76h2a0,0,0,0,1,0,0v1.44a.34.34,0,0,1-.34.34H44a.34.34,0,0,1-.34-.34V42.76A0,0,0,0,1,43.64,42.76Z"/></svg>