<svg id="Layer_1" data-name="Layer 1" xmlns="http://www.w3.org/2000/svg" viewBox="0 0 64 64"><defs><style>.cls-1{fill:#FC0707;}.cls-2{fill:#DD1515;}.cls-3{fill:#F4DFDF;}.cls-4{fill:#e5cccc;}.cls-5{fill:#fff;}</style></defs><title>logistic, delivery, transport, transportation, truck, free</title><path class="cls-1" d="M50.35,49.29A3.32,3.32,0,0,0,47,52.61a3.25,3.25,0,0,0,.45,1.64H47v1.68h3.31a3.32,3.32,0,1,0,0-6.64Z"/><path class="cls-2" d="M53.53,53.53a3.47,3.47,0,0,0,.14-.92,3.24,3.24,0,0,0-.18-1H47.22a3.24,3.24,0,0,0-.18,1,3.1,3.1,0,0,0,.14.92Z"/><path class="cls-2" d="M50.35,52.61A3.32,3.32,0,1,0,47,55.93,3.32,3.32,0,0,0,50.35,52.61Z"/><path class="cls-3" d="M23.15,24.18H40.44a7.64,7.64,0,0,1,7.64,7.64v20.8a0,0,0,0,1,0,0H21.32a2,2,0,0,1-2-2V28a3.84,3.84,0,0,1,3.84-3.84Z"/><path class="cls-1" d="M39.6,32H49.88A6.12,6.12,0,0,1,56,38.08V51.36a1.26,1.26,0,0,1-1.26,1.26h-18a0,0,0,0,1,0,0V34.78A2.82,2.82,0,0,1,39.6,32Z"/><path class="cls-1" d="M40.33,49.24a3.33,3.33,0,0,0-2.89,5H37v1.69h3.34a3.35,3.35,0,1,0,0-6.69Z"/><path class="cls-2" d="M43.53,53.51a3.18,3.18,0,0,0,.15-.93,3.31,3.31,0,0,0-.19-1H37.17a3.31,3.31,0,0,0-.18,1,3.12,3.12,0,0,0,.14.93Z"/><path class="cls-2" d="M56,45.86H48.7V38.08A6.14,6.14,0,0,0,42.57,32h-5.8V52.61H47.44a1.26,1.26,0,0,0,1.26-1.25V47.14a.74.74,0,0,1,.74-.74H56Z"/><path class="cls-1" d="M28.23,49.29a3.3,3.3,0,0,0-2.87,5h-.45v1.68h3.32a3.32,3.32,0,1,0,0-6.64Z"/><path class="cls-2" d="M31.4,53.53a3.11,3.11,0,0,0,.15-.92,3.25,3.25,0,0,0-.19-1H25.1a3.25,3.25,0,0,0-.19,1,3.47,3.47,0,0,0,.14.92Z"/><path class="cls-2" d="M28.23,52.61a3.32,3.32,0,1,0-3.32,3.32A3.32,3.32,0,0,0,28.23,52.61Z"/><path class="cls-1" d="M18.25,49.24a3.33,3.33,0,0,0-2.89,5h-.45v1.69h3.34a3.35,3.35,0,1,0,0-6.69Z"/><path class="cls-2" d="M21.45,53.51a3.18,3.18,0,0,0,.15-.93,3.31,3.31,0,0,0-.19-1H15.09a3.31,3.31,0,0,0-.18,1,3.12,3.12,0,0,0,.14.93Z"/><path class="cls-4" d="M11.76,24.18H29.13a7.64,7.64,0,0,1,7.64,7.64v20.8a0,0,0,0,1,0,0H10a2,2,0,0,1-2-2V27.93A3.76,3.76,0,0,1,11.76,24.18Z"/><path class="cls-3" d="M42.34,51.09a1.31,1.31,0,0,1-1.17-.73,4.91,4.91,0,0,0-8.8,0,1.3,1.3,0,0,1-1.17.73H20.44a1.3,1.3,0,0,1-1.17-.73,4.91,4.91,0,0,0-8.8,0,1.31,1.31,0,0,1-1.17.73H8.07A2,2,0,0,0,10,52.61H36.77v0h3.15v0H54.74A1.25,1.25,0,0,0,56,51.35v-.26Z"/><path class="cls-2" d="M18.19,52.61a3.32,3.32,0,1,0-3.32,3.32A3.32,3.32,0,0,0,18.19,52.61Z"/><circle class="cls-3" cx="14.87" cy="52.61" r="0.83"/><path class="cls-3" d="M48.7,51.35v-.26H39.92v1.52h7.52A1.26,1.26,0,0,0,48.7,51.35Z"/><path class="cls-2" d="M40.09,52.61a3.32,3.32,0,1,0-3.32,3.32A3.32,3.32,0,0,0,40.09,52.61Z"/><circle class="cls-3" cx="36.77" cy="52.61" r="0.83"/><path class="cls-3" d="M56,38.68H44.7a1.38,1.38,0,0,0-1.39,1.38v4.42a1.38,1.38,0,0,0,1.39,1.38H56Z"/><path class="cls-4" d="M48.7,38.68H43.85a.54.54,0,0,0-.54.54v5.26a1.38,1.38,0,0,0,1.39,1.38h4Z"/><path class="cls-3" d="M56,48.1H46.8a.41.41,0,0,0-.41.41.41.41,0,0,0,.41.41H56Z"/><path class="cls-5" d="M48.7,48.1H46.8a.41.41,0,0,0-.41.41.41.41,0,0,0,.41.41h1.9Z"/><rect class="cls-5" x="54.91" y="48.1" width="1.09" height="0.82"/></svg>