<svg id="Layer_1" data-name="Layer 1" xmlns="http://www.w3.org/2000/svg" viewBox="0 0 64 64"><defs><style>.cls-1{fill:#ccd8e5;}.cls-2{fill:#dd1515;}.cls-3{fill:#ff5454;}.cls-4{fill:#dfe8f4;}.cls-5{fill:#fff;}</style></defs><title>logistic, delivery, ship, transport, transportation, express, speed</title><path class="cls-1" d="M41.13,8H31.34a2.27,2.27,0,0,0-1.86,1l-6.81,9.77a.24.24,0,0,0,.2.37H28.2a.24.24,0,0,1,.2.37l-3.48,5a.24.24,0,0,0,.33.33l14.13-9.91a.24.24,0,0,0-.14-.43H35.18A.24.24,0,0,1,35,14l6.26-5.62A.24.24,0,0,0,41.13,8Z"/><path class="cls-2" d="M34.39,33.4h5.46a0,0,0,0,1,0,0v5.46a.37.37,0,0,1-.37.37H34.39a.37.37,0,0,1-.37-.37V33.77A.37.37,0,0,1,34.39,33.4Z"/><path class="cls-3" d="M36,33.4h1.78a0,0,0,0,1,0,0v1.33a.22.22,0,0,1-.22.22H36.26a.22.22,0,0,1-.22-.22V33.4A0,0,0,0,1,36,33.4Z"/><path class="cls-2" d="M39.85,33.4h5.83a0,0,0,0,1,0,0v5.46a.37.37,0,0,1-.37.37H40.22a.37.37,0,0,1-.37-.37V33.4A0,0,0,0,1,39.85,33.4Z"/><path class="cls-3" d="M41.87,33.4h1.78a0,0,0,0,1,0,0v1.33a.22.22,0,0,1-.22.22H42.09a.22.22,0,0,1-.22-.22V33.4A0,0,0,0,1,41.87,33.4Z"/><path class="cls-2" d="M40.22,27.56h5.09a.37.37,0,0,1,.37.37V33.4a0,0,0,0,1,0,0H39.85a0,0,0,0,1,0,0V27.93A.37.37,0,0,1,40.22,27.56Z"/><path class="cls-3" d="M41.87,27.56h1.78a0,0,0,0,1,0,0V28.9a.22.22,0,0,1-.22.22H42.09a.22.22,0,0,1-.22-.22V27.56A0,0,0,0,1,41.87,27.56Z"/><path class="cls-4" d="M23,32.39H18.86l-.54-2.9a.42.42,0,0,1,.41-.49H22a.42.42,0,0,1,.41.34Z"/><path class="cls-1" d="M22.44,29.59l0-.25A.42.42,0,0,0,22,29H18.73a.42.42,0,0,0-.41.49l.54,2.9H21L20.59,30a.38.38,0,0,1,.37-.44Z"/><path class="cls-4" d="M17.78,32.39H13.67l-.54-2.9a.42.42,0,0,1,.41-.49H16.8a.42.42,0,0,1,.41.34Z"/><path class="cls-1" d="M17.26,29.59l-.05-.25A.42.42,0,0,0,16.8,29H13.54a.42.42,0,0,0-.41.49l.71,3.95,2-1L15.41,30a.37.37,0,0,1,.36-.44Z"/><path class="cls-4" d="M55.12,36.62H46.31a2.38,2.38,0,0,0-2.13,1.31h0a2.37,2.37,0,0,1-2.12,1.3H16.27a17.52,17.52,0,0,0,5.36,12.42,4.54,4.54,0,0,1,1.12,2.87.32.32,0,0,0,.32.3H49a2.05,2.05,0,0,0,2.06-2h0A4.06,4.06,0,0,1,52,50.19a17.26,17.26,0,0,0,4-11V37.5A.87.87,0,0,0,55.12,36.62Z"/><path class="cls-1" d="M55.12,36.62H40a6,6,0,0,0-4.39,2.19,1.3,1.3,0,0,1-1,.42H21.18A4.34,4.34,0,0,1,17,36L16.43,34a2.12,2.12,0,0,0-2-1.57A6.37,6.37,0,0,0,8,38.76v.47a17.55,17.55,0,0,0,5.35,12.42A3.2,3.2,0,0,1,14,52.71a3.53,3.53,0,0,0,3.31,2.11H40.69a2,2,0,0,0,2.06-2,4.07,4.07,0,0,1,.94-2.65,17.34,17.34,0,0,0,4-9.66,1.39,1.39,0,0,1,1.39-1.26H56V37.5A.87.87,0,0,0,55.12,36.62Z"/><path class="cls-3" d="M26.75,37l-.82-3a2.13,2.13,0,0,0-2.06-1.57H14.45v6.84h15.3A3.11,3.11,0,0,1,26.75,37Z"/><path class="cls-2" d="M17,36,16.43,34a2.12,2.12,0,0,0-2-1.57A6.37,6.37,0,0,0,8,38.76v.47H21.18A4.34,4.34,0,0,1,17,36Z"/><path class="cls-4" d="M35.56,43.3A1.53,1.53,0,1,1,34,41.77,1.53,1.53,0,0,1,35.56,43.3Z"/><path class="cls-4" d="M25.53,35.81a.57.57,0,0,0-.55-.42H15.37a.92.92,0,1,0,0,1.84H25.49a.34.34,0,0,0,.32-.43Z"/><path class="cls-1" d="M17,36l-.18-.64H15.37a.92.92,0,1,0,0,1.84h2.16A4.06,4.06,0,0,1,17,36Z"/><path class="cls-5" d="M34.8,43.3a.77.77,0,0,1-.77.76.76.76,0,0,1-.76-.76.77.77,0,0,1,.76-.77A.78.78,0,0,1,34.8,43.3Z"/><path class="cls-4" d="M40.31,43.3a1.53,1.53,0,1,1-1.53-1.53A1.53,1.53,0,0,1,40.31,43.3Z"/><path class="cls-5" d="M39.55,43.3a.77.77,0,0,1-.77.76A.76.76,0,0,1,38,43.3a.77.77,0,0,1,.76-.77A.78.78,0,0,1,39.55,43.3Z"/><path class="cls-4" d="M45.06,43.3a1.53,1.53,0,1,1-1.53-1.53A1.53,1.53,0,0,1,45.06,43.3Z"/><path class="cls-5" d="M44.3,43.3a.77.77,0,0,1-.77.76.76.76,0,0,1-.76-.76.77.77,0,0,1,.76-.77A.78.78,0,0,1,44.3,43.3Z"/><path class="cls-2" d="M8,39.23H21.18a4.3,4.3,0,0,1-1.89-.44H8Z"/><path class="cls-3" d="M53.57,53.17a5.29,5.29,0,0,1-1.94-.35,1.2,1.2,0,0,0-.91,0,5.55,5.55,0,0,1-3.88,0,1.2,1.2,0,0,0-.91,0,5.29,5.29,0,0,1-1.94.35,5.21,5.21,0,0,1-1.94-.35,1.22,1.22,0,0,0-.92,0,5.55,5.55,0,0,1-3.88,0,1.2,1.2,0,0,0-.91,0,5.29,5.29,0,0,1-1.94.35,5.21,5.21,0,0,1-1.94-.35,1.22,1.22,0,0,0-.92,0,5.21,5.21,0,0,1-1.94.35,5.32,5.32,0,0,1-1.86-.32,1.3,1.3,0,0,0-.95,0,5.7,5.7,0,0,1-4.12,0,1.21,1.21,0,0,0-.88,0,5.4,5.4,0,0,1-1.78.29,5.29,5.29,0,0,1-1.94-.35,1.2,1.2,0,0,0-.91,0,5.55,5.55,0,0,1-3.88,0,1.2,1.2,0,0,0-.91,0,5.29,5.29,0,0,1-1.94.35,5.2,5.2,0,0,1-1.74-.28.51.51,0,0,0-.69.47V56H56V53.36a.51.51,0,0,0-.69-.47A5.2,5.2,0,0,1,53.57,53.17Z"/><path class="cls-2" d="M14.2,53.08a3.6,3.6,0,0,0,3.13,1.74H49a2.05,2.05,0,0,0,2.06-2h0a1.07,1.07,0,0,0-.3.06,5.55,5.55,0,0,1-3.88,0,1.2,1.2,0,0,0-.91,0,5.29,5.29,0,0,1-1.94.35,5.21,5.21,0,0,1-1.94-.35,1.22,1.22,0,0,0-.92,0,5.55,5.55,0,0,1-3.88,0,1.2,1.2,0,0,0-.91,0,5.29,5.29,0,0,1-1.94.35,5.21,5.21,0,0,1-1.94-.35,1.22,1.22,0,0,0-.92,0,5.21,5.21,0,0,1-1.94.35,5.32,5.32,0,0,1-1.86-.32,1.3,1.3,0,0,0-.95,0,5.7,5.7,0,0,1-4.12,0,1.27,1.27,0,0,0-.88,0,5.14,5.14,0,0,1-1.78.3,5.29,5.29,0,0,1-1.94-.35,1.2,1.2,0,0,0-.91,0,5.25,5.25,0,0,1-1.94.35A5.53,5.53,0,0,1,14.2,53.08Z"/></svg>