<svg id="Layer_1" data-name="Layer 1" xmlns="http://www.w3.org/2000/svg" viewBox="0 0 64 64"><defs><style>.cls-1{fill:#dd1515;}.cls-2{fill:#dfe8f4;}.cls-3{fill:#ff5454;}.cls-4{fill:#ccd8e5;}</style></defs><title>logistic, delivery, man, package, box</title><path class="cls-1" d="M25.75,12.22H22.91V10.91h2.84a.65.65,0,0,1,.66.66h0A.65.65,0,0,1,25.75,12.22Z"/><path class="cls-2" d="M24.14,14.08V11a2.09,2.09,0,0,0-1.05-1.81l-1.61-.93a2.06,2.06,0,0,0-2.09,0l-1.62.93a2.1,2.1,0,0,0-1,1.81v3.13a3.25,3.25,0,0,0,1.62,2.81l.52.3a3.13,3.13,0,0,0,3.13,0l.52-.3A3.25,3.25,0,0,0,24.14,14.08Z"/><path class="cls-3" d="M20.43,11.92a22.3,22.3,0,0,1,3.71.3V11a2.09,2.09,0,0,0-1.05-1.81l-1.61-.93a2.06,2.06,0,0,0-2.09,0l-1.62.93a2.1,2.1,0,0,0-1,1.81v1.27A22.17,22.17,0,0,1,20.43,11.92Z"/><path class="cls-2" d="M16.62,20.28,10.4,26.63a2.4,2.4,0,0,0-.69,1.67h0a2.39,2.39,0,0,0,2.4,2.4H17Z"/><path class="cls-2" d="M20.29,18.76c-3.27,0-6,2.34-7,11.94h3.25a.92.92,0,0,1,.92.91h0a.92.92,0,0,1-.92.92H15.25a2.19,2.19,0,0,0-2.2,2.1Q13,36.58,13,38.86V54.75a1.25,1.25,0,0,0,2.46.28L18.92,40a1.41,1.41,0,0,1,1.37-1.09h0A1.41,1.41,0,0,1,21.67,40L25.17,55a1.25,1.25,0,0,0,2.46-.28V38.86C27.63,22.34,24.34,18.76,20.29,18.76Z"/><path class="cls-2" d="M35,27.86l-2-.64a11.69,11.69,0,0,1-4.58-2.72L23.69,20l2,8.48,1.36.32h0c0-.27-.07-.54-.11-.8a1,1,0,0,1,1-1.13h0a1,1,0,0,1,1,.82c0,.24.07.49.11.74a1,1,0,0,0,.85.85,24.29,24.29,0,0,0,2.83.17h2a.82.82,0,0,0,.82-.82A.81.81,0,0,0,35,27.86Z"/><rect class="cls-3" x="32.97" y="36.69" width="21.31" height="19.31" rx="1.52"/><path class="cls-1" d="M45.66,42.19H41.6a1,1,0,0,1-1-1V36.69h6.12v4.46A1,1,0,0,1,45.66,42.19Z"/><path class="cls-4" d="M17.57,31.61a.92.92,0,0,1-.91.92H15.34a2.2,2.2,0,0,0-2.2,2.1c-.05,1.3-.08,2.71-.08,4.23V54.75a1.25,1.25,0,0,0,2.46.28L19,40a1.41,1.41,0,0,1,1.38-1.09h0A2.83,2.83,0,0,1,17.57,36Z"/></svg>