<svg id="Layer_1" data-name="Layer 1" xmlns="http://www.w3.org/2000/svg" viewBox="0 0 64 64"><defs><style>.cls-1{fill:#dd1515;}.cls-2{fill:#ccd8e5;}.cls-3{fill:#dfe8f4;}.cls-4{fill:#ff5454;}.cls-5{fill:#fff;}</style></defs><title>logistic, delivery, date, calendar, package, box</title><rect class="cls-1" x="29.78" y="32.12" width="26.45" height="23.96" rx="0.58"/><path class="cls-2" d="M39.2,32.12h7.6a0,0,0,0,1,0,0v5.54a1.29,1.29,0,0,1-1.29,1.29h-5a1.29,1.29,0,0,1-1.29-1.29V32.12A0,0,0,0,1,39.2,32.12Z"/><rect class="cls-3" x="8" y="9.18" width="28.38" height="27.19" rx="3.56"/><path class="cls-4" d="M32.81,9.18H11.56A3.57,3.57,0,0,0,8,12.75v2.34H36.38V12.75A3.57,3.57,0,0,0,32.81,9.18Z"/><rect class="cls-3" x="12.35" y="8" width="4.18" height="3.69" rx="0.64"/><rect class="cls-3" x="27.84" y="8" width="4.18" height="3.69" rx="0.64"/><rect class="cls-2" x="11.45" y="18.77" width="3.15" height="3.15" rx="0.55"/><rect class="cls-2" x="16.03" y="18.77" width="3.15" height="3.15" rx="0.55"/><rect class="cls-2" x="20.61" y="18.77" width="3.15" height="3.15" rx="0.55"/><rect class="cls-2" x="25.2" y="18.77" width="3.15" height="3.15" rx="0.55"/><rect class="cls-2" x="29.78" y="18.77" width="3.15" height="3.15" rx="0.55"/><rect class="cls-2" x="11.45" y="23.57" width="3.15" height="3.15" rx="0.55"/><rect class="cls-2" x="16.03" y="23.57" width="3.15" height="3.15" rx="0.55"/><rect class="cls-2" x="20.61" y="23.57" width="3.15" height="3.15" rx="0.55"/><rect class="cls-2" x="25.2" y="23.57" width="3.15" height="3.15" rx="0.55"/><rect class="cls-2" x="29.78" y="23.57" width="3.15" height="3.15" rx="0.55"/><rect class="cls-2" x="11.45" y="28.37" width="3.15" height="3.15" rx="0.55"/><rect class="cls-2" x="16.03" y="28.37" width="3.15" height="3.15" rx="0.55"/><rect class="cls-2" x="20.61" y="28.37" width="3.15" height="3.15" rx="0.55"/><rect class="cls-2" x="25.2" y="28.37" width="3.15" height="3.15" rx="0.55"/><rect class="cls-5" x="29.78" y="28.37" width="3.15" height="3.15" rx="0.55"/></svg>