<svg id="Layer_1" data-name="Layer 1" xmlns="http://www.w3.org/2000/svg" viewBox="0 0 64 64"><defs><style>.cls-1{fill:#F4DFDF;}.cls-2{fill:#FC0707;}.cls-3{fill:#DD1515;}.cls-4{fill:#e5cccc;}.cls-5{fill:#fff;}</style></defs><title>logistic, delivery, transport, transportation, free, van</title><path class="cls-1" d="M40.28,18.73h-.17A2.44,2.44,0,0,1,38,17.44a2.54,2.54,0,0,0-2.2-1.25H30.65A2.65,2.65,0,0,0,28,18.47a2.54,2.54,0,0,0,2.53,2.8h.32a2.44,2.44,0,0,1,2.08,1.29,2.54,2.54,0,0,0,2.2,1.25h5.33A2.54,2.54,0,0,0,43,21,2.65,2.65,0,0,0,40.28,18.73Z"/><path class="cls-1" d="M23.37,20.88h0A2.35,2.35,0,0,1,21,18.53h0a2.34,2.34,0,0,1,2.34-2.34h0a2.35,2.35,0,0,1,2.35,2.34h0A2.35,2.35,0,0,1,23.37,20.88Z"/><path class="cls-2" d="M49.24,50.1A2.93,2.93,0,0,0,46.31,53a2.87,2.87,0,0,0,.4,1.45h-.4V56h2.93a2.93,2.93,0,0,0,0-5.86Z"/><path class="cls-3" d="M52,53.84a3,3,0,0,0,.13-.81,3.12,3.12,0,0,0-.16-.92H46.47a3.12,3.12,0,0,0-.16.92,3,3,0,0,0,.12.81Z"/><circle class="cls-3" cx="46.31" cy="53.03" r="2.93"/><path class="cls-2" d="M31.89,50.1A2.93,2.93,0,0,0,29,53a2.87,2.87,0,0,0,.4,1.45H29V56h2.93a2.93,2.93,0,0,0,0-5.86Z"/><path class="cls-3" d="M34.69,53.84a3,3,0,0,0,.12-.81,2.82,2.82,0,0,0-.16-.92H29.12A2.82,2.82,0,0,0,29,53a2.64,2.64,0,0,0,.12.81Z"/><circle class="cls-3" cx="28.96" cy="53.03" r="2.93"/><path class="cls-2" d="M40.45,50.1A2.93,2.93,0,0,0,37.52,53a3,3,0,0,0,.4,1.45h-.4V56h2.93a2.93,2.93,0,0,0,0-5.86Z"/><path class="cls-3" d="M43.25,53.84a2.69,2.69,0,0,0,.13-.81,2.82,2.82,0,0,0-.16-.92H37.69a2.83,2.83,0,0,0-.17.92,2.64,2.64,0,0,0,.13.81Z"/><path class="cls-2" d="M23.1,50.1A2.93,2.93,0,0,0,20.17,53a2.87,2.87,0,0,0,.4,1.45h-.4V56H23.1a2.93,2.93,0,0,0,0-5.86Z"/><path class="cls-3" d="M25.9,53.84A2.69,2.69,0,0,0,26,53a3.12,3.12,0,0,0-.16-.92H20.33a3.12,3.12,0,0,0-.16.92,2.64,2.64,0,0,0,.13.81Z"/><path class="cls-4" d="M53.8,53H15.66A1.7,1.7,0,0,1,14,51.31V31.94a3,3,0,0,1,3-3h25.8a5.87,5.87,0,0,1,4.51,2.11l7.87,9.43A3.75,3.75,0,0,1,56,42.92V50.8A2.2,2.2,0,0,1,53.8,53Z"/><path class="cls-1" d="M55.12,40.5l-7.87-9.43A5.87,5.87,0,0,0,42.74,29H32.85a5.87,5.87,0,0,1,4.51,2.11l7.87,9.43a3.75,3.75,0,0,1,.88,2.42v5.86a3.06,3.06,0,0,1-3.06,3.08h-.63a1,1,0,0,1-.92-.6,4.33,4.33,0,0,0-8,0,1,1,0,0,1-.92.6H25.08a1,1,0,0,1-.92-.6,4.34,4.34,0,0,0-8,0,1,1,0,0,1-.92.6h-1.2A1.69,1.69,0,0,0,15.66,53H53.8A2.2,2.2,0,0,0,56,50.8V42.92A3.75,3.75,0,0,0,55.12,40.5Z"/><path class="cls-3" d="M36.92,34.51v3.67a3.37,3.37,0,0,0,3.37,3.37H55.74a3.59,3.59,0,0,0-.62-1l-6.33-7.58H38.51A1.59,1.59,0,0,0,36.92,34.51Z"/><path class="cls-2" d="M38.9,32.92l6.33,7.58a3.56,3.56,0,0,1,.61,1h9.9a4,4,0,0,0-.27-.55,4.1,4.1,0,0,0-.35-.5l-6.33-7.58Z"/><circle class="cls-3" cx="20.17" cy="53.03" r="2.93"/><path class="cls-1" d="M20.9,53a.73.73,0,1,0-.73.73A.73.73,0,0,0,20.9,53Z"/><circle class="cls-3" cx="37.52" cy="53.03" r="2.93"/><path class="cls-1" d="M38.26,53a.74.74,0,0,0-1.47,0,.74.74,0,0,0,1.47,0Z"/><rect class="cls-4" x="48.2" y="45.41" width="6.09" height="2.63"/><path class="cls-5" d="M48.2,48h0a.8.8,0,0,1-.8-.8v-1a.8.8,0,0,1,.8-.8h0a.8.8,0,0,1,.8.8v1A.8.8,0,0,1,48.2,48Z"/><path class="cls-5" d="M54.3,48h0a.8.8,0,0,1-.8-.8v-1a.8.8,0,0,1,.8-.8h0a.8.8,0,0,1,.8.8v1A.8.8,0,0,1,54.3,48Z"/><path class="cls-4" d="M8,30.15H8a1.18,1.18,0,0,0,1.19,1.18h3.58A1.19,1.19,0,0,1,14,32.52h0a1.19,1.19,0,0,1-1.19,1.19h-.58A1.19,1.19,0,0,0,11,34.9h0a1.18,1.18,0,0,0,1.19,1.18h.58A1.19,1.19,0,0,1,14,37.27v1.19h6V29H9.19A1.19,1.19,0,0,0,8,30.15Z"/><path class="cls-4" d="M9.19,36.08h0A1.18,1.18,0,0,1,8,34.9H8a1.19,1.19,0,0,1,1.19-1.19h0a1.19,1.19,0,0,1,1.19,1.19h0A1.19,1.19,0,0,1,9.19,36.08Z"/></svg>