<svg id="Layer_1" data-name="Layer 1" xmlns="http://www.w3.org/2000/svg" viewBox="0 0 64 64"><defs><style>.cls-1{fill:#F4DFDF;}.cls-2{fill:#e5cccc;}.cls-3{fill:#fff;}.cls-4{fill:#DD1515;}.cls-5{fill:#FC0707;}</style></defs><title>map, navigation, location, international, pin, navigate, </title><circle class="cls-1" cx="29.39" cy="34.69" r="21.39" transform="translate(-15.46 27.21) rotate(-40.26)"/><path class="cls-2" d="M24.27,40.64h0a2.79,2.79,0,0,0,2.79,2.79h.28a2.8,2.8,0,0,0,2.8-2.79V28.69a7.81,7.81,0,0,1,2.28-5.52h0a7.8,7.8,0,0,0,2.29-5.53V14A21.3,21.3,0,0,0,9,28.13a3.35,3.35,0,0,0,.84,3.37l2.21,2.21a2.84,2.84,0,0,0,2,.82h0a12.66,12.66,0,0,1,9,3.71l.42.42A2.8,2.8,0,0,1,24.27,40.64Z"/><rect class="cls-2" x="34.71" y="28.37" width="5.24" height="5.24" rx="2.05"/><path class="cls-2" d="M50.48,38.11H46.74a4.7,4.7,0,0,0-3.34,1.38l-.8.8a2.55,2.55,0,0,0-.76,1.82v.61a2.57,2.57,0,0,1-2.57,2.57h0a2.57,2.57,0,0,0-2.57,2.57v6.91A21.39,21.39,0,0,0,50.48,38.11Z"/><path class="cls-3" d="M45.89,38.11A1.87,1.87,0,1,1,44,36.23,1.87,1.87,0,0,1,45.89,38.11Z"/><path class="cls-2" d="M35.71,40.55h0a1,1,0,0,1-1-1h0a1,1,0,0,1,1-1h0a1,1,0,0,1,1,1h0A1,1,0,0,1,35.71,40.55Z"/><path class="cls-2" d="M42.59,27.7h0a1,1,0,0,1-1-1h0a1,1,0,0,1,1-1h0a1,1,0,0,1,1,1h0A1,1,0,0,1,42.59,27.7Z"/><path class="cls-2" d="M24,55.36V53.64a6,6,0,0,0-6-6H12.39A21.28,21.28,0,0,0,24,55.36Z"/><path class="cls-4" d="M42.59,22.76V38.14A1.41,1.41,0,0,0,44,39.56h0a1.41,1.41,0,0,0,1.4-1.42V22.76Z"/><circle class="cls-5" cx="44" cy="16.36" r="8.36"/><path class="cls-3" d="M39.42,14.14a1,1,0,0,1-.81-1.58A6.59,6.59,0,0,1,44,9.77a1,1,0,0,1,0,2,4.61,4.61,0,0,0-3.76,2A1,1,0,0,1,39.42,14.14Z"/><path class="cls-3" d="M38.4,17.36a1,1,0,0,1-1-1v-.24a1,1,0,0,1,1-1,1,1,0,0,1,1,1v.18A1,1,0,0,1,38.4,17.36Z"/></svg>