<svg id="Layer_1" data-name="Layer 1" xmlns="http://www.w3.org/2000/svg" viewBox="0 0 64 64"><defs><style>.cls-1{fill:#ff5454;}.cls-2{fill:#dfe8f4;}.cls-3{fill:#dd1515;}</style></defs><title>map, navigation, location, navigate, compass</title><circle class="cls-1" cx="32" cy="32" r="24" transform="translate(-10.76 17.18) rotate(-25.88)"/><path class="cls-2" d="M34.15,36.7,22.61,42.4a.75.75,0,0,1-1-1l5.7-11.54a5.62,5.62,0,0,1,2.55-2.55l11.54-5.7a.75.75,0,0,1,1,1L36.7,34.15A5.62,5.62,0,0,1,34.15,36.7Z"/><path class="cls-3" d="M34.19,32A2.19,2.19,0,1,1,32,29.81,2.19,2.19,0,0,1,34.19,32Z"/></svg>