<svg id="Layer_1" data-name="Layer 1" xmlns="http://www.w3.org/2000/svg" viewBox="0 0 64 64"><defs><style>.cls-1{fill:#F4DFDF;}.cls-2{fill:#e5cccc;}.cls-3{fill:#FC0707;}</style></defs><title>map, navigation, location, navigate, landscape, mapping</title><rect class="cls-1" x="14.41" y="16.08" width="35.19" height="40.19"/><path class="cls-2" d="M23.92,28.86h0a2.07,2.07,0,0,1,.6-1.47l1-1a8.93,8.93,0,0,0,2.62-6.32v-4H15.42V36.92l4.92,4.92a2,2,0,0,0,2.82,0h0a2,2,0,0,0,0-2.81L22,37.88a3.57,3.57,0,0,1-1-2.53h0a3.57,3.57,0,0,1,1-2.52l.46-.46A5,5,0,0,0,23.92,28.86Z"/><path class="cls-2" d="M45.26,31.89l-1.57-1.57a2.21,2.21,0,0,0-1.57-.65H33.31a3.15,3.15,0,0,0-2.23.92l-3.16,3.16a1.85,1.85,0,0,0-.54,1.31V39a1.84,1.84,0,0,0,.54,1.3l2.87,2.87a3.46,3.46,0,0,0,2.47,1h.89a1.18,1.18,0,0,1,1.18,1.18h0a2.92,2.92,0,0,0,.86,2.07l1.45,1.45A2.94,2.94,0,0,1,38.5,51v.63a2.59,2.59,0,0,0,2.58,2.59h0a2.59,2.59,0,0,0,2.59-2.59V50a3,3,0,0,1,.89-2.15l2.13-2.13a6.48,6.48,0,0,0,1.89-4.58V38.46A2.12,2.12,0,0,0,48,37l-1.47-1.47A2.11,2.11,0,0,1,45.88,34v-.64A2.1,2.1,0,0,0,45.26,31.89Z"/><rect class="cls-2" x="30.23" y="22.77" width="4.25" height="4.25" rx="0.8"/><rect class="cls-2" x="36.73" y="20" width="4.25" height="4.25" rx="0.8"/><rect class="cls-2" x="22.04" y="45.15" width="2.75" height="2.75" rx="0.58"/><rect class="cls-2" x="43.46" y="24.25" width="2.75" height="2.75" rx="0.58"/><rect class="cls-2" x="26.54" y="48.62" width="2.75" height="2.75" rx="0.58"/><path class="cls-2" d="M13.19,56.28A5.19,5.19,0,0,1,8,51.09V14.28a5.19,5.19,0,0,0,5.19,5.19h2.29V56.28Z"/><path class="cls-3" d="M13.19,8A5.19,5.19,0,0,0,8,13.19V50a5.19,5.19,0,0,1,5.19-5.19h1.48a.81.81,0,0,0,.81-.81V8.81A.81.81,0,0,0,14.67,8Z"/><path class="cls-2" d="M50.81,56.28A5.19,5.19,0,0,0,56,51.09V14.28a5.19,5.19,0,0,1-5.19,5.19H48.52V56.28Z"/><path class="cls-3" d="M50.81,8A5.19,5.19,0,0,1,56,13.19V50a5.19,5.19,0,0,0-5.19-5.19H49.33a.81.81,0,0,1-.81-.81V8.81A.81.81,0,0,1,49.33,8Z"/></svg>