<svg id="Layer_1" data-name="Layer 1" xmlns="http://www.w3.org/2000/svg" viewBox="0 0 64 64"><defs><style>.cls-1{fill:#fff;}.cls-2{fill:#dfe8f4;}.cls-3{fill:#ff5454;}.cls-4{fill:#dd1515;}</style></defs><title>map, navigation, location, navigate, international, direction, compass</title><circle class="cls-1" cx="24.01" cy="24.01" r="10.24"/><path class="cls-2" d="M24,8A16,16,0,1,0,40,24,16,16,0,0,0,24,8ZM35.34,21.78H31.07A30.75,30.75,0,0,0,29.71,14,11.59,11.59,0,0,1,35.34,21.78ZM24,35.5c-.77-.6-2.29-3.76-2.63-9.28h5.26C26.29,31.74,24.77,34.9,24,35.5ZM21.37,21.78c.34-5.52,1.86-8.68,2.63-9.28.77.6,2.29,3.76,2.63,9.28ZM18.29,14a30.75,30.75,0,0,0-1.36,7.81H12.66A11.59,11.59,0,0,1,18.29,14ZM12.66,26.22h4.27A30.75,30.75,0,0,0,18.29,34,11.59,11.59,0,0,1,12.66,26.22ZM29.71,34a30.75,30.75,0,0,0,1.36-7.81h4.27A11.59,11.59,0,0,1,29.71,34Z"/><circle class="cls-3" cx="40" cy="40" r="16" transform="translate(-16.57 40) rotate(-45)"/><path class="cls-2" d="M40.34,48.07,39,43.35a1.37,1.37,0,0,0-1-1L33.28,41a.51.51,0,0,1-.06-1l13.15-5.74a.52.52,0,0,1,.68.68L41.32,48.13A.53.53,0,0,1,40.34,48.07Z"/><path class="cls-4" d="M40,24a15.92,15.92,0,0,0-8.1,2.22h3.44A11.59,11.59,0,0,1,29.71,34,30.4,30.4,0,0,0,31,26.75a16,16,0,0,0-7,13.17V40A16,16,0,0,0,40,24Z"/></svg>