<svg id="Layer_1" data-name="Layer 1" xmlns="http://www.w3.org/2000/svg" viewBox="0 0 64 64"><defs><style>.cls-1{fill:#dfe8f4;}.cls-2{fill:#ff5454;}.cls-3{fill:#fff;}.cls-4{fill:#ccd8e5;}</style></defs><title>map, navigation, location, navigate, route, road, navigator</title><rect class="cls-1" x="8" y="16.97" width="48" height="39.03" rx="3.07"/><rect class="cls-2" x="14.22" y="22.03" width="35.56" height="21.61" rx="2.27"/><path class="cls-3" d="M49.76,41.57,39.6,22H24.4L14.24,41.57a2.27,2.27,0,0,0,2.25,2.07h31A2.27,2.27,0,0,0,49.76,41.57Z"/><path class="cls-3" d="M25.19,51.12h-2.5a1.18,1.18,0,0,1-1.19-1.18h0a1.19,1.19,0,0,1,1.19-1.19h2.5a1.19,1.19,0,0,1,1.19,1.19h0A1.19,1.19,0,0,1,25.19,51.12Z"/><path class="cls-4" d="M33.25,51.12h-2.5a1.18,1.18,0,0,1-1.19-1.18h0a1.19,1.19,0,0,1,1.19-1.19h2.5a1.19,1.19,0,0,1,1.19,1.19h0A1.18,1.18,0,0,1,33.25,51.12Z"/><path class="cls-4" d="M41.31,51.12h-2.5a1.19,1.19,0,0,1-1.19-1.18h0a1.19,1.19,0,0,1,1.19-1.19h2.5a1.19,1.19,0,0,1,1.19,1.19h0A1.18,1.18,0,0,1,41.31,51.12Z"/><rect class="cls-4" x="31.29" y="22.03" width="1.42" height="2.8"/><rect class="cls-4" x="31.29" y="26.89" width="1.42" height="2.8"/><rect class="cls-4" x="31.29" y="31.75" width="1.42" height="2.8"/><rect class="cls-4" x="31.29" y="36.62" width="1.42" height="2.8"/><rect class="cls-4" x="31.29" y="41.48" width="1.42" height="2.15"/></svg>