<svg id="Layer_1" data-name="Layer 1" xmlns="http://www.w3.org/2000/svg" viewBox="0 0 64 64"><defs><style>.cls-1{fill:#F4DFDF;}.cls-2{fill:#e5cccc;}.cls-3{fill:#FC0707;}.cls-4{fill:#DD1515;}</style></defs><title>map, navigation, location, navigate, pointer</title><rect class="cls-1" x="14.41" y="30.2" width="35.19" height="25.8"/><path class="cls-2" d="M13.19,56A5.19,5.19,0,0,1,8,50.81V28.4a5.18,5.18,0,0,0,5.19,5.18h2.29V56Z"/><path class="cls-3" d="M13.19,22.11A5.19,5.19,0,0,0,8,27.3V49.72a5.19,5.19,0,0,1,5.19-5.19h1.48a.81.81,0,0,0,.81-.81V22.92a.82.82,0,0,0-.81-.81Z"/><path class="cls-2" d="M50.81,56A5.19,5.19,0,0,0,56,50.81V28.4a5.18,5.18,0,0,1-5.19,5.18H48.52V56Z"/><path class="cls-3" d="M50.81,22.11A5.19,5.19,0,0,1,56,27.3V49.72a5.19,5.19,0,0,0-5.19-5.19H49.33a.81.81,0,0,1-.81-.81V22.92a.82.82,0,0,1,.81-.81Z"/><rect class="cls-2" x="31.6" y="36.41" width="0.8" height="33.05" transform="translate(-20.93 84.93) rotate(-90)"/><rect class="cls-2" x="31.6" y="31.49" width="0.8" height="33.05" transform="translate(-16.02 80.02) rotate(-90)"/><rect class="cls-2" x="31.6" y="26.58" width="0.8" height="33.05" transform="translate(-11.1 75.1) rotate(-90)"/><rect class="cls-2" x="31.6" y="21.66" width="0.8" height="33.05" transform="translate(-6.18 70.18) rotate(-90)"/><rect class="cls-2" x="31.6" y="16.74" width="0.8" height="33.05" transform="translate(-1.27 65.27) rotate(-90)"/><rect class="cls-2" x="19.31" y="30.2" width="0.8" height="25.8"/><rect class="cls-2" x="24.22" y="30.2" width="0.8" height="25.8"/><rect class="cls-2" x="29.14" y="30.2" width="0.8" height="25.8"/><rect class="cls-2" x="34.06" y="30.2" width="0.8" height="25.8"/><rect class="cls-2" x="38.97" y="30.2" width="0.8" height="25.8"/><rect class="cls-2" x="43.89" y="30.2" width="0.8" height="25.8"/><path class="cls-3" d="M44.38,23.23a12.39,12.39,0,0,0-13-12.37A13,13,0,0,0,19.64,22.38a12.35,12.35,0,0,0,4.6,10.49,26.84,26.84,0,0,1,7.14,8.48l.36.69a.29.29,0,0,0,.52,0l.21-.41a27.27,27.27,0,0,1,7.25-8.73A12.32,12.32,0,0,0,44.38,23.23Z"/><path class="cls-4" d="M36.17,23.55A4.17,4.17,0,1,1,32,19.37,4.17,4.17,0,0,1,36.17,23.55Z"/></svg>