<svg id="Layer_1" data-name="Layer 1" xmlns="http://www.w3.org/2000/svg" viewBox="0 0 64 64"><defs><style>.cls-1{fill:#F4DFDF;}.cls-2{fill:#FC0707;}.cls-3{fill:#fff;}.cls-4{fill:#e5cccc;}</style></defs><title>map, navigation, location, navigate, navigator, direction</title><rect class="cls-1" x="8" y="16.25" width="48" height="39.03" rx="3.07"/><rect class="cls-2" x="14.22" y="21.31" width="35.56" height="21.61" rx="2.27"/><path class="cls-3" d="M25.19,50.41h-2.5a1.19,1.19,0,0,1-1.19-1.19h0A1.19,1.19,0,0,1,22.69,48h2.5a1.19,1.19,0,0,1,1.19,1.19h0A1.2,1.2,0,0,1,25.19,50.41Z"/><path class="cls-4" d="M33.25,50.41h-2.5a1.19,1.19,0,0,1-1.19-1.19h0A1.19,1.19,0,0,1,30.75,48h2.5a1.19,1.19,0,0,1,1.19,1.19h0A1.19,1.19,0,0,1,33.25,50.41Z"/><path class="cls-4" d="M41.31,50.41h-2.5a1.2,1.2,0,0,1-1.19-1.19h0A1.19,1.19,0,0,1,38.81,48h2.5a1.19,1.19,0,0,1,1.19,1.19h0A1.19,1.19,0,0,1,41.31,50.41Z"/><path class="cls-3" d="M32.3,38.05l-1.22-4.17a1.24,1.24,0,0,0-.85-.84l-4.16-1.23A.46.46,0,0,1,26,31l11.61-5.06a.46.46,0,0,1,.6.6L33.16,38.1A.46.46,0,0,1,32.3,38.05Z"/></svg>