<svg id="Layer_1" data-name="Layer 1" xmlns="http://www.w3.org/2000/svg" viewBox="0 0 64 64"><defs><style>.cls-1{fill:#F4DFDF;}.cls-2{fill:#e5cccc;}.cls-3{fill:#FC0707;}.cls-4{fill:#DD1515;}.cls-5{fill:#fff;}</style></defs><title>map, navigation, location, pin, navigate, </title><rect class="cls-1" x="14.41" y="30.28" width="35.19" height="25.8"/><path class="cls-2" d="M13.19,56.08A5.19,5.19,0,0,1,8,50.89V28.48a5.18,5.18,0,0,0,5.19,5.18h2.29V56.08Z"/><path class="cls-3" d="M13.19,22.2A5.18,5.18,0,0,0,8,27.38V49.8a5.19,5.19,0,0,1,5.19-5.19h1.48a.81.81,0,0,0,.81-.81V23a.81.81,0,0,0-.81-.81Z"/><path class="cls-2" d="M50.81,56.08A5.19,5.19,0,0,0,56,50.89V28.48a5.18,5.18,0,0,1-5.19,5.18H48.52V56.08Z"/><path class="cls-3" d="M50.81,22.2A5.18,5.18,0,0,1,56,27.38V49.8a5.19,5.19,0,0,0-5.19-5.19H49.33a.81.81,0,0,1-.81-.81V23a.81.81,0,0,1,.81-.81Z"/><rect class="cls-2" x="31.6" y="36.49" width="0.8" height="33.05" transform="translate(-21.01 85.01) rotate(-90)"/><rect class="cls-2" x="31.6" y="31.57" width="0.8" height="33.05" transform="translate(-16.1 80.1) rotate(-90)"/><rect class="cls-2" x="31.6" y="26.66" width="0.8" height="33.05" transform="translate(-11.18 75.18) rotate(-90)"/><rect class="cls-2" x="31.6" y="21.74" width="0.8" height="33.05" transform="translate(-6.26 70.26) rotate(-90)"/><rect class="cls-2" x="31.6" y="16.82" width="0.8" height="33.05" transform="translate(-1.35 65.35) rotate(-90)"/><rect class="cls-2" x="19.31" y="30.28" width="0.8" height="25.8"/><rect class="cls-2" x="24.22" y="30.28" width="0.8" height="25.8"/><rect class="cls-2" x="29.14" y="30.28" width="0.8" height="25.8"/><rect class="cls-2" x="34.06" y="30.28" width="0.8" height="25.8"/><rect class="cls-2" x="38.97" y="30.28" width="0.8" height="25.8"/><rect class="cls-2" x="43.89" y="30.28" width="0.8" height="25.8"/><path class="cls-2" d="M41.5,41.17c0,1.26-4.25,2.27-9.5,2.27s-9.5-1-9.5-2.27,4.25-2.26,9.5-2.26S41.5,39.92,41.5,41.17Z"/><path class="cls-4" d="M30.45,27.24V40.16a1,1,0,0,0,1,1h1.1a1,1,0,0,0,1-1V27.24Z"/><circle class="cls-3" cx="32" cy="20.22" r="9.18" transform="matrix(0.15, -0.99, 0.99, 0.15, 7.12, 48.74)"/><path class="cls-5" d="M26.67,18.16a1,1,0,0,1-.5-.14,1,1,0,0,1-.36-1.36A7.15,7.15,0,0,1,32,13.08a1,1,0,0,1,0,2,5.15,5.15,0,0,0-4.46,2.58A1,1,0,0,1,26.67,18.16Z"/><path class="cls-5" d="M25.86,21.22a1,1,0,0,1-1-1v-.28a1,1,0,1,1,2,.08v.2A1,1,0,0,1,25.86,21.22Z"/></svg>