<svg id="Layer_1" data-name="Layer 1" xmlns="http://www.w3.org/2000/svg" viewBox="0 0 64 64"><defs><style>.cls-1{fill:#F4DFDF;}.cls-2{fill:#e5cccc;}.cls-3{fill:#FC0707;}.cls-4{fill:#DD1515;}</style></defs><title>map, navigation, location, navigate, direction, arrow</title><path class="cls-1" d="M35.81,56H28.19V11.81A3.81,3.81,0,0,1,32,8h0a3.81,3.81,0,0,1,3.81,3.81Z"/><path class="cls-2" d="M32,13.48V56h3.81V11.79a1.55,1.55,0,0,0-2.56-1.12A3.75,3.75,0,0,0,32,13.48Z"/><rect class="cls-2" x="28.19" y="53.46" width="7.62" height="2.54"/><path class="cls-3" d="M15.8,14.55l-2.34,4a1.5,1.5,0,0,0,0,1.48l2.34,4.05a1.47,1.47,0,0,0,1.28.74H32v-11H17.08A1.47,1.47,0,0,0,15.8,14.55Z"/><path class="cls-2" d="M48.2,35.17l2.34-4.05a1.5,1.5,0,0,0,0-1.48l-2.34-4a1.47,1.47,0,0,0-1.28-.74H32v11H46.92A1.47,1.47,0,0,0,48.2,35.17Z"/><path class="cls-4" d="M15.8,36.65l-2.34,4a1.5,1.5,0,0,0,0,1.48l2.34,4a1.49,1.49,0,0,0,1.28.74H32V35.91H17.08A1.47,1.47,0,0,0,15.8,36.65Z"/></svg>