<svg id="Layer_1" data-name="Layer 1" xmlns="http://www.w3.org/2000/svg" viewBox="0 0 64 64"><defs><style>.cls-1{fill:#e5cccc;}.cls-2{fill:#F4DFDF;}.cls-3{fill:#FC0707;}.cls-4{fill:#DD1515;}</style></defs><title>map, navigation, location, navigate, route, pin, pointer</title><circle class="cls-1" cx="32" cy="26.13" r="2.56"/><path class="cls-2" d="M52.46,41.21a1.49,1.49,0,0,1-.83-.25L32.51,28.27a1.5,1.5,0,0,1,1.66-2.5L53.29,38.46a1.5,1.5,0,0,1-.83,2.75Z"/><path class="cls-1" d="M56,39.71a3.54,3.54,0,1,1-3.54-3.54A3.53,3.53,0,0,1,56,39.71Z"/><path class="cls-3" d="M39,15.35a7,7,0,0,0-7.39-7A7.36,7.36,0,0,0,25,14.86a7,7,0,0,0,2.61,6,15.16,15.16,0,0,1,4.06,4.81l.2.39a.16.16,0,0,0,.3,0l.12-.23a15.52,15.52,0,0,1,4.12-5A7,7,0,0,0,39,15.35Z"/><path class="cls-4" d="M34.37,15.53A2.37,2.37,0,1,1,32,13.15,2.37,2.37,0,0,1,34.37,15.53Z"/><path class="cls-2" d="M12.46,53a1.5,1.5,0,0,1-.41-2.94L49.66,39.48a1.5,1.5,0,0,1,.82,2.89L12.86,53A1.37,1.37,0,0,1,12.46,53Z"/><circle class="cls-1" cx="12.46" cy="51.54" r="4.46"/></svg>