<svg id="Layer_1" data-name="Layer 1" xmlns="http://www.w3.org/2000/svg" viewBox="0 0 64 64"><defs><style>.cls-1{fill:#ff5454;}.cls-2{fill:#dfe8f4;}</style></defs><title>map, navigation, location, navigate, pin, favourite, heart</title><path class="cls-1" d="M51,27A19,19,0,0,0,31.06,8c-9,.44-17.38,8.63-18,17.64a18.92,18.92,0,0,0,7,16.06,40.88,40.88,0,0,1,10.93,13l.55,1.06a.45.45,0,0,0,.8,0l.32-.63a41.6,41.6,0,0,1,11.1-13.36A18.9,18.9,0,0,0,51,27Z"/><path class="cls-2" d="M38.72,23.39a4.62,4.62,0,0,0-6.32.35l-.4.39-.4-.39a4.62,4.62,0,0,0-6.32-.35,4.47,4.47,0,0,0-.18,6.49l6.26,6.26a.92.92,0,0,0,1.28,0l6.26-6.26A4.47,4.47,0,0,0,38.72,23.39Z"/></svg>