<svg id="Layer_1" data-name="Layer 1" xmlns="http://www.w3.org/2000/svg" viewBox="0 0 64 64"><defs><style>.cls-1{fill:#FC0707;}.cls-2{fill:#F4DFDF;}.cls-3{fill:#fff;}.cls-4{fill:#e5cccc;}</style></defs><title>map, navigation, location, navigate, time, pin</title><path class="cls-1" d="M51,27A19,19,0,0,0,31.06,8c-9,.44-17.38,8.63-18,17.64a18.92,18.92,0,0,0,7,16.06,40.88,40.88,0,0,1,10.93,13l.55,1.06a.45.45,0,0,0,.8,0l.32-.63a41.6,41.6,0,0,1,11.1-13.36A18.9,18.9,0,0,0,51,27Z"/><circle class="cls-2" cx="32" cy="26.29" r="10.2" transform="translate(-7.63 14.25) rotate(-22.5)"/><path class="cls-3" d="M35.73,27.37H32V25.21h3.73a1.08,1.08,0,0,1,1.08,1.08h0A1.08,1.08,0,0,1,35.73,27.37Z"/><path class="cls-4" d="M32,26h0a.54.54,0,0,1-.54-.53v-5.8a.54.54,0,0,1,.54-.53h0a.53.53,0,0,1,.53.53v5.8A.53.53,0,0,1,32,26Z"/><path class="cls-3" d="M33.33,26.29A1.33,1.33,0,1,1,32,25,1.32,1.32,0,0,1,33.33,26.29Z"/></svg>