<svg id="Layer_1" data-name="Layer 1" xmlns="http://www.w3.org/2000/svg" viewBox="0 0 64 64"><defs><style>.cls-1{fill:#F4DFDF;}.cls-2{fill:#e5cccc;}.cls-3{fill:#FC0707;}.cls-4{fill:#DD1515;}.cls-5{fill:#fff;}</style></defs><title>map, navigation, location, navigate, pin</title><path class="cls-1" d="M53.75,56H10.25a1.14,1.14,0,0,1-.91-1.81L17.67,43a1.12,1.12,0,0,1,.91-.46H45.42a1.12,1.12,0,0,1,.91.46l8.33,11.23A1.14,1.14,0,0,1,53.75,56Z"/><path class="cls-2" d="M46.33,43a1.12,1.12,0,0,0-.91-.46H31.92v7.17H51.31Z"/><path class="cls-3" d="M48.45,24.47A16.44,16.44,0,0,0,31.19,8c-7.84.37-15.08,7.48-15.6,15.3A16.38,16.38,0,0,0,21.7,37.28a35.44,35.44,0,0,1,9.48,11.26l.47.91a.39.39,0,0,0,.7,0l.28-.54a36,36,0,0,1,9.63-11.59A16.43,16.43,0,0,0,48.45,24.47Z"/><path class="cls-4" d="M32.35,49.45l.28-.54a34.7,34.7,0,0,1,4.3-6.41H27.1a32.34,32.34,0,0,1,4.08,6l.47.91A.39.39,0,0,0,32.35,49.45Z"/><circle class="cls-5" cx="32" cy="24.89" r="5.55"/></svg>