<svg id="Layer_1" data-name="Layer 1" xmlns="http://www.w3.org/2000/svg" viewBox="0 0 64 64"><defs><style>.cls-1{fill:#FC0707;}.cls-2{fill:#F4DFDF;}.cls-3{fill:#DD1515;}</style></defs><title>map, navigation, location, navigate, compass_1</title><circle class="cls-1" cx="32" cy="34.69" r="21.31"/><path class="cls-2" d="M33.91,38.86,23.66,43.92a.67.67,0,0,1-.9-.89l5.07-10.25a5,5,0,0,1,2.26-2.27l10.25-5.06a.67.67,0,0,1,.9.89L36.17,36.59A4.92,4.92,0,0,1,33.91,38.86Z"/><circle class="cls-3" cx="32" cy="34.69" r="1.73"/><path class="cls-1" d="M32,16.11A4.07,4.07,0,1,1,36.07,12,4.08,4.08,0,0,1,32,16.11ZM32,11A1.07,1.07,0,1,0,33.07,12,1.07,1.07,0,0,0,32,11Z"/></svg>