<svg id="Layer_1" data-name="Layer 1" xmlns="http://www.w3.org/2000/svg" viewBox="0 0 64 64"><defs><style>.cls-1{fill:#FC0707;}.cls-2{fill:#fff;}.cls-3{fill:#F4DFDF;}</style></defs><title>map, navigation, location, navigate, internatinal, global, pin</title><path class="cls-1" d="M51,27A19,19,0,0,0,31.06,8c-9,.44-17.38,8.63-18,17.64a18.92,18.92,0,0,0,7,16.06,40.88,40.88,0,0,1,10.93,13l.55,1.06a.45.45,0,0,0,.8,0l.32-.63a41.6,41.6,0,0,1,11.1-13.36A18.9,18.9,0,0,0,51,27Z"/><circle class="cls-2" cx="32" cy="27.05" r="8.88"/><path class="cls-3" d="M32,16a11,11,0,1,0,11,11A11,11,0,0,0,32,16Zm7.8,9.48H36.87a21.56,21.56,0,0,0-.94-5.37A8,8,0,0,1,39.8,25.52ZM32,35c-.53-.41-1.58-2.59-1.81-6.38h3.62C33.58,32.37,32.53,34.55,32,35Zm-1.81-9.44c.23-3.79,1.28-6,1.81-6.38.53.41,1.58,2.59,1.81,6.38Zm-2.12-5.37a21.56,21.56,0,0,0-.94,5.37H24.2A8,8,0,0,1,28.07,20.15ZM24.2,28.58h2.93A21.56,21.56,0,0,0,28.07,34,8,8,0,0,1,24.2,28.58ZM35.93,34a21.56,21.56,0,0,0,.94-5.37H39.8A8,8,0,0,1,35.93,34Z"/></svg>