<svg id="Layer_1" data-name="Layer 1" xmlns="http://www.w3.org/2000/svg" viewBox="0 0 64 64"><defs><style>.cls-1{fill:#fff;}.cls-2{fill:#dfe8f4;}.cls-3{fill:#ff5454;}.cls-4{fill:#dd1515;}</style></defs><title>map, navigation, location, navigate, international, compass</title><circle class="cls-1" cx="22.34" cy="24.01" r="10.24"/><path class="cls-2" d="M22.33,8a16,16,0,1,0,16,16A16,16,0,0,0,22.33,8ZM33.67,21.78H29.41A30.74,30.74,0,0,0,28,14,11.56,11.56,0,0,1,33.67,21.78ZM22.33,35.5c-.77-.6-2.29-3.76-2.63-9.28H25C24.63,31.74,23.11,34.9,22.33,35.5ZM19.7,21.78c.34-5.51,1.86-8.68,2.63-9.28.78.6,2.3,3.77,2.63,9.28ZM16.62,14a31.19,31.19,0,0,0-1.36,7.81H11A11.57,11.57,0,0,1,16.62,14ZM11,26.22h4.26A31.11,31.11,0,0,0,16.62,34,11.57,11.57,0,0,1,11,26.22ZM28,34a30.66,30.66,0,0,0,1.37-7.81h4.26A11.56,11.56,0,0,1,28,34Z"/><circle class="cls-3" cx="38.33" cy="40" r="16" transform="translate(-13.96 21.69) rotate(-26.92)"/><path class="cls-4" d="M38.33,24a15.92,15.92,0,0,0-8.1,2.22h3.44A11.56,11.56,0,0,1,28,34a29.92,29.92,0,0,0,1.32-7.27,16,16,0,0,0-7,13.17s0,0,0,.07A16,16,0,0,0,38.33,24Z"/><path class="cls-2" d="M39.78,43.2,31.92,47a.51.51,0,0,1-.68-.69l3.91-7.81a3.84,3.84,0,0,1,1.74-1.73L44.74,33a.51.51,0,0,1,.68.69l-3.9,7.81A3.88,3.88,0,0,1,39.78,43.2Z"/><path class="cls-4" d="M39.89,40a1.56,1.56,0,1,1-1.55-1.57A1.55,1.55,0,0,1,39.89,40Z"/></svg>