<svg id="Layer_1" data-name="Layer 1" xmlns="http://www.w3.org/2000/svg" viewBox="0 0 64 64"><defs><style>.cls-1{fill:#FC0707;}.cls-2{fill:#F4DFDF;}</style></defs><title>map, navigation, location, navigate, arrows</title><path class="cls-1" d="M32,44.49A12.49,12.49,0,1,1,44.49,32,12.5,12.5,0,0,1,32,44.49Z"/><path class="cls-1" d="M38.87,14.59,32.72,8.44a1,1,0,0,0-1.44,0l-6.15,6.15a1,1,0,0,0,.72,1.75H28v7.58h8V16.34h2.15A1,1,0,0,0,38.87,14.59Z"/><path class="cls-1" d="M25.13,49.55l6.15,6.15a1,1,0,0,0,1.44,0l6.15-6.15a1,1,0,0,0-.72-1.75H36V40.22H28V47.8H25.85A1,1,0,0,0,25.13,49.55Z"/><path class="cls-1" d="M49.48,38.94l6.15-6.15a1,1,0,0,0,0-1.44L49.48,25.2a1,1,0,0,0-1.75.72v2.15H40.15v8h7.58v2.15A1,1,0,0,0,49.48,38.94Z"/><path class="cls-1" d="M14.52,25.2,8.37,31.35a1,1,0,0,0,0,1.44l6.15,6.15a1,1,0,0,0,1.75-.72V36.07h7.58v-8H16.27V25.92A1,1,0,0,0,14.52,25.2Z"/><path class="cls-2" d="M32,27.51A4.49,4.49,0,1,0,36.49,32,4.49,4.49,0,0,0,32,27.51Z"/></svg>