<svg id="Layer_1" data-name="Layer 1" xmlns="http://www.w3.org/2000/svg" viewBox="0 0 64 64"><defs><style>.cls-1{fill:#dfe8f4;}.cls-2{fill:#ccd8e5;}.cls-3{fill:#ff5454;}.cls-4{fill:#fff;}</style></defs><title>map, navigation, location, navigate, settings, options, preferences</title><path class="cls-1" d="M55.15,15.65,43,10.7a3.91,3.91,0,0,0-2.93,0L27,16V53.58l13-5.29a3.91,3.91,0,0,1,2.93,0l11.14,4.53A1.37,1.37,0,0,0,56,51.55V16.92A1.37,1.37,0,0,0,55.15,15.65Z"/><path class="cls-2" d="M40,48.29l1.47-.6V10.42A3.92,3.92,0,0,0,40,10.7L27,16V53.58l13-5.29Z"/><path class="cls-3" d="M8,16H25.51A1.51,1.51,0,0,1,27,17.5V52.07a1.51,1.51,0,0,1-1.51,1.51H8a0,0,0,0,1,0,0V16A0,0,0,0,1,8,16Z" transform="translate(35.02 69.58) rotate(180)"/><path class="cls-4" d="M21.91,34.79v-.11a1.49,1.49,0,0,1,.48-1.14h0a.66.66,0,0,0,.13-.82l-.71-1.24a.68.68,0,0,0-.78-.3l-.09,0a1.33,1.33,0,0,1-1.1-.15,1.35,1.35,0,0,0-.26-.15,1.33,1.33,0,0,1-.69-.88V30a.67.67,0,0,0-.66-.57H16.79a.65.65,0,0,0-.64.53l0,.09a1.33,1.33,0,0,1-.69.88,1.35,1.35,0,0,0-.26.15,1.36,1.36,0,0,1-1.11.15h0a.68.68,0,0,0-.82.28l-.71,1.24a.64.64,0,0,0,.13.82h0a1.49,1.49,0,0,1,.48,1.14v.22A1.49,1.49,0,0,1,12.63,36h0a.64.64,0,0,0-.13.82l.71,1.24a.66.66,0,0,0,.78.29l.08,0a1.33,1.33,0,0,1,1.1.15l.27.15a1.32,1.32,0,0,1,.69.89v.07a.66.66,0,0,0,.65.53h1.43a.65.65,0,0,0,.65-.52l0-.09a1.33,1.33,0,0,1,.69-.88,2.2,2.2,0,0,0,.26-.15A1.36,1.36,0,0,1,21,38.37h0a.68.68,0,0,0,.82-.28l.71-1.24a.65.65,0,0,0-.13-.82h0a1.49,1.49,0,0,1-.48-1.14Z"/><path class="cls-1" d="M19.08,34.79a1.57,1.57,0,1,1-1.57-1.57A1.57,1.57,0,0,1,19.08,34.79Z"/></svg>