<svg id="Layer_1" data-name="Layer 1" xmlns="http://www.w3.org/2000/svg" viewBox="0 0 64 64"><defs><style>.cls-1{fill:#FC0707;}.cls-2{fill:#F4DFDF;}.cls-3{fill:#e5cccc;}.cls-4{fill:#DD1515;}.cls-5{fill:#fff;}</style></defs><title>map, navigation, location, navigate</title><path class="cls-1" d="M24,49.5,9.46,55.41a1.06,1.06,0,0,1-1.46-1V16a2.25,2.25,0,0,1,1.41-2.09L24,8Z"/><polygon class="cls-2" points="40 56 24 49.5 24 8 40 14.5 40 56"/><path class="cls-3" d="M54.59,50.07,40,56V14.5L54.54,8.59a1.06,1.06,0,0,1,1.46,1V48A2.25,2.25,0,0,1,54.59,50.07Z"/><polygon class="cls-3" points="25.83 8.74 24 8 24 49.5 25.83 50.24 25.83 8.74"/><circle class="cls-4" cx="48" cy="48" r="8"/><path class="cls-1" d="M43.47,54.59l11.12-4.52A2.25,2.25,0,0,0,56,48a8,8,0,1,0-12.53,6.61Z"/><rect class="cls-5" x="47.03" y="43.78" width="1.94" height="8.44" rx="0.52"/><rect class="cls-5" x="47.03" y="43.78" width="1.94" height="8.44" rx="0.52" transform="translate(96) rotate(90)"/></svg>