<svg id="Layer_1" data-name="Layer 1" xmlns="http://www.w3.org/2000/svg" viewBox="0 0 64 64"><defs><style>.cls-1{fill:#dfe8f4;}.cls-2{fill:#ccd8e5;}.cls-3{fill:#ff5454;}.cls-4{fill:#fff;}</style></defs><title>map, navigation, location, navigate, route</title><path class="cls-1" d="M55.15,15.65,43,10.7a3.91,3.91,0,0,0-2.93,0L27,16V53.58l13-5.29a3.91,3.91,0,0,1,2.93,0l11.14,4.53A1.37,1.37,0,0,0,56,51.55V16.92A1.37,1.37,0,0,0,55.15,15.65Z"/><path class="cls-2" d="M40,48.29l1.47-.6V10.42A3.92,3.92,0,0,0,40,10.7L27,16V53.58l13-5.29Z"/><path class="cls-3" d="M8,16H25.51A1.51,1.51,0,0,1,27,17.5V52.07a1.51,1.51,0,0,1-1.51,1.51H8a0,0,0,0,1,0,0V16A0,0,0,0,1,8,16Z" transform="translate(35.02 69.58) rotate(180)"/><path class="cls-4" d="M17.51,34.38a.5.5,0,0,1-.5-.5v-.5a.5.5,0,0,1,1,0v.5A.5.5,0,0,1,17.51,34.38Z"/><path class="cls-4" d="M17.51,41.38a.5.5,0,0,1-.5-.5V40a.5.5,0,0,1,1,0v.88A.5.5,0,0,1,17.51,41.38Zm0-3.5a.5.5,0,0,1-.5-.5V36.5a.5.5,0,0,1,1,0v.88A.5.5,0,0,1,17.51,37.88Z"/><path class="cls-4" d="M18,44.5h-.5A.5.5,0,0,1,17,44v-.5a.5.5,0,0,1,1,0,.5.5,0,1,1,0,1Z"/><path class="cls-4" d="M26,44.5H25a.5.5,0,0,1,0-1h1a.5.5,0,0,1,0,1Zm-4,0H21a.5.5,0,0,1,0-1h1a.5.5,0,0,1,0,1Zm6.87-.67a.49.49,0,0,1-.47-.33.5.5,0,0,1,.3-.64l.94-.33a.5.5,0,1,1,.34.94L29,43.8A.47.47,0,0,1,28.87,43.83Zm3.76-1.35a.48.48,0,0,1-.47-.33.5.5,0,0,1,.3-.64l.94-.33a.49.49,0,0,1,.64.3.5.5,0,0,1-.3.64l-.94.33A.51.51,0,0,1,32.63,42.48Zm3.76-1.35a.48.48,0,0,1-.47-.33.5.5,0,0,1,.3-.64l.94-.34a.5.5,0,0,1,.34,1l-.94.33Zm8.39-.48a.69.69,0,0,1-.2,0l-.92-.39a.51.51,0,0,1-.27-.65.5.5,0,0,1,.66-.27l.92.38a.52.52,0,0,1,.27.66A.5.5,0,0,1,44.78,40.65Zm-4.64-.87a.5.5,0,0,1-.17-1l.94-.34a.51.51,0,0,1,.64.31.5.5,0,0,1-.3.64l-.94.33A.47.47,0,0,1,40.14,39.78Z"/><path class="cls-4" d="M48,42a.41.41,0,0,1-.19,0l-.46-.19a.49.49,0,0,1-.27-.65.48.48,0,0,1,.46-.31.5.5,0,0,1,1,.19v.5a.51.51,0,0,1-.22.42A.57.57,0,0,1,48,42Z"/><path class="cls-4" d="M48,38.41a.5.5,0,0,1-.5-.5v-1a.5.5,0,1,1,1,0v1A.5.5,0,0,1,48,38.41Zm0-4.11a.5.5,0,0,1-.5-.5v-1a.5.5,0,0,1,1,0v1A.5.5,0,0,1,48,34.3Zm0-4.12a.5.5,0,0,1-.5-.5v-1a.5.5,0,0,1,1,0v1A.5.5,0,0,1,48,30.18Z"/><path class="cls-4" d="M48,26.06a.5.5,0,0,1-.5-.5v-.5a.5.5,0,0,1,1,0v.5A.5.5,0,0,1,48,26.06Z"/><rect class="cls-4" x="16.54" y="25.12" width="1.94" height="8.44" rx="0.52" transform="translate(25.87 -3.79) rotate(45)"/><rect class="cls-4" x="16.54" y="25.12" width="1.94" height="8.44" rx="0.52" transform="translate(50.63 37.7) rotate(135)"/><path class="cls-3" d="M49.86,23.92v2.2a.8.8,0,0,1-1.11.75l-1.87-.76a1.18,1.18,0,0,1-.74-1.1v-2.2a.8.8,0,0,1,1.11-.75l1.87.76A1.18,1.18,0,0,1,49.86,23.92Z"/></svg>