<svg id="Layer_1" data-name="Layer 1" xmlns="http://www.w3.org/2000/svg" viewBox="0 0 64 64"><defs><style>.cls-1{fill:#DD1515;}.cls-2{fill:#FC0707;}.cls-3{fill:#F4DFDF;}.cls-4{fill:#fff;}</style></defs><title>map, navigation, location, navigate, traffic, lights</title><path class="cls-1" d="M27.47,22.25H19.19a.87.87,0,0,1-.83-.64L16.8,15.32a.84.84,0,0,1,.82-1.05h9.85Z"/><path class="cls-1" d="M27.47,34.07H19.19a.86.86,0,0,1-.83-.64L16.8,27.14a.85.85,0,0,1,.82-1.05h9.85Z"/><path class="cls-1" d="M27.47,45.9H19.19a.87.87,0,0,1-.83-.64L16.8,39a.85.85,0,0,1,.82-1h9.85Z"/><path class="cls-1" d="M36.53,22.25h8.28a.87.87,0,0,0,.83-.64l1.56-6.29a.84.84,0,0,0-.82-1.05H36.53Z"/><path class="cls-1" d="M36.53,34.07h8.28a.86.86,0,0,0,.83-.64l1.56-6.29a.85.85,0,0,0-.82-1.05H36.53Z"/><path class="cls-1" d="M36.53,45.9h8.28a.87.87,0,0,0,.83-.64L47.2,39a.85.85,0,0,0-.82-1H36.53Z"/><rect class="cls-2" x="20.6" y="8" width="22.8" height="44.17" rx="5.18"/><path class="cls-3" d="M36,18.26a4,4,0,1,1-4-4A4,4,0,0,1,36,18.26Z"/><path class="cls-3" d="M36,30.08a4,4,0,1,1-4-4A4,4,0,0,1,36,30.08Z"/><circle class="cls-4" cx="32" cy="41.91" r="3.99"/><rect class="cls-3" x="28.01" y="52.17" width="7.98" height="3.83"/></svg>