<svg id="Layer_1" data-name="Layer 1" xmlns="http://www.w3.org/2000/svg" viewBox="0 0 64 64"><defs><style>.cls-1{fill:#dfe8f4;}.cls-2{fill:#ccd8e5;}.cls-3{fill:#ff5454;}.cls-4{fill:#fff;}</style></defs><title>map, navigation, location, navigate, landscape, pin</title><rect class="cls-1" x="8" y="20" width="36" height="36" rx="3.39"/><path class="cls-2" d="M40.61,20H35.54V32H44V23.39A3.39,3.39,0,0,0,40.61,20Z"/><path class="cls-3" d="M45,17.48A9.48,9.48,0,0,0,35.07,8a9.92,9.92,0,0,0-9,8.82,9.47,9.47,0,0,0,3.52,8,20.7,20.7,0,0,1,5.47,6.49l.27.53a.23.23,0,0,0,.4,0l.16-.31a20.85,20.85,0,0,1,5.55-6.69A9.41,9.41,0,0,0,45,17.48Z"/><path class="cls-4" d="M38.74,17.72a3.2,3.2,0,1,1-3.2-3.19A3.2,3.2,0,0,1,38.74,17.72Z"/><path class="cls-2" d="M16.5,32.77h0a2.06,2.06,0,0,1,.61-1.46l1-1A8.89,8.89,0,0,0,20.75,24V20H11.39A3.39,3.39,0,0,0,8,23.39V40.83l4.93,4.93a2,2,0,0,0,2.81,0h0a2,2,0,0,0,0-2.81L14.59,41.8a3.58,3.58,0,0,1-1.05-2.53h0a3.56,3.56,0,0,1,1.05-2.52l.45-.46A5,5,0,0,0,16.5,32.77Z"/><path class="cls-2" d="M37.84,35.8l-1.57-1.57a2.21,2.21,0,0,0-1.56-.65H25.89a3.16,3.16,0,0,0-2.23.93L20.5,37.67A1.81,1.81,0,0,0,20,39V42.9a1.85,1.85,0,0,0,.54,1.31l2.87,2.87a3.5,3.5,0,0,0,2.48,1h.89a1.18,1.18,0,0,1,1.18,1.18h0a2.94,2.94,0,0,0,.86,2.08l1.44,1.45a2.92,2.92,0,0,1,.86,2.07V56h5.17V53.93a3.08,3.08,0,0,1,.89-2.16l2.13-2.12a6.52,6.52,0,0,0,1.9-4.58V42.38a2.13,2.13,0,0,0-.63-1.5l-1.47-1.47a2.13,2.13,0,0,1-.61-1.49v-.64A2.09,2.09,0,0,0,37.84,35.8Z"/><rect class="cls-2" x="22.81" y="26.69" width="4.25" height="4.25" rx="0.8"/><rect class="cls-2" x="14.63" y="49.06" width="2.75" height="2.75" rx="0.58"/><rect class="cls-2" x="18.63" y="51.81" width="2.75" height="2.75" rx="0.58"/></svg>