<svg id="Layer_1" data-name="Layer 1" xmlns="http://www.w3.org/2000/svg" viewBox="0 0 64 64"><defs><style>.cls-1{fill:#F4DFDF;}.cls-2{fill:#e5cccc;}.cls-3{fill:#FC0707;}.cls-4{fill:#fff;}</style></defs><title>map, navigation, location, navigate, minus, delete, remove</title><path class="cls-1" d="M55.15,15.65,43,10.7a3.91,3.91,0,0,0-2.93,0L27,16V53.58l13-5.29a3.91,3.91,0,0,1,2.93,0l11.14,4.53A1.37,1.37,0,0,0,56,51.55V16.92A1.37,1.37,0,0,0,55.15,15.65Z"/><path class="cls-2" d="M40,48.29l1.47-.6V10.42A3.92,3.92,0,0,0,40,10.7L27,16V53.58l13-5.29Z"/><path class="cls-3" d="M8,16H25.51A1.51,1.51,0,0,1,27,17.5V52.07a1.51,1.51,0,0,1-1.51,1.51H8a0,0,0,0,1,0,0V16A0,0,0,0,1,8,16Z" transform="translate(35.02 69.58) rotate(180)"/><rect class="cls-4" x="16.54" y="30.57" width="1.94" height="8.44" rx="0.52" transform="translate(52.3 17.28) rotate(90)"/></svg>