<svg id="Layer_1" data-name="Layer 1" xmlns="http://www.w3.org/2000/svg" viewBox="0 0 64 64"><defs><style>.cls-1{fill:#dfe8f4;}.cls-2{fill:#ccd8e5;}.cls-3{fill:#ff5454;}.cls-4{fill:#fff;}</style></defs><title>map, navigation, location, navigate, favourite, heart</title><path class="cls-1" d="M55.15,15.65,43,10.7a3.91,3.91,0,0,0-2.93,0L27,16V53.58l13-5.29a3.91,3.91,0,0,1,2.93,0l11.14,4.53A1.37,1.37,0,0,0,56,51.55V16.92A1.37,1.37,0,0,0,55.15,15.65Z"/><path class="cls-2" d="M40,48.29l1.47-.6V10.42A3.92,3.92,0,0,0,40,10.7L27,16V53.58l13-5.29Z"/><path class="cls-3" d="M8,16H25.51A1.51,1.51,0,0,1,27,17.5V52.07a1.51,1.51,0,0,1-1.51,1.51H8a0,0,0,0,1,0,0V16A0,0,0,0,1,8,16Z" transform="translate(35.02 69.58) rotate(180)"/><path class="cls-4" d="M21,31.69a2.42,2.42,0,0,0-3.29.18l-.21.2-.21-.2A2.42,2.42,0,0,0,14,31.69a2.32,2.32,0,0,0-.09,3.37l3.26,3.26a.46.46,0,0,0,.66,0l3.26-3.26A2.33,2.33,0,0,0,21,31.69Z"/></svg>