<svg id="Layer_1" data-name="Layer 1" xmlns="http://www.w3.org/2000/svg" viewBox="0 0 64 64"><defs><style>.cls-1{fill:#dfe8f4;}.cls-2{fill:#ff5454;}.cls-3{fill:#dd1515;}.cls-4{fill:#fff;}</style></defs><title>map, navigation, location, navigate, smartphone, phone, pin</title><rect class="cls-1" x="16.67" y="8" width="30.67" height="48" rx="5.39"/><path class="cls-2" d="M41.94,8H22.06a5.39,5.39,0,0,0-5.39,5.39V50.61A5.39,5.39,0,0,0,22.06,56H41.94a5.39,5.39,0,0,0,5.39-5.39V13.39A5.39,5.39,0,0,0,41.94,8Zm3.39,42.61A3.39,3.39,0,0,1,41.94,54H22.06a3.39,3.39,0,0,1-3.39-3.39V13.39A3.39,3.39,0,0,1,22.06,10h2.51a1.82,1.82,0,0,1,1.42.67h0a1.84,1.84,0,0,0,1.42.66h9.18A1.84,1.84,0,0,0,38,10.67h0A1.82,1.82,0,0,1,39.43,10h2.51a3.39,3.39,0,0,1,3.39,3.39Z"/><path class="cls-3" d="M16.56,20.91h.11a0,0,0,0,1,0,0v3.69a0,0,0,0,1,0,0h-.11a.37.37,0,0,1-.37-.37v-3A.37.37,0,0,1,16.56,20.91Z"/><path class="cls-3" d="M16.56,25.36h.11a0,0,0,0,1,0,0V29a0,0,0,0,1,0,0h-.11a.37.37,0,0,1-.37-.37v-3A.37.37,0,0,1,16.56,25.36Z"/><path class="cls-3" d="M47.7,20.91h.11a0,0,0,0,1,0,0v3.69a0,0,0,0,1,0,0H47.7a.37.37,0,0,1-.37-.37v-3A.37.37,0,0,1,47.7,20.91Z" transform="translate(95.14 45.5) rotate(180)"/><path class="cls-2" d="M41.48,29.48A9.48,9.48,0,0,0,31.53,20a9.92,9.92,0,0,0-9,8.82,9.47,9.47,0,0,0,3.52,8,20.7,20.7,0,0,1,5.47,6.49l.27.53a.23.23,0,0,0,.4,0l.16-.31a20.85,20.85,0,0,1,5.55-6.69A9.41,9.41,0,0,0,41.48,29.48Z"/><path class="cls-4" d="M35.2,29.72A3.2,3.2,0,1,1,32,26.53,3.2,3.2,0,0,1,35.2,29.72Z"/></svg>