<svg id="Layer_1" data-name="Layer 1" xmlns="http://www.w3.org/2000/svg" viewBox="0 0 64 64"><defs><style>.cls-1{fill:#F4DFDF;}.cls-2{fill:#e5cccc;}.cls-3{fill:#FC0707;}.cls-4{fill:#fff;}</style></defs><title>map, navigation, location, navigate, pin, pointer</title><path class="cls-1" d="M55.15,18.07,43,13.12a3.91,3.91,0,0,0-2.93,0L27,18.41V56l13-5.29a3.91,3.91,0,0,1,2.93,0l11.14,4.52A1.37,1.37,0,0,0,56,54V19.34A1.37,1.37,0,0,0,55.15,18.07Z"/><path class="cls-2" d="M40,50.71l1.47-.6V12.84a3.92,3.92,0,0,0-1.47.28L27,18.41V56l13-5.29Z"/><path class="cls-3" d="M8,18.42H25.51A1.51,1.51,0,0,1,27,19.92V54.49A1.51,1.51,0,0,1,25.51,56H8a0,0,0,0,1,0,0V18.42A0,0,0,0,1,8,18.42Z" transform="translate(35.02 74.42) rotate(180)"/><path class="cls-1" d="M23,35.74a5.49,5.49,0,0,0-5.77-5.49A5.75,5.75,0,0,0,12,35.37a5.48,5.48,0,0,0,2,4.66,11.74,11.74,0,0,1,3.17,3.77l.16.31a.14.14,0,0,0,.24,0l.09-.19A12.06,12.06,0,0,1,20.94,40,5.47,5.47,0,0,0,23,35.74Z"/><circle class="cls-4" cx="17.51" cy="35.88" r="1.86"/></svg>