<svg id="Layer_1" data-name="Layer 1" xmlns="http://www.w3.org/2000/svg" viewBox="0 0 64 64"><defs><style>.cls-1{fill:#FC0707;}.cls-2{fill:#F4DFDF;}.cls-3{fill:#fff;}.cls-4{fill:#DD1515;}</style></defs><title>map, navigation, location, compass, navigate</title><circle class="cls-1" cx="32" cy="32" r="24"/><path class="cls-2" d="M34.22,36.87l-11.94,5.9a.78.78,0,0,1-1.05-1.05l5.9-11.94a5.86,5.86,0,0,1,2.65-2.65l11.94-5.9a.78.78,0,0,1,1.05,1.05l-5.9,11.94A5.86,5.86,0,0,1,34.22,36.87Z"/><path class="cls-2" d="M36.87,29.78l5.9,11.94a.78.78,0,0,1-1.05,1.05l-11.94-5.9a5.86,5.86,0,0,1-2.65-2.65l-5.9-11.94a.78.78,0,0,1,1.05-1.05l11.94,5.9A5.86,5.86,0,0,1,36.87,29.78Z"/><path class="cls-3" d="M37.68,34.12,32.83,48.41a.87.87,0,0,1-1.66,0L26.32,34.12a6.69,6.69,0,0,1,0-4.24l4.85-14.29a.87.87,0,0,1,1.66,0l4.85,14.29A6.69,6.69,0,0,1,37.68,34.12Z"/><path class="cls-3" d="M34.12,26.32l14.29,4.85a.87.87,0,0,1,0,1.66L34.12,37.68a6.69,6.69,0,0,1-4.24,0L15.59,32.83a.87.87,0,0,1,0-1.66l14.29-4.85A6.69,6.69,0,0,1,34.12,26.32Z"/><circle class="cls-4" cx="32" cy="32" r="2.46"/></svg>