<svg id="Layer_1" data-name="Layer 1" xmlns="http://www.w3.org/2000/svg" viewBox="0 0 64 64"><defs><style>.cls-1{fill:#F4DFDF;}.cls-2{fill:#e5cccc;}.cls-3{fill:#fff;}.cls-4{fill:#FC0707;}.cls-5{fill:#DD1515;}</style></defs><title>map, navigation, location, international, navigate</title><circle class="cls-1" cx="29.39" cy="34.89" r="21.39" transform="translate(-10.74 56.58) rotate(-78.28)"/><path class="cls-2" d="M24.27,40.83h0a2.79,2.79,0,0,0,2.79,2.79h.28a2.8,2.8,0,0,0,2.8-2.79V28.89a7.83,7.83,0,0,1,2.28-5.53h0a7.78,7.78,0,0,0,2.29-5.52V14.2A21.26,21.26,0,0,0,9,28.32a3.34,3.34,0,0,0,.84,3.37l2.21,2.21a2.79,2.79,0,0,0,2,.82h0a12.7,12.7,0,0,1,9,3.71l.42.42A2.84,2.84,0,0,1,24.27,40.83Z"/><rect class="cls-2" x="34.71" y="28.56" width="5.24" height="5.24" rx="2.05"/><path class="cls-2" d="M50.48,38.3H46.74a4.71,4.71,0,0,0-3.34,1.39l-.8.8a2.53,2.53,0,0,0-.76,1.81v.61a2.58,2.58,0,0,1-2.57,2.58h0a2.57,2.57,0,0,0-2.57,2.57V55A21.39,21.39,0,0,0,50.48,38.3Z"/><path class="cls-3" d="M45.89,38.3A1.87,1.87,0,1,1,44,36.43,1.87,1.87,0,0,1,45.89,38.3Z"/><path class="cls-2" d="M35.71,40.74h0a1,1,0,0,1-1-1h0a1,1,0,0,1,1-1h0a1,1,0,0,1,1,1h0A1,1,0,0,1,35.71,40.74Z"/><path class="cls-2" d="M42.59,27.89h0a1,1,0,0,1-1-1h0a1,1,0,0,1,1-1h0a1,1,0,0,1,1,1h0A1,1,0,0,1,42.59,27.89Z"/><path class="cls-2" d="M24,55.56V53.83a6,6,0,0,0-6-6H12.39A21.39,21.39,0,0,0,24,55.56Z"/><path class="cls-4" d="M56,20A12,12,0,0,0,43.43,8,12.54,12.54,0,0,0,32.07,19.16a11.94,11.94,0,0,0,4.45,10.15,25.78,25.78,0,0,1,6.9,8.19l.35.67a.28.28,0,0,0,.5,0l.21-.39a26.35,26.35,0,0,1,7-8.45A11.92,11.92,0,0,0,56,20Z"/><path class="cls-5" d="M48.06,20.29a4,4,0,1,1-4-4A4,4,0,0,1,48.06,20.29Z"/></svg>