<svg id="Layer_1" data-name="Layer 1" xmlns="http://www.w3.org/2000/svg" viewBox="0 0 64 64"><defs><style>.cls-1{fill:#dd1515;}.cls-2{fill:#ff5454;}.cls-3{fill:#dfe8f4;}.cls-4{fill:#ccd8e5;}</style></defs><title>map, navigation, location, navigate, computer, pin</title><path class="cls-1" d="M37.45,51h0a2.24,2.24,0,0,1-2.24-2.24V45.48H28.79v3.26A2.24,2.24,0,0,1,26.55,51h0A3.55,3.55,0,0,0,23,54.53h0a1.79,1.79,0,0,0,1.79,1.79H39.21A1.79,1.79,0,0,0,41,54.53h0A3.55,3.55,0,0,0,37.45,51Z"/><path class="cls-2" d="M38.79,51H25.21A2.21,2.21,0,0,0,23,53.19v1.34a1.79,1.79,0,0,0,1.79,1.79H39.21A1.79,1.79,0,0,0,41,54.53V53.19A2.21,2.21,0,0,0,38.79,51Z"/><rect class="cls-3" x="8" y="13.48" width="48" height="34" rx="4.04"/><path class="cls-2" d="M8,41.69v1.75a4,4,0,0,0,4,4H52a4,4,0,0,0,4-4V41.69Z"/><rect class="cls-4" x="8" y="39.63" width="48" height="2.06"/><path class="cls-1" d="M33.15,44.59A1.15,1.15,0,1,1,32,43.44,1.15,1.15,0,0,1,33.15,44.59Z"/><path class="cls-2" d="M44.38,19.38A12.39,12.39,0,0,0,31.39,7,13,13,0,0,0,19.64,18.54,12.36,12.36,0,0,0,24.24,29a26.7,26.7,0,0,1,7.14,8.47l.36.69a.29.29,0,0,0,.52,0l.21-.4a27.31,27.31,0,0,1,7.25-8.74A12.32,12.32,0,0,0,44.38,19.38Z"/><circle class="cls-1" cx="32" cy="19.7" r="4.17"/></svg>