<svg id="Layer_1" data-name="Layer 1" xmlns="http://www.w3.org/2000/svg" viewBox="0 0 64 64"><defs><style>.cls-1{fill:#dfe8f4;}.cls-2{fill:#ccd8e5;}.cls-3{fill:#ff5454;}.cls-4{fill:#dd1515;}.cls-5{fill:#fff;}</style></defs><title>map, navigation, location, navigate, international, settings, options</title><circle class="cls-1" cx="24.31" cy="24.31" r="16.31"/><path class="cls-2" d="M20.41,28.85h0A2.13,2.13,0,0,0,22.54,31h.21a2.13,2.13,0,0,0,2.13-2.13V19.74a6,6,0,0,1,1.75-4.22h0a5.94,5.94,0,0,0,1.74-4.21V8.53A16.23,16.23,0,0,0,8.79,19.3a2.55,2.55,0,0,0,.64,2.57l1.69,1.69a2.13,2.13,0,0,0,1.51.63h0A9.62,9.62,0,0,1,19.46,27l.32.32A2.13,2.13,0,0,1,20.41,28.85Z"/><rect class="cls-2" x="28.37" y="19.49" width="4" height="4" rx="1.56"/><path class="cls-2" d="M40.4,26.91H37.55A3.62,3.62,0,0,0,35,28l-.61.61A2,2,0,0,0,33.81,30v.47a2,2,0,0,1-2,2h0a2,2,0,0,0-2,2v5.27A16.32,16.32,0,0,0,40.4,26.91Z"/><path class="cls-2" d="M29.13,28.78h0a.76.76,0,0,1-.76-.76h0a.76.76,0,0,1,.76-.76h0a.76.76,0,0,1,.76.76h0A.76.76,0,0,1,29.13,28.78Z"/><path class="cls-2" d="M34.39,19h0a.76.76,0,0,1-.76-.76h0a.76.76,0,0,1,.76-.76h0a.76.76,0,0,1,.75.76h0A.76.76,0,0,1,34.39,19Z"/><path class="cls-2" d="M20.19,40.08V38.76a4.58,4.58,0,0,0-4.58-4.58H11.35A16.27,16.27,0,0,0,20.19,40.08Z"/><circle class="cls-3" cx="39.69" cy="39.69" r="16.31"/><path class="cls-4" d="M23.38,39.69c0,.3,0,.59,0,.89.3,0,.59,0,.89,0A16.31,16.31,0,0,0,40.62,24.31c0-.3,0-.59,0-.89-.3,0-.59,0-.89,0A16.31,16.31,0,0,0,23.38,39.69Z"/><path class="cls-5" d="M45.67,39.69v-.15A2,2,0,0,1,46.32,38h0a.89.89,0,0,0,.18-1.11l-1-1.69a.91.91,0,0,0-1.06-.4l-.12,0a1.79,1.79,0,0,1-1.49-.21l-.36-.21a1.82,1.82,0,0,1-.94-1.19v-.06a.92.92,0,0,0-.89-.78H38.72a.89.89,0,0,0-.88.71l0,.13a1.77,1.77,0,0,1-.93,1.19,2.12,2.12,0,0,0-.36.21,1.81,1.81,0,0,1-1.5.21l-.06,0a.92.92,0,0,0-1.11.38l-1,1.69A.88.88,0,0,0,33.05,38h0a2,2,0,0,1,.65,1.55v.3a2,2,0,0,1-.65,1.54h0a.9.9,0,0,0-.17,1.12l1,1.68a.89.89,0,0,0,1,.41l.12,0a1.79,1.79,0,0,1,1.49.21l.36.2a1.82,1.82,0,0,1,.94,1.21l0,.09a.9.9,0,0,0,.89.73h1.94a.9.9,0,0,0,.88-.71l0-.12A1.82,1.82,0,0,1,42.5,45l.36-.21a1.81,1.81,0,0,1,1.5-.21l0,0a.92.92,0,0,0,1.12-.39l1-1.68a.9.9,0,0,0-.18-1.12h0a2,2,0,0,1-.65-1.54Z"/><circle class="cls-1" cx="39.69" cy="39.69" r="2.13"/></svg>