<svg id="Layer_1" data-name="Layer 1" xmlns="http://www.w3.org/2000/svg" viewBox="0 0 64 64"><defs><style>.cls-1{fill:#F4DFDF;}.cls-2{fill:#fff;}.cls-3{fill:#DD1515;}.cls-4{fill:#FC0707;}</style></defs><title>map, navigation, location, navigate, pin, pinpoint, </title><path class="cls-1" d="M51,27A19,19,0,0,0,31.06,8c-9,.44-17.38,8.63-18,17.64a18.92,18.92,0,0,0,7,16.06,40.88,40.88,0,0,1,10.93,13l.55,1.06a.45.45,0,0,0,.8,0l.32-.63a41.6,41.6,0,0,1,11.1-13.36A18.9,18.9,0,0,0,51,27Z"/><path class="cls-2" d="M32,38.31A11.37,11.37,0,1,1,43.36,26.94,11.37,11.37,0,0,1,32,38.31Zm0-21.73A10.37,10.37,0,1,0,42.36,26.94,10.37,10.37,0,0,0,32,16.58Z"/><path class="cls-2" d="M32,33.55a6.61,6.61,0,1,1,6.6-6.61A6.61,6.61,0,0,1,32,33.55Zm0-12.21a5.61,5.61,0,1,0,5.6,5.6A5.6,5.6,0,0,0,32,21.34Z"/><path class="cls-2" d="M32,28.79a1.85,1.85,0,1,1,1.84-1.85A1.84,1.84,0,0,1,32,28.79Zm0-2.69a.85.85,0,1,0,.84.84A.85.85,0,0,0,32,26.1Z"/><path class="cls-3" d="M32,27.44a.5.5,0,0,1-.5-.5V13.06a.5.5,0,0,1,1,0V26.94A.5.5,0,0,1,32,27.44Z"/><path class="cls-3" d="M32,41.33a.5.5,0,0,1-.5-.5V26.94a.5.5,0,1,1,1,0V40.83A.5.5,0,0,1,32,41.33Z"/><path class="cls-3" d="M45.88,27.44H32a.5.5,0,0,1-.5-.5.5.5,0,0,1,.5-.5H45.88a.5.5,0,0,1,.5.5A.5.5,0,0,1,45.88,27.44Z"/><path class="cls-3" d="M32,27.44H18.12a.5.5,0,0,1-.5-.5.5.5,0,0,1,.5-.5H32a.5.5,0,0,1,.5.5A.5.5,0,0,1,32,27.44Z"/><path class="cls-4" d="M33.34,26.94A1.34,1.34,0,1,1,32,25.6,1.34,1.34,0,0,1,33.34,26.94Z"/></svg>