<svg id="Layer_1" data-name="Layer 1" xmlns="http://www.w3.org/2000/svg" viewBox="0 0 64 64"><defs><style>.cls-1{fill:#FC0707;}.cls-2{fill:#F4DFDF;}</style></defs><title>map, navigation, location, navigate, street, view</title><ellipse class="cls-1" cx="32" cy="53.25" rx="19" ry="2.75"/><circle class="cls-2" cx="32" cy="12.9" r="4.9"/><path class="cls-2" d="M32,19.55c-4.83,0-8.75,9-8.75,20.06V51.53a1.7,1.7,0,0,0,1.29,1.69,1.62,1.62,0,0,0,1.87-1.08L30.1,41A2,2,0,0,1,32,39.61h0A2,2,0,0,1,33.9,41l3.69,11.16a1.62,1.62,0,0,0,1.87,1.08,1.7,1.7,0,0,0,1.29-1.69V39.61C40.75,28.53,36.83,19.55,32,19.55Z"/><path class="cls-2" d="M44.76,18.6,33,19.4a14.16,14.16,0,0,1-2.06,0l-11.73-.8a1.61,1.61,0,0,0-1.61.9,1.59,1.59,0,0,0,.57,2l9.7,6.42L32,19.47l4.1,8.43,9.7-6.42a1.59,1.59,0,0,0,.57-2A1.61,1.61,0,0,0,44.76,18.6Z"/></svg>