<svg id="Layer_1" data-name="Layer 1" xmlns="http://www.w3.org/2000/svg" viewBox="0 0 64 64"><defs><style>.cls-1{fill:#dfe8f4;}.cls-2{fill:#ccd8e5;}.cls-3{fill:#ff5454;}.cls-4{fill:#fff;}.cls-5{fill:#dd1515;}</style></defs><title>map, navigation, location, navigate, grid, pin</title><rect class="cls-1" x="8" y="20" width="36" height="36" rx="3.39"/><rect class="cls-2" x="15.94" y="20" width="1.05" height="36"/><rect class="cls-2" x="25.48" y="20" width="1.05" height="36"/><rect class="cls-2" x="35.02" y="20" width="1.05" height="36"/><rect class="cls-2" x="25.48" y="10.46" width="1.05" height="36" transform="translate(54.46 2.46) rotate(90)"/><rect class="cls-2" x="25.48" y="20" width="1.05" height="36" transform="translate(64 12) rotate(90)"/><rect class="cls-2" x="25.48" y="29.54" width="1.05" height="36" transform="translate(73.54 21.54) rotate(90)"/><path class="cls-2" d="M40.61,20H35.54V32H44V23.39A3.39,3.39,0,0,0,40.61,20Z"/><path class="cls-3" d="M45,17.48A9.48,9.48,0,0,0,35.07,8a9.92,9.92,0,0,0-9,8.82,9.47,9.47,0,0,0,3.52,8,20.7,20.7,0,0,1,5.47,6.49l.27.53a.23.23,0,0,0,.4,0l.16-.31a20.85,20.85,0,0,1,5.55-6.69A9.41,9.41,0,0,0,45,17.48Z"/><path class="cls-4" d="M38.74,17.72a3.2,3.2,0,1,1-3.2-3.19A3.2,3.2,0,0,1,38.74,17.72Z"/><path class="cls-3" d="M17.88,33.42A1.42,1.42,0,1,1,16.46,32,1.41,1.41,0,0,1,17.88,33.42Z"/><path class="cls-3" d="M27.42,47.54A1.42,1.42,0,1,1,26,46.12,1.41,1.41,0,0,1,27.42,47.54Z"/><path class="cls-5" d="M37,38a1.42,1.42,0,1,1-1.42-1.42A1.41,1.41,0,0,1,37,38Z"/></svg>