<svg id="Layer_1" data-name="Layer 1" xmlns="http://www.w3.org/2000/svg" viewBox="0 0 64 64"><defs><style>.cls-1{fill:#dd1515;}.cls-2{fill:#dfe8f4;}.cls-3{fill:#ccd8e5;}.cls-4{fill:#ff5454;}.cls-5{fill:#fff;}</style></defs><title>map, navigation, location, navigate, pin, locate</title><path class="cls-1" d="M46.08,52.64C46.08,54.5,39.77,56,32,56s-14.08-1.5-14.08-3.36S24.23,49.28,32,49.28,46.08,50.78,46.08,52.64Z"/><path class="cls-2" d="M29.71,32V52.12a.49.49,0,0,0,.46.49q.9,0,1.83,0t1.83,0a.49.49,0,0,0,.46-.49V32Z"/><path class="cls-3" d="M29.71,18.28V38.4a.47.47,0,0,0,.46.48c.6,0,1.21,0,1.83,0s1.23,0,1.83,0a.47.47,0,0,0,.46-.48V18.28Z"/><circle class="cls-4" cx="32" cy="21.6" r="13.6" transform="translate(5.42 49.6) rotate(-80.5)"/><path class="cls-5" d="M24.11,18.06a1,1,0,0,1-.5-.13,1,1,0,0,1-.37-1.36A10.13,10.13,0,0,1,32,11.5a1,1,0,0,1,0,2,8.13,8.13,0,0,0-7,4.06A1,1,0,0,1,24.11,18.06Z"/><path class="cls-5" d="M22.9,22.6a1,1,0,0,1-1-1c0-.13,0-.26,0-.39a1,1,0,1,1,2,.08c0,.1,0,.2,0,.31A1,1,0,0,1,22.9,22.6Z"/></svg>