<svg id="Layer_1" data-name="Layer 1" xmlns="http://www.w3.org/2000/svg" viewBox="0 0 64 64"><defs><style>.cls-1{fill:#dfe8f4;}.cls-2{fill:#ff5454;}</style></defs><title>map, navigation, location, navigate, sign, traffic, arrow</title><rect class="cls-1" x="14.61" y="14.61" width="34.79" height="34.79" rx="1.39" transform="translate(-13.25 32) rotate(-45)"/><path class="cls-2" d="M34.87,22.56a.37.37,0,0,0-.64.26V27a12.91,12.91,0,0,0-10.62,6.48A1.24,1.24,0,0,0,23.79,35l3,3a1.2,1.2,0,0,0,2-.42,6.55,6.55,0,0,1,5.49-4.13V37.5a.37.37,0,0,0,.64.26l7-7a.86.86,0,0,0,0-1.22Z"/></svg>