<svg id="Layer_1" data-name="Layer 1" xmlns="http://www.w3.org/2000/svg" viewBox="0 0 64 64"><defs><style>.cls-1{fill:#ff5454;}.cls-2{fill:#dd1515;}.cls-3{fill:#dfe8f4;}.cls-4{fill:#fff;}</style></defs><title>map, navigation, location, navigate, traffic, sign, arrow</title><rect class="cls-1" x="14.61" y="14.61" width="34.79" height="34.79" rx="1.39" transform="translate(-13.25 32) rotate(-45)"/><path class="cls-2" d="M45.18,30.27l-5.5-5.5a.29.29,0,0,0-.5.21v3.27a10.16,10.16,0,0,0-9.7,10.14v.8a.52.52,0,0,0,.52.52h4a.52.52,0,0,0,.52-.52v-.8a5.13,5.13,0,0,1,4.67-5.1v3.23a.29.29,0,0,0,.5.21l5.5-5.5A.67.67,0,0,0,45.18,30.27Z"/><path class="cls-3" d="M38,23.12l-5.5-5.5a.67.67,0,0,0-1,0L26,23.12a.29.29,0,0,0,.21.5h3.25V38.15h5V23.62h3.25A.29.29,0,0,0,38,23.12Z"/><path class="cls-4" d="M18.82,30.27l5.5-5.5a.29.29,0,0,1,.5.21v3.27a10.16,10.16,0,0,1,9.7,10.14v.8a.52.52,0,0,1-.52.52H30a.52.52,0,0,1-.52-.52v-.8a5.13,5.13,0,0,0-4.67-5.1v3.23a.29.29,0,0,1-.5.21l-5.5-5.5A.67.67,0,0,1,18.82,30.27Z"/><path class="cls-4" d="M32,46.58h0a2.52,2.52,0,0,1-2.52-2.52V38.85h5v5.21A2.51,2.51,0,0,1,32,46.58Z"/></svg>