<svg id="Layer_1" data-name="Layer 1" xmlns="http://www.w3.org/2000/svg" viewBox="0 0 64 64"><defs><style>.cls-1{fill:#dfe8f4;}.cls-2{fill:#ff5454;}.cls-3{fill:#dd1515;}.cls-4{fill:#ccd8e5;}.cls-5{fill:#fff;}</style></defs><title>marketing, content marketing, digital marketing, strategy, hierarchy, browser</title><rect class="cls-1" x="8" y="11.44" width="48" height="41.13" rx="4.09"/><path class="cls-2" d="M51.91,11.44H12.09A4.09,4.09,0,0,0,8,15.53v1.91H56V15.53A4.09,4.09,0,0,0,51.91,11.44Z"/><rect class="cls-3" x="12.66" y="13.82" width="1.23" height="1.23"/><rect class="cls-3" x="15.19" y="13.82" width="1.23" height="1.23"/><rect class="cls-3" x="17.71" y="13.82" width="1.23" height="1.23"/><rect class="cls-3" x="8" y="17.44" width="48" height="0.65"/><path class="cls-4" d="M56,20.88H10.79A2.79,2.79,0,0,1,8,18.08H56Z"/><rect class="cls-5" x="26.67" y="23.08" width="10.67" height="6.42" rx="1.21"/><rect class="cls-5" x="12.99" y="40.79" width="10.67" height="6.42" rx="1.21"/><rect class="cls-5" x="26.67" y="40.79" width="10.67" height="6.42" rx="1.21"/><rect class="cls-5" x="40.34" y="40.79" width="10.67" height="6.42" rx="1.21"/><path class="cls-5" d="M46.67,39h-2V37.66a1.33,1.33,0,0,0-1.32-1.33H20.65a1.33,1.33,0,0,0-1.32,1.33V39h-2V37.66a3.33,3.33,0,0,1,3.32-3.33h22.7a3.33,3.33,0,0,1,3.32,3.33Z"/><rect class="cls-5" x="31" y="30.92" width="2" height="8.08"/></svg>