<svg id="Layer_1" data-name="Layer 1" xmlns="http://www.w3.org/2000/svg" viewBox="0 0 64 64"><defs><style>.cls-1{fill:#dfe8f4;}.cls-2{fill:#ccd8e5;}.cls-3{fill:#ff5454;}.cls-4{fill:#dd1515;}</style></defs><title>marketing, content marketing, digital marketing, strategy, newsletter, announcement</title><path class="cls-1" d="M29.4,16,10.61,26.8A5.19,5.19,0,0,0,8,31.3V50.8A5.2,5.2,0,0,0,13.2,56H50.8A5.2,5.2,0,0,0,56,50.8V31.3a5.19,5.19,0,0,0-2.6-4.5L34.6,16A5.19,5.19,0,0,0,29.4,16Z"/><path class="cls-2" d="M56,50.8V31.3a5.19,5.19,0,0,0-2.6-4.5L37.93,17.87,25.59,44.71l15.58,8.77A19.69,19.69,0,0,0,50.8,56h0A5.2,5.2,0,0,0,56,50.8Z"/><path class="cls-3" d="M53.39,26.8,34.6,16a5.19,5.19,0,0,0-5.2,0L10.61,26.8A5.19,5.19,0,0,0,8,31.3v.27a5.2,5.2,0,0,0,2.6,4.5L29.4,46.92a5.19,5.19,0,0,0,5.2,0L53.39,36.07a5.2,5.2,0,0,0,2.6-4.5V31.3A5.19,5.19,0,0,0,53.39,26.8Z"/><path class="cls-4" d="M55.74,31.3a5.19,5.19,0,0,0-2.6-4.5L38.08,18.1C33,19.53,26.33,21.33,26.33,21.33L25.07,32.12l3.42,3.42A12,12,0,0,1,32,44V47.6a5.22,5.22,0,0,0,2.35-.68L53.14,36.07a5.2,5.2,0,0,0,2.6-4.5Z"/><path class="cls-4" d="M53.39,35.19,34.6,46a5.19,5.19,0,0,1-5.2,0L10.61,35.19A5.19,5.19,0,0,1,8,31c0,.11,0,.2,0,.31v.27a5.2,5.2,0,0,0,2.6,4.5L29.4,46.92a5.19,5.19,0,0,0,5.2,0L53.39,36.07a5.2,5.2,0,0,0,2.6-4.5V31.3c0-.11,0-.2,0-.31A5.19,5.19,0,0,1,53.39,35.19Z"/><path class="cls-1" d="M31.46,24l-1.2-3.79L23.16,24l3.39,7.79a.51.51,0,0,0,.46.3h1.4a.5.5,0,0,0,.49-.58h0a8.27,8.27,0,0,1,1.87-6.72Z"/><path class="cls-2" d="M41.47,8A2.41,2.41,0,0,0,40,8.51a14.45,14.45,0,0,1-5.74,2.36L27.53,12.3a23,23,0,0,1-4.76.5H20.09c-1.07,0-1.93,2.74-1.93,6.12S19,25,20.09,25h0a2.7,2.7,0,0,1,2.48,1.63l2.24,5.16a.52.52,0,0,0,.47.3h1.39a.51.51,0,0,0,.5-.6v-.06a4.4,4.4,0,0,1,5.31-4.87l3,.63A11.08,11.08,0,0,1,40,29.32a2.41,2.41,0,0,0,1.47.51c3,0,4.37-5.48,4.37-10.91S44.49,8,41.47,8Zm.58,18.1a.61.61,0,0,1-.58.37V11.36a.61.61,0,0,1,.58.38,19.37,19.37,0,0,1,1.12,7.18A19.41,19.41,0,0,1,42.05,26.1Z"/><ellipse class="cls-4" cx="41.47" cy="18.92" rx="3.03" ry="9.58"/><path class="cls-1" d="M41.47,29.83c-3,0-4.37-5.48-4.37-10.91S38.45,8,41.47,8s4.37,5.48,4.37,10.92S44.49,29.83,41.47,29.83Zm.58-18.09a.62.62,0,0,0-1.15,0,19.11,19.11,0,0,0-1.13,7.18A19.15,19.15,0,0,0,40.9,26.1a.63.63,0,0,0,1.15,0,19.41,19.41,0,0,0,1.12-7.18A19.37,19.37,0,0,0,42.05,11.74Z"/></svg>