<svg id="Layer_1" data-name="Layer 1" xmlns="http://www.w3.org/2000/svg" viewBox="0 0 64 64"><defs><style>.cls-1{fill:#F4DFDF;}.cls-2{fill:#FC0707;}.cls-3{fill:#DD1515;}.cls-4{fill:#e5cccc;}</style></defs><title>marketing, content marketing, digital marketing, strategy, partnership, global, international</title><path class="cls-1" d="M32,8a16.5,16.5,0,1,0,16.5,16.5A16.52,16.52,0,0,0,32,8ZM43.69,22.24H39.3a32.12,32.12,0,0,0-1.41-8.06A12,12,0,0,1,43.69,22.24ZM32,36.38c-.8-.61-2.37-3.88-2.71-9.56h5.42C34.37,32.5,32.8,35.77,32,36.38ZM29.29,22.24c.34-5.69,1.91-8.95,2.71-9.57.8.62,2.37,3.88,2.71,9.57Zm-3.18-8.06a32.12,32.12,0,0,0-1.41,8.06H20.31A12,12,0,0,1,26.11,14.18Zm-5.8,12.64H24.7a32.12,32.12,0,0,0,1.41,8A11.94,11.94,0,0,1,20.31,26.82Zm17.58,8a32.12,32.12,0,0,0,1.41-8h4.39A11.94,11.94,0,0,1,37.89,34.87Z"/><path class="cls-2" d="M21.8,38.52V37.16A3.54,3.54,0,0,0,20,34.1h0a3.53,3.53,0,0,0-3.53,0h0a3.52,3.52,0,0,0-1.77,3.06v1.36a3.08,3.08,0,0,0,1.55,2.68l.32.19a3.33,3.33,0,0,0,3.32,0l.32-.19A3.08,3.08,0,0,0,21.8,38.52Z"/><path class="cls-2" d="M15.37,54.4a.82.82,0,0,0-.5-.75l-1.38-.57A.68.68,0,1,1,14,51.83l2,.92a.81.81,0,0,1,.48.74v2.13a.38.38,0,0,0,.38.38h8.2c0-10.7-3.13-13-7-13a5.49,5.49,0,0,0-4.51,2L8.91,50A3.4,3.4,0,0,0,9,54.66,4.56,4.56,0,0,0,11.77,56,.54.54,0,0,0,12,56h2a1.33,1.33,0,0,0,1.33-1.32Z"/><path class="cls-2" d="M30.79,49.74l-.56-.15a14,14,0,0,1-5.53-3l-2.9-2.53-1.66,6,3.76,1.34c.33.11.67.21,1,.3,0-.22,0-.45-.08-.67a.88.88,0,0,1,.87-1,.89.89,0,0,1,.88.77c.05.37.1.76.14,1.17a.09.09,0,0,0,.08.08,13.35,13.35,0,0,0,1.79.13h1.88a1.25,1.25,0,0,0,.33-2.45Z"/><path class="cls-3" d="M42.2,38.52V37.16A3.54,3.54,0,0,1,44,34.1h0a3.53,3.53,0,0,1,3.53,0h0a3.52,3.52,0,0,1,1.77,3.06v1.36a3.08,3.08,0,0,1-1.55,2.68l-.32.19a3.33,3.33,0,0,1-3.32,0l-.32-.19A3.08,3.08,0,0,1,42.2,38.52Z"/><path class="cls-3" d="M48.63,54.4a.82.82,0,0,1,.5-.75l1.38-.57A.68.68,0,1,0,50,51.83l-2,.92a.81.81,0,0,0-.48.74v2.13a.38.38,0,0,1-.38.38h-8.2c0-10.7,3.13-13,7-13a5.49,5.49,0,0,1,4.51,2l4.72,5A3.4,3.4,0,0,1,55,54.66,4.56,4.56,0,0,1,52.23,56,.54.54,0,0,1,52,56H50a1.33,1.33,0,0,1-1.33-1.32Z"/><path class="cls-3" d="M33.21,49.74l.56-.15a14,14,0,0,0,5.53-3l2.9-2.53,1.66,6L40.1,51.39c-.33.11-.67.21-1,.3,0-.22,0-.45.08-.67a.88.88,0,0,0-.87-1,.89.89,0,0,0-.88.77c0,.37-.1.76-.14,1.17a.09.09,0,0,1-.08.08,13.35,13.35,0,0,1-1.79.13H33.54a1.25,1.25,0,0,1-.33-2.45Z"/><path class="cls-4" d="M32,8a16.52,16.52,0,0,0-16.5,16.5h33A16.52,16.52,0,0,0,32,8ZM24.7,22.24H20.31a12,12,0,0,1,5.8-8.06A32.12,32.12,0,0,0,24.7,22.24Zm4.59,0c.34-5.69,1.91-8.95,2.71-9.57.8.62,2.37,3.88,2.71,9.57Zm10,0a32.12,32.12,0,0,0-1.41-8.06,12,12,0,0,1,5.8,8.06Z"/></svg>