<svg id="Layer_1" data-name="Layer 1" xmlns="http://www.w3.org/2000/svg" viewBox="0 0 64 64"><defs><style>.cls-1{fill:#F4DFDF;}.cls-2{fill:#FC0707;}</style></defs><title>marketing, content marketing, digital marketing, strategy, group, social</title><circle class="cls-1" cx="32" cy="18.18" r="10.18"/><path class="cls-2" d="M35.75,17.11V15.43a3.76,3.76,0,0,0-1.88-3.25h0a3.73,3.73,0,0,0-3.74,0h0a3.76,3.76,0,0,0-1.88,3.25v1.68A3.27,3.27,0,0,0,29.9,20h0a4.2,4.2,0,0,0,4.2,0h0A3.27,3.27,0,0,0,35.75,17.11Z"/><path class="cls-2" d="M32,28.36a10.13,10.13,0,0,0,7-2.81,8.2,8.2,0,0,0-14,0A10.13,10.13,0,0,0,32,28.36Z"/><circle class="cls-1" cx="18.18" cy="45.82" r="10.18"/><path class="cls-2" d="M21.93,44.75V43.07a3.76,3.76,0,0,0-1.88-3.25h0a3.73,3.73,0,0,0-3.74,0h0a3.76,3.76,0,0,0-1.88,3.25v1.68a3.27,3.27,0,0,0,1.65,2.84h0a4.2,4.2,0,0,0,4.2,0h0A3.27,3.27,0,0,0,21.93,44.75Z"/><path class="cls-2" d="M18.18,56a10.13,10.13,0,0,0,7-2.81,8.2,8.2,0,0,0-14,0A10.13,10.13,0,0,0,18.18,56Z"/><circle class="cls-1" cx="45.93" cy="45.82" r="10.18"/><path class="cls-2" d="M49.68,44.75V43.07a3.76,3.76,0,0,0-1.88-3.25h0a3.75,3.75,0,0,0-3.75,0h0a3.75,3.75,0,0,0-1.87,3.25v1.68a3.28,3.28,0,0,0,1.64,2.84h0a4.22,4.22,0,0,0,4.21,0h0A3.27,3.27,0,0,0,49.68,44.75Z"/><path class="cls-2" d="M45.93,56a10.13,10.13,0,0,0,7-2.81,8.2,8.2,0,0,0-14,0A10.13,10.13,0,0,0,45.93,56Z"/><path class="cls-1" d="M32,35.71a1,1,0,0,1-1-1V31.46a1,1,0,0,1,2,0v3.25A1,1,0,0,1,32,35.71Z"/><path class="cls-1" d="M35.06,38a1,1,0,0,1-.61-.2L32,36l-2.45,1.88a1,1,0,0,1-1.41-.19,1,1,0,0,1,.19-1.4L32,33.45l3.67,2.8A1,1,0,0,1,35.06,38Z"/></svg>