<svg id="Layer_1" data-name="Layer 1" xmlns="http://www.w3.org/2000/svg" viewBox="0 0 64 64"><defs><style>.cls-1{fill:#ff5454;}.cls-2{fill:#dfe8f4;}</style></defs><title>marketing, content marketing, digital marketing, strategy, distribution, cloud</title><path class="cls-1" d="M50.46,22.85a10.1,10.1,0,0,1-4.28-5.06,15.16,15.16,0,0,0-28.36,0,10.1,10.1,0,0,1-4.28,5.06A11.3,11.3,0,0,0,8,32.58H8A11.34,11.34,0,0,0,19.33,43.92H44.67A11.34,11.34,0,0,0,56,32.58h0A11.3,11.3,0,0,0,50.46,22.85Z"/><path class="cls-2" d="M32,49.13a1,1,0,0,1-1-1V45.27a1,1,0,0,1,2,0v2.86A1,1,0,0,1,32,49.13Z"/><path class="cls-1" d="M32,56a4.77,4.77,0,1,1,4.77-4.77A4.78,4.78,0,0,1,32,56Zm0-6.54a1.77,1.77,0,1,0,1.77,1.77A1.78,1.78,0,0,0,32,49.48Z"/><path class="cls-2" d="M15.73,49.86a1,1,0,0,1-.68-.27A1,1,0,0,1,15,48.18L17,46a1,1,0,0,1,1.47,1.36l-2,2.16A1,1,0,0,1,15.73,49.86Z"/><path class="cls-1" d="M13.5,56a4.77,4.77,0,1,1,4.77-4.77A4.77,4.77,0,0,1,13.5,56Zm0-6.54a1.77,1.77,0,1,0,1.77,1.77A1.77,1.77,0,0,0,13.5,49.48Z"/><path class="cls-2" d="M48.27,49.86a1,1,0,0,1-.73-.32l-2-2.16A1,1,0,0,1,47,46l2,2.16A1,1,0,0,1,49,49.59,1,1,0,0,1,48.27,49.86Z"/><path class="cls-1" d="M50.5,56a4.77,4.77,0,1,1,4.76-4.77A4.78,4.78,0,0,1,50.5,56Zm0-6.54a1.77,1.77,0,1,0,1.76,1.77A1.77,1.77,0,0,0,50.5,49.48Z"/></svg>