<svg id="Layer_1" data-name="Layer 1" xmlns="http://www.w3.org/2000/svg" viewBox="0 0 64 64"><defs><style>.cls-1{fill:#dfe8f4;}.cls-2{fill:#ff5454;}.cls-3{fill:#dd1515;}.cls-4{fill:#ccd8e5;}.cls-5{fill:#fff;}</style></defs><title>marketing, content marketing, digital marketing, strategy, browser, announcement</title><rect class="cls-1" x="8" y="11.44" width="48" height="41.13" rx="4.09"/><path class="cls-2" d="M51.91,11.44H12.09A4.09,4.09,0,0,0,8,15.53v1.91H56V15.53A4.09,4.09,0,0,0,51.91,11.44Z"/><rect class="cls-3" x="12.66" y="13.82" width="1.23" height="1.23"/><rect class="cls-3" x="15.19" y="13.82" width="1.23" height="1.23"/><rect class="cls-3" x="17.71" y="13.82" width="1.23" height="1.23"/><rect class="cls-3" x="8" y="17.44" width="48" height="0.65"/><path class="cls-4" d="M56,20.88H10.79A2.79,2.79,0,0,1,8,18.08H56Z"/><path class="cls-5" d="M41.47,23.17a2.41,2.41,0,0,0-1.47.51A14.45,14.45,0,0,1,34.26,26l-6.73,1.43a23,23,0,0,1-4.76.5H20.09c-1.07,0-1.93,2.74-1.93,6.12S19,40.2,20.09,40.2h0a2.7,2.7,0,0,1,2.48,1.63l1.69,3.88a2.63,2.63,0,0,0,2.41,1.58h0a.43.43,0,0,0,.17,0,.28.28,0,0,0,.13,0h0a1.8,1.8,0,0,0,1.78-1.83,9.39,9.39,0,0,1,.07-1.19,3,3,0,0,1,3.62-2.52h0l3,.63A11.08,11.08,0,0,1,40,44.49a2.41,2.41,0,0,0,1.47.51c3,0,4.37-5.48,4.37-10.91S44.49,23.17,41.47,23.17Zm.58,18.1a.61.61,0,0,1-.58.37V26.53a.61.61,0,0,1,.58.38,19.37,19.37,0,0,1,1.12,7.18A19.41,19.41,0,0,1,42.05,41.27Z"/><ellipse class="cls-3" cx="41.47" cy="34.09" rx="3.03" ry="9.58"/><path class="cls-2" d="M41.47,45c-3,0-4.37-5.48-4.37-10.91s1.35-10.92,4.37-10.92,4.37,5.48,4.37,10.92S44.49,45,41.47,45Zm.58-18.09a.62.62,0,0,0-1.15,0,19.11,19.11,0,0,0-1.13,7.18,19.15,19.15,0,0,0,1.13,7.18.63.63,0,0,0,1.15,0,19.41,19.41,0,0,0,1.12-7.18A19.37,19.37,0,0,0,42.05,26.91Z"/></svg>