<svg id="Layer_1" data-name="Layer 1" xmlns="http://www.w3.org/2000/svg" viewBox="0 0 64 64"><defs><style>.cls-1{fill:#dfe8f4;}.cls-2{fill:#ff5454;}.cls-3{fill:#dd1515;}</style></defs><title>marketing, content marketing, digital marketing, strategy, cloud, transfer, computer</title><path class="cls-1" d="M47,20.09A8.16,8.16,0,0,1,43.55,16a12.35,12.35,0,0,0-23.1,0A8.16,8.16,0,0,1,17,20.09,9.22,9.22,0,0,0,12.45,28h0a9.23,9.23,0,0,0,9.23,9.23H42.32A9.23,9.23,0,0,0,51.55,28h0A9.22,9.22,0,0,0,47,20.09Z"/><path class="cls-2" d="M8.34,54.38H22.28a.34.34,0,0,1,.34.34v.2A1.08,1.08,0,0,1,21.54,56H9.28A1.28,1.28,0,0,1,8,54.72v0a.34.34,0,0,1,.34-.34Z"/><path class="cls-3" d="M20.43,46.24H10.2a.93.93,0,0,0-.93.92v7.22H13a.69.69,0,0,1,.59.32.7.7,0,0,0,.6.33h2.33a.69.69,0,0,0,.59-.33.7.7,0,0,1,.59-.32h3.7V47.16A.93.93,0,0,0,20.43,46.24Z"/><path class="cls-2" d="M25,54.38H39a.34.34,0,0,1,.34.34v.2A1.08,1.08,0,0,1,38.23,56H26a1.28,1.28,0,0,1-1.28-1.28v0a.34.34,0,0,1,.34-.34Z"/><path class="cls-3" d="M37.11,46.24H26.89a.92.92,0,0,0-.93.92v7.22h3.69a.7.7,0,0,1,.59.32.69.69,0,0,0,.59.33h2.34a.69.69,0,0,0,.59-.33.7.7,0,0,1,.59-.32H38V47.16A.92.92,0,0,0,37.11,46.24Z"/><path class="cls-2" d="M41.72,54.38H55.66a.34.34,0,0,1,.34.34v.2A1.08,1.08,0,0,1,54.92,56H42.66a1.28,1.28,0,0,1-1.28-1.28v0a.34.34,0,0,1,.34-.34Z"/><path class="cls-3" d="M53.8,46.24H43.57a.93.93,0,0,0-.93.92v7.22h3.7a.7.7,0,0,1,.59.32.69.69,0,0,0,.59.33h2.33a.7.7,0,0,0,.6-.33.69.69,0,0,1,.59-.32h3.69V47.16A.93.93,0,0,0,53.8,46.24Z"/><path class="cls-1" d="M20.56,44.4h0a.8.8,0,0,1-.79-.8V39.42a.8.8,0,0,1,.79-.8h0a.8.8,0,0,1,.8.8V43.6A.8.8,0,0,1,20.56,44.4Z"/><path class="cls-1" d="M32,44.4h0a.79.79,0,0,1-.79-.8V39.42a.79.79,0,0,1,.79-.8h0a.79.79,0,0,1,.79.8V43.6A.79.79,0,0,1,32,44.4Z"/><path class="cls-1" d="M43.44,44.4h0a.8.8,0,0,1-.8-.8V39.42a.8.8,0,0,1,.8-.8h0a.8.8,0,0,1,.79.8V43.6A.8.8,0,0,1,43.44,44.4Z"/></svg>