<svg id="Layer_1" data-name="Layer 1" xmlns="http://www.w3.org/2000/svg" viewBox="0 0 64 64"><defs><style>.cls-1{fill:#F4DFDF;}.cls-2{fill:#e5cccc;}.cls-3{fill:#FC0707;}</style></defs><title>marketing, content marketing, digital marketing, strategy, brain, thought</title><path class="cls-1" d="M38.94,8H37.28a17.05,17.05,0,0,0-17,17.06v9a1.57,1.57,0,0,0,1.57,1.58h0a.73.73,0,0,1,.73.73V44a5.52,5.52,0,0,0,5.52,5.52h2.43a.88.88,0,0,1,.78,1.3L28.53,56H56V49.5h0V25.06A17.06,17.06,0,0,0,38.94,8Z"/><path class="cls-2" d="M42.68,49.5H30.48a.88.88,0,0,1,.78,1.3L28.53,56H51.3a1.41,1.41,0,0,0,1-2.39h0A13.34,13.34,0,0,0,42.68,49.5Z"/><path class="cls-3" d="M46.14,18.54l-8,.08a2.19,2.19,0,0,0-1.81,1L30.4,28.25a.83.83,0,0,0,.69,1.29l4.08,0a.23.23,0,0,1,.19.36L32,34.75a.23.23,0,0,0,.32.32l12.18-8.72a.83.83,0,0,0-.49-1.5l-2.09,0a.23.23,0,0,1-.16-.4L46.71,20A.82.82,0,0,0,46.14,18.54Z"/></svg>