<svg id="Layer_1" data-name="Layer 1" xmlns="http://www.w3.org/2000/svg" viewBox="0 0 64 64"><defs><style>.cls-1{fill:#dfe8f4;}.cls-2{fill:#ccd8e5;}.cls-3{fill:#ff5454;}.cls-4{fill:#dd1515;}.cls-5{fill:#fff;}</style></defs><title>marketing, content marketing, digital marketing, strategy, thought, settings, options</title><path class="cls-1" d="M38.84,8H37.18a17.05,17.05,0,0,0-17,17.06v9a1.57,1.57,0,0,0,1.57,1.58h0a.73.73,0,0,1,.73.73V44A5.52,5.52,0,0,0,28,49.5h2.43a.88.88,0,0,1,.78,1.3L28.43,56H55.85V49.5h0V25.06A17.06,17.06,0,0,0,38.84,8Z"/><path class="cls-2" d="M42.58,49.5H30.38a.88.88,0,0,1,.78,1.3L28.43,56H51.2a1.41,1.41,0,0,0,1-2.39h0A13.34,13.34,0,0,0,42.58,49.5Z"/><path class="cls-3" d="M47.32,25.31a8.69,8.69,0,0,0,0-.89,1.45,1.45,0,0,1,.45-1.2l.61-.55a1.4,1.4,0,0,0,.28-1.74L47.1,18.31a1.41,1.41,0,0,0-1.65-.63l-.78.26a1.36,1.36,0,0,1-1.22-.19,9.45,9.45,0,0,0-1.61-.92,1.4,1.4,0,0,1-.78-1l-.17-.81a1.4,1.4,0,0,0-1.37-1.11h-3a1.4,1.4,0,0,0-1.37,1.11l-.17.81a1.37,1.37,0,0,1-.78,1,9.76,9.76,0,0,0-1.6.92,1.38,1.38,0,0,1-1.23.19l-.78-.26a1.4,1.4,0,0,0-1.64.63l-1.51,2.62a1.4,1.4,0,0,0,.27,1.74l.61.55a1.39,1.39,0,0,1,.45,1.2,7.86,7.86,0,0,0,0,1.77,1.39,1.39,0,0,1-.45,1.2l-.61.55a1.39,1.39,0,0,0-.27,1.73l1.51,2.62a1.39,1.39,0,0,0,1.64.63l.78-.25a1.38,1.38,0,0,1,1.23.19,9.09,9.09,0,0,0,1.6.92,1.37,1.37,0,0,1,.78,1l.17.81a1.4,1.4,0,0,0,1.37,1.1h3a1.4,1.4,0,0,0,1.37-1.1l.17-.81a1.4,1.4,0,0,1,.78-1,8.83,8.83,0,0,0,1.61-.92,1.36,1.36,0,0,1,1.22-.19l.78.25a1.4,1.4,0,0,0,1.65-.63l1.51-2.62a1.39,1.39,0,0,0-.28-1.73l-.61-.55a1.45,1.45,0,0,1-.45-1.2A8.65,8.65,0,0,0,47.32,25.31Z"/><path class="cls-4" d="M41.33,25.3A3.32,3.32,0,1,1,38,22,3.32,3.32,0,0,1,41.33,25.3Z"/><path class="cls-5" d="M49.11,36.36a2.73,2.73,0,0,0-.25-.23.53.53,0,0,1-.19-.44v-.31a.54.54,0,0,0-.39-.54l-1.11-.29a.51.51,0,0,0-.6.27l-.14.27a.52.52,0,0,1-.38.28,3.28,3.28,0,0,0-.68.19.53.53,0,0,1-.46-.06l-.27-.17a.54.54,0,0,0-.66.07l-.81.81a.54.54,0,0,0-.07.66l.17.27a.5.5,0,0,1,0,.46,4,4,0,0,0-.18.68.54.54,0,0,1-.28.38l-.27.14a.51.51,0,0,0-.27.61l.29,1.1a.54.54,0,0,0,.54.39h.31a.51.51,0,0,1,.44.2l.23.25.25.22a.53.53,0,0,1,.19.44v.31a.54.54,0,0,0,.39.54l1.11.29a.5.5,0,0,0,.6-.27l.14-.27a.54.54,0,0,1,.38-.28,4,4,0,0,0,.68-.18.52.52,0,0,1,.47,0l.26.17a.53.53,0,0,0,.66-.07l.81-.81a.54.54,0,0,0,.07-.66L50,40.56a.52.52,0,0,1,0-.47,4,4,0,0,0,.18-.68.51.51,0,0,1,.28-.37l.27-.15a.5.5,0,0,0,.27-.6l-.29-1.11a.54.54,0,0,0-.54-.39l-.31,0a.57.57,0,0,1-.44-.2A2.73,2.73,0,0,0,49.11,36.36Z"/><path class="cls-3" d="M47.51,38a1.25,1.25,0,1,1-1.77,0A1.25,1.25,0,0,1,47.51,38Z"/></svg>