<svg id="Layer_1" data-name="Layer 1" xmlns="http://www.w3.org/2000/svg" viewBox="0 0 64 64"><defs><style>.cls-1{fill:#dd1515;}.cls-2{fill:#fff;}.cls-3{fill:#ff5454;}.cls-4{fill:#dfe8f4;}</style></defs><title>marketing, content marketing, digital marketing, strategy, social, group</title><circle class="cls-1" cx="31.95" cy="18.18" r="10.18"/><path class="cls-2" d="M35.69,17.11V15.43a3.75,3.75,0,0,0-1.87-3.25h0a3.75,3.75,0,0,0-3.75,0h0a3.75,3.75,0,0,0-1.87,3.25v1.68A3.26,3.26,0,0,0,29.84,20h0a4.22,4.22,0,0,0,4.21,0h0A3.26,3.26,0,0,0,35.69,17.11Z"/><path class="cls-3" d="M32,28.36a10.11,10.11,0,0,0,7-2.81,8.19,8.19,0,0,0-14,0A10.11,10.11,0,0,0,32,28.36Z"/><circle class="cls-1" cx="18.13" cy="45.82" r="10.18"/><path class="cls-2" d="M21.87,44.75V43.07A3.75,3.75,0,0,0,20,39.82h0a3.75,3.75,0,0,0-3.75,0h0a3.75,3.75,0,0,0-1.87,3.25v1.68A3.26,3.26,0,0,0,16,47.59h0a4.22,4.22,0,0,0,4.21,0h0A3.26,3.26,0,0,0,21.87,44.75Z"/><path class="cls-3" d="M18.13,56a10.11,10.11,0,0,0,7-2.81,8.19,8.19,0,0,0-14,0A10.11,10.11,0,0,0,18.13,56Z"/><circle class="cls-1" cx="45.87" cy="45.82" r="10.18"/><path class="cls-2" d="M49.62,44.75V43.07a3.75,3.75,0,0,0-1.87-3.25h0a3.75,3.75,0,0,0-3.75,0h0a3.75,3.75,0,0,0-1.87,3.25v1.68a3.26,3.26,0,0,0,1.64,2.84h0a4.22,4.22,0,0,0,4.21,0h0A3.26,3.26,0,0,0,49.62,44.75Z"/><path class="cls-3" d="M45.87,56a10.11,10.11,0,0,0,7-2.81,8.19,8.19,0,0,0-14,0A10.11,10.11,0,0,0,45.87,56Z"/><path class="cls-4" d="M32,35.71a1,1,0,0,1-1-1V31.46a1,1,0,1,1,2,0v3.25A1,1,0,0,1,32,35.71Z"/><path class="cls-4" d="M28.89,38a1,1,0,0,1-.61-1.79L32,33.45l3.66,2.8a1,1,0,0,1-1.21,1.59L32,36l-2.46,1.88A1,1,0,0,1,28.89,38Z"/></svg>