<svg id="Layer_1" data-name="Layer 1" xmlns="http://www.w3.org/2000/svg" viewBox="0 0 64 64"><defs><style>.cls-1{fill:#dfe8f4;}.cls-2{fill:#ff5454;}</style></defs><title>marketing, content marketing, digital marketing, strategy, distribution, pin</title><path class="cls-1" d="M32,49.11a1,1,0,0,1-1-1V45.25a1,1,0,0,1,2,0v2.86A1,1,0,0,1,32,49.11Z"/><path class="cls-1" d="M45.48,21.48A13.47,13.47,0,0,0,31.33,8,14.11,14.11,0,0,0,18.55,20.56a13.45,13.45,0,0,0,5,11.42,29.1,29.1,0,0,1,7.77,9.22l.38.75a.33.33,0,0,0,.58,0l.22-.44a29.57,29.57,0,0,1,7.9-9.5A13.45,13.45,0,0,0,45.48,21.48Z"/><path class="cls-2" d="M36.48,21.48A4.48,4.48,0,1,1,32,17,4.48,4.48,0,0,1,36.48,21.48Z"/><path class="cls-2" d="M32,56a4.77,4.77,0,1,1,4.77-4.77A4.78,4.78,0,0,1,32,56Zm0-6.53a1.77,1.77,0,1,0,1.77,1.76A1.77,1.77,0,0,0,32,49.47Z"/><path class="cls-1" d="M15.73,49.84A1,1,0,0,1,15,48.16l9-9.62a1,1,0,0,1,1.47,1.36l-8.95,9.62A1,1,0,0,1,15.73,49.84Z"/><path class="cls-2" d="M13.5,56a4.77,4.77,0,1,1,4.77-4.77A4.77,4.77,0,0,1,13.5,56Zm0-6.53a1.77,1.77,0,1,0,1.77,1.76A1.76,1.76,0,0,0,13.5,49.47Z"/><path class="cls-1" d="M48.27,49.84a1,1,0,0,1-.73-.32L38.59,39.9a1,1,0,0,1,1.47-1.36L49,48.16a1,1,0,0,1,0,1.42A1.06,1.06,0,0,1,48.27,49.84Z"/><path class="cls-2" d="M50.5,56a4.77,4.77,0,1,1,4.76-4.77A4.78,4.78,0,0,1,50.5,56Zm0-6.53a1.77,1.77,0,1,0,1.76,1.76A1.76,1.76,0,0,0,50.5,49.47Z"/></svg>