<svg id="Layer_1" data-name="Layer 1" xmlns="http://www.w3.org/2000/svg" viewBox="0 0 64 64"><defs><style>.cls-1{fill:#ff5454;}.cls-2{fill:#fff;}.cls-3{fill:#dd1515;}</style></defs><title>marketing, content marketing, digital marketing, strategy, talk, money</title><rect class="cls-1" x="8" y="11.21" width="48" height="34.5" rx="3.76"/><path class="cls-1" d="M17.34,39.92V52.4a.39.39,0,0,0,.67.27L30.17,39.92Z"/><path class="cls-2" d="M32.09,26.63a1.83,1.83,0,0,1-1.8-1.41A1.74,1.74,0,0,1,33.51,24a1.79,1.79,0,0,0,1.55.87h0a1.83,1.83,0,0,0,1.64-2.67,5.47,5.47,0,0,0-2.87-2.42h0a1.7,1.7,0,0,0-1.7-1.7h-.26a1.7,1.7,0,0,0-1.7,1.7h0a5.46,5.46,0,0,0-3.12,7.34,5.56,5.56,0,0,0,5,3.16,1.74,1.74,0,1,1-1.6,2.61A1.79,1.79,0,0,0,28.94,32h0a1.83,1.83,0,0,0-1.64,2.67,5.46,5.46,0,0,0,2.87,2.41h0a1.71,1.71,0,0,0,1.7,1.71h.26a1.71,1.71,0,0,0,1.7-1.71h0a5.4,5.4,0,0,0-1.74-10.49Z"/><path class="cls-3" d="M19.8,27.39a1.07,1.07,0,0,1-1.05-.82,1,1,0,0,1,1.88-.71,1.06,1.06,0,0,0,.91.51h0a1.07,1.07,0,0,0,1-1.56,3.2,3.2,0,0,0-1.68-1.41h0a1,1,0,0,0-1-1h-.14a1,1,0,0,0-1,1h0a3.18,3.18,0,0,0-1.82,4.29,3.26,3.26,0,0,0,2.94,1.85,1,1,0,0,1,1,1,1,1,0,0,1-1,1,1,1,0,0,1-.88-.51,1.06,1.06,0,0,0-.91-.51h0a1.07,1.07,0,0,0-1,1.56,3.15,3.15,0,0,0,1.68,1.41h0a1,1,0,0,0,1,1h.14a1,1,0,0,0,1-1h0a3.16,3.16,0,0,0-1-6.13Z"/><path class="cls-3" d="M44.3,27.39a1.07,1.07,0,0,1-1-.82,1,1,0,0,1,1.88-.71,1.06,1.06,0,0,0,.91.51h0a1.07,1.07,0,0,0,1-1.56,3.2,3.2,0,0,0-1.68-1.41h0a1,1,0,0,0-1-1h-.14a1,1,0,0,0-1,1h0a3.18,3.18,0,0,0-1.82,4.29,3.26,3.26,0,0,0,2.94,1.85,1,1,0,0,1,1,1,1,1,0,0,1-1,1,1,1,0,0,1-.88-.51,1.06,1.06,0,0,0-.91-.51h0a1.07,1.07,0,0,0-1,1.56,3.15,3.15,0,0,0,1.68,1.41h0a1,1,0,0,0,1,1h.14a1,1,0,0,0,1-1h0a3.16,3.16,0,0,0-1-6.13Z"/></svg>