<svg id="Layer_1" data-name="Layer 1" xmlns="http://www.w3.org/2000/svg" viewBox="0 0 64 64"><defs><style>.cls-1{fill:#dfe8f4;}.cls-2{fill:#ff5454;}.cls-3{fill:#dd1515;}.cls-4{fill:#fff;}</style></defs><title>marketing, content marketing, digital marketing, strategy, add, new, user, account</title><path class="cls-1" d="M31.53,18.68v-3.3A7.38,7.38,0,0,0,27.84,9h0a7.37,7.37,0,0,0-7.38,0h0a7.37,7.37,0,0,0-3.7,6.39v3.3A6.48,6.48,0,0,0,20,24.29h0a8.29,8.29,0,0,0,8.29,0h0A6.48,6.48,0,0,0,31.53,18.68Z"/><path class="cls-1" d="M38.85,49H9.44A1.44,1.44,0,0,1,8,47.56V43.67A16.15,16.15,0,0,1,24.15,27.53h0A16.14,16.14,0,0,1,40.29,43.67v3.89A1.44,1.44,0,0,1,38.85,49Z"/><circle class="cls-2" cx="44" cy="44" r="12"/><path class="cls-3" d="M32,44a11.92,11.92,0,0,0,1.1,5h5.75a1.44,1.44,0,0,0,1.44-1.44V43.67a16,16,0,0,0-3.13-9.52A12,12,0,0,0,32,44Z"/><rect class="cls-4" x="42.17" y="38.91" width="3.65" height="10.19" rx="0.52"/><rect class="cls-4" x="42.17" y="38.91" width="3.65" height="10.19" rx="0.52" transform="translate(88 0) rotate(90)"/></svg>