<svg id="Layer_1" data-name="Layer 1" xmlns="http://www.w3.org/2000/svg" viewBox="0 0 64 64"><defs><style>.cls-1{fill:#F4DFDF;}.cls-2{fill:#e5cccc;}.cls-3{fill:#FC0707;}.cls-4{fill:#fff;}</style></defs><title>marketing, content marketing, digital marketing, strategy, complete, confirm, idea</title><path class="cls-1" d="M39,8H37.33a17.05,17.05,0,0,0-17,17.06v9a1.57,1.57,0,0,0,1.57,1.58h0a.73.73,0,0,1,.73.73V44A5.52,5.52,0,0,0,28.1,49.5h2.43a.88.88,0,0,1,.78,1.3L28.58,56H56V49.5h0V25.06A17.06,17.06,0,0,0,39,8Z"/><path class="cls-2" d="M42.73,49.5H30.53a.88.88,0,0,1,.78,1.3L28.58,56H51.35a1.41,1.41,0,0,0,1-2.39h0A13.34,13.34,0,0,0,42.73,49.5Z"/><circle class="cls-3" cx="38.16" cy="25.3" r="9.81"/><path class="cls-4" d="M36.31,30.13l-2.48-2.48a1.83,1.83,0,0,1-.26-2.32,1.76,1.76,0,0,1,2.67-.23l.85.85,3.53-3.54a1.82,1.82,0,0,1,2.32-.26,1.76,1.76,0,0,1,.23,2.67l-5.31,5.31A1.09,1.09,0,0,1,36.31,30.13Z"/></svg>