<svg id="Layer_1" data-name="Layer 1" xmlns="http://www.w3.org/2000/svg" viewBox="0 0 64 64"><defs><style>.cls-1{fill:#DD1515;}.cls-2{fill:#F4DFDF;}.cls-3{fill:#e5cccc;}.cls-4{fill:#FC0707;}.cls-5{fill:#fff;}</style></defs><title>marketing, content marketing, digital marketing, strategy, location, pin</title><ellipse class="cls-1" cx="32" cy="52.38" rx="15.13" ry="3.63"/><path class="cls-2" d="M49.53,25.53A17.53,17.53,0,0,0,31.13,8c-8.34.4-16.06,8-16.62,16.31A17.48,17.48,0,0,0,21,39.18a37.72,37.72,0,0,1,10.1,12l.51,1a.42.42,0,0,0,.74,0l.3-.58A38.58,38.58,0,0,1,42.93,39.22,17.48,17.48,0,0,0,49.53,25.53Z"/><path class="cls-3" d="M32,48.75c-.77,0-1.52,0-2.25,0,.48.78.95,1.56,1.37,2.38l.51,1a.42.42,0,0,0,.74,0l.3-.58c.49-1,1-1.87,1.61-2.77C33.54,48.77,32.78,48.75,32,48.75Z"/><path class="cls-4" d="M36.16,25.53A4.16,4.16,0,1,1,32,21.36,4.16,4.16,0,0,1,36.16,25.53Z"/><circle class="cls-4" cx="32" cy="25.53" r="10.69"/><path class="cls-5" d="M32.07,24.17a1.36,1.36,0,0,1-1.34-1.05A1.3,1.3,0,0,1,32,21.58a1.28,1.28,0,0,1,1.12.65,1.3,1.3,0,0,0,1.15.64h0a1.35,1.35,0,0,0,1.22-2,4.08,4.08,0,0,0-2.13-1.79h0a1.26,1.26,0,0,0-1.27-1.26h-.18a1.26,1.26,0,0,0-1.27,1.26h0a4,4,0,0,0-2.31,5.45,4.11,4.11,0,0,0,3.74,2.34,1.29,1.29,0,1,1-1.19,1.94,1.31,1.31,0,0,0-1.15-.65h0a1.36,1.36,0,0,0-1.22,2A4.08,4.08,0,0,0,30.64,32h0a1.27,1.27,0,0,0,1.27,1.27h.18A1.27,1.27,0,0,0,33.36,32h0a4,4,0,0,0-1.29-7.78Z"/></svg>