<svg id="Layer_1" data-name="Layer 1" xmlns="http://www.w3.org/2000/svg" viewBox="0 0 64 64"><defs><style>.cls-1{fill:#F4DFDF;}.cls-2{fill:#e5cccc;}.cls-3{fill:#FC0707;}.cls-4{fill:#DD1515;}.cls-5{fill:#fff;}</style></defs><title>marketing, content marketing, digital marketing, strategy, message, email, newsletter</title><path class="cls-1" d="M29.4,16,10.61,26.8A5.19,5.19,0,0,0,8,31.3V50.8A5.2,5.2,0,0,0,13.2,56H50.8A5.2,5.2,0,0,0,56,50.8V31.3a5.19,5.19,0,0,0-2.6-4.5L34.6,16A5.19,5.19,0,0,0,29.4,16Z"/><path class="cls-2" d="M56,50.8V31.3a5.19,5.19,0,0,0-2.6-4.5L37.93,17.87,25.59,44.71l15.58,8.77A19.69,19.69,0,0,0,50.8,56h0A5.19,5.19,0,0,0,56,50.8Z"/><path class="cls-3" d="M53.39,26.8,34.6,16a5.19,5.19,0,0,0-5.2,0L10.61,26.8A5.19,5.19,0,0,0,8,31.3v.27a5.2,5.2,0,0,0,2.6,4.5L29.4,46.92a5.19,5.19,0,0,0,5.2,0L53.39,36.07a5.2,5.2,0,0,0,2.6-4.5V31.3A5.19,5.19,0,0,0,53.39,26.8Z"/><path class="cls-4" d="M46.77,39.89l6.62-3.82a4.7,4.7,0,0,0,.59-.4l-7.21-7.21Z"/><path class="cls-4" d="M53.39,35.19,34.6,46a5.19,5.19,0,0,1-5.2,0L10.61,35.19A5.19,5.19,0,0,1,8,31c0,.11,0,.2,0,.31v.27a5.2,5.2,0,0,0,2.6,4.5L29.4,46.92a5.19,5.19,0,0,0,5.2,0L53.39,36.07a5.2,5.2,0,0,0,2.6-4.5V31.3c0-.11,0-.2,0-.31A5.19,5.19,0,0,1,53.39,35.19Z"/><path class="cls-5" d="M16.83,39.66,29.4,46.92a5.19,5.19,0,0,0,5.2,0l12.57-7.26V29.45A1.45,1.45,0,0,0,45.72,28H18.28a1.45,1.45,0,0,0-1.45,1.45Z"/><path class="cls-1" d="M37.59,34.72H26.1a.64.64,0,0,1-.64-.64h0a.64.64,0,0,1,.64-.64H37.59a.64.64,0,0,1,.64.64h0A.64.64,0,0,1,37.59,34.72Z"/><path class="cls-1" d="M37.59,37.81H26.1a.64.64,0,0,1-.64-.64h0a.64.64,0,0,1,.64-.64H37.59a.64.64,0,0,1,.64.64h0A.64.64,0,0,1,37.59,37.81Z"/><path class="cls-1" d="M31.36,40.91H26.1a.64.64,0,0,1-.64-.64h0a.65.65,0,0,1,.64-.65h5.26a.65.65,0,0,1,.64.65h0A.64.64,0,0,1,31.36,40.91Z"/></svg>