<svg id="Layer_1" data-name="Layer 1" xmlns="http://www.w3.org/2000/svg" viewBox="0 0 64 64"><defs><style>.cls-1{fill:#FC0707;}.cls-2{fill:#DD1515;}.cls-3{fill:#F4DFDF;}.cls-4{fill:#e5cccc;}.cls-5{fill:#fff;}</style></defs><title>marketing, content marketing, digital marketing, strategy, time, money</title><rect class="cls-1" x="8.28" y="12.93" width="43.35" height="26.34" rx="2.88"/><circle class="cls-2" cx="29.95" cy="26.1" r="7.73"/><circle class="cls-2" cx="13.67" cy="33.86" r="1.51"/><circle class="cls-2" cx="46.24" cy="18.34" r="1.51"/><circle class="cls-3" cx="44.39" cy="43.7" r="12.2" transform="translate(-17.9 44.19) rotate(-45)"/><path class="cls-4" d="M44.39,31.5A12.2,12.2,0,0,0,33,39.27H48.75a2.87,2.87,0,0,0,2.87-2.88v-2.5A12.15,12.15,0,0,0,44.39,31.5Z"/><path class="cls-5" d="M48.85,45H44.39V42.41h4.46a1.29,1.29,0,0,1,1.29,1.29h0A1.29,1.29,0,0,1,48.85,45Z"/><path class="cls-5" d="M44.38,43.37h0a.63.63,0,0,1-.64-.64V35.8a.64.64,0,0,1,.64-.64h0a.64.64,0,0,1,.63.64v6.93A.63.63,0,0,1,44.38,43.37Z"/><circle class="cls-5" cx="44.39" cy="43.7" r="1.59"/></svg>