<svg id="Layer_1" data-name="Layer 1" xmlns="http://www.w3.org/2000/svg" viewBox="0 0 64 64"><defs><style>.cls-1{fill:#F4DFDF;}.cls-2{fill:#e5cccc;}.cls-3{fill:#FC0707;}.cls-4{fill:#DD1515;}</style></defs><title>marketing, content marketing, digital marketing, strategy, orientation, smartphone</title><rect class="cls-1" x="8" y="8" width="30.67" height="48" rx="5.39"/><path class="cls-2" d="M33.28,8H13.39A5.39,5.39,0,0,0,8,13.39V50.61A5.39,5.39,0,0,0,13.39,56H33.28a5.39,5.39,0,0,0,5.39-5.39V13.39A5.39,5.39,0,0,0,33.28,8Zm3.39,42.61A3.39,3.39,0,0,1,33.28,54H13.39A3.39,3.39,0,0,1,10,50.61V13.39A3.39,3.39,0,0,1,13.39,10H15.9a1.82,1.82,0,0,1,1.42.67h0a1.84,1.84,0,0,0,1.42.66h9.19a1.84,1.84,0,0,0,1.41-.66h0A1.82,1.82,0,0,1,30.76,10h2.52a3.39,3.39,0,0,1,3.39,3.39Z"/><rect class="cls-3" x="16.67" y="16.67" width="30.67" height="48" rx="5.39" transform="translate(72.67 8.67) rotate(90)"/><rect class="cls-3" x="16.67" y="16.67" width="30.67" height="48" rx="5.39" transform="translate(72.67 8.67) rotate(90)"/><path class="cls-4" d="M9.94,54.72A5.33,5.33,0,0,0,13.39,56H33.28a5.39,5.39,0,0,0,5.39-5.39V25.33H13.39A5.39,5.39,0,0,0,8,30.72V50.61a5.6,5.6,0,0,0,.11,1.09A5.35,5.35,0,0,0,9.22,54,4.58,4.58,0,0,0,9.94,54.72Z"/><path class="cls-4" d="M56,50.61V30.72a5.39,5.39,0,0,0-5.39-5.39H13.39A5.39,5.39,0,0,0,8,30.72V50.61A5.39,5.39,0,0,0,13.39,56H50.61A5.39,5.39,0,0,0,56,50.61ZM13.39,54A3.39,3.39,0,0,1,10,50.61V30.72a3.39,3.39,0,0,1,3.39-3.39H50.61A3.39,3.39,0,0,1,54,30.72v2.52a1.82,1.82,0,0,1-.67,1.42h0a1.84,1.84,0,0,0-.66,1.41v9.19a1.84,1.84,0,0,0,.66,1.42h0A1.82,1.82,0,0,1,54,48.1v2.51A3.39,3.39,0,0,1,50.61,54Z"/><path class="cls-4" d="M8.51,52.86a3.07,3.07,0,0,0,.17.31,5,5,0,0,0,.54.81,4.58,4.58,0,0,0,.72.74h0a5.37,5.37,0,0,0,.73.52l.06,0a5.17,5.17,0,0,0,.75.36l.3.1c.2.06.4.13.6.17a5.56,5.56,0,0,0,1,.1h19.9a5.37,5.37,0,0,0,4.16-2h-24A3.39,3.39,0,0,1,10,50.61V30.72a3.39,3.39,0,0,1,3.39-3.39H38.67v-2H13.39A5.39,5.39,0,0,0,8,30.72V50.61a5.6,5.6,0,0,0,.11,1.09,4.71,4.71,0,0,0,.26.83A3.27,3.27,0,0,0,8.51,52.86Z"/><path class="cls-1" d="M20.66,45.58,17.6,42.52a2.24,2.24,0,0,1-.32-2.86,2.17,2.17,0,0,1,3.3-.28l1,1L26,36.05a2.23,2.23,0,0,1,2.86-.31A2.16,2.16,0,0,1,29.13,39l-6.55,6.55A1.36,1.36,0,0,1,20.66,45.58Z"/></svg>