<svg id="Layer_1" data-name="Layer 1" xmlns="http://www.w3.org/2000/svg" viewBox="0 0 64 64"><defs><style>.cls-1{fill:#FC0707;}.cls-2{fill:#F4DFDF;}.cls-3{fill:#DD1515;}</style></defs><title>marketing, content marketing, digital marketing, strategy, transfer, person</title><path class="cls-1" d="M27.94,56h7.93C47,56,56,51,56,39.87v-9a1,1,0,0,0-1.73-.8L44.11,38.75a.64.64,0,0,0,.41,1.12h3c0,6.4-5.21,8.61-11.61,8.61H30.71c-2.46,0-4.45,1-4.45,3.45v2.39A1.68,1.68,0,0,0,27.94,56Z"/><path class="cls-1" d="M36.06,8H28.13C17,8,8,13,8,24.13v9a1,1,0,0,0,1.73.8l10.16-8.66a.64.64,0,0,0-.41-1.12h-3c0-6.4,5.21-8.61,11.61-8.61h5.16c2.46,0,4.45-1,4.45-3.45V9.68A1.68,1.68,0,0,0,36.06,8Z"/><path class="cls-2" d="M48.87,8h-.7A7.13,7.13,0,0,0,41,15.13v3.78a.67.67,0,0,0,.66.66h0a.3.3,0,0,1,.31.3v3.18a2.3,2.3,0,0,0,2.3,2.3h1a.38.38,0,0,1,.33.55l-1.14,2.17H56V25.35h0V15.13A7.13,7.13,0,0,0,48.87,8Z"/><path class="cls-3" d="M15.13,35.93h.7A7.13,7.13,0,0,1,23,43.06v3.78a.67.67,0,0,1-.66.66h0a.31.31,0,0,0-.31.31V51a2.3,2.3,0,0,1-2.3,2.3h-1a.38.38,0,0,0-.33.55L19.48,56H8V53.28H8V43.06A7.13,7.13,0,0,1,15.13,35.93Z"/></svg>