<svg id="Layer_1" data-name="Layer 1" xmlns="http://www.w3.org/2000/svg" viewBox="0 0 64 64"><defs><style>.cls-1{fill:#dfe8f4;}.cls-2{fill:#ccd8e5;}.cls-3{fill:#ff5454;}</style></defs><title>marketing, content marketing, digital marketing, strategy, supply, demand</title><path class="cls-1" d="M51.35,13V11.15a3.15,3.15,0,0,0-1.57-2.73h0a3.14,3.14,0,0,0-3.14,0h0a3.14,3.14,0,0,0-1.58,2.73V13a2.76,2.76,0,0,0,1.38,2.39h0a3.53,3.53,0,0,0,3.53,0h0A2.74,2.74,0,0,0,51.35,13Z"/><path class="cls-2" d="M55.66,26.67H40.76a.34.34,0,0,1-.34-.34V25a7.79,7.79,0,0,1,7.79-7.79h0A7.79,7.79,0,0,1,56,25v1.37A.34.34,0,0,1,55.66,26.67Z"/><path class="cls-1" d="M18.94,42.34V40.48a3.15,3.15,0,0,0-1.58-2.73h0a3.14,3.14,0,0,0-3.14,0h0a3.16,3.16,0,0,0-1.57,2.73v1.86A2.76,2.76,0,0,0,14,44.73h0a3.53,3.53,0,0,0,3.53,0h0A2.78,2.78,0,0,0,18.94,42.34Z"/><path class="cls-2" d="M23.24,56H8.34A.34.34,0,0,1,8,55.66V54.29a7.79,7.79,0,0,1,7.79-7.79h0a7.79,7.79,0,0,1,7.79,7.79v1.37A.34.34,0,0,1,23.24,56Z"/><path class="cls-3" d="M27.94,56h7.93C47,56,56,51,56,39.87v-9a1,1,0,0,0-1.73-.8L44.11,38.75a.64.64,0,0,0,.41,1.12h3c0,6.4-5.21,8.61-11.61,8.61H30.71c-2.46,0-4.45,1-4.45,3.45v2.39A1.68,1.68,0,0,0,27.94,56Z"/><path class="cls-3" d="M36.06,8H28.13C17,8,8,13,8,24.13v9a1,1,0,0,0,1.73.8l10.16-8.66a.64.64,0,0,0-.41-1.12h-3c0-6.4,5.21-8.61,11.61-8.61h5.16c2.46,0,4.45-1,4.45-3.45V9.68A1.68,1.68,0,0,0,36.06,8Z"/></svg>