<svg id="Layer_1" data-name="Layer 1" xmlns="http://www.w3.org/2000/svg" viewBox="0 0 64 64"><defs><style>.cls-1{fill:#DD1515;}.cls-2{fill:#F4DFDF;}.cls-3{fill:#FC0707;}</style></defs><title>marketing, content marketing, digital marketing, strategy, dollar, money, finance, cash</title><rect class="cls-1" x="11.09" y="30.59" width="41.82" height="25.41" rx="2.77"/><circle class="cls-1" cx="32" cy="43.3" r="7.45" transform="matrix(0.16, -0.99, 0.99, 0.16, -15.86, 67.95)"/><circle class="cls-1" cx="16.29" cy="50.78" r="1.46"/><circle class="cls-1" cx="47.71" cy="35.81" r="1.46"/><rect class="cls-2" x="11.09" y="26.83" width="41.82" height="25.41" rx="2.77"/><circle class="cls-1" cx="32" cy="39.53" r="7.46"/><circle class="cls-1" cx="16.29" cy="47.02" r="1.46"/><circle class="cls-1" cx="47.71" cy="32.05" r="1.46"/><rect class="cls-1" x="11.09" y="23.06" width="41.82" height="25.41" rx="2.77"/><circle class="cls-1" cx="32" cy="35.77" r="7.45" transform="matrix(0.16, -0.99, 0.99, 0.16, -8.43, 61.62)"/><circle class="cls-1" cx="16.29" cy="43.25" r="1.46"/><circle class="cls-1" cx="47.71" cy="28.28" r="1.46"/><rect class="cls-2" x="11.09" y="19.3" width="41.82" height="25.41" rx="2.77"/><circle class="cls-1" cx="32" cy="32" r="7.45"/><circle class="cls-1" cx="16.29" cy="39.49" r="1.46"/><circle class="cls-1" cx="47.71" cy="24.52" r="1.46"/><rect class="cls-1" x="11.09" y="15.53" width="41.82" height="25.41" rx="2.77"/><circle class="cls-1" cx="32" cy="28.24" r="7.45" transform="translate(-1 55.3) rotate(-80.78)"/><circle class="cls-1" cx="16.29" cy="35.72" r="1.46"/><circle class="cls-1" cx="47.71" cy="20.75" r="1.46"/><rect class="cls-2" x="11.09" y="11.77" width="41.82" height="25.41" rx="2.77"/><circle class="cls-1" cx="32" cy="24.47" r="7.45"/><circle class="cls-1" cx="16.29" cy="31.96" r="1.46"/><circle class="cls-1" cx="47.71" cy="16.99" r="1.46"/><rect class="cls-2" x="11.09" y="8.01" width="41.82" height="25.41" rx="2.77"/><circle class="cls-3" cx="32" cy="20.71" r="7.45" transform="translate(6.43 48.98) rotate(-80.78)"/><circle class="cls-1" cx="16.29" cy="28.19" r="1.46"/><circle class="cls-1" cx="47.71" cy="13.23" r="1.46"/><rect class="cls-3" x="11.09" y="8.01" width="41.82" height="25.41" rx="2.77"/><path class="cls-1" d="M50.13,8H13.87a2.77,2.77,0,0,0-2.78,2.77V30.64a2.77,2.77,0,0,0,2.78,2.77H50.13a2.77,2.77,0,0,0,2.78-2.77V10.78A2.77,2.77,0,0,0,50.13,8ZM19.82,29a5.74,5.74,0,0,0-4.27-4.29A1.67,1.67,0,0,1,14.27,23V12.89A1.72,1.72,0,0,1,16,11.18H42.52a1.7,1.7,0,0,1,1.66,1.29,5.72,5.72,0,0,0,4.27,4.28,1.69,1.69,0,0,1,1.28,1.66V28.52A1.72,1.72,0,0,1,48,30.24H21.48A1.7,1.7,0,0,1,19.82,29Z"/><path class="cls-1" d="M32,19.6A1.05,1.05,0,1,1,32.91,18a1,1,0,0,0,.83.53h0a1.15,1.15,0,0,0,1-1.79,3.24,3.24,0,0,0-1.24-1.11.71.71,0,0,1-.37-.65h0A1.11,1.11,0,0,0,32,13.89h0A1.11,1.11,0,0,0,30.89,15h0a.75.75,0,0,1-.38.66,3.31,3.31,0,0,0-1.29,4.69A3.13,3.13,0,0,0,32,21.82a1.05,1.05,0,0,1,0,2.1,1.06,1.06,0,0,1-.91-.52,1,1,0,0,0-.83-.53h0a1.17,1.17,0,0,0-1,1.83,3.31,3.31,0,0,0,1.22,1.07.71.71,0,0,1,.37.65h0A1.11,1.11,0,0,0,32,27.53h0a1.11,1.11,0,0,0,1.11-1.11h0a.74.74,0,0,1,.38-.66A3.31,3.31,0,0,0,34.74,21,3.1,3.1,0,0,0,32,19.6Z"/></svg>