<svg id="Layer_1" data-name="Layer 1" xmlns="http://www.w3.org/2000/svg" viewBox="0 0 64 64"><defs><style>.cls-1{fill:#FC0707;}.cls-2{fill:#F4DFDF;}.cls-3{fill:#e5cccc;}</style></defs><title>marketing, content marketing, digital marketing, strategy, transfer, cloud, smartphone</title><path class="cls-1" d="M39.83,19.13a7.54,7.54,0,0,1-3.21-3.79,11.37,11.37,0,0,0-21.26,0,7.54,7.54,0,0,1-3.21,3.79A8.49,8.49,0,0,0,8,26.43H8a8.49,8.49,0,0,0,8.5,8.49h19A8.49,8.49,0,0,0,44,26.43h0A8.47,8.47,0,0,0,39.83,19.13Z"/><path class="cls-2" d="M42,39.84V53.2a2.76,2.76,0,0,0,.06.57H55.94A2.76,2.76,0,0,0,56,53.2V39.84a2.62,2.62,0,0,0-.06-.57H42.06A2.62,2.62,0,0,0,42,39.84Z"/><path class="cls-3" d="M55.94,39.27a2.62,2.62,0,0,1,.06.57A2.81,2.81,0,0,0,53.2,37H44.8A2.81,2.81,0,0,0,42,39.84a2.62,2.62,0,0,1,.06-.57Z"/><path class="cls-3" d="M42.06,53.77A2.76,2.76,0,0,1,42,53.2,2.81,2.81,0,0,0,44.8,56h8.4A2.81,2.81,0,0,0,56,53.2a2.76,2.76,0,0,1-.06.57Z"/><path class="cls-1" d="M28.18,38.17a.67.67,0,0,1,.66.66v1.8c0,3.64,1.25,6.6,4.89,6.6V45.55a.36.36,0,0,1,.64-.23l4.92,5.78a.59.59,0,0,1-.45,1H33.73a9.18,9.18,0,0,1-9.17-9.17V38.83a.67.67,0,0,1,.66-.66Z"/></svg>