<svg id="Layer_1" data-name="Layer 1" xmlns="http://www.w3.org/2000/svg" viewBox="0 0 64 64"><defs><style>.cls-1{fill:#dfe8f4;}.cls-2{fill:#dd1515;}.cls-3{fill:#ff5454;}</style></defs><title>marketing, content marketing, digital marketing, strategy, finance, money, cash</title><rect class="cls-1" x="11.09" y="30.59" width="41.82" height="25.41" rx="2.77"/><circle class="cls-2" cx="32" cy="43.3" r="7.45" transform="matrix(0.16, -0.99, 0.99, 0.16, -15.86, 67.95)"/><circle class="cls-2" cx="16.29" cy="50.78" r="1.46"/><circle class="cls-2" cx="47.71" cy="35.81" r="1.46"/><rect class="cls-3" x="11.09" y="26.83" width="41.82" height="25.41" rx="2.77"/><circle class="cls-2" cx="32" cy="39.53" r="7.46"/><circle class="cls-2" cx="16.29" cy="47.02" r="1.46"/><circle class="cls-2" cx="47.71" cy="32.05" r="1.46"/><rect class="cls-1" x="11.09" y="23.06" width="41.82" height="25.41" rx="2.77"/><circle class="cls-2" cx="32" cy="35.77" r="7.45" transform="matrix(0.16, -0.99, 0.99, 0.16, -8.43, 61.62)"/><circle class="cls-2" cx="16.29" cy="43.25" r="1.46"/><circle class="cls-2" cx="47.71" cy="28.28" r="1.46"/><rect class="cls-3" x="11.09" y="19.3" width="41.82" height="25.41" rx="2.77"/><circle class="cls-2" cx="32" cy="32" r="7.45"/><circle class="cls-2" cx="16.29" cy="39.49" r="1.46"/><circle class="cls-2" cx="47.71" cy="24.52" r="1.46"/><rect class="cls-1" x="11.09" y="15.53" width="41.82" height="25.41" rx="2.77"/><circle class="cls-2" cx="32" cy="28.24" r="7.45" transform="translate(-1 55.3) rotate(-80.78)"/><circle class="cls-2" cx="16.29" cy="35.72" r="1.46"/><circle class="cls-2" cx="47.71" cy="20.75" r="1.46"/><rect class="cls-3" x="11.09" y="11.77" width="41.82" height="25.41" rx="2.77"/><circle class="cls-2" cx="32" cy="24.47" r="7.45"/><circle class="cls-2" cx="16.29" cy="31.96" r="1.46"/><circle class="cls-2" cx="47.71" cy="16.99" r="1.46"/><rect class="cls-1" x="11.09" y="8.01" width="41.82" height="25.41" rx="2.77"/><circle class="cls-3" cx="32" cy="20.71" r="7.45" transform="translate(6.43 48.98) rotate(-80.78)"/><circle class="cls-2" cx="16.29" cy="28.19" r="1.46"/><circle class="cls-2" cx="47.71" cy="13.23" r="1.46"/></svg>