<svg id="Layer_1" data-name="Layer 1" xmlns="http://www.w3.org/2000/svg" viewBox="0 0 64 64"><defs><style>.cls-1{fill:#F4DFDF;}.cls-2{fill:#FC0707;}.cls-3{fill:#DD1515;}.cls-4{fill:#e5cccc;}</style></defs><title>marketing, content marketing, digital marketing, strategy, browser, settings</title><rect class="cls-1" x="8" y="11.44" width="48" height="41.13" rx="4.09"/><path class="cls-2" d="M51.91,11.44H12.09A4.09,4.09,0,0,0,8,15.53v1.91H56V15.53A4.09,4.09,0,0,0,51.91,11.44Z"/><rect class="cls-3" x="12.66" y="13.82" width="1.23" height="1.23"/><rect class="cls-3" x="15.19" y="13.82" width="1.23" height="1.23"/><rect class="cls-3" x="17.71" y="13.82" width="1.23" height="1.23"/><rect class="cls-3" x="8" y="17.44" width="48" height="0.65"/><path class="cls-4" d="M56,20.88H10.79A2.79,2.79,0,0,1,8,18.08H56Z"/><path class="cls-2" d="M48.5,40.48,46.15,36.4a2.18,2.18,0,0,0-2.56-1l-1.22.39a2.16,2.16,0,0,1-1.91-.28A14.66,14.66,0,0,0,38,34.09a2.15,2.15,0,0,1-1.22-1.51l-.27-1.26a2.17,2.17,0,0,0-2.12-1.73H29.64a2.17,2.17,0,0,0-2.12,1.73l-.27,1.26A2.15,2.15,0,0,1,26,34.09a14.66,14.66,0,0,0-2.49,1.44,2.16,2.16,0,0,1-1.91.28l-1.22-.39a2.18,2.18,0,0,0-2.56,1L15.5,40.48a2.17,2.17,0,0,0,.43,2.71l.94.85a2.21,2.21,0,0,1,.71,1.87,12.48,12.48,0,0,0-.08,1.38h29a12.48,12.48,0,0,0-.08-1.38A2.21,2.21,0,0,1,47.13,44l.94-.85A2.17,2.17,0,0,0,48.5,40.48Z"/><path class="cls-3" d="M32,42.13a5.16,5.16,0,0,0-5.16,5.16H37.16A5.16,5.16,0,0,0,32,42.13Z"/></svg>