<svg id="Layer_1" data-name="Layer 1" xmlns="http://www.w3.org/2000/svg" viewBox="0 0 64 64"><defs><style>.cls-1{fill:#dfe8f4;}.cls-2{fill:#ccd8e5;}.cls-3{fill:#ff5454;}.cls-4{fill:#dd1515;}.cls-5{fill:#fff;}</style></defs><title>marketing, content marketing, digital marketing, strategy, confirm, complete</title><circle class="cls-1" cx="41" cy="41" r="15"/><path class="cls-2" d="M38.84,45,36.36,42.5a1.81,1.81,0,0,1-.26-2.32A1.75,1.75,0,0,1,38.77,40l.84.84,3.54-3.54A1.83,1.83,0,0,1,45.47,37a1.75,1.75,0,0,1,.22,2.67L40.39,45A1.09,1.09,0,0,1,38.84,45Z"/><circle class="cls-3" cx="23" cy="23" r="15"/><path class="cls-4" d="M26.4,37.6A15,15,0,0,0,37.6,26.4,15,15,0,0,0,26.4,37.6Z"/><path class="cls-5" d="M20.84,27,18.36,24.5a1.81,1.81,0,0,1-.26-2.32A1.75,1.75,0,0,1,20.77,22l.84.84,3.54-3.54A1.83,1.83,0,0,1,27.47,19a1.75,1.75,0,0,1,.22,2.67L22.39,27A1.09,1.09,0,0,1,20.84,27Z"/></svg>