<svg id="Layer_1" data-name="Layer 1" xmlns="http://www.w3.org/2000/svg" viewBox="0 0 64 64"><defs><style>.cls-1{fill:#F4DFDF;}.cls-2{fill:#FC0707;}.cls-3{fill:#DD1515;}</style></defs><title>marketing, content marketing, digital marketing, strategy, smartphone, cloud, transfer</title><path class="cls-1" d="M39.83,19.13a7.54,7.54,0,0,1-3.21-3.79,11.37,11.37,0,0,0-21.26,0,7.54,7.54,0,0,1-3.21,3.79A8.49,8.49,0,0,0,8,26.43H8a8.49,8.49,0,0,0,8.5,8.49h19A8.49,8.49,0,0,0,44,26.43h0A8.47,8.47,0,0,0,39.83,19.13Z"/><path class="cls-2" d="M42,39.84V53.2a2.76,2.76,0,0,0,.06.57H55.94A2.76,2.76,0,0,0,56,53.2V39.84a2.62,2.62,0,0,0-.06-.57H42.06A2.62,2.62,0,0,0,42,39.84Z"/><path class="cls-3" d="M55.94,39.27a2.62,2.62,0,0,1,.06.57A2.81,2.81,0,0,0,53.2,37H44.8A2.81,2.81,0,0,0,42,39.84a2.62,2.62,0,0,1,.06-.57Z"/><path class="cls-3" d="M42.06,53.77A2.76,2.76,0,0,1,42,53.2,2.81,2.81,0,0,0,44.8,56h8.4A2.81,2.81,0,0,0,56,53.2a2.76,2.76,0,0,1-.06.57Z"/><path class="cls-2" d="M39,49a.65.65,0,0,0-.66-.66h-1.8c-3.64,0-6.6-1.26-6.6-4.9h1.68a.37.37,0,0,0,.24-.64L26,37.83a.6.6,0,0,0-1,.46v5.1a9.16,9.16,0,0,0,9.17,9.17h4.07A.65.65,0,0,0,39,51.9Z"/></svg>