<svg id="Layer_1" data-name="Layer 1" xmlns="http://www.w3.org/2000/svg" viewBox="0 0 64 64"><defs><style>.cls-1{fill:#FC0707;}.cls-2{fill:#fff;}</style></defs><title>marketing, content marketing, digital marketing, strategy, options, cloud</title><path class="cls-1" d="M50.46,26.93a10.12,10.12,0,0,1-4.28-5.05,15.16,15.16,0,0,0-28.36,0,10.12,10.12,0,0,1-4.28,5.05A11.32,11.32,0,0,0,8,36.67H8A11.33,11.33,0,0,0,19.33,48H44.67A11.33,11.33,0,0,0,56,36.67h0A11.32,11.32,0,0,0,50.46,26.93Z"/><path class="cls-2" d="M25.35,36.34a1.43,1.43,0,1,1-1.43-1.42A1.43,1.43,0,0,1,25.35,36.34Z"/><path class="cls-2" d="M33.43,36.34A1.43,1.43,0,1,1,32,34.92,1.43,1.43,0,0,1,33.43,36.34Z"/><path class="cls-2" d="M41.5,36.34a1.43,1.43,0,1,1-1.42-1.42A1.42,1.42,0,0,1,41.5,36.34Z"/></svg>