<svg id="Layer_1" data-name="Layer 1" xmlns="http://www.w3.org/2000/svg" viewBox="0 0 64 64"><defs><style>.cls-1{fill:#ff5454;}.cls-2{fill:#dfe8f4;}.cls-3{fill:#dd1515;}</style></defs><title>marketing, content marketing, digital marketing, strategy, transfer, smartphone</title><path class="cls-1" d="M27.94,56h7.93C47,56,56,51,56,39.87v-9a1,1,0,0,0-1.73-.8L44.11,38.75a.64.64,0,0,0,.41,1.12h3c0,6.4-5.21,8.61-11.61,8.61H30.71c-2.46,0-4.45,1-4.45,3.45v2.39A1.68,1.68,0,0,0,27.94,56Z"/><path class="cls-1" d="M36.06,8H28.13C17,8,8,13,8,24.13v9a1,1,0,0,0,1.73.8l10.16-8.66a.64.64,0,0,0-.41-1.12h-3c0-6.4,5.21-8.61,11.61-8.61h5.16c2.46,0,4.45-1,4.45-3.45V9.68A1.68,1.68,0,0,0,36.06,8Z"/><path class="cls-2" d="M8,39.84V53.2a2.76,2.76,0,0,0,.06.57H21.94A2.76,2.76,0,0,0,22,53.2V39.84a2.62,2.62,0,0,0-.06-.57H8.06A2.62,2.62,0,0,0,8,39.84Z"/><path class="cls-3" d="M21.94,39.27a2.62,2.62,0,0,1,.06.57A2.81,2.81,0,0,0,19.2,37H10.8A2.81,2.81,0,0,0,8,39.84a2.62,2.62,0,0,1,.06-.57Z"/><path class="cls-3" d="M8.06,53.77A2.76,2.76,0,0,1,8,53.2,2.81,2.81,0,0,0,10.8,56h8.4A2.81,2.81,0,0,0,22,53.2a2.76,2.76,0,0,1-.06.57Z"/><path class="cls-2" d="M42,10.8V24.16a2.62,2.62,0,0,0,.06.57H55.94a2.62,2.62,0,0,0,.06-.57V10.8a2.76,2.76,0,0,0-.06-.57H42.06A2.76,2.76,0,0,0,42,10.8Z"/><path class="cls-3" d="M55.94,10.23a2.76,2.76,0,0,1,.06.57A2.81,2.81,0,0,0,53.2,8H44.8A2.81,2.81,0,0,0,42,10.8a2.76,2.76,0,0,1,.06-.57Z"/><path class="cls-3" d="M42.06,24.73a2.62,2.62,0,0,1-.06-.57A2.81,2.81,0,0,0,44.8,27h8.4A2.81,2.81,0,0,0,56,24.16a2.62,2.62,0,0,1-.06.57Z"/></svg>