<svg id="Layer_1" data-name="Layer 1" xmlns="http://www.w3.org/2000/svg" viewBox="0 0 64 64"><defs><style>.cls-1{fill:#ff5454;}.cls-2{fill:#dd1515;}.cls-3{fill:#dfe8f4;}.cls-4{fill:#ccd8e5;}</style></defs><title>marketing, content marketing, digital marketing, strategy, payment, money</title><rect class="cls-1" x="12.25" y="8" width="39.5" height="24" rx="2.62"/><circle class="cls-2" cx="32" cy="20" r="7.04"/><circle class="cls-2" cx="17.16" cy="27.07" r="1.38"/><circle class="cls-2" cx="46.84" cy="12.93" r="1.38"/><path class="cls-3" d="M46.81,38.94,45.65,32H34.56v6.55a.87.87,0,0,1-.87.86h0a.87.87,0,0,1-.86-.86V30.66a1.7,1.7,0,0,0-1.7-1.7h0a3.82,3.82,0,0,0-3.82,3.81V44.41A12.26,12.26,0,0,0,30,52.05h0a6.35,6.35,0,0,1,1.38,4H44.93V53.2a24.67,24.67,0,0,1,.69-5.8l1.05-4.33A10.45,10.45,0,0,0,46.81,38.94Z"/><polygon class="cls-4" points="45.92 33.69 45.65 32.04 34.56 32.04 34.56 33.69 45.92 33.69"/></svg>