<svg id="Layer_1" data-name="Layer 1" xmlns="http://www.w3.org/2000/svg" viewBox="0 0 64 64"><defs><style>.cls-1{fill:#dfe8f4;}.cls-2{fill:#ff5454;}.cls-3{fill:#dd1515;}.cls-4{fill:#ccd8e5;}.cls-5{fill:#fff;}</style></defs><title>marketing, content marketing, digital marketing, strategy, bookmark, star, browser</title><rect class="cls-1" x="8" y="11.44" width="48" height="41.13" rx="4.09"/><path class="cls-2" d="M51.91,11.44H12.09A4.09,4.09,0,0,0,8,15.53v1.91H56V15.53A4.09,4.09,0,0,0,51.91,11.44Z"/><rect class="cls-3" x="12.66" y="13.82" width="1.23" height="1.23"/><rect class="cls-3" x="15.19" y="13.82" width="1.23" height="1.23"/><rect class="cls-3" x="17.71" y="13.82" width="1.23" height="1.23"/><rect class="cls-3" x="8" y="17.44" width="48" height="0.65"/><path class="cls-4" d="M56,20.88H10.79A2.79,2.79,0,0,1,8,18.08H56Z"/><path class="cls-5" d="M32.94,26.37l1.75,3.54a1.07,1.07,0,0,0,.79.58l3.92.57A1,1,0,0,1,40,32.85l-2.83,2.76a1,1,0,0,0-.3.93l.66,3.9A1,1,0,0,1,36,41.55l-3.5-1.84a1.06,1.06,0,0,0-1,0L28,41.55a1,1,0,0,1-1.52-1.11l.66-3.9a1,1,0,0,0-.3-.93L24,32.85a1,1,0,0,1,.58-1.79l3.92-.57a1.07,1.07,0,0,0,.79-.58l1.75-3.54A1,1,0,0,1,32.94,26.37Z"/></svg>