<svg id="Layer_1" data-name="Layer 1" xmlns="http://www.w3.org/2000/svg" viewBox="0 0 64 64"><defs><style>.cls-1{fill:#F4DFDF;}.cls-2{fill:#FC0707;}.cls-3{fill:#fff;}</style></defs><title>marketing, content marketing, digital marketing, strategy, eye, money, finance</title><path class="cls-1" d="M32,20.07A31.72,31.72,0,0,0,8.68,30.26a2.56,2.56,0,0,0,0,3.48,31.78,31.78,0,0,0,46.64,0,2.56,2.56,0,0,0,0-3.48A31.72,31.72,0,0,0,32,20.07Z"/><circle class="cls-2" cx="32" cy="32" r="9.81"/><path class="cls-3" d="M32.06,30.75a1.25,1.25,0,0,1-1.23-1A1.19,1.19,0,0,1,32,28.38,1.2,1.2,0,0,1,33,29a1.2,1.2,0,0,0,1.06.59h0a1.23,1.23,0,0,0,1.11-1.81,3.68,3.68,0,0,0-2-1.65h0a1.16,1.16,0,0,0-1.16-1.16h-.18a1.16,1.16,0,0,0-1.16,1.16h0a3.71,3.71,0,0,0-2.12,5,3.77,3.77,0,0,0,3.43,2.15A1.19,1.19,0,0,1,32,35.62,1.2,1.2,0,0,1,31,35a1.2,1.2,0,0,0-1.06-.59h0a1.23,1.23,0,0,0-1.11,1.81,3.68,3.68,0,0,0,1.95,1.65h0a1.16,1.16,0,0,0,1.16,1.16h.18a1.16,1.16,0,0,0,1.16-1.16h0a3.68,3.68,0,0,0-1.19-7.15Z"/></svg>