<svg id="Layer_1" data-name="Layer 1" xmlns="http://www.w3.org/2000/svg" viewBox="0 0 64 64"><defs><style>.cls-1{fill:#F4DFDF;}.cls-2{fill:#fff;}.cls-3{fill:#DD1515;}.cls-4{fill:#FC0707;}</style></defs><title>marketing, content marketing, digital marketing, strategy, analytics, statistics, magnifier</title><path class="cls-1" d="M55.14,55.11a3.67,3.67,0,0,1-5.2,0L38.78,44A3.68,3.68,0,0,1,44,38.76L55.14,49.91A3.67,3.67,0,0,1,55.14,55.11Z"/><path class="cls-2" d="M19.65,39.62a14.26,14.26,0,1,1,17.36,0A14.28,14.28,0,0,1,19.65,39.62Z"/><path class="cls-1" d="M55.07,49.84l-8.15-8.15A3.08,3.08,0,0,1,46.43,38a20.55,20.55,0,1,0-8.37,8.38,3.08,3.08,0,0,1,3.66.49l8.22,8.21a3.68,3.68,0,0,0,5.69-.59A3.75,3.75,0,0,0,55.07,49.84ZM19.65,39.62a14.26,14.26,0,1,1,17.36,0A14.28,14.28,0,0,1,19.65,39.62Z"/><path class="cls-3" d="M51.64,46.41l-5.21,5.2,3.51,3.5a3.68,3.68,0,0,0,5.2-5.2Z"/><path class="cls-3" d="M18.67,38.76c.31.29.63.58,1,.86a13.83,13.83,0,0,0,4.43,2.28V32.46a.45.45,0,0,0-.46-.46h-4.5a.45.45,0,0,0-.45.46Z"/><path class="cls-4" d="M25.63,42.29a14.47,14.47,0,0,0,5.41,0V22.45a.46.46,0,0,0-.46-.46h-4.5a.46.46,0,0,0-.45.46Z"/><path class="cls-3" d="M32.59,41.9A13.78,13.78,0,0,0,37,39.62c.35-.28.67-.57,1-.86V28.46a.45.45,0,0,0-.46-.46H33.05a.45.45,0,0,0-.46.46Z"/></svg>