<svg id="Layer_1" data-name="Layer 1" xmlns="http://www.w3.org/2000/svg" viewBox="0 0 64 64"><defs><style>.cls-1{fill:#dfe8f4;}.cls-2{fill:#ff5454;}.cls-3{fill:#dd1515;}.cls-4{fill:#ccd8e5;}.cls-5{fill:#fff;}</style></defs><title>marketing, content marketing, digital marketing, strategy, bookmark, browser</title><rect class="cls-1" x="8" y="11.44" width="48" height="41.13" rx="4.09"/><path class="cls-2" d="M51.91,11.44H12.09A4.09,4.09,0,0,0,8,15.53v1.91H56V15.53A4.09,4.09,0,0,0,51.91,11.44Z"/><rect class="cls-3" x="12.66" y="13.82" width="1.23" height="1.23"/><rect class="cls-3" x="15.19" y="13.82" width="1.23" height="1.23"/><rect class="cls-3" x="17.71" y="13.82" width="1.23" height="1.23"/><rect class="cls-3" x="8" y="17.44" width="48" height="0.65"/><path class="cls-4" d="M56,20.88H10.79A2.79,2.79,0,0,1,8,18.08H56Z"/><path class="cls-4" d="M49.59,26.11l2.1,2.1a.44.44,0,0,0,.75-.31V19.51H46.12V27.9a.44.44,0,0,0,.75.31l2.1-2.1A.44.44,0,0,1,49.59,26.11Z"/><path class="cls-5" d="M39.75,28.34a5.35,5.35,0,0,0-7.29.39l-.46.46-.46-.46a5.35,5.35,0,0,0-7.29-.39,5.14,5.14,0,0,0-.2,7.47L31.27,43a1,1,0,0,0,1.46,0L40,35.81A5.14,5.14,0,0,0,39.75,28.34Z"/><path class="cls-3" d="M47.84,24.36l2.1,2.1a.44.44,0,0,0,.75-.31V17.76H44.37v8.39a.44.44,0,0,0,.75.31l2.1-2.1A.44.44,0,0,1,47.84,24.36Z"/></svg>