<svg id="Layer_1" data-name="Layer 1" xmlns="http://www.w3.org/2000/svg" viewBox="0 0 64 64"><defs><style>.cls-1{fill:#FC0707;}.cls-2{fill:#F4DFDF;}.cls-3{fill:#DD1515;}</style></defs><title>marketing, content marketing, digital marketing, strategy, star, user, account</title><path class="cls-1" d="M37.36,15.75V13.36a5.34,5.34,0,0,0-2.68-4.64h0a5.35,5.35,0,0,0-5.36,0h0a5.34,5.34,0,0,0-2.68,4.64v2.39A4.71,4.71,0,0,0,29,19.82h0a6,6,0,0,0,6,0h0A4.71,4.71,0,0,0,37.36,15.75Z"/><path class="cls-1" d="M42.67,37.75H21.33a1,1,0,0,1-1-1V33.89A11.72,11.72,0,0,1,32,22.17h0A11.72,11.72,0,0,1,43.72,33.89v2.82A1,1,0,0,1,42.67,37.75Z"/><path class="cls-2" d="M8.25,41.73l5.82,5.82a.84.84,0,0,1,0,1.19L8.25,54.56A.84.84,0,0,0,8.84,56H55.16a.84.84,0,0,0,.59-1.44l-5.82-5.82a.84.84,0,0,1,0-1.19l5.82-5.82a.84.84,0,0,0-.59-1.44H8.84A.84.84,0,0,0,8.25,41.73Z"/><path class="cls-3" d="M32.53,44l1,2a.59.59,0,0,0,.45.33l2.19.32a.58.58,0,0,1,.33,1L34.89,49.2a.6.6,0,0,0-.17.52l.38,2.19a.59.59,0,0,1-.86.62l-2-1a.57.57,0,0,0-.54,0l-2,1a.59.59,0,0,1-.86-.62l.38-2.19a.6.6,0,0,0-.17-.52l-1.59-1.55a.58.58,0,0,1,.33-1L30,46.33a.59.59,0,0,0,.45-.33l1-2A.59.59,0,0,1,32.53,44Z"/></svg>