<svg id="Layer_1" data-name="Layer 1" xmlns="http://www.w3.org/2000/svg" viewBox="0 0 64 64"><defs><style>.cls-1{fill:#F4DFDF;}.cls-2{fill:#fff;}.cls-3{fill:#FC0707;}.cls-4{fill:#DD1515;}.cls-5{fill:#e5cccc;}</style></defs><title>marketing, content marketing, digital marketing, strategy, money, finance, raise</title><circle class="cls-1" cx="17.8" cy="29.4" r="9.8" transform="translate(-14.9 39.97) rotate(-76.72)"/><path class="cls-2" d="M17.84,28.52a.85.85,0,0,1-.86-.67.84.84,0,0,1,.82-1,.82.82,0,0,1,.72.42.86.86,0,0,0,.75.42h0a.87.87,0,0,0,.78-1.28,2.61,2.61,0,0,0-1.37-1.16h0a.82.82,0,0,0-.82-.82h-.12a.82.82,0,0,0-.82.82h0a2.61,2.61,0,0,0-1.49,3.52,2.65,2.65,0,0,0,2.41,1.51.84.84,0,0,1,0,1.67.82.82,0,0,1-.72-.42.88.88,0,0,0-.75-.42h0a.87.87,0,0,0-.78,1.28,2.61,2.61,0,0,0,1.37,1.16h0a.82.82,0,0,0,.82.82h.12a.82.82,0,0,0,.82-.82h0a2.59,2.59,0,0,0-.84-5Z"/><path class="cls-1" d="M17.52,8.13,13.9,12.54a.37.37,0,0,0,.29.6H15a.36.36,0,0,1,.36.36v2.56a.79.79,0,0,0,.79.79h3.22a.8.8,0,0,0,.79-.79V13.5a.36.36,0,0,1,.36-.36h.85a.37.37,0,0,0,.29-.6L18.08,8.13A.37.37,0,0,0,17.52,8.13Z"/><circle class="cls-3" cx="32" cy="42.06" r="13.94"/><path class="cls-4" d="M36.43,28.86v5a8.19,8.19,0,0,0,8.19,8.19h1.32A13.93,13.93,0,0,0,36.43,28.86Z"/><path class="cls-2" d="M32.06,40.81a1.25,1.25,0,0,1-1.23-1A1.19,1.19,0,0,1,32,38.44,1.2,1.2,0,0,1,33,39a1.21,1.21,0,0,0,1.06.6h0a1.24,1.24,0,0,0,1.11-1.82,3.68,3.68,0,0,0-2-1.65h0A1.16,1.16,0,0,0,32.09,35h-.18a1.16,1.16,0,0,0-1.16,1.16h0a3.71,3.71,0,0,0-2.12,5,3.77,3.77,0,0,0,3.43,2.15A1.19,1.19,0,1,1,31,45.09a1.22,1.22,0,0,0-1.06-.59h0a1.24,1.24,0,0,0-1.11,1.82A3.71,3.71,0,0,0,30.75,48h0a1.16,1.16,0,0,0,1.16,1.16h.18A1.16,1.16,0,0,0,33.25,48h0a3.68,3.68,0,0,0-1.19-7.15Z"/><path class="cls-3" d="M31.6,11.82l-5.14,6.27a.52.52,0,0,0,.4.85h1.22a.51.51,0,0,1,.51.51v3.63a1.13,1.13,0,0,0,1.12,1.13h4.58a1.13,1.13,0,0,0,1.12-1.13V19.45a.51.51,0,0,1,.51-.51h1.22a.52.52,0,0,0,.4-.85L32.4,11.82A.51.51,0,0,0,31.6,11.82Z"/><circle class="cls-1" cx="46.2" cy="29.4" r="9.8" transform="translate(-7.26 41.28) rotate(-45)"/><path class="cls-2" d="M46.24,28.52a.87.87,0,0,1-.86-.67.84.84,0,0,1,.82-1,.82.82,0,0,1,.72.42.88.88,0,0,0,.75.42h0a.87.87,0,0,0,.78-1.28,2.61,2.61,0,0,0-1.37-1.16h0a.82.82,0,0,0-.82-.82h-.12a.82.82,0,0,0-.82.82h0a2.61,2.61,0,0,0-1.49,3.52,2.65,2.65,0,0,0,2.41,1.51.84.84,0,0,1,0,1.67.82.82,0,0,1-.72-.42.86.86,0,0,0-.75-.42h0A.87.87,0,0,0,44,32.39a2.61,2.61,0,0,0,1.37,1.16h0a.82.82,0,0,0,.82.82h.12a.82.82,0,0,0,.82-.82h0a2.59,2.59,0,0,0-.84-5Z"/><path class="cls-4" d="M45.92,8.13,42.3,12.54a.37.37,0,0,0,.29.6h.85a.36.36,0,0,1,.36.36v2.56a.8.8,0,0,0,.79.79h3.22a.79.79,0,0,0,.79-.79V13.5a.36.36,0,0,1,.36-.36h.85a.37.37,0,0,0,.29-.6L46.48,8.13A.37.37,0,0,0,45.92,8.13Z"/><path class="cls-5" d="M36.43,28.86c0,.18,0,.36,0,.54a9.79,9.79,0,0,0,9.23,9.77A13.93,13.93,0,0,0,36.43,28.86Z"/></svg>