<svg id="Layer_1" data-name="Layer 1" xmlns="http://www.w3.org/2000/svg" viewBox="0 0 64 64"><defs><style>.cls-1{fill:#F4DFDF;}.cls-2{fill:#e5cccc;}.cls-3{fill:#FC0707;}.cls-4{fill:#fff;}</style></defs><title>marketing, content marketing, digital marketing, strategy, thought, finance, money</title><path class="cls-1" d="M38.89,8H37.23a17.05,17.05,0,0,0-17,17.06v9a1.57,1.57,0,0,0,1.57,1.58h0a.73.73,0,0,1,.73.73V44A5.52,5.52,0,0,0,28,49.5h2.43a.88.88,0,0,1,.78,1.3L28.48,56H55.9V49.5H56V25.06A17.06,17.06,0,0,0,38.89,8Z"/><path class="cls-2" d="M42.63,49.5H30.43a.88.88,0,0,1,.78,1.3L28.48,56H51.25a1.41,1.41,0,0,0,1-2.39h0A13.34,13.34,0,0,0,42.63,49.5Z"/><circle class="cls-3" cx="38.06" cy="25.3" r="9.81"/><path class="cls-4" d="M38.12,24.05a1.22,1.22,0,0,1-1.22-1,1.18,1.18,0,0,1,2.19-.81,1.23,1.23,0,0,0,1.06.59h0a1.25,1.25,0,0,0,1.12-1.82,3.79,3.79,0,0,0-2-1.65h0a1.16,1.16,0,0,0-1.16-1.16H38a1.16,1.16,0,0,0-1.17,1.16h0a3.71,3.71,0,0,0-2.12,5,3.8,3.8,0,0,0,3.43,2.16,1.19,1.19,0,0,1-.06,2.37,1.16,1.16,0,0,1-1-.6A1.24,1.24,0,0,0,36,27.74h0a1.24,1.24,0,0,0-1.11,1.82,3.71,3.71,0,0,0,2,1.64h0A1.17,1.17,0,0,0,38,32.37h.17a1.16,1.16,0,0,0,1.16-1.17h0a3.68,3.68,0,0,0-1.19-7.15Z"/></svg>