<svg id="Layer_1" data-name="Layer 1" xmlns="http://www.w3.org/2000/svg" viewBox="0 0 64 64"><defs><style>.cls-1{fill:#e5cccc;}.cls-2{fill:#F4DFDF;}.cls-3{fill:#FC0707;}.cls-4{fill:#DD1515;}</style></defs><title>marketing, content marketing, digital marketing, strategy, message, smartphone</title><rect class="cls-1" x="8" y="8" width="30.67" height="48" rx="5.39"/><path class="cls-2" d="M13.39,8A5.39,5.39,0,0,0,8,13.39V50.61a5.37,5.37,0,0,0,3.66,5.08A5.46,5.46,0,0,1,11.35,54V33.69a2,2,0,0,0-2-2h0V30.58h0a2,2,0,0,0,2-2V14A2.66,2.66,0,0,1,14,11.35H26.37L28,8Z"/><path class="cls-3" d="M33.28,8H13.39A5.39,5.39,0,0,0,8,13.39V50.61A5.39,5.39,0,0,0,13.39,56H33.28a5.39,5.39,0,0,0,5.39-5.39V13.39A5.39,5.39,0,0,0,33.28,8Zm3.39,42.61A3.39,3.39,0,0,1,33.28,54H13.39A3.39,3.39,0,0,1,10,50.61V13.39A3.39,3.39,0,0,1,13.39,10H15.9a1.82,1.82,0,0,1,1.42.67h0a1.84,1.84,0,0,0,1.42.66h9.19a1.84,1.84,0,0,0,1.41-.66h0A1.82,1.82,0,0,1,30.76,10h2.52a3.39,3.39,0,0,1,3.39,3.39Z"/><rect class="cls-4" x="32" y="21.75" width="24" height="17.25" rx="1.88"/><path class="cls-4" d="M36.67,36.1v6.24a.2.2,0,0,0,.34.14l6.07-6.38Z"/><path class="cls-1" d="M39.73,30.38a.73.73,0,0,1-.73.72.73.73,0,0,1,0-1.45A.73.73,0,0,1,39.73,30.38Z"/><path class="cls-1" d="M44.72,30.38a.72.72,0,1,1-.72-.73A.72.72,0,0,1,44.72,30.38Z"/><circle class="cls-1" cx="49" cy="30.38" r="0.72"/></svg>