<svg id="Layer_1" data-name="Layer 1" xmlns="http://www.w3.org/2000/svg" viewBox="0 0 64 64"><defs><style>.cls-1{fill:#F4DFDF;}.cls-2{fill:#e5cccc;}.cls-3{fill:#FC0707;}.cls-4{fill:#DD1515;}</style></defs><title>marketing, content marketing, digital marketing, strategy, settings, smartphone</title><rect class="cls-1" x="8.25" y="8" width="30.67" height="48" rx="5.39"/><path class="cls-2" d="M38.91,37H27.62v7.07A2.88,2.88,0,0,0,30.5,47h8.41Z"/><path class="cls-1" d="M13.64,8a5.39,5.39,0,0,0-5.39,5.39V50.61a5.37,5.37,0,0,0,3.66,5.08A5.19,5.19,0,0,1,11.6,54V33.69a2,2,0,0,0-2-2h0V30.58h0a2,2,0,0,0,2-2V14a2.66,2.66,0,0,1,2.66-2.66H26.61L28.2,8Z"/><path class="cls-3" d="M33.52,8H13.64a5.39,5.39,0,0,0-5.39,5.39V50.61A5.39,5.39,0,0,0,13.64,56H33.52a5.39,5.39,0,0,0,5.39-5.39V13.39A5.39,5.39,0,0,0,33.52,8Zm3.39,42.61A3.39,3.39,0,0,1,33.52,54H13.64a3.39,3.39,0,0,1-3.39-3.39V13.39A3.39,3.39,0,0,1,13.64,10h2.51a1.82,1.82,0,0,1,1.42.67h0a1.84,1.84,0,0,0,1.42.66h9.18a1.84,1.84,0,0,0,1.42-.66h0A1.82,1.82,0,0,1,31,10h2.51a3.39,3.39,0,0,1,3.39,3.39Z"/><path class="cls-4" d="M54.06,32A11.46,11.46,0,0,0,54,30.83a1.85,1.85,0,0,1,.59-1.57l.8-.73a1.83,1.83,0,0,0,.36-2.29l-2-3.44A1.82,1.82,0,0,0,51.6,22l-1,.33A1.78,1.78,0,0,1,49,22.05a13,13,0,0,0-2.11-1.21,1.79,1.79,0,0,1-1-1.28l-.23-1.06A1.84,1.84,0,0,0,43.79,17h-4A1.84,1.84,0,0,0,38,18.5l-.23,1.06a1.78,1.78,0,0,1-1,1.28,12.55,12.55,0,0,0-2.11,1.21A1.8,1.8,0,0,1,33,22.3L32,22a1.83,1.83,0,0,0-2.16.83l-2,3.44a1.85,1.85,0,0,0,.36,2.29l.81.73a1.85,1.85,0,0,1,.59,1.57A11.46,11.46,0,0,0,29.55,32a11.31,11.31,0,0,0,.06,1.17A1.84,1.84,0,0,1,29,34.74l-.81.73a1.85,1.85,0,0,0-.36,2.29l2,3.44A1.83,1.83,0,0,0,32,42l1-.33a1.83,1.83,0,0,1,1.62.25,11.55,11.55,0,0,0,2.11,1.21,1.81,1.81,0,0,1,1,1.28L38,45.5A1.84,1.84,0,0,0,39.81,47h4a1.84,1.84,0,0,0,1.8-1.46l.23-1.06a1.83,1.83,0,0,1,1-1.28A12.26,12.26,0,0,0,49,42a1.83,1.83,0,0,1,1.62-.25l1,.33a1.82,1.82,0,0,0,2.16-.83l2-3.44a1.83,1.83,0,0,0-.36-2.29l-.8-.73A1.84,1.84,0,0,1,54,33.17,11.31,11.31,0,0,0,54.06,32Z"/><path class="cls-4" d="M38.91,17.28A1.83,1.83,0,0,0,38,18.5l-.23,1.06a1.78,1.78,0,0,1-1,1.28,12.55,12.55,0,0,0-2.11,1.21A1.8,1.8,0,0,1,33,22.3L32,22a1.83,1.83,0,0,0-2.16.83l-2,3.44a1.85,1.85,0,0,0,.36,2.29l.81.73a1.85,1.85,0,0,1,.59,1.57A11.46,11.46,0,0,0,29.55,32a11.31,11.31,0,0,0,.06,1.17A1.84,1.84,0,0,1,29,34.74l-.81.73a1.85,1.85,0,0,0-.36,2.29l2,3.44A1.83,1.83,0,0,0,32,42l1-.33a1.83,1.83,0,0,1,1.62.25,11.55,11.55,0,0,0,2.11,1.21,1.81,1.81,0,0,1,1,1.28L38,45.5a1.83,1.83,0,0,0,.9,1.22Z"/><path class="cls-3" d="M46.17,32a4.37,4.37,0,1,1-4.37-4.36A4.37,4.37,0,0,1,46.17,32Z"/></svg>