<svg id="Layer_1" data-name="Layer 1" xmlns="http://www.w3.org/2000/svg" viewBox="0 0 64 64"><defs><style>.cls-1{fill:#F4DFDF;}.cls-2{fill:#e5cccc;}.cls-3{fill:#FC0707;}.cls-4{fill:#DD1515;}</style></defs><title>marketing, content marketing, digital marketing, strategy, statistics, analytics, user</title><path class="cls-1" d="M49.45,15.53l-6.73,6.36a14.69,14.69,0,0,1,4,10.11H56A23.9,23.9,0,0,0,49.45,15.53Z"/><path class="cls-1" d="M32,15A17,17,0,1,1,15,32,17,17,0,0,1,32,15m0-7A24,24,0,1,0,56,32,24,24,0,0,0,32,8Z"/><path class="cls-2" d="M49,32c0,.46,0,.92-.07,1.38h7c0-.46,0-.92,0-1.38s0-.67,0-1H49C49,31.33,49,31.66,49,32Z"/><path class="cls-3" d="M32,8v7A17,17,0,0,1,49,32h7A24,24,0,0,0,32,8Z"/><path class="cls-4" d="M44.35,20.35A16.93,16.93,0,0,1,49,32h7a23.9,23.9,0,0,0-6.55-16.47Z"/><path class="cls-3" d="M35.86,27.35V26.07a3.88,3.88,0,0,0-1.93-3.34h0a3.91,3.91,0,0,0-3.86,0h0a3.88,3.88,0,0,0-1.93,3.34v1.28a3.39,3.39,0,0,0,1.7,2.93h0a4.33,4.33,0,0,0,4.32,0h0A3.39,3.39,0,0,0,35.86,27.35Z"/><path class="cls-3" d="M39.45,41.78H24.55a.34.34,0,0,1-.34-.34V40.07A7.79,7.79,0,0,1,32,32.28h0a7.79,7.79,0,0,1,7.79,7.79v1.37A.34.34,0,0,1,39.45,41.78Z"/></svg>