<svg id="Layer_1" data-name="Layer 1" xmlns="http://www.w3.org/2000/svg" viewBox="0 0 64 64"><defs><style>.cls-1{fill:#dfe8f4;}.cls-2{fill:#ccd8e5;}.cls-3{fill:#ff5454;}.cls-4{fill:#dd1515;}</style></defs><title>marketing, content marketing, digital marketing, strategy, statistics, analytics, settings</title><path class="cls-1" d="M14.55,48.47l6.73-6.36a14.69,14.69,0,0,1-4-10.11H8A23.9,23.9,0,0,0,14.55,48.47Z"/><path class="cls-1" d="M32,49A17,17,0,1,1,49,32,17,17,0,0,1,32,49m0,7A24,24,0,1,0,8,32,24,24,0,0,0,32,56Z"/><path class="cls-2" d="M15,32c0-.46,0-.92.07-1.38H8c0,.46,0,.92,0,1.38s0,.67,0,1h7C15,32.67,15,32.34,15,32Z"/><path class="cls-3" d="M32,56V49A17,17,0,0,1,15,32H8A24,24,0,0,0,32,56Z"/><path class="cls-4" d="M19.65,43.65A16.93,16.93,0,0,1,15,32H8a23.9,23.9,0,0,0,6.55,16.47Z"/><path class="cls-3" d="M42.48,32c0-.34,0-.67,0-1a1.59,1.59,0,0,1,.5-1.35l.69-.62a1.57,1.57,0,0,0,.31-2l-1.7-2.95a1.58,1.58,0,0,0-1.85-.71l-.88.28a1.57,1.57,0,0,1-1.38-.2,10.12,10.12,0,0,0-1.81-1,1.53,1.53,0,0,1-.87-1.1l-.2-.91a1.57,1.57,0,0,0-1.54-1.24H30.3a1.57,1.57,0,0,0-1.54,1.24l-.2.91a1.53,1.53,0,0,1-.87,1.1,10.12,10.12,0,0,0-1.81,1,1.57,1.57,0,0,1-1.38.2l-.88-.28a1.58,1.58,0,0,0-1.85.71l-1.7,2.95a1.57,1.57,0,0,0,.31,2l.69.62a1.59,1.59,0,0,1,.5,1.35c0,.33-.05.66-.05,1s0,.67.05,1a1.59,1.59,0,0,1-.5,1.35l-.69.62a1.57,1.57,0,0,0-.31,2l1.7,2.95a1.58,1.58,0,0,0,1.85.71l.88-.28a1.54,1.54,0,0,1,1.38.21,10.08,10.08,0,0,0,1.81,1,1.57,1.57,0,0,1,.87,1.1l.2.91a1.57,1.57,0,0,0,1.54,1.24h3.4a1.57,1.57,0,0,0,1.54-1.24l.2-.91a1.57,1.57,0,0,1,.87-1.1,10.08,10.08,0,0,0,1.81-1,1.54,1.54,0,0,1,1.38-.21l.88.28a1.58,1.58,0,0,0,1.85-.71l1.7-2.95a1.57,1.57,0,0,0-.31-2l-.69-.62a1.59,1.59,0,0,1-.5-1.35C42.46,32.67,42.48,32.34,42.48,32Z"/><circle class="cls-4" cx="32" cy="32" r="3.73"/></svg>