<svg id="Layer_1" data-name="Layer 1" xmlns="http://www.w3.org/2000/svg" viewBox="0 0 64 64"><defs><style>.cls-1{fill:#FC0707;}.cls-2{fill:#e5cccc;}.cls-3{fill:#F4DFDF;}.cls-4{fill:#fff;}.cls-5{fill:#DD1515;}</style></defs><title>marketing, content marketing, digital marketing, strategy, customer, man</title><path class="cls-1" d="M43.56,26.06H20.44V19.45A11.56,11.56,0,0,1,32,7.88h0A11.56,11.56,0,0,1,43.56,19.45Z"/><path class="cls-2" d="M21.65,22.31h3a0,0,0,0,1,0,0v5.05a0,0,0,0,1,0,0h-3a2,2,0,0,1-2-2v-1A2,2,0,0,1,21.65,22.31Z"/><path class="cls-2" d="M41.36,22.31h3a0,0,0,0,1,0,0v5.05a0,0,0,0,1,0,0h-3a2,2,0,0,1-2-2v-1A2,2,0,0,1,41.36,22.31Z" transform="translate(83.71 49.67) rotate(180)"/><path class="cls-1" d="M20.44,22.31H43.56a0,0,0,0,1,0,0v9.23a6.33,6.33,0,0,1-6.33,6.33H26.77a6.33,6.33,0,0,1-6.33-6.33V22.31A0,0,0,0,1,20.44,22.31Z"/><path class="cls-3" d="M37.33,14.08a10,10,0,0,0-10.66,0A10.37,10.37,0,0,0,22,22.91v6.9a4,4,0,0,0,2,3.43h0a.47.47,0,0,0,.7-.41V30.29a3.62,3.62,0,0,1,3.62-3.62h7.42a3.62,3.62,0,0,1,3.62,3.62v2.54a.47.47,0,0,0,.7.41h0a4,4,0,0,0,2-3.43v-6.9A10.37,10.37,0,0,0,37.33,14.08Z"/><path class="cls-1" d="M31.34,22.31h-10l2.23-9.85h11.6v6A3.8,3.8,0,0,1,31.34,22.31Z"/><path class="cls-1" d="M42.18,22.31H39a3.91,3.91,0,0,1-3.9-3.9V11.94l7,4.52Z"/><path class="cls-4" d="M28.69,29.1a.32.32,0,0,0-.32.37,3.7,3.7,0,0,0,7.26,0,.32.32,0,0,0-.32-.37Z"/><path class="cls-1" d="M52.94,56H11.06l2.39-11.93a4,4,0,0,1,4-3.24H46.59a4,4,0,0,1,4,3.24Z"/><path class="cls-3" d="M38.72,40.83H25.37l0,.11c2,6.43,11.31,6.43,13.29,0Z"/><path class="cls-5" d="M42,56a10.87,10.87,0,0,0-19.9,0Z"/></svg>