<svg width="36" height="35" viewBox="0 0 36 35" fill="none" xmlns="http://www.w3.org/2000/svg">
<path d="M21.2316 7.11027C21.2316 6.96369 21.1939 6.81915 21.1227 6.6925C21.0511 6.56515 20.9481 6.459 20.8247 6.38557L20.6204 6.26379V7.92082C20.759 7.88342 20.8866 7.80988 20.9912 7.70353C21.1461 7.54533 21.2316 7.33448 21.2316 7.11028L21.2316 7.11027Z" fill="#DC2434"/>
<path d="M17.9465 7.11028C17.9465 6.9638 17.9088 6.81926 17.8376 6.69251C17.7661 6.56516 17.6631 6.45911 17.5396 6.38558L17.3359 6.2641V7.92085C17.4745 7.88354 17.6018 7.81011 17.706 7.70366C17.8611 7.54575 17.9465 7.33511 17.9465 7.11031L17.9465 7.11028Z" fill="#DC2434"/>
<path d="M10.5085 15.7471C10.5085 16.0441 10.6645 16.3219 10.9156 16.4719L11.119 16.5931V14.9364C10.9804 14.9737 10.8531 15.0471 10.7489 15.1535C10.5939 15.3119 10.5086 15.5226 10.5086 15.747L10.5085 15.7471Z" fill="#DC2434"/>
<path d="M11.7888 17.5438L11.5854 17.4224V19.0796C11.7243 19.0423 11.8519 18.9689 11.9561 18.8625C12.1112 18.704 12.1966 18.4932 12.1966 18.2689C12.1966 18.1232 12.1588 17.9786 12.0873 17.8506C12.0164 17.7249 11.9131 17.6185 11.7888 17.5438H11.7888Z" fill="#DC2434"/>
<path d="M16.8694 3.77734C16.7304 3.81465 16.6029 3.88799 16.4992 3.99434C16.3438 4.15342 16.2583 4.36436 16.2583 4.58819C16.2583 4.88496 16.4144 5.16269 16.6656 5.31309L16.8694 5.43467L16.8694 3.77734Z" fill="#DC2434"/>
<path d="M35.0904 18.8443H26.9118C26.8497 18.8443 26.7894 18.8652 26.7406 18.9035C25.6313 19.7719 24.3326 20.0797 23.7568 20.1789V15.8582V15.8574C23.7568 15.6113 23.6805 15.3676 23.5344 15.1404C23.8688 14.8483 24.1756 14.4887 24.4479 14.0662C24.531 13.9373 24.4938 13.7654 24.3649 13.6823C24.236 13.5993 24.0641 13.6363 23.981 13.7654C23.6864 14.2226 23.3508 14.596 22.9825 14.8757C22.3156 15.386 21.7667 15.4296 21.499 15.3116C21.3382 15.2408 21.2475 15.1005 21.2295 14.8957C21.2274 14.8706 21.2264 14.8444 21.2264 14.8156C21.225 14.423 21.4202 13.8209 21.7235 13.2816C21.9664 12.8488 22.6348 11.8363 23.5941 11.7827C24.0963 11.7528 24.7158 12.0659 25.3829 12.6841C26.1263 13.3726 26.6741 14.2034 26.6795 14.2117C26.7308 14.2901 26.8183 14.3374 26.912 14.3374L35.0903 14.3373C35.2436 14.3373 35.368 14.2128 35.368 14.0595C35.368 13.9061 35.2436 13.7817 35.0903 13.7817L27.0587 13.7816C26.8968 13.55 26.5179 13.0355 26.019 12.5282C27.9266 11.2721 29.0978 9.11924 29.0978 6.82412C29.0978 3.06133 26.0368 0 22.2743 0C18.5113 0 15.4499 3.06133 15.4499 6.82441C15.4499 9.28432 16.7543 11.5103 18.8382 12.7213C18.364 12.8607 18.0208 13.1142 17.8553 13.462C17.747 13.6899 17.6439 14.1242 17.9666 14.7173C16.7208 13.6189 15.139 13.0189 13.4616 13.0189C9.69909 13.0189 6.63805 16.08 6.63805 19.8425C6.63805 22.1381 7.80938 24.2913 9.71688 25.5475C9.21798 26.0547 8.83926 26.5692 8.67724 26.8008H0.645929C0.492577 26.8008 0.368164 26.9253 0.368164 27.0786C0.368164 27.232 0.492577 27.3564 0.645929 27.3564H8.82453C8.91818 27.3564 9.00556 27.3091 9.05695 27.2307C9.06242 27.2224 9.61021 26.3916 10.3537 25.7031C11.0204 25.085 11.6397 24.7731 12.1423 24.8018C13.1015 24.8555 13.77 25.8679 14.013 26.3008C14.3162 26.8399 14.5113 27.442 14.51 27.8355C14.51 27.8633 14.5089 27.8895 14.5069 27.914C14.4888 28.1195 14.3981 28.2598 14.2372 28.3306C13.9695 28.4483 13.4207 28.4049 12.753 27.8943C12.3856 27.615 12.0499 27.2415 11.7553 26.7844C11.6722 26.6556 11.5004 26.6184 11.3714 26.7015C11.2425 26.7846 11.2052 26.9565 11.2884 27.0854C11.5608 27.5081 11.8676 27.8677 12.2019 28.1597C12.056 28.3869 11.9796 28.6307 11.9796 28.8774V33.1978C11.4037 33.0984 10.1051 32.7903 8.99589 31.9224C8.94713 31.8841 8.88674 31.8633 8.82476 31.8633L0.646166 31.8635C0.492814 31.8635 0.368401 31.9879 0.368401 32.1412C0.368401 32.2946 0.492814 32.419 0.646166 32.419H8.72997C10.0065 33.3854 11.4478 33.6827 12.0019 33.7654C12.1205 34.465 12.7292 35 13.4621 35C13.8583 35 14.2306 34.8459 14.5106 34.5658C14.724 34.3525 14.8637 34.0853 14.9184 33.7952H15.8517C16.7602 33.7952 17.1665 33.2699 17.2436 32.7786C17.297 32.4391 17.2051 32.1058 17.0149 31.8553C17.2868 31.6861 17.476 31.3989 17.5292 31.0391C17.5767 30.7174 17.5032 30.344 17.2738 30.0554C17.6647 29.883 17.9481 29.5604 18.0489 29.1389C18.16 28.6736 18.0074 28.2137 17.663 27.9142C18.1127 27.2318 18.0002 26.7316 17.881 26.4809C17.7157 26.1332 17.3727 25.8797 16.899 25.7403C18.7043 24.6899 19.937 22.8673 20.2225 20.7764H20.8183C20.873 21.0667 21.0127 21.3339 21.226 21.5473C21.5061 21.8272 21.8784 21.9814 22.2745 21.9814C23.0075 21.9814 23.6161 21.4463 23.7347 20.7467C24.2887 20.6641 25.73 20.3669 27.0066 19.4001L35.0904 19.4C35.2437 19.4 35.3682 19.2756 35.3682 19.1222C35.3682 18.9688 35.2437 18.8445 35.0904 18.8445L35.0904 18.8443ZM23.1196 4.26773C23.3495 4.03771 23.6398 3.89143 23.9543 3.83992V3.27846C23.9543 3.12511 24.0788 3.00069 24.2321 3.00069C24.3855 3.00069 24.5099 3.12511 24.5099 3.27846V3.84779C24.7459 3.89302 24.9687 3.99032 25.1643 4.13638C25.4436 4.34545 25.6433 4.63233 25.7422 4.96614C25.7858 5.11323 25.7018 5.26784 25.5549 5.31148C25.4075 5.355 25.253 5.27115 25.2095 5.12417C25.1447 4.90565 25.0141 4.71811 24.8316 4.58153C24.7336 4.50838 24.6248 4.45449 24.5099 4.41963V6.66444L25.0332 6.96978C25.2641 7.10434 25.4567 7.29849 25.5904 7.53113C25.7234 7.76309 25.794 8.02719 25.794 8.29515C25.794 8.7052 25.6344 9.09061 25.3445 9.38047C25.114 9.61015 24.8238 9.75645 24.5099 9.80793V10.3695C24.5099 10.5229 24.3854 10.6473 24.2321 10.6473C24.0787 10.6473 23.9543 10.5229 23.9543 10.3695V9.80052C23.3728 9.68955 22.8946 9.26549 22.722 8.6816C22.6785 8.53452 22.7625 8.3799 22.9097 8.3365C23.0563 8.29321 23.2113 8.37695 23.2548 8.52415C23.3569 8.8696 23.623 9.12889 23.9543 9.2287V6.98366L23.4309 6.67819C22.9616 6.40339 22.6703 5.89559 22.6703 5.35292C22.6704 4.94345 22.8299 4.55813 23.1195 4.26772L23.1196 4.26773ZM13.7399 22.8265V23.388C13.7399 23.5414 13.6155 23.6658 13.4621 23.6658C13.3088 23.6658 13.1844 23.5414 13.1844 23.388V22.8191C12.6028 22.7081 12.1247 22.284 11.952 21.7003C11.9084 21.5531 11.9924 21.3986 12.1395 21.355C12.2867 21.3117 12.4412 21.3955 12.4847 21.5426C12.5869 21.888 12.8529 22.1473 13.1842 22.2471V20.0018L12.6616 19.6966C12.1923 19.4224 11.901 18.9146 11.901 18.3714C11.901 17.9612 12.0606 17.5758 12.3505 17.2861C12.5802 17.0564 12.8701 16.9102 13.1843 16.8586V16.297C13.1843 16.1437 13.3088 16.0192 13.4621 16.0192C13.6155 16.0192 13.7399 16.1437 13.7399 16.297V16.8664C13.9759 16.9117 14.1987 17.009 14.3943 17.155C14.6738 17.3643 14.8735 17.6512 14.9722 17.9849C15.0157 18.132 14.9316 18.2866 14.7845 18.33C14.6375 18.3732 14.4828 18.2896 14.4394 18.1424C14.3749 17.9242 14.2443 17.7366 14.0616 17.5998C13.9636 17.5267 13.8548 17.4726 13.7399 17.4379V19.6826L14.2634 19.9883C14.4949 20.1245 14.6872 20.3183 14.8202 20.5491C14.9537 20.7833 15.024 21.0472 15.024 21.3135C15.024 21.7236 14.8644 22.109 14.5746 22.3988C14.3448 22.6287 14.0545 22.775 13.7399 22.8264L13.7399 22.8265ZM14.1178 34.1729C13.9427 34.348 13.7098 34.4444 13.4621 34.4444C12.9509 34.4444 12.5351 34.0285 12.5351 33.5173V29.8782C12.7222 30.0062 12.9582 30.1041 13.2457 30.1553C13.0794 30.4112 13.0026 30.728 13.0522 31.0492C13.1119 31.4359 13.3365 31.7322 13.6647 31.8917C13.4558 32.1691 13.3777 32.5138 13.4635 32.8629C13.5732 33.3098 13.9217 33.647 14.3572 33.7568C14.3158 33.9127 14.2348 34.056 14.1178 34.173L14.1178 34.1729ZM16.6947 32.6923C16.6402 33.04 16.3329 33.2397 15.8516 33.2397L14.667 33.2395C14.2946 33.2395 14.0652 32.9838 14.003 32.7304C13.9344 32.4514 14.0587 32.1908 14.3366 32.0229H16.3593C16.6191 32.129 16.7344 32.4395 16.6948 32.6923H16.6947ZM16.9793 30.9578C16.943 31.2041 16.7744 31.4672 16.41 31.4672H14.2642C13.7359 31.4672 13.6246 31.1156 13.6013 30.9644C13.5574 30.6802 13.6943 30.3217 14.0308 30.1949H16.5376C16.9008 30.3228 17.0224 30.666 16.9794 30.9578H16.9793ZM17.5083 29.0097C17.4356 29.3141 17.1547 29.6394 16.5842 29.6394H13.7155C13.0204 29.6394 12.535 29.3258 12.535 28.8763C12.535 28.7512 12.5735 28.623 12.6462 28.4977C13.0908 28.7864 13.5477 28.9399 13.9474 28.9399C14.1333 28.9399 14.307 28.9067 14.4611 28.8388C14.7669 28.7041 14.9678 28.4496 15.0379 28.113H16.584C16.8026 28.113 16.9907 28.1522 17.1431 28.2296C17.5064 28.4135 17.5668 28.7647 17.5083 29.0097L17.5083 29.0097ZM17.3791 26.7193C17.4948 26.9624 17.4213 27.2874 17.1751 27.6449C16.9964 27.5873 16.799 27.5576 16.5843 27.5576H15.0458C14.9974 27.1945 14.8609 26.7647 14.6605 26.344C15.1244 26.2305 15.5575 26.1721 15.951 26.1721H15.9621C16.6873 26.1737 17.217 26.3783 17.3791 26.7193L17.3791 26.7193ZM18.8068 8.68149C18.7633 8.53429 18.8472 8.37979 18.9943 8.33628C19.1415 8.29298 19.296 8.37672 19.3395 8.52381C19.4417 8.86926 19.7078 9.12855 20.0391 9.22836V6.98343L19.5157 6.67785C19.0464 6.40305 18.7551 5.89525 18.7551 5.35258C18.7551 4.94334 18.9146 4.55802 19.2043 4.26761C19.4335 4.03758 19.7238 3.89118 20.0391 3.83979L20.0392 3.27833C20.0392 3.12498 20.1636 3.00057 20.317 3.00057C20.4703 3.00057 20.5947 3.12498 20.5947 3.27833V3.84767C20.8308 3.8929 21.0535 3.9902 21.2492 4.13626C21.5284 4.34532 21.7281 4.63221 21.827 4.96602C21.8706 5.11311 21.7867 5.26772 21.6397 5.31135C21.4923 5.35487 21.338 5.27102 21.2944 5.12405C21.2295 4.90552 21.099 4.71799 20.9165 4.5814C20.8185 4.50826 20.7097 4.45437 20.5947 4.4195V6.66466L21.1173 6.96989C21.3483 7.10445 21.5409 7.29848 21.6745 7.53123C21.8077 7.7632 21.8781 8.0273 21.8781 8.29514C21.8781 8.7061 21.7183 9.09165 21.4284 9.38081C21.1989 9.61027 20.9089 9.75656 20.5947 9.80795V10.3695C20.5947 10.5229 20.4703 10.6473 20.317 10.6473C20.1636 10.6473 20.0392 10.5229 20.0392 10.3695V9.80054C19.4577 9.68935 18.9794 9.26519 18.8068 8.68151L18.8068 8.68149ZM18.3576 13.7002C18.5197 13.3593 19.0493 13.1548 19.7743 13.1533H19.7799C20.1749 13.1533 20.61 13.2118 21.076 13.3255C20.8755 13.7463 20.7391 14.1762 20.6908 14.5387H19.1524C18.9377 14.5387 18.7402 14.5685 18.562 14.6259C18.3152 14.267 18.2423 13.9428 18.3576 13.7002L18.3576 13.7002ZM18.7574 17.939C18.7143 17.6472 18.8359 17.3039 19.1992 17.1762H21.706C22.0424 17.303 22.1793 17.6615 22.1355 17.9457C22.1122 18.0969 22.001 18.4485 21.4726 18.4485L19.3267 18.4484C18.9623 18.4484 18.7936 18.1853 18.7574 17.939V17.939ZM21.0697 20.2206H19.8851C19.4039 20.2206 19.0965 20.0211 19.042 19.6733C19.0022 19.4207 19.1176 19.1101 19.3773 19.0039H21.4C21.6778 19.1719 21.8022 19.4324 21.7336 19.7114C21.6715 19.9648 21.4421 20.2206 21.0697 20.2206H21.0697ZM23.2016 20.4984C23.2016 21.0096 22.7858 21.4255 22.2746 21.4255C22.0269 21.4255 21.7939 21.329 21.6189 21.1542C21.5018 21.037 21.4209 20.8937 21.3794 20.7377C21.8149 20.6279 22.1634 20.2908 22.2731 19.8439C22.3588 19.4948 22.2808 19.1502 22.0719 18.8728C22.4001 18.7133 22.6247 18.417 22.6844 18.0302C22.734 17.7091 22.6572 17.3921 22.4909 17.1363C22.7784 17.0852 23.0144 16.9873 23.2015 16.8591L23.2016 20.4984ZM22.0212 16.6207H19.1525C18.7494 16.6207 18.4337 16.4495 18.2863 16.1511C18.1636 15.9029 18.1854 15.6206 18.344 15.4133C18.4068 15.3305 18.4903 15.2625 18.5934 15.2106C18.7457 15.1334 18.9337 15.0942 19.1525 15.0942H20.6985C20.7685 15.4304 20.9695 15.685 21.2755 15.8199C21.4298 15.888 21.6034 15.921 21.7893 15.921C22.189 15.9209 22.6461 15.7675 23.0904 15.4788C23.1632 15.6042 23.2017 15.7324 23.2017 15.858C23.2016 16.3071 22.7162 16.6206 22.0211 16.6206L22.0212 16.6207Z" fill="#DC2434"/>
<path d="M19.9507 5.31304L20.1545 5.43453V3.7774C20.0156 3.81471 19.8881 3.88815 19.7839 3.99459C19.629 4.15338 19.5435 4.36432 19.5435 4.58814C19.5434 4.88492 19.6994 5.16274 19.9507 5.31304V5.31304Z" fill="#DC2434"/>
<path d="M24.8872 5.84953C24.8872 5.98098 24.9916 6.08762 25.1202 6.08762H28.8639C28.9925 6.08762 29.0969 5.98098 29.0969 5.84953C29.0969 5.71809 28.9925 5.61145 28.8639 5.61145H25.1202C24.9916 5.61145 24.8872 5.71799 24.8872 5.84953V5.84953Z" fill="#DC2434"/>
<path d="M25.0243 4.72853C25.0631 4.72853 25.1023 4.71867 25.1384 4.69777L27.3545 3.42334C27.4666 3.35889 27.5063 3.21367 27.4432 3.09912C27.3801 2.98457 27.238 2.94375 27.1258 3.00849L24.9097 4.28292C24.7976 4.34737 24.7579 4.49258 24.821 4.60714C24.8639 4.68488 24.9428 4.72853 25.0243 4.72853H25.0243Z" fill="#DC2434"/>
<path d="M24.9091 7.41533L27.1252 8.68975C27.1613 8.71055 27.2006 8.72051 27.2392 8.72051C27.3206 8.72051 27.3997 8.67686 27.4425 8.59913C27.5057 8.48458 27.4658 8.33935 27.3538 8.2749L25.1377 7.00048C25.0254 6.93573 24.8834 6.97665 24.8204 7.0911C24.7571 7.20575 24.7969 7.35088 24.9091 7.41533H24.9091Z" fill="#DC2434"/>
<path d="M8.62706 6.08756H12.3707C12.4993 6.08756 12.6037 5.98092 12.6037 5.84947C12.6037 5.71803 12.4993 5.61139 12.3707 5.61139H8.62706C8.49841 5.61139 8.39404 5.71803 8.39404 5.84947C8.39404 5.98092 8.49841 6.08756 8.62706 6.08756Z" fill="#DC2434"/>
<path d="M10.1361 3.42357L12.3522 4.69799C12.3883 4.71879 12.4276 4.72875 12.4662 4.72875C12.5477 4.72875 12.6267 4.6851 12.6695 4.60736C12.7327 4.49282 12.6929 4.34759 12.5808 4.28314L10.3648 3.00872C10.2525 2.94397 10.1105 2.98489 10.0474 3.09934C9.98416 3.21389 10.0239 3.35912 10.1361 3.42357H10.1361Z" fill="#DC2434"/>
<path d="M12.3521 7.00033L10.1361 8.27475C10.0239 8.3392 9.98419 8.48442 10.0474 8.59898C10.0901 8.67661 10.1692 8.72036 10.2507 8.72036C10.2894 8.72036 10.3287 8.7105 10.3647 8.6896L12.5808 7.41518C12.6929 7.35073 12.7326 7.20551 12.6695 7.09095C12.6064 6.9765 12.4645 6.93578 12.3521 7.00033H12.3521Z" fill="#DC2434"/>
</svg>
