<svg width="24" height="25" viewBox="0 0 24 25" fill="none" xmlns="http://www.w3.org/2000/svg">
<path fill-rule="evenodd" clip-rule="evenodd" d="M6.47719e-05 6.29989H2.00757L2.00745 5.53706C2.00745 4.17735 0.000197848 4.21795 6.8233e-05 5.53706L6.47719e-05 6.29989ZM6.97465 13.6544H13.4619V14.3651H6.97465V13.6544ZM10.4373 3.74649H14.3838V4.45717H10.4373V3.74649ZM6.97465 5.84051H17.8461V6.55119H6.97465V5.84051ZM6.97465 7.79403H17.8461V8.50471H6.97465V7.79403ZM6.97465 9.74742H17.8461V10.4581H6.97465V9.74742ZM6.97465 11.7008H17.8461V12.4115H6.97465V11.7008ZM16.0513 18.6308V17.4213C15.6767 17.3138 15.4025 17.1509 15.2285 16.9325C15.0536 16.7134 14.966 16.4487 14.966 16.1368C14.966 15.8208 15.0653 15.5552 15.2628 15.3409C15.4604 15.1256 15.7228 15.0023 16.0511 14.9698V14.5323H16.4698V14.9698C16.7765 15.0063 17.0202 15.111 17.2021 15.2837C17.383 15.4565 17.4989 15.6876 17.5492 15.9768L16.8178 16.0717C16.7726 15.8446 16.6567 15.6905 16.4699 15.6095V16.7382C16.9328 16.8625 17.2483 17.0255 17.4154 17.2239C17.5835 17.4234 17.667 17.6791 17.667 17.9911C17.667 18.3397 17.562 18.6329 17.3505 18.872C17.1391 19.1109 16.8462 19.2591 16.4699 19.3183V19.8573H16.0511V19.3242C15.7208 19.2837 15.4526 19.1613 15.2452 18.9549C15.0378 18.7485 14.9061 18.4563 14.8482 18.0799L15.5971 17.9912C15.6276 18.1451 15.6856 18.2775 15.7701 18.389C15.8546 18.5007 15.948 18.5807 16.0513 18.6309L16.0513 18.6308ZM16.0513 15.5976C15.9382 15.6381 15.8497 15.7043 15.7839 15.7971C15.718 15.89 15.6856 15.9917 15.6856 16.1032C15.6856 16.2048 15.7151 16.2997 15.7751 16.3875C15.8351 16.4745 15.9273 16.5456 16.0513 16.5989L16.0513 15.5976ZM16.47 18.6783C16.6145 18.6467 16.7325 18.5776 16.8228 18.471C16.9143 18.3643 16.9595 18.2389 16.9595 18.0939C16.9595 17.9654 16.9211 17.8538 16.8444 17.7611C16.7687 17.6672 16.6439 17.5962 16.47 17.5458V18.6783ZM23.6111 21.1042V23.6084C23.6111 24.3748 22.9434 25 22.1251 25H5.33544C6.15616 25 6.82766 24.3712 6.82766 23.6027V21.1042H23.6111ZM20.1536 1.43776C20.1536 0.645835 19.51 0 18.7224 0H2.55231C2.58915 0 2.62573 0.00152576 2.66193 0.00419618C2.11042 0.0156402 1.61046 0.246557 1.24566 0.613019C0.871493 0.988899 0.639093 1.50781 0.639093 2.07888V3.76345C0.639093 3.97924 0.813136 4.15408 1.02794 4.15408C1.24274 4.15408 1.41678 3.97924 1.41678 3.76345V2.07888C1.41678 1.72334 1.56197 1.4 1.79552 1.16527C2.02918 0.930536 2.35108 0.784928 2.70483 0.784928C3.05874 0.784928 3.38061 0.93065 3.61427 1.16527C3.82667 1.37864 3.96592 1.66537 3.98944 1.98288V23.1219C3.98944 24.0286 4.26513 24.44 4.93294 24.6935C5.31255 24.6935 5.95214 24.3692 6.06098 23.9941C5.5991 24.1185 4.88862 23.782 4.88862 23.1221V1.44395C4.88862 1.25804 4.86697 1.07708 4.82596 0.903515H18.7226C19.0145 0.903515 19.2545 1.14473 19.2545 1.43796V20.2762H20.1538V1.43796L20.1536 1.43776ZM1.39057 19.9879L1.10666 21.0143C1.09033 21.0733 1.05033 21.1105 1.00363 21.1105C0.956921 21.1105 0.917048 21.0732 0.90072 21.0142C0.806166 20.6722 0.711489 20.33 0.616935 19.9879C0.924897 19.7825 1.16615 19.8398 1.39057 19.9878V19.9879ZM0 17.7572C0.521117 17.3229 1.41235 17.3303 2.00751 17.7572L1.49096 19.6251C1.20237 19.4679 0.890746 19.422 0.51658 19.6251L0 17.7572ZM0 6.77577C0.669202 6.77577 1.33831 6.77564 2.00751 6.77577V17.3663C1.47576 16.8909 0.533268 16.8923 0 17.3663V6.77577Z" fill="#DC2434"/>
</svg>
