<svg width="25" height="25" viewBox="0 0 25 25" fill="none" xmlns="http://www.w3.org/2000/svg">
<path d="M18.1711 19.6117C18.1711 19.2665 18.4511 18.9866 18.7962 18.9866C19.1414 18.9866 19.4213 19.2666 19.4213 19.6117V21.4551C19.4213 21.8003 19.1413 22.0802 18.7962 22.0802H4.29203C3.94683 22.0802 3.66695 21.8002 3.66695 21.4551V1.8749C3.66695 1.52969 3.94691 1.24982 4.29203 1.24982H18.7962C19.1414 1.24982 19.4213 1.52978 19.4213 1.8749V9.62823C19.4213 9.97344 19.1413 10.2533 18.7962 10.2533C18.451 10.2533 18.1711 9.97336 18.1711 9.62823V2.4999H4.91737V20.8299H18.1711V19.6117ZM6.93903 12.3367C6.59383 12.3367 6.31395 12.0567 6.31395 11.7116C6.31395 11.3664 6.59391 11.0865 6.93903 11.0865H11.1086C11.4538 11.0865 11.7337 11.3665 11.7337 11.7116C11.7337 12.0568 11.4537 12.3367 11.1086 12.3367H6.93903ZM6.93903 10.1094C6.59383 10.1094 6.31395 9.82944 6.31395 9.48432C6.31395 9.13911 6.59391 8.85923 6.93903 8.85923H12.559C12.9042 8.85923 13.1841 9.13919 13.1841 9.48432C13.1841 9.82953 12.9042 10.1094 12.559 10.1094H6.93903ZM6.93903 7.88211C6.59383 7.88211 6.31395 7.60215 6.31395 7.25703C6.31395 6.91182 6.59391 6.63194 6.93903 6.63194H16.149C16.4942 6.63194 16.7741 6.9119 16.7741 7.25703C16.7741 7.60223 16.4942 7.88211 16.149 7.88211H6.93903ZM6.93903 5.65461C6.59383 5.65461 6.31395 5.37465 6.31395 5.02953C6.31395 4.68432 6.59391 4.40444 6.93903 4.40444H16.149C16.4942 4.40444 16.7741 4.6844 16.7741 5.02953C16.7741 5.37473 16.4942 5.65461 16.149 5.65461H6.93903ZM20.6311 17.2307L22.8445 19.7098C23.0733 19.9658 23.0514 20.3597 22.7955 20.5886C22.5394 20.8174 22.1456 20.7955 21.9167 20.5396L19.703 18.0602C19.0584 18.4813 18.2904 18.7252 17.4659 18.7252C16.3358 18.7252 15.3098 18.2655 14.5659 17.5225L14.5635 17.5202C13.82 16.7749 13.3609 15.7503 13.3609 14.6202C13.3609 13.4869 13.8206 12.4606 14.5635 11.7177L14.6005 11.6837C15.3413 10.9606 16.3529 10.515 17.4659 10.515C18.5971 10.515 19.623 10.9751 20.3669 11.7189C21.1111 12.4606 21.5708 13.487 21.5708 14.6203C21.5708 15.6107 21.2176 16.5205 20.6309 17.2307L20.6311 17.2307ZM19.4849 12.5998C18.9702 12.0837 18.2562 11.7651 17.4661 11.7651C16.6898 11.7651 15.9876 12.0722 15.4753 12.5709L15.4472 12.6011C14.9311 13.1172 14.6112 13.8314 14.6112 14.6202C14.6112 15.4104 14.9299 16.1243 15.4448 16.639L15.4472 16.6413C15.9618 17.1563 16.6759 17.4749 17.466 17.4749C18.2562 17.4749 18.9701 17.1563 19.4848 16.6413L19.4871 16.639C20.0021 16.1243 20.3207 15.4103 20.3207 14.6202C20.3207 13.8315 20.0009 13.1172 19.4848 12.5999L19.4849 12.5998ZM1.99695 3.54523C1.99695 3.20003 2.27691 2.92015 2.62203 2.92015C2.96724 2.92015 3.24712 3.20011 3.24712 3.54523V22.5002H17.1261C17.4713 22.5002 17.7512 22.7802 17.7512 23.1253C17.7512 23.4705 17.4712 23.7504 17.1261 23.7504H2.62191C2.2767 23.7504 1.99683 23.4704 1.99683 23.1253L1.99695 3.54523Z" fill="#DC2434"/>
</svg>
