<svg width="30" height="30" viewBox="0 0 30 30" fill="none" xmlns="http://www.w3.org/2000/svg">
<path d="M25.6875 4.10501C25.4713 3.93792 25.1899 3.88069 24.9257 3.95032C24.1878 4.1427 23.4284 4.23977 22.6658 4.2392C21.3336 4.24174 20.0178 3.94457 18.8158 3.36987C17.6139 2.79507 16.5567 1.95737 15.7223 0.918696C15.5613 0.712349 15.3168 0.588521 15.0552 0.580796C14.7936 0.573082 14.5422 0.682359 14.3693 0.878846C14.3588 0.890565 14.3459 0.905799 14.3307 0.925136C13.4964 1.96176 12.4398 2.79769 11.2392 3.37124C10.0386 3.94486 8.72441 4.24146 7.39366 4.23921C6.61086 4.2397 5.83136 4.13745 5.07511 3.93511C4.81114 3.86421 4.52911 3.92017 4.31221 4.08658C4.09531 4.25298 3.96816 4.5108 3.96826 4.78413V18.3896C3.96826 24.4716 8.91651 29.4199 14.9985 29.4199C21.0805 29.4199 26.0288 24.4716 26.0288 18.3896V4.80063C26.0288 4.52835 25.9026 4.27153 25.6872 4.10513L25.6875 4.10501ZM19.0212 17.7733C19.1905 17.9373 19.2868 18.1624 19.2886 18.3982C19.2902 18.6339 19.1972 18.8605 19.0303 19.0269C18.8634 19.1934 18.6365 19.2857 18.4008 19.2834C18.1651 19.2811 17.9402 19.1841 17.7767 19.0143L15.0344 16.2645L12.2847 19.0068C12.1206 19.1761 11.8955 19.2724 11.6598 19.2741C11.424 19.2758 11.1975 19.1827 11.0311 19.0158C10.8646 18.8489 10.7722 18.6221 10.7745 18.3863C10.7769 18.1507 10.8738 17.9258 11.0437 17.7622L13.7934 15.02L11.0202 12.2402C10.8508 12.0761 10.7545 11.8511 10.7528 11.6153C10.7511 11.3796 10.8442 11.153 11.0111 10.9866C11.178 10.8201 11.4048 10.7277 11.6406 10.7301C11.8762 10.7324 12.1011 10.8294 12.2647 10.9992L15.0375 13.779L17.8172 11.0062C18.0407 10.7909 18.3613 10.7094 18.6605 10.792C18.9597 10.8744 19.1933 11.1086 19.2749 11.4081C19.3566 11.7075 19.2741 12.0278 19.0582 12.2508L16.2792 15.0235L19.0212 17.7733Z" fill="#DC2434"/>
</svg>
