<svg width="18" height="18" viewBox="0 0 18 18" fill="none" xmlns="http://www.w3.org/2000/svg">
<g id="noun-business-management-3749476 1">
<g id="Group">
<path id="Vector" d="M12.9294 8.39651C13.4059 8.39651 13.8644 8.47086 14.2947 8.6066V7.6768C14.0749 7.70796 12.4579 8.05477 9.40474 8.20954V8.35812C9.40474 9.04969 8.84123 9.61324 8.14967 9.61324H7.48111C6.78948 9.61324 6.22598 9.04967 6.22598 8.35812V8.19679H6.20291C4.49797 8.11995 2.60943 7.88833 1.46668 7.69214L1.3335 7.66907V11.4012C1.3335 12.1621 1.9534 12.7794 2.71419 12.7794H8.38273C8.47234 10.3485 10.4781 8.39648 12.9294 8.39648L12.9294 8.39651Z" fill="#DC2434"/>
<path id="Vector_2" d="M6.22574 7.68455V6.71625C6.22574 6.02462 6.78926 5.461 7.48087 5.461H8.14943C8.841 5.461 9.4045 6.02458 9.4045 6.71625V7.69476C11.1771 7.56448 12.7212 7.42703 14.2944 7.15683C14.297 7.15426 14.3022 7.15426 14.3047 7.15426L14.338 7.14914C14.7785 7.06973 15.0987 6.68549 15.0987 6.23215L15.0987 2.85859C15.0987 2.34635 14.6813 1.92878 14.169 1.92878L10.3241 1.92873V1.39855C10.3241 0.911889 9.92704 0.514771 9.44038 0.514771H6.19238C5.70309 0.514771 5.30605 0.911875 5.30605 1.39855V1.92879L1.4613 1.92873C0.949 1.92873 0.531494 2.34629 0.531494 2.85853V6.22699C0.531494 6.68295 0.856834 7.06975 1.30253 7.14665L1.33323 7.15172C1.35921 7.15525 3.7879 7.57885 6.22565 7.68463L6.22574 7.68455Z" fill="#DC2434"/>
<path id="Vector_3" d="M7.48088 5.97336C7.07106 5.97336 6.73804 6.30895 6.73804 6.71625V8.35818C6.73804 8.76801 7.07106 9.10103 7.48088 9.10103H8.14944C8.55926 9.10103 8.89229 8.76801 8.89229 8.35818V6.71625C8.89229 6.30893 8.55932 5.97336 8.14944 5.97336H7.48088Z" fill="#DC2434"/>
<path id="Vector_4" d="M12.9308 11.6748C12.2303 11.6748 11.658 12.2442 11.658 12.9447C11.658 13.6481 12.2303 14.2175 12.9308 14.2175C13.6313 14.2175 14.2037 13.6481 14.2037 12.9447C14.2037 12.2441 13.6313 11.6748 12.9308 11.6748V11.6748Z" fill="#DC2434"/>
<path id="Vector_5" d="M12.9309 8.90955C10.7023 8.90955 8.89307 10.7188 8.89307 12.9449C8.89307 15.1709 10.7023 16.9854 12.9309 16.9854C15.157 16.9854 16.9687 15.171 16.9687 12.9449C16.9687 10.7188 15.1569 8.90955 12.9309 8.90955ZM15.6023 13.1276C15.6023 13.2949 15.4968 13.4416 15.3346 13.4904L14.9975 13.5959C14.9666 13.7093 14.9254 13.8328 14.8611 13.9486L15.0052 14.2188C15.1159 14.4247 15.0542 14.5997 14.9589 14.6949L14.6912 14.9651C14.5729 15.0836 14.3927 15.1093 14.246 15.0321L13.9295 14.8648C13.8214 14.9189 13.7082 14.9678 13.5924 15.0038L13.4611 15.4336C13.4302 15.5416 13.3299 15.6163 13.2166 15.6163L12.6582 15.6188C12.5449 15.6188 12.4471 15.5442 12.4137 15.4387L12.2799 15.0089C12.164 14.9703 12.0508 14.924 11.9427 14.8699L11.657 15.0217C11.4537 15.1324 11.2762 15.0681 11.181 14.9729L10.9133 14.7078C10.7949 14.5894 10.7666 14.4093 10.8438 14.2626L11.0136 13.9461C10.957 13.8354 10.9107 13.7247 10.8721 13.6063L10.5299 13.5034C10.3677 13.4545 10.2596 13.3104 10.2596 13.1431V12.7647C10.257 12.5975 10.3651 12.4509 10.5247 12.4019L10.8695 12.2964C10.9056 12.1806 10.9518 12.0674 11.0085 11.9593L10.8567 11.6737C10.746 11.4678 10.8078 11.2928 10.903 11.1976L11.1707 10.9299C11.2891 10.8115 11.4666 10.7832 11.6133 10.8604L11.9324 11.0303C12.0405 10.9736 12.1538 10.9247 12.2696 10.8887L12.3622 10.5799C12.4317 10.3559 12.599 10.2761 12.7328 10.2761L13.1137 10.2736C13.281 10.2736 13.4251 10.3817 13.474 10.5412L13.5795 10.8861C13.6979 10.9221 13.8111 10.9684 13.9192 11.0251L14.2023 10.8707C14.4082 10.76 14.5857 10.8244 14.6809 10.9195L14.9486 11.1872C15.067 11.303 15.0953 11.4832 15.0155 11.6299L14.8483 11.949C14.9049 12.0571 14.9512 12.1704 14.9898 12.2861L15.332 12.389C15.4916 12.4379 15.5997 12.582 15.6023 12.7494L15.6023 13.1276Z" fill="#DC2434"/>
</g>
</g>
</svg>
