<svg id="Layer_1" data-name="Layer 1" xmlns="http://www.w3.org/2000/svg" viewBox="0 0 64 64"><defs><style>.cls-1{fill:#dfe8f4;}.cls-2{fill:#ccd8e5;}.cls-3{fill:#dd1515;}.cls-4{fill:#fff;}.cls-5{fill:#ff5454;}</style></defs><title>pin, landscape, map, navigation, location, navigate, </title><rect class="cls-1" x="14" y="20" width="36" height="36" rx="3.39"/><path class="cls-2" d="M22.5,32.77h0a2.06,2.06,0,0,1,.61-1.46l1-1A8.89,8.89,0,0,0,26.75,24V20H17.39A3.39,3.39,0,0,0,14,23.39V40.83l4.93,4.93a2,2,0,0,0,2.81,0h0a2,2,0,0,0,0-2.81L20.59,41.8a3.58,3.58,0,0,1-1.05-2.53h0a3.56,3.56,0,0,1,1.05-2.52l.45-.46A5,5,0,0,0,22.5,32.77Z"/><path class="cls-2" d="M43.84,35.8l-1.57-1.57a2.21,2.21,0,0,0-1.56-.65H31.89a3.16,3.16,0,0,0-2.23.93L26.5,37.67A1.81,1.81,0,0,0,26,39V42.9a1.85,1.85,0,0,0,.54,1.31l2.87,2.87a3.5,3.5,0,0,0,2.48,1h.89a1.18,1.18,0,0,1,1.18,1.18h0a2.94,2.94,0,0,0,.86,2.08l1.44,1.45a2.92,2.92,0,0,1,.86,2.07V56h5.17V53.93a3.08,3.08,0,0,1,.89-2.16l2.13-2.12a6.52,6.52,0,0,0,1.9-4.58V42.38a2.13,2.13,0,0,0-.63-1.5l-1.47-1.47a2.13,2.13,0,0,1-.61-1.49v-.64A2.09,2.09,0,0,0,43.84,35.8Z"/><rect class="cls-2" x="30.94" y="25.75" width="4.25" height="4.25" rx="0.8"/><path class="cls-2" d="M46.61,20H38.48v3.45a.8.8,0,0,0,.8.8h1.37a.89.89,0,0,1,.89.89v4.14A2.72,2.72,0,0,0,44.26,32H50V23.39A3.39,3.39,0,0,0,46.61,20Z"/><rect class="cls-2" x="20.63" y="49.06" width="2.75" height="2.75" rx="0.58"/><rect class="cls-2" x="24.63" y="51.81" width="2.75" height="2.75" rx="0.58"/><path class="cls-3" d="M38.65,35.44c0,1.07-3,1.93-6.65,1.93s-6.65-.86-6.65-1.93,3-1.93,6.65-1.93S38.65,34.38,38.65,35.44Z"/><path class="cls-4" d="M30.58,22.83V34.66a.93.93,0,0,0,.92.93h1a.93.93,0,0,0,.92-.93V22.83Z"/><circle class="cls-5" cx="32" cy="16.4" r="8.4"/><path class="cls-4" d="M27.12,14.6a1,1,0,0,1-.86-1.5A6.64,6.64,0,0,1,32,9.78a1,1,0,0,1,0,2,4.64,4.64,0,0,0-4,2.32A1,1,0,0,1,27.12,14.6Z"/><path class="cls-4" d="M26.38,17.4a1,1,0,0,1-1-1v-.25a1,1,0,0,1,1-1h0a1,1,0,0,1,1,1v.17A1,1,0,0,1,26.38,17.4Z"/></svg>