<svg id="Layer_1" data-name="Layer 1" xmlns="http://www.w3.org/2000/svg" viewBox="0 0 64 64"><defs><style>.cls-1{fill:#ff5454;}.cls-2{fill:#ccd8e5;}.cls-3{fill:#dfe8f4;}.cls-4{fill:#fff;}.cls-5{fill:#dd1515;}</style></defs><title>real, estate, property, man, house</title><path class="cls-1" d="M32.55,21.47H15.45V16.58A8.55,8.55,0,0,1,24,8h0a8.55,8.55,0,0,1,8.55,8.55Z"/><path class="cls-2" d="M16.09,19.06H18.4a0,0,0,0,1,0,0v3.86a0,0,0,0,1,0,0H16.09a1.55,1.55,0,0,1-1.55-1.55v-.76A1.55,1.55,0,0,1,16.09,19.06Z"/><path class="cls-2" d="M31.16,19.06h2.31a0,0,0,0,1,0,0v3.86a0,0,0,0,1,0,0H31.16a1.55,1.55,0,0,1-1.55-1.55v-.76A1.55,1.55,0,0,1,31.16,19.06Z" transform="translate(63.07 41.97) rotate(180)"/><path class="cls-3" d="M31.65,22.66V19.24a7.65,7.65,0,0,0-3.82-6.63h0a7.68,7.68,0,0,0-7.65,0h0a7.66,7.66,0,0,0-3.83,6.63v3.42a6.69,6.69,0,0,0,3.36,5.81l1,.59a6.55,6.55,0,0,0,6.55,0l1-.59A6.68,6.68,0,0,0,31.65,22.66Z"/><path class="cls-1" d="M21.91,19.06H16.08l1.71-7.53H29V12A7.06,7.06,0,0,1,21.91,19.06Z"/><path class="cls-1" d="M31.79,19.06h0a3.61,3.61,0,0,1-3.61-3.61V12.07l3.61,2.51Z"/><path class="cls-4" d="M21.47,24.25a.24.24,0,0,0-.24.28,2.83,2.83,0,0,0,5.55,0,.24.24,0,0,0-.24-.28Z"/><path class="cls-1" d="M40,44.81H8l1.74-8.68a3.64,3.64,0,0,1,3.56-2.92H34.71a3.64,3.64,0,0,1,3.56,2.92Z"/><path class="cls-3" d="M29.64,33.21H18.43a11.83,11.83,0,0,0,5.61,10A11.85,11.85,0,0,0,29.64,33.21Z"/><path class="cls-5" d="M24.8,36.68a3,3,0,0,1,.79-2.74l.15-.15-.13-.58H22.46l-.13.58.15.15a3,3,0,0,1,.8,2.74l-1.14,5.08A13,13,0,0,0,24,43.22a12.86,12.86,0,0,0,1.89-1.46Z"/><circle class="cls-3" cx="44" cy="44" r="12"/><path class="cls-2" d="M32,44c0,.27,0,.54,0,.81h8l-1.73-8.68a3.66,3.66,0,0,0-1.13-2A12,12,0,0,0,32,44Z"/><path class="cls-5" d="M46.73,39.53h2.13a.13.13,0,0,1,.13.13v5.2a0,0,0,0,1,0,0h-2.4a0,0,0,0,1,0,0v-5.2A.13.13,0,0,1,46.73,39.53Z"/><path class="cls-1" d="M43.85,37.72l-6.44,6.44a.21.21,0,0,0,.15.36H50.44a.21.21,0,0,0,.15-.36l-6.44-6.44A.22.22,0,0,0,43.85,37.72Z"/><rect class="cls-1" x="39.01" y="43.95" width="9.98" height="6.39"/><path class="cls-5" d="M45.56,50.34H42.44V47.9A1.56,1.56,0,0,1,44,46.34h0a1.56,1.56,0,0,1,1.56,1.56Z"/></svg>