<svg id="Layer_1" data-name="Layer 1" xmlns="http://www.w3.org/2000/svg" viewBox="0 0 64 64"><defs><style>.cls-1{fill:#e5cccc;}.cls-2{fill:#F4DFDF;}.cls-3{fill:#FC0707;}.cls-4{fill:#DD1515;}</style></defs><title>real, estate, property, scale, weigh</title><path class="cls-1" d="M49.56,19.49h3.5a.22.22,0,0,1,.22.22v8.55a0,0,0,0,1,0,0H49.34a0,0,0,0,1,0,0V19.71A.22.22,0,0,1,49.56,19.49Z"/><path class="cls-1" d="M44.83,16.52,34.25,27.1a.35.35,0,0,0,.25.59H55.65a.35.35,0,0,0,.25-.59L45.32,16.52A.36.36,0,0,0,44.83,16.52Z"/><rect class="cls-1" x="36.87" y="26.77" width="16.41" height="10.49"/><path class="cls-2" d="M47.64,37.26H42.51v-4a2.57,2.57,0,0,1,2.57-2.56h0a2.56,2.56,0,0,1,2.56,2.56Z"/><path class="cls-3" d="M23.41,26.07h3.5a.22.22,0,0,1,.22.22v8.55a0,0,0,0,1,0,0H23.19a0,0,0,0,1,0,0V26.28A.22.22,0,0,1,23.41,26.07Z"/><path class="cls-3" d="M18.68,23.1,8.1,33.68a.35.35,0,0,0,.25.59H29.5a.35.35,0,0,0,.25-.59L19.17,23.1A.34.34,0,0,0,18.68,23.1Z"/><rect class="cls-3" x="10.72" y="33.34" width="16.41" height="10.5"/><path class="cls-4" d="M21.49,43.84H16.36v-4a2.57,2.57,0,0,1,2.56-2.57h0a2.57,2.57,0,0,1,2.57,2.57Z"/><path class="cls-4" d="M53.53,39.68l-41.66,9.4A3.17,3.17,0,0,1,8,46H8a3.17,3.17,0,0,1,2.47-3.09l41.66-9.4A3.17,3.17,0,0,1,56,36.59h0A3.17,3.17,0,0,1,53.53,39.68Z"/><path class="cls-2" d="M21,56.22H43l-8.12-16a3.26,3.26,0,0,0-5.82,0Z"/><rect class="cls-1" x="18.67" y="54.58" width="26.67" height="1.63" rx="0.56"/><circle class="cls-1" cx="32" cy="42.62" r="1.33"/></svg>