<svg id="Layer_1" data-name="Layer 1" xmlns="http://www.w3.org/2000/svg" viewBox="0 0 64 64"><defs><style>.cls-1{fill:#dfe8f4;}.cls-2{fill:#dd1515;}.cls-3{fill:#ff5454;}.cls-4{fill:#fff;}</style></defs><title>real, estate, property, call, house</title><path class="cls-1" d="M53.82,41.18,51.54,38.9a7.93,7.93,0,0,0-11.22,0h0a2.73,2.73,0,0,0-.79,1.91h0a2.69,2.69,0,0,1-2.3,2.69A15,15,0,0,1,20.5,26.77a2.69,2.69,0,0,1,2.69-2.3h0a2.73,2.73,0,0,0,1.91-.79h0a7.93,7.93,0,0,0,0-11.22l-2.28-2.28a7.27,7.27,0,0,0-11.19,1A21.78,21.78,0,0,0,8.05,24.63,33.78,33.78,0,0,0,39.37,56a21.78,21.78,0,0,0,13.48-3.58A7.27,7.27,0,0,0,53.82,41.18Z"/><path class="cls-2" d="M34.82,29.33v5.15a.52.52,0,0,0,.88.37l5.52-5.52Z"/><rect class="cls-3" x="32" y="10.34" width="24" height="21.62" rx="1.66"/><path class="cls-1" d="M47,16.25h2.33a.15.15,0,0,1,.15.15v5.7a0,0,0,0,1,0,0H46.84a0,0,0,0,1,0,0v-5.7A.15.15,0,0,1,47,16.25Z"/><path class="cls-4" d="M43.84,14.27l-7.05,7.05a.23.23,0,0,0,.16.39h14.1a.23.23,0,0,0,.16-.39l-7.05-7A.22.22,0,0,0,43.84,14.27Z"/><rect class="cls-4" x="38.53" y="21.1" width="10.93" height="6.99"/><path class="cls-1" d="M45.71,28.09H42.29V25.42A1.72,1.72,0,0,1,44,23.71h0a1.72,1.72,0,0,1,1.71,1.71Z"/></svg>