<svg id="Layer_1" data-name="Layer 1" xmlns="http://www.w3.org/2000/svg" viewBox="0 0 64 64"><defs><style>.cls-1{fill:#dd1515;}.cls-2{fill:#dfe8f4;}.cls-3{fill:#ccd8e5;}.cls-4{fill:#ff5454;}.cls-5{fill:#fff;}</style></defs><title>real, estate, property, rating, rate, star</title><rect class="cls-1" x="27.95" y="14.77" width="8.1" height="6.25"/><rect class="cls-2" x="10.63" y="25.81" width="42.75" height="30.4"/><path class="cls-1" d="M55,32.22H9A1,1,0,0,1,8,31l2.62-12.68a1,1,0,0,1,1-.78H52.4a1,1,0,0,1,1,.78L56,31A1,1,0,0,1,55,32.22Z"/><polygon class="cls-2" points="32 21.03 20.24 27.82 20.24 56.22 43.76 56.22 43.76 27.82 32 21.03"/><path class="cls-3" d="M20.24,32.3l11.24-6.49a1,1,0,0,1,1,0L43.76,32.3V28.84l-11-6.36a1.49,1.49,0,0,0-1.5,0l-11,6.36Z"/><path class="cls-4" d="M46,30.63a1.53,1.53,0,0,1-.75-.2L32.54,23.07a1.09,1.09,0,0,0-1.08,0L18.72,30.43a1.5,1.5,0,0,1-2.15-.78,1.55,1.55,0,0,1,.72-1.86l14-8.06a1.49,1.49,0,0,1,1.5,0l13.94,8.05a1.57,1.57,0,0,1,.72,1.94A1.5,1.5,0,0,1,46,30.63Z"/><rect class="cls-1" x="27.42" y="13.65" width="9.17" height="1.13" rx="0.35"/><path class="cls-4" d="M20.41,39.39l.68,1.38a.61.61,0,0,0,.46.33l1.52.22a.61.61,0,0,1,.34,1l-1.1,1.07a.6.6,0,0,0-.17.54l.25,1.51a.61.61,0,0,1-.88.65l-1.36-.72a.61.61,0,0,0-.56,0l-1.36.72a.62.62,0,0,1-.89-.65L17.6,44a.6.6,0,0,0-.17-.54l-1.1-1.07a.61.61,0,0,1,.34-1l1.52-.22a.59.59,0,0,0,.45-.33l.68-1.38A.61.61,0,0,1,20.41,39.39Z"/><path class="cls-4" d="M32.55,39.39l.68,1.38a.59.59,0,0,0,.45.33l1.52.22a.61.61,0,0,1,.34,1l-1.1,1.07a.6.6,0,0,0-.17.54l.26,1.51a.62.62,0,0,1-.89.65l-1.36-.72a.61.61,0,0,0-.56,0l-1.36.72a.62.62,0,0,1-.89-.65L29.73,44a.6.6,0,0,0-.17-.54l-1.1-1.07a.61.61,0,0,1,.34-1l1.52-.22a.59.59,0,0,0,.45-.33l.68-1.38A.62.62,0,0,1,32.55,39.39Z"/><path class="cls-5" d="M44.68,39.39l.68,1.38a.59.59,0,0,0,.45.33l1.52.22a.61.61,0,0,1,.34,1l-1.1,1.07a.6.6,0,0,0-.17.54l.26,1.51a.62.62,0,0,1-.89.65l-1.36-.72a.61.61,0,0,0-.56,0l-1.36.72a.61.61,0,0,1-.88-.65L41.86,44a.6.6,0,0,0-.17-.54l-1.1-1.07a.61.61,0,0,1,.34-1l1.52-.22a.61.61,0,0,0,.46-.33l.68-1.38A.61.61,0,0,1,44.68,39.39Z"/></svg>