<svg id="Layer_1" data-name="Layer 1" xmlns="http://www.w3.org/2000/svg" viewBox="0 0 64 64"><defs><style>.cls-1{fill:#DD1515;}.cls-2{fill:#F4DFDF;}.cls-3{fill:#e5cccc;}.cls-4{fill:#FC0707;}.cls-5{fill:#fff;}</style></defs><title>real, estate, property, security, protection, house</title><rect class="cls-1" x="27.95" y="14.44" width="8.1" height="6.25"/><rect class="cls-2" x="10.63" y="25.48" width="42.75" height="30.4"/><path class="cls-1" d="M55,31.89H9a1,1,0,0,1-1-1.18L10.64,18a1,1,0,0,1,1-.78H52.4a1,1,0,0,1,1,.78L56,30.71A1,1,0,0,1,55,31.89Z"/><polygon class="cls-2" points="32 20.7 20.24 27.49 20.24 55.89 43.76 55.89 43.76 27.49 32 20.7"/><path class="cls-3" d="M20.24,32l11.24-6.49a1,1,0,0,1,1,0L43.76,32V28.51l-11-6.36a1.49,1.49,0,0,0-1.5,0l-11,6.36Z"/><path class="cls-4" d="M46,30.3a1.53,1.53,0,0,1-.75-.2L32.54,22.74a1.09,1.09,0,0,0-1.08,0L18.72,30.1a1.5,1.5,0,0,1-2.15-.78,1.55,1.55,0,0,1,.72-1.86l14-8.06a1.49,1.49,0,0,1,1.5,0l13.94,8.05a1.57,1.57,0,0,1,.72,1.94A1.5,1.5,0,0,1,46,30.3Z"/><rect class="cls-1" x="27.42" y="13.32" width="9.17" height="1.13" rx="0.35"/><path class="cls-4" d="M27.14,51.48c.72.53,1.39,1.07,2,1.6a4.35,4.35,0,0,0,5.72,0c.61-.53,1.28-1.07,2-1.6.93-.7,1.85-1.31,2.72-1.84a3.91,3.91,0,0,0,1.93-3.36V33.63a1.17,1.17,0,0,0-.87-1.14L33.1,30.44a4.32,4.32,0,0,0-2.2,0l-7.54,2.05a1.18,1.18,0,0,0-.87,1.14V46.28a3.92,3.92,0,0,0,1.93,3.36C25.29,50.17,26.21,50.78,27.14,51.48Z"/><path class="cls-5" d="M29.68,46.28,27,43.62a2,2,0,0,1-.28-2.5,1.89,1.89,0,0,1,2.87-.24l.91.9,3.8-3.8a2,2,0,0,1,2.49-.27A1.88,1.88,0,0,1,37,40.58l-5.7,5.7A1.17,1.17,0,0,1,29.68,46.28Z"/></svg>