<svg id="Layer_1" data-name="Layer 1" xmlns="http://www.w3.org/2000/svg" viewBox="0 0 64 64"><defs><style>.cls-1{fill:#DD1515;}.cls-2{fill:#FC0707;}.cls-3{fill:#F4DFDF;}.cls-4{fill:#e5cccc;}</style></defs><title>real, estate, property, graph, analytics, statistics</title><path class="cls-1" d="M36.36,24.84h3.41a.21.21,0,0,1,.21.21v8.32a0,0,0,0,1,0,0H36.15a0,0,0,0,1,0,0V25.06A.21.21,0,0,1,36.36,24.84Z"/><path class="cls-2" d="M31.76,22,21.47,32.25a.34.34,0,0,0,.23.58H42.3a.34.34,0,0,0,.23-.58L32.24,22A.34.34,0,0,0,31.76,22Z"/><rect class="cls-2" x="24.01" y="31.93" width="15.97" height="10.22"/><path class="cls-1" d="M34.5,42.14h-5v-3.9a2.5,2.5,0,0,1,2.5-2.5h0a2.5,2.5,0,0,1,2.5,2.5Z"/><path class="cls-3" d="M49.45,15.53l-6.73,6.36a14.69,14.69,0,0,1,4,10.11H56A23.9,23.9,0,0,0,49.45,15.53Z"/><path class="cls-3" d="M32,15A17,17,0,1,1,15,32,17,17,0,0,1,32,15m0-7A24,24,0,1,0,56,32,24,24,0,0,0,32,8Z"/><path class="cls-4" d="M49,32c0,.46,0,.92-.07,1.38h7c0-.46,0-.92,0-1.38s0-.67,0-1H49C49,31.33,49,31.66,49,32Z"/><path class="cls-2" d="M32,8v7A17,17,0,0,1,49,32h7A24,24,0,0,0,32,8Z"/><path class="cls-1" d="M44.35,20.35A16.93,16.93,0,0,1,49,32h7a23.9,23.9,0,0,0-6.55-16.47Z"/></svg>