<svg id="Layer_1" data-name="Layer 1" xmlns="http://www.w3.org/2000/svg" viewBox="0 0 64 64"><defs><style>.cls-1{fill:#FC0707;}.cls-2{fill:#F4DFDF;}.cls-3{fill:#fff;}.cls-4{fill:#DD1515;}.cls-5{fill:#e5cccc;}</style></defs><title>real, estate, property, woman, house</title><path class="cls-1" d="M34.57,19V18.9A10.76,10.76,0,0,0,24.51,8,10.57,10.57,0,0,0,13.43,18.6V19a12.62,12.62,0,0,1-1.2,5.48,3.48,3.48,0,0,0-.39,1.24c0,1.74,5.45,3.15,12.16,3.15s12.16-1.41,12.16-3.15a3.48,3.48,0,0,0-.39-1.24A12.77,12.77,0,0,1,34.57,19Z"/><path class="cls-2" d="M31.65,22.66V19.24a7.65,7.65,0,0,0-3.82-6.63h0a7.68,7.68,0,0,0-7.65,0h0a7.66,7.66,0,0,0-3.83,6.63v3.42a6.69,6.69,0,0,0,3.36,5.81l1,.59a6.55,6.55,0,0,0,6.55,0l1-.59A6.68,6.68,0,0,0,31.65,22.66Z"/><path class="cls-3" d="M21.47,24.25a.24.24,0,0,0-.24.28,2.83,2.83,0,0,0,5.55,0,.24.24,0,0,0-.24-.28Z"/><path class="cls-1" d="M40,44.81H8l1-5.13a8,8,0,0,1,7.89-6.47H31.09A8.05,8.05,0,0,1,39,39.68Z"/><path class="cls-4" d="M31.22,35.5l-.92-2.29H17.71l-.93,2.29a.88.88,0,0,0,.41,1.11l2,1-.6,1.2a.88.88,0,0,0,.24,1.07L22.75,43a2,2,0,0,0,2.5,0l3.92-3.11a.85.85,0,0,0,.24-1.07l-.6-1.2,2-1A.88.88,0,0,0,31.22,35.5Z"/><path class="cls-2" d="M28.34,33.21H19.66a9.14,9.14,0,0,0,4.07,7.57.5.5,0,0,0,.55,0A9.13,9.13,0,0,0,28.34,33.21Z"/><path class="cls-1" d="M32,18.47,29.6,11H18.4l-2.46,7.51H16a.26.26,0,0,0-.07.16c0,.74,3.61,1.34,8.06,1.34s8.06-.6,8.06-1.34A.31.31,0,0,0,32,18.47Z"/><circle class="cls-2" cx="44.06" cy="44" r="12"/><path class="cls-5" d="M32.06,44c0,.27,0,.54,0,.81h8l-1.73-8.68a3.66,3.66,0,0,0-1.13-2A12,12,0,0,0,32.06,44Z"/><path class="cls-4" d="M46.79,39.53h2.13a.13.13,0,0,1,.13.13v5.2a0,0,0,0,1,0,0h-2.4a0,0,0,0,1,0,0v-5.2A.13.13,0,0,1,46.79,39.53Z"/><path class="cls-1" d="M43.91,37.72l-6.44,6.44a.21.21,0,0,0,.15.36H50.5a.21.21,0,0,0,.15-.36l-6.44-6.44A.22.22,0,0,0,43.91,37.72Z"/><rect class="cls-1" x="39.07" y="43.95" width="9.98" height="6.39"/><path class="cls-4" d="M45.62,50.34H42.5V47.9a1.56,1.56,0,0,1,1.56-1.56h0a1.56,1.56,0,0,1,1.56,1.56Z"/></svg>