<svg id="Layer_1" data-name="Layer 1" xmlns="http://www.w3.org/2000/svg" viewBox="0 0 64 64"><defs><style>.cls-1{fill:#dd1515;}.cls-2{fill:#ccd8e5;}.cls-3{fill:#ff5454;}.cls-4{fill:#dfe8f4;}</style></defs><title>real, estate, property, building, home</title><path class="cls-1" d="M52.22,52.22A3.78,3.78,0,0,0,48.44,56H56A3.78,3.78,0,0,0,52.22,52.22Z"/><rect class="cls-2" x="9.59" y="34.27" width="26.11" height="21.73"/><path class="cls-3" d="M15.15,40.66H29.88a0,0,0,0,1,0,0v6.89a0,0,0,0,1,0,0H15.15a.65.65,0,0,1-.65-.65V41.31A.65.65,0,0,1,15.15,40.66Z"/><path class="cls-1" d="M14.18,25.48l-6,7.69a.68.68,0,0,0,.54,1.1H39.25V25.21H14.72A.68.68,0,0,0,14.18,25.48Z"/><path class="cls-4" d="M41.33,25.74,31,34.57a3.32,3.32,0,0,0-1.15,2.51V56h22.9V37.08a3.33,3.33,0,0,0-1.16-2.51Z"/><path class="cls-2" d="M40.15,27.08l-9.89,8.48a3.32,3.32,0,0,0-.38,1.52v3.58l10.65-9.13a1.2,1.2,0,0,1,1.59,0l10.66,9.13V37.08a3.33,3.33,0,0,0-.39-1.52l-9.88-8.48A1.82,1.82,0,0,0,40.15,27.08Z"/><path class="cls-3" d="M54.19,38.59A1.76,1.76,0,0,1,53,38.15L41.81,28.54a.73.73,0,0,0-1,0L29.71,38.09a1.88,1.88,0,0,1-2.41.08,1.82,1.82,0,0,1,0-2.77l12.87-11a1.79,1.79,0,0,1,2.36,0l12.8,11a1.87,1.87,0,0,1,.48,2.29A1.81,1.81,0,0,1,54.19,38.59Z"/><path class="cls-3" d="M44.84,56V46.65a1.9,1.9,0,0,0-1.9-1.89H39a1.89,1.89,0,0,0-1.89,1.89V56Z"/><circle class="cls-2" cx="40.99" cy="38.51" r="1.74"/><path class="cls-3" d="M15.89,53.48a3.74,3.74,0,0,0-5.6,0A2.54,2.54,0,0,0,8,56H18.18A2.53,2.53,0,0,0,15.89,53.48Z"/></svg>