<svg id="Layer_1" data-name="Layer 1" xmlns="http://www.w3.org/2000/svg" viewBox="0 0 64 64"><defs><style>.cls-1{fill:#dd1515;}.cls-2{fill:#ff5454;}.cls-3{fill:#fff;}.cls-4{fill:#ccd8e5;}.cls-5{fill:#dfe8f4;}</style></defs><title>real, estate, property, key, house, home</title><path class="cls-1" d="M38.35,28.85a1.5,1.5,0,0,1,0-3,7.42,7.42,0,0,0,7.41-7.41,1.5,1.5,0,0,1,3,0A10.42,10.42,0,0,1,38.35,28.85Z"/><path class="cls-2" d="M26.5,26.68l-6.79,6.79a.82.82,0,0,1-.59.24l-4-.15a.79.79,0,0,1-.77-.76l-.14-4a.76.76,0,0,1,.23-.59l2-2a.15.15,0,0,1,.23,0l.3.3a.17.17,0,0,0,.23,0l.6-.6a.17.17,0,0,0,0-.23l-.3-.3a.17.17,0,0,1,0-.23l.4-.4a.17.17,0,0,1,.23,0l.41.41.41-.41-.41-.41a.17.17,0,0,1,0-.23l.64-.65a.17.17,0,0,1,.23,0l.3.3a.15.15,0,0,0,.23,0l1-1a.17.17,0,0,0,0-.23l-.3-.3a.15.15,0,0,1,0-.23l.55-.55a1.36,1.36,0,0,0,.38-1.18,7.41,7.41,0,1,1,6.09,6.11A1.35,1.35,0,0,0,26.5,26.68Z"/><circle class="cls-2" cx="28.88" cy="19" r="7.42"/><path class="cls-3" d="M30.89,19.9a2.06,2.06,0,1,0-2.91,0A2.06,2.06,0,0,0,30.89,19.9Z"/><path class="cls-1" d="M47.26,19.94a1.5,1.5,0,0,1-1.5-1.5,7.41,7.41,0,1,0-14.82,0,1.5,1.5,0,0,1-3,0,10.41,10.41,0,1,1,20.82,0A1.5,1.5,0,0,1,47.26,19.94Z"/><path class="cls-4" d="M47.86,27h5.66a.35.35,0,0,1,.35.35v13.8a0,0,0,0,1,0,0H47.5a0,0,0,0,1,0,0V27.35A.35.35,0,0,1,47.86,27Z"/><rect class="cls-5" x="27.59" y="39.06" width="26.27" height="16.94"/><path class="cls-5" d="M53.87,40.55,41,27.72a.44.44,0,0,0-.62,0L27.59,40.55Z"/><path class="cls-4" d="M55.82,37.22,42.11,23.51a2,2,0,0,0-2.76,0L25.64,37.22A2,2,0,0,0,27,40.55h0a1.38,1.38,0,0,0,1-.4L40.32,27.82a.59.59,0,0,1,.82,0L53.46,40.15a1.38,1.38,0,0,0,1,.4h0A2,2,0,0,0,55.82,37.22Z"/><path class="cls-2" d="M44.87,56H36.59V49.53a4.14,4.14,0,0,1,4.14-4.14h0a4.14,4.14,0,0,1,4.14,4.14Z"/></svg>