<svg id="Layer_1" data-name="Layer 1" xmlns="http://www.w3.org/2000/svg" viewBox="0 0 64 64"><defs><style>.cls-1{fill:#dd1515;}.cls-2{fill:#dfe8f4;}.cls-3{fill:#ccd8e5;}.cls-4{fill:#ff5454;}</style></defs><title>real, estate, property, location, pin, house</title><rect class="cls-1" x="27.95" y="14.44" width="8.1" height="6.25"/><rect class="cls-2" x="10.63" y="25.48" width="42.75" height="30.4"/><path class="cls-1" d="M55,31.89H9a1,1,0,0,1-1-1.18L10.64,18a1,1,0,0,1,1-.78H52.4a1,1,0,0,1,1,.78L56,30.71A1,1,0,0,1,55,31.89Z"/><polygon class="cls-2" points="32 20.7 20.24 27.49 20.24 55.89 43.76 55.89 43.76 27.49 32 20.7"/><path class="cls-3" d="M20.24,32l11.24-6.49a1,1,0,0,1,1,0L43.76,32V28.51l-11-6.36a1.49,1.49,0,0,0-1.5,0l-11,6.36Z"/><path class="cls-4" d="M46,30.3a1.53,1.53,0,0,1-.75-.2L32.54,22.74a1.09,1.09,0,0,0-1.08,0L18.72,30.1a1.5,1.5,0,0,1-2.15-.78,1.55,1.55,0,0,1,.72-1.86l14-8.06a1.49,1.49,0,0,1,1.5,0l13.94,8.05a1.57,1.57,0,0,1,.72,1.94A1.5,1.5,0,0,1,46,30.3Z"/><rect class="cls-1" x="27.42" y="13.32" width="9.17" height="1.13" rx="0.35"/><path class="cls-4" d="M40.74,39.58a8.74,8.74,0,0,0-9.17-8.74A9.16,9.16,0,0,0,23.28,39a8.71,8.71,0,0,0,3.24,7.4,18.94,18.94,0,0,1,5,6l.25.49a.22.22,0,0,0,.38,0l.14-.28a19.29,19.29,0,0,1,5.12-6.17A8.69,8.69,0,0,0,40.74,39.58Z"/><path class="cls-1" d="M35,39.8a3,3,0,1,1-3-2.95A2.95,2.95,0,0,1,35,39.8Z"/></svg>