<svg id="Layer_1" data-name="Layer 1" xmlns="http://www.w3.org/2000/svg" viewBox="0 0 64 64"><defs><style>.cls-1{fill:#dfe8f4;}.cls-2{fill:#ff5454;}.cls-3{fill:#dd1515;}</style></defs><title>real, estate, property, surrounding, apartment, building</title><path class="cls-1" d="M13.83,31.71c4.4-1.51,10.91-2.46,18.17-2.46s13.77.95,18.17,2.46C53.8,30.47,56,28.85,56,27.08,56,23.17,45.25,20,32,20S8,23.17,8,27.08C8,28.85,10.2,30.47,13.83,31.71Z"/><path class="cls-2" d="M20.57,36.24l-6.22-7.49v3.13C10.41,30.62,8,28.93,8,27.08v9.25c0,1.85,2.41,3.54,6.35,4.8v2.29l6-5.09A1.49,1.49,0,0,0,20.57,36.24Z"/><path class="cls-2" d="M49.65,31.88V28.75l-6.22,7.49a1.49,1.49,0,0,0,.19,2.09l6,5.09V41.13c3.94-1.26,6.35-3,6.35-4.8V27.08C56,28.93,53.59,30.62,49.65,31.88Z"/><path class="cls-2" d="M39.39,12.72H24.61a2,2,0,0,0-2,2V48.83h0C22.94,50.2,27,51.28,32,51.28s9.06-1.08,9.35-2.45h0V14.71A2,2,0,0,0,39.39,12.72Z"/><rect class="cls-1" x="26.48" y="17.04" width="2.41" height="2.41" rx="0.96"/><rect class="cls-1" x="30.8" y="17.04" width="2.41" height="2.41" rx="0.96"/><rect class="cls-1" x="35.11" y="17.04" width="2.41" height="2.41" rx="0.96"/><rect class="cls-1" x="26.48" y="21.66" width="2.41" height="2.41" rx="0.96"/><rect class="cls-1" x="30.8" y="21.66" width="2.41" height="2.41" rx="0.96"/><rect class="cls-1" x="35.11" y="21.66" width="2.41" height="2.41" rx="0.96"/><rect class="cls-1" x="26.48" y="26.29" width="2.41" height="2.41" rx="0.96"/><rect class="cls-1" x="30.8" y="26.29" width="2.41" height="2.41" rx="0.96"/><rect class="cls-1" x="35.11" y="26.29" width="2.41" height="2.41" rx="0.96"/><rect class="cls-1" x="26.48" y="30.92" width="2.41" height="2.41" rx="0.96"/><rect class="cls-1" x="30.8" y="30.92" width="2.41" height="2.41" rx="0.96"/><rect class="cls-1" x="35.11" y="30.92" width="2.41" height="2.41" rx="0.96"/><rect class="cls-1" x="26.48" y="35.54" width="2.41" height="2.41" rx="0.96"/><rect class="cls-1" x="30.8" y="35.54" width="2.41" height="2.41" rx="0.96"/><rect class="cls-1" x="35.11" y="35.54" width="2.41" height="2.41" rx="0.96"/><path class="cls-3" d="M32,51.28a31.28,31.28,0,0,0,3.31-.17v-8a.9.9,0,0,0-.9-.9H29.59a.9.9,0,0,0-.9.9v8A31.28,31.28,0,0,0,32,51.28Z"/></svg>