<svg id="Layer_1" data-name="Layer 1" xmlns="http://www.w3.org/2000/svg" viewBox="0 0 64 64"><defs><style>.cls-1{fill:#dfe8f4;}.cls-2{fill:#ccd8e5;}.cls-3{fill:#dd1515;}.cls-4{fill:#ff5454;}</style></defs><title>real, estate, property, search, find, magnifier</title><path class="cls-1" d="M54.91,54.89a3.65,3.65,0,0,1-5.15,0l-11-11a3.65,3.65,0,1,1,5.15-5.16l11,11.05A3.63,3.63,0,0,1,54.91,54.89Z"/><path class="cls-2" d="M19.77,39.54a14.12,14.12,0,1,1,17.19,0A14.13,14.13,0,0,1,19.77,39.54Z"/><path class="cls-1" d="M54.85,49.67,49.14,44a7.73,7.73,0,0,1-1.83-8.21A20.36,20.36,0,1,0,35.76,47.3,7.81,7.81,0,0,1,44,49.16l5.72,5.73a3.65,3.65,0,0,0,5.64-.59A3.71,3.71,0,0,0,54.85,49.67ZM19.77,39.54a14.12,14.12,0,1,1,17.19,0A14.13,14.13,0,0,1,19.77,39.54Z"/><path class="cls-3" d="M51.45,46.27l-5.16,5.15,3.47,3.47a3.64,3.64,0,0,0,5.15-5.15Z"/><rect class="cls-4" x="46.01" y="48.52" width="7.29" height="2.21" transform="translate(-20.55 49.65) rotate(-45)"/><path class="cls-3" d="M33.24,18.32H37a.24.24,0,0,1,.24.24v9.29a0,0,0,0,1,0,0H33a0,0,0,0,1,0,0V18.56A.24.24,0,0,1,33.24,18.32Z"/><path class="cls-4" d="M28.1,15.1,16.61,26.59a.38.38,0,0,0,.27.64h23a.38.38,0,0,0,.27-.64L28.64,15.1A.38.38,0,0,0,28.1,15.1Z"/><rect class="cls-4" x="19.46" y="26.22" width="17.82" height="11.4"/><path class="cls-3" d="M31.15,37.63H25.58V33.27a2.79,2.79,0,0,1,2.79-2.79h0a2.78,2.78,0,0,1,2.78,2.79Z"/></svg>