<svg id="Layer_1" data-name="Layer 1" xmlns="http://www.w3.org/2000/svg" viewBox="0 0 64 64"><defs><style>.cls-1{fill:#ccd8e5;}.cls-2{fill:#dd1515;}.cls-3{fill:#ff5454;}.cls-4{fill:#dfe8f4;}</style></defs><title>real, estate, property, folder, house, file</title><path class="cls-1" d="M26.55,24.57V22.76a1.25,1.25,0,0,0-1.25-1.25H12.77a1.25,1.25,0,0,0-1.25,1.25V54.33a1.56,1.56,0,0,0,1.56,1.56H50.92a1.56,1.56,0,0,0,1.56-1.56V26a1.25,1.25,0,0,0-1.25-1.25H26.69A.14.14,0,0,1,26.55,24.57Z"/><path class="cls-2" d="M36.87,11.16h3.81a.24.24,0,0,1,.24.24v9.29a0,0,0,0,1,0,0H36.63a0,0,0,0,1,0,0V11.39A.24.24,0,0,1,36.87,11.16Z"/><path class="cls-3" d="M31.73,7.93,20.24,19.42a.38.38,0,0,0,.27.65h23a.38.38,0,0,0,.27-.65L32.27,7.93A.4.4,0,0,0,31.73,7.93Z"/><rect class="cls-3" x="23.09" y="19.06" width="17.82" height="11.4"/><path class="cls-2" d="M34.78,30.46H29.22V26.11A2.78,2.78,0,0,1,32,23.32h0a2.78,2.78,0,0,1,2.78,2.79Z"/><path class="cls-4" d="M51.3,55.89H12.7a1.34,1.34,0,0,1-1.33-1.17L8.2,31a1.34,1.34,0,0,1,1.33-1.52H54.47A1.34,1.34,0,0,1,55.8,31L52.63,54.72A1.34,1.34,0,0,1,51.3,55.89Z"/></svg>