<svg id="Layer_1" data-name="Layer 1" xmlns="http://www.w3.org/2000/svg" viewBox="0 0 64 64"><defs><style>.cls-1{fill:#DD1515;}.cls-2{fill:#FC0707;}.cls-3{fill:#fff;}.cls-4{fill:#e5cccc;}.cls-5{fill:#F4DFDF;}</style></defs><title>real, estate, property, key, apartment, building</title><path class="cls-1" d="M34,28.85a1.5,1.5,0,0,1,0-3,7.42,7.42,0,0,0,7.42-7.41,1.5,1.5,0,0,1,3,0A10.42,10.42,0,0,1,34,28.85Z"/><path class="cls-2" d="M22.14,26.68l-6.8,6.79a.81.81,0,0,1-.59.24l-4-.15A.78.78,0,0,1,10,32.8l-.14-4a.76.76,0,0,1,.23-.59l2-2a.15.15,0,0,1,.23,0l.3.3a.17.17,0,0,0,.23,0l.6-.6a.17.17,0,0,0,0-.23l-.3-.3a.15.15,0,0,1,0-.23l.4-.4a.16.16,0,0,1,.22,0l.42.41.41-.41-.41-.41a.17.17,0,0,1,0-.23l.64-.65a.17.17,0,0,1,.23,0l.3.3a.15.15,0,0,0,.23,0l1-1a.15.15,0,0,0,0-.23l-.3-.3a.17.17,0,0,1,0-.23l.56-.55a1.35,1.35,0,0,0,.37-1.18,7.42,7.42,0,1,1,6.1,6.11A1.33,1.33,0,0,0,22.14,26.68Z"/><circle class="cls-2" cx="24.51" cy="19" r="7.42"/><circle class="cls-3" cx="25.07" cy="18.44" r="2.06"/><path class="cls-1" d="M42.9,19.94a1.5,1.5,0,0,1-1.5-1.5,7.42,7.42,0,0,0-14.83,0,1.5,1.5,0,1,1-3,0,10.42,10.42,0,0,1,20.83,0A1.5,1.5,0,0,1,42.9,19.94Z"/><path class="cls-4" d="M33,20.43h3a.37.37,0,0,1,.37.37v1.7a0,0,0,0,1,0,0H32.58a0,0,0,0,1,0,0V20.8A.37.37,0,0,1,33,20.43Z"/><path class="cls-4" d="M49,20.43h5.52a.37.37,0,0,1,.37.37v1.7a0,0,0,0,1,0,0H48.62a0,0,0,0,1,0,0V20.8A.37.37,0,0,1,49,20.43Z"/><rect class="cls-5" x="32.39" y="23.56" width="22.5" height="32.44"/><rect class="cls-4" x="32.39" y="23.56" width="22.5" height="0.8"/><rect class="cls-4" x="31.28" y="21.11" width="24.72" height="2.45" rx="0.6"/><rect class="cls-4" x="35.71" y="26.23" width="3.93" height="3.93" rx="0.49"/><rect class="cls-4" x="41.67" y="26.23" width="3.93" height="3.93" rx="0.49"/><rect class="cls-4" x="47.63" y="26.23" width="3.93" height="3.93" rx="0.49"/><rect class="cls-4" x="35.71" y="32.03" width="3.93" height="3.93" rx="0.49"/><rect class="cls-4" x="41.67" y="32.03" width="3.93" height="3.93" rx="0.49"/><rect class="cls-4" x="47.63" y="32.03" width="3.93" height="3.93" rx="0.49"/><rect class="cls-4" x="35.71" y="37.83" width="3.93" height="3.93" rx="0.49"/><rect class="cls-4" x="41.67" y="37.83" width="3.93" height="3.93" rx="0.49"/><rect class="cls-4" x="47.63" y="37.83" width="3.93" height="3.93" rx="0.49"/><rect class="cls-4" x="35.71" y="43.63" width="3.93" height="3.93" rx="0.49"/><rect class="cls-4" x="41.67" y="43.63" width="3.93" height="3.93" rx="0.49"/><rect class="cls-4" x="47.63" y="43.63" width="3.93" height="3.93" rx="0.49"/><rect class="cls-4" x="35.71" y="49.43" width="3.93" height="3.93" rx="0.49"/><rect class="cls-3" x="41.67" y="49.43" width="3.93" height="3.93" rx="0.49"/><rect class="cls-4" x="47.63" y="49.43" width="3.93" height="3.93" rx="0.49"/><path class="cls-2" d="M45.28,48.71H42a.55.55,0,0,0-.55.55V56h4.38V49.26A.55.55,0,0,0,45.28,48.71Z"/><rect class="cls-2" x="40.06" y="55.14" width="7.16" height="0.86"/></svg>