<svg id="Layer_1" data-name="Layer 1" xmlns="http://www.w3.org/2000/svg" viewBox="0 0 64 64"><defs><style>.cls-1{fill:#DD1515;}.cls-2{fill:#FC0707;}.cls-3{fill:#F4DFDF;}</style></defs><title>real, estate, property, handover, house</title><path class="cls-1" d="M38.5,20h5.08a.32.32,0,0,1,.32.32v12.4a0,0,0,0,1,0,0H38.18a0,0,0,0,1,0,0V20.27A.32.32,0,0,1,38.5,20Z"/><path class="cls-2" d="M31.64,15.65,16.3,31a.5.5,0,0,0,.36.86H47.34A.5.5,0,0,0,47.7,31L32.36,15.65A.53.53,0,0,0,31.64,15.65Z"/><rect class="cls-2" x="20.1" y="30.51" width="23.8" height="15.23"/><path class="cls-1" d="M35.72,45.74H28.28V39.92A3.73,3.73,0,0,1,32,36.2h0a3.73,3.73,0,0,1,3.72,3.72Z"/><path class="cls-3" d="M34.08,53.54,32,53.1a23,23,0,0,1-8.51-3.73l-4.11-2.93L24,48.5a.84.84,0,0,0,1-.2,1.69,1.69,0,0,0-.15-2.45l-6.33-5.29A10,10,0,0,0,12,38.22a22.38,22.38,0,0,1-4-.34V48.23c2.09-.12,4.3-.09,6,1L20.46,53a22.83,22.83,0,0,0,11.18,3l2.82,0a.73.73,0,0,0,.68-.46A1.49,1.49,0,0,0,34.08,53.54Z"/><path class="cls-1" d="M8.44,37.09H9.67a1.46,1.46,0,0,1,1.46,1.46v9.17a1.46,1.46,0,0,1-1.46,1.46H8.44A.44.44,0,0,1,8,48.73V37.53A.44.44,0,0,1,8.44,37.09Z"/><path class="cls-3" d="M29.92,47.57l2.13-.45a23,23,0,0,0,8.51-3.73l4.11-2.93L40,42.52a.84.84,0,0,1-1-.2,1.7,1.7,0,0,1,.15-2.45l6.33-5.29A10,10,0,0,1,52,32.24a22.38,22.38,0,0,0,4-.34V42.25c-2.09-.12-4.3-.09-6,1L43.54,47a22.83,22.83,0,0,1-11.18,3l-2.82,0a.73.73,0,0,1-.68-.46A1.48,1.48,0,0,1,29.92,47.57Z"/><path class="cls-2" d="M53.31,31.11h1.23A1.46,1.46,0,0,1,56,32.57v9.17a1.46,1.46,0,0,1-1.46,1.46H53.31a.44.44,0,0,1-.44-.44V31.55A.44.44,0,0,1,53.31,31.11Z" transform="translate(108.88 74.3) rotate(180)"/></svg>