<svg id="Layer_1" data-name="Layer 1" xmlns="http://www.w3.org/2000/svg" viewBox="0 0 64 64"><defs><style>.cls-1{fill:#FC0707;}.cls-2{fill:#F4DFDF;}.cls-3{fill:#e5cccc;}.cls-4{fill:#fff;}.cls-5{fill:#DD1515;}</style></defs><title>real, estate, property, garage, car</title><rect class="cls-1" x="8" y="15.99" width="48" height="6.76" rx="0.8"/><rect class="cls-2" x="10.2" y="22.75" width="43.59" height="33.25"/><rect class="cls-3" x="10.2" y="22.75" width="43.59" height="1.25"/><path class="cls-3" d="M16.57,28.13H47.43a1.15,1.15,0,0,1,1.15,1.15V56a0,0,0,0,1,0,0H15.43a0,0,0,0,1,0,0V29.27A1.15,1.15,0,0,1,16.57,28.13Z"/><path class="cls-4" d="M47.43,28.12H16.57a1.15,1.15,0,0,0-1.14,1.15v3.11H48.57V29.27A1.15,1.15,0,0,0,47.43,28.12Z"/><rect class="cls-1" x="19.78" y="45.24" width="24.44" height="6.92" rx="0.96"/><path class="cls-5" d="M41.74,45.24H22.26l2.31-6.64a1.64,1.64,0,0,1,1.55-1.1H37.88a1.64,1.64,0,0,1,1.55,1.1Z"/><circle class="cls-2" cx="24.1" cy="48.7" r="1.11"/><circle class="cls-2" cx="39.9" cy="48.7" r="1.11"/><path class="cls-5" d="M21.47,52.16h4.81a0,0,0,0,1,0,0v2.69A1.15,1.15,0,0,1,25.12,56H22.62a1.15,1.15,0,0,1-1.15-1.15V52.16A0,0,0,0,1,21.47,52.16Z"/><path class="cls-5" d="M37.73,52.16h4.81a0,0,0,0,1,0,0v2.69A1.15,1.15,0,0,1,41.38,56H38.88a1.15,1.15,0,0,1-1.15-1.15V52.16A0,0,0,0,1,37.73,52.16Z"/></svg>