<svg id="Layer_1" data-name="Layer 1" xmlns="http://www.w3.org/2000/svg" viewBox="0 0 64 64"><defs><style>.cls-1{fill:#FC0707;}.cls-2{fill:#DD1515;}.cls-3{fill:#F4DFDF;}</style></defs><title>real, estate, property, blueprint, plan, layout</title><rect class="cls-1" x="14.41" y="16.66" width="35.19" height="39.34"/><path class="cls-2" d="M13.19,56A5.13,5.13,0,0,1,8,50.92v-36A5.13,5.13,0,0,0,13.19,20h2.29V56Z"/><path class="cls-3" d="M13.19,8.75A5.13,5.13,0,0,0,8,13.83v36a5.13,5.13,0,0,1,5.19-5.07h1.48a.81.81,0,0,0,.81-.8V9.54a.8.8,0,0,0-.81-.79Z"/><path class="cls-2" d="M50.81,56A5.13,5.13,0,0,0,56,50.92v-36A5.13,5.13,0,0,1,50.81,20H48.52V56Z"/><path class="cls-3" d="M50.81,8.75A5.13,5.13,0,0,1,56,13.83v36a5.13,5.13,0,0,0-5.19-5.07H49.33a.81.81,0,0,1-.81-.8V9.54a.8.8,0,0,1,.81-.79Z"/><polygon class="cls-2" points="42.52 23.84 36.58 23.84 36.58 26.52 41.18 26.52 41.18 37.1 34.96 37.1 34.96 39.77 41.18 39.77 41.18 46.14 30.72 46.14 30.72 42.04 28.04 42.04 28.04 46.14 22.82 46.14 22.82 37.67 28.04 37.67 28.04 39.05 30.72 39.05 30.72 33.61 28.04 33.61 28.04 34.99 22.82 34.99 22.82 26.52 28.04 26.52 28.04 30.62 30.72 30.62 30.72 26.52 32 26.52 32 23.84 21.48 23.84 20.14 25.18 20.14 47.48 21.48 48.82 42.52 48.82 43.86 47.48 43.86 25.18 42.52 23.84"/></svg>