<svg id="Layer_1" data-name="Layer 1" xmlns="http://www.w3.org/2000/svg" viewBox="0 0 64 64"><defs><style>.cls-1{fill:#ccd8e5;}.cls-2{fill:#dfe8f4;}.cls-3{fill:#ff5454;}.cls-4{fill:#dd1515;}</style></defs><title>real, estate, property, hand, gesture</title><path class="cls-1" d="M49.56,11.07h3.5a.22.22,0,0,1,.22.22v8.55a0,0,0,0,1,0,0H49.34a0,0,0,0,1,0,0V11.29A.22.22,0,0,1,49.56,11.07Z"/><path class="cls-1" d="M44.83,8.1,34.25,18.68a.35.35,0,0,0,.25.59H55.65a.35.35,0,0,0,.25-.59L45.32,8.1A.36.36,0,0,0,44.83,8.1Z"/><rect class="cls-1" x="36.87" y="18.35" width="16.41" height="10.49"/><path class="cls-2" d="M47.64,28.84H42.51v-4a2.56,2.56,0,0,1,2.57-2.56h0a2.56,2.56,0,0,1,2.56,2.56Z"/><path class="cls-3" d="M23.41,11.07h3.5a.22.22,0,0,1,.22.22v8.55a0,0,0,0,1,0,0H23.19a0,0,0,0,1,0,0V11.29A.22.22,0,0,1,23.41,11.07Z"/><path class="cls-3" d="M18.68,8.1,8.1,18.68a.35.35,0,0,0,.25.59H29.5a.35.35,0,0,0,.25-.59L19.17,8.1A.36.36,0,0,0,18.68,8.1Z"/><rect class="cls-3" x="10.72" y="18.35" width="16.41" height="10.49"/><path class="cls-4" d="M21.49,28.84H16.36v-4a2.56,2.56,0,0,1,2.56-2.56h0a2.56,2.56,0,0,1,2.57,2.56Z"/><path class="cls-3" d="M45.14,32.22l-.62-10.51a2.22,2.22,0,0,0-2.22-2.09h0a2.21,2.21,0,0,0-2.21,2.08L39,39.14a.49.49,0,0,1-.61.45l-2.8-.73a10,10,0,0,0-4.31-.15h0a1.44,1.44,0,0,0-1.2,1.43h0a1.45,1.45,0,0,0,1,1.37h0a10.74,10.74,0,0,1,4,2.52l1.68,1.68a12.39,12.39,0,0,1,3.66,8.79H54V53a5.3,5.3,0,0,1,.56-2.38h0A13.69,13.69,0,0,0,56,44.44V38.88a4.31,4.31,0,0,0-3.15-4.15L45.5,32.67A.52.52,0,0,1,45.14,32.22Z"/><path class="cls-2" d="M40.23,53.11H54.1A.88.88,0,0,1,55,54v1.64a0,0,0,0,1,0,0H39.35a0,0,0,0,1,0,0V54A.88.88,0,0,1,40.23,53.11Z"/></svg>