<svg id="Layer_1" data-name="Layer 1" xmlns="http://www.w3.org/2000/svg" viewBox="0 0 64 64"><defs><style>.cls-1{fill:#F4DFDF;}.cls-2{fill:#e5cccc;}.cls-3{fill:#DD1515;}.cls-4{fill:#FC0707;}</style></defs><title>real, estate, property, care, discount, percentage, sale</title><path class="cls-1" d="M8,41.57l4.77-.93a27.36,27.36,0,0,0,5-1.5h0a11.87,11.87,0,0,1,8-.37l9.14,2.81a1.91,1.91,0,0,1,1.25,2.51h0a1,1,0,0,1-1,.62l-5.92-.13L35,45.86a27.13,27.13,0,0,0,10.77.22l2.48-.45a1.71,1.71,0,0,1,2,1.66h0a.82.82,0,0,1-.53.77l-3,1.2a27,27,0,0,1-13.34,1.67l-8.57-1.08c-2.69-.51-5.49.84-7.94,2L8,56.25Z"/><polygon class="cls-2" points="10.38 41.11 8.03 41.57 8 56.25 10.38 55.09 10.38 41.11"/><path class="cls-3" d="M46.77,12.39h5a.31.31,0,0,1,.31.31V24.95a0,0,0,0,1,0,0H46.46a0,0,0,0,1,0,0V12.71A.31.31,0,0,1,46.77,12.39Z"/><path class="cls-4" d="M54.55,22,41.25,8.68a1.27,1.27,0,0,0-1.79,0L26.16,22a1.26,1.26,0,0,0,.89,2.15h1.56V36a1.89,1.89,0,0,0,1.89,1.89H50.21A1.89,1.89,0,0,0,52.1,36V24.14h1.56A1.26,1.26,0,0,0,54.55,22Z"/><circle class="cls-1" cx="36.93" cy="23.55" r="2.03"/><circle class="cls-1" cx="43.78" cy="30.39" r="2.03"/><path class="cls-1" d="M36.79,31.46a.92.92,0,0,1-.65-1.57l7.13-7.13a.92.92,0,0,1,1.3,1.3l-7.13,7.13A.92.92,0,0,1,36.79,31.46Z"/></svg>