<svg id="Layer_1" data-name="Layer 1" xmlns="http://www.w3.org/2000/svg" viewBox="0 0 64 64"><defs><style>.cls-1{fill:#F4DFDF;}.cls-2{fill:#FC0707;}.cls-3{fill:#DD1515;}</style></defs><title>real, estate, property, folder, file, house</title><path class="cls-1" d="M8,25.25H54.48A1.52,1.52,0,0,1,56,26.78v28a1.52,1.52,0,0,1-1.52,1.52h-45A1.52,1.52,0,0,1,8,54.73V25.25A0,0,0,0,1,8,25.25Z"/><path class="cls-2" d="M9.2,21.5H24.42a1.2,1.2,0,0,1,1.2,1.2v2.55a0,0,0,0,1,0,0H8a0,0,0,0,1,0,0V22.7a1.2,1.2,0,0,1,1.2-1.2Z"/><path class="cls-3" d="M36.87,33.38h3.81a.24.24,0,0,1,.24.24v9.29a0,0,0,0,1,0,0H36.63a0,0,0,0,1,0,0V33.62A.24.24,0,0,1,36.87,33.38Z"/><path class="cls-2" d="M31.73,30.16,20.24,41.65a.38.38,0,0,0,.27.64h23a.38.38,0,0,0,.27-.64L32.27,30.16A.38.38,0,0,0,31.73,30.16Z"/><rect class="cls-2" x="23.09" y="41.29" width="17.82" height="11.4"/><path class="cls-3" d="M34.78,52.69H29.22V48.33A2.77,2.77,0,0,1,32,45.55h0a2.77,2.77,0,0,1,2.78,2.78Z"/></svg>