<svg id="Layer_1" data-name="Layer 1" xmlns="http://www.w3.org/2000/svg" viewBox="0 0 64 64"><defs><style>.cls-1{fill:#DD1515;}.cls-2{fill:#F4DFDF;}.cls-3{fill:#e5cccc;}.cls-4{fill:#FC0707;}.cls-5{fill:#fff;}</style></defs><title>real, estate, property, sale, sign</title><path class="cls-1" d="M43.62,35.15a1.5,1.5,0,0,1-1.27-.7L30.73,16a1.5,1.5,0,1,1,2.54-1.59L44.89,32.86a1.49,1.49,0,0,1-.47,2.06A1.46,1.46,0,0,1,43.62,35.15Z"/><rect class="cls-2" x="8" y="29.75" width="48" height="26.25" rx="2.71"/><path class="cls-3" d="M42.35,34.45a1.5,1.5,0,0,0,1.27.7,1.46,1.46,0,0,0,.8-.23,1.49,1.49,0,0,0,.47-2.06l-2-3.11H39.39Z"/><path class="cls-4" d="M20.38,35.15a1.46,1.46,0,0,1-.8-.23,1.49,1.49,0,0,1-.47-2.06L30.73,14.4A1.5,1.5,0,1,1,33.27,16L21.65,34.45A1.5,1.5,0,0,1,20.38,35.15Z"/><path class="cls-2" d="M35.58,16.42A3.58,3.58,0,1,1,32,12.83,3.58,3.58,0,0,1,35.58,16.42Z"/><path class="cls-5" d="M21.22,41.75c-1.23-.47-1.53-.67-1.53-1s.42-.61,1.06-.61a4.2,4.2,0,0,1,1.81.41.25.25,0,0,0,.24,0,.29.29,0,0,0,.16-.18l.46-1.69a.28.28,0,0,0-.16-.33,5.89,5.89,0,0,0-2.47-.49c-2.23,0-3.78,1.26-3.78,3.06,0,1.36.92,2.37,2.72,3,1.15.41,1.36.68,1.36,1,0,.65-.82.72-1.18.72a5,5,0,0,1-2.18-.55.28.28,0,0,0-.25,0,.3.3,0,0,0-.16.19L16.9,47a.26.26,0,0,0,.13.31,6.35,6.35,0,0,0,2.76.6c3,0,4-1.69,4-3.15S23,42.4,21.22,41.75Z"/><path class="cls-5" d="M29.83,38H27.08a.29.29,0,0,0-.27.2L24,47.42a.28.28,0,0,0,0,.25.31.31,0,0,0,.23.12h2.17a.28.28,0,0,0,.27-.21l.6-2.17h2.22l.65,2.17a.3.3,0,0,0,.27.21h2.25a.29.29,0,0,0,.23-.12.28.28,0,0,0,0-.25L30.1,38.18A.29.29,0,0,0,29.83,38Zm-1.45,3c.07.24.13.48.2.7l.47,1.59H27.76l.45-1.6C28.27,41.47,28.33,41.23,28.38,41Z"/><path class="cls-5" d="M39.7,45.46H36.31v-7.2A.29.29,0,0,0,36,38H33.93a.29.29,0,0,0-.29.28V47.5a.29.29,0,0,0,.29.29H39.7A.28.28,0,0,0,40,47.5V45.75A.28.28,0,0,0,39.7,45.46Z"/><path class="cls-5" d="M46.83,45.5H43.32V43.88h3.11a.29.29,0,0,0,.29-.29V41.9a.29.29,0,0,0-.29-.29H43.32V40.26h3.32a.29.29,0,0,0,.28-.28V38.26a.29.29,0,0,0-.28-.28H40.93a.29.29,0,0,0-.28.28V47.5a.29.29,0,0,0,.28.29h5.9a.28.28,0,0,0,.28-.29V45.79A.28.28,0,0,0,46.83,45.5Z"/></svg>