<svg id="Layer_1" data-name="Layer 1" xmlns="http://www.w3.org/2000/svg" viewBox="0 0 64 64"><defs><style>.cls-1{fill:#FC0707;}.cls-2{fill:#e5cccc;}.cls-3{fill:#F4DFDF;}.cls-4{fill:#DD1515;}</style></defs><title>real, estate, property, chart, graph, bar</title><path class="cls-1" d="M22.22,31.9h1.69a.34.34,0,0,1,.34.34v2.63a0,0,0,0,1,0,0H21.88a0,0,0,0,1,0,0V32.23A.34.34,0,0,1,22.22,31.9Z" transform="translate(46.12 66.76) rotate(180)"/><path class="cls-1" d="M23.26,29.24l2,3a.23.23,0,0,1-.19.37H21a.24.24,0,0,1-.2-.37l2.06-3A.23.23,0,0,1,23.26,29.24Z"/><path class="cls-1" d="M11.35,13.61H13a.34.34,0,0,1,.34.34v2.63a0,0,0,0,1,0,0H11a0,0,0,0,1,0,0V13.94A.34.34,0,0,1,11.35,13.61Z" transform="translate(24.39 30.18) rotate(180)"/><path class="cls-1" d="M12.39,11l2.06,3a.24.24,0,0,1-.2.37H10.14a.24.24,0,0,1-.2-.37L12,11A.23.23,0,0,1,12.39,11Z"/><path class="cls-2" d="M9.3,18h5.78a1.3,1.3,0,0,1,1.3,1.3V56a0,0,0,0,1,0,0H8a0,0,0,0,1,0,0V19.31A1.3,1.3,0,0,1,9.3,18Z"/><path class="cls-3" d="M20.17,36H26a1.3,1.3,0,0,1,1.3,1.3V56a0,0,0,0,1,0,0H18.87a0,0,0,0,1,0,0V37.31A1.3,1.3,0,0,1,20.17,36Z"/><path class="cls-4" d="M47.85,33.75h4.39a.27.27,0,0,1,.27.27v10.7a0,0,0,0,1,0,0H47.58a0,0,0,0,1,0,0V34A.27.27,0,0,1,47.85,33.75Z"/><path class="cls-1" d="M41.93,30,28.69,43.28A.43.43,0,0,0,29,44H55.48a.43.43,0,0,0,.31-.74L42.55,30A.44.44,0,0,0,41.93,30Z"/><rect class="cls-1" x="31.97" y="42.86" width="20.54" height="13.14"/><path class="cls-4" d="M45.45,56H39V51a3.21,3.21,0,0,1,3.21-3.21h0A3.21,3.21,0,0,1,45.45,51Z"/></svg>