<svg id="Layer_1" data-name="Layer 1" xmlns="http://www.w3.org/2000/svg" viewBox="0 0 64 64"><defs><style>.cls-1{fill:#DD1515;}.cls-2{fill:#F4DFDF;}.cls-3{fill:#e5cccc;}.cls-4{fill:#FC0707;}.cls-5{fill:#fff;}</style></defs><title>real, estate, property, apartment, building</title><path class="cls-1" d="M50,53.48a3.74,3.74,0,0,0-5.6,0A2.54,2.54,0,0,0,42.09,56H52.27A2.53,2.53,0,0,0,50,53.48Z"/><path class="cls-1" d="M17.59,8h4a.5.5,0,0,1,.5.5v2.3a0,0,0,0,1,0,0H17.08a0,0,0,0,1,0,0V8.51A.5.5,0,0,1,17.59,8Z"/><path class="cls-1" d="M39.23,8h7.44a.5.5,0,0,1,.5.5v2.3a0,0,0,0,1,0,0H38.73a0,0,0,0,1,0,0V8.51A.5.5,0,0,1,39.23,8Z"/><rect class="cls-2" x="16.82" y="12.23" width="30.36" height="43.77"/><rect class="cls-3" x="16.82" y="12.23" width="30.36" height="1.08"/><rect class="cls-4" x="15.32" y="8.92" width="33.36" height="3.31" rx="0.81"/><rect class="cls-5" x="21.3" y="15.83" width="5.3" height="5.3" rx="0.67"/><rect class="cls-5" x="29.35" y="15.83" width="5.3" height="5.3" rx="0.67"/><rect class="cls-5" x="37.39" y="15.83" width="5.3" height="5.3" rx="0.67"/><rect class="cls-5" x="21.3" y="23.66" width="5.3" height="5.3" rx="0.67"/><rect class="cls-5" x="29.35" y="23.66" width="5.3" height="5.3" rx="0.67"/><rect class="cls-5" x="37.39" y="23.66" width="5.3" height="5.3" rx="0.67"/><rect class="cls-5" x="21.3" y="31.48" width="5.3" height="5.3" rx="0.67"/><rect class="cls-5" x="29.35" y="31.48" width="5.3" height="5.3" rx="0.67"/><rect class="cls-5" x="37.39" y="31.48" width="5.3" height="5.3" rx="0.67"/><rect class="cls-5" x="21.3" y="39.31" width="5.3" height="5.3" rx="0.67"/><rect class="cls-5" x="29.35" y="39.31" width="5.3" height="5.3" rx="0.67"/><rect class="cls-5" x="37.39" y="39.31" width="5.3" height="5.3" rx="0.67"/><rect class="cls-5" x="21.3" y="47.14" width="5.3" height="5.3" rx="0.67"/><rect class="cls-5" x="29.35" y="47.14" width="5.3" height="5.3" rx="0.67"/><rect class="cls-5" x="37.39" y="47.14" width="5.3" height="5.3" rx="0.67"/><path class="cls-1" d="M34.21,46.17H29.79a.74.74,0,0,0-.75.74V56H35V46.91A.74.74,0,0,0,34.21,46.17Z"/><rect class="cls-4" x="27.17" y="54.84" width="9.67" height="1.16"/><path class="cls-4" d="M19.62,53.48a3.74,3.74,0,0,0-5.6,0A2.53,2.53,0,0,0,11.73,56H21.91A2.54,2.54,0,0,0,19.62,53.48Z"/></svg>