<svg id="Layer_1" data-name="Layer 1" xmlns="http://www.w3.org/2000/svg" viewBox="0 0 64 64"><defs><style>.cls-1{fill:#F4DFDF;}.cls-2{fill:#FC0707;}.cls-3{fill:#DD1515;}</style></defs><title>real, estate, property, surrounding</title><path class="cls-1" d="M13.83,31.71c4.4-1.51,10.91-2.46,18.17-2.46s13.77.95,18.17,2.46C53.8,30.47,56,28.85,56,27.08,56,23.17,45.25,20,32,20S8,23.17,8,27.08C8,28.85,10.2,30.47,13.83,31.71Z"/><path class="cls-2" d="M20.57,36.24l-6.22-7.49v3.13C10.41,30.62,8,28.93,8,27.08v9.25c0,1.85,2.41,3.54,6.35,4.8v2.29l6-5.09A1.49,1.49,0,0,0,20.57,36.24Z"/><path class="cls-2" d="M49.65,31.88V28.75l-6.22,7.49a1.49,1.49,0,0,0,.19,2.09l6,5.09V41.13c3.94-1.26,6.35-3,6.35-4.8V27.08C56,28.93,53.59,30.62,49.65,31.88Z"/><path class="cls-2" d="M36,20.54h3.13a.2.2,0,0,1,.2.2v7.64a0,0,0,0,1,0,0H35.81a0,0,0,0,1,0,0V20.74A.2.2,0,0,1,36,20.54Z"/><path class="cls-2" d="M31.78,19l-9.46,9.46a.31.31,0,0,0,.22.53H41.46a.31.31,0,0,0,.22-.53L32.22,19A.31.31,0,0,0,31.78,19Z"/><path class="cls-2" d="M24.67,28.11v8.38c0,1.13,3.28,2,7.33,2s7.33-.92,7.33-2V28.11Z"/><path class="cls-3" d="M32,33.1a2.29,2.29,0,0,0-2.29,2.29v3c.72.07,1.49.11,2.29.11s1.57,0,2.29-.11v-3A2.29,2.29,0,0,0,32,33.1Z"/></svg>