<svg id="Layer_1" data-name="Layer 1" xmlns="http://www.w3.org/2000/svg" viewBox="0 0 64 64"><defs><style>.cls-1{fill:#dd1515;}.cls-2{fill:#dfe8f4;}.cls-3{fill:#ccd8e5;}.cls-4{fill:#ff5454;}.cls-5{fill:#fff;}</style></defs><title>real, estate, property, sign, house, home</title><path class="cls-1" d="M18.41,54.25a2.61,2.61,0,0,0-3.89,0A1.76,1.76,0,0,0,12.93,56H20A1.76,1.76,0,0,0,18.41,54.25Z"/><path class="cls-1" d="M47,12.29h6a.37.37,0,0,1,.37.37V27.22a0,0,0,0,1,0,0H46.62a0,0,0,0,1,0,0V12.66A.37.37,0,0,1,47,12.29Z"/><rect class="cls-2" x="25.6" y="25.02" width="27.73" height="17.88"/><path class="cls-3" d="M53.33,26.59,39.79,13.05a.46.46,0,0,0-.65,0L25.6,26.59Z"/><path class="cls-4" d="M55.39,23.08,40.92,8.6A2.06,2.06,0,0,0,38,8.6L23.54,23.08A2.05,2.05,0,0,0,25,26.59h0a1.46,1.46,0,0,0,1-.43l13-13a.59.59,0,0,1,.85,0l13,13a1.44,1.44,0,0,0,1,.43h0A2.05,2.05,0,0,0,55.39,23.08Z"/><path class="cls-4" d="M43.83,42.89H35.1V36.06a4.37,4.37,0,0,1,4.36-4.37h0a4.37,4.37,0,0,1,4.37,4.37Z"/><rect class="cls-4" x="8" y="35.91" width="21.94" height="13.96" rx="0.88"/><rect class="cls-1" x="17.47" y="49.88" width="3" height="6.13"/><path class="cls-4" d="M25.36,53.48a3.74,3.74,0,0,0-5.6,0A2.54,2.54,0,0,0,17.47,56H27.65A2.53,2.53,0,0,0,25.36,53.48Z"/><rect class="cls-5" x="12.93" y="39.35" width="12.08" height="1.08"/><rect class="cls-5" x="12.93" y="42.35" width="12.08" height="1.08"/><rect class="cls-5" x="12.93" y="45.35" width="6.04" height="1.08"/></svg>