<svg id="Layer_1" data-name="Layer 1" xmlns="http://www.w3.org/2000/svg" viewBox="0 0 64 64"><defs><style>.cls-1{fill:#FC0707;}.cls-2{fill:#DD1515;}.cls-3{fill:#F4DFDF;}.cls-4{fill:#e5cccc;}</style></defs><title>real, estate, property, flag, house</title><path class="cls-1" d="M44.08,13.54H55a1,1,0,0,1,1,1v7.82a1,1,0,0,1-1,1h-10a1,1,0,0,1-1-1V13.54A0,0,0,0,1,44.08,13.54Z"/><path class="cls-2" d="M44.08,22.33a1,1,0,0,0,1,1h0a1.88,1.88,0,0,0,1.32-.55L49.12,20l-5-2.36Z"/><path class="cls-3" d="M36.89,31.94H35.31V8.85a.79.79,0,0,1,.79-.79h0a.79.79,0,0,1,.79.79Z"/><path class="cls-1" d="M36.89,10.24H48.15a1,1,0,0,1,1,1V20a0,0,0,0,1,0,0H36.89a0,0,0,0,1,0,0V10.24A0,0,0,0,1,36.89,10.24Z"/><path class="cls-2" d="M32.22,25.23h6a.37.37,0,0,1,.37.37V40.24a0,0,0,0,1,0,0H31.85a0,0,0,0,1,0,0V25.6A.37.37,0,0,1,32.22,25.23Z"/><rect class="cls-3" x="10.72" y="38.03" width="27.88" height="17.97"/><path class="cls-4" d="M38.6,39.61,25,26a.47.47,0,0,0-.66,0L10.72,39.61Z"/><path class="cls-1" d="M40.68,36.07,26.13,21.52a2.07,2.07,0,0,0-2.93,0L8.65,36.07a2.07,2.07,0,0,0,1.46,3.54h0a1.48,1.48,0,0,0,1-.43L24.23,26.1a.6.6,0,0,1,.86,0L38.17,39.18a1.48,1.48,0,0,0,1,.43h0A2.08,2.08,0,0,0,40.68,36.07Z"/><path class="cls-1" d="M29.05,56H20.27V49.13a4.4,4.4,0,0,1,4.39-4.39h0a4.39,4.39,0,0,1,4.39,4.39Z"/></svg>