<svg id="Layer_1" data-name="Layer 1" xmlns="http://www.w3.org/2000/svg" viewBox="0 0 64 64"><defs><style>.cls-1{fill:#DD1515;}.cls-2{fill:#F4DFDF;}.cls-3{fill:#e5cccc;}.cls-4{fill:#FC0707;}</style></defs><title>real, estate, property, house, home</title><path class="cls-1" d="M51.07,34.44H41.84v-20a.51.51,0,0,1,.51-.52h8.21a.51.51,0,0,1,.51.52Z"/><rect class="cls-2" x="12.93" y="31.41" width="38.14" height="24.59"/><path class="cls-3" d="M51.07,33.58,32.45,15a.63.63,0,0,0-.9,0L12.93,33.58Z"/><path class="cls-4" d="M53.91,28.74,34,8.84a2.82,2.82,0,0,0-4,0L10.09,28.74a2.84,2.84,0,0,0,2,4.84h0A2,2,0,0,0,13.52,33L31.41,15.1a.83.83,0,0,1,1.18,0L50.48,33a2,2,0,0,0,1.42.59h0A2.84,2.84,0,0,0,53.91,28.74Z"/><path class="cls-4" d="M38,56H26V46.6a6,6,0,0,1,6-6h0a6,6,0,0,1,6,6Z"/></svg>