<svg id="Layer_1" data-name="Layer 1" xmlns="http://www.w3.org/2000/svg" viewBox="0 0 64 64"><defs><style>.cls-1{fill:#FC0707;}.cls-2{fill:#F4DFDF;}.cls-3{fill:#DD1515;}.cls-4{fill:#fff;}</style></defs><title>real, estate, property, billboard, marketing, commercial</title><path class="cls-1" d="M20.13,12.08H15.85a1,1,0,0,0-1,1.05v.08a1,1,0,0,0,1,1h0a1,1,0,0,1,1,1.05v1.14A1,1,0,0,0,18,17.5H18a1,1,0,0,0,1-1.05V15.31a1,1,0,0,1,1.05-1.05h0a1,1,0,0,0,1.05-1v-.08A1,1,0,0,0,20.13,12.08Z"/><path class="cls-1" d="M29.47,12.08H25.19a1,1,0,0,0-1.05,1.05v.08a1,1,0,0,0,1.05,1h0a1,1,0,0,1,1,1.05v1.14a1,1,0,0,0,1.05,1.05h.08a1,1,0,0,0,1.05-1.05V15.31a1,1,0,0,1,1-1.05h0a1,1,0,0,0,1.05-1v-.08A1,1,0,0,0,29.47,12.08Z"/><path class="cls-1" d="M38.81,12.08H34.53a1,1,0,0,0-1.05,1.05v.08a1,1,0,0,0,1.05,1h0a1,1,0,0,1,1,1.05v1.14a1,1,0,0,0,1.05,1.05h.08a1,1,0,0,0,1-1.05V15.31a1,1,0,0,1,1.05-1.05h0a1,1,0,0,0,1-1v-.08A1,1,0,0,0,38.81,12.08Z"/><path class="cls-1" d="M48.15,12.08H43.87a1,1,0,0,0-1,1.05v.08a1,1,0,0,0,1,1h0a1,1,0,0,1,1.05,1.05v1.14a1,1,0,0,0,1,1.05h.08a1,1,0,0,0,1.05-1.05V15.31a1,1,0,0,1,1-1.05h0a1,1,0,0,0,1.05-1v-.08A1,1,0,0,0,48.15,12.08Z"/><path class="cls-2" d="M11,16H53a1.89,1.89,0,0,1,1.89,1.89V45.17a0,0,0,0,1,0,0H9.08a0,0,0,0,1,0,0V17.85A1.89,1.89,0,0,1,11,16Z"/><rect class="cls-1" x="8" y="45.17" width="48" height="4.71" rx="0.99"/><rect class="cls-3" x="28.02" y="49.88" width="7.96" height="6.13"/><path class="cls-1" d="M29.41,24.06h3.5a.22.22,0,0,1,.22.22v8.55a0,0,0,0,1,0,0H29.19a0,0,0,0,1,0,0V24.28A.22.22,0,0,1,29.41,24.06Z"/><path class="cls-1" d="M24.68,21.09,14.1,31.67a.35.35,0,0,0,.25.59H35.5a.35.35,0,0,0,.25-.59L25.17,21.09A.36.36,0,0,0,24.68,21.09Z"/><rect class="cls-1" x="16.72" y="31.34" width="16.41" height="10.5"/><path class="cls-3" d="M27.49,41.83H22.36v-4a2.57,2.57,0,0,1,2.57-2.56h0a2.56,2.56,0,0,1,2.56,2.56Z"/><rect class="cls-4" x="37.91" y="26.37" width="12.08" height="1.08"/><rect class="cls-4" x="37.91" y="29.37" width="12.08" height="1.08"/><rect class="cls-4" x="37.91" y="32.37" width="12.08" height="1.08"/><rect class="cls-4" x="37.91" y="35.37" width="6.04" height="1.08"/></svg>