<svg id="Layer_1" data-name="Layer 1" xmlns="http://www.w3.org/2000/svg" viewBox="0 0 64 64"><defs><style>.cls-1{fill:#dd1515;}.cls-2{fill:#dfe8f4;}.cls-3{fill:#ccd8e5;}.cls-4{fill:#ff5454;}</style></defs><title>real, estate, property, medal, award, reward</title><path class="cls-1" d="M36.1,13h7a.44.44,0,0,1,.44.44V30.52a0,0,0,0,1,0,0H35.67a0,0,0,0,1,0,0V13.46A.44.44,0,0,1,36.1,13Z"/><rect class="cls-2" x="11.05" y="27.93" width="32.48" height="20.94"/><path class="cls-3" d="M43.53,29.78,27.67,13.92a.54.54,0,0,0-.76,0L11.05,29.78Z"/><path class="cls-4" d="M46,25.66,29,8.71a2.41,2.41,0,0,0-3.41,0l-17,17a2.41,2.41,0,0,0,1.71,4.12h0a1.74,1.74,0,0,0,1.22-.5L26.79,14a.72.72,0,0,1,1,0L43,29.28a1.72,1.72,0,0,0,1.21.5h0A2.41,2.41,0,0,0,46,25.66Z"/><path class="cls-4" d="M32.41,48.88H22.18v-8a5.11,5.11,0,0,1,5.11-5.11h0a5.11,5.11,0,0,1,5.12,5.11Z"/><path class="cls-2" d="M42.77,56l1.79-1.79a2.17,2.17,0,0,1,3.09,0L49.44,56a.61.61,0,0,0,1-.43V43.94H41.73V55.56A.61.61,0,0,0,42.77,56Z"/><path class="cls-3" d="M41.73,43.93v8.71a2.14,2.14,0,0,0,2.77-.37h0a2.15,2.15,0,0,1,3.2,0h0a2.15,2.15,0,0,0,2.78.37v-8.7H41.73Z"/><path class="cls-4" d="M47.7,32.55h0a2.16,2.16,0,0,1,3.76,1.56h0a2.16,2.16,0,0,0,2.27,2.26h0a2.16,2.16,0,0,1,1.55,3.76h0a2.15,2.15,0,0,0,0,3.2h0a2.16,2.16,0,0,1-1.55,3.76h0a2.16,2.16,0,0,0-2.27,2.26h0a2.16,2.16,0,0,1-3.76,1.56h0a2.15,2.15,0,0,0-3.2,0h0a2.15,2.15,0,0,1-3.75-1.56h0a2.16,2.16,0,0,0-2.27-2.26h0a2.16,2.16,0,0,1-1.56-3.76h0a2.15,2.15,0,0,0,0-3.2h0a2.16,2.16,0,0,1,1.56-3.76h0a2.16,2.16,0,0,0,2.27-2.26h0a2.15,2.15,0,0,1,3.75-1.56h0A2.15,2.15,0,0,0,47.7,32.55Z"/></svg>