<svg id="Layer_1" data-name="Layer 1" xmlns="http://www.w3.org/2000/svg" viewBox="0 0 64 64"><defs><style>.cls-1{fill:#dfe8f4;}.cls-2{fill:#ccd8e5;}.cls-3{fill:#ff5454;}.cls-4{fill:#dd1515;}</style></defs><title>real, estate, property, house, blueprints</title><rect class="cls-1" x="14.41" y="16.91" width="35.19" height="39.34"/><path class="cls-2" d="M13.19,56.25A5.13,5.13,0,0,1,8,51.17v-36a5.13,5.13,0,0,0,5.19,5.07h2.29v36Z"/><path class="cls-3" d="M13.19,9A5.13,5.13,0,0,0,8,14.08v36A5.13,5.13,0,0,1,13.19,45h1.48a.81.81,0,0,0,.81-.8V9.79A.8.8,0,0,0,14.67,9Z"/><path class="cls-2" d="M50.81,56.25A5.13,5.13,0,0,0,56,51.17v-36a5.13,5.13,0,0,1-5.19,5.07H48.52v36Z"/><path class="cls-3" d="M50.81,9A5.13,5.13,0,0,1,56,14.08v36A5.13,5.13,0,0,0,50.81,45H49.33a.81.81,0,0,1-.81-.8V9.79A.8.8,0,0,1,49.33,9Z"/><path class="cls-4" d="M36.87,25.63h3.81a.24.24,0,0,1,.24.24v9.29a0,0,0,0,1,0,0H36.63a0,0,0,0,1,0,0V25.87A.24.24,0,0,1,36.87,25.63Z"/><path class="cls-3" d="M31.73,22.41,20.24,33.9a.38.38,0,0,0,.27.64h23a.38.38,0,0,0,.27-.64L32.27,22.41A.38.38,0,0,0,31.73,22.41Z"/><rect class="cls-3" x="23.09" y="33.54" width="17.82" height="11.4"/><path class="cls-4" d="M34.78,44.94H29.22V40.58A2.78,2.78,0,0,1,32,37.8h0a2.78,2.78,0,0,1,2.78,2.78Z"/></svg>