<svg id="Layer_1" data-name="Layer 1" xmlns="http://www.w3.org/2000/svg" viewBox="0 0 64 64"><defs><style>.cls-1{fill:#DD1515;}.cls-2{fill:#F4DFDF;}.cls-3{fill:#e5cccc;}.cls-4{fill:#FC0707;}.cls-5{fill:#fff;}</style></defs><title>real, estate, property, calculator, calculation</title><path class="cls-1" d="M36.2,13h7a.44.44,0,0,1,.44.44V30.53a0,0,0,0,1,0,0H35.76a0,0,0,0,1,0,0V13.46A.44.44,0,0,1,36.2,13Z"/><rect class="cls-2" x="11.13" y="27.95" width="32.5" height="20.96"/><path class="cls-3" d="M43.63,29.79,27.76,13.92a.54.54,0,0,0-.76,0L11.13,29.79Z"/><path class="cls-4" d="M46.05,25.67l-17-17a2.4,2.4,0,0,0-3.41,0l-17,17a2.41,2.41,0,0,0,1.71,4.12h0a1.74,1.74,0,0,0,1.22-.5L26.88,14a.73.73,0,0,1,1,0L43.13,29.29a1.72,1.72,0,0,0,1.22.5h0A2.41,2.41,0,0,0,46.05,25.67Z"/><path class="cls-3" d="M32.5,48.9H22.26v-8a5.13,5.13,0,0,1,5.12-5.12h0a5.12,5.12,0,0,1,5.12,5.12Z"/><rect class="cls-4" x="32" y="32" width="24" height="24" rx="3.17"/><rect class="cls-4" x="35.03" y="35.03" width="8.02" height="8.02" rx="0.72"/><rect class="cls-1" x="44.95" y="35.03" width="8.02" height="17.94" rx="0.72"/><rect class="cls-4" x="35.03" y="44.95" width="8.02" height="8.02" rx="0.72"/><rect class="cls-5" x="37.34" y="38.53" width="3.4" height="1.03" rx="0.23"/><rect class="cls-5" x="37.34" y="38.53" width="3.4" height="1.03" rx="0.23" transform="translate(78.08 0) rotate(90)"/><rect class="cls-5" x="37.34" y="48.45" width="3.4" height="1.03" rx="0.23"/><rect class="cls-2" x="47.26" y="42.54" width="3.4" height="1.03" rx="0.23"/><rect class="cls-2" x="47.26" y="44.43" width="3.4" height="1.03" rx="0.23"/></svg>