<svg id="Layer_1" data-name="Layer 1" xmlns="http://www.w3.org/2000/svg" viewBox="0 0 64 64"><defs><style>.cls-1{fill:#F4DFDF;}.cls-2{fill:#e5cccc;}.cls-3{fill:#DD1515;}.cls-4{fill:#FC0707;}.cls-5{fill:#fff;}</style></defs><title>real, estate, property, presentation, graph</title><path class="cls-1" d="M9.38,13.75H54.63a0,0,0,0,1,0,0v29a3.17,3.17,0,0,1-3.17,3.17H12.55a3.17,3.17,0,0,1-3.17-3.17v-29A0,0,0,0,1,9.38,13.75Z"/><rect class="cls-2" x="9.38" y="13.75" width="45.25" height="2.17"/><path class="cls-3" d="M34.54,10.54A2.54,2.54,0,1,1,32,8,2.54,2.54,0,0,1,34.54,10.54Z"/><rect class="cls-4" x="8" y="10.25" width="48" height="4" rx="0.9"/><path class="cls-3" d="M28.49,52.49A3.51,3.51,0,0,0,32.05,56a3.55,3.55,0,0,0,3.46-3.46,3.51,3.51,0,0,0-1.82-3.12.78.78,0,0,1-.4-.68V45.92H30.71v2.81a.77.77,0,0,1-.41.69A3.51,3.51,0,0,0,28.49,52.49Zm3.51.94a.94.94,0,1,1,.94-.94A.94.94,0,0,1,32,53.43Z"/><path class="cls-5" d="M41.47,23.41a6.93,6.93,0,1,0,6.92,6.92H41.47Z"/><path class="cls-4" d="M41.47,22.56v7.77h7.77a.73.73,0,0,0,.72-.78,8.55,8.55,0,0,0-7.71-7.71A.73.73,0,0,0,41.47,22.56Z"/><path class="cls-3" d="M26.49,24h2.68a.17.17,0,0,1,.17.17v6.53a0,0,0,0,1,0,0h-3a0,0,0,0,1,0,0V24.19A.17.17,0,0,1,26.49,24Z"/><path class="cls-4" d="M22.87,21.75l-8.08,8.09a.26.26,0,0,0,.19.45H31.15a.27.27,0,0,0,.19-.45l-8.09-8.09A.28.28,0,0,0,22.87,21.75Z"/><rect class="cls-4" x="16.79" y="29.58" width="12.54" height="8.02"/><path class="cls-3" d="M25,37.61H21.1V34.54a2,2,0,0,1,2-2h0a2,2,0,0,1,2,2Z"/></svg>