<svg id="Layer_1" data-name="Layer 1" xmlns="http://www.w3.org/2000/svg" viewBox="0 0 64 64"><defs><style>.cls-1{fill:#ff5454;}.cls-2{fill:#dd1515;}.cls-3{fill:#ccd8e5;}.cls-4{fill:#dfe8f4;}.cls-5{fill:#fff;}</style></defs><title>real, estate, property, city, apartment, building</title><path class="cls-1" d="M47.35,32.69h6.33a.6.6,0,0,1,.6.6V46.94a0,0,0,0,1,0,0H46.75a0,0,0,0,1,0,0V33.29A.6.6,0,0,1,47.35,32.69Z"/><path class="cls-2" d="M8.42,22.06h2.16a.42.42,0,0,1,.42.42v7.21a0,0,0,0,1,0,0H8a0,0,0,0,1,0,0V22.48A.42.42,0,0,1,8.42,22.06Z"/><path class="cls-2" d="M8,26.29h4.78a1,1,0,0,1,1,1V53.63a0,0,0,0,1,0,0H8a0,0,0,0,1,0,0V26.29A0,0,0,0,1,8,26.29Z"/><rect class="cls-2" x="8" y="28.65" width="10.97" height="27.33"/><path class="cls-3" d="M31.51,10.28l-9.07,5.24a1,1,0,0,0-.49.84V39.78a1,1,0,0,0,1,1H41.08a1,1,0,0,0,1-1V16.36a1,1,0,0,0-.49-.84l-9.07-5.24A1,1,0,0,0,31.51,10.28Z"/><path class="cls-4" d="M31.51,16.41l-12.06,7a1,1,0,0,0-.48.84V56H45V24.21a1,1,0,0,0-.48-.84l-12.06-7A1,1,0,0,0,31.51,16.41Z"/><path class="cls-3" d="M30.92,8h2.16a.42.42,0,0,1,.42.42v7.21a0,0,0,0,1,0,0h-3a0,0,0,0,1,0,0V8.42A.42.42,0,0,1,30.92,8Z"/><path class="cls-1" d="M49.43,29.69H51.6a.42.42,0,0,1,.42.42v7.21a0,0,0,0,1,0,0H49a0,0,0,0,1,0,0V30.11A.42.42,0,0,1,49.43,29.69Z"/><path class="cls-3" d="M23.62,25.88h1.1a.39.39,0,0,1,.39.39v2.35a.39.39,0,0,1-.39.39h-1.1a.38.38,0,0,1-.38-.38V26.26A.38.38,0,0,1,23.62,25.88Z"/><path class="cls-3" d="M27.54,25.88h1.1a.38.38,0,0,1,.38.38v2.35a.39.39,0,0,1-.39.39h-1.1a.39.39,0,0,1-.39-.39V26.26A.39.39,0,0,1,27.54,25.88Z"/><rect class="cls-3" x="31.07" y="25.88" width="1.87" height="3.13" rx="0.39"/><path class="cls-3" d="M35.37,25.88h1.1a.39.39,0,0,1,.39.39v2.35a.39.39,0,0,1-.39.39h-1.1a.38.38,0,0,1-.38-.38V26.26A.39.39,0,0,1,35.37,25.88Z"/><rect class="cls-5" x="38.9" y="25.88" width="1.87" height="3.13" rx="0.39"/><path class="cls-5" d="M23.62,31.35h1.1a.39.39,0,0,1,.39.39v2.35a.39.39,0,0,1-.39.39h-1.1a.38.38,0,0,1-.38-.38V31.74A.38.38,0,0,1,23.62,31.35Z"/><path class="cls-3" d="M27.54,31.35h1.1a.39.39,0,0,1,.39.39v2.35a.38.38,0,0,1-.38.38h-1.1a.39.39,0,0,1-.39-.39V31.74A.39.39,0,0,1,27.54,31.35Z"/><rect class="cls-1" x="31.07" y="31.35" width="1.87" height="3.13" rx="0.39"/><path class="cls-3" d="M35.37,31.35h1.1a.39.39,0,0,1,.39.39v2.35a.39.39,0,0,1-.39.39h-1.1a.38.38,0,0,1-.38-.38V31.74A.39.39,0,0,1,35.37,31.35Z"/><path class="cls-3" d="M39.28,31.35h1.1a.38.38,0,0,1,.38.38v2.36a.38.38,0,0,1-.38.38h-1.1a.39.39,0,0,1-.39-.39V31.74A.39.39,0,0,1,39.28,31.35Z"/><path class="cls-3" d="M23.62,36.83h1.1a.39.39,0,0,1,.39.39v2.35a.39.39,0,0,1-.39.39h-1.1a.38.38,0,0,1-.38-.38V37.22A.38.38,0,0,1,23.62,36.83Z"/><path class="cls-3" d="M27.54,36.83h1.1a.38.38,0,0,1,.38.38v2.35a.39.39,0,0,1-.39.39h-1.1a.39.39,0,0,1-.39-.39V37.22A.39.39,0,0,1,27.54,36.83Z"/><rect class="cls-3" x="31.07" y="36.83" width="1.87" height="3.13" rx="0.39"/><path class="cls-5" d="M35.37,36.83h1.1a.39.39,0,0,1,.39.39v2.35a.39.39,0,0,1-.39.39h-1.1a.38.38,0,0,1-.38-.38V37.22A.38.38,0,0,1,35.37,36.83Z"/><path class="cls-3" d="M39.28,36.83h1.1a.38.38,0,0,1,.38.38v2.35a.39.39,0,0,1-.39.39h-1.1a.39.39,0,0,1-.39-.39V37.22A.39.39,0,0,1,39.28,36.83Z"/><path class="cls-3" d="M23.62,42.31h1.1a.39.39,0,0,1,.39.39v2.35a.39.39,0,0,1-.39.39h-1.1a.38.38,0,0,1-.38-.38V42.7A.38.38,0,0,1,23.62,42.31Z"/><path class="cls-5" d="M27.54,42.31h1.1a.38.38,0,0,1,.38.38v2.35a.39.39,0,0,1-.39.39h-1.1a.39.39,0,0,1-.39-.39V42.7A.39.39,0,0,1,27.54,42.31Z"/><rect class="cls-3" x="31.07" y="42.31" width="1.87" height="3.13" rx="0.39"/><path class="cls-3" d="M35.37,42.31h1.1a.39.39,0,0,1,.39.39v2.35a.39.39,0,0,1-.39.39h-1.1a.38.38,0,0,1-.38-.38V42.7A.39.39,0,0,1,35.37,42.31Z"/><rect class="cls-3" x="38.9" y="42.31" width="1.87" height="3.13" rx="0.39"/><path class="cls-3" d="M23.62,47.79h1.1a.39.39,0,0,1,.39.39v2.35a.39.39,0,0,1-.39.39h-1.1a.38.38,0,0,1-.38-.38V48.18A.38.38,0,0,1,23.62,47.79Z"/><path class="cls-3" d="M27.54,47.79h1.1a.39.39,0,0,1,.39.39v2.35a.38.38,0,0,1-.38.38h-1.1a.39.39,0,0,1-.39-.39V48.18A.39.39,0,0,1,27.54,47.79Z"/><rect class="cls-3" x="31.07" y="47.79" width="1.87" height="3.13" rx="0.39"/><path class="cls-5" d="M35.37,47.79h1.1a.39.39,0,0,1,.39.39v2.35a.39.39,0,0,1-.39.39h-1.1a.38.38,0,0,1-.38-.38V48.18A.39.39,0,0,1,35.37,47.79Z"/><path class="cls-3" d="M39.28,47.79h1.1a.38.38,0,0,1,.38.38v2.36a.38.38,0,0,1-.38.38h-1.1a.39.39,0,0,1-.39-.39V48.18A.39.39,0,0,1,39.28,47.79Z"/><path class="cls-3" d="M25.1,56V53.66a.38.38,0,0,0-.38-.39h-1.1a.38.38,0,0,0-.38.39V56Z"/><path class="cls-3" d="M29,56V53.66a.38.38,0,0,0-.39-.39H27.54a.38.38,0,0,0-.39.39V56Z"/><path class="cls-5" d="M32.93,56V53.66a.38.38,0,0,0-.38-.39h-1.1a.38.38,0,0,0-.38.39V56Z"/><path class="cls-3" d="M36.85,56V53.66a.38.38,0,0,0-.39-.39H35.37a.38.38,0,0,0-.39.39V56Z"/><path class="cls-3" d="M40.76,56V53.66a.38.38,0,0,0-.38-.39h-1.1a.38.38,0,0,0-.38.39V56Z"/><rect class="cls-1" x="10.08" y="32" width="6.81" height="1.31" rx="0.35"/><rect class="cls-1" x="10.08" y="35.25" width="6.81" height="1.31" rx="0.35"/><rect class="cls-1" x="10.08" y="38.5" width="6.81" height="1.31" rx="0.35"/><rect class="cls-1" x="10.08" y="41.75" width="6.81" height="1.31" rx="0.35"/><rect class="cls-1" x="10.08" y="45" width="6.81" height="1.31" rx="0.35"/><rect class="cls-1" x="10.08" y="48.25" width="6.81" height="1.31" rx="0.35"/><rect class="cls-1" x="10.08" y="51.5" width="6.81" height="1.31" rx="0.35"/><rect class="cls-1" x="45.03" y="35.25" width="10.97" height="20.75"/><rect class="cls-2" x="46.75" y="37.75" width="1.77" height="1.77" rx="0.36"/><rect class="cls-2" x="49.63" y="37.75" width="1.77" height="1.77" rx="0.36"/><rect class="cls-2" x="52.51" y="37.75" width="1.77" height="1.77" rx="0.36"/><rect class="cls-2" x="46.75" y="40.75" width="1.77" height="1.77" rx="0.36"/><rect class="cls-2" x="49.63" y="40.75" width="1.77" height="1.77" rx="0.36"/><rect class="cls-2" x="52.51" y="40.75" width="1.77" height="1.77" rx="0.36"/><rect class="cls-2" x="46.75" y="43.75" width="1.77" height="1.77" rx="0.36"/><rect class="cls-2" x="49.63" y="43.75" width="1.77" height="1.77" rx="0.36"/><rect class="cls-2" x="52.51" y="43.75" width="1.77" height="1.77" rx="0.36"/><rect class="cls-2" x="46.75" y="46.75" width="1.77" height="1.77" rx="0.36"/><rect class="cls-2" x="49.63" y="46.75" width="1.77" height="1.77" rx="0.36"/><rect class="cls-2" x="52.51" y="46.75" width="1.77" height="1.77" rx="0.36"/><rect class="cls-2" x="46.75" y="49.75" width="1.77" height="1.77" rx="0.36"/><rect class="cls-2" x="49.63" y="49.75" width="1.77" height="1.77" rx="0.36"/><rect class="cls-2" x="52.51" y="49.75" width="1.77" height="1.77" rx="0.36"/><rect class="cls-2" x="46.75" y="52.75" width="1.77" height="1.77" rx="0.36"/><rect class="cls-2" x="49.63" y="52.75" width="1.77" height="1.77" rx="0.36"/><rect class="cls-2" x="52.51" y="52.75" width="1.77" height="1.77" rx="0.36"/></svg>