<svg id="Layer_1" data-name="Layer 1" xmlns="http://www.w3.org/2000/svg" viewBox="0 0 64 64"><defs><style>.cls-1{fill:#ff5454;}.cls-2{fill:#ccd8e5;}.cls-3{fill:#dd1515;}.cls-4{fill:#dfe8f4;}</style></defs><title>real, estate, property, building, home_1</title><rect class="cls-1" x="27.95" y="19.33" width="8.1" height="6.25"/><rect class="cls-2" x="10.63" y="30.38" width="42.75" height="25.63"/><path class="cls-3" d="M55,36.78H9A1,1,0,0,1,8,35.6l2.62-12.68a1,1,0,0,1,1-.78H52.4a1,1,0,0,1,1,.78L56,35.6A1,1,0,0,1,55,36.78Z"/><polygon class="cls-4" points="32 25.59 20.24 32.38 20.24 56 43.76 56 43.76 32.38 32 25.59"/><path class="cls-2" d="M20.24,36.86l11.24-6.49a1,1,0,0,1,1,0l11.24,6.49V33.4L32.75,27a1.49,1.49,0,0,0-1.5,0l-11,6.36Z"/><path class="cls-1" d="M46,35.19a1.53,1.53,0,0,1-.75-.2L32.54,27.63a1.09,1.09,0,0,0-1.08,0L18.72,35a1.5,1.5,0,0,1-2.15-.78,1.55,1.55,0,0,1,.72-1.86l14-8.06a1.49,1.49,0,0,1,1.5,0l13.94,8.05a1.57,1.57,0,0,1,.72,1.94A1.5,1.5,0,0,1,46,35.19Z"/><path class="cls-1" d="M35.79,56H28.21V45.46A3.79,3.79,0,0,1,32,41.67h0a3.79,3.79,0,0,1,3.79,3.79Z"/><rect class="cls-3" x="27.42" y="18.21" width="9.17" height="1.13" rx="0.35"/></svg>