<svg id="Layer_1" data-name="Layer 1" xmlns="http://www.w3.org/2000/svg" viewBox="0 0 64 64"><defs><style>.cls-1{fill:#dd1515;}.cls-2{fill:#dfe8f4;}.cls-3{fill:#ff5454;}</style></defs><title>real, estate, property, lightbulb, house, home</title><circle class="cls-1" cx="32" cy="52.09" r="3.91"/><path class="cls-2" d="M51.06,27.06A19.06,19.06,0,1,0,19.91,41.77a11,11,0,0,1,4,8.49v1.19a2.72,2.72,0,0,0,2.73,2.72H37.33a2.72,2.72,0,0,0,2.73-2.72V50.26a10.94,10.94,0,0,1,4-8.47A19,19,0,0,0,51.06,27.06Z"/><path class="cls-3" d="M23.88,49.1a11.12,11.12,0,0,1,.06,1.16v1.19a2.72,2.72,0,0,0,2.73,2.72H37.33a2.72,2.72,0,0,0,2.73-2.72V50.26a11.12,11.12,0,0,1,.06-1.16Z"/><path class="cls-1" d="M36.48,20.1H40a.22.22,0,0,1,.22.22v8.55a0,0,0,0,1,0,0H36.26a0,0,0,0,1,0,0V20.32A.22.22,0,0,1,36.48,20.1Z"/><path class="cls-3" d="M31.75,17.13,21.18,27.71a.35.35,0,0,0,.25.59H42.57a.35.35,0,0,0,.25-.59L32.25,17.13A.37.37,0,0,0,31.75,17.13Z"/><rect class="cls-3" x="23.8" y="27.37" width="16.4" height="10.49"/><path class="cls-1" d="M34.56,37.87H29.44v-4A2.56,2.56,0,0,1,32,31.29h0a2.56,2.56,0,0,1,2.56,2.57Z"/></svg>