<svg id="Layer_1" data-name="Layer 1" xmlns="http://www.w3.org/2000/svg" viewBox="0 0 64 64"><defs><style>.cls-1{fill:#dfe8f4;}.cls-2{fill:#ccd8e5;}.cls-3{fill:#ff5454;}.cls-4{fill:#fff;}</style></defs><title>real, estate, property, message, email, mail</title><path class="cls-1" d="M16.37,23H47.63A8.37,8.37,0,0,1,56,31.41V53.16A2.88,2.88,0,0,1,53.12,56H10.88A2.88,2.88,0,0,1,8,53.16V31.41A8.37,8.37,0,0,1,16.37,23Z"/><path class="cls-2" d="M56,53.16V29.42A6.39,6.39,0,0,0,49.61,23H32.24c-2.43,6.73-4.61,13.43-4.61,14.19v4.14a2.57,2.57,0,0,0,1.29,2.23L48.15,54.71a10,10,0,0,0,5,1.33h0A2.88,2.88,0,0,0,56,53.16Z"/><path class="cls-3" d="M56,29.86a9.74,9.74,0,0,0-4.87-8.44L33,11a2,2,0,0,0-2,0L12.87,21.42A9.74,9.74,0,0,0,8,29.86s0,0,0,.06,0,.09,0,.14a2.57,2.57,0,0,0,1.29,2.23L31,44.83a2,2,0,0,0,2,0L54.71,32.29A2.57,2.57,0,0,0,56,30.06s0-.09,0-.14S56,29.88,56,29.86Z"/><path class="cls-1" d="M36,21.86h3.11a.19.19,0,0,1,.19.19v7.58a0,0,0,0,1,0,0h-3.5a0,0,0,0,1,0,0V22A.19.19,0,0,1,36,21.86Z"/><path class="cls-4" d="M31.78,19.22,22.4,28.61a.3.3,0,0,0,.22.52H41.38a.3.3,0,0,0,.22-.52l-9.38-9.39A.31.31,0,0,0,31.78,19.22Z"/><rect class="cls-4" x="24.72" y="28.31" width="14.55" height="9.31"/><path class="cls-1" d="M34.27,37.62H29.73V34.06A2.27,2.27,0,0,1,32,31.79h0a2.27,2.27,0,0,1,2.27,2.27Z"/></svg>