<svg id="Layer_1" data-name="Layer 1" xmlns="http://www.w3.org/2000/svg" viewBox="0 0 64 64"><defs><style>.cls-1{fill:#dd1515;}.cls-2{fill:#dfe8f4;}.cls-3{fill:#ccd8e5;}.cls-4{fill:#ff5454;}</style></defs><title>real, estate, property, settings, options, preference</title><rect class="cls-1" x="27.95" y="14.58" width="8.1" height="6.25"/><rect class="cls-2" x="10.63" y="25.62" width="42.75" height="30.4"/><path class="cls-1" d="M55,32H9a1,1,0,0,1-1-1.18l2.62-12.68a1,1,0,0,1,1-.78H52.4a1,1,0,0,1,1,.78L56,30.85A1,1,0,0,1,55,32Z"/><polygon class="cls-2" points="32 20.84 20.24 27.63 20.24 56.02 43.76 56.02 43.76 27.63 32 20.84"/><path class="cls-3" d="M20.24,32.11l11.24-6.49a1,1,0,0,1,1,0l11.24,6.49V28.65l-11-6.36a1.49,1.49,0,0,0-1.5,0l-11,6.36Z"/><path class="cls-4" d="M46,30.44a1.44,1.44,0,0,1-.75-.21L32.54,22.88a1.09,1.09,0,0,0-1.08,0L18.72,30.23a1.49,1.49,0,0,1-2.15-.77,1.55,1.55,0,0,1,.72-1.86l14-8.06a1.49,1.49,0,0,1,1.5,0l13.94,8.05a1.57,1.57,0,0,1,.72,1.94A1.5,1.5,0,0,1,46,30.44Z"/><rect class="cls-1" x="27.42" y="13.46" width="9.17" height="1.13" rx="0.35"/><path class="cls-4" d="M40.31,42.11a1.48,1.48,0,0,0,0-.21,2.81,2.81,0,0,1,.91-2.14h0a1.25,1.25,0,0,0,.25-1.55l-1.35-2.34a1.26,1.26,0,0,0-1.47-.56l-.16,0a2.47,2.47,0,0,1-2.08-.29c-.16-.1-.33-.19-.5-.28a2.49,2.49,0,0,1-1.29-1.66l0-.08A1.27,1.27,0,0,0,33.35,32h-2.7a1.24,1.24,0,0,0-1.22,1l0,.17a2.49,2.49,0,0,1-1.29,1.66c-.17.09-.34.18-.5.28a2.47,2.47,0,0,1-2.08.29l-.08,0a1.28,1.28,0,0,0-1.55.53l-1.35,2.34a1.25,1.25,0,0,0,.25,1.55h0a2.81,2.81,0,0,1,.91,2.14,2.21,2.21,0,0,0,0,.42,2.79,2.79,0,0,1-.91,2.14h0A1.25,1.25,0,0,0,22.54,46l1.35,2.34a1.26,1.26,0,0,0,1.47.56l.16,0a2.47,2.47,0,0,1,2.08.29c.16.1.32.2.49.29A2.49,2.49,0,0,1,29.4,51.1l0,.14a1.26,1.26,0,0,0,1.23,1h2.7a1.24,1.24,0,0,0,1.22-1l0-.16a2.44,2.44,0,0,1,1.29-1.66l.5-.29a2.47,2.47,0,0,1,2.08-.29l.08,0a1.29,1.29,0,0,0,1.55-.54L41.46,46a1.25,1.25,0,0,0-.25-1.55h0a2.79,2.79,0,0,1-.91-2.14A1.48,1.48,0,0,0,40.31,42.11Z"/><path class="cls-3" d="M35,42.11a3,3,0,1,1-3-3A3,3,0,0,1,35,42.11Z"/></svg>