<svg id="Layer_1" data-name="Layer 1" xmlns="http://www.w3.org/2000/svg" viewBox="0 0 64 64"><defs><style>.cls-1{fill:#e5cccc;}.cls-2{fill:#DD1515;}.cls-3{fill:#F4DFDF;}.cls-4{fill:#FC0707;}</style></defs><title>real, estate, property, home, garage</title><rect class="cls-1" x="9.25" y="42.81" width="13.84" height="13.19"/><path class="cls-2" d="M28.65,21.25h4.11a.64.64,0,0,1,.64.64v6.55a0,0,0,0,1,0,0H28a0,0,0,0,1,0,0V21.89A.64.64,0,0,1,28.65,21.25Z"/><path class="cls-2" d="M39.67,43.19H8.73A.73.73,0,0,1,8,42.34l1.35-7.8a.73.73,0,0,1,.72-.6h28a.73.73,0,0,1,.72.58l1.58,7.8A.72.72,0,0,1,39.67,43.19Z"/><rect class="cls-3" x="23.09" y="33.94" width="31.24" height="22.06"/><rect class="cls-1" x="23.09" y="33.94" width="31.24" height="1.85"/><path class="cls-4" d="M55.08,33.94H22.3a.77.77,0,0,1-.76-.9L23,24.77a.76.76,0,0,1,.75-.64H53.4a.77.77,0,0,1,.75.62L55.83,33A.77.77,0,0,1,55.08,33.94Z"/><rect class="cls-4" x="28.02" y="37.81" width="5.38" height="5.38" rx="0.45"/><rect class="cls-4" x="36.01" y="37.81" width="5.38" height="5.38" rx="0.45"/><rect class="cls-4" x="44.01" y="37.81" width="5.38" height="5.38" rx="0.45"/><rect class="cls-4" x="28.02" y="45.22" width="5.38" height="5.38" rx="0.45"/><path class="cls-2" d="M36.46,45.22h4.49a.45.45,0,0,1,.45.45V56a0,0,0,0,1,0,0H36a0,0,0,0,1,0,0V45.66A.45.45,0,0,1,36.46,45.22Z"/><rect class="cls-4" x="44.01" y="45.22" width="5.38" height="5.38" rx="0.45"/><path class="cls-3" d="M12.05,45.22h8.23a.63.63,0,0,1,.63.63V56a0,0,0,0,1,0,0H11.43a0,0,0,0,1,0,0V45.84A.63.63,0,0,1,12.05,45.22Z"/><rect class="cls-1" x="10.4" y="46.52" width="11.53" height="0.35"/><rect class="cls-1" x="10.4" y="48.46" width="11.53" height="0.35"/><rect class="cls-1" x="10.4" y="50.39" width="11.53" height="0.35"/><rect class="cls-1" x="10.4" y="52.33" width="11.53" height="0.35"/><rect class="cls-1" x="10.4" y="54.27" width="11.53" height="0.35"/><rect class="cls-1" x="8.01" y="54.56" width="3.11" height="1.44"/><rect class="cls-3" x="52.73" y="54.56" width="3.11" height="1.44"/><rect class="cls-3" x="21.53" y="54.56" width="3.11" height="1.44"/></svg>