<svg id="Layer_1" data-name="Layer 1" xmlns="http://www.w3.org/2000/svg" viewBox="0 0 65 65"><defs><style>.cls-1{fill:#FC0707;}.cls-2{fill:#DD1515;}.cls-3{fill:#F4DFDF;}.cls-4{fill:#e5cccc;}</style></defs><title>real, estate, property, fence, garden</title><path class="cls-1" d="M44.82,17.59a5.23,5.23,0,0,1-2.34-2.51,10.93,10.93,0,0,0-20,0,5.32,5.32,0,0,1-2.34,2.51,9.13,9.13,0,0,0,4.35,17.16c.27,0,.54,0,.8,0a9.11,9.11,0,0,0,14.42,0c.27,0,.53,0,.8,0a9.13,9.13,0,0,0,4.36-17.16Z"/><path class="cls-2" d="M38.44,26.44h0a2.29,2.29,0,0,0-3.23,0l-2.47,2.47a.4.4,0,0,1-.57,0l-2.48-2.47a2.28,2.28,0,0,0-3.22,0h0a2.27,2.27,0,0,0,0,3.23L27.78,31a8.17,8.17,0,0,1,2.39,5.77V44.5h4.57V36.75A8.17,8.17,0,0,1,37.13,31l1.31-1.31A2.29,2.29,0,0,0,38.44,26.44Z"/><path class="cls-3" d="M14.19,41.58a.77.77,0,0,0-.39-.68l-2.06-1.19a.8.8,0,0,0-.79,0L8.89,40.9a.79.79,0,0,0-.39.68V55.71a.79.79,0,0,0,.79.79h4.12a.78.78,0,0,0,.78-.79V53.26h3.22V50.64H14.19v-4.2h3.22V43.81H14.19Z"/><path class="cls-4" d="M24.77,41.58a.79.79,0,0,0-.39-.68l-2.06-1.19a.8.8,0,0,0-.79,0L19.47,40.9a.79.79,0,0,0-.39.68V55.71a.78.78,0,0,0,.78.79H24a.78.78,0,0,0,.78-.79V53.26H28V50.64H24.77v-4.2H28V43.81H24.77Z"/><path class="cls-3" d="M35.35,41.58a.78.78,0,0,0-.4-.68l-2.06-1.19a.78.78,0,0,0-.78,0L30.05,40.9a.78.78,0,0,0-.4.68V55.71a.79.79,0,0,0,.79.79h4.12a.79.79,0,0,0,.79-.79V53.26h3.22V50.64H35.35v-4.2h3.22V43.81H35.35Z"/><path class="cls-4" d="M45.92,41.58a.79.79,0,0,0-.39-.68l-2.06-1.19a.8.8,0,0,0-.79,0L40.62,40.9a.79.79,0,0,0-.39.68V55.71a.79.79,0,0,0,.79.79h4.12a.78.78,0,0,0,.78-.79V53.26h3.22V50.64H45.92v-4.2h3.22V43.81H45.92Z"/><path class="cls-3" d="M56.11,40.9l-2.06-1.19a.8.8,0,0,0-.79,0L51.2,40.9a.79.79,0,0,0-.39.68V55.71a.78.78,0,0,0,.78.79h4.12a.79.79,0,0,0,.79-.79V41.58A.79.79,0,0,0,56.11,40.9Z"/></svg>