<svg id="Layer_1" data-name="Layer 1" xmlns="http://www.w3.org/2000/svg" viewBox="0 0 64 64"><defs><style>.cls-1{fill:#dfe8f4;}.cls-2{fill:#ccd8e5;}.cls-3{fill:#ff5454;}.cls-4{fill:#dd1515;}.cls-5{fill:#fff;}</style></defs><title>real, estate, property, clipboard, clipchart</title><rect class="cls-1" x="13.33" y="13.36" width="37.33" height="42.64" rx="4.42"/><path class="cls-2" d="M21.5,13.56H42.17a0,0,0,0,1,0,0v1.83a2.49,2.49,0,0,1-2.49,2.49H24a2.49,2.49,0,0,1-2.49-2.49V13.56A0,0,0,0,1,21.5,13.56Z"/><path class="cls-3" d="M39.68,11.07H37.13A2.83,2.83,0,0,1,34.7,9.58a3.1,3.1,0,0,0-5.4,0,2.82,2.82,0,0,1-2.43,1.49H24.33a2.58,2.58,0,0,0-2.83,2.49v.84a1.26,1.26,0,0,0,1.26,1.26H40.91a1.27,1.27,0,0,0,1.26-1.26v-.84A2.48,2.48,0,0,0,39.68,11.07Z"/><path class="cls-4" d="M34.7,9.58a3.1,3.1,0,0,0-5.4,0,2.82,2.82,0,0,1-2.43,1.49H37.13A2.83,2.83,0,0,1,34.7,9.58Z"/><path class="cls-4" d="M35.85,22.88h3a.19.19,0,0,1,.19.19v7.35a0,0,0,0,1,0,0H35.67a0,0,0,0,1,0,0V23.07A.19.19,0,0,1,35.85,22.88Z"/><path class="cls-3" d="M31.79,20.33l-9.1,9.1a.29.29,0,0,0,.21.5H41.1a.29.29,0,0,0,.21-.5l-9.1-9.1A.29.29,0,0,0,31.79,20.33Z"/><rect class="cls-3" x="24.94" y="29.14" width="14.11" height="9.03"/><path class="cls-4" d="M34.2,38.17H29.8V34.72A2.2,2.2,0,0,1,32,32.51h0a2.2,2.2,0,0,1,2.2,2.21Z"/><path class="cls-5" d="M41.24,42.29H22.76a.71.71,0,0,1-.71-.71h0a.7.7,0,0,1,.71-.7H41.24a.7.7,0,0,1,.71.7h0A.71.71,0,0,1,41.24,42.29Z"/><path class="cls-5" d="M41.24,45.71H22.76a.71.71,0,0,1-.71-.71h0a.71.71,0,0,1,.71-.71H41.24A.71.71,0,0,1,42,45h0A.71.71,0,0,1,41.24,45.71Z"/><path class="cls-5" d="M29.3,49.12H22.76a.7.7,0,0,1-.71-.7h0a.71.71,0,0,1,.71-.71H29.3a.71.71,0,0,1,.71.71h0A.7.7,0,0,1,29.3,49.12Z"/><path class="cls-5" d="M35.51,49.12H33a.7.7,0,0,1-.71-.7h0a.71.71,0,0,1,.71-.71h2.56a.71.71,0,0,1,.71.71h0A.7.7,0,0,1,35.51,49.12Z"/></svg>