<svg id="Layer_1" data-name="Layer 1" xmlns="http://www.w3.org/2000/svg" viewBox="0 0 64 64"><defs><style>.cls-1{fill:#dd1515;}.cls-2{fill:#ccd8e5;}.cls-3{fill:#dfe8f4;}.cls-4{fill:#ff5454;}</style></defs><title>real, estate, property, tree. fence, yard</title><path class="cls-1" d="M41.32,53.48a3.74,3.74,0,0,0-5.6,0A2.53,2.53,0,0,0,33.43,56H43.61A2.54,2.54,0,0,0,41.32,53.48Z"/><rect class="cls-2" x="9.58" y="50.75" width="10.45" height="2.17"/><rect class="cls-2" x="9.58" y="54.5" width="10.45" height="0.58"/><path class="cls-3" d="M9.4,47.69l-1.22.71a.37.37,0,0,0-.18.31V56h3.17V48.71A.37.37,0,0,0,11,48.4l-1.23-.71A.38.38,0,0,0,9.4,47.69Z"/><path class="cls-2" d="M10,51.82a.4.4,0,0,1-.8,0,.4.4,0,0,1,.8,0Z"/><path class="cls-3" d="M14.63,47.69l-1.23.71a.36.36,0,0,0-.17.31V56h3.16V48.71a.37.37,0,0,0-.18-.31L15,47.69A.38.38,0,0,0,14.63,47.69Z"/><path class="cls-2" d="M15.21,51.82a.4.4,0,1,1-.8,0,.4.4,0,0,1,.8,0Z"/><path class="cls-3" d="M19.86,47.69l-1.23.71a.37.37,0,0,0-.18.31V56h3.17V48.71a.37.37,0,0,0-.18-.31l-1.23-.71A.36.36,0,0,0,19.86,47.69Z"/><path class="cls-2" d="M20.43,51.82a.4.4,0,0,1-.4.4.39.39,0,0,1-.39-.4.38.38,0,0,1,.39-.39A.39.39,0,0,1,20.43,51.82Z"/><rect class="cls-2" x="43.97" y="50.75" width="10.45" height="2.17"/><rect class="cls-2" x="43.97" y="54.5" width="10.45" height="0.58"/><path class="cls-3" d="M43.79,47.69l-1.23.71a.37.37,0,0,0-.18.31V56h3.17V48.71a.37.37,0,0,0-.18-.31l-1.23-.71A.36.36,0,0,0,43.79,47.69Z"/><path class="cls-2" d="M44.36,51.82a.39.39,0,0,1-.39.4.4.4,0,0,1-.4-.4.39.39,0,0,1,.4-.39A.38.38,0,0,1,44.36,51.82Z"/><path class="cls-3" d="M49,47.69l-1.22.71a.37.37,0,0,0-.18.31V56h3.16V48.71a.36.36,0,0,0-.17-.31l-1.23-.71A.38.38,0,0,0,49,47.69Z"/><path class="cls-2" d="M49.59,51.82a.4.4,0,0,1-.8,0,.4.4,0,0,1,.8,0Z"/><path class="cls-3" d="M54.24,47.69,53,48.4a.37.37,0,0,0-.18.31V56H56V48.71a.37.37,0,0,0-.18-.31l-1.22-.71A.38.38,0,0,0,54.24,47.69Z"/><path class="cls-2" d="M54.82,51.82a.4.4,0,0,1-.8,0,.4.4,0,0,1,.8,0Z"/><path class="cls-4" d="M44.59,34.93a18.35,18.35,0,0,1-2-8.17v-.28C42.59,16.28,37.85,8,32,8S21.41,16.28,21.41,26.48v.28a18.35,18.35,0,0,1-2,8.17,5,5,0,0,0-.52,2.2C18.89,41.46,24.76,45,32,45s13.11-3.51,13.11-7.84A5,5,0,0,0,44.59,34.93Z"/><rect class="cls-3" x="30.5" y="33.88" width="3" height="22.13"/><rect class="cls-3" x="30.03" y="37.95" width="1" height="4.15" transform="translate(-19.36 33.31) rotate(-45)"/><rect class="cls-3" x="31.39" y="35.42" width="4.15" height="1" transform="translate(-15.6 34.19) rotate(-45)"/><path class="cls-4" d="M28.28,53.48a3.74,3.74,0,0,0-5.6,0A2.54,2.54,0,0,0,20.39,56H30.57A2.53,2.53,0,0,0,28.28,53.48Z"/></svg>