<svg id="Layer_1" data-name="Layer 1" xmlns="http://www.w3.org/2000/svg" viewBox="0 0 64 64"><defs><style>.cls-1{fill:#dd1515;}.cls-2{fill:#dfe8f4;}.cls-3{fill:#ccd8e5;}.cls-4{fill:#ff5454;}</style></defs><title>real, estate, property, ecology, house</title><rect class="cls-1" x="27.95" y="14.56" width="8.1" height="6.25"/><rect class="cls-2" x="10.63" y="25.6" width="42.75" height="30.4"/><path class="cls-1" d="M55,32H9a1,1,0,0,1-1-1.18l2.62-12.67a1,1,0,0,1,1-.79H52.4a1,1,0,0,1,1,.79L56,30.82A1,1,0,0,1,55,32Z"/><polygon class="cls-2" points="32 20.81 20.24 27.6 20.24 56 43.76 56 43.76 27.6 32 20.81"/><path class="cls-3" d="M20.24,32.08l11.24-6.49a1.07,1.07,0,0,1,1,0l11.24,6.49V28.62l-11-6.36a1.49,1.49,0,0,0-1.5,0l-11,6.36Z"/><path class="cls-4" d="M46,30.41a1.43,1.43,0,0,1-.75-.2L32.54,22.85a1.09,1.09,0,0,0-1.08,0L18.72,30.21a1.5,1.5,0,0,1-2.15-.78,1.55,1.55,0,0,1,.72-1.86l14-8.06a1.49,1.49,0,0,1,1.5,0l13.94,8a1.58,1.58,0,0,1,.72,1.94A1.5,1.5,0,0,1,46,30.41Z"/><rect class="cls-1" x="27.42" y="13.43" width="9.17" height="1.13" rx="0.35"/><rect class="cls-1" x="30.38" y="45.67" width="3.25" height="8.83"/><path class="cls-4" d="M19.79,37.83h5.82A6.39,6.39,0,0,1,32,44.23v4.61a0,0,0,0,1,0,0H25.81a6.39,6.39,0,0,1-6.39-6.39V38.21A.37.37,0,0,1,19.79,37.83Z"/><path class="cls-4" d="M38.39,37.83h6.19a0,0,0,0,1,0,0v4.61a6.39,6.39,0,0,1-6.39,6.39H32.37a.37.37,0,0,1-.37-.37V44.23A6.39,6.39,0,0,1,38.39,37.83Z" transform="translate(76.58 86.67) rotate(180)"/></svg>