<?xml version="1.0" encoding="UTF-8" standalone="no" ?>
<!DOCTYPE svg PUBLIC "-//W3C//DTD SVG 1.1//EN" "http://www.w3.org/Graphics/SVG/1.1/DTD/svg11.dtd">
<svg xmlns="http://www.w3.org/2000/svg" xmlns:xlink="http://www.w3.org/1999/xlink" version="1.1" width="1080" height="1080" viewBox="-80 -66 1080 1080" xml:space="preserve">
<desc>Created with Fabric.js 5.2.4</desc>
<defs>
</defs>
<rect x="0" y="0" width="100%" height="100%" fill="transparent"></rect>
<g transform="matrix(0 0 0 0 0 0)" id="cd718bd8-9d7f-493d-a28f-25488079e40a"  >
</g>
<g transform="matrix(1 0 0 1 540 540)" id="19696f50-ce0d-452e-b867-c9f940aa67ca"  >
<rect style="stroke: none; stroke-width: 1; stroke-dasharray: none; stroke-linecap: butt; stroke-dashoffset: 0; stroke-linejoin: miter; stroke-miterlimit: 4; fill: rgb(255,255,255); fill-rule: nonzero; opacity: 1; visibility: hidden;" vector-effect="non-scaling-stroke"  x="-540" y="-540" rx="0" ry="0" width="1080" height="1080" />
</g>
<g transform="matrix(8.93 0 0 11 411.46 468.53)" id="44aa444a-cb01-425a-a99b-6c97c38fba84"  >
<rect style="stroke: rgb(0,0,0); stroke-width: 0; stroke-dasharray: none; stroke-linecap: butt; stroke-dashoffset: 0; stroke-linejoin: miter; stroke-miterlimit: 4; fill: rgb(241,167,174); fill-rule: nonzero; opacity: 1;" vector-effect="non-scaling-stroke"  x="-33.085" y="-33.085" rx="0" ry="0" width="66.17" height="66.17" />
</g>
<g transform="matrix(2.42 0 0 1.32 412.29 70.13)" id="544e5fd5-22f3-443c-a679-9c3dae535619"  >
<polygon style="stroke: rgb(0,0,0); stroke-width: 0; stroke-dasharray: none; stroke-linecap: butt; stroke-dashoffset: 0; stroke-linejoin: miter; stroke-miterlimit: 4; fill: rgb(241,167,174); fill-rule: nonzero; opacity: 1;" vector-effect="non-scaling-stroke"  points="-37.43,32.41 0,-32.41 37.43,32.41 " />
</g>
<g transform="matrix(2.96 0 0 2.96 413.45 446.87)"  >
<path style="stroke: rgb(0,0,0); stroke-width: 0; stroke-dasharray: none; stroke-linecap: butt; stroke-dashoffset: 0; stroke-linejoin: miter; stroke-miterlimit: 4; fill: rgb(220,36,52); fill-rule: nonzero; opacity: 1;" vector-effect="non-scaling-stroke"  transform=" translate(-148.5, -148.5)" d="M 235.993 29.194 L 207.725 29.194 C 204.26999999999998 20.646 195.89 14.595999999999998 186.119 14.595999999999998 L 170.86 14.595999999999998 C 167.071 6.009 158.475 0 148.501 0 C 138.52700000000002 0 129.931 6.009 126.142 14.597 L 110.883 14.597 C 101.112 14.597 92.731 20.647 89.27699999999999 29.195 L 61.009 29.195 C 47.492000000000004 29.195 36.494 40.193 36.494 53.71 L 36.494 272.48699999999997 C 36.494 286.00399999999996 47.492 297.001 61.009 297.001 L 235.993 297.001 C 249.51 297.001 260.508 286.00399999999996 260.508 272.48699999999997 L 260.508 53.709 C 260.508 40.192 249.51 29.194 235.993 29.194 z M 107.234 37.895 L 107.234 37.895 C 107.235 35.884 108.872 34.247 110.883 34.247 L 133.903 34.247 C 139.32899999999998 34.247 143.72799999999998 29.848 143.72799999999998 24.422 C 143.72799999999998 21.791 145.86899999999997 19.65 148.49999999999997 19.65 C 151.13099999999997 19.65 153.27199999999996 21.790999999999997 153.27199999999996 24.421999999999997 C 153.27199999999996 29.848 157.67099999999996 34.247 163.09699999999995 34.247 L 186.11699999999996 34.247 C 188.12799999999996 34.247 189.76499999999996 35.884 189.76499999999996 37.895 L 189.76499999999996 54.742000000000004 C 189.76499999999996 56.75300000000001 188.12799999999996 58.39000000000001 186.11699999999996 58.39000000000001 L 110.88199999999996 58.39000000000001 C 108.87099999999997 58.39000000000001 107.23399999999997 56.75300000000001 107.23399999999997 54.742000000000004 L 107.23399999999997 37.895 z M 235.993 277.35 L 61.009 277.35 C 58.326 277.35 56.144 275.168 56.144 272.48600000000005 L 56.144 53.709 C 56.144 51.026 58.326 48.844 61.009 48.844 L 87.58500000000001 48.844 L 87.58500000000001 54.741 C 87.58500000000001 67.588 98.037 78.039 110.88300000000001 78.039 L 186.118 78.039 C 198.965 78.039 209.416 67.587 209.416 54.741 L 209.416 48.844 L 235.992 48.844 C 238.67499999999998 48.844 240.857 51.026 240.857 53.709 L 240.857 272.486 L 240.858 272.486 C 240.857 275.168 238.675 277.35 235.993 277.35 z" stroke-linecap="round" />
</g>
<g transform="matrix(2.15 0 0 2.15 534.58 677.02)"  >
<path style="stroke: rgb(0,0,0); stroke-width: 0; stroke-dasharray: none; stroke-linecap: butt; stroke-dashoffset: 0; stroke-linejoin: miter; stroke-miterlimit: 4; fill: rgb(220,36,52); fill-rule: nonzero; opacity: 1;" vector-effect="non-scaling-stroke"  transform=" translate(-178.14, -206.23)" d="M 178.138 152.609 C 148.573 152.609 124.52100000000002 176.661 124.52100000000002 206.226 C 124.52100000000002 235.791 148.573 259.843 178.138 259.843 C 207.703 259.843 231.756 235.79100000000003 231.756 206.22600000000003 C 231.756 176.66100000000003 207.701 152.609 178.138 152.609 z M 178.138 240.193 C 159.409 240.193 144.171 224.955 144.171 206.226 C 144.171 200.429 145.634 194.968 148.20499999999998 190.189 L 171.19 213.17399999999998 C 173.033 215.016 175.532 216.05199999999996 178.138 216.05199999999996 L 210.651 216.05199999999996 C 206.425 230.004 193.451 240.193 178.138 240.193 z M 182.208 196.401 L 162.1 176.293 C 166.88 173.722 172.341 172.25900000000001 178.137 172.25900000000001 C 193.452 172.25900000000001 206.426 182.448 210.651 196.401 L 182.208 196.401 z" stroke-linecap="round" />
</g>
<g transform="matrix(2.96 0 0 2.96 305.6 352.61)"  >
<path style="stroke: rgb(0,0,0); stroke-width: 0; stroke-dasharray: none; stroke-linecap: butt; stroke-dashoffset: 0; stroke-linejoin: miter; stroke-miterlimit: 4; fill: rgb(220,36,52); fill-rule: nonzero; opacity: 1;" vector-effect="non-scaling-stroke"  transform=" translate(-112.01, -104.04)" d="M 75.514 113.869 L 148.50099999999998 113.869 C 153.92699999999996 113.869 158.32599999999996 109.47 158.32599999999996 104.044 C 158.32599999999996 98.618 153.92699999999996 94.219 148.50099999999998 94.219 L 75.514 94.219 C 70.088 94.219 65.689 98.618 65.689 104.044 C 65.688 109.47 70.087 113.869 75.514 113.869 z" stroke-linecap="round" />
</g>
<g transform="matrix(2.96 0 0 2.96 262.4 439.2)"  >
<path style="stroke: rgb(0,0,0); stroke-width: 0; stroke-dasharray: none; stroke-linecap: butt; stroke-dashoffset: 0; stroke-linejoin: miter; stroke-miterlimit: 4; fill: rgb(220,36,52); fill-rule: nonzero; opacity: 1;" vector-effect="non-scaling-stroke"  transform=" translate(-97.41, -133.24)" d="M 75.514 143.064 L 119.30699999999999 143.064 C 124.73299999999999 143.064 129.13199999999998 138.665 129.13199999999998 133.239 C 129.13199999999998 127.813 124.73299999999998 123.414 119.30699999999997 123.414 L 75.514 123.414 C 70.088 123.414 65.689 127.813 65.689 133.239 C 65.688 138.665 70.087 143.064 75.514 143.064 z" stroke-linecap="round" />
</g>
<g transform="matrix(2.96 0 0 2.96 262.39 525.77)"  >
<path style="stroke: rgb(0,0,0); stroke-width: 0; stroke-dasharray: none; stroke-linecap: butt; stroke-dashoffset: 0; stroke-linejoin: miter; stroke-miterlimit: 4; fill: rgb(220,36,52); fill-rule: nonzero; opacity: 1;" vector-effect="non-scaling-stroke"  transform=" translate(-97.41, -162.43)" d="M 129.131 162.434 C 129.131 157.008 124.732 152.609 119.306 152.609 L 75.514 152.609 C 70.088 152.609 65.689 157.008 65.689 162.434 C 65.689 167.85999999999999 70.088 172.259 75.514 172.259 L 119.30699999999999 172.259 C 124.733 172.259 129.131 167.86 129.131 162.434 z" stroke-linecap="round" />
</g>
<g transform="matrix(0 0 0 0 -42.29 -266.02)"  >
<g style=""   >
</g>
</g>
<g transform="matrix(0 0 0 0 -42.29 -266.02)"  >
<g style=""   >
</g>
</g>
<g transform="matrix(0 0 0 0 -42.29 -266.02)"  >
<g style=""   >
</g>
</g>
<g transform="matrix(0 0 0 0 -42.29 -266.02)"  >
<g style=""   >
</g>
</g>
<g transform="matrix(0 0 0 0 -42.29 -266.02)"  >
<g style=""   >
</g>
</g>
<g transform="matrix(0 0 0 0 0 0)"  >
<g style=""   >
</g>
</g>
<g transform="matrix(0 0 0 0 0 0)"  >
<g style=""   >
</g>
</g>
<g transform="matrix(0 0 0 0 0 0)"  >
<g style=""   >
</g>
</g>
<g transform="matrix(0 0 0 0 0 0)"  >
<g style=""   >
</g>
</g>
<g transform="matrix(0 0 0 0 0 0)"  >
<g style=""   >
</g>
</g>
<g transform="matrix(0 0 0 0 0 0)"  >
<g style=""   >
</g>
</g>
<g transform="matrix(NaN NaN NaN NaN 0 0)"  >
<g style=""   >
</g>
</g>
</svg>