<svg width="23" height="22" viewBox="0 0 23 22" fill="none" xmlns="http://www.w3.org/2000/svg">
<path d="M18.4607 20.4217L19.1504 19.6975L19.1504 19.6975L18.4607 20.4217ZM21.3927 17.6292L22.0824 16.9051L22.0824 16.9051L21.3927 17.6292ZM20.0646 14.9834C19.6647 14.6025 19.0317 14.618 18.6508 15.0179C18.27 15.4179 18.2854 16.0508 18.6853 16.4317L20.0646 14.9834ZM17.1326 17.7759C16.7326 17.395 16.0997 17.4104 15.7188 17.8104C15.3379 18.2103 15.3533 18.8433 15.7533 19.2241L17.1326 17.7759ZM2 9.5C2 5.40328 5.5016 2 9.92499 2V0C4.49011 0 0 4.20788 0 9.5H2ZM9.92499 2C14.3484 2 17.85 5.40328 17.85 9.5H19.85C19.85 4.20788 15.3599 0 9.92499 0V2ZM17.85 9.5C17.85 13.5967 14.3484 17 9.92499 17V19C15.3599 19 19.85 14.7921 19.85 9.5H17.85ZM9.92499 17C5.5016 17 2 13.5967 2 9.5H0C0 14.7921 4.49011 19 9.92499 19V17ZM20.7031 19.6975C20.2796 20.1008 19.5738 20.1008 19.1504 19.6975L17.771 21.1458C18.9669 22.2847 20.8865 22.2847 22.0824 21.1458L20.7031 19.6975ZM20.7031 18.3534C21.099 18.7304 21.099 19.3205 20.7031 19.6975L22.0824 21.1458C23.3059 19.9806 23.3059 18.0703 22.0824 16.9051L20.7031 18.3534ZM18.6853 16.4317L20.7031 18.3534L22.0824 16.9051L20.0646 14.9834L18.6853 16.4317ZM19.1504 19.6975L17.1326 17.7759L15.7533 19.2241L17.7711 21.1458L19.1504 19.6975Z" fill="#757575"/>
</svg>
