<svg width="19" height="18" viewBox="0 0 19 18" fill="none" xmlns="http://www.w3.org/2000/svg">
<g clip-path="url(#clip0_65_962)">
<path d="M17.0426 9.32742C16.8998 9.16777 16.821 8.96252 16.821 8.75C16.821 8.53748 16.8998 8.33223 17.0426 8.17258L18.1826 6.91275C18.3082 6.7751 18.3862 6.60191 18.4054 6.41801C18.4246 6.23411 18.384 6.04897 18.2895 5.88914L16.5082 2.86205C16.4146 2.7024 16.2721 2.57586 16.1009 2.50045C15.9298 2.42504 15.7388 2.40463 15.5552 2.44211L13.8808 2.77456C13.6678 2.81781 13.446 2.78295 13.2573 2.67658C13.0686 2.5702 12.9261 2.39966 12.8566 2.19714L12.3133 0.596109C12.2535 0.422339 12.1397 0.27141 11.9879 0.164654C11.8361 0.0578987 11.6539 0.000716349 11.4672 0.0011898H7.90464C7.71042 -0.00876813 7.51822 0.0439946 7.3574 0.151419C7.19658 0.258844 7.07597 0.415025 7.014 0.596109L6.51525 2.19714C6.44578 2.39966 6.30325 2.5702 6.11456 2.67658C5.92587 2.78295 5.70407 2.81781 5.49101 2.77456L3.77209 2.44211C3.59801 2.41794 3.42055 2.44493 3.26206 2.51966C3.10357 2.59439 2.97114 2.71352 2.88145 2.86205L1.10017 5.88914C1.00324 6.04719 0.959652 6.23129 0.975648 6.41514C0.991645 6.59898 1.0664 6.77315 1.18924 6.91275L2.32035 8.17258C2.46313 8.33223 2.54188 8.53748 2.54188 8.75C2.54188 8.96252 2.46313 9.16777 2.32035 9.32742L1.18924 10.5872C1.0664 10.7268 0.991645 10.901 0.975648 11.0849C0.959652 11.2687 1.00324 11.4528 1.10017 11.6109L2.88145 14.6379C2.97505 14.7976 3.11757 14.9241 3.28869 14.9995C3.45982 15.075 3.6508 15.0954 3.83443 15.0579L5.50883 14.7254C5.72188 14.6822 5.94368 14.717 6.13237 14.8234C6.32106 14.9298 6.46359 15.1003 6.53306 15.3029L7.07635 16.9039C7.13832 17.085 7.25893 17.2412 7.41975 17.3486C7.58057 17.456 7.77277 17.5088 7.96699 17.4988H11.5295C11.7162 17.4993 11.8984 17.4421 12.0502 17.3353C12.2021 17.2286 12.3159 17.0777 12.3756 16.9039L12.9189 15.3029C12.9884 15.1003 13.1309 14.9298 13.3196 14.8234C13.5083 14.717 13.7301 14.6822 13.9432 14.7254L15.6176 15.0579C15.8012 15.0954 15.9922 15.075 16.1633 14.9995C16.3344 14.9241 16.4769 14.7976 16.5705 14.6379L18.3518 11.6109C18.4464 11.451 18.487 11.2659 18.4678 11.082C18.4486 10.8981 18.3706 10.7249 18.2449 10.5872L17.0426 9.32742ZM15.7155 10.4998L16.428 11.2872L15.288 13.2294L14.2371 13.0194C13.5956 12.8906 12.9283 12.9977 12.3619 13.3202C11.7955 13.6428 11.3693 14.1584 11.1644 14.7692L10.8259 15.749H8.5459L8.22527 14.7517C8.02029 14.1409 7.59415 13.6253 7.02772 13.3027C6.4613 12.9802 5.79403 12.8731 5.15257 13.0019L4.10162 13.2119L2.94379 11.2784L3.6563 10.491C4.09446 10.0098 4.33669 9.38685 4.33669 8.74125C4.33669 8.09565 4.09446 7.47269 3.6563 6.99149L2.94379 6.2041L4.08381 4.27936L5.13476 4.48933C5.77622 4.61813 6.44349 4.5111 7.00991 4.18854C7.57634 3.86599 8.00248 3.35037 8.20746 2.73957L8.5459 1.75095H10.8259L11.1644 2.74832C11.3693 3.35912 11.7955 3.87474 12.3619 4.19729C12.9283 4.51985 13.5956 4.62688 14.2371 4.49808L15.288 4.28811L16.428 6.23034L15.7155 7.01774C15.2823 7.49784 15.0431 8.11718 15.0431 8.75875C15.0431 9.40031 15.2823 10.0197 15.7155 10.4998ZM9.68592 5.25048C8.98131 5.25048 8.29253 5.45572 7.70667 5.84025C7.12081 6.22478 6.66419 6.77134 6.39455 7.41079C6.12491 8.05024 6.05436 8.75388 6.19182 9.43272C6.32928 10.1116 6.66858 10.7351 7.16681 11.2245C7.66504 11.714 8.29983 12.0473 8.9909 12.1823C9.68196 12.3173 10.3983 12.248 11.0492 11.9831C11.7002 11.7183 12.2566 11.2697 12.6481 10.6942C13.0395 10.1187 13.2485 9.44214 13.2485 8.75C13.2485 7.82187 12.8731 6.93175 12.205 6.27546C11.5369 5.61917 10.6308 5.25048 9.68592 5.25048ZM9.68592 10.4998C9.33361 10.4998 8.98922 10.3971 8.69629 10.2049C8.40336 10.0126 8.17505 9.73933 8.04023 9.4196C7.90541 9.09988 7.87014 8.74806 7.93887 8.40864C8.0076 8.06922 8.17725 7.75744 8.42636 7.51273C8.67548 7.26802 8.99287 7.10137 9.33841 7.03386C9.68394 6.96634 10.0421 7.00099 10.3676 7.13343C10.6931 7.26587 10.9713 7.49014 11.167 7.77788C11.3627 8.06563 11.4672 8.40393 11.4672 8.75C11.4672 9.21407 11.2795 9.65912 10.9455 9.98727C10.6114 10.3154 10.1583 10.4998 9.68592 10.4998Z" fill="#DC2434"/>
</g>
<defs>
<clipPath id="clip0_65_962">
<rect width="17.5" height="17.5" fill="white" transform="translate(0.972412)"/>
</clipPath>
</defs>
</svg>
