<svg id="Layer_1" data-name="Layer 1" xmlns="http://www.w3.org/2000/svg" viewBox="0 0 64 64"><defs><style>.cls-1{fill:#F4DFDF;}.cls-2{fill:#FC0707;}.cls-3{fill:#DD1515;}.cls-4{fill:#e5cccc;}.cls-5{fill:#fff;}</style></defs><title>shopping, shop, ecommerce, commerce, browser, webpage, basket</title><rect class="cls-1" x="8" y="11.44" width="48" height="41.13" rx="4.09"/><path class="cls-2" d="M51.91,11.44H12.09A4.09,4.09,0,0,0,8,15.53v1.91H56V15.53A4.09,4.09,0,0,0,51.91,11.44Z"/><rect class="cls-3" x="12.66" y="13.82" width="1.23" height="1.23"/><rect class="cls-3" x="15.19" y="13.82" width="1.23" height="1.23"/><rect class="cls-3" x="17.71" y="13.82" width="1.23" height="1.23"/><rect class="cls-3" x="8" y="17.44" width="48" height="1.65"/><path class="cls-4" d="M56,21.88H10.79A2.79,2.79,0,0,1,8,19.08H56Z"/><path class="cls-5" d="M37.25,39.05H26.8a1.11,1.11,0,0,1-1.08-.85l-1.89-7.52a1.12,1.12,0,0,1,1.08-1.38H39.13a1.12,1.12,0,0,1,1.08,1.38L38.32,38.2A1.1,1.1,0,0,1,37.25,39.05Z"/><path class="cls-5" d="M29.1,42.68A1.67,1.67,0,1,1,27.43,41,1.67,1.67,0,0,1,29.1,42.68Z"/><path class="cls-5" d="M38.29,42.68A1.68,1.68,0,1,1,36.61,41,1.67,1.67,0,0,1,38.29,42.68Z"/><path class="cls-5" d="M27.2,33.87l-1.89-7.52h0a1.07,1.07,0,0,0-1-.81H20.89a1.09,1.09,0,0,0,0,2.17h1.59a.78.78,0,0,1,.76.59l1.39,5.57a1.11,1.11,0,0,0,1.08.84h2.57A1.1,1.1,0,0,1,27.2,33.87Z"/></svg>