<svg id="Layer_1" data-name="Layer 1" xmlns="http://www.w3.org/2000/svg" viewBox="0 0 64 64"><defs><style>.cls-1{fill:#F4DFDF;}.cls-2{fill:#FC0707;}.cls-3{fill:#fff;}</style></defs><title>shopping, shop, ecommerce, commerce, receipt</title><path class="cls-1" d="M43.87,13.06,43,12.2a.86.86,0,0,0-1.22,0l-.86.86a.86.86,0,0,1-1.22,0l-.86-.86a.86.86,0,0,0-1.22,0l-.86.86a.86.86,0,0,1-1.22,0l-.86-.86a.86.86,0,0,0-1.22,0l-.86.86a.86.86,0,0,1-1.22,0l-.86-.86a.86.86,0,0,0-1.22,0l-.86.86a.86.86,0,0,1-1.22,0l-.86-.86a.86.86,0,0,0-1.22,0l-.86.86a.86.86,0,0,1-1.22,0l-.86-.86a.86.86,0,0,0-1.22,0l-.86.86a.86.86,0,0,1-1.22,0h0a.86.86,0,0,0-1.47.61V50.33a.86.86,0,0,0,1.47.61h0a.86.86,0,0,1,1.22,0l.86.86a.86.86,0,0,0,1.22,0l.86-.86a.86.86,0,0,1,1.22,0l.86.86a.86.86,0,0,0,1.22,0l.86-.86a.86.86,0,0,1,1.22,0l.86.86a.86.86,0,0,0,1.22,0l.86-.86a.86.86,0,0,1,1.22,0l.86.86a.86.86,0,0,0,1.22,0l.86-.86a.86.86,0,0,1,1.22,0l.86.86a.86.86,0,0,0,1.22,0l.86-.86a.86.86,0,0,1,1.22,0l.86.86a.86.86,0,0,0,1.22,0l.86-.86a.86.86,0,0,1,1.22,0h0a.86.86,0,0,0,1.47-.61V13.67a.86.86,0,0,0-1.47-.61h0A.86.86,0,0,1,43.87,13.06Z"/><path class="cls-2" d="M30.62,23.68H23.18A1.38,1.38,0,0,1,21.8,22.3h0a1.38,1.38,0,0,1,1.38-1.38h7.44A1.38,1.38,0,0,1,32,22.3h0A1.38,1.38,0,0,1,30.62,23.68Z"/><path class="cls-3" d="M41.45,28.91H22.55a.75.75,0,0,1-.75-.75h0a.75.75,0,0,1,.75-.76h18.9a.75.75,0,0,1,.75.76h0A.75.75,0,0,1,41.45,28.91Z"/><path class="cls-3" d="M41.45,32.44H22.55a.75.75,0,0,1-.75-.76h0a.75.75,0,0,1,.75-.75h18.9a.75.75,0,0,1,.75.75h0A.75.75,0,0,1,41.45,32.44Z"/><path class="cls-3" d="M41.45,36H22.55a.74.74,0,0,1-.75-.75h0a.75.75,0,0,1,.75-.75h18.9a.75.75,0,0,1,.75.75h0A.74.74,0,0,1,41.45,36Z"/><path class="cls-3" d="M29.77,39.49H22.55a.75.75,0,0,1-.75-.75h0a.74.74,0,0,1,.75-.75h7.22a.74.74,0,0,1,.75.75h0A.75.75,0,0,1,29.77,39.49Z"/><path class="cls-3" d="M35.88,39.49H33.51a.76.76,0,0,1-.76-.75h0a.75.75,0,0,1,.76-.75h2.37a.75.75,0,0,1,.75.75h0A.76.76,0,0,1,35.88,39.49Z"/></svg>