<svg id="Layer_1" data-name="Layer 1" xmlns="http://www.w3.org/2000/svg" viewBox="0 0 64 64"><defs><style>.cls-1{fill:#F4DFDF;}.cls-2{fill:#FC0707;}.cls-3{fill:#DD1515;}.cls-4{fill:#e5cccc;}.cls-5{fill:#fff;}</style></defs><title>shopping, shop, ecommerce, commerce, laptop, shop, store</title><path class="cls-1" d="M15.21,24H48.79a3,3,0,0,1,3,3V50.67a0,0,0,0,1,0,0H12.17a0,0,0,0,1,0,0V27A3,3,0,0,1,15.21,24Z"/><path class="cls-2" d="M9.13,50.67H54.87A1.13,1.13,0,0,1,56,51.8v.65A3.55,3.55,0,0,1,52.45,56H11.55A3.55,3.55,0,0,1,8,52.45V51.8A1.13,1.13,0,0,1,9.13,50.67Z"/><path class="cls-3" d="M26.23,51.74a2.3,2.3,0,0,0,1.95,1.07h7.64a2.3,2.3,0,0,0,2-1.07,2.3,2.3,0,0,1,1.95-1.07H24.28A2.3,2.3,0,0,1,26.23,51.74Z"/><rect class="cls-4" x="12.17" y="48.25" width="39.58" height="2.42"/><path class="cls-2" d="M23.44,24l3.92-8.6H24.5a1.19,1.19,0,0,0-1,.51l-5.1,7.52a2.15,2.15,0,0,0-.36,1.17v1.67a1.18,1.18,0,0,0,1.18,1.18h4.05V24.69A1.6,1.6,0,0,1,23.44,24Z"/><path class="cls-2" d="M45.58,23.44l-5.1-7.52a1.19,1.19,0,0,0-1-.51H36.64L40.56,24a1.6,1.6,0,0,1,.15.68v2.77h4a1.18,1.18,0,0,0,1.18-1.18V24.61A2.15,2.15,0,0,0,45.58,23.44Z"/><rect class="cls-2" x="20.2" y="25.52" width="23.59" height="13.94"/><path class="cls-3" d="M23.44,24v0H18.16a2.3,2.3,0,0,0-.1.63v1.67a1.18,1.18,0,0,0,1.18,1.18h4.05V24.69A1.6,1.6,0,0,1,23.44,24Z"/><path class="cls-3" d="M45.84,24H40.55v0a1.6,1.6,0,0,1,.15.68v2.77h4a1.18,1.18,0,0,0,1.18-1.18V24.61A2.3,2.3,0,0,0,45.84,24Z"/><path class="cls-5" d="M36.64,15.41H27.36L23.44,24a1.6,1.6,0,0,0-.15.68v2.77H40.71V24.69a1.6,1.6,0,0,0-.15-.68Z"/><path class="cls-1" d="M23.44,24a1.6,1.6,0,0,0-.15.68v2.77H40.71V24.69a1.6,1.6,0,0,0-.15-.68v0H23.45Z"/><path class="cls-2" d="M33.51,15.41h-3l-1.37,8.81a1.79,1.79,0,0,0,0,.23v3h5.8v-3a1.79,1.79,0,0,0,0-.23Z"/><path class="cls-3" d="M34.84,24H29.16l0,.24a1.79,1.79,0,0,0,0,.23v3h5.8v-3a1.79,1.79,0,0,0,0-.23Z"/><path class="cls-3" d="M34.91,39.46H29.09V33.05A2.91,2.91,0,0,1,32,30.15h0a2.91,2.91,0,0,1,2.91,2.9Z"/><rect class="cls-5" x="18.06" y="39.41" width="27.88" height="1.25"/></svg>