<svg id="Layer_1" data-name="Layer 1" xmlns="http://www.w3.org/2000/svg" viewBox="0 0 64 64"><defs><style>.cls-1{fill:#DD1515;}.cls-2{fill:#FC0707;}.cls-3{fill:#fff;}.cls-4{fill:#F4DFDF;}.cls-5{fill:#e5cccc;}</style></defs><title>shopping, shop, ecommerce, commerce, handover, hand, gesture, bag</title><path class="cls-1" d="M45.47,16.7H54a2,2,0,0,1,2,2V35.89a2,2,0,0,1-2,2H45.47a0,0,0,0,1,0,0V16.7A0,0,0,0,1,45.47,16.7Z"/><path class="cls-2" d="M34,16.7H48a1.52,1.52,0,0,1,1.52,1.52V35.12a2.76,2.76,0,0,1-2.76,2.76H34a2,2,0,0,1-2-2V18.69A2,2,0,0,1,34,16.7Z"/><path class="cls-3" d="M40.77,25.11A4.74,4.74,0,0,1,36,20.38V19.31h1.55v1.07a3.19,3.19,0,1,0,6.38,0V19.31h1.55v1.07A4.74,4.74,0,0,1,40.77,25.11Z"/><path class="cls-1" d="M44.8,10.9a4.74,4.74,0,0,1,4.73,4.74V16.7H48V15.64a3.19,3.19,0,0,0-6.38,0V16.7H40.06V15.64A4.74,4.74,0,0,1,44.8,10.9Z"/><path class="cls-4" d="M8,41l4.77-1a26,26,0,0,0,5-1.54h0a11.63,11.63,0,0,1,8-.37L34.93,41a2,2,0,0,1,1.25,2.56h0a1,1,0,0,1-1,.64l-5.92-.14L35,45.38a26.58,26.58,0,0,0,10.77.23l2.48-.46a1.72,1.72,0,0,1,2,1.69h0a.85.85,0,0,1-.53.79l-3,1.23a26.66,26.66,0,0,1-13.34,1.71l-8.57-1.11c-2.69-.52-5.49.86-7.94,2.09L8,56Z"/><polygon class="cls-5" points="10.38 40.53 8.03 41 8 56 10.38 54.81 10.38 40.53"/></svg>