<svg id="Layer_1" data-name="Layer 1" xmlns="http://www.w3.org/2000/svg" viewBox="0 0 64 64"><defs><style>.cls-1{fill:#dfe8f4;}.cls-2{fill:#ff5454;}.cls-3{fill:#dd1515;}.cls-4{fill:#ccd8e5;}.cls-5{fill:#fff;}</style></defs><title>shopping, shop, ecommerce, commerce, browser, webpage, basket_1</title><rect class="cls-1" x="8" y="11.44" width="48" height="41.13" rx="4.09"/><path class="cls-2" d="M51.91,11.44H12.09A4.09,4.09,0,0,0,8,15.53v1.91H56V15.53A4.09,4.09,0,0,0,51.91,11.44Z"/><rect class="cls-3" x="12.66" y="13.82" width="1.23" height="1.23"/><rect class="cls-3" x="15.19" y="13.82" width="1.23" height="1.23"/><rect class="cls-3" x="17.71" y="13.82" width="1.23" height="1.23"/><rect class="cls-3" x="8" y="17.44" width="48" height="1.65"/><path class="cls-4" d="M56,21.88H10.79A2.79,2.79,0,0,1,8,19.08H56Z"/><path class="cls-4" d="M35.15,36.72a1.48,1.48,0,0,1-1-2.53l6.8-6.79A1.48,1.48,0,0,1,43,29.49l-6.79,6.8A1.52,1.52,0,0,1,35.15,36.72Z"/><path class="cls-2" d="M24.68,35v1.16a1.4,1.4,0,0,0,1.4,1.39h0a1.4,1.4,0,0,1,1.37,1.13L29,46.34a1.39,1.39,0,0,0,1.37,1.12H40.72a1.39,1.39,0,0,0,1.37-1.12l1.53-7.63A1.39,1.39,0,0,1,45,37.58h0a1.4,1.4,0,0,0,1.4-1.39V34.44a.81.81,0,0,0-.81-.81H26.08A1.4,1.4,0,0,0,24.68,35Z"/><path class="cls-3" d="M17.61,34.29v1.9A1.4,1.4,0,0,0,19,37.58h0a1.39,1.39,0,0,1,1.37,1.13l1.53,7.63a1.39,1.39,0,0,0,1.37,1.12H33.65A1.39,1.39,0,0,0,35,46.34l1.53-7.63a1.4,1.4,0,0,1,1.37-1.13h0a1.4,1.4,0,0,0,1.4-1.39V33.63h-21A.67.67,0,0,0,17.61,34.29Z"/><rect class="cls-2" x="23.42" y="39.17" width="1.05" height="1.05"/><rect class="cls-2" x="26.43" y="39.17" width="1.05" height="1.05"/><rect class="cls-2" x="29.45" y="39.17" width="1.05" height="1.05"/><rect class="cls-2" x="32.46" y="39.17" width="1.05" height="1.05"/><rect class="cls-2" x="24.93" y="41.54" width="1.05" height="1.05"/><rect class="cls-2" x="27.94" y="41.54" width="1.05" height="1.05"/><rect class="cls-2" x="30.95" y="41.54" width="1.05" height="1.05"/><rect class="cls-2" x="26.43" y="43.91" width="1.05" height="1.05"/><rect class="cls-2" x="29.45" y="43.91" width="1.05" height="1.05"/><path class="cls-5" d="M28.47,36.72a1.52,1.52,0,0,1-1-.43,1.48,1.48,0,0,1,0-2.1l6.79-6.79a1.49,1.49,0,0,1,1-.44H42a1.49,1.49,0,0,1,0,3H35.87l-6.36,6.36A1.49,1.49,0,0,1,28.47,36.72Z"/><rect class="cls-5" x="18.06" y="47.46" width="27.88" height="1.25"/></svg>