<svg id="Layer_1" data-name="Layer 1" xmlns="http://www.w3.org/2000/svg" viewBox="0 0 64 64"><defs><style>.cls-1{fill:#ff5454;}.cls-2{fill:#dd1515;}.cls-3{fill:#ccd8e5;}.cls-4{fill:#dfe8f4;}.cls-5{fill:#fff;}</style></defs><title>shopping, shop, ecommerce, commerce, truck, van, delivery</title><path class="cls-1" d="M48.28,49.31a3.33,3.33,0,0,0-2.89,5h-.45V56h3.34a3.35,3.35,0,0,0,0-6.69Z"/><path class="cls-2" d="M51.48,53.58a3.47,3.47,0,0,0,.14-.92,3.42,3.42,0,0,0-.18-1.06H45.12a3.42,3.42,0,0,0-.18,1.06,3.1,3.1,0,0,0,.14.92Z"/><path class="cls-2" d="M48.28,52.66A3.35,3.35,0,1,0,44.94,56,3.35,3.35,0,0,0,48.28,52.66Z"/><path class="cls-1" d="M28.47,49.31a3.32,3.32,0,0,0-2.89,5h-.46V56h3.35a3.35,3.35,0,0,0,0-6.69Z"/><path class="cls-2" d="M31.67,53.58a3.47,3.47,0,0,0,.14-.92,3.42,3.42,0,0,0-.18-1.06H25.31a3.42,3.42,0,0,0-.19,1.06,3.11,3.11,0,0,0,.15.92Z"/><path class="cls-2" d="M28.47,52.66A3.35,3.35,0,1,0,25.12,56,3.35,3.35,0,0,0,28.47,52.66Z"/><path class="cls-1" d="M38.25,49.31a3.33,3.33,0,0,0-2.89,5h-.45V56h3.34a3.35,3.35,0,0,0,0-6.69Z"/><path class="cls-2" d="M41.45,53.58a3.47,3.47,0,0,0,.14-.92,3.42,3.42,0,0,0-.18-1.06H35.09a3.42,3.42,0,0,0-.18,1.06,3.1,3.1,0,0,0,.14.92Z"/><path class="cls-1" d="M18.44,49.31a3.32,3.32,0,0,0-2.89,5h-.46V56h3.35a3.35,3.35,0,0,0,0-6.69Z"/><path class="cls-2" d="M21.63,53.58a3.11,3.11,0,0,0,.15-.92,3.42,3.42,0,0,0-.18-1.06H15.28a3.42,3.42,0,0,0-.19,1.06,3.11,3.11,0,0,0,.15.92Z"/><path class="cls-3" d="M53.48,52.62H9.94A1.93,1.93,0,0,1,8,50.69V38a9.4,9.4,0,0,1,9.4-9.4H40.86A6.69,6.69,0,0,1,46,31l9,10.76a4.32,4.32,0,0,1,1,2.77v5.57A2.51,2.51,0,0,1,53.48,52.62Z"/><path class="cls-4" d="M55,41.77,46,31a6.69,6.69,0,0,0-5.15-2.41H29.57A6.67,6.67,0,0,1,34.71,31l9,10.76a4.32,4.32,0,0,1,1,2.77l0,3.27a3.49,3.49,0,0,1-3.49,3.5H8.11a1.94,1.94,0,0,0,1.83,1.31H53.48A2.51,2.51,0,0,0,56,50.11V44.54A4.32,4.32,0,0,0,55,41.77Z"/><rect class="cls-3" x="47" y="45.46" width="6.96" height="3"/><path class="cls-2" d="M34.21,33.59v5.54A3.85,3.85,0,0,0,38.06,43H55.7a4.39,4.39,0,0,0-.7-1.2l-7.23-8.65H34.69A.48.48,0,0,0,34.21,33.59Z"/><path class="cls-1" d="M36.48,33.12l7.22,8.65a4.39,4.39,0,0,1,.7,1.2H55.7a5,5,0,0,0-.3-.62,4.6,4.6,0,0,0-.4-.58l-7.23-8.65Z"/><path class="cls-5" d="M47,48.46h0a.92.92,0,0,1-.91-.92V46.37a.91.91,0,0,1,.91-.91h0a.92.92,0,0,1,.92.91v1.17A.92.92,0,0,1,47,48.46Z"/><path class="cls-5" d="M54,48.46h0a.92.92,0,0,1-.91-.92V46.37a.91.91,0,0,1,.91-.91h0a.91.91,0,0,1,.91.91v1.17A.91.91,0,0,1,54,48.46Z"/><path class="cls-4" d="M15.09,47.64a5,5,0,0,0-5,5h10A5,5,0,0,0,15.09,47.64Z"/><path class="cls-2" d="M18.44,52.66A3.35,3.35,0,1,0,15.09,56,3.35,3.35,0,0,0,18.44,52.66Z"/><path class="cls-4" d="M15.93,52.66a.84.84,0,1,0-.84.83A.83.83,0,0,0,15.93,52.66Z"/><path class="cls-4" d="M34.91,47.64a5,5,0,0,0-5,5h10A5,5,0,0,0,34.91,47.64Z"/><path class="cls-2" d="M38.25,52.66A3.35,3.35,0,1,0,34.91,56,3.35,3.35,0,0,0,38.25,52.66Z"/><path class="cls-4" d="M35.74,52.66a.84.84,0,1,0-.83.83A.83.83,0,0,0,35.74,52.66Z"/></svg>