<svg id="Layer_1" data-name="Layer 1" xmlns="http://www.w3.org/2000/svg" viewBox="0 0 64 64"><defs><style>.cls-1{fill:#F4DFDF;}.cls-2{fill:#e5cccc;}.cls-3{fill:#FC0707;}.cls-4{fill:#DD1515;}.cls-5{fill:#fff;}</style></defs><title>shopping, shop, ecommerce, commerce, receipt, payment, basket</title><path class="cls-1" d="M43.89,32a3.64,3.64,0,0,0-3.65,3.65V37.3h0V52.35A3.64,3.64,0,0,1,36.71,56H51.66a3.64,3.64,0,0,0,3.65-3.65V50.7h0V35.65a3.68,3.68,0,0,1,.51-1.86,1.15,1.15,0,0,0-1-1.78Z"/><path class="cls-2" d="M51.24,52.35V35.61A3.61,3.61,0,0,0,47.64,32H43.89a3.64,3.64,0,0,0-3.65,3.65V37.3h0V52.35a3.63,3.63,0,0,1-2,3.26,3.61,3.61,0,0,0,1.61.39H51.66a3.65,3.65,0,0,0,1.62-.39A3.64,3.64,0,0,1,51.24,52.35Z"/><path class="cls-3" d="M44.1,8a3.64,3.64,0,0,1,3.64,3.65V13.3h0V52.35A3.64,3.64,0,0,0,51.27,56h-15a3.64,3.64,0,0,1-3.65-3.65V50.7h0V11.65A3.65,3.65,0,0,0,29.15,8h15Z"/><path class="cls-4" d="M47.74,11.65A3.64,3.64,0,0,0,44.12,8H32V9.51a3.59,3.59,0,0,1,.71,2.14V35h5.24a6.21,6.21,0,0,0,6.21-6.22V13.54a1.42,1.42,0,0,1,1.43-1.42h2.19Z"/><path class="cls-1" d="M28.75,8a3.65,3.65,0,0,0-3.65,3.65V13.3h0V28.35a3.58,3.58,0,0,1-.51,1.86,1.15,1.15,0,0,0,1,1.78h11a3.64,3.64,0,0,0,3.65-3.65V26.7h0v-15A3.65,3.65,0,0,1,43.7,8h-15Z"/><path class="cls-2" d="M32.67,11.65V32h3.86a3.64,3.64,0,0,0,3.65-3.65V26.7h0v-15A3.65,3.65,0,0,1,43.7,8H29.15A3.65,3.65,0,0,1,32.67,11.65Z"/><path class="cls-5" d="M37.21,14.12H33.14a.46.46,0,0,1-.47-.46h0a.47.47,0,0,1,.47-.47h4.07a.47.47,0,0,1,.47.47h0A.46.46,0,0,1,37.21,14.12Z"/><path class="cls-5" d="M37.21,16.83H33.14a.47.47,0,0,1-.47-.47h0a.47.47,0,0,1,.47-.46h4.07a.47.47,0,0,1,.47.46h0A.47.47,0,0,1,37.21,16.83Z"/><path class="cls-5" d="M37.21,19.54H33.14a.47.47,0,0,1-.47-.47h0a.47.47,0,0,1,.47-.47h4.07a.47.47,0,0,1,.47.47h0A.47.47,0,0,1,37.21,19.54Z"/><path class="cls-5" d="M33.59,22.25h-.45a.47.47,0,0,1-.47-.47h0a.47.47,0,0,1,.47-.47h.45a.47.47,0,0,1,.47.47h0A.47.47,0,0,1,33.59,22.25Z"/><path class="cls-5" d="M36.09,22.25h-.45a.47.47,0,0,1-.47-.47h0a.47.47,0,0,1,.47-.47h.45a.47.47,0,0,1,.47.47h0A.47.47,0,0,1,36.09,22.25Z"/><path class="cls-4" d="M38.17,48.71h4.07a.47.47,0,0,0,.47-.47h0a.47.47,0,0,0-.47-.47H38.17a.47.47,0,0,0-.47.47h0A.47.47,0,0,0,38.17,48.71Z"/><path class="cls-4" d="M41.79,51.42h.45a.47.47,0,0,0,.47-.47h0a.47.47,0,0,0-.47-.47h-.45a.47.47,0,0,0-.47.47h0A.47.47,0,0,0,41.79,51.42Z"/><path class="cls-4" d="M39.29,51.42h.45a.47.47,0,0,0,.47-.47h0a.47.47,0,0,0-.47-.47h-.45a.47.47,0,0,0-.47.47h0A.47.47,0,0,0,39.29,51.42Z"/><path class="cls-1" d="M40.2,40.13a.71.71,0,0,1,0-1.42.7.7,0,0,1,.61.35.66.66,0,0,0,.56.36h0a.79.79,0,0,0,.67-1.21,2.22,2.22,0,0,0-.84-.74A.5.5,0,0,1,41,37h0a.75.75,0,0,0-.75-.75h0a.74.74,0,0,0-.75.75h0a.5.5,0,0,1-.26.44,2.23,2.23,0,0,0-.87,3.16,2.1,2.1,0,0,0,1.89,1,.71.71,0,1,1-.62,1.06.69.69,0,0,0-.57-.36h0a.79.79,0,0,0-.64,1.24,2.28,2.28,0,0,0,.82.72.49.49,0,0,1,.25.44h0a.75.75,0,0,0,.75.75h0a.76.76,0,0,0,.75-.75h0a.47.47,0,0,1,.26-.44,2.25,2.25,0,0,0,.84-3.21A2.1,2.1,0,0,0,40.2,40.13Z"/><path class="cls-4" d="M18.41,46.05a1.38,1.38,0,0,0,1-2.35l-6.29-6.29a1.37,1.37,0,1,0-1.94,1.94l6.29,6.29A1.37,1.37,0,0,0,18.41,46.05Z"/><path class="cls-1" d="M26.82,43.19a1.29,1.29,0,0,1,1.29,1.29v1.15a1.27,1.27,0,0,1-1.32,1.22,1.29,1.29,0,0,0-1.24,1L24.13,55a1.3,1.3,0,0,1-1.27,1H13.25A1.3,1.3,0,0,1,12,55l-1.41-7.07a1.39,1.39,0,0,0-1.33-1A1.3,1.3,0,0,1,8,45.55V43.84a.65.65,0,0,1,.65-.65Z"/><path class="cls-2" d="M34.66,43.8v1.75a1.3,1.3,0,0,1-1.29,1.3h0a1.29,1.29,0,0,0-1.27,1L30.68,55a1.3,1.3,0,0,1-1.27,1H19.8a1.3,1.3,0,0,1-1.27-1l-1.42-7.07a1.29,1.29,0,0,0-1.27-1h0a1.3,1.3,0,0,1-1.29-1.3V43.19h19.5A.61.61,0,0,1,34.66,43.8Z"/><rect class="cls-5" x="28.3" y="48.31" width="0.98" height="0.98" transform="translate(57.58 97.6) rotate(180)"/><rect class="cls-5" x="25.51" y="48.31" width="0.98" height="0.98" transform="translate(52 97.6) rotate(180)"/><rect class="cls-5" x="22.72" y="48.31" width="0.98" height="0.98" transform="translate(46.42 97.6) rotate(180)"/><rect class="cls-5" x="19.93" y="48.31" width="0.98" height="0.98" transform="translate(40.84 97.6) rotate(180)"/><rect class="cls-5" x="26.91" y="50.51" width="0.98" height="0.98" transform="translate(54.79 101.99) rotate(180)"/><rect class="cls-5" x="24.12" y="50.51" width="0.98" height="0.98" transform="translate(49.21 101.99) rotate(180)"/><rect class="cls-5" x="21.33" y="50.51" width="0.98" height="0.98" transform="translate(43.63 101.99) rotate(180)"/><rect class="cls-5" x="25.51" y="52.71" width="0.98" height="0.98" transform="translate(52 106.39) rotate(180)"/><rect class="cls-5" x="22.72" y="52.71" width="0.98" height="0.98" transform="translate(46.42 106.39) rotate(180)"/><path class="cls-3" d="M24.6,46.05a1.38,1.38,0,0,0,1-2.35l-6.3-6.29a1.37,1.37,0,0,0-1-.4H12.12a1.37,1.37,0,1,0,0,2.74h5.62l5.89,5.89A1.37,1.37,0,0,0,24.6,46.05Z"/></svg>