<svg id="Layer_1" data-name="Layer 1" xmlns="http://www.w3.org/2000/svg" viewBox="0 0 64 64"><defs><style>.cls-1{fill:#ff5454;}.cls-2{fill:#dd1515;}.cls-3{fill:#fff;}.cls-4{fill:#ccd8e5;}.cls-5{fill:#dfe8f4;}</style></defs><title>shopping, shop, ecommerce, commerce, call, dollar, finance</title><path class="cls-1" d="M51.93,8H30.07A4.07,4.07,0,0,0,26,12.07V34.88a1.26,1.26,0,0,0,2.15.89L30.94,33a3.34,3.34,0,0,1,2.37-1H51.93A4.07,4.07,0,0,0,56,27.93V12.07A4.07,4.07,0,0,0,51.93,8Z"/><path class="cls-2" d="M26,34.88a1.26,1.26,0,0,0,2.15.89L30.94,33a3.34,3.34,0,0,1,2.37-1H28.46A2.46,2.46,0,0,0,26,34.45Z"/><path class="cls-3" d="M41,18.8a1.14,1.14,0,0,1,0-2.27,1.11,1.11,0,0,1,1,.56,1.08,1.08,0,0,0,.91.57h0A1.26,1.26,0,0,0,44,15.72a3.66,3.66,0,0,0-1.34-1.19.79.79,0,0,1-.41-.71h0a1.2,1.2,0,0,0-1.2-1.2h0a1.2,1.2,0,0,0-1.2,1.2h0a.78.78,0,0,1-.41.71A3.59,3.59,0,0,0,38,19.61a3.39,3.39,0,0,0,3,1.59,1.14,1.14,0,0,1,0,2.27,1.13,1.13,0,0,1-1-.56,1.06,1.06,0,0,0-.91-.57h0a1.26,1.26,0,0,0-1,2,3.57,3.57,0,0,0,1.32,1.15.78.78,0,0,1,.4.71h0a1.2,1.2,0,0,0,1.2,1.2h0a1.2,1.2,0,0,0,1.2-1.2h0a.79.79,0,0,1,.42-.71A3.6,3.6,0,0,0,44,20.32,3.38,3.38,0,0,0,41,18.8Z"/><path class="cls-4" d="M38.61,46.13,37.1,44.62a5.27,5.27,0,0,0-7.47,0h0a1.77,1.77,0,0,0-.53,1.27h0a1.8,1.8,0,0,1-1.53,1.79A10,10,0,0,1,16.43,36.54,1.78,1.78,0,0,1,18.22,35h0a1.79,1.79,0,0,0,1.27-.53h0a5.29,5.29,0,0,0,0-7.47L18,25.49a4.85,4.85,0,0,0-7.45.65,14.56,14.56,0,0,0-2.38,9A22.51,22.51,0,0,0,29,56a14.56,14.56,0,0,0,9-2.38A4.85,4.85,0,0,0,38.61,46.13Z"/><path class="cls-5" d="M28.08,47.52a2.16,2.16,0,0,1-.51.16A10,10,0,0,1,16.43,36.54a1.61,1.61,0,0,1,.16-.51c-2.12,2.3-1.9,7.16,1.21,10.27S25.78,49.64,28.08,47.52Z"/><path class="cls-5" d="M37.1,44.62l-.05-.06c-1.79-1.73-4.4,1-2.64,2.8l1.46,1.46c1.76,1.76,4.53-.85,2.8-2.63l-.06-.06Z"/><path class="cls-5" d="M18,25.49l0,0c-1.78-1.73-4.39,1-2.63,2.8l1.46,1.46c1.76,1.76,4.53-.85,2.79-2.64l-.05,0Z"/></svg>