<svg id="Layer_1" data-name="Layer 1" xmlns="http://www.w3.org/2000/svg" viewBox="0 0 64 64"><defs><style>.cls-1{fill:#F4DFDF;}.cls-2{fill:#FC0707;}.cls-3{fill:#DD1515;}.cls-4{fill:#e5cccc;}.cls-5{fill:#fff;}</style></defs><title>shopping, shop, ecommerce, commerce, laptop, online, sale, percentage</title><path class="cls-1" d="M15.21,24H48.79a3,3,0,0,1,3,3V50.67a0,0,0,0,1,0,0H12.17a0,0,0,0,1,0,0V27A3,3,0,0,1,15.21,24Z"/><path class="cls-2" d="M9.13,50.67H54.87A1.13,1.13,0,0,1,56,51.8v.65A3.55,3.55,0,0,1,52.45,56H12.2A4.2,4.2,0,0,1,8,51.8v0A1.13,1.13,0,0,1,9.13,50.67Z"/><path class="cls-3" d="M26.23,51.74a2.3,2.3,0,0,0,1.95,1.07h7.64a2.3,2.3,0,0,0,2-1.07,2.3,2.3,0,0,1,1.95-1.07H24.28A2.3,2.3,0,0,1,26.23,51.74Z"/><rect class="cls-4" x="12.17" y="48.25" width="39.58" height="2.42"/><path class="cls-4" d="M21.11,32.42H42.89a2.3,2.3,0,0,0,2.3-2.3V24H18.81v6.17A2.3,2.3,0,0,0,21.11,32.42Z"/><path class="cls-3" d="M41.72,8H22.28a3.46,3.46,0,0,0-3.47,3.46V24.54A3.46,3.46,0,0,0,22.28,28h4.28A3.49,3.49,0,0,1,29,29l2.36,2.36a.88.88,0,0,0,1.24,0L35,29a3.49,3.49,0,0,1,2.46-1h4.28a3.46,3.46,0,0,0,3.47-3.46V11.46A3.46,3.46,0,0,0,41.72,8Z"/><path class="cls-3" d="M29,29l2.36,2.36a.88.88,0,0,0,1.24,0L35,29a3.49,3.49,0,0,1,2.46-1H26.56A3.49,3.49,0,0,1,29,29Z"/><path class="cls-5" d="M30.86,15a1.66,1.66,0,1,1-1.66-1.65A1.66,1.66,0,0,1,30.86,15Z"/><path class="cls-5" d="M36.45,20.58a1.66,1.66,0,1,1-1.65-1.65A1.65,1.65,0,0,1,36.45,20.58Z"/><path class="cls-5" d="M29.09,21.45a.71.71,0,0,1-.53-.22.74.74,0,0,1,0-1.06l5.82-5.83a.75.75,0,0,1,1.06,0,.74.74,0,0,1,0,1.06l-5.82,5.83A.74.74,0,0,1,29.09,21.45Z"/></svg>