<svg id="Layer_1" data-name="Layer 1" xmlns="http://www.w3.org/2000/svg" viewBox="0 0 64 64"><defs><style>.cls-1{fill:#F4DFDF;}.cls-2{fill:#e5cccc;}.cls-3{fill:#FC0707;}.cls-4{fill:#DD1515;}.cls-5{fill:#fff;}</style></defs><title>shopping, shop, ecommerce, commerce, basket, receipt, checkout</title><path class="cls-1" d="M43.69,32A3.65,3.65,0,0,0,40,35.65V37.3h0V52.35A3.64,3.64,0,0,1,36.52,56H51.47a3.64,3.64,0,0,0,3.65-3.65V50.7h0V35.65a3.68,3.68,0,0,1,.51-1.86,1.15,1.15,0,0,0-1-1.78Z"/><path class="cls-2" d="M51.05,52.35V35.61A3.61,3.61,0,0,0,47.45,32H43.69A3.65,3.65,0,0,0,40,35.65V37.3h0V52.35a3.63,3.63,0,0,1-2,3.26,3.68,3.68,0,0,0,1.62.39H51.47a3.68,3.68,0,0,0,1.62-.39A3.63,3.63,0,0,1,51.05,52.35Z"/><path class="cls-3" d="M43.9,8a3.64,3.64,0,0,1,3.65,3.65V13.3h0V52.35A3.65,3.65,0,0,0,51.07,56H36.13a3.64,3.64,0,0,1-3.65-3.65V50.7h0V11.65A3.65,3.65,0,0,0,29,8H43.9Z"/><path class="cls-4" d="M47.55,11.65A3.65,3.65,0,0,0,43.93,8H31.77V9.51a3.59,3.59,0,0,1,.71,2.14V35h5.23a6.21,6.21,0,0,0,6.22-6.22V13.54a1.42,1.42,0,0,1,1.43-1.42h2.19Z"/><path class="cls-1" d="M28.56,8a3.64,3.64,0,0,0-3.65,3.65V13.3h0V28.35a3.68,3.68,0,0,1-.51,1.86,1.15,1.15,0,0,0,1,1.78h11A3.65,3.65,0,0,0,40,28.35V26.7h0v-15A3.64,3.64,0,0,1,43.51,8H28.56Z"/><path class="cls-2" d="M32.48,11.65V32h3.86A3.65,3.65,0,0,0,40,28.35V26.7h0v-15A3.64,3.64,0,0,1,43.51,8H29A3.65,3.65,0,0,1,32.48,11.65Z"/><path class="cls-5" d="M37,14.12H32.94a.46.46,0,0,1-.46-.46h0a.47.47,0,0,1,.46-.47H37a.47.47,0,0,1,.46.47h0A.46.46,0,0,1,37,14.12Z"/><path class="cls-5" d="M37,16.83H32.94a.47.47,0,0,1-.46-.47h0a.47.47,0,0,1,.46-.46H37a.47.47,0,0,1,.46.46h0A.47.47,0,0,1,37,16.83Z"/><path class="cls-5" d="M37,19.54H32.94a.47.47,0,0,1-.46-.47h0a.47.47,0,0,1,.46-.47H37a.47.47,0,0,1,.46.47h0A.47.47,0,0,1,37,19.54Z"/><path class="cls-5" d="M33.4,22.25h-.46a.47.47,0,0,1-.46-.47h0a.47.47,0,0,1,.46-.47h.46a.47.47,0,0,1,.47.47h0A.47.47,0,0,1,33.4,22.25Z"/><path class="cls-5" d="M35.9,22.25h-.45a.47.47,0,0,1-.47-.47h0a.47.47,0,0,1,.47-.47h.45a.47.47,0,0,1,.47.47h0A.47.47,0,0,1,35.9,22.25Z"/><path class="cls-4" d="M38,48.71h4.07a.47.47,0,0,0,.47-.47h0a.47.47,0,0,0-.47-.47H38a.47.47,0,0,0-.47.47h0A.47.47,0,0,0,38,48.71Z"/><path class="cls-4" d="M41.6,51.42h.45a.47.47,0,0,0,.47-.47h0a.47.47,0,0,0-.47-.47H41.6a.47.47,0,0,0-.47.47h0A.47.47,0,0,0,41.6,51.42Z"/><path class="cls-4" d="M39.09,51.42h.46A.47.47,0,0,0,40,51h0a.47.47,0,0,0-.47-.47h-.46a.46.46,0,0,0-.46.47h0A.46.46,0,0,0,39.09,51.42Z"/><path class="cls-4" d="M18.22,46.05a1.38,1.38,0,0,0,1-2.35l-6.3-6.29a1.36,1.36,0,0,0-1.94,0,1.38,1.38,0,0,0,0,1.94l6.3,6.29A1.37,1.37,0,0,0,18.22,46.05Z"/><path class="cls-1" d="M26.63,43.19a1.29,1.29,0,0,1,1.29,1.29v1.15a1.27,1.27,0,0,1-1.32,1.22,1.27,1.27,0,0,0-1.24,1L23.94,55a1.3,1.3,0,0,1-1.27,1H13.06a1.3,1.3,0,0,1-1.27-1l-1.42-7.07a1.38,1.38,0,0,0-1.32-1,1.3,1.3,0,0,1-1.24-1.3V43.84a.65.65,0,0,1,.65-.65Z"/><path class="cls-2" d="M34.47,43.8v1.75a1.3,1.3,0,0,1-1.3,1.3h0a1.29,1.29,0,0,0-1.27,1L30.49,55a1.3,1.3,0,0,1-1.27,1H19.61a1.3,1.3,0,0,1-1.27-1l-1.42-7.07a1.29,1.29,0,0,0-1.27-1h0a1.3,1.3,0,0,1-1.29-1.3V43.19h19.5A.61.61,0,0,1,34.47,43.8Z"/><rect class="cls-5" x="28.11" y="48.31" width="0.98" height="0.98" transform="translate(57.2 97.6) rotate(180)"/><rect class="cls-5" x="25.32" y="48.31" width="0.98" height="0.98" transform="translate(51.61 97.6) rotate(180)"/><rect class="cls-5" x="22.53" y="48.31" width="0.98" height="0.98" transform="translate(46.03 97.6) rotate(180)"/><rect class="cls-5" x="19.74" y="48.31" width="0.98" height="0.98" transform="translate(40.45 97.6) rotate(180)"/><rect class="cls-5" x="26.71" y="50.51" width="0.98" height="0.98" transform="translate(54.41 101.99) rotate(180)"/><rect class="cls-5" x="23.92" y="50.51" width="0.98" height="0.98" transform="translate(48.82 101.99) rotate(180)"/><rect class="cls-5" x="21.13" y="50.51" width="0.98" height="0.98" transform="translate(43.24 101.99) rotate(180)"/><rect class="cls-5" x="25.32" y="52.71" width="0.98" height="0.98" transform="translate(51.61 106.39) rotate(180)"/><rect class="cls-5" x="22.53" y="52.71" width="0.98" height="0.98" transform="translate(46.03 106.39) rotate(180)"/><path class="cls-3" d="M24.41,46.05a1.38,1.38,0,0,0,1-2.35l-6.29-6.29a1.37,1.37,0,0,0-1-.4h-6.2a1.37,1.37,0,0,0,0,2.74h5.63l5.89,5.89A1.37,1.37,0,0,0,24.41,46.05Z"/><path class="cls-1" d="M42.21,42.41H38a.44.44,0,0,1-.43-.34l-.76-3a.45.45,0,0,1,.44-.55H43a.45.45,0,0,1,.44.55l-.76,3A.45.45,0,0,1,42.21,42.41Z"/><path class="cls-1" d="M39,43.87a.67.67,0,1,1-.67-.67A.67.67,0,0,1,39,43.87Z"/><path class="cls-1" d="M42.63,43.87A.67.67,0,1,1,42,43.2.67.67,0,0,1,42.63,43.87Z"/><path class="cls-1" d="M38.19,40.34l-.75-3h0A.42.42,0,0,0,37,37H35.66a.43.43,0,0,0,0,.86h.64a.32.32,0,0,1,.31.24l.55,2.23a.45.45,0,0,0,.44.34h1A.45.45,0,0,1,38.19,40.34Z"/></svg>