<svg id="Layer_1" data-name="Layer 1" xmlns="http://www.w3.org/2000/svg" viewBox="0 0 64 64"><defs><style>.cls-1{fill:#DD1515;}.cls-2{fill:#F4DFDF;}.cls-3{fill:#e5cccc;}.cls-4{fill:#FC0707;}.cls-5{fill:#fff;}</style></defs><title>shopping, shop, ecommerce, commerce, remove, delete, basket</title><path class="cls-1" d="M55.41,11.08a2,2,0,0,0-1.32-.58H46.25v3.83h3.08l-11,11a2,2,0,1,0,2.83,2.82L55.41,13.91A2,2,0,0,0,55.41,11.08Z"/><path class="cls-2" d="M53.53,24h-43A2.56,2.56,0,0,0,8,26.46a3.1,3.1,0,0,0,3.1,3.07h1.21l3.11,19.19a2.46,2.46,0,0,0,2.43,2.07h28.3a2.46,2.46,0,0,0,2.43-2.07l3-18.38a1,1,0,0,1,.95-.81h0a3.53,3.53,0,0,0,2.94-1.44A2.54,2.54,0,0,0,53.53,24Z"/><path class="cls-3" d="M41.53,24h-31A2.56,2.56,0,0,0,8,26.46a3.1,3.1,0,0,0,3.1,3.07h1.21l3.11,19.19a2.46,2.46,0,0,0,2.43,2.07h16.3a2.46,2.46,0,0,0,2.43-2.07l3-18.38a1,1,0,0,1,.95-.81,3.53,3.53,0,0,0,2.94-1.44A2.54,2.54,0,0,0,41.53,24Z"/><path class="cls-2" d="M20,38.42h0a1.23,1.23,0,0,1-1.22-1.23h0A1.22,1.22,0,0,1,20,36h0a1.22,1.22,0,0,1,1.22,1.22h0A1.22,1.22,0,0,1,20,38.42Z"/><path class="cls-2" d="M26,38.42h0a1.22,1.22,0,0,1-1.22-1.23h0A1.22,1.22,0,0,1,26,36h0a1.22,1.22,0,0,1,1.22,1.22h0A1.23,1.23,0,0,1,26,38.42Z"/><path class="cls-2" d="M32,38.42h0a1.22,1.22,0,0,1-1.22-1.23h0A1.22,1.22,0,0,1,32,36h0a1.22,1.22,0,0,1,1.22,1.22h0A1.23,1.23,0,0,1,32,38.42Z"/><circle class="cls-4" cx="15.25" cy="48.75" r="7.25"/><path class="cls-5" d="M17.94,49.75H12.56a1,1,0,0,1-1-1h0a1,1,0,0,1,1-1h5.38a1,1,0,0,1,1,1h0A1,1,0,0,1,17.94,49.75Z"/><path class="cls-1" d="M55.2,11A2,2,0,0,0,54,10.5H46.15v3.83h2.49a.24.24,0,0,1,.17.42L38.32,25.24a2.09,2.09,0,0,0-.19,2.8,2,2,0,0,0,2.93.11L55.21,14A2.09,2.09,0,0,0,55.2,11Z"/><path class="cls-2" d="M53.42,24H10.47A2.56,2.56,0,0,0,7.9,26.46,3.09,3.09,0,0,0,11,29.53h1.22l3.1,19.19a2.48,2.48,0,0,0,2.44,2.07h28.3a2.47,2.47,0,0,0,2.43-2.07l3-18.38a1,1,0,0,1,.95-.81h0a3.55,3.55,0,0,0,3-1.44A2.54,2.54,0,0,0,53.42,24Z"/><path class="cls-3" d="M41.42,24H10.47A2.56,2.56,0,0,0,7.9,26.46,3.09,3.09,0,0,0,11,29.53h1.22l3.1,19.19a2.48,2.48,0,0,0,2.44,2.07h16.3a2.47,2.47,0,0,0,2.43-2.07l3-18.38a1,1,0,0,1,.95-.81,3.55,3.55,0,0,0,3-1.44A2.54,2.54,0,0,0,41.42,24Z"/><path class="cls-2" d="M19.88,39.42h0a1.22,1.22,0,0,1-1.22-1.23h0A1.22,1.22,0,0,1,19.88,37h0a1.22,1.22,0,0,1,1.22,1.22h0A1.23,1.23,0,0,1,19.88,39.42Z"/><path class="cls-2" d="M25.9,39.42h0a1.23,1.23,0,0,1-1.23-1.23h0A1.23,1.23,0,0,1,25.9,37h0a1.22,1.22,0,0,1,1.22,1.22h0A1.23,1.23,0,0,1,25.9,39.42Z"/><path class="cls-2" d="M31.91,39.42h0a1.23,1.23,0,0,1-1.22-1.23h0A1.22,1.22,0,0,1,31.91,37h0a1.23,1.23,0,0,1,1.23,1.22h0A1.23,1.23,0,0,1,31.91,39.42Z"/><circle class="cls-4" cx="15.15" cy="48.75" r="7.25"/><path class="cls-4" d="M55.72,11.45a2,2,0,0,0-1.62-.95H39.37a2,2,0,0,0-1.42.58L23.79,25.24A2.08,2.08,0,0,0,23.6,28a2,2,0,0,0,2.93.11L40,14.72a1.3,1.3,0,0,1,.92-.39H54.55a1.06,1.06,0,0,0,.77-.32h0A2.09,2.09,0,0,0,55.72,11.45Z"/><path class="cls-5" d="M17.84,49.75H12.45a1,1,0,0,1-1-1h0a1,1,0,0,1,1-1h5.39a1,1,0,0,1,1,1h0A1,1,0,0,1,17.84,49.75Z"/></svg>