<svg id="Layer_1" data-name="Layer 1" xmlns="http://www.w3.org/2000/svg" viewBox="0 0 64 64"><defs><style>.cls-1{fill:#DD1515;}.cls-2{fill:#FC0707;}.cls-3{fill:#fff;}.cls-4{fill:#F4DFDF;}.cls-5{fill:#e5cccc;}</style></defs><title>shopping, shop, ecommerce, commerce, bag, basket, checkout</title><path class="cls-1" d="M42.41,28.63h11A2.57,2.57,0,0,1,56,31.2V53.43A2.57,2.57,0,0,1,53.45,56h-11a0,0,0,0,1,0,0V28.63A0,0,0,0,1,42.41,28.63Z"/><path class="cls-2" d="M27.57,28.63H45.7a2,2,0,0,1,2,2V52.43A3.57,3.57,0,0,1,44.1,56H27.57A2.57,2.57,0,0,1,25,53.43V31.2A2.57,2.57,0,0,1,27.57,28.63Z"/><path class="cls-3" d="M36.33,39.5a6.13,6.13,0,0,1-6.12-6.12V32h2v1.38a4.13,4.13,0,0,0,8.25,0V32h2v1.38A6.13,6.13,0,0,1,36.33,39.5Z"/><path class="cls-1" d="M41.54,21.13a6.13,6.13,0,0,1,6.12,6.12v1.38h-2V27.25a4.13,4.13,0,0,0-8.25,0v1.38h-2V27.25A6.13,6.13,0,0,1,41.54,21.13Z"/><path class="cls-4" d="M10.68,8H25a2.66,2.66,0,0,1,2.66,2.66V25.55a.82.82,0,0,1-1.4.58l-1.83-1.82a2.17,2.17,0,0,0-1.54-.64H10.68A2.66,2.66,0,0,1,8,21V10.66A2.66,2.66,0,0,1,10.68,8Z"/><path class="cls-5" d="M27.61,25.55a.82.82,0,0,1-1.4.58l-1.83-1.82a2.17,2.17,0,0,0-1.54-.64H26a1.6,1.6,0,0,1,1.6,1.6Z"/><path class="cls-3" d="M20.53,17.7H15.31a.56.56,0,0,1-.54-.42l-.94-3.77a.55.55,0,0,1,.54-.69h7.1a.55.55,0,0,1,.54.69l-.94,3.77A.56.56,0,0,1,20.53,17.7Z"/><path class="cls-3" d="M16.46,19.51a.84.84,0,1,1-.84-.83A.83.83,0,0,1,16.46,19.51Z"/><path class="cls-3" d="M21.05,19.51a.83.83,0,0,1-.83.84.84.84,0,1,1,0-1.67A.83.83,0,0,1,21.05,19.51Z"/><path class="cls-3" d="M15.51,15.11l-.94-3.76h0a.56.56,0,0,0-.52-.41H12.35a.55.55,0,0,0,0,1.09h.8a.39.39,0,0,1,.38.29l.7,2.79a.55.55,0,0,0,.54.42h1.28A.55.55,0,0,1,15.51,15.11Z"/></svg>