<svg id="Layer_1" data-name="Layer 1" xmlns="http://www.w3.org/2000/svg" viewBox="0 0 64 64"><defs><style>.cls-1{fill:#dd1515;}.cls-2{fill:#ff5454;}.cls-3{fill:#dfe8f4;}.cls-4{fill:#ccd8e5;}.cls-5{fill:#fff;}</style></defs><title>shopping, shop, ecommerce, commerce, online, monitor, computer, payment</title><path class="cls-1" d="M37.45,50.67h0a2.24,2.24,0,0,1-2.24-2.25V45.17H28.79v3.25a2.24,2.24,0,0,1-2.24,2.25h0A3.55,3.55,0,0,0,23,54.22h0A1.79,1.79,0,0,0,24.79,56H39.21A1.79,1.79,0,0,0,41,54.22h0A3.55,3.55,0,0,0,37.45,50.67Z"/><path class="cls-2" d="M37.45,50.67H26.55A3.55,3.55,0,0,0,23,54.22h0A1.79,1.79,0,0,0,24.79,56H39.21A1.79,1.79,0,0,0,41,54.22h0A3.55,3.55,0,0,0,37.45,50.67Z"/><rect class="cls-3" x="8" y="13.17" width="48" height="34" rx="4.04"/><path class="cls-2" d="M8,41.38v1.75a4,4,0,0,0,4,4H52a4,4,0,0,0,4-4V41.38Z"/><rect class="cls-4" x="8" y="39.31" width="48" height="2.06"/><path class="cls-5" d="M32,26.52a1.42,1.42,0,1,1,1.24-2.13,1.35,1.35,0,0,0,1.13.71h0a1.57,1.57,0,0,0,1.33-2.42A4.47,4.47,0,0,0,34,21.19a1,1,0,0,1-.5-.88h0a1.5,1.5,0,0,0-1.5-1.5h0a1.5,1.5,0,0,0-1.5,1.5h0a1,1,0,0,1-.52.89,4.47,4.47,0,0,0-1.73,6.33,4.21,4.21,0,0,0,3.77,2,1.42,1.42,0,0,1,0,2.83,1.4,1.4,0,0,1-1.22-.7,1.33,1.33,0,0,0-1.13-.71h0a1.57,1.57,0,0,0-1.29,2.47A4.46,4.46,0,0,0,30,34.84a1,1,0,0,1,.5.88h0A1.5,1.5,0,0,0,32,37.21h0a1.5,1.5,0,0,0,1.5-1.49h0a1,1,0,0,1,.52-.89,4.49,4.49,0,0,0,1.68-6.42A4.2,4.2,0,0,0,32,26.52Z"/></svg>