<svg id="Layer_1" data-name="Layer 1" xmlns="http://www.w3.org/2000/svg" viewBox="0 0 64 64"><defs><style>.cls-1{fill:#ff5454;}.cls-2{fill:#dd1515;}.cls-3{fill:#ccd8e5;}.cls-4{fill:#dfe8f4;}.cls-5{fill:#fff;}</style></defs><title>shopping, shop, ecommerce, commerce, call, cart</title><path class="cls-1" d="M51.88,8H30A4.07,4.07,0,0,0,26,12.07V34.88a1.26,1.26,0,0,0,2.15.89L30.88,33a3.37,3.37,0,0,1,2.38-1H51.88A4.07,4.07,0,0,0,56,27.93V12.07A4.07,4.07,0,0,0,51.88,8Z"/><path class="cls-2" d="M26,34.88a1.26,1.26,0,0,0,2.15.89L30.88,33a3.37,3.37,0,0,1,2.38-1H28.4A2.45,2.45,0,0,0,26,34.45Z"/><path class="cls-3" d="M38.56,46.13,37,44.62a5.27,5.27,0,0,0-7.47,0h0a1.8,1.8,0,0,0-.52,1.27h0a1.8,1.8,0,0,1-1.53,1.79A10,10,0,0,1,16.38,36.54,1.77,1.77,0,0,1,18.16,35h0a1.81,1.81,0,0,0,1.28-.53h0a5.29,5.29,0,0,0,0-7.47l-1.52-1.52a4.84,4.84,0,0,0-7.45.65,14.5,14.5,0,0,0-2.38,9A22.51,22.51,0,0,0,28.94,56a14.55,14.55,0,0,0,9-2.38A4.85,4.85,0,0,0,38.56,46.13Z"/><path class="cls-4" d="M28,47.52a2.16,2.16,0,0,1-.51.16A10,10,0,0,1,16.38,36.54a1.39,1.39,0,0,1,.16-.51c-2.12,2.3-1.91,7.15,1.21,10.27S25.72,49.64,28,47.52Z"/><path class="cls-4" d="M37,44.62l0-.06c-1.78-1.73-4.4,1-2.64,2.8l1.47,1.46c1.75,1.76,4.52-.85,2.79-2.63l0-.06Z"/><path class="cls-4" d="M17.92,25.49l-.05,0c-1.79-1.73-4.4,1-2.64,2.8L16.7,29.7c1.76,1.76,4.53-.85,2.79-2.64l0,0Z"/><path class="cls-5" d="M45.79,23.28H37.43a.9.9,0,0,1-.87-.67l-1.5-6a.88.88,0,0,1,.86-1.1H47.3a.88.88,0,0,1,.86,1.1l-1.51,6A.89.89,0,0,1,45.79,23.28Z"/><circle class="cls-5" cx="37.93" cy="26.19" r="1.34"/><path class="cls-5" d="M46.62,26.19a1.34,1.34,0,1,1-1.33-1.34A1.34,1.34,0,0,1,46.62,26.19Z"/><path class="cls-5" d="M37.75,19.14l-1.51-6h0a.86.86,0,0,0-.82-.64H32.7a.87.87,0,1,0,0,1.74H34a.62.62,0,0,1,.61.47l1.12,4.46a.89.89,0,0,0,.86.67h2A.89.89,0,0,1,37.75,19.14Z"/></svg>