<svg id="Layer_1" data-name="Layer 1" xmlns="http://www.w3.org/2000/svg" viewBox="0 0 64 64"><defs><style>.cls-1{fill:#F4DFDF;}.cls-2{fill:#e5cccc;}.cls-3{fill:#FC0707;}.cls-4{fill:#DD1515;}.cls-5{fill:#fff;}</style></defs><title>shopping, shop, ecommerce, commerce, coupon, dollar, finance</title><path class="cls-1" d="M36.38,17.87H11.1A3.22,3.22,0,0,0,8,21.19v6.42a3.4,3.4,0,0,0,2.15,3.16,6.76,6.76,0,0,1,0,12.34A3.39,3.39,0,0,0,8,46.26v6.42A3.22,3.22,0,0,0,11.1,56H36.38Z"/><path class="cls-2" d="M22.51,17.87A12.54,12.54,0,0,1,35,30.41V43.47A12.53,12.53,0,0,1,22.51,56H36.38V17.87Z"/><path class="cls-3" d="M52.68,17.87h-13V56h13A3.32,3.32,0,0,0,56,52.68V46.26a3.4,3.4,0,0,0-2.3-3.15,6.59,6.59,0,0,1,0-12.34A3.41,3.41,0,0,0,56,27.61V21.19A3.32,3.32,0,0,0,52.68,17.87Z"/><path class="cls-3" d="M52.68,17.87c1.83,0,3.32,1.49,3.32,4v-.7A3.32,3.32,0,0,0,52.68,17.87Z"/><rect class="cls-2" x="36.09" y="17.87" width="2.29" height="38.13"/><path class="cls-2" d="M12.56,32.21,12.35,32v0Z"/><rect class="cls-4" x="38.39" y="17.87" width="2.61" height="38.13"/><path class="cls-5" d="M23.86,35.44a1.42,1.42,0,0,1,0-2.83,1.43,1.43,0,0,1,1.23.7,1.31,1.31,0,0,0,1.13.71h0a1.57,1.57,0,0,0,1.32-2.42,4.47,4.47,0,0,0-1.68-1.49,1,1,0,0,1-.5-.88h0a1.5,1.5,0,0,0-1.5-1.49h0a1.49,1.49,0,0,0-1.49,1.49h0a1,1,0,0,1-.52.88,4.47,4.47,0,0,0-1.74,6.33,4.21,4.21,0,0,0,3.77,2,1.42,1.42,0,1,1-1.24,2.13,1.35,1.35,0,0,0-1.13-.71h0a1.58,1.58,0,0,0-1.29,2.48,4.53,4.53,0,0,0,1.64,1.43,1,1,0,0,1,.51.88h0a1.5,1.5,0,0,0,1.49,1.5h0a1.5,1.5,0,0,0,1.5-1.5h0a1,1,0,0,1,.52-.89,4.48,4.48,0,0,0,1.68-6.41A4.17,4.17,0,0,0,23.86,35.44Z"/></svg>