<svg id="Layer_1" data-name="Layer 1" xmlns="http://www.w3.org/2000/svg" viewBox="0 0 64 64"><defs><style>.cls-1{fill:#ff5454;}.cls-2{fill:#dd1515;}.cls-3{fill:#fff;}.cls-4{fill:#dfe8f4;}.cls-5{fill:#ccd8e5;}</style></defs><title>shopping, shop, ecommerce, commerce, store, shop</title><path class="cls-1" d="M17.26,26.11,24,11.29H19.08a2.05,2.05,0,0,0-1.68.89l-8.78,13a3.61,3.61,0,0,0-.62,2V30a2,2,0,0,0,2,2h7V27.28A2.8,2.8,0,0,1,17.26,26.11Z"/><path class="cls-1" d="M55.38,25.13,46.6,12.18a2.05,2.05,0,0,0-1.68-.89H40l6.75,14.82A2.8,2.8,0,0,1,47,27.28V32h7a2,2,0,0,0,2-2V27.14A3.61,3.61,0,0,0,55.38,25.13Z"/><rect class="cls-1" x="11.69" y="28.71" width="40.63" height="24"/><path class="cls-2" d="M17.26,26.11l0-.05H8.17A3.59,3.59,0,0,0,8,27.14V30a2,2,0,0,0,2,2h7V27.28A2.8,2.8,0,0,1,17.26,26.11Z"/><path class="cls-2" d="M55.83,26.06H46.72l0,.05A2.8,2.8,0,0,1,47,27.28V32h7a2,2,0,0,0,2-2V27.14A3.59,3.59,0,0,0,55.83,26.06Z"/><path class="cls-3" d="M40,11.29H24L17.26,26.11A2.8,2.8,0,0,0,17,27.28V32H47V27.28a2.8,2.8,0,0,0-.25-1.17Z"/><path class="cls-4" d="M17.26,26.11A2.8,2.8,0,0,0,17,27.28V32H47V27.28a2.8,2.8,0,0,0-.25-1.17l0-.05H17.28Z"/><path class="cls-1" d="M34.59,11.29H29.41L27,26.47a2.6,2.6,0,0,0,0,.4V32H37V26.87a2.6,2.6,0,0,0,0-.4Z"/><path class="cls-2" d="M36.89,26.06H27.11l-.07.41a2.6,2.6,0,0,0,0,.4V32H37V26.87a2.6,2.6,0,0,0,0-.4Z"/><path class="cls-4" d="M27,52.71H17v-11a5,5,0,0,1,5-5h0a5,5,0,0,1,5,5Z"/><path class="cls-5" d="M18,41.68a4,4,0,0,1,8,0v11h1v-11a5,5,0,0,0-10,0v11h1Z"/><rect class="cls-4" x="32" y="36.68" width="15.21" height="9.36" rx="0.65"/><path class="cls-5" d="M46.21,37.68V45H33V37.68H46.21m.35-1H32.65a.65.65,0,0,0-.65.65v8.06a.65.65,0,0,0,.65.65H46.56a.65.65,0,0,0,.65-.65V37.33a.65.65,0,0,0-.65-.65Z"/><rect class="cls-1" x="31.13" y="45.04" width="16.94" height="1.65" rx="0.47"/><rect class="cls-2" x="11.69" y="32.04" width="40.63" height="1.31"/><path class="cls-5" d="M54.35,56H9.65A1.65,1.65,0,0,1,8,54.35H8a1.65,1.65,0,0,1,1.65-1.64h44.7A1.65,1.65,0,0,1,56,54.35h0A1.65,1.65,0,0,1,54.35,56Z"/></svg>