<svg id="Layer_1" data-name="Layer 1" xmlns="http://www.w3.org/2000/svg" viewBox="0 0 64 64"><defs><style>.cls-1{fill:#F4DFDF;}.cls-2{fill:#e5cccc;}.cls-3{fill:#FC0707;}.cls-4{fill:#DD1515;}.cls-5{fill:#fff;}</style></defs><title>shopping, shop, ecommerce, commerce, percentage, sale, receipt, basket</title><path class="cls-1" d="M43.79,32a3.64,3.64,0,0,0-3.65,3.65V37.3h0V52.35A3.65,3.65,0,0,1,36.62,56h15a3.65,3.65,0,0,0,3.65-3.65V50.7h0V35.65a3.58,3.58,0,0,1,.51-1.86,1.15,1.15,0,0,0-1-1.78Z"/><path class="cls-2" d="M51.14,52.35V35.61A3.61,3.61,0,0,0,47.54,32H43.79a3.64,3.64,0,0,0-3.65,3.65V37.3h0V52.35a3.64,3.64,0,0,1-2,3.26,3.65,3.65,0,0,0,1.62.39H51.57a3.64,3.64,0,0,0,1.61-.39A3.64,3.64,0,0,1,51.14,52.35Z"/><path class="cls-3" d="M44,8a3.64,3.64,0,0,1,3.65,3.65V13.3h0V52.35A3.65,3.65,0,0,0,51.17,56h-15a3.65,3.65,0,0,1-3.65-3.65V50.7h0V11.65A3.64,3.64,0,0,0,29.05,8H44Z"/><path class="cls-4" d="M47.65,11.65A3.65,3.65,0,0,0,44,8H31.86V9.51a3.59,3.59,0,0,1,.71,2.14V35h5.24A6.22,6.22,0,0,0,44,28.78V13.54a1.42,1.42,0,0,1,1.42-1.42h2.2Z"/><path class="cls-1" d="M28.66,8A3.64,3.64,0,0,0,25,11.65V13.3h0V28.35a3.68,3.68,0,0,1-.51,1.86A1.15,1.15,0,0,0,25.45,32h11a3.64,3.64,0,0,0,3.65-3.65V26.7h0v-15A3.65,3.65,0,0,1,43.6,8H28.66Z"/><path class="cls-2" d="M32.57,11.65V32h3.86a3.64,3.64,0,0,0,3.65-3.65V26.7h0v-15A3.65,3.65,0,0,1,43.6,8H29.05A3.64,3.64,0,0,1,32.57,11.65Z"/><path class="cls-5" d="M37.11,14.12H33a.46.46,0,0,1-.47-.46h0a.47.47,0,0,1,.47-.47h4.07a.47.47,0,0,1,.47.47h0A.46.46,0,0,1,37.11,14.12Z"/><path class="cls-5" d="M37.11,16.83H33a.47.47,0,0,1-.47-.47h0A.47.47,0,0,1,33,15.9h4.07a.47.47,0,0,1,.47.46h0A.47.47,0,0,1,37.11,16.83Z"/><path class="cls-5" d="M37.11,19.54H33a.47.47,0,0,1-.47-.47h0A.47.47,0,0,1,33,18.6h4.07a.47.47,0,0,1,.47.47h0A.47.47,0,0,1,37.11,19.54Z"/><path class="cls-5" d="M33.49,22.25H33a.47.47,0,0,1-.47-.47h0a.47.47,0,0,1,.47-.47h.45a.47.47,0,0,1,.47.47h0A.47.47,0,0,1,33.49,22.25Z"/><path class="cls-5" d="M36,22.25h-.46a.47.47,0,0,1-.46-.47h0a.47.47,0,0,1,.46-.47H36a.47.47,0,0,1,.47.47h0A.47.47,0,0,1,36,22.25Z"/><path class="cls-4" d="M38.08,48.71h4.07a.47.47,0,0,0,.47-.47h0a.47.47,0,0,0-.47-.47H38.08a.47.47,0,0,0-.47.47h0A.47.47,0,0,0,38.08,48.71Z"/><path class="cls-4" d="M41.69,51.42h.46a.47.47,0,0,0,.47-.47h0a.47.47,0,0,0-.47-.47h-.46a.47.47,0,0,0-.46.47h0A.47.47,0,0,0,41.69,51.42Z"/><path class="cls-4" d="M39.19,51.42h.45a.47.47,0,0,0,.47-.47h0a.47.47,0,0,0-.47-.47h-.45a.47.47,0,0,0-.47.47h0A.47.47,0,0,0,39.19,51.42Z"/><path class="cls-4" d="M18.31,46.05a1.34,1.34,0,0,0,1-.41,1.36,1.36,0,0,0,0-1.94L13,37.41a1.37,1.37,0,1,0-1.94,1.94l6.29,6.29A1.37,1.37,0,0,0,18.31,46.05Z"/><path class="cls-1" d="M26.72,43.19A1.3,1.3,0,0,1,28,44.48v1.15a1.27,1.27,0,0,1-1.32,1.22,1.29,1.29,0,0,0-1.25,1L24,55a1.3,1.3,0,0,1-1.27,1H13.15a1.3,1.3,0,0,1-1.27-1l-1.41-7.07a1.39,1.39,0,0,0-1.32-1,1.31,1.31,0,0,1-1.25-1.3V43.84a.66.66,0,0,1,.66-.65Z"/><path class="cls-2" d="M34.57,43.8v1.75a1.3,1.3,0,0,1-1.3,1.3h0a1.29,1.29,0,0,0-1.27,1L30.59,55a1.31,1.31,0,0,1-1.27,1H19.7a1.3,1.3,0,0,1-1.27-1L17,47.89a1.29,1.29,0,0,0-1.27-1h0a1.3,1.3,0,0,1-1.3-1.3V43.19H34A.61.61,0,0,1,34.57,43.8Z"/><rect class="cls-5" x="28.21" y="48.31" width="0.98" height="0.98" transform="translate(57.39 97.6) rotate(180)"/><rect class="cls-5" x="25.42" y="48.31" width="0.98" height="0.98" transform="translate(51.81 97.6) rotate(180)"/><rect class="cls-5" x="22.63" y="48.31" width="0.98" height="0.98" transform="translate(46.23 97.6) rotate(180)"/><rect class="cls-5" x="19.84" y="48.31" width="0.98" height="0.98" transform="translate(40.65 97.6) rotate(180)"/><rect class="cls-5" x="26.81" y="50.51" width="0.98" height="0.98" transform="translate(54.6 101.99) rotate(180)"/><rect class="cls-5" x="24.02" y="50.51" width="0.98" height="0.98" transform="translate(49.02 101.99) rotate(180)"/><rect class="cls-5" x="21.23" y="50.51" width="0.98" height="0.98" transform="translate(43.44 101.99) rotate(180)"/><rect class="cls-5" x="25.42" y="52.71" width="0.98" height="0.98" transform="translate(51.81 106.39) rotate(180)"/><rect class="cls-5" x="22.63" y="52.71" width="0.98" height="0.98" transform="translate(46.23 106.39) rotate(180)"/><path class="cls-3" d="M24.51,46.05a1.38,1.38,0,0,0,1-2.35l-6.3-6.29a1.34,1.34,0,0,0-1-.4H12a1.37,1.37,0,0,0,0,2.74h5.63l5.89,5.89A1.37,1.37,0,0,0,24.51,46.05Z"/><path class="cls-1" d="M39.15,38.2a1.4,1.4,0,1,1-1.4-1.4A1.4,1.4,0,0,1,39.15,38.2Z"/><path class="cls-1" d="M43.88,42.93a1.4,1.4,0,1,1-1.4-1.4A1.4,1.4,0,0,1,43.88,42.93Z"/><path class="cls-1" d="M37.65,43.66a.64.64,0,0,1-.45-.18.63.63,0,0,1,0-.9l4.93-4.93a.62.62,0,0,1,.89,0,.63.63,0,0,1,0,.9L38.1,43.48A.66.66,0,0,1,37.65,43.66Z"/></svg>