<svg id="Layer_1" data-name="Layer 1" xmlns="http://www.w3.org/2000/svg" viewBox="0 0 64 64"><defs><style>.cls-1{fill:#dfe8f4;}.cls-2{fill:#ccd8e5;}.cls-3{fill:#ff5454;}.cls-4{fill:#dd1515;}.cls-5{fill:#fff;}</style></defs><title>shopping, shop, ecommerce, commerce, percentage, sale, clipboard</title><rect class="cls-1" x="13.33" y="13.41" width="37.33" height="42.64" rx="4.42"/><path class="cls-2" d="M21.5,13.6H42.17a0,0,0,0,1,0,0v1.83a2.49,2.49,0,0,1-2.49,2.49H24a2.49,2.49,0,0,1-2.49-2.49V13.6A0,0,0,0,1,21.5,13.6Z"/><path class="cls-3" d="M39.68,11.11H37.13A2.81,2.81,0,0,1,34.7,9.62a3.1,3.1,0,0,0-5.4,0,2.8,2.8,0,0,1-2.43,1.49H24.33A2.58,2.58,0,0,0,21.5,13.6v.84a1.26,1.26,0,0,0,1.26,1.26H40.91a1.27,1.27,0,0,0,1.26-1.26V13.6A2.5,2.5,0,0,0,39.68,11.11Z"/><path class="cls-4" d="M34.7,9.62a3.1,3.1,0,0,0-5.4,0,2.8,2.8,0,0,1-2.43,1.49H37.13A2.81,2.81,0,0,1,34.7,9.62Z"/><path class="cls-5" d="M30.07,34.81a2.8,2.8,0,1,1-2.8-2.8A2.8,2.8,0,0,1,30.07,34.81Z"/><path class="cls-5" d="M39.53,44.26a2.8,2.8,0,1,1-2.8-2.8A2.81,2.81,0,0,1,39.53,44.26Z"/><path class="cls-5" d="M27.07,45.73a1.23,1.23,0,0,1-.89-.37,1.26,1.26,0,0,1,0-1.79L36,33.71a1.27,1.27,0,0,1,1.79,1.8L28,45.36A1.26,1.26,0,0,1,27.07,45.73Z"/></svg>