<svg id="Layer_1" data-name="Layer 1" xmlns="http://www.w3.org/2000/svg" viewBox="0 0 64 64"><defs><style>.cls-1{fill:#DD1515;}.cls-2{fill:#F4DFDF;}.cls-3{fill:#e5cccc;}.cls-4{fill:#FC0707;}.cls-5{fill:#fff;}</style></defs><title>shopping, shop, ecommerce, commerce, add, new, plus</title><path class="cls-1" d="M55.47,11.08a2,2,0,0,0-1.33-.58H46.3v3.83h3.09l-11,11a2,2,0,0,0,0,2.82,2,2,0,0,0,1.42.59,2,2,0,0,0,1.41-.59L55.47,13.91A2,2,0,0,0,55.47,11.08Z"/><path class="cls-2" d="M53.58,24h-43a2.57,2.57,0,0,0-2.57,2.51,3.11,3.11,0,0,0,3.1,3.07h1.22l3.1,19.19a2.46,2.46,0,0,0,2.43,2.07H46.2a2.46,2.46,0,0,0,2.43-2.07l3-18.38a1,1,0,0,1,1-.81h0a3.53,3.53,0,0,0,2.94-1.44A2.54,2.54,0,0,0,53.58,24Z"/><path class="cls-3" d="M41.58,24h-31a2.57,2.57,0,0,0-2.57,2.51,3.11,3.11,0,0,0,3.1,3.07h1.22l3.1,19.19a2.46,2.46,0,0,0,2.43,2.07H34.2a2.46,2.46,0,0,0,2.43-2.07l3-18.38a1,1,0,0,1,1-.81,3.53,3.53,0,0,0,2.94-1.44A2.54,2.54,0,0,0,41.58,24Z"/><path class="cls-2" d="M20,38.42h0a1.23,1.23,0,0,1-1.22-1.23h0A1.22,1.22,0,0,1,20,36h0a1.23,1.23,0,0,1,1.23,1.22h0A1.23,1.23,0,0,1,20,38.42Z"/><path class="cls-2" d="M26.05,38.42h0a1.23,1.23,0,0,1-1.22-1.23h0A1.22,1.22,0,0,1,26.05,36h0a1.22,1.22,0,0,1,1.22,1.22h0A1.22,1.22,0,0,1,26.05,38.42Z"/><path class="cls-2" d="M32.07,38.42h0a1.23,1.23,0,0,1-1.22-1.23h0A1.22,1.22,0,0,1,32.07,36h0a1.22,1.22,0,0,1,1.22,1.22h0A1.22,1.22,0,0,1,32.07,38.42Z"/><circle class="cls-4" cx="15.3" cy="48.75" r="7.25"/><path class="cls-5" d="M18,49.75H12.61a1,1,0,0,1-1-1h0a1,1,0,0,1,1-1H18a1,1,0,0,1,1,1h0A1,1,0,0,1,18,49.75Z"/><path class="cls-1" d="M55.25,11A2,2,0,0,0,54,10.5H46.2v3.83h2.49a.24.24,0,0,1,.17.42L38.38,25.24a2.08,2.08,0,0,0-.2,2.8,2,2,0,0,0,1.52.7,2,2,0,0,0,1.42-.59L55.26,14A2.09,2.09,0,0,0,55.25,11Z"/><path class="cls-2" d="M53.47,24H10.52A2.56,2.56,0,0,0,8,26.46,3.09,3.09,0,0,0,11,29.53h1.22l3.11,19.19a2.46,2.46,0,0,0,2.43,2.07H46.1a2.46,2.46,0,0,0,2.43-2.07l3-18.38a1,1,0,0,1,1-.81h0a3.53,3.53,0,0,0,2.94-1.44A2.54,2.54,0,0,0,53.47,24Z"/><path class="cls-3" d="M41.47,24H10.52A2.56,2.56,0,0,0,8,26.46,3.09,3.09,0,0,0,11,29.53h1.22l3.11,19.19a2.46,2.46,0,0,0,2.43,2.07H34.1a2.46,2.46,0,0,0,2.43-2.07l3-18.38a1,1,0,0,1,1-.81,3.53,3.53,0,0,0,2.94-1.44A2.54,2.54,0,0,0,41.47,24Z"/><path class="cls-2" d="M19.93,39.42h0a1.22,1.22,0,0,1-1.22-1.23h0A1.22,1.22,0,0,1,19.93,37h0a1.22,1.22,0,0,1,1.22,1.22h0A1.23,1.23,0,0,1,19.93,39.42Z"/><path class="cls-2" d="M26,39.42h0a1.22,1.22,0,0,1-1.22-1.23h0A1.22,1.22,0,0,1,26,37h0a1.22,1.22,0,0,1,1.22,1.22h0A1.23,1.23,0,0,1,26,39.42Z"/><path class="cls-2" d="M32,39.42h0a1.23,1.23,0,0,1-1.23-1.23h0A1.23,1.23,0,0,1,32,37h0a1.22,1.22,0,0,1,1.22,1.22h0A1.23,1.23,0,0,1,32,39.42Z"/><circle class="cls-4" cx="15.2" cy="48.75" r="7.25"/><path class="cls-4" d="M55.77,11.45a2,2,0,0,0-1.61-.95H39.42a2,2,0,0,0-1.42.58L23.84,25.24a2.09,2.09,0,0,0-.19,2.8,2,2,0,0,0,1.52.7,2,2,0,0,0,1.42-.59L40,14.72a1.27,1.27,0,0,1,.92-.39H54.61a1.09,1.09,0,0,0,.77-.32h0A2.08,2.08,0,0,0,55.77,11.45Z"/><path class="cls-5" d="M17.89,49.75H12.51a1,1,0,0,1-1-1h0a1,1,0,0,1,1-1h5.38a1,1,0,0,1,1,1h0A1,1,0,0,1,17.89,49.75Z"/><path class="cls-5" d="M16.2,46.06v5.38a1,1,0,0,1-1,1h0a1,1,0,0,1-1-1V46.06a1,1,0,0,1,1-1h0A1,1,0,0,1,16.2,46.06Z"/></svg>