<svg id="Layer_1" data-name="Layer 1" xmlns="http://www.w3.org/2000/svg" viewBox="0 0 64 64"><defs><style>.cls-1{fill:#F4DFDF;}.cls-2{fill:#e5cccc;}.cls-3{fill:#FC0707;}.cls-4{fill:#fff;}</style></defs><title>shopping, shop, ecommerce, commerce, file, format</title><path class="cls-1" d="M18.64,8a5.24,5.24,0,0,0-5.24,5.24V50.76A5.24,5.24,0,0,0,18.64,56H45.36a5.24,5.24,0,0,0,5.24-5.24V22.16a4,4,0,0,0-1.16-2.81L39.26,9.17A4,4,0,0,0,36.44,8Z"/><path class="cls-2" d="M38.09,22.74a3.39,3.39,0,0,0,3.39,3.39h6.68a2.44,2.44,0,0,0,2.44-2.44V22.16a4,4,0,0,0-1.16-2.81l-8.9-8.9H38.09Z"/><path class="cls-3" d="M38.09,15.27a5.24,5.24,0,0,0,5.24,5.24h6.9a4,4,0,0,0-.79-1.16L39.26,9.17a4.06,4.06,0,0,0-1.17-.8Z"/><path class="cls-4" d="M37.24,41.74H26.79a1.12,1.12,0,0,1-1.08-.84l-1.88-7.53A1.11,1.11,0,0,1,24.91,32H39.12a1.11,1.11,0,0,1,1.08,1.38L38.32,40.9A1.11,1.11,0,0,1,37.24,41.74Z"/><circle class="cls-4" cx="27.42" cy="45.38" r="1.67"/><circle class="cls-4" cx="36.61" cy="45.38" r="1.67"/><path class="cls-4" d="M27.19,36.56,25.31,29h0a1.08,1.08,0,0,0-1-.81H20.88a1.09,1.09,0,0,0,0,2.17h1.6a.79.79,0,0,1,.76.59l1.39,5.57a1.11,1.11,0,0,0,1.08.85h2.56A1.12,1.12,0,0,1,27.19,36.56Z"/></svg>