<svg id="Layer_1" data-name="Layer 1" xmlns="http://www.w3.org/2000/svg" viewBox="0 0 64 64"><defs><style>.cls-1{fill:#DD1515;}.cls-2{fill:#FC0707;}.cls-3{fill:#F4DFDF;}.cls-4{fill:#e5cccc;}.cls-5{fill:#fff;}</style></defs><title>shopping, shop, ecommerce, commerce, computer, monitor, online</title><path class="cls-1" d="M37.45,50.67h0a2.24,2.24,0,0,1-2.24-2.25V45.17H28.79v3.25a2.24,2.24,0,0,1-2.24,2.25h0A3.55,3.55,0,0,0,23,54.22h0A1.79,1.79,0,0,0,24.79,56H39.21A1.79,1.79,0,0,0,41,54.22h0A3.55,3.55,0,0,0,37.45,50.67Z"/><path class="cls-2" d="M37.45,50.67H26.55A3.55,3.55,0,0,0,23,54.22h0A1.79,1.79,0,0,0,24.79,56H39.21A1.79,1.79,0,0,0,41,54.22h0A3.55,3.55,0,0,0,37.45,50.67Z"/><rect class="cls-3" x="8" y="13.17" width="48" height="34" rx="4.04"/><path class="cls-2" d="M8,41.38v1.75a4,4,0,0,0,4,4H52a4,4,0,0,0,4-4V41.38Z"/><rect class="cls-4" x="8" y="39.31" width="48" height="2.06"/><circle class="cls-1" cx="32" cy="44.27" r="0.58"/><path class="cls-5" d="M37.24,31H26.79a1.11,1.11,0,0,1-1.08-.84l-1.88-7.52a1.12,1.12,0,0,1,1.08-1.39H39.13a1.12,1.12,0,0,1,1.08,1.39l-1.89,7.52A1.1,1.1,0,0,1,37.24,31Z"/><path class="cls-5" d="M29.1,34.66A1.68,1.68,0,1,1,27.43,33,1.67,1.67,0,0,1,29.1,34.66Z"/><path class="cls-5" d="M38.28,34.66A1.67,1.67,0,1,1,36.61,33,1.67,1.67,0,0,1,38.28,34.66Z"/><path class="cls-5" d="M27.2,25.85l-1.89-7.53h0a1.07,1.07,0,0,0-1-.8H20.89a1.09,1.09,0,1,0,0,2.17h1.59a.78.78,0,0,1,.76.59l1.39,5.57a1.12,1.12,0,0,0,1.08.84h2.56A1.1,1.1,0,0,1,27.2,25.85Z"/></svg>