<svg id="Layer_1" data-name="Layer 1" xmlns="http://www.w3.org/2000/svg" viewBox="0 0 64 64"><defs><style>.cls-1{fill:#ff5454;}.cls-2{fill:#dd1515;}.cls-3{fill:#dfe8f4;}.cls-4{fill:#ccd8e5;}.cls-5{fill:#fff;}</style></defs><title>shopping, shop, ecommerce, commerce, truck, van, location, pin</title><path class="cls-1" d="M50.35,49.37a3.3,3.3,0,0,0-2.86,5H47V56h3.31a3.32,3.32,0,1,0,0-6.63Z"/><path class="cls-2" d="M53.53,53.6a3.47,3.47,0,0,0,.14-.92,3.29,3.29,0,0,0-.18-1H47.22a3.29,3.29,0,0,0-.18,1,3.1,3.1,0,0,0,.14.92Z"/><path class="cls-2" d="M50.35,52.68A3.32,3.32,0,1,0,47,56,3.31,3.31,0,0,0,50.35,52.68Z"/><path class="cls-3" d="M23.15,24.25H46.08a2,2,0,0,1,2,2V52.68a0,0,0,0,1,0,0H21.32a2,2,0,0,1-2-2V28.09A3.84,3.84,0,0,1,23.15,24.25Z"/><path class="cls-1" d="M39.59,32H49.88A6.12,6.12,0,0,1,56,38.15V51.43a1.26,1.26,0,0,1-1.26,1.26h-18a0,0,0,0,1,0,0V34.85A2.82,2.82,0,0,1,39.59,32Z"/><path class="cls-1" d="M40.33,49.31a3.33,3.33,0,0,0-2.89,5H37V56h3.34a3.35,3.35,0,1,0,0-6.69Z"/><path class="cls-2" d="M43.53,53.58a3.11,3.11,0,0,0,.15-.92,3.42,3.42,0,0,0-.19-1.06H37.17A3.42,3.42,0,0,0,37,52.66a3.1,3.1,0,0,0,.14.92Z"/><path class="cls-2" d="M39.49,32h3.08a6.12,6.12,0,0,1,6.12,6.12V51.43a1.26,1.26,0,0,1-1.26,1.26H36.77a0,0,0,0,1,0,0V34.75A2.72,2.72,0,0,1,39.49,32Z"/><path class="cls-1" d="M28.23,49.37a3.32,3.32,0,0,0-3.32,3.31,3.42,3.42,0,0,0,.45,1.65h-.45V56h3.32a3.32,3.32,0,1,0,0-6.63Z"/><path class="cls-2" d="M31.4,53.6a3.11,3.11,0,0,0,.15-.92,3.3,3.3,0,0,0-.19-1H25.1a3.3,3.3,0,0,0-.19,1,3.47,3.47,0,0,0,.14.92Z"/><path class="cls-2" d="M28.23,52.68A3.32,3.32,0,1,0,24.91,56,3.32,3.32,0,0,0,28.23,52.68Z"/><path class="cls-1" d="M18.25,49.31a3.33,3.33,0,0,0-2.89,5h-.45V56h3.34a3.35,3.35,0,1,0,0-6.69Z"/><path class="cls-2" d="M21.45,53.58a3.11,3.11,0,0,0,.15-.92,3.42,3.42,0,0,0-.19-1.06H15.09a3.42,3.42,0,0,0-.18,1.06,3.1,3.1,0,0,0,.14.92Z"/><path class="cls-4" d="M11.84,24.25H34.77a2,2,0,0,1,2,2V52.68a0,0,0,0,1,0,0H10a2,2,0,0,1-2-2V28.09A3.84,3.84,0,0,1,11.84,24.25Z"/><path class="cls-3" d="M8.07,51.17A2,2,0,0,0,10,52.68H36.77V51.17Z"/><path class="cls-3" d="M14.87,47.7a5,5,0,0,0-4.95,4.95h9.9A5,5,0,0,0,14.87,47.7Z"/><path class="cls-2" d="M18.19,52.68A3.32,3.32,0,1,0,14.87,56,3.32,3.32,0,0,0,18.19,52.68Z"/><path class="cls-3" d="M15.7,52.68a.83.83,0,1,0-.83.83A.83.83,0,0,0,15.7,52.68Z"/><path class="cls-3" d="M36.77,47.7a5,5,0,0,0-5,4.95h9.9A5,5,0,0,0,36.77,47.7Z"/><path class="cls-3" d="M39.92,51.17v1.51H54.74A1.25,1.25,0,0,0,56,51.43v-.26Z"/><path class="cls-3" d="M48.7,51.43v-.26H39.92v1.51h7.52A1.26,1.26,0,0,0,48.7,51.43Z"/><path class="cls-2" d="M40.09,52.68A3.32,3.32,0,1,0,36.77,56,3.32,3.32,0,0,0,40.09,52.68Z"/><circle class="cls-3" cx="36.77" cy="52.68" r="0.83"/><path class="cls-5" d="M56,38.75H44.7a1.38,1.38,0,0,0-1.39,1.38v4.42a1.39,1.39,0,0,0,1.39,1.39H56Z"/><path class="cls-3" d="M48.7,38.75h-4a1.38,1.38,0,0,0-1.39,1.38v4.42a1.39,1.39,0,0,0,1.39,1.39h4Z"/><rect class="cls-3" x="49.58" y="47.7" width="1.09" height="1.09" rx="0.19"/><rect class="cls-3" x="54.08" y="47.7" width="1.09" height="1.09" rx="0.19"/><path class="cls-1" d="M37.48,17.36,32.62,26a.71.71,0,0,1-1.24,0l-4.86-8.68a6.28,6.28,0,0,1,1-7.52h0a6.28,6.28,0,0,1,8.88,0h0A6.28,6.28,0,0,1,37.48,17.36Z"/><path class="cls-3" d="M34.38,14.08A2.38,2.38,0,1,1,32,11.7,2.39,2.39,0,0,1,34.38,14.08Z"/></svg>