<svg id="Layer_1" data-name="Layer 1" xmlns="http://www.w3.org/2000/svg" viewBox="0 0 64 64"><defs><style>.cls-1{fill:#dfe8f4;}.cls-2{fill:#ccd8e5;}.cls-3{fill:#ff5454;}.cls-4{fill:#dd1515;}.cls-5{fill:#fff;}</style></defs><title>shopping, shop, ecommerce, commerce, smartphone, store, shop</title><rect class="cls-1" x="16.67" y="8" width="30.67" height="48" rx="5.39"/><path class="cls-2" d="M22.06,8a5.39,5.39,0,0,0-5.39,5.39V50.61a5.37,5.37,0,0,0,3.66,5.08A5.19,5.19,0,0,1,20,54V33.69a2,2,0,0,0-2-2h0V30.58h0a2,2,0,0,0,2-2V14a2.66,2.66,0,0,1,2.66-2.66H35L36.62,8Z"/><path class="cls-3" d="M41.94,8H22.06a5.39,5.39,0,0,0-5.39,5.39V50.61A5.39,5.39,0,0,0,22.06,56H41.94a5.39,5.39,0,0,0,5.39-5.39V13.39A5.39,5.39,0,0,0,41.94,8Zm3.39,42.61A3.39,3.39,0,0,1,41.94,54H22.06a3.39,3.39,0,0,1-3.39-3.39V13.39A3.39,3.39,0,0,1,22.06,10h2.51a1.82,1.82,0,0,1,1.42.67h0a1.84,1.84,0,0,0,1.42.66h9.18A1.84,1.84,0,0,0,38,10.67h0A1.82,1.82,0,0,1,39.43,10h2.51a3.39,3.39,0,0,1,3.39,3.39Z"/><path class="cls-4" d="M16.56,20.91h.11a0,0,0,0,1,0,0v3.69a0,0,0,0,1,0,0h-.11a.37.37,0,0,1-.37-.37v-3A.37.37,0,0,1,16.56,20.91Z"/><path class="cls-4" d="M16.56,25.36h.11a0,0,0,0,1,0,0V29a0,0,0,0,1,0,0h-.11a.37.37,0,0,1-.37-.37v-3A.37.37,0,0,1,16.56,25.36Z"/><path class="cls-4" d="M47.7,20.91h.11a0,0,0,0,1,0,0v3.69a0,0,0,0,1,0,0H47.7a.37.37,0,0,1-.37-.37v-3A.37.37,0,0,1,47.7,20.91Z" transform="translate(95.14 45.5) rotate(180)"/><path class="cls-3" d="M26.09,29.61l2.71-5.94h-2a.79.79,0,0,0-.67.36l-3.53,5.19a1.45,1.45,0,0,0-.24.81v1.14a.81.81,0,0,0,.81.82H26V30.08A1.1,1.1,0,0,1,26.09,29.61Z"/><path class="cls-3" d="M41.38,29.22,37.85,24a.79.79,0,0,0-.67-.36h-2l2.71,5.94a1.1,1.1,0,0,1,.1.47V32h2.8a.81.81,0,0,0,.81-.82V30A1.45,1.45,0,0,0,41.38,29.22Z"/><rect class="cls-3" x="23.85" y="30.65" width="16.29" height="9.62"/><path class="cls-4" d="M26.09,29.61v0H22.44a1.61,1.61,0,0,0-.06.44v1.14a.81.81,0,0,0,.81.82H26V30.08A1.1,1.1,0,0,1,26.09,29.61Z"/><path class="cls-4" d="M41.56,29.59H37.9v0a1.1,1.1,0,0,1,.1.47V32h2.8a.81.81,0,0,0,.81-.82V30A1.61,1.61,0,0,0,41.56,29.59Z"/><path class="cls-5" d="M35.2,23.67H28.8l-2.71,5.94a1.1,1.1,0,0,0-.1.47V32H38V30.08a1.1,1.1,0,0,0-.1-.47Z"/><path class="cls-1" d="M26.09,29.61a1.1,1.1,0,0,0-.1.47V32H38V30.08a1.1,1.1,0,0,0-.1-.47v0H26.1Z"/><path class="cls-3" d="M33,23.67H31L30,29.76a.81.81,0,0,0,0,.16V32h4V29.92a.81.81,0,0,0,0-.16Z"/><path class="cls-4" d="M34,29.59H30l0,.17a.81.81,0,0,0,0,.16V32h4V29.92a.81.81,0,0,0,0-.16Z"/><path class="cls-4" d="M34,40.28H30V35.86a2,2,0,0,1,2-2h0a2,2,0,0,1,2,2Z"/><rect class="cls-5" x="22.38" y="40.24" width="19.25" height="0.86"/></svg>