<svg id="Layer_1" data-name="Layer 1" xmlns="http://www.w3.org/2000/svg" viewBox="0 0 64 64"><defs><style>.cls-1{fill:#ccd8e5;}.cls-2{fill:#dfe8f4;}.cls-3{fill:#dd1515;}.cls-4{fill:#ff5454;}</style></defs><title>shopping, shop, ecommerce, commerce, basket, groceries</title><path class="cls-1" d="M33.31,22l-3.06,9.8a.79.79,0,0,1-1.51,0L25.68,22a4,4,0,0,1,1-4h0a4,4,0,0,1,5.65,0h0A4,4,0,0,1,33.31,22Z"/><path class="cls-2" d="M28,22.15H25.74l.31,1H28a.5.5,0,0,0,.5-.5A.5.5,0,0,0,28,22.15Z"/><path class="cls-2" d="M30.36,22.15a.5.5,0,0,0-.5.5.5.5,0,0,0,.5.5h2.58l.31-1Z"/><path class="cls-2" d="M29.56,25.28H28a.51.51,0,0,1-.5-.5h0a.5.5,0,0,1,.5-.5h1.53a.5.5,0,0,1,.5.5h0A.5.5,0,0,1,29.56,25.28Z"/><path class="cls-2" d="M30.76,26.23a.5.5,0,0,0-.5.5.5.5,0,0,0,.5.5h.9l.32-1Z"/><path class="cls-2" d="M32.5,14.57a1.23,1.23,0,0,0-1.72-.32l-.19.15a7.76,7.76,0,0,0,.31-1.69,1.41,1.41,0,1,0-2.81,0,7.76,7.76,0,0,0,.31,1.69l-.19-.15a1.23,1.23,0,1,0-1.4,2,7,7,0,0,0,2.54.88h.29a7,7,0,0,0,2.54-.88A1.22,1.22,0,0,0,32.5,14.57Z"/><circle class="cls-1" cx="16.25" cy="32.93" r="3.54"/><circle class="cls-1" cx="23.33" cy="32.93" r="3.54"/><path class="cls-1" d="M37.26,38.08a2.47,2.47,0,0,1-1.75-4.22L46.84,22.53A2.47,2.47,0,1,1,50.34,26L39,37.36A2.45,2.45,0,0,1,37.26,38.08Z"/><path class="cls-3" d="M19.79,35.26v1.93a2.33,2.33,0,0,0,2.33,2.33h0a2.34,2.34,0,0,1,2.29,1.88L27,54.13A2.33,2.33,0,0,0,29.24,56H46.55a2.32,2.32,0,0,0,2.28-1.87L51.38,41.4a2.34,2.34,0,0,1,2.29-1.88h0A2.33,2.33,0,0,0,56,37.19V34.28a1.35,1.35,0,0,0-1.35-1.35H22.12A2.33,2.33,0,0,0,19.79,35.26Z"/><path class="cls-4" d="M8,34v3.15a2.33,2.33,0,0,0,2.33,2.33h0a2.34,2.34,0,0,1,2.29,1.88l2.55,12.73A2.32,2.32,0,0,0,17.45,56H36a.86.86,0,0,0,.84-.69L39.59,41.4a2.34,2.34,0,0,1,2.29-1.88h0a2.33,2.33,0,0,0,2.33-2.33V32.93H9.1A1.11,1.11,0,0,0,8,34Z"/><path class="cls-3" d="M25.41,32.93l.7,5.15h2.23a7.09,7.09,0,0,0,5-2.08l3.07-3.07Z"/><rect class="cls-3" x="17.69" y="42.16" width="1.76" height="1.76" rx="0.47"/><rect class="cls-3" x="22.72" y="42.16" width="1.76" height="1.76" rx="0.47"/><rect class="cls-3" x="27.74" y="42.16" width="1.76" height="1.76" rx="0.47"/><rect class="cls-3" x="32.76" y="42.16" width="1.76" height="1.76" rx="0.47"/><rect class="cls-3" x="20.2" y="46.11" width="1.76" height="1.76" rx="0.47"/><rect class="cls-3" x="25.23" y="46.11" width="1.76" height="1.76" rx="0.47"/><rect class="cls-3" x="30.25" y="46.11" width="1.76" height="1.76" rx="0.47"/><rect class="cls-3" x="22.72" y="50.07" width="1.76" height="1.76" rx="0.47"/><rect class="cls-3" x="27.74" y="50.07" width="1.76" height="1.76" rx="0.47"/><path class="cls-2" d="M26.11,38.08a2.48,2.48,0,0,1-1.89-.87,2.57,2.57,0,0,1,.24-3.45L34.83,23.39a5.43,5.43,0,0,1,3.82-1.58h9.8A2.57,2.57,0,0,1,51.05,24a2.47,2.47,0,0,1-2.46,2.73H40.23a4.28,4.28,0,0,0-3,1.25l-9.36,9.36A2.45,2.45,0,0,1,26.11,38.08Z"/><path class="cls-1" d="M15.6,27.14a5,5,0,0,0,4.15,1.41A5,5,0,0,0,14.18,23,5,5,0,0,0,15.6,27.14Z"/><path class="cls-2" d="M15.6,27.14a5,5,0,0,0,4.15,1.41L14.18,23A5,5,0,0,0,15.6,27.14Z"/><path class="cls-1" d="M21.55,25.56a3.59,3.59,0,0,0-1,3,3.58,3.58,0,0,0,4-4A3.57,3.57,0,0,0,21.55,25.56Z"/><path class="cls-2" d="M21.55,25.56a3.59,3.59,0,0,0-1,3l4-4A3.57,3.57,0,0,0,21.55,25.56Z"/><circle class="cls-1" cx="26.11" cy="35.75" r="0.81"/></svg>