<svg id="Layer_1" data-name="Layer 1" xmlns="http://www.w3.org/2000/svg" viewBox="0 0 64 64"><defs><style>.cls-1{fill:#F4DFDF;}.cls-2{fill:#e5cccc;}.cls-3{fill:#FC0707;}.cls-4{fill:#DD1515;}.cls-5{fill:#fff;}</style></defs><title>shopping, shop, ecommerce, commerce, smartphone, online</title><rect class="cls-1" x="16.67" y="8" width="30.67" height="48" rx="5.39"/><path class="cls-2" d="M22.06,8a5.39,5.39,0,0,0-5.39,5.39V50.61a5.37,5.37,0,0,0,3.66,5.08A5.19,5.19,0,0,1,20,54V33.69a2,2,0,0,0-2-2h0V30.58h0a2,2,0,0,0,2-2V14a2.66,2.66,0,0,1,2.66-2.66H35L36.62,8Z"/><path class="cls-3" d="M41.94,8H22.06a5.39,5.39,0,0,0-5.39,5.39V50.61A5.39,5.39,0,0,0,22.06,56H41.94a5.39,5.39,0,0,0,5.39-5.39V13.39A5.39,5.39,0,0,0,41.94,8Zm3.39,42.61A3.39,3.39,0,0,1,41.94,54H22.06a3.39,3.39,0,0,1-3.39-3.39V13.39A3.39,3.39,0,0,1,22.06,10h2.51a1.82,1.82,0,0,1,1.42.67h0a1.84,1.84,0,0,0,1.42.66h9.18A1.84,1.84,0,0,0,38,10.67h0A1.82,1.82,0,0,1,39.43,10h2.51a3.39,3.39,0,0,1,3.39,3.39Z"/><path class="cls-4" d="M16.56,20.91h.11a0,0,0,0,1,0,0v3.69a0,0,0,0,1,0,0h-.11a.37.37,0,0,1-.37-.37v-3A.37.37,0,0,1,16.56,20.91Z"/><path class="cls-4" d="M16.56,25.36h.11a0,0,0,0,1,0,0V29a0,0,0,0,1,0,0h-.11a.37.37,0,0,1-.37-.37v-3A.37.37,0,0,1,16.56,25.36Z"/><path class="cls-4" d="M47.7,20.91h.11a0,0,0,0,1,0,0v3.69a0,0,0,0,1,0,0H47.7a.37.37,0,0,1-.37-.37v-3A.37.37,0,0,1,47.7,20.91Z" transform="translate(95.14 45.5) rotate(180)"/><path class="cls-5" d="M35.81,35.55H28.19a.81.81,0,0,1-.79-.61L26,29.45a.81.81,0,0,1,.78-1H37.18a.81.81,0,0,1,.79,1L36.6,34.94A.82.82,0,0,1,35.81,35.55Z"/><path class="cls-5" d="M29.87,38.2A1.22,1.22,0,1,1,28.65,37,1.22,1.22,0,0,1,29.87,38.2Z"/><circle class="cls-5" cx="35.35" cy="38.2" r="1.22"/><path class="cls-5" d="M28.48,31.78l-1.37-5.49h0a.78.78,0,0,0-.75-.59H23.88a.8.8,0,0,0,0,1.59H25a.58.58,0,0,1,.56.43l1,4.06a.81.81,0,0,0,.79.61h1.87A.81.81,0,0,1,28.48,31.78Z"/></svg>