<svg id="Layer_1" data-name="Layer 1" xmlns="http://www.w3.org/2000/svg" viewBox="0 0 64 64"><defs><style>.cls-1{fill:#dfe8f4;}.cls-2{fill:#ff5454;}.cls-3{fill:#dd1515;}.cls-4{fill:#ccd8e5;}.cls-5{fill:#fff;}</style></defs><title>shopping, shop, ecommerce, commerce, sale, percentage, browser, discount</title><rect class="cls-1" x="8" y="11.44" width="48" height="41.13" rx="4.09"/><path class="cls-2" d="M51.91,11.44H12.09A4.09,4.09,0,0,0,8,15.53v1.91H56V15.53A4.09,4.09,0,0,0,51.91,11.44Z"/><rect class="cls-3" x="12.66" y="13.82" width="1.23" height="1.23"/><rect class="cls-3" x="15.19" y="13.82" width="1.23" height="1.23"/><rect class="cls-3" x="17.71" y="13.82" width="1.23" height="1.23"/><rect class="cls-3" x="8" y="17.44" width="48" height="1.65"/><path class="cls-4" d="M56,21.88H10.79A2.79,2.79,0,0,1,8,19.08H56Z"/><circle class="cls-5" cx="27.27" cy="32.1" r="2.8"/><path class="cls-5" d="M39.53,41.55a2.8,2.8,0,1,1-2.8-2.8A2.8,2.8,0,0,1,39.53,41.55Z"/><path class="cls-5" d="M27.07,43a1.23,1.23,0,0,1-.89-.37,1.26,1.26,0,0,1,0-1.79L36,31a1.27,1.27,0,0,1,1.79,1.8L28,42.65A1.26,1.26,0,0,1,27.07,43Z"/></svg>