<svg id="Layer_1" data-name="Layer 1" xmlns="http://www.w3.org/2000/svg" viewBox="0 0 64 64"><defs><style>.cls-1{fill:#dfe8f4;}.cls-2{fill:#ff5454;}.cls-3{fill:#dd1515;}.cls-4{fill:#ccd8e5;}.cls-5{fill:#fff;}</style></defs><title>shopping, shop, ecommerce, commerce, browser, webpage, payment, finance</title><rect class="cls-1" x="8" y="11.44" width="48" height="41.13" rx="4.09"/><path class="cls-2" d="M51.91,11.44H12.09A4.09,4.09,0,0,0,8,15.53v1.91H56V15.53A4.09,4.09,0,0,0,51.91,11.44Z"/><rect class="cls-3" x="12.66" y="13.82" width="1.23" height="1.23"/><rect class="cls-3" x="15.19" y="13.82" width="1.23" height="1.23"/><rect class="cls-3" x="17.71" y="13.82" width="1.23" height="1.23"/><rect class="cls-3" x="8" y="17.44" width="48" height="1.65"/><path class="cls-4" d="M56,21.88H10.79A2.79,2.79,0,0,1,8,19.08H56Z"/><path class="cls-5" d="M32,33.66a1.42,1.42,0,1,1,1.24-2.13,1.35,1.35,0,0,0,1.13.71h0a1.57,1.57,0,0,0,1.33-2.42A4.47,4.47,0,0,0,34,28.33a1,1,0,0,1-.5-.88h0A1.5,1.5,0,0,0,32,26h0a1.5,1.5,0,0,0-1.5,1.5h0a1,1,0,0,1-.52.89,4.47,4.47,0,0,0-1.73,6.33,4.21,4.21,0,0,0,3.77,2,1.42,1.42,0,0,1,0,2.83,1.4,1.4,0,0,1-1.22-.7,1.35,1.35,0,0,0-1.13-.71h0a1.57,1.57,0,0,0-1.29,2.47A4.46,4.46,0,0,0,30,42a1,1,0,0,1,.5.88h0A1.5,1.5,0,0,0,32,44.35h0a1.5,1.5,0,0,0,1.5-1.49h0A1,1,0,0,1,34,42a4.49,4.49,0,0,0,1.68-6.42A4.2,4.2,0,0,0,32,33.66Z"/></svg>