<svg id="Layer_1" data-name="Layer 1" xmlns="http://www.w3.org/2000/svg" viewBox="0 0 64 64"><defs><style>.cls-1{fill:#F4DFDF;}.cls-2{fill:#e5cccc;}.cls-3{fill:#FC0707;}.cls-4{fill:#DD1515;}.cls-5{fill:#fff;}</style></defs><title>shopping, shop, ecommerce, commerce, coupon, cart</title><path class="cls-1" d="M36.38,17.87H11.1A3.22,3.22,0,0,0,8,21.19v6.42a3.4,3.4,0,0,0,2.15,3.16,6.76,6.76,0,0,1,0,12.34A3.39,3.39,0,0,0,8,46.26v6.42A3.22,3.22,0,0,0,11.1,56H36.38Z"/><path class="cls-2" d="M22.51,17.87A12.54,12.54,0,0,1,35,30.41V43.47A12.53,12.53,0,0,1,22.51,56H36.38V17.87Z"/><path class="cls-3" d="M52.68,17.87h-13V56h13A3.32,3.32,0,0,0,56,52.68V46.26a3.4,3.4,0,0,0-2.3-3.15,6.59,6.59,0,0,1,0-12.34A3.41,3.41,0,0,0,56,27.61V21.19A3.32,3.32,0,0,0,52.68,17.87Z"/><path class="cls-3" d="M52.68,17.87c1.83,0,3.32,1.49,3.32,4v-.7A3.32,3.32,0,0,0,52.68,17.87Z"/><rect class="cls-2" x="36.09" y="17.87" width="2.29" height="38.13"/><path class="cls-2" d="M12.56,32.21,12.35,32v0Z"/><rect class="cls-4" x="38.39" y="17.87" width="2.61" height="38.13"/><path class="cls-5" d="M29.51,41.08H20.83a.92.92,0,0,1-.9-.7l-1.57-6.25a.93.93,0,0,1,.9-1.15H31.08A.92.92,0,0,1,32,34.13l-1.56,6.25A.94.94,0,0,1,29.51,41.08Z"/><path class="cls-5" d="M22.74,44.1a1.39,1.39,0,1,1-1.39-1.39A1.39,1.39,0,0,1,22.74,44.1Z"/><path class="cls-5" d="M30.38,44.1A1.39,1.39,0,1,1,29,42.71,1.39,1.39,0,0,1,30.38,44.1Z"/><path class="cls-5" d="M21.16,36.78l-1.57-6.25h0a.89.89,0,0,0-.86-.67h-2.8a.9.9,0,0,0,0,1.8h1.32a.64.64,0,0,1,.63.49L19,36.78a.92.92,0,0,0,.9.7h2.13A.92.92,0,0,1,21.16,36.78Z"/></svg>