<svg id="Layer_1" data-name="Layer 1" xmlns="http://www.w3.org/2000/svg" viewBox="0 0 64 64"><defs><style>.cls-1{fill:#F4DFDF;}.cls-2{fill:#e5cccc;}.cls-3{fill:#FC0707;}.cls-4{fill:#DD1515;}.cls-5{fill:#fff;}</style></defs><title>shopping, shop, ecommerce, commerce, coupon, discount, percentage, sale</title><path class="cls-1" d="M36.38,17.87H11.1A3.22,3.22,0,0,0,8,21.19v6.42a3.4,3.4,0,0,0,2.15,3.16,6.76,6.76,0,0,1,0,12.34A3.39,3.39,0,0,0,8,46.26v6.42A3.22,3.22,0,0,0,11.1,56H36.38Z"/><path class="cls-2" d="M22.51,17.87A12.54,12.54,0,0,1,35,30.41V43.47A12.53,12.53,0,0,1,22.51,56H36.38V17.87Z"/><path class="cls-3" d="M52.68,17.87h-13V56h13A3.32,3.32,0,0,0,56,52.68V46.26a3.4,3.4,0,0,0-2.3-3.15,6.59,6.59,0,0,1,0-12.34A3.41,3.41,0,0,0,56,27.61V21.19A3.32,3.32,0,0,0,52.68,17.87Z"/><path class="cls-3" d="M52.68,17.87c1.83,0,3.32,1.49,3.32,4v-.7A3.32,3.32,0,0,0,52.68,17.87Z"/><rect class="cls-2" x="36.09" y="17.87" width="2.29" height="38.13"/><path class="cls-2" d="M12.56,32.21,12.35,32v0Z"/><rect class="cls-4" x="38.39" y="17.87" width="2.61" height="38.13"/><path class="cls-5" d="M22.91,32.8a2.46,2.46,0,1,1-2.46-2.46A2.46,2.46,0,0,1,22.91,32.8Z"/><path class="cls-5" d="M31.19,41.08a2.46,2.46,0,1,1-2.46-2.46A2.46,2.46,0,0,1,31.19,41.08Z"/><path class="cls-5" d="M20.28,42.36a1.14,1.14,0,0,1-.79-.32,1.12,1.12,0,0,1,0-1.57l8.63-8.63a1.11,1.11,0,0,1,1.57,1.57L21.06,42A1.11,1.11,0,0,1,20.28,42.36Z"/></svg>