<svg id="Layer_1" data-name="Layer 1" xmlns="http://www.w3.org/2000/svg" viewBox="0 0 64 64"><defs><style>.cls-1{fill:#dfe8f4;}.cls-2{fill:#ccd8e5;}.cls-3{fill:#ff5454;}.cls-4{fill:#dd1515;}.cls-5{fill:#fff;}</style></defs><title>shopping, shop, ecommerce, commerce, clipboard, chart, cart</title><rect class="cls-1" x="13.33" y="13.36" width="37.33" height="42.64" rx="4.42"/><path class="cls-2" d="M21.5,13.56H42.17a0,0,0,0,1,0,0v1.83a2.49,2.49,0,0,1-2.49,2.49H24a2.49,2.49,0,0,1-2.49-2.49V13.56A0,0,0,0,1,21.5,13.56Z"/><path class="cls-3" d="M39.68,11.07H37.13A2.83,2.83,0,0,1,34.7,9.58a3.1,3.1,0,0,0-5.4,0,2.82,2.82,0,0,1-2.43,1.49H24.33a2.58,2.58,0,0,0-2.83,2.49v.84a1.26,1.26,0,0,0,1.26,1.26H40.91a1.27,1.27,0,0,0,1.26-1.26v-.84A2.48,2.48,0,0,0,39.68,11.07Z"/><path class="cls-4" d="M34.7,9.58a3.1,3.1,0,0,0-5.4,0,2.82,2.82,0,0,1-2.43,1.49H37.13A2.83,2.83,0,0,1,34.7,9.58Z"/><path class="cls-5" d="M37.23,41.75H26.77a1.1,1.1,0,0,1-1.07-.84l-1.89-7.53A1.12,1.12,0,0,1,24.89,32H39.11a1.12,1.12,0,0,1,1.08,1.38L38.3,40.91A1.1,1.1,0,0,1,37.23,41.75Z"/><path class="cls-5" d="M29.08,45.39a1.68,1.68,0,1,1-1.67-1.68A1.67,1.67,0,0,1,29.08,45.39Z"/><path class="cls-5" d="M38.27,45.39a1.68,1.68,0,1,1-1.68-1.68A1.68,1.68,0,0,1,38.27,45.39Z"/><path class="cls-5" d="M27.18,36.57l-1.89-7.52h0a1.07,1.07,0,0,0-1-.81H20.87a1.09,1.09,0,1,0,0,2.17h1.59a.79.79,0,0,1,.76.59l1.39,5.57a1.12,1.12,0,0,0,1.08.85h2.56A1.1,1.1,0,0,1,27.18,36.57Z"/></svg>