<svg id="Layer_1" data-name="Layer 1" xmlns="http://www.w3.org/2000/svg" viewBox="0 0 64 64"><defs><style>.cls-1{fill:#F4DFDF;}.cls-2{fill:#FC0707;}.cls-3{fill:#DD1515;}.cls-4{fill:#e5cccc;}.cls-5{fill:#fff;}</style></defs><title>shopping, shop, ecommerce, commerce, store, webpage, browser</title><rect class="cls-1" x="8" y="11.44" width="48" height="41.13" rx="4.09"/><path class="cls-2" d="M51.91,11.44H12.09A4.09,4.09,0,0,0,8,15.53v1.91H56V15.53A4.09,4.09,0,0,0,51.91,11.44Z"/><rect class="cls-3" x="12.66" y="13.82" width="1.23" height="1.23"/><rect class="cls-3" x="15.19" y="13.82" width="1.23" height="1.23"/><rect class="cls-3" x="17.71" y="13.82" width="1.23" height="1.23"/><rect class="cls-3" x="8" y="17.44" width="48" height="1.65"/><path class="cls-4" d="M56,21.88H10.79A2.79,2.79,0,0,1,8,19.08H56Z"/><path class="cls-2" d="M23.44,33.07l3.92-8.61H24.5a1.2,1.2,0,0,0-1,.52l-5.1,7.52a2.1,2.1,0,0,0-.36,1.17v1.66a1.18,1.18,0,0,0,1.18,1.18h4.05V33.75A1.57,1.57,0,0,1,23.44,33.07Z"/><path class="cls-2" d="M45.58,32.5,40.48,25a1.2,1.2,0,0,0-1-.52H36.64l3.92,8.61a1.57,1.57,0,0,1,.15.68v2.76h4a1.18,1.18,0,0,0,1.18-1.18V33.67A2.1,2.1,0,0,0,45.58,32.5Z"/><rect class="cls-2" x="20.2" y="34.58" width="23.59" height="13.94"/><path class="cls-3" d="M23.44,33.07v0H18.16a2.19,2.19,0,0,0-.1.63v1.66a1.18,1.18,0,0,0,1.18,1.18h4.05V33.75A1.57,1.57,0,0,1,23.44,33.07Z"/><path class="cls-3" d="M45.84,33H40.55v0a1.57,1.57,0,0,1,.15.68v2.76h4a1.18,1.18,0,0,0,1.18-1.18V33.67A2.19,2.19,0,0,0,45.84,33Z"/><path class="cls-5" d="M36.64,24.46H27.36l-3.92,8.61a1.57,1.57,0,0,0-.15.68v2.76H40.71V33.75a1.57,1.57,0,0,0-.15-.68Z"/><path class="cls-1" d="M23.44,33.07a1.57,1.57,0,0,0-.15.68v2.76H40.71V33.75a1.57,1.57,0,0,0-.15-.68v0H23.45Z"/><path class="cls-2" d="M33.51,24.46h-3l-1.37,8.81a1.94,1.94,0,0,0,0,.24v3h5.8v-3a1.94,1.94,0,0,0,0-.24Z"/><path class="cls-3" d="M34.84,33H29.16l0,.23a1.94,1.94,0,0,0,0,.24v3h5.8v-3a1.94,1.94,0,0,0,0-.24Z"/><path class="cls-3" d="M34.91,48.51H29.09v-6.4A2.92,2.92,0,0,1,32,39.2h0a2.92,2.92,0,0,1,2.91,2.91Z"/><rect class="cls-5" x="18.06" y="48.46" width="27.88" height="1.25"/></svg>