<svg id="Layer_1" data-name="Layer 1" xmlns="http://www.w3.org/2000/svg" viewBox="0 0 64 64"><defs><style>.cls-1{fill:#F4DFDF;}.cls-2{fill:#FC0707;}.cls-3{fill:#DD1515;}.cls-4{fill:#e5cccc;}.cls-5{fill:#fff;}</style></defs><title>shopping, shop, ecommerce, commerce, computer, laptop, online</title><path class="cls-1" d="M15.16,24H48.74a3,3,0,0,1,3,3V50.67a0,0,0,0,1,0,0H12.11a0,0,0,0,1,0,0V27A3,3,0,0,1,15.16,24Z"/><path class="cls-2" d="M9.08,50.67H54.82a1.13,1.13,0,0,1,1.13,1.13v.65A3.55,3.55,0,0,1,52.4,56H12.15a4.2,4.2,0,0,1-4.2-4.2v0A1.13,1.13,0,0,1,9.08,50.67Z"/><path class="cls-3" d="M26.18,51.74a2.28,2.28,0,0,0,1.94,1.07h7.65a2.3,2.3,0,0,0,1.95-1.07,2.3,2.3,0,0,1,2-1.07H24.23A2.31,2.31,0,0,1,26.18,51.74Z"/><rect class="cls-4" x="12.11" y="48.25" width="39.58" height="2.42"/><path class="cls-5" d="M36.18,40.11H27.81a.89.89,0,0,1-.86-.68l-1.51-6a.9.9,0,0,1,.87-1.11H37.68a.9.9,0,0,1,.87,1.11l-1.51,6A.9.9,0,0,1,36.18,40.11Z"/><path class="cls-5" d="M29.66,43a1.34,1.34,0,1,1-1.34-1.34A1.33,1.33,0,0,1,29.66,43Z"/><path class="cls-5" d="M37,43a1.34,1.34,0,1,1-1.34-1.34A1.33,1.33,0,0,1,37,43Z"/><path class="cls-5" d="M28.13,36l-1.5-6h0a.85.85,0,0,0-.82-.64H23.08a.87.87,0,0,0,0,1.73h1.28a.63.63,0,0,1,.61.48L26.08,36a.9.9,0,0,0,.87.68H29A.9.9,0,0,1,28.13,36Z"/></svg>