<svg id="Layer_1" data-name="Layer 1" xmlns="http://www.w3.org/2000/svg" viewBox="0 0 64 64"><defs><style>.cls-1{fill:#ccd8e5;}.cls-2{fill:#ff5454;}.cls-3{fill:#dd1515;}.cls-4{fill:#dfe8f4;}</style></defs><title>shopping, shop, ecommerce, commerce, hand, gesture, basket</title><path class="cls-1" d="M42.84,22.32a1.71,1.71,0,0,1-1.22-.5,1.74,1.74,0,0,1,0-2.46l8-7.95A1.74,1.74,0,0,1,52,13.86l-8,8A1.72,1.72,0,0,1,42.84,22.32Z"/><path class="cls-2" d="M30.58,20.35V21.7a1.65,1.65,0,0,0,1.64,1.64h0a1.65,1.65,0,0,1,1.61,1.31l1.78,8.94a1.65,1.65,0,0,0,1.61,1.31H49.37A1.63,1.63,0,0,0,51,33.59l1.79-8.94a1.63,1.63,0,0,1,1.6-1.31h0A1.64,1.64,0,0,0,56,21.7v-2a.94.94,0,0,0-1-.95H32.22A1.64,1.64,0,0,0,30.58,20.35Z"/><path class="cls-3" d="M22.31,19.49V21.7A1.64,1.64,0,0,0,24,23.34h0a1.63,1.63,0,0,1,1.6,1.31l1.79,8.94a1.63,1.63,0,0,0,1.6,1.31H41.09a1.65,1.65,0,0,0,1.61-1.31l1.78-8.94a1.65,1.65,0,0,1,1.61-1.31h0a1.65,1.65,0,0,0,1.64-1.64v-3H23.09A.78.78,0,0,0,22.31,19.49Z"/><rect class="cls-2" x="29.11" y="25.19" width="1.23" height="1.23"/><rect class="cls-2" x="32.64" y="25.19" width="1.23" height="1.23"/><rect class="cls-2" x="36.16" y="25.19" width="1.23" height="1.23"/><rect class="cls-2" x="39.69" y="25.19" width="1.23" height="1.23"/><rect class="cls-2" x="30.88" y="27.96" width="1.23" height="1.23"/><rect class="cls-2" x="34.4" y="27.96" width="1.23" height="1.23"/><rect class="cls-2" x="37.93" y="27.96" width="1.23" height="1.23"/><rect class="cls-2" x="32.64" y="30.74" width="1.23" height="1.23"/><rect class="cls-2" x="36.16" y="30.74" width="1.23" height="1.23"/><path class="cls-4" d="M35,22.32a1.72,1.72,0,0,1-1.23-.5,1.74,1.74,0,0,1,0-2.46l8-7.95A1.69,1.69,0,0,1,43,10.9H50.8a1.74,1.74,0,0,1,0,3.47H43.69l-7.45,7.45A1.69,1.69,0,0,1,35,22.32Z"/><path class="cls-4" d="M8.31,41l4.77-1a26.1,26.1,0,0,0,5-1.54h0a11.63,11.63,0,0,1,8-.37L35.22,41a2,2,0,0,1,1.24,2.56h0a1,1,0,0,1-1,.64l-5.91-.14,5.71,1.31a26.63,26.63,0,0,0,10.78.23l2.47-.46a1.72,1.72,0,0,1,2,1.69h0a.84.84,0,0,1-.54.79l-3,1.23a26.61,26.61,0,0,1-13.33,1.71l-8.57-1.11c-2.7-.52-5.49.86-7.95,2.09L8.28,56Z"/><polygon class="cls-1" points="10.66 40.53 8.31 41 8.28 56 10.66 54.81 10.66 40.53"/></svg>