<svg id="Layer_1" data-name="Layer 1" xmlns="http://www.w3.org/2000/svg" viewBox="0 0 64 64"><defs><style>.cls-1{fill:#DD1515;}.cls-2{fill:#FC0707;}.cls-3{fill:#fff;}.cls-4{fill:#F4DFDF;}.cls-5{fill:#e5cccc;}</style></defs><title>shopping, shop, ecommerce, commerce, payment, bag, checkout</title><path class="cls-1" d="M42.44,28.63h11A2.57,2.57,0,0,1,56,31.2V53.43A2.57,2.57,0,0,1,53.47,56h-11a0,0,0,0,1,0,0V28.63A0,0,0,0,1,42.44,28.63Z"/><path class="cls-2" d="M27.59,28.63H45.72a2,2,0,0,1,2,2V52.43A3.57,3.57,0,0,1,44.12,56H27.59A2.57,2.57,0,0,1,25,53.43V31.2A2.57,2.57,0,0,1,27.59,28.63Z"/><path class="cls-3" d="M36.35,39.5a6.13,6.13,0,0,1-6.12-6.12V32h2v1.38a4.13,4.13,0,0,0,8.25,0V32h2v1.38A6.13,6.13,0,0,1,36.35,39.5Z"/><path class="cls-1" d="M41.56,21.13a6.13,6.13,0,0,1,6.13,6.12v1.38h-2V27.25a4.13,4.13,0,0,0-8.25,0v1.38h-2V27.25A6.13,6.13,0,0,1,41.56,21.13Z"/><path class="cls-4" d="M10.7,8H25a2.66,2.66,0,0,1,2.66,2.66V25.55a.82.82,0,0,1-1.4.58l-1.82-1.82a2.2,2.2,0,0,0-1.55-.64H10.7A2.66,2.66,0,0,1,8,21V10.66A2.66,2.66,0,0,1,10.7,8Z"/><path class="cls-5" d="M27.63,25.55a.82.82,0,0,1-1.4.58l-1.82-1.82a2.2,2.2,0,0,0-1.55-.64H26a1.6,1.6,0,0,1,1.6,1.6Z"/><path class="cls-3" d="M17.83,14.9a.71.71,0,1,1,.62-1.07.66.66,0,0,0,.56.36h0A.78.78,0,0,0,19.67,13a2.27,2.27,0,0,0-.83-.74.49.49,0,0,1-.26-.44h0a.74.74,0,0,0-.74-.75h0a.74.74,0,0,0-.75.75h0a.51.51,0,0,1-.26.44A2.23,2.23,0,0,0,16,15.4a2.1,2.1,0,0,0,1.88,1,.71.71,0,0,1,0,1.41.72.72,0,0,1-.62-.35.66.66,0,0,0-.56-.36h0A.78.78,0,0,0,16,18.34a2.25,2.25,0,0,0,.81.72.48.48,0,0,1,.26.44h0a.75.75,0,0,0,.75.75h0a.75.75,0,0,0,.74-.75h0a.49.49,0,0,1,.26-.44,2.24,2.24,0,0,0,.85-3.21A2.11,2.11,0,0,0,17.83,14.9Z"/></svg>