<svg id="Layer_1" data-name="Layer 1" xmlns="http://www.w3.org/2000/svg" viewBox="0 0 64 64"><defs><style>.cls-1{fill:#dfe8f4;}.cls-2{fill:#ccd8e5;}.cls-3{fill:#ff5454;}.cls-4{fill:#fff;}</style></defs><title>shopping, shop, ecommerce, commerce, file, percentage, sale</title><path class="cls-1" d="M18.64,8a5.24,5.24,0,0,0-5.24,5.24V50.76A5.24,5.24,0,0,0,18.64,56H45.36a5.24,5.24,0,0,0,5.24-5.24V22.16a4,4,0,0,0-1.16-2.81L39.26,9.17A4,4,0,0,0,36.44,8Z"/><path class="cls-2" d="M38.09,22.74a3.39,3.39,0,0,0,3.39,3.39h6.68a2.44,2.44,0,0,0,2.44-2.44V22.16a4,4,0,0,0-1.16-2.81l-8.9-8.9H38.09Z"/><path class="cls-3" d="M38.09,15.27a5.24,5.24,0,0,0,5.24,5.24h6.9a4,4,0,0,0-.79-1.16L39.26,9.17a4.06,4.06,0,0,0-1.17-.8Z"/><path class="cls-4" d="M30.07,34.79a2.8,2.8,0,1,1-2.8-2.8A2.8,2.8,0,0,1,30.07,34.79Z"/><path class="cls-4" d="M39.53,44.25a2.8,2.8,0,1,1-2.8-2.8A2.81,2.81,0,0,1,39.53,44.25Z"/><path class="cls-4" d="M27.07,45.71a1.23,1.23,0,0,1-.89-.37,1.26,1.26,0,0,1,0-1.79L36,33.69a1.27,1.27,0,0,1,1.79,1.8L28,45.34A1.26,1.26,0,0,1,27.07,45.71Z"/></svg>