<svg id="Layer_1" data-name="Layer 1" xmlns="http://www.w3.org/2000/svg" viewBox="0 0 64 64"><defs><style>.cls-1{fill:#DD1515;}.cls-2{fill:#FC0707;}.cls-3{fill:#fff;}.cls-4{fill:#F4DFDF;}.cls-5{fill:#e5cccc;}</style></defs><title>shopping, shop, ecommerce, commerce, bag, sale, percentage</title><path class="cls-1" d="M42.39,28.63h11A2.57,2.57,0,0,1,56,31.2V53.43A2.57,2.57,0,0,1,53.43,56h-11a0,0,0,0,1,0,0V28.63A0,0,0,0,1,42.39,28.63Z"/><path class="cls-2" d="M27.55,28.63H45.68a2,2,0,0,1,2,2V52.43A3.57,3.57,0,0,1,44.07,56H27.55A2.57,2.57,0,0,1,25,53.43V31.2A2.57,2.57,0,0,1,27.55,28.63Z"/><path class="cls-3" d="M36.31,39.5a6.13,6.13,0,0,1-6.13-6.12V32h2v1.38a4.13,4.13,0,0,0,8.25,0V32h2v1.38A6.13,6.13,0,0,1,36.31,39.5Z"/><path class="cls-1" d="M41.52,21.13a6.13,6.13,0,0,1,6.12,6.12v1.38h-2V27.25a4.13,4.13,0,0,0-8.25,0v1.38h-2V27.25A6.13,6.13,0,0,1,41.52,21.13Z"/><path class="cls-4" d="M10.66,8H24.93a2.66,2.66,0,0,1,2.66,2.66V25.55a.82.82,0,0,1-1.4.58l-1.83-1.82a2.17,2.17,0,0,0-1.54-.64H10.66A2.66,2.66,0,0,1,8,21V10.66A2.66,2.66,0,0,1,10.66,8Z"/><path class="cls-5" d="M27.59,25.55a.82.82,0,0,1-1.4.58l-1.83-1.82a2.17,2.17,0,0,0-1.54-.64H26a1.61,1.61,0,0,1,1.61,1.6Z"/><path class="cls-3" d="M16.83,13.28a1.4,1.4,0,1,1-1.4-1.4A1.4,1.4,0,0,1,16.83,13.28Z"/><path class="cls-3" d="M21.56,18a1.4,1.4,0,1,1-1.4-1.4A1.4,1.4,0,0,1,21.56,18Z"/><path class="cls-3" d="M15.33,18.74a.64.64,0,0,1-.45-.18.63.63,0,0,1,0-.9l4.93-4.92a.63.63,0,0,1,.89.89l-4.92,4.93A.66.66,0,0,1,15.33,18.74Z"/></svg>