<svg id="Layer_1" data-name="Layer 1" xmlns="http://www.w3.org/2000/svg" viewBox="0 0 64 64"><defs><style>.cls-1{fill:#dfe8f4;}.cls-2{fill:#ccd8e5;}.cls-3{fill:#ff5454;}.cls-4{fill:#fff;}</style></defs><title>shopping, shop, ecommerce, commerce, file, finance</title><path class="cls-1" d="M18.64,8a5.24,5.24,0,0,0-5.24,5.24V50.76A5.24,5.24,0,0,0,18.64,56H45.36a5.24,5.24,0,0,0,5.24-5.24V22.16a4,4,0,0,0-1.16-2.81L39.26,9.17A4,4,0,0,0,36.44,8Z"/><path class="cls-2" d="M38.09,22.74a3.39,3.39,0,0,0,3.39,3.39h6.68a2.44,2.44,0,0,0,2.44-2.44V22.16a4,4,0,0,0-1.16-2.81l-8.9-8.9H38.09Z"/><path class="cls-3" d="M38.09,15.27a5.24,5.24,0,0,0,5.24,5.24h6.9a4,4,0,0,0-.79-1.16L39.26,9.17a4.06,4.06,0,0,0-1.17-.8Z"/><path class="cls-4" d="M32,36.35a1.42,1.42,0,0,1,0-2.83,1.4,1.4,0,0,1,1.22.7,1.33,1.33,0,0,0,1.13.71h0a1.57,1.57,0,0,0,1.33-2.42A4.56,4.56,0,0,0,34,31a1,1,0,0,1-.5-.88h0A1.5,1.5,0,0,0,32,28.65h0a1.5,1.5,0,0,0-1.5,1.49h0A1,1,0,0,1,30,31a4.47,4.47,0,0,0-1.73,6.33,4.19,4.19,0,0,0,3.77,2,1.42,1.42,0,0,1,0,2.84,1.4,1.4,0,0,1-1.22-.7,1.34,1.34,0,0,0-1.13-.72h0a1.58,1.58,0,0,0-1.29,2.48A4.53,4.53,0,0,0,30,44.67a1,1,0,0,1,.5.88h0a1.5,1.5,0,0,0,1.5,1.5h0a1.5,1.5,0,0,0,1.5-1.5h0a1,1,0,0,1,.52-.89,4.48,4.48,0,0,0,1.68-6.41A4.18,4.18,0,0,0,32,36.35Z"/></svg>