<svg id="Layer_1" data-name="Layer 1" xmlns="http://www.w3.org/2000/svg" viewBox="0 0 64 64"><defs><style>.cls-1{fill:#dfe8f4;}.cls-2{fill:#ff5454;}.cls-3{fill:#dd1515;}.cls-4{fill:#ccd8e5;}.cls-5{fill:#fff;}</style></defs><title>shopping, shop, ecommerce, commerce, laptop, computer, online, payment</title><path class="cls-1" d="M15.21,24H48.79a3,3,0,0,1,3,3V50.67a0,0,0,0,1,0,0H12.17a0,0,0,0,1,0,0V27A3,3,0,0,1,15.21,24Z"/><path class="cls-2" d="M9.13,50.67H54.87A1.13,1.13,0,0,1,56,51.8v.65A3.55,3.55,0,0,1,52.45,56H12.2A4.2,4.2,0,0,1,8,51.8v0a1.13,1.13,0,0,1,1.13-1.13Z"/><path class="cls-3" d="M26.23,51.74a2.3,2.3,0,0,0,1.95,1.07h7.64a2.3,2.3,0,0,0,2-1.07,2.3,2.3,0,0,1,1.95-1.07H24.28A2.3,2.3,0,0,1,26.23,51.74Z"/><rect class="cls-4" x="12.17" y="48.25" width="39.58" height="2.42"/><path class="cls-5" d="M31.94,35.81A1.42,1.42,0,0,1,32,33a1.4,1.4,0,0,1,1.22.7,1.34,1.34,0,0,0,1.13.72h0A1.57,1.57,0,0,0,35.63,32,4.36,4.36,0,0,0,34,30.49a1,1,0,0,1-.51-.88h0A1.5,1.5,0,0,0,32,28.11h0a1.5,1.5,0,0,0-1.5,1.5h0a1,1,0,0,1-.52.88,4.47,4.47,0,0,0-1.73,6.33,4.2,4.2,0,0,0,3.77,2,1.42,1.42,0,0,1,0,2.83,1.4,1.4,0,0,1-1.22-.7,1.34,1.34,0,0,0-1.14-.72h0a1.58,1.58,0,0,0-1.28,2.48A4.44,4.44,0,0,0,30,44.13a1,1,0,0,1,.5.88h0a1.5,1.5,0,0,0,1.5,1.5h0A1.5,1.5,0,0,0,33.45,45h0a1,1,0,0,1,.52-.88,4.48,4.48,0,0,0,1.69-6.42A4.2,4.2,0,0,0,31.94,35.81Z"/></svg>