<svg id="Layer_1" data-name="Layer 1" xmlns="http://www.w3.org/2000/svg" viewBox="0 0 64 64"><defs><style>.cls-1{fill:#dfe8f4;}.cls-2{fill:#ccd8e5;}.cls-3{fill:#ff5454;}.cls-4{fill:#dd1515;}.cls-5{fill:#fff;}</style></defs><title>shopping, shop, ecommerce, commerce, smartphone, payment, online</title><rect class="cls-1" x="16.67" y="8" width="30.67" height="48" rx="5.39"/><path class="cls-2" d="M22.06,8a5.39,5.39,0,0,0-5.39,5.39V50.61a5.37,5.37,0,0,0,3.66,5.08A5.19,5.19,0,0,1,20,54V33.69a2,2,0,0,0-2-2h0V30.58h0a2,2,0,0,0,2-2V14a2.66,2.66,0,0,1,2.66-2.66H35L36.62,8Z"/><path class="cls-3" d="M41.94,8H22.06a5.39,5.39,0,0,0-5.39,5.39V50.61A5.39,5.39,0,0,0,22.06,56H41.94a5.39,5.39,0,0,0,5.39-5.39V13.39A5.39,5.39,0,0,0,41.94,8Zm3.39,42.61A3.39,3.39,0,0,1,41.94,54H22.06a3.39,3.39,0,0,1-3.39-3.39V13.39A3.39,3.39,0,0,1,22.06,10h2.51a1.82,1.82,0,0,1,1.42.67h0a1.84,1.84,0,0,0,1.42.66h9.18A1.84,1.84,0,0,0,38,10.67h0A1.82,1.82,0,0,1,39.43,10h2.51a3.39,3.39,0,0,1,3.39,3.39Z"/><path class="cls-4" d="M16.56,20.91h.11a0,0,0,0,1,0,0v3.69a0,0,0,0,1,0,0h-.11a.37.37,0,0,1-.37-.37v-3A.37.37,0,0,1,16.56,20.91Z"/><path class="cls-4" d="M16.56,25.36h.11a0,0,0,0,1,0,0V29a0,0,0,0,1,0,0h-.11a.37.37,0,0,1-.37-.37v-3A.37.37,0,0,1,16.56,25.36Z"/><path class="cls-4" d="M47.7,20.91h.11a0,0,0,0,1,0,0v3.69a0,0,0,0,1,0,0H47.7a.37.37,0,0,1-.37-.37v-3A.37.37,0,0,1,47.7,20.91Z" transform="translate(95.14 45.5) rotate(180)"/><path class="cls-5" d="M32,30.5a1.42,1.42,0,0,1,0-2.83,1.4,1.4,0,0,1,1.22.7,1.34,1.34,0,0,0,1.13.72h0a1.57,1.57,0,0,0,1.33-2.42A4.39,4.39,0,0,0,34,25.18a1,1,0,0,1-.5-.88h0A1.5,1.5,0,0,0,32,22.8h0a1.5,1.5,0,0,0-1.5,1.5h0a1,1,0,0,1-.52.88,4.47,4.47,0,0,0-1.73,6.33,4.2,4.2,0,0,0,3.77,2,1.42,1.42,0,0,1,0,2.83,1.4,1.4,0,0,1-1.22-.7,1.34,1.34,0,0,0-1.13-.72h0a1.58,1.58,0,0,0-1.29,2.48A4.44,4.44,0,0,0,30,38.82a1,1,0,0,1,.5.88h0A1.5,1.5,0,0,0,32,41.2h0a1.5,1.5,0,0,0,1.5-1.5h0a1,1,0,0,1,.52-.88A4.49,4.49,0,0,0,35.7,32.4,4.2,4.2,0,0,0,32,30.5Z"/></svg>