<svg id="Layer_1" data-name="Layer 1" xmlns="http://www.w3.org/2000/svg" viewBox="0 0 64 64"><defs><style>.cls-1{fill:#dfe8f4;}.cls-2{fill:#ccd8e5;}.cls-3{fill:#ff5454;}.cls-4{fill:#dd1515;}.cls-5{fill:#fff;}</style></defs><title>shopping, shop, ecommerce, commerce, smartphone, sale, percentage</title><rect class="cls-1" x="8.47" y="8" width="30.67" height="48" rx="5.39"/><path class="cls-2" d="M26,42v6.24A7.76,7.76,0,0,0,33.75,56h0a5.39,5.39,0,0,0,5.39-5.39V42Z"/><path class="cls-2" d="M13.86,8a5.39,5.39,0,0,0-5.39,5.39V50.61a5.37,5.37,0,0,0,3.67,5.08A5.19,5.19,0,0,1,11.83,54V33.69a2,2,0,0,0-2-2h0V30.58h0a2,2,0,0,0,2-2V14a2.66,2.66,0,0,1,2.66-2.66H26.84L28.42,8Z"/><path class="cls-3" d="M33.75,8H13.86a5.39,5.39,0,0,0-5.39,5.39V50.61A5.39,5.39,0,0,0,13.86,56H33.75a5.39,5.39,0,0,0,5.39-5.39V13.39A5.39,5.39,0,0,0,33.75,8Zm3.39,42.61A3.39,3.39,0,0,1,33.75,54H13.86a3.39,3.39,0,0,1-3.39-3.39V13.39A3.39,3.39,0,0,1,13.86,10h2.52a1.82,1.82,0,0,1,1.42.67h0a1.84,1.84,0,0,0,1.41.66H28.4a1.84,1.84,0,0,0,1.42-.66h0A1.82,1.82,0,0,1,31.23,10h2.52a3.39,3.39,0,0,1,3.39,3.39Z"/><path class="cls-4" d="M8.37,20.91h.11a0,0,0,0,1,0,0v3.69a0,0,0,0,1,0,0H8.37A.37.37,0,0,1,8,24.23v-3A.37.37,0,0,1,8.37,20.91Z"/><path class="cls-4" d="M8.37,25.36h.11a0,0,0,0,1,0,0V29a0,0,0,0,1,0,0H8.37A.37.37,0,0,1,8,28.68v-3A.37.37,0,0,1,8.37,25.36Z"/><path class="cls-4" d="M39.51,20.91h.11a0,0,0,0,1,0,0v3.69a0,0,0,0,1,0,0h-.11a.37.37,0,0,1-.37-.37v-3A.37.37,0,0,1,39.51,20.91Z" transform="translate(78.75 45.5) rotate(180)"/><path class="cls-4" d="M52.54,32H33.09a3.47,3.47,0,0,0-3.47,3.46V48.54A3.47,3.47,0,0,0,33.09,52H52.54A3.46,3.46,0,0,0,56,48.54V35.46A3.46,3.46,0,0,0,52.54,32Z"/><path class="cls-4" d="M28.61,39l-2.37,2.36a.88.88,0,0,0,0,1.24L28.61,45a3.48,3.48,0,0,1,1,2.46V36.56A3.48,3.48,0,0,1,28.61,39Z"/><path class="cls-5" d="M41.67,39.2A1.66,1.66,0,1,1,40,37.55,1.65,1.65,0,0,1,41.67,39.2Z"/><path class="cls-5" d="M47.26,44.8a1.66,1.66,0,1,1-1.65-1.66A1.65,1.65,0,0,1,47.26,44.8Z"/><path class="cls-5" d="M39.9,45.66a.73.73,0,0,1-.53-.22.75.75,0,0,1,0-1.06l5.83-5.82a.74.74,0,0,1,1.06,0,.75.75,0,0,1,0,1.06l-5.83,5.82A.74.74,0,0,1,39.9,45.66Z"/></svg>