<svg id="Layer_1" data-name="Layer 1" xmlns="http://www.w3.org/2000/svg" viewBox="0 0 64 64"><defs><style>.cls-1{fill:#F4DFDF;}.cls-2{fill:#e5cccc;}.cls-3{fill:#FC0707;}.cls-4{fill:#DD1515;}.cls-5{fill:#fff;}</style></defs><title>startup, start up, business, chart, checklist, clipboard</title><rect class="cls-1" x="13.33" y="13.36" width="37.33" height="42.64" rx="4.42"/><path class="cls-2" d="M21.5,13.56H42.17a0,0,0,0,1,0,0v1.83a2.49,2.49,0,0,1-2.49,2.49H24a2.49,2.49,0,0,1-2.49-2.49V13.56a0,0,0,0,1,0,0Z"/><path class="cls-3" d="M39.68,11.07H37.13A2.83,2.83,0,0,1,34.7,9.58a3.1,3.1,0,0,0-5.4,0,2.82,2.82,0,0,1-2.43,1.49H24.33a2.58,2.58,0,0,0-2.83,2.49v.84a1.26,1.26,0,0,0,1.26,1.26H40.91a1.27,1.27,0,0,0,1.26-1.26v-.84A2.48,2.48,0,0,0,39.68,11.07Z"/><path class="cls-4" d="M34.7,9.58a3.1,3.1,0,0,0-5.4,0,2.82,2.82,0,0,1-2.43,1.49H37.13A2.83,2.83,0,0,1,34.7,9.58Z"/><path class="cls-3" d="M26,49.29,24.4,47.66a1.19,1.19,0,0,1-.17-1.53A1.16,1.16,0,0,1,26,46l.55.56,2.33-2.33A1.2,1.2,0,0,1,30.39,44a1.15,1.15,0,0,1,.15,1.76l-3.49,3.49A.72.72,0,0,1,26,49.29Z"/><rect class="cls-2" x="33.1" y="44.33" width="6.54" height="0.9"/><rect class="cls-2" x="33.1" y="46.22" width="6.54" height="0.9"/><rect class="cls-2" x="33.1" y="48.12" width="3.27" height="0.9"/><path class="cls-4" d="M33.61,37.76A1.61,1.61,0,1,1,32,36.15,1.61,1.61,0,0,1,33.61,37.76Z"/><path class="cls-5" d="M39.84,27.47a7.84,7.84,0,1,0-12.91,6A4.69,4.69,0,0,1,28.69,37v.06a1.54,1.54,0,0,0,1.54,1.55h3.54a1.54,1.54,0,0,0,1.54-1.55h0a4.46,4.46,0,0,1,1.6-3.5A7.78,7.78,0,0,0,39.84,27.47Z"/><path class="cls-3" d="M28.66,36.53a3.87,3.87,0,0,1,0,.48v.49a1.12,1.12,0,0,0,1.12,1.12h4.38a1.12,1.12,0,0,0,1.12-1.12V37a3.87,3.87,0,0,1,0-.48Z"/></svg>