<svg id="Layer_1" data-name="Layer 1" xmlns="http://www.w3.org/2000/svg" viewBox="0 0 64 64"><defs><style>.cls-1{fill:#DD1515;}.cls-2{fill:#FC0707;}.cls-3{fill:#e5cccc;}.cls-4{fill:#F4DFDF;}</style></defs><title>startup, start up, business, coin, increase, finance</title><path class="cls-1" d="M40,52.06v2.63c0,.72,2.63,1.31,5.88,1.31s5.87-.59,5.87-1.31V52.06Z"/><ellipse class="cls-2" cx="45.84" cy="52.06" rx="5.87" ry="1.31"/><path class="cls-1" d="M40,48.44v2.62c0,.73,2.63,1.32,5.88,1.32s5.87-.59,5.87-1.32V48.44Z"/><ellipse class="cls-2" cx="45.84" cy="48.44" rx="5.87" ry="1.31"/><path class="cls-1" d="M40,44.81v2.63c0,.72,2.63,1.31,5.88,1.31s5.87-.59,5.87-1.31V44.81Z"/><ellipse class="cls-2" cx="45.84" cy="44.81" rx="5.87" ry="1.31"/><path class="cls-1" d="M40,41.19v2.62c0,.73,2.63,1.31,5.88,1.31s5.87-.58,5.87-1.31V41.19Z"/><ellipse class="cls-2" cx="45.84" cy="41.19" rx="5.87" ry="1.31"/><path class="cls-1" d="M40,37.56v2.63c0,.72,2.63,1.31,5.88,1.31s5.87-.59,5.87-1.31V37.56Z"/><ellipse class="cls-2" cx="45.84" cy="37.56" rx="5.87" ry="1.31"/><path class="cls-1" d="M40,33.94v2.62c0,.73,2.63,1.32,5.88,1.32s5.87-.59,5.87-1.32V33.94Z"/><ellipse class="cls-2" cx="45.84" cy="33.94" rx="5.87" ry="1.31"/><path class="cls-1" d="M40,30.31v2.63c0,.72,2.63,1.31,5.88,1.31s5.87-.59,5.87-1.31V30.31Z"/><ellipse class="cls-2" cx="45.84" cy="30.31" rx="5.87" ry="1.31"/><path class="cls-1" d="M40,26.69v2.62c0,.73,2.63,1.31,5.88,1.31s5.87-.58,5.87-1.31V26.69Z"/><ellipse class="cls-2" cx="45.84" cy="26.69" rx="5.87" ry="1.31"/><path class="cls-1" d="M26.12,52.06v2.63c0,.72,2.64,1.31,5.88,1.31s5.88-.59,5.88-1.31V52.06Z"/><ellipse class="cls-2" cx="32" cy="52.06" rx="5.88" ry="1.31"/><path class="cls-1" d="M26.12,48.44v2.62c0,.73,2.64,1.32,5.88,1.32s5.88-.59,5.88-1.32V48.44Z"/><ellipse class="cls-2" cx="32" cy="48.44" rx="5.88" ry="1.31"/><path class="cls-1" d="M26.12,44.81v2.63c0,.72,2.64,1.31,5.88,1.31s5.88-.59,5.88-1.31V44.81Z"/><ellipse class="cls-2" cx="32" cy="44.81" rx="5.88" ry="1.31"/><path class="cls-1" d="M26.12,41.19v2.62c0,.73,2.64,1.31,5.88,1.31s5.88-.58,5.88-1.31V41.19Z"/><ellipse class="cls-2" cx="32" cy="41.19" rx="5.88" ry="1.31"/><path class="cls-1" d="M26.12,37.56v2.63c0,.72,2.64,1.31,5.88,1.31s5.88-.59,5.88-1.31V37.56Z"/><ellipse class="cls-2" cx="32" cy="37.56" rx="5.88" ry="1.31"/><path class="cls-1" d="M12.29,52.06v2.63c0,.72,2.63,1.31,5.87,1.31S24,55.41,24,54.69V52.06Z"/><ellipse class="cls-2" cx="18.16" cy="52.06" rx="5.87" ry="1.31"/><path class="cls-1" d="M12.29,48.44v2.62c0,.73,2.63,1.32,5.87,1.32S24,51.79,24,51.06V48.44Z"/><ellipse class="cls-2" cx="18.16" cy="48.44" rx="5.87" ry="1.31"/><path class="cls-1" d="M12.29,44.81v2.63c0,.72,2.63,1.31,5.87,1.31S24,48.16,24,47.44V44.81Z"/><ellipse class="cls-2" cx="18.16" cy="44.81" rx="5.87" ry="1.31"/><path class="cls-3" d="M24.72,21.15l-9.54,9.54a4.21,4.21,0,0,1-5.95,0h0a4.22,4.22,0,0,1,0-6l6.65-6.65a4.09,4.09,0,0,1,5.77,0Z"/><path class="cls-4" d="M35.27,8,37.16,9.9,25.84,21.22a.78.78,0,0,1-1.08,0L21,17.49a3.25,3.25,0,0,0-4.58,0L12.8,21.15l6.55,6.56h0l3.12,3.12a4,4,0,0,0,5.68,0l3.11-3.11h0L43.11,15.85,45,17.74V8Z"/></svg>