<svg id="Layer_1" data-name="Layer 1" xmlns="http://www.w3.org/2000/svg" viewBox="0 0 64 64"><defs><style>.cls-1{fill:#F4DFDF;}.cls-2{fill:#e5cccc;}.cls-3{fill:#DD1515;}.cls-4{fill:#FC0707;}</style></defs><title>startup, start up, business, target, flag</title><path class="cls-1" d="M8,56H24L13.65,41.22A3.11,3.11,0,0,0,8,43Z"/><polygon class="cls-2" points="7.99 52.67 7.99 56 24.01 56 14.83 42.91 7.99 52.67"/><path class="cls-1" d="M56,56H40L50.35,41.22A3.11,3.11,0,0,1,56,43Z"/><polygon class="cls-2" points="56.01 52.67 56.01 56 39.99 56 49.17 42.91 56.01 52.67"/><path class="cls-3" d="M38.75,12.63h7.11a1.1,1.1,0,0,1,1.1,1.1v5.6a1.1,1.1,0,0,1-1.1,1.1h-4a3.1,3.1,0,0,1-3.1-3.1v-4.7A0,0,0,0,1,38.75,12.63Z"/><path class="cls-4" d="M32.75,27.62h-1.5V8.75A.76.76,0,0,1,32,8h0a.76.76,0,0,1,.75.75Z"/><path class="cls-3" d="M29.5,25.3,8,56H56L34.5,25.3A3.06,3.06,0,0,0,29.5,25.3Z"/><path class="cls-4" d="M19.21,41.49a1.85,1.85,0,0,0,3,0l.23-.33a1.31,1.31,0,0,1,2.15,0l.23.33a1.85,1.85,0,0,0,3,0l.23-.33a1.3,1.3,0,0,1,2.14,0l.24.33a1.84,1.84,0,0,0,3,0l.24-.33a1.3,1.3,0,0,1,2.14,0l.23.33a1.85,1.85,0,0,0,3,0l.23-.33a1.31,1.31,0,0,1,2.15,0l.23.33a1.85,1.85,0,0,0,3,0h0a1.33,1.33,0,0,0,0-1.5L34.5,25.3a3.06,3.06,0,0,0-5,0L19.21,40a1.33,1.33,0,0,0,0,1.5Z"/><path class="cls-4" d="M39.86,9.75H32.75v7.79h5.1a1.17,1.17,0,0,1,1.09.83,3.65,3.65,0,0,0,.25.53A1,1,0,0,0,41,18.4V10.85A1.1,1.1,0,0,0,39.86,9.75Z"/></svg>