<svg id="Layer_1" data-name="Layer 1" xmlns="http://www.w3.org/2000/svg" viewBox="0 0 64 64"><defs><style>.cls-1{fill:#dfe8f4;}.cls-2{fill:#dd1515;}.cls-3{fill:#ccd8e5;}.cls-4{fill:#fff;}.cls-5{fill:#ff5454;}</style></defs><title>startup, start up, business, settings, options, preferences</title><path class="cls-1" d="M13.58,34.19l.21-.2A3.79,3.79,0,0,0,15,31h0a1.72,1.72,0,0,1,1.28-1.75l3.59-1a1.72,1.72,0,0,1,2,.87l.1.22a3.41,3.41,0,0,0,2.31,1.73c.26.06.51.13.76.21A3.43,3.43,0,0,0,27.89,31l.1-.06a1.74,1.74,0,0,1,2.25.16l2.64,2.63a1.72,1.72,0,0,1,.22,2.15l-.13.2A3.43,3.43,0,0,0,32.62,39c.08.25.15.51.21.77A3.43,3.43,0,0,0,34.57,42l.1,0a1.76,1.76,0,0,1,1,2l-1,3.6A1.72,1.72,0,0,1,33,49h0a3.84,3.84,0,0,0-3,1.2l-.2.21c-.06.07-.13.13-.2.2a3.83,3.83,0,0,0-1.21,3h0a1.7,1.7,0,0,1-1.27,1.75l-3.59,1a1.72,1.72,0,0,1-2-.88l-.1-.2a3.4,3.4,0,0,0-2.31-1.74c-.25-.06-.51-.13-.76-.21a3.44,3.44,0,0,0-2.9.36l-.15.1a1.75,1.75,0,0,1-2.19-.21l-2.63-2.63a1.72,1.72,0,0,1-.22-2.15l.12-.2a3.39,3.39,0,0,0,.35-2.88c-.07-.25-.14-.51-.2-.77a3.43,3.43,0,0,0-1.74-2.3l-.1,0a1.77,1.77,0,0,1-1-2l1-3.59a1.72,1.72,0,0,1,1.75-1.27h0a3.8,3.8,0,0,0,3-1.21Z"/><path class="cls-2" d="M22.1,27.05v-.4a5.25,5.25,0,0,0-1.73-4.09h0a2.39,2.39,0,0,1-.47-3l2.58-4.47a2.39,2.39,0,0,1,2.8-1.07l.31.1a4.76,4.76,0,0,0,4-.56c.31-.19.63-.37,1-.55A4.69,4.69,0,0,0,33,9.89l0-.16a2.43,2.43,0,0,1,2.36-2.05h5.16a2.38,2.38,0,0,1,2.33,1.88l.07.33a4.71,4.71,0,0,0,2.48,3.16c.32.18.64.36,1,.55a4.77,4.77,0,0,0,4,.56l.15-.05a2.44,2.44,0,0,1,3,1L56,19.6a2.38,2.38,0,0,1-.47,3h0a5.29,5.29,0,0,0-1.73,4.09v.8a5.29,5.29,0,0,0,1.73,4.09h0a2.38,2.38,0,0,1,.47,3L53.46,39a2.4,2.4,0,0,1-2.8,1.08l-.31-.1a4.74,4.74,0,0,0-4,.55c-.31.19-.63.38-1,.55A4.74,4.74,0,0,0,43,44.23l-.06.26a2.39,2.39,0,0,1-2.34,1.93H35.39a2.39,2.39,0,0,1-2.33-1.88L33,44.22a4.73,4.73,0,0,0-2.48-3.17c-.32-.17-.64-.35-1-.55a4.77,4.77,0,0,0-4-.55l-.15,0a2.44,2.44,0,0,1-3-1L19.9,34.5a2.39,2.39,0,0,1,.47-3h0a5.25,5.25,0,0,0,1.73-4.09Z"/><path class="cls-3" d="M33.06,44.54,33,44.22a4.73,4.73,0,0,0-2.48-3.17c-.32-.17-.64-.35-1-.55A5,5,0,0,0,27,39.73a4.21,4.21,0,0,0-1.36.22l-.15,0a2.82,2.82,0,0,1-.89.15A2.36,2.36,0,0,1,22.48,39L19.9,34.5a2.39,2.39,0,0,1,.47-3,5.28,5.28,0,0,0,1.49-2.32l0,0a1.72,1.72,0,0,0-2-.87l-1,.25a2.29,2.29,0,0,1-.54.76A5.39,5.39,0,0,0,17.31,36l2.57,4.47a5.33,5.33,0,0,0,4.67,2.67,6,6,0,0,0,1.82-.29l.14-.05a1.62,1.62,0,0,1,.44-.07,1.91,1.91,0,0,1,1,.32c.37.23.75.45,1.14.65a1.8,1.8,0,0,1,.95,1.15l.07.32a5.38,5.38,0,0,0,3.08,3.77A1.72,1.72,0,0,0,34.7,47.7L35,46.39A2.37,2.37,0,0,1,33.06,44.54Z"/><circle class="cls-4" cx="21.68" cy="42.28" r="4.08"/><path class="cls-5" d="M21.86,29.22l.08.18a3.41,3.41,0,0,0,2.31,1.73c.26.06.51.13.76.21A3.43,3.43,0,0,0,27.89,31l.1-.06a1.74,1.74,0,0,1,2.25.16l2.64,2.63a1.72,1.72,0,0,1,.22,2.15l-.13.2A3.43,3.43,0,0,0,32.62,39c.08.25.15.51.21.77A3.43,3.43,0,0,0,34.57,42l.1,0a1.76,1.76,0,0,1,1,2L35,46.39a2.37,2.37,0,0,1-2-1.85L33,44.22a4.73,4.73,0,0,0-2.48-3.17c-.32-.17-.64-.35-1-.55a4.77,4.77,0,0,0-4-.55l-.15,0a2.44,2.44,0,0,1-3-1L19.9,34.5a2.39,2.39,0,0,1,.47-3A5.28,5.28,0,0,0,21.86,29.22Z"/><path class="cls-4" d="M38,25.58h0a1,1,0,1,1,0-2,1,1,0,0,1,.78.39,1.45,1.45,0,0,0,1.13.6h.18a1.4,1.4,0,0,0,1.2-2.16,3.91,3.91,0,0,0-1.43-1.31.74.74,0,0,1-.38-.64h0A1.48,1.48,0,0,0,38,19h0a1.48,1.48,0,0,0-1.48,1.48h0a.69.69,0,0,1-.38.63,3.94,3.94,0,0,0,1.8,7.42H38a1,1,0,0,1,.91,1.3,1,1,0,0,1-.62.62,1,1,0,0,1-1.12-.36,1.32,1.32,0,0,0-1.05-.58H36a1.45,1.45,0,0,0-1.16,2.32A4,4,0,0,0,36.11,33a.7.7,0,0,1,.38.63h0A1.48,1.48,0,0,0,38,35.1h0a1.48,1.48,0,0,0,1.48-1.48h0a.72.72,0,0,1,.38-.63A3.94,3.94,0,0,0,38,25.58Z"/></svg>