<svg id="Layer_1" data-name="Layer 1" xmlns="http://www.w3.org/2000/svg" viewBox="0 0 64 64"><defs><style>.cls-1{fill:#F4DFDF;}.cls-2{fill:#e5cccc;}.cls-3{fill:#FC0707;}.cls-4{fill:#fff;}</style></defs><title>startup, start up, business, finance, view, vision</title><path class="cls-1" d="M40.35,14.61h7.49a1.55,1.55,0,0,1,1.55,1.55v7.49A25.73,25.73,0,0,1,23.65,49.39H16.16a1.55,1.55,0,0,1-1.55-1.55V40.35A25.73,25.73,0,0,1,40.35,14.61Z" transform="translate(32 -13.25) rotate(45)"/><path class="cls-2" d="M25.48,40.49a10.7,10.7,0,1,1,13,0A10.72,10.72,0,0,1,25.48,40.49Z"/><path class="cls-3" d="M26.72,38.88a8.67,8.67,0,1,1,10.56,0A8.68,8.68,0,0,1,26.72,38.88Z"/><path class="cls-4" d="M32,31.38h0a.72.72,0,1,1,0-1.44.72.72,0,0,1,.57.28,1,1,0,0,0,.82.44h.13a1,1,0,0,0,.88-1.57,2.9,2.9,0,0,0-1-1,.53.53,0,0,1-.28-.46h0A1.08,1.08,0,0,0,32,26.59h0a1.08,1.08,0,0,0-1.08,1.08h0a.52.52,0,0,1-.27.46A2.87,2.87,0,0,0,32,33.53H32a.72.72,0,0,1,.66,1,.7.7,0,0,1-.45.45.73.73,0,0,1-.81-.26,1,1,0,0,0-.77-.43h-.12a1.06,1.06,0,0,0-.85,1.69,2.84,2.84,0,0,0,1,.85.52.52,0,0,1,.27.46h0A1.09,1.09,0,0,0,32,38.33h0a1.08,1.08,0,0,0,1.08-1.08h0a.51.51,0,0,1,.28-.46A2.88,2.88,0,0,0,32,31.38Z"/></svg>