<svg id="Layer_1" data-name="Layer 1" xmlns="http://www.w3.org/2000/svg" viewBox="0 0 64 64"><defs><style>.cls-1{fill:#dd1515;}.cls-2{fill:#dfe8f4;}.cls-3{fill:#ff5454;}.cls-4{fill:#ccd8e5;}.cls-5{fill:#fff;}</style></defs><title>startup, start up, business, game, plan, presentation</title><rect class="cls-1" x="18.39" y="49.25" width="27.23" height="1.35"/><path class="cls-1" d="M29.1,8H34.9A3.1,3.1,0,0,1,38,11.1v.4a0,0,0,0,1,0,0H26a0,0,0,0,1,0,0v-.4A3.1,3.1,0,0,1,29.1,8Z"/><path class="cls-2" d="M9.77,16.07H54.23a0,0,0,0,1,0,0v28a2.14,2.14,0,0,1-2.14,2.14H11.9a2.14,2.14,0,0,1-2.14-2.14v-28A0,0,0,0,1,9.77,16.07Z"/><rect class="cls-3" x="8" y="10.84" width="48" height="5.23" rx="1.91"/><path class="cls-3" d="M16.13,56H14.78a1.13,1.13,0,0,1-1.06-1.51l3-8.25H20.5l-3.31,9A1.13,1.13,0,0,1,16.13,56Z"/><path class="cls-3" d="M47.87,56h1.35a1.13,1.13,0,0,0,1.06-1.51l-3-8.25H43.5l3.31,9A1.13,1.13,0,0,0,47.87,56Z"/><rect class="cls-4" x="9.77" y="16.07" width="44.46" height="1.59"/><path class="cls-1" d="M25.17,27.58a3.67,3.67,0,1,1,3.66-3.67A3.68,3.68,0,0,1,25.17,27.58Zm0-5.33a1.67,1.67,0,1,0,1.66,1.66A1.66,1.66,0,0,0,25.17,22.25Z"/><path class="cls-1" d="M41.5,41.24a1,1,0,0,1-.71-.29l-5.33-5.33a1,1,0,0,1,0-1.42,1,1,0,0,1,1.41,0l5.34,5.34a1,1,0,0,1-.71,1.7Z"/><path class="cls-1" d="M36.17,41.24a1,1,0,0,1-.71-.29,1,1,0,0,1,0-1.41l5.33-5.34a1,1,0,1,1,1.42,1.42L36.87,41A1,1,0,0,1,36.17,41.24Z"/><path class="cls-3" d="M22.5,40.74a.5.5,0,0,1-.5-.5c0-.17,0-.35,0-.52a.5.5,0,1,1,1,.05c0,.16,0,.31,0,.47A.5.5,0,0,1,22.5,40.74Z"/><path class="cls-3" d="M23.12,37.18a.47.47,0,0,1-.17,0,.51.51,0,0,1-.31-.64c.13-.34.27-.68.42-1a.5.5,0,0,1,.67-.24.51.51,0,0,1,.24.67,7.41,7.41,0,0,0-.38.92A.52.52,0,0,1,23.12,37.18Zm2.13-3.56a.5.5,0,0,1-.34-.13.49.49,0,0,1,0-.7c.24-.27.5-.53.77-.78a.5.5,0,1,1,.67.75,9.25,9.25,0,0,0-.7.7A.5.5,0,0,1,25.25,33.62Zm3.33-2.47a.5.5,0,0,1-.22-.95c.33-.15.67-.29,1-.42a.5.5,0,0,1,.34.95,9.29,9.29,0,0,0-.92.37A.41.41,0,0,1,28.58,31.15Z"/><path class="cls-3" d="M32.61,30.15a.5.5,0,0,1,0-1h.53a.5.5,0,0,1,0,1h-.5Z"/><path class="cls-3" d="M37.55,26.17h-.06a.5.5,0,0,1-.44-.55,3.25,3.25,0,0,0,0-.44.5.5,0,0,1,.5-.5.5.5,0,0,1,.5.5,5.07,5.07,0,0,1,0,.55A.51.51,0,0,1,37.55,26.17Z"/><path class="cls-3" d="M36,29.12a.53.53,0,0,1-.38-.18.51.51,0,0,1,.06-.71,3.45,3.45,0,0,0,.54-.54.5.5,0,1,1,.78.64,5.38,5.38,0,0,1-.68.67A.47.47,0,0,1,36,29.12Z"/><path class="cls-3" d="M33.11,30.14a.5.5,0,0,1,0-1l.44,0a.5.5,0,1,1,.11,1A5.07,5.07,0,0,1,33.11,30.14Z"/><path class="cls-5" d="M39.57,25.24a1,1,0,0,1-.71-.29l-1.28-1.29L36.29,25a1,1,0,0,1-1.41,0,1,1,0,0,1,0-1.42l2.7-2.7,2.7,2.7a1,1,0,0,1,0,1.42A1,1,0,0,1,39.57,25.24Z"/></svg>