<svg id="Layer_1" data-name="Layer 1" xmlns="http://www.w3.org/2000/svg" viewBox="0 0 64 64"><defs><style>.cls-1{fill:#dd1515;}.cls-2{fill:#ff5454;}.cls-3{fill:#ccd8e5;}.cls-4{fill:#dfe8f4;}.cls-5{fill:#fff;}</style></defs><title>startup, start up, business, strategy, endgame</title><path class="cls-1" d="M13.1,8H32a0,0,0,0,1,0,0V32a0,0,0,0,1,0,0H8a0,0,0,0,1,0,0V13.1A5.1,5.1,0,0,1,13.1,8Z"/><path class="cls-2" d="M37.1,32H56a0,0,0,0,1,0,0V56a0,0,0,0,1,0,0H32a0,0,0,0,1,0,0V37.1A5.1,5.1,0,0,1,37.1,32Z" transform="translate(88 88) rotate(180)"/><path class="cls-3" d="M13.1,32H32a0,0,0,0,1,0,0V56a0,0,0,0,1,0,0H8a0,0,0,0,1,0,0V37.1A5.1,5.1,0,0,1,13.1,32Z" transform="translate(-24 64) rotate(-90)"/><path class="cls-4" d="M37.1,8H56a0,0,0,0,1,0,0V32a0,0,0,0,1,0,0H32a0,0,0,0,1,0,0V13.1A5.1,5.1,0,0,1,37.1,8Z" transform="translate(64 -24) rotate(90)"/><polygon class="cls-3" points="33.75 30.25 33.75 8 32 8 32 32 56 32 56 30.25 33.75 30.25"/><polygon class="cls-1" points="33.75 33.75 56 33.75 56 32 32 32 32 56 33.75 56 33.75 33.75"/><polygon class="cls-2" points="30.25 30.25 8 30.25 8 32 32 32 32 8 30.25 8 30.25 30.25"/><polygon class="cls-4" points="30.25 33.75 30.25 56 32 56 32 32 8 32 8 33.75 30.25 33.75"/><path class="cls-4" d="M15.19,26.17l.56-.37h0S12.25,13.57,21,12.92h.11l2.13-.36a.36.36,0,0,1,.41.46l-.26.92a.41.41,0,0,0,.05.34l2.43,3.92a.47.47,0,0,1-.06.57l-.5.52a1.23,1.23,0,0,1-1.41.26l-.45-.21a1.89,1.89,0,0,0-.94-.19c-.29,0-.72,0-1.27,0l2.55,4.44a2,2,0,0,1-.18,2.19l.57.37a.77.77,0,0,1,.34.64v.49a.16.16,0,0,1-.15.16H15a.16.16,0,0,1-.15-.16v-.49A.75.75,0,0,1,15.19,26.17Z"/><path class="cls-5" d="M23.6,25.8a2,2,0,0,0,.18-2.19L21.54,19.7l-.18-.08a1.91,1.91,0,0,0-.94-.19c-.3,0-.72,0-1.27,0l2.54,4.44a2,2,0,0,1-.17,2.19l.57.37a.78.78,0,0,1,.34.64v.36h1.93a.16.16,0,0,0,.15-.16v-.49a.77.77,0,0,0-.34-.64Z"/><path class="cls-5" d="M25.86,18.19l-2.43-3.92a.41.41,0,0,1-.05-.34l.26-.92a.36.36,0,0,0-.41-.46l-1.89.31a.36.36,0,0,1,.21.44h0a2.6,2.6,0,0,0,.3,2.07l1.93,3.11a.49.49,0,0,1-.07.58l-.26.27.44.21a1.23,1.23,0,0,0,1.41-.26l.5-.52A.47.47,0,0,0,25.86,18.19Z"/></svg>