<svg id="Layer_1" data-name="Layer 1" xmlns="http://www.w3.org/2000/svg" viewBox="0 0 64 64"><defs><style>.cls-1{fill:#ccd8e5;}.cls-2{fill:#ff5454;}.cls-3{fill:#dfe8f4;}.cls-4{fill:#dd1515;}</style></defs><title>startup, start up, business, deal, agreement, handshake</title><path class="cls-1" d="M45.75,25l-2.83,1.41a11.51,11.51,0,0,1-5.15,1.22H32.51a3,3,0,0,0-3,2.48l-.38,2.07a1.93,1.93,0,0,1-.85,1.28l-7.85,5.12a3,3,0,0,0-.87,4.23h0a3,3,0,0,0,2.91,1.33L25,43.81a4,4,0,0,1,2.83.69l4.66,3.24a7.31,7.31,0,0,0,7.81.33L54.5,39.86"/><path class="cls-2" d="M56,17.72v21.7a2,2,0,0,1-1.5,2h0a2.31,2.31,0,0,1-2.71-1.24l-7-14.75a2.33,2.33,0,0,1,.61-2.78l7.56-6.33A1.87,1.87,0,0,1,56,17.72Z"/><path class="cls-3" d="M18.25,25l2.83,1.41a11.51,11.51,0,0,0,5.15,1.22h5.26a3,3,0,0,1,3,2.48l.38,2.07a1.93,1.93,0,0,0,.85,1.28l7.85,5.12a3,3,0,0,1,.87,4.23h0a3,3,0,0,1-2.91,1.33l-2.46-.31a4,4,0,0,0-2.83.69l-4.66,3.24a7.31,7.31,0,0,1-7.81.33L9.5,39.86"/><path class="cls-4" d="M8,18.51V39.28a2.24,2.24,0,0,0,1.63,2.15h0a2.17,2.17,0,0,0,2.53-1.15L19.23,25.4a2.33,2.33,0,0,0-.61-2.78l-7-5.82A2.24,2.24,0,0,0,8,18.51Z"/><path class="cls-1" d="M33.93,46.09l-2.08,1.43a1.69,1.69,0,0,1-1.54.2l-.71-.26a1.69,1.69,0,0,1-1.09-1.83h0a1.71,1.71,0,0,0-1-1.79l-.25-.11A3.41,3.41,0,0,0,23,45h0a2.5,2.5,0,0,0,1.09,3.63h0a18.14,18.14,0,0,0,15.66-.38l1.08-.55Z"/><path class="cls-1" d="M36,27.61h-.83a7.52,7.52,0,0,0-5.08,2l-2.87,2.59a1.06,1.06,0,0,0,.1,1.65l1.14.81A2.48,2.48,0,0,0,31,34.8l2-1a3.65,3.65,0,0,1,3.86.33l1,.75,1.87-2.5Z"/></svg>