<svg id="Layer_1" data-name="Layer 1" xmlns="http://www.w3.org/2000/svg" viewBox="0 0 64 64"><defs><style>.cls-1{fill:#dfe8f4;}.cls-2{fill:#dd1515;}.cls-3{fill:#ff5454;}.cls-4{fill:#ccd8e5;}.cls-5{fill:#fff;}</style></defs><title>startup, start up, business, search, find, magnifier, finance</title><path class="cls-1" d="M54.91,54.89a3.65,3.65,0,0,1-5.15,0l-11-11a3.65,3.65,0,1,1,5.15-5.16l11,11.05A3.63,3.63,0,0,1,54.91,54.89Z"/><path class="cls-2" d="M19.77,39.54a14.12,14.12,0,1,1,17.19,0A14.13,14.13,0,0,1,19.77,39.54Z"/><path class="cls-3" d="M21.41,37.41a11.43,11.43,0,1,1,13.92,0A11.44,11.44,0,0,1,21.41,37.41Z"/><path class="cls-1" d="M54.85,49.67,49.14,44a7.73,7.73,0,0,1-1.83-8.21A20.36,20.36,0,1,0,35.76,47.3,7.81,7.81,0,0,1,44,49.16l5.72,5.73a3.65,3.65,0,0,0,5.64-.59A3.71,3.71,0,0,0,54.85,49.67ZM19.77,39.54a14.12,14.12,0,1,1,17.19,0A14.13,14.13,0,0,1,19.77,39.54Z"/><path class="cls-4" d="M51.45,46.27l-5.16,5.15,3.47,3.47a3.64,3.64,0,0,0,5.15-5.15Z"/><rect class="cls-4" x="46.01" y="48.52" width="7.29" height="2.21" transform="translate(-20.55 49.65) rotate(-45)"/><path class="cls-5" d="M28.42,27.69h0a.78.78,0,0,1-.75-.51A.77.77,0,0,1,29,26.45a1.1,1.1,0,0,0,.88.47H30a1.1,1.1,0,0,0,.94-1.69,3.2,3.2,0,0,0-1.11-1,.55.55,0,0,1-.3-.49h0a1.15,1.15,0,0,0-1.15-1.15h0a1.14,1.14,0,0,0-1.15,1.15h0a.56.56,0,0,1-.3.49A3.07,3.07,0,0,0,28.32,30h.07a.77.77,0,0,1,.71,1,.74.74,0,0,1-.48.48.77.77,0,0,1-.87-.28,1,1,0,0,0-.82-.45H26.8a1.14,1.14,0,0,0-.91,1.81,3.08,3.08,0,0,0,1,.9.55.55,0,0,1,.3.49h0a1.14,1.14,0,0,0,1.15,1.15h0A1.15,1.15,0,0,0,29.52,34h0a.53.53,0,0,1,.3-.49,3.07,3.07,0,0,0-1.4-5.77Z"/></svg>