<svg id="Layer_1" data-name="Layer 1" xmlns="http://www.w3.org/2000/svg" viewBox="0 0 64 64"><defs><style>.cls-1{fill:#ff5454;}.cls-2{fill:#dd1515;}.cls-3{fill:#dfe8f4;}.cls-4{fill:#ccd8e5;}.cls-5{fill:#fff;}</style></defs><title>startup, start up, business, growth, money, finance</title><path class="cls-1" d="M46.67,26.09H40.92a8.92,8.92,0,0,0-8.65,6.74.28.28,0,0,1-.54,0,8.92,8.92,0,0,0-8.65-6.74H17.33A2.37,2.37,0,0,0,15,28.45v2.3a8.92,8.92,0,0,0,8.92,8.92H40.12A8.92,8.92,0,0,0,49,30.75v-2.3A2.37,2.37,0,0,0,46.67,26.09Z"/><path class="cls-2" d="M49,28.43a1.14,1.14,0,0,0-1.84-.88l-9.67,7.71a8.87,8.87,0,0,1-11.06,0l-9.65-7.69a1.14,1.14,0,0,0-1.86.88h0v2.3a8.92,8.92,0,0,0,8.92,8.92h3.26a2.55,2.55,0,0,1,2.55,2.55v9.7h4.62v-9.7a2.55,2.55,0,0,1,2.55-2.55h3.26A8.92,8.92,0,0,0,49,30.75V28.43Z"/><path class="cls-3" d="M43.41,49.05H20.59a2,2,0,0,1-2-2h0a2,2,0,0,1,2-2H43.41a2,2,0,0,1,2,2h0A2,2,0,0,1,43.41,49.05Z"/><path class="cls-4" d="M38.59,56H25.41a1.91,1.91,0,0,1-1.73-1.09l-2.83-5.86h22.3l-2.83,5.86A1.91,1.91,0,0,1,38.59,56Z"/><path class="cls-3" d="M26.23,25a9.47,9.47,0,1,1,11.54,0A9.49,9.49,0,0,1,26.23,25Z"/><path class="cls-4" d="M27.33,23.56a7.67,7.67,0,1,1,9.34,0A7.68,7.68,0,0,1,27.33,23.56Z"/><path class="cls-5" d="M32,16.92h0a.64.64,0,1,1,.48-1,.93.93,0,0,0,.73.38h.12a.9.9,0,0,0,.78-1.39,2.59,2.59,0,0,0-.93-.84.48.48,0,0,1-.25-.41h0a1,1,0,0,0-1-1h0a1,1,0,0,0-.95,1h0a.46.46,0,0,1-.25.4A2.55,2.55,0,0,0,32,18.83H32a.63.63,0,0,1,.58.84.59.59,0,0,1-.4.4.65.65,0,0,1-.72-.23.83.83,0,0,0-.67-.38H30.7A.94.94,0,0,0,30,21a2.43,2.43,0,0,0,.85.74.48.48,0,0,1,.25.41h0a1,1,0,0,0,.95,1h0a1,1,0,0,0,1-1h0a.48.48,0,0,1,.25-.41A2.54,2.54,0,0,0,32,16.92Z"/></svg>