<svg id="Layer_1" data-name="Layer 1" xmlns="http://www.w3.org/2000/svg" viewBox="0 0 64 64"><defs><style>.cls-1{fill:#dfe8f4;}.cls-2{fill:#ff5454;}.cls-3{fill:#dd1515;}.cls-4{fill:#fff;}</style></defs><title>startup, start up, business, time, deadline, hourglass</title><path class="cls-1" d="M46.5,52.67V49.29a13.39,13.39,0,0,0-3.63-9.19A11.88,11.88,0,0,1,39.58,32H24.42a11.88,11.88,0,0,1-3.29,8.1,13.39,13.39,0,0,0-3.63,9.19v3.38Z"/><rect class="cls-2" x="14.72" y="49.34" width="34.56" height="6.66" rx="2.5" transform="translate(64 105.34) rotate(180)"/><path class="cls-2" d="M17.5,11.33v3.38a13.39,13.39,0,0,0,3.63,9.19A11.88,11.88,0,0,1,24.42,32H39.58a11.88,11.88,0,0,1,3.29-8.1,13.39,13.39,0,0,0,3.63-9.19V11.33Z"/><rect class="cls-3" x="14.72" y="8" width="34.56" height="6.66" rx="2.5"/><path class="cls-4" d="M32,21.92h0a.64.64,0,1,1,.48-1,.93.93,0,0,0,.73.38h.12a.9.9,0,0,0,.78-1.39,2.59,2.59,0,0,0-.93-.84.48.48,0,0,1-.25-.41h0a1,1,0,0,0-1-1h0a1,1,0,0,0-.95,1h0a.46.46,0,0,1-.25.4A2.55,2.55,0,0,0,32,23.83H32a.63.63,0,0,1,.58.84.59.59,0,0,1-.4.4.65.65,0,0,1-.72-.23.83.83,0,0,0-.67-.38H30.7A.94.94,0,0,0,30,26a2.43,2.43,0,0,0,.85.74.48.48,0,0,1,.25.41h0a1,1,0,0,0,.95,1h0a1,1,0,0,0,1-1h0a.48.48,0,0,1,.25-.41A2.54,2.54,0,0,0,32,21.92Z"/></svg>