<svg id="Layer_1" data-name="Layer 1" xmlns="http://www.w3.org/2000/svg" viewBox="0 0 64 64"><defs><style>.cls-1{fill:#dfe8f4;}.cls-2{fill:#ff5454;}.cls-3{fill:#ccd8e5;}.cls-4{fill:#dd1515;}</style></defs><title>startup, start up, business, search, find, client, customer</title><path class="cls-1" d="M54.91,54.89a3.65,3.65,0,0,1-5.15,0l-11-11a3.65,3.65,0,1,1,5.15-5.16l11,11.05A3.63,3.63,0,0,1,54.91,54.89Z"/><path class="cls-2" d="M19.77,39.54a14.12,14.12,0,1,1,17.19,0A14.13,14.13,0,0,1,19.77,39.54Z"/><path class="cls-2" d="M21.41,37.41a11.43,11.43,0,1,1,13.92,0A11.44,11.44,0,0,1,21.41,37.41Z"/><path class="cls-1" d="M54.85,49.67,49.14,44a7.73,7.73,0,0,1-1.83-8.21A20.36,20.36,0,1,0,35.76,47.3,7.81,7.81,0,0,1,44,49.16l5.72,5.73a3.65,3.65,0,0,0,5.64-.59A3.71,3.71,0,0,0,54.85,49.67ZM19.77,39.54a14.12,14.12,0,1,1,17.19,0A14.13,14.13,0,0,1,19.77,39.54Z"/><path class="cls-3" d="M51.45,46.27l-5.16,5.15,3.47,3.47a3.64,3.64,0,0,0,5.15-5.15Z"/><rect class="cls-3" x="46.01" y="48.52" width="7.29" height="2.21" transform="translate(-20.55 49.64) rotate(-45)"/><path class="cls-4" d="M32.79,26.51v-2a4.42,4.42,0,0,0-2.21-3.83h0a4.42,4.42,0,0,0-4.42,0h0A4.42,4.42,0,0,0,24,24.53v2a3.87,3.87,0,0,0,1.94,3.35h0a4.94,4.94,0,0,0,5,0h0A3.87,3.87,0,0,0,32.79,26.51Z"/><path class="cls-4" d="M28.37,31.8a9.63,9.63,0,0,0-8.17,4.53,11.36,11.36,0,0,0,1.21,1.08,11.07,11.07,0,0,0,4.17,2h.06c.24.06.48.11.73.15l.46.07.49.06c.35,0,.7.05,1.05.05h0c.36,0,.7,0,1-.05l.5-.06.46-.07.72-.15h.06a11.19,11.19,0,0,0,4.18-2,10.36,10.36,0,0,0,1.2-1.08A9.61,9.61,0,0,0,28.37,31.8Z"/></svg>