<svg id="Layer_1" data-name="Layer 1" xmlns="http://www.w3.org/2000/svg" viewBox="0 0 64 64"><defs><style>.cls-1{fill:#F4DFDF;}.cls-2{fill:#e5cccc;}.cls-3{fill:#DD1515;}.cls-4{fill:#FC0707;}.cls-5{fill:#fff;}</style></defs><title>startup, start up, business, investors, thought, idea, finance, invest</title><path class="cls-1" d="M21.77,11.35v-1a2.22,2.22,0,0,0-1.11-1.93h0a2.27,2.27,0,0,0-2.23,0h0a2.22,2.22,0,0,0-1.11,1.93v1a2,2,0,0,0,1,1.69h0a2.53,2.53,0,0,0,2.5,0h0A2,2,0,0,0,21.77,11.35Z"/><path class="cls-2" d="M22.81,20.45H16.28a1.6,1.6,0,0,1-1.6-1.6h0A4.87,4.87,0,0,1,19.55,14h0a4.87,4.87,0,0,1,4.86,4.87h0A1.6,1.6,0,0,1,22.81,20.45Z"/><path class="cls-1" d="M34.23,11.35v-1a2.23,2.23,0,0,0-1.12-1.93h0a2.25,2.25,0,0,0-2.22,0h0a2.23,2.23,0,0,0-1.12,1.93v1a2,2,0,0,0,1,1.69h0a2.53,2.53,0,0,0,2.5,0h0A2,2,0,0,0,34.23,11.35Z"/><path class="cls-2" d="M35.26,20.45H28.74a1.61,1.61,0,0,1-1.61-1.6h0A4.87,4.87,0,0,1,32,14h0a4.87,4.87,0,0,1,4.87,4.87h0A1.61,1.61,0,0,1,35.26,20.45Z"/><path class="cls-1" d="M46.68,11.35v-1a2.22,2.22,0,0,0-1.11-1.93h0a2.27,2.27,0,0,0-2.23,0h0a2.22,2.22,0,0,0-1.11,1.93v1a2,2,0,0,0,1,1.69h0a2.53,2.53,0,0,0,2.5,0h0A2,2,0,0,0,46.68,11.35Z"/><path class="cls-2" d="M47.72,20.45H41.19a1.6,1.6,0,0,1-1.6-1.6h0A4.87,4.87,0,0,1,44.45,14h0a4.87,4.87,0,0,1,4.87,4.87h0A1.6,1.6,0,0,1,47.72,20.45Z"/><path class="cls-1" d="M44.6,23.83h-25a1,1,0,0,1-1-1V21.66h2v.17H43.6v-.17h2v1.17A1,1,0,0,1,44.6,23.83Z"/><rect class="cls-1" x="31" y="23" width="2" height="2.13"/><path class="cls-1" d="M30.43,24.68l1.39,2.1a.21.21,0,0,0,.36,0l1.39-2.1a.21.21,0,0,0-.18-.33H30.61A.21.21,0,0,0,30.43,24.68Z"/><path class="cls-3" d="M34.28,53.72A2.28,2.28,0,1,1,32,51.45,2.28,2.28,0,0,1,34.28,53.72Z"/><path class="cls-4" d="M43.09,39.16A11.09,11.09,0,1,0,25,47.72a6.35,6.35,0,0,1,2.35,4.94v.69a1.59,1.59,0,0,0,1.59,1.59h6.2a1.59,1.59,0,0,0,1.59-1.59v-.69A6.36,6.36,0,0,1,39,47.73,11,11,0,0,0,43.09,39.16Z"/><path class="cls-3" d="M27.27,52a5.17,5.17,0,0,1,0,.68v.69a1.59,1.59,0,0,0,1.59,1.59h6.2a1.59,1.59,0,0,0,1.59-1.59v-.69a5.17,5.17,0,0,1,0-.68Z"/><path class="cls-5" d="M32,38.86h0a.64.64,0,0,1-.62-.43.63.63,0,0,1,.6-.84.62.62,0,0,1,.5.24.92.92,0,0,0,.73.39h.12a.9.9,0,0,0,.78-1.39A2.62,2.62,0,0,0,33.2,36a.46.46,0,0,1-.25-.41h0a1,1,0,0,0-1-1h0a1,1,0,0,0-.95,1h0a.47.47,0,0,1-.25.41A2.54,2.54,0,0,0,32,40.76H32a.63.63,0,0,1,.58.84.61.61,0,0,1-.4.4.65.65,0,0,1-.72-.24.84.84,0,0,0-.67-.37H30.7A.94.94,0,0,0,30,42.9a2.43,2.43,0,0,0,.85.74.47.47,0,0,1,.25.41h0A1,1,0,0,0,32,45h0a1,1,0,0,0,1-1h0a.47.47,0,0,1,.25-.41A2.54,2.54,0,0,0,32,38.86Z"/></svg>