<svg id="Layer_1" data-name="Layer 1" xmlns="http://www.w3.org/2000/svg" viewBox="0 0 64 64"><defs><style>.cls-1{fill:#dd1515;}.cls-2{fill:#ff5454;}.cls-3{fill:#dfe8f4;}.cls-4{fill:#fff;}</style></defs><title>startup, start up, business, target, bullseye</title><rect class="cls-1" x="16.5" y="51.12" width="31" height="1.35"/><path class="cls-2" d="M16.13,56H14.78a1.13,1.13,0,0,1-1.06-1.51l3-8.25H20.5l-3.31,9A1.13,1.13,0,0,1,16.13,56Z"/><path class="cls-1" d="M14.74,51.73a28.52,28.52,0,0,0,3,2.12l2.79-7.61H16.75Z"/><path class="cls-2" d="M47.87,56h1.35a1.13,1.13,0,0,0,1.06-1.51l-3-8.25H43.5l3.31,9A1.13,1.13,0,0,0,47.87,56Z"/><path class="cls-1" d="M47.25,46.24H43.5l2.79,7.61a28.52,28.52,0,0,0,3-2.12Z"/><circle class="cls-3" cx="32" cy="30.68" r="22.68" transform="translate(-6.64 52.42) rotate(-73.15)"/><circle class="cls-2" cx="32" cy="30.68" r="18.15" transform="translate(-3.41 57.35) rotate(-80.78)"/><circle class="cls-3" cx="32" cy="30.68" r="12.63"/><circle class="cls-2" cx="32" cy="30.68" r="9.79" transform="matrix(0.16, -0.99, 0.99, 0.16, -3.41, 57.35)"/><path class="cls-4" d="M36.22,30.68A4.22,4.22,0,1,1,32,26.46,4.22,4.22,0,0,1,36.22,30.68Z"/><path class="cls-3" d="M36.13,31.56a4.31,4.31,0,0,0,.09-.88A4.18,4.18,0,0,0,35,27.77l-3,3.79Z"/><path class="cls-1" d="M50.53,13.43,32.67,31.29a.89.89,0,0,1-1.28,0h0a.91.91,0,0,1,0-1.28L49.25,12.15Z"/><path class="cls-2" d="M48.59,9.8,45.1,13.29a.55.55,0,0,0-.14.52l.75,2.78a.52.52,0,0,0,.38.38l2.78.75a.52.52,0,0,0,.52-.14l3.49-3.49a.54.54,0,0,0-.24-.9l-2.19-.58a.56.56,0,0,1-.38-.38L49.49,10A.54.54,0,0,0,48.59,9.8Z"/><path class="cls-2" d="M50.23,8.16l-3.49,3.49a.53.53,0,0,0-.13.51L47.35,15a.54.54,0,0,0,.38.38l2.79.75a.56.56,0,0,0,.52-.14l3.48-3.49a.54.54,0,0,0-.24-.9L52.1,11a.54.54,0,0,1-.38-.38L51.13,8.4A.54.54,0,0,0,50.23,8.16Z"/></svg>