<svg id="Layer_1" data-name="Layer 1" xmlns="http://www.w3.org/2000/svg" viewBox="0 0 64 64"><defs><style>.cls-1{fill:#F4DFDF;}.cls-2{fill:#e5cccc;}.cls-3{fill:#FC0707;}.cls-4{fill:#DD1515;}</style></defs><title>startup, start up, business, finance, money, cash</title><path class="cls-1" d="M22.5,18.7h2.91v8.85a1.65,1.65,0,0,0,1.65,1.65h9.88a1.65,1.65,0,0,0,1.65-1.65V18.7H41.5a.6.6,0,0,0,.43-1l-9.51-9.5a.58.58,0,0,0-.84,0l-9.51,9.5A.6.6,0,0,0,22.5,18.7Z"/><path class="cls-2" d="M25.41,24.5v3.05a1.65,1.65,0,0,0,1.65,1.65h9.88a1.65,1.65,0,0,0,1.65-1.65V24.5Z"/><path class="cls-1" d="M9.57,22.58h1.84v5.58a1,1,0,0,0,1,1h6.23a1,1,0,0,0,1-1V22.58h1.84a.37.37,0,0,0,.26-.64l-6-6a.39.39,0,0,0-.53,0l-6,6A.38.38,0,0,0,9.57,22.58Z"/><path class="cls-2" d="M11.41,24.5v3.66a1,1,0,0,0,1,1h6.23a1,1,0,0,0,1-1V24.5Z"/><path class="cls-1" d="M42.44,22.58h1.84v5.58a1,1,0,0,0,1,1h6.23a1,1,0,0,0,1-1V22.58h1.84a.38.38,0,0,0,.27-.64l-6-6a.39.39,0,0,0-.53,0l-6,6A.37.37,0,0,0,42.44,22.58Z"/><path class="cls-2" d="M44.28,24.5v3.66a1,1,0,0,0,1,1h6.23a1,1,0,0,0,1-1V24.5Z"/><rect class="cls-3" x="7.94" y="26.77" width="48.11" height="29.23" rx="3.19"/><circle class="cls-4" cx="32" cy="41.38" r="8.58" transform="translate(-13.97 66.34) rotate(-80.78)"/><path class="cls-4" d="M15.6,50a1.68,1.68,0,1,1-1.68-1.67A1.68,1.68,0,0,1,15.6,50Z"/><circle class="cls-4" cx="50.08" cy="32.77" r="1.67"/></svg>