<svg id="Layer_1" data-name="Layer 1" xmlns="http://www.w3.org/2000/svg" viewBox="0 0 64 64"><defs><style>.cls-1{fill:#dfe8f4;}.cls-2{fill:#fff;}.cls-3{fill:#dd1515;}.cls-4{fill:#ccd8e5;}.cls-5{fill:#ff5454;}</style></defs><title>startup, start up, business, launch, rocket, laptop, application</title><path class="cls-1" d="M15.21,24H48.79a3,3,0,0,1,3,3V50.67a0,0,0,0,1,0,0H12.17a0,0,0,0,1,0,0V27A3,3,0,0,1,15.21,24Z"/><rect class="cls-2" x="24.05" y="43.24" width="15.9" height="10.3"/><path class="cls-2" d="M26.18,46a5.81,5.81,0,0,0-5.81,5.81H32A5.81,5.81,0,0,0,26.18,46Z"/><path class="cls-2" d="M20.37,49.3a1.81,1.81,0,0,0-1.8,1.8h3.6A1.81,1.81,0,0,0,20.37,49.3Z"/><path class="cls-2" d="M16.4,47.5a3.6,3.6,0,0,0-3.6,3.6H20A3.6,3.6,0,0,0,16.4,47.5Z"/><path class="cls-2" d="M20.83,45.44a1.23,1.23,0,1,1-1.23-1.23A1.23,1.23,0,0,1,20.83,45.44Z"/><path class="cls-2" d="M20.62,47.94a.27.27,0,1,1-.27-.27A.27.27,0,0,1,20.62,47.94Z"/><path class="cls-2" d="M17.71,46.19a.49.49,0,0,1-.48.48.48.48,0,0,1-.48-.48.47.47,0,0,1,.48-.48A.48.48,0,0,1,17.71,46.19Z"/><path class="cls-2" d="M37.82,46a5.81,5.81,0,0,1,5.81,5.81H32A5.81,5.81,0,0,1,37.82,46Z"/><path class="cls-2" d="M43.63,49.3a1.81,1.81,0,0,1,1.8,1.8h-3.6A1.81,1.81,0,0,1,43.63,49.3Z"/><path class="cls-2" d="M47.6,47.5a3.6,3.6,0,0,1,3.6,3.6H44A3.6,3.6,0,0,1,47.6,47.5Z"/><path class="cls-2" d="M43.17,45.44a1.23,1.23,0,1,0,1.23-1.23A1.23,1.23,0,0,0,43.17,45.44Z"/><path class="cls-2" d="M43.38,47.94a.27.27,0,1,0,.27-.27A.27.27,0,0,0,43.38,47.94Z"/><path class="cls-2" d="M46.29,46.19a.49.49,0,0,0,.48.48.48.48,0,0,0,.48-.48.47.47,0,0,0-.48-.48A.48.48,0,0,0,46.29,46.19Z"/><path class="cls-3" d="M43,39,32,31.07,21,39a2.19,2.19,0,0,0-.91,1.78v2a.49.49,0,0,0,.49.49H43.43a.49.49,0,0,0,.49-.49v-2A2.19,2.19,0,0,0,43,39Z"/><path class="cls-4" d="M54.87,50.67H39.72a2.3,2.3,0,0,0-1.95,1.07,2.3,2.3,0,0,1-2,1.07H28.18a2.3,2.3,0,0,1-1.95-1.07,2.3,2.3,0,0,0-1.95-1.07H9.13A1.13,1.13,0,0,0,8,51.8v.65C8,55,10,56,12.55,56h38.9C54,56,56,55,56,52.45V51.8A1.13,1.13,0,0,0,54.87,50.67Z"/><path class="cls-5" d="M31.19,8.32,29,10.39a15.52,15.52,0,0,0-4.92,11.33V43.24H40V21.72A15.52,15.52,0,0,0,35,10.39L32.81,8.32A1.18,1.18,0,0,0,31.19,8.32Z"/><path class="cls-3" d="M32.59,44H31.41a.72.72,0,0,1-.72-.72V38.62A1.31,1.31,0,0,1,32,37.31h0a1.31,1.31,0,0,1,1.31,1.31v4.66A.72.72,0,0,1,32.59,44Z"/><path class="cls-2" d="M34.38,22.86a3.36,3.36,0,1,1-4.76,0A3.36,3.36,0,0,1,34.38,22.86Z"/><path class="cls-2" d="M32,21.88a3.36,3.36,0,1,1-3.36,3.35A3.35,3.35,0,0,1,32,21.88m0-1a4.36,4.36,0,1,0,4.36,4.35A4.36,4.36,0,0,0,32,20.88Z"/><path class="cls-1" d="M35.32,25.52a2.62,2.62,0,0,0,0-.56l-3.61,3.61a5.42,5.42,0,0,0,.57,0Z"/><path class="cls-1" d="M33,28.42a3.25,3.25,0,0,0,1.38-.81,3.36,3.36,0,0,0,.81-1.38Z"/><path class="cls-1" d="M35,23.66a3.35,3.35,0,0,0-.57-.8l-4.76,4.75a3.76,3.76,0,0,0,.81.58Z"/></svg>