<svg id="Layer_1" data-name="Layer 1" xmlns="http://www.w3.org/2000/svg" viewBox="0 0 64 64"><defs><style>.cls-1{fill:#DD1515;}.cls-2{fill:#F4DFDF;}.cls-3{fill:#FC0707;}.cls-4{fill:#e5cccc;}.cls-5{fill:#fff;}</style></defs><title>startup, start up, business, presentation, projection, proposal</title><polygon class="cls-1" points="42.13 56 44.38 56 39.5 33 37.25 33 39.69 44.5 24.31 44.5 26.75 33 24.5 33 19.63 56 21.88 56 24.05 45.75 39.95 45.75 42.13 56"/><path class="cls-1" d="M30.53,8h2.94A1.56,1.56,0,0,1,35,9.56v.2a0,0,0,0,1,0,0H29a0,0,0,0,1,0,0v-.2A1.56,1.56,0,0,1,30.53,8Z"/><path class="cls-2" d="M9.4,13.38H54.6a0,0,0,0,1,0,0V35.5a1.69,1.69,0,0,1-1.69,1.69H11.08A1.69,1.69,0,0,1,9.4,35.5V13.38A0,0,0,0,1,9.4,13.38Z"/><rect class="cls-3" x="8" y="9.25" width="48" height="4.13" rx="1.51"/><rect class="cls-4" x="9.4" y="13.38" width="45.21" height="1.26"/><path class="cls-3" d="M23,26.61V25.29a3,3,0,0,0-1.48-2.56h0a3,3,0,0,0-3,0h0A3,3,0,0,0,17,25.29v1.32a2.61,2.61,0,0,0,1.3,2.25h0a3.33,3.33,0,0,0,3.32,0h0A2.61,2.61,0,0,0,23,26.61Z"/><path class="cls-3" d="M26.46,38.71H13.54V36.58A6.47,6.47,0,0,1,20,30.11h0a6.47,6.47,0,0,1,6.46,6.47Z"/><rect class="cls-1" x="8" y="38.71" width="24" height="3.25" rx="1.15"/><rect class="cls-1" x="9.35" y="41.96" width="21.29" height="14.04"/><path class="cls-5" d="M43.21,19.3l1.19,1.18-2.58,2.58a.48.48,0,0,1-.68,0l0,0h0L39.19,21.1l-.06-.05-.32-.32a2,2,0,0,0-2.87,0L33.65,23h0l-2.14,2.13a2.73,2.73,0,0,0-.28,3.63,2.62,2.62,0,0,0,3.9.2L37,27.13a.53.53,0,0,1,.75,0l1.94,1.95a2.52,2.52,0,0,0,3.56,0l2-1.95h0l2.92-2.92,1.18,1.18V19.3Z"/></svg>