<svg id="Layer_1" data-name="Layer 1" xmlns="http://www.w3.org/2000/svg" viewBox="0 0 64 64"><defs><style>.cls-1{fill:#e5cccc;}.cls-2{fill:#F4DFDF;}.cls-3{fill:#DD1515;}.cls-4{fill:#FC0707;}.cls-5{fill:#fff;}</style></defs><title>startup, start up, business, thought, idea, gear, process</title><path class="cls-1" d="M47.33,24.17a18.4,18.4,0,0,0-36.67,2.24v0A11.38,11.38,0,0,1,9.1,32.36L7.32,35.3a2.16,2.16,0,0,0,.62,2.91l1.26.86A1.91,1.91,0,0,1,10,40.21l1.55,6.92a3.92,3.92,0,0,0,3.42,3l3.72.39a2,2,0,0,1,1.79,2V56h24.7l-1.9-13.12a9.71,9.71,0,0,1,1.33-6.6A18.24,18.24,0,0,0,47.33,24.17Z"/><circle class="cls-2" cx="29.06" cy="26.41" r="18.41"/><path class="cls-3" d="M46.74,23.09v-.31a4.09,4.09,0,0,1,1.35-3.19h0a1.86,1.86,0,0,0,.36-2.31l-2-3.48A1.85,1.85,0,0,0,44.27,13L44,13a3.65,3.65,0,0,1-3.08-.43c-.25-.15-.49-.29-.75-.42a3.73,3.73,0,0,1-1.93-2.47l0-.12A1.9,1.9,0,0,0,36.39,8h-4a1.86,1.86,0,0,0-1.82,1.47l0,.25a3.7,3.7,0,0,1-1.93,2.47c-.25.13-.5.27-.74.42a3.68,3.68,0,0,1-3.09.43l-.12,0a1.9,1.9,0,0,0-2.3.79l-2,3.48a1.86,1.86,0,0,0,.36,2.31h0A4.09,4.09,0,0,1,22,22.78v.61a4.11,4.11,0,0,1-1.35,3.19h0a1.86,1.86,0,0,0-.36,2.31l2,3.48a1.85,1.85,0,0,0,2.17.83l.24-.07a3.67,3.67,0,0,1,3.09.43c.24.15.49.29.74.42a3.71,3.71,0,0,1,1.94,2.48l0,.2a1.88,1.88,0,0,0,1.83,1.51h4a1.85,1.85,0,0,0,1.82-1.47l0-.25A3.69,3.69,0,0,1,40.19,34l.75-.43A3.68,3.68,0,0,1,44,33.13l.11,0a1.9,1.9,0,0,0,2.3-.79l2-3.48a1.86,1.86,0,0,0-.36-2.31h0a4.11,4.11,0,0,1-1.35-3.19Z"/><path class="cls-4" d="M53.37,28.64l-.16-.15a3,3,0,0,1-.93-2.32h0a1.34,1.34,0,0,0-1-1.36l-2.8-.75a1.35,1.35,0,0,0-1.54.68l-.09.17a2.63,2.63,0,0,1-1.79,1.35c-.2,0-.4.1-.6.17a2.68,2.68,0,0,1-2.24-.28l-.07,0a1.38,1.38,0,0,0-1.76.13l-2,2.05A1.33,1.33,0,0,0,38.18,30l.1.16a2.67,2.67,0,0,1,.27,2.24c-.06.2-.11.39-.16.59A2.66,2.66,0,0,1,37,34.74l-.07,0a1.36,1.36,0,0,0-.77,1.58l.75,2.8a1.34,1.34,0,0,0,1.36,1h0a3,3,0,0,1,2.31.94l.16.16.16.15a3,3,0,0,1,.94,2.32h0a1.33,1.33,0,0,0,1,1.36l2.79.75a1.35,1.35,0,0,0,1.54-.68l.08-.17a2.67,2.67,0,0,1,1.8-1.35l.59-.16a2.68,2.68,0,0,1,2.26.27l.12.08a1.34,1.34,0,0,0,1.7-.16l2-2A1.34,1.34,0,0,0,56,39.94l-.1-.15a2.66,2.66,0,0,1-.28-2.25,5.69,5.69,0,0,0,.16-.59,2.69,2.69,0,0,1,1.36-1.8l.08,0A1.36,1.36,0,0,0,58,33.53l-.74-2.8a1.36,1.36,0,0,0-1.37-1h0a3,3,0,0,1-2.31-.94Z"/><path class="cls-5" d="M49.32,32.7a3.17,3.17,0,1,1-4.49,0A3.19,3.19,0,0,1,49.32,32.7Z"/><path class="cls-5" d="M34.43,21.94h0a.78.78,0,0,1-.75-.51A.77.77,0,0,1,35,20.7a1.13,1.13,0,0,0,.88.47H36A1.1,1.1,0,0,0,37,19.48a3.2,3.2,0,0,0-1.11-1,.53.53,0,0,1-.3-.49h0a1.15,1.15,0,0,0-1.15-1.15h0A1.15,1.15,0,0,0,33.23,18h0a.55.55,0,0,1-.29.49,3.07,3.07,0,0,0,1.4,5.77h.07a.76.76,0,0,1,.7,1,.72.72,0,0,1-.48.48.78.78,0,0,1-.87-.28A1,1,0,0,0,33,25h-.14a1.13,1.13,0,0,0-.9,1.81,3.08,3.08,0,0,0,1,.9.54.54,0,0,1,.29.49h0a1.15,1.15,0,0,0,1.16,1.15h0a1.15,1.15,0,0,0,1.15-1.15h0a.54.54,0,0,1,.29-.49,3.07,3.07,0,0,0-1.4-5.77Z"/></svg>