<svg id="Layer_1" data-name="Layer 1" xmlns="http://www.w3.org/2000/svg" viewBox="0 0 64 64"><defs><style>.cls-1{fill:#F4DFDF;}.cls-2{fill:#e5cccc;}.cls-3{fill:#DD1515;}.cls-4{fill:#fff;}.cls-5{fill:#FC0707;}</style></defs><title>startup, start up, business, vision, view, lightbulb, innovation</title><path class="cls-1" d="M40.35,14.61h7.49a1.55,1.55,0,0,1,1.55,1.55v7.49A25.73,25.73,0,0,1,23.65,49.39H16.16a1.55,1.55,0,0,1-1.55-1.55V40.35A25.73,25.73,0,0,1,40.35,14.61Z" transform="translate(32 -13.25) rotate(45)"/><path class="cls-2" d="M31.93,45.93h.14a7.3,7.3,0,0,0,7.18-7.34v-7.9H24.75v7.9A7.3,7.3,0,0,0,31.93,45.93Z"/><path class="cls-3" d="M33.49,39.64A1.49,1.49,0,1,1,32,38.15,1.49,1.49,0,0,1,33.49,39.64Z"/><path class="cls-4" d="M39.25,30.12a7.25,7.25,0,1,0-11.93,5.52,4.38,4.38,0,0,1,1.62,3.3V39a1.43,1.43,0,0,0,1.43,1.43h3.26A1.43,1.43,0,0,0,35.06,39h0a4.14,4.14,0,0,1,1.48-3.24A7.21,7.21,0,0,0,39.25,30.12Z"/><path class="cls-5" d="M28.91,38.5a3.37,3.37,0,0,1,0,.44v.45a1,1,0,0,0,1,1H34a1,1,0,0,0,1-1v-.45a3.37,3.37,0,0,1,0-.44Z"/></svg>