<svg id="Layer_1" data-name="Layer 1" xmlns="http://www.w3.org/2000/svg" viewBox="0 0 64 64"><defs><style>.cls-1{fill:#dfe8f4;}.cls-2{fill:#ccd8e5;}.cls-3{fill:#ff5454;}.cls-4{fill:#dd1515;}.cls-5{fill:#fff;}</style></defs><title>startup, start up, business, tea, coffee, break</title><circle class="cls-1" cx="32" cy="32" r="24"/><path class="cls-2" d="M45.77,22.14l-1.46-1.45L17.07,46.93l4.73,4.73A14.5,14.5,0,0,0,31.93,56H32c.41,0,.82,0,1.22,0C50.17,55.12,57.77,34.14,45.77,22.14Z"/><path class="cls-3" d="M45.63,16.54c0,1.34-.81,2.42-1.82,2.42S42,17.88,42,16.54s.81-2.41,1.81-2.41S45.63,15.21,45.63,16.54Z"/><path class="cls-4" d="M43.59,18.93l.22,0a1.6,1.6,0,0,0,.23,0V14.16a.85.85,0,0,0-.23,0,.83.83,0,0,0-.22,0Z"/><path class="cls-3" d="M47.19,21.75a2.19,2.19,0,0,1-3,.25,2.18,2.18,0,0,1,.6-3,2.19,2.19,0,0,1,3-.26A2.19,2.19,0,0,1,47.19,21.75Z"/><path class="cls-4" d="M44.05,21.81a1.27,1.27,0,0,0,.13.19.84.84,0,0,0,.18.15L47.91,19a1.32,1.32,0,0,0-.12-.2l-.18-.15Z"/><path class="cls-5" d="M29.84,15.45A16.68,16.68,0,0,0,18.3,41.52a1.86,1.86,0,0,1-.19,2.39l-1,1a1.41,1.41,0,1,0,2,2l1-1a1.86,1.86,0,0,1,2.39-.19,16.69,16.69,0,1,0,7.36-30.25Z"/><circle class="cls-5" cx="32" cy="32" r="16.69"/><circle class="cls-4" cx="32" cy="32" r="12.61"/><circle class="cls-3" cx="32" cy="32" r="10.35"/><path class="cls-5" d="M32,39.12A7.12,7.12,0,0,1,24.88,32h1A6.12,6.12,0,0,0,32,38.12Z"/><path class="cls-5" d="M32.5,25.9H32a.5.5,0,0,1-.5-.5.5.5,0,0,1,.5-.5,4.87,4.87,0,0,1,.54,0,.5.5,0,0,1,.46.53A.51.51,0,0,1,32.5,25.9Z"/><path class="cls-5" d="M37,28.13A.48.48,0,0,1,36.6,28,5.92,5.92,0,0,0,36,27.4a.51.51,0,0,1,0-.71.51.51,0,0,1,.71,0,6.65,6.65,0,0,1,.65.65.49.49,0,0,1-.05.7A.51.51,0,0,1,37,28.13Z"/><path class="cls-5" d="M38.62,32.5a.5.5,0,0,1-.5-.5c0-.16,0-.31,0-.46a.5.5,0,1,1,1-.08,4.87,4.87,0,0,1,0,.54A.5.5,0,0,1,38.62,32.5Z"/><path class="cls-5" d="M22.71,43.28l-3.65,3.65a1.41,1.41,0,0,1-2,0h0a1.41,1.41,0,0,1,0-2l3.65-3.65Z"/><path class="cls-2" d="M28.25,25a1,1,0,0,1-1-1,1.05,1.05,0,0,1,.29-.71,1,1,0,0,1,.33-.21,1,1,0,0,1,1.09.21,1.05,1.05,0,0,1,.29.71,1,1,0,0,1-1,1Z"/><path class="cls-2" d="M28.25,27.94a1,1,0,0,1-.71-.3,1,1,0,0,1-.29-.7A1,1,0,0,1,28.63,26a1.19,1.19,0,0,1,.33.22,1.05,1.05,0,0,1,.29.71,1,1,0,0,1-.29.7A1,1,0,0,1,28.25,27.94Z"/><path class="cls-2" d="M28.25,22.06a1,1,0,0,1-1-1,1.87,1.87,0,0,0-1.87-1.87,3.88,3.88,0,0,1-3.88-3.88V9a1,1,0,0,1,2,0v6.31a1.88,1.88,0,0,0,1.88,1.88,3.88,3.88,0,0,1,3.87,3.87A1,1,0,0,1,28.25,22.06Z"/><path class="cls-2" d="M18.27,15.59a1.09,1.09,0,0,1-.39-.08.87.87,0,0,1-.32-.22,1,1,0,0,1-.29-.71,1,1,0,0,1,.29-.7.87.87,0,0,1,.32-.22,1,1,0,0,1,1.09.22.87.87,0,0,1,.22.32A1,1,0,0,1,19,15.29,1,1,0,0,1,18.27,15.59Z"/><path class="cls-2" d="M18.27,12.21a1,1,0,0,1-.39-.07.87.87,0,0,1-.32-.22,1,1,0,0,1-.29-.71,1,1,0,0,1,.29-.7.83.83,0,0,1,.33-.22,1,1,0,0,1,.76,0,.87.87,0,0,1,.32.22,1,1,0,0,1,.3.7,1,1,0,0,1-.3.71A1,1,0,0,1,18.27,12.21Z"/><path class="cls-2" d="M24.87,29.79a1,1,0,0,1-1-1V24.55a2.31,2.31,0,0,0-2.3-2.3A4.3,4.3,0,0,1,17.27,18a1,1,0,0,1,2,0,2.3,2.3,0,0,0,2.3,2.29,4.31,4.31,0,0,1,4.3,4.3v4.24A1,1,0,0,1,24.87,29.79Z"/></svg>