<svg id="Layer_1" data-name="Layer 1" xmlns="http://www.w3.org/2000/svg" viewBox="0 0 64 64"><defs><style>.cls-1{fill:#ff5454;}.cls-2{fill:#dd1515;}.cls-3{fill:#fff;}</style></defs><title>startup, start up, business, chess, strategy, horse</title><path class="cls-1" d="M22.22,13.56l-7.83,12.6a1.55,1.55,0,0,0,.2,1.87l1.59,1.65a4,4,0,0,0,4.54.83l1.44-.68a6.49,6.49,0,0,1,3-.6c.94.05,2.31.1,4.09.1L21.1,43.61a6.28,6.28,0,0,0,.55,7H47S58.19,11.32,30.06,9.21a2.2,2.2,0,0,1-.36,0L22.87,8a1.17,1.17,0,0,0-1.33,1.47l.84,3A1.42,1.42,0,0,1,22.22,13.56Z"/><path class="cls-2" d="M31,33.16a8,8,0,0,0,5.65-4.6.38.38,0,0,0-.56-.46c-2.3,1.36-6.76,1.23-6.76,1.23l-4.62,8.06C25.53,36.26,25.6,34.53,31,33.16Z"/><path class="cls-2" d="M21.65,50.65l-1.83,1.21a2.46,2.46,0,0,0-1.09,2v1.59a.5.5,0,0,0,.5.51h30.1a.5.5,0,0,0,.5-.51V53.9a2.46,2.46,0,0,0-1.09-2l-1.83-1.21Z"/><path class="cls-3" d="M25,19.24a.88.88,0,1,1-.88-.88A.88.88,0,0,1,25,19.24Z"/></svg>