<svg id="Layer_1" data-name="Layer 1" xmlns="http://www.w3.org/2000/svg" viewBox="0 0 64 64"><defs><style>.cls-1{fill:#ff5454;}.cls-2{fill:#dd1515;}.cls-3{fill:#fff;}.cls-4{fill:#ccd8e5;}.cls-5{fill:#dfe8f4;}</style></defs><title>startup, start up, business, piggy, bank, savings</title><path class="cls-1" d="M13.12,32.83a5.13,5.13,0,0,1,0-10.25,1,1,0,0,1,0,2,3.13,3.13,0,1,0,3.13,3.13,1,1,0,0,1,2,0A5.13,5.13,0,0,1,13.12,32.83Z"/><path class="cls-2" d="M39.94,43.86h2.85A3.26,3.26,0,0,1,46,47.12V56a0,0,0,0,1,0,0H38.87a0,0,0,0,1,0,0V44.93A1.07,1.07,0,0,1,39.94,43.86Z" transform="translate(84.92 99.86) rotate(180)"/><path class="cls-2" d="M17.52,43.86H24.7a0,0,0,0,1,0,0v8.88A3.26,3.26,0,0,1,21.43,56H18.59a1.07,1.07,0,0,1-1.07-1.07V43.86A0,0,0,0,1,17.52,43.86Z"/><path class="cls-1" d="M30.42,43.86h2.85a3.27,3.27,0,0,1,3.27,3.27V56a0,0,0,0,1,0,0H29.35a0,0,0,0,1,0,0V44.93a1.07,1.07,0,0,1,1.07-1.07Z" transform="translate(65.88 99.86) rotate(180)"/><ellipse class="cls-1" cx="27.02" cy="38.28" rx="19.02" ry="14.15"/><path class="cls-2" d="M16.39,34a1.5,1.5,0,0,1-1.07-2.55A16.44,16.44,0,0,1,27,27a1.5,1.5,0,0,1,0,3,13.6,13.6,0,0,0-9.56,3.56A1.53,1.53,0,0,1,16.39,34Z"/><path class="cls-2" d="M34.81,25.91,34.7,26A10.68,10.68,0,0,0,31,39.23l4.88,11a9.18,9.18,0,0,0,1.67-.16c5.13-2.54,8.51-6.87,8.51-11.79C46.05,32.87,42,28.19,36,25.81A1.26,1.26,0,0,0,34.81,25.91Z"/><path class="cls-1" d="M8,38.28H28.68a0,0,0,0,1,0,0V52.43a0,0,0,0,1,0,0H13a5,5,0,0,1-5-5V38.28A0,0,0,0,1,8,38.28Z"/><path class="cls-1" d="M8,43.86h7.18a0,0,0,0,1,0,0v8.88A3.26,3.26,0,0,1,11.91,56H9.07A1.07,1.07,0,0,1,8,54.93V43.86A0,0,0,0,1,8,43.86Z"/><path class="cls-1" d="M35.71,29.1a5.58,5.58,0,0,0,5.58,5.58v-8.5a2,2,0,0,0-3.08-1.73A5.59,5.59,0,0,0,35.71,29.1Z"/><path class="cls-1" d="M46.05,29.1a5.58,5.58,0,0,0,5.57,5.58v-8.5a2,2,0,0,0-3.07-1.73A5.57,5.57,0,0,0,46.05,29.1Z"/><path class="cls-1" d="M54.66,38.68c0-.29,0-.59,0-.88a12,12,0,0,0-24,0c0,.16,0,.32,0,.48H25.37V52.43h11.8a8.86,8.86,0,0,0,5.37-1.81,8.34,8.34,0,0,1,3.08-1.57,11.83,11.83,0,0,0,1.32-.4A9.29,9.29,0,0,1,50.1,48h0A5.82,5.82,0,0,0,56,43,5.7,5.7,0,0,0,54.66,38.68Z"/><path class="cls-3" d="M44.07,37.32a.66.66,0,1,1-.66-.66A.66.66,0,0,1,44.07,37.32Z"/><path class="cls-3" d="M52,37.32a.66.66,0,1,1-.66-.66A.66.66,0,0,1,52,37.32Z"/><path class="cls-4" d="M19,26.88a7.7,7.7,0,1,1,9.38,0A7.71,7.71,0,0,1,19,26.88Z"/><path class="cls-5" d="M19.84,25.72a6.24,6.24,0,1,1,7.6,0A6.25,6.25,0,0,1,19.84,25.72Z"/><path class="cls-3" d="M23.67,20.33h0a.52.52,0,1,1,0-1,.51.51,0,0,1,.41.2.76.76,0,0,0,.59.31h.09a.73.73,0,0,0,.64-1.13,2.13,2.13,0,0,0-.75-.68.38.38,0,0,1-.2-.34h0a.77.77,0,0,0-.78-.77h0a.76.76,0,0,0-.77.77h0a.37.37,0,0,1-.2.33,2.06,2.06,0,0,0,.94,3.89h.05a.51.51,0,0,1,.47.68.5.5,0,0,1-.32.33.54.54,0,0,1-.59-.19.67.67,0,0,0-.55-.3h-.09A.76.76,0,0,0,22,23.61a2.06,2.06,0,0,0,.7.61.37.37,0,0,1,.2.33h0a.76.76,0,0,0,.77.77h0a.77.77,0,0,0,.78-.77h0a.35.35,0,0,1,.2-.33,2.07,2.07,0,0,0-.95-3.89Z"/></svg>