<svg id="Layer_1" data-name="Layer 1" xmlns="http://www.w3.org/2000/svg" viewBox="0 0 64 64"><defs><style>.cls-1{fill:#dfe8f4;}.cls-2{fill:#ccd8e5;}.cls-3{fill:#dd1515;}.cls-4{fill:#fff;}.cls-5{fill:#ff5454;}</style></defs><title>startup, start up, business, idea, thought, lightbulb, innovation</title><path class="cls-1" d="M49.33,36.31a18.72,18.72,0,0,0,1.85-3.82c0-.14.11-.27.15-.41s.17-.58.25-.86l.21-.82c.05-.26.1-.52.14-.77s.11-.65.15-1,.06-.48.08-.72,0-.72.05-1.09c0-.14,0-.29,0-.43s0-.17,0-.26c0-.38,0-.76-.06-1.15,0-.21,0-.42,0-.63s0-.13,0-.2A17.73,17.73,0,0,0,51.42,21c0-.1-.07-.18-.1-.28-.14-.43-.3-.86-.47-1.29-.08-.18-.16-.37-.25-.55s-.28-.62-.44-.92-.24-.45-.37-.67-.28-.48-.44-.72-.31-.48-.47-.71-.29-.39-.43-.58-.38-.5-.58-.74l-.38-.42a19.63,19.63,0,0,0-1.59-1.57l-.24-.21c-.23-.2-.47-.37-.71-.55l-.62-.47c-.21-.15-.44-.29-.66-.43l-.79-.48-.6-.32c-.32-.17-.64-.33-1-.47l-.51-.23c-.41-.16-.83-.32-1.26-.45l-.32-.11a17.07,17.07,0,0,0-3.28-.69l-.18,0h-.15A17.48,17.48,0,0,0,33.84,8h-.06A17.14,17.14,0,0,0,32,8.09h-.1c-.57.06-1.13.15-1.68.25l-.19,0c-.53.11-1.05.25-1.56.4l-.23.07q-.75.24-1.47.54l-.24.1c-.47.21-.94.43-1.39.67l-.22.12c-.46.25-.9.52-1.33.81l-.18.12c-.44.3-.86.62-1.27.95l-.12.1c-.42.36-.83.73-1.22,1.12l0,0c-.39.39-.76.8-1.12,1.23l-.07.08c-.34.42-.66.85-1,1.29l-.11.16c-.29.44-.56.89-.81,1.34l-.12.21c-.24.46-.47.93-.67,1.4a2.44,2.44,0,0,0-.1.24q-.3.72-.54,1.47a2.17,2.17,0,0,0-.07.24,16,16,0,0,0-.4,1.55,1.55,1.55,0,0,0,0,.21c-.11.54-.2,1.09-.26,1.65a.66.66,0,0,1,0,.14c0,.59-.09,1.18-.09,1.79h0a12.16,12.16,0,0,1-1.76,6.29l-1.58,2.6a2.18,2.18,0,0,0,.62,2.91l1.26.86a1.93,1.93,0,0,1,.77,1.14l1.54,6.92a3.93,3.93,0,0,0,3.43,3l3.72.39a2,2,0,0,1,1.79,2V56h24.7L48,42.88A9.62,9.62,0,0,1,49.33,36.31Z"/><path class="cls-2" d="M33.78,43h0a4.23,4.23,0,0,1-4.23-4.23V35.5H38v3.27A4.23,4.23,0,0,1,33.78,43Z"/><path class="cls-3" d="M35.81,36.45a2,2,0,1,1-2.05-2A2.05,2.05,0,0,1,35.81,36.45Z"/><path class="cls-4" d="M43.74,23.35a10,10,0,1,0-16.3,7.7,5.77,5.77,0,0,1,2.11,4.45v.62A1.41,1.41,0,0,0,31,37.54h5.58A1.42,1.42,0,0,0,38,36.12V35.5a5.74,5.74,0,0,1,2.1-4.44A9.93,9.93,0,0,0,43.74,23.35Z"/><path class="cls-5" d="M29.51,34.89a6,6,0,0,1,0,.61v.62A1.41,1.41,0,0,0,31,37.54h5.58A1.42,1.42,0,0,0,38,36.12V35.5a6.08,6.08,0,0,1,0-.61Z"/></svg>