<svg id="Layer_1" data-name="Layer 1" xmlns="http://www.w3.org/2000/svg" viewBox="0 0 64 64"><defs><style>.cls-1{fill:#F4DFDF;}.cls-2{fill:#e5cccc;}.cls-3{fill:#DD1515;}.cls-4{fill:#FC0707;}.cls-5{fill:#fff;}</style></defs><title>startup, start up, business, innovation, finance, idea</title><path class="cls-1" d="M8,41l4.77-1a26,26,0,0,0,5-1.54h0a11.63,11.63,0,0,1,8-.37L34.93,41a2,2,0,0,1,1.25,2.56h0a1,1,0,0,1-1,.64l-5.92-.14L35,45.38a26.58,26.58,0,0,0,10.77.23l2.48-.46a1.72,1.72,0,0,1,2,1.69h0a.85.85,0,0,1-.53.79l-3,1.23a26.66,26.66,0,0,1-13.34,1.71l-8.57-1.11c-2.69-.52-5.49.86-7.94,2.09L8,56Z"/><polygon class="cls-2" points="10.38 40.53 8.03 41 8 56 10.38 54.81 10.38 40.53"/><path class="cls-3" d="M45.38,38.92a2.75,2.75,0,1,1-2.75-2.74A2.75,2.75,0,0,1,45.38,38.92Z"/><path class="cls-1" d="M56,21.37A13.37,13.37,0,1,0,34.15,31.69,7.67,7.67,0,0,1,37,37.64v.83a1.92,1.92,0,0,0,1.91,1.92h7.48a1.91,1.91,0,0,0,1.91-1.92v-.83a7.68,7.68,0,0,1,2.81-5.94A13.29,13.29,0,0,0,56,21.37Z"/><path class="cls-2" d="M38.79,34.82A1.87,1.87,0,0,0,37,36.91c0,.24,0,.49,0,.73v.83a1.92,1.92,0,0,0,1.91,1.92h7.48a1.91,1.91,0,0,0,1.91-1.92v-.83c0-.24,0-.49,0-.73a1.88,1.88,0,0,0-1.85-2.09Z"/><path class="cls-4" d="M36.94,36.83a7.32,7.32,0,0,1,0,.81v.83a1.92,1.92,0,0,0,1.91,1.92h7.48a1.91,1.91,0,0,0,1.91-1.92v-.83a7.34,7.34,0,0,1,0-.81Z"/><path class="cls-4" d="M42.68,20.52h0a.74.74,0,1,1,0-1.47.71.71,0,0,1,.58.29,1.1,1.1,0,0,0,.84.44h.14a1,1,0,0,0,.89-1.6,2.85,2.85,0,0,0-1.06-1,.52.52,0,0,1-.29-.47h0a1.1,1.1,0,0,0-1.1-1.1h0a1.1,1.1,0,0,0-1.1,1.1h0a.53.53,0,0,1-.28.47,2.93,2.93,0,0,0,1.34,5.51h.06a.73.73,0,0,1,.68,1,.72.72,0,0,1-.46.47.74.74,0,0,1-.83-.27,1,1,0,0,0-.78-.43h-.13a1.08,1.08,0,0,0-.87,1.72,2.93,2.93,0,0,0,1,.86.56.56,0,0,1,.28.47h0a1.1,1.1,0,0,0,1.1,1.1h0a1.1,1.1,0,0,0,1.1-1.1h0A.54.54,0,0,1,44,26a2.93,2.93,0,0,0-1.34-5.51Z"/><circle class="cls-5" cx="42.63" cy="11.6" r="0.72"/><circle class="cls-5" cx="42.63" cy="31.64" r="0.72"/><path class="cls-5" d="M38.25,12.58a.72.72,0,1,1-1-.27A.72.72,0,0,1,38.25,12.58Z"/><path class="cls-5" d="M48.27,29.93a.72.72,0,1,1-1-.26A.72.72,0,0,1,48.27,29.93Z"/><path class="cls-5" d="M34.32,16a.72.72,0,1,1-1,.26A.73.73,0,0,1,34.32,16Z"/><path class="cls-5" d="M51.67,26A.72.72,0,1,1,51,27.25a.71.71,0,0,1-.27-1A.72.72,0,0,1,51.67,26Z"/><circle class="cls-5" cx="32.61" cy="21.62" r="0.72"/><circle class="cls-5" cx="52.65" cy="21.62" r="0.72"/><path class="cls-5" d="M33.59,26a.72.72,0,1,1-.26,1A.72.72,0,0,1,33.59,26Z"/><path class="cls-5" d="M51,16a.72.72,0,1,1-.27,1A.73.73,0,0,1,51,16Z"/><path class="cls-5" d="M37,29.93a.72.72,0,0,1,1.25.73.73.73,0,0,1-1,.26A.72.72,0,0,1,37,29.93Z"/><path class="cls-5" d="M47,12.58a.71.71,0,0,1,1-.27.72.72,0,0,1,.27,1A.72.72,0,1,1,47,12.58Z"/></svg>