<svg id="Layer_1" data-name="Layer 1" xmlns="http://www.w3.org/2000/svg" viewBox="0 0 64 64"><defs><style>.cls-1{fill:#DD1515;}.cls-2{fill:#F4DFDF;}.cls-3{fill:#FC0707;}.cls-4{fill:#e5cccc;}.cls-5{fill:#fff;}</style></defs><title>startup, start up, business, graph, statistics, presentation, projection</title><rect class="cls-1" x="18.39" y="49.25" width="27.23" height="1.35"/><path class="cls-1" d="M29.1,8H34.9A3.1,3.1,0,0,1,38,11.1v.4a0,0,0,0,1,0,0H26a0,0,0,0,1,0,0v-.4A3.1,3.1,0,0,1,29.1,8Z"/><path class="cls-2" d="M9.77,16.07H54.23a0,0,0,0,1,0,0v28a2.14,2.14,0,0,1-2.14,2.14H11.9a2.14,2.14,0,0,1-2.14-2.14v-28A0,0,0,0,1,9.77,16.07Z"/><rect class="cls-3" x="8" y="10.84" width="48" height="5.23" rx="1.91"/><path class="cls-3" d="M16.13,56H14.78a1.13,1.13,0,0,1-1.06-1.51l3-8.25H20.5l-3.31,9A1.13,1.13,0,0,1,16.13,56Z"/><path class="cls-3" d="M47.87,56h1.35a1.13,1.13,0,0,0,1.06-1.51l-3-8.25H43.5l3.31,9A1.13,1.13,0,0,0,47.87,56Z"/><rect class="cls-4" x="9.77" y="16.07" width="44.46" height="1.59"/><path class="cls-4" d="M33.73,28.16l-9.09,9.09a4,4,0,0,1-5.68,0h0a4,4,0,0,1,0-5.68l6.35-6.34a3.87,3.87,0,0,1,5.49,0Z"/><path class="cls-5" d="M36.93,22.48l1.8,1.81L34.8,28.22a.74.74,0,0,1-1,0l-3.55-3.55a3.08,3.08,0,0,0-4.37,0l-3.49,3.49,6.25,6.25h0l3,3a3.84,3.84,0,0,0,5.42,0l3-3h0L44.41,30l1.8,1.81V22.48Z"/></svg>