<svg id="Layer_1" data-name="Layer 1" xmlns="http://www.w3.org/2000/svg" viewBox="0 0 64 64"><defs><style>.cls-1{fill:#F4DFDF;}.cls-2{fill:#e5cccc;}.cls-3{fill:#DD1515;}.cls-4{fill:#FC0707;}.cls-5{fill:#fff;}</style></defs><title>startup, start up, business, brain, thought, finance</title><path class="cls-1" d="M25.65,13.17H22.87a7.14,7.14,0,0,0-6.14,3.5h0L16.5,17a5.67,5.67,0,0,0-5,4.77,3.06,3.06,0,0,1-.47,1.27,10.46,10.46,0,0,0-1.77,5.82V31a10.34,10.34,0,0,0,1.49,5.39,2.25,2.25,0,0,1,.33,1.38q0,.3,0,.6v1.11A6.29,6.29,0,0,0,15,45.29a2.31,2.31,0,0,1,1.28,1.23,7.19,7.19,0,0,0,6.59,4.31h5a4.47,4.47,0,0,0,4.47-4.47V19.88A6.71,6.71,0,0,0,25.65,13.17Z"/><path class="cls-1" d="M38.35,13.17h2.78a7.14,7.14,0,0,1,6.14,3.5h0l.22.36a5.67,5.67,0,0,1,5,4.77A3.06,3.06,0,0,0,53,23.07a10.46,10.46,0,0,1,1.77,5.82V31a10.34,10.34,0,0,1-1.49,5.39,2.25,2.25,0,0,0-.33,1.38q0,.3,0,.6v1.11A6.29,6.29,0,0,1,49,45.29a2.31,2.31,0,0,0-1.28,1.23,7.19,7.19,0,0,1-6.59,4.31h-5a4.47,4.47,0,0,1-4.47-4.47V19.88A6.71,6.71,0,0,1,38.35,13.17Z"/><path class="cls-2" d="M54.08,22.14a5,5,0,0,1-.59-1.58A6.28,6.28,0,0,0,48,15.37c-.08-.14-.17-.27-.25-.4h0a8,8,0,0,0-6.83-3.89H37.81a7.47,7.47,0,0,0-4.4,1.44,2.4,2.4,0,0,1-2.82,0,7.47,7.47,0,0,0-4.4-1.44H23.1A8,8,0,0,0,16.27,15h0c-.08.13-.17.26-.25.4a6.28,6.28,0,0,0-5.51,5.19,5,5,0,0,1-.59,1.58A11.64,11.64,0,0,0,8,28.54v2.34a11.61,11.61,0,0,0,1.65,6A2.41,2.41,0,0,1,10,38.41c0,.22,0,.44,0,.65V40.3a7,7,0,0,0,4.36,6.47,2.6,2.6,0,0,1,1.43,1.37,8,8,0,0,0,7.32,4.79h5.58a4.74,4.74,0,0,0,1.69-.31,4.69,4.69,0,0,1,3.26,0,4.74,4.74,0,0,0,1.69.31H40.9a8,8,0,0,0,7.32-4.79,2.6,2.6,0,0,1,1.43-1.37A7,7,0,0,0,54,40.3V39.06c0-.21,0-.43,0-.65a2.41,2.41,0,0,1,.37-1.54,11.61,11.61,0,0,0,1.65-6V28.54A11.64,11.64,0,0,0,54.08,22.14ZM26.25,47.32a7.44,7.44,0,0,0,3.76-1l.26-.18v1.41a2,2,0,0,1-2,2H23.1a4.61,4.61,0,0,1-4-2.23h.9a1.76,1.76,0,0,0,1.76-1.4,1.69,1.69,0,0,0-1.67-2H16.9a2.71,2.71,0,0,0-.41-.09,3.41,3.41,0,0,1-3.13-3.35V40a8.57,8.57,0,0,0,3.68.86h3A7.45,7.45,0,0,0,25,39.07a7.08,7.08,0,0,0,2.41-5.34V32.6a4.31,4.31,0,0,0-4.31-4.31h-2.6a3,3,0,0,0-2.88,2.26,1,1,0,0,0-1.43,0l-.39.39a1.8,1.8,0,0,0,0,2.52,3.09,3.09,0,0,0,1.85,1,3,3,0,0,0,3.14-1.94A1.3,1.3,0,0,1,22,31.66h.61A1.38,1.38,0,0,1,24,33v.72a3.68,3.68,0,0,1-3.58,3.73H17a5.16,5.16,0,0,1-4.46-2.57l-.74-1.29a8.26,8.26,0,0,1-.46-2.72V28.54a8.2,8.2,0,0,1,.55-2.94,7.57,7.57,0,0,0,.53.6l.33.33a1.74,1.74,0,0,0,2.23.25,1.68,1.68,0,0,0,.22-2.57l-.39-.4a3.49,3.49,0,0,1-1-2.4,2.9,2.9,0,0,1,1-2,1.57,1.57,0,0,0,.36.59l2,2a9.11,9.11,0,0,0,6.43,2.66H24a3.38,3.38,0,0,0,3.38-3.38v-.61c0-.16,0-.3,0-.45-.27-2-3.36-1.71-3.35.33v.73h-.4a5.7,5.7,0,0,1-4-1.67l-.61-.6a1.22,1.22,0,0,1-.24-1.36l.54-1.2a4.61,4.61,0,0,1,3.83-2.06H26a4.25,4.25,0,0,1,4.25,4.25V39.78a4.25,4.25,0,0,1-.52,2.1,4.07,4.07,0,0,1-3.59,2.06,1.52,1.52,0,0,0-1.48,1.54v.31A1.54,1.54,0,0,0,26.25,47.32ZM52.63,30.88a8.26,8.26,0,0,1-.46,2.72l-.74,1.29A5.18,5.18,0,0,1,47,37.46H43.56A3.68,3.68,0,0,1,40,33.73V33a1.38,1.38,0,0,1,1.45-1.35H42a1.3,1.3,0,0,1,1.23.82,3,3,0,0,0,3.14,1.94,3.09,3.09,0,0,0,1.85-1,1.8,1.8,0,0,0,0-2.52l-.39-.39a1,1,0,0,0-1.43,0,3,3,0,0,0-2.88-2.26h-2.6a4.31,4.31,0,0,0-4.31,4.31v1.13A7.08,7.08,0,0,0,39,39.07,7.45,7.45,0,0,0,44,40.84h3A8.57,8.57,0,0,0,50.64,40v.53a3.39,3.39,0,0,1-3.11,3.35,3,3,0,0,0-.43.09H44a1.76,1.76,0,0,0-1.76,1.4,1.69,1.69,0,0,0,1.67,2h1a4.61,4.61,0,0,1-4,2.23H35.77a2,2,0,0,1-2-2V46.1l.26.18a7.44,7.44,0,0,0,3.76,1,1.54,1.54,0,0,0,1.57-1.53v-.31a1.52,1.52,0,0,0-1.48-1.54,4.07,4.07,0,0,1-3.59-2.06,4.25,4.25,0,0,1-.52-2.1V18.7A4.25,4.25,0,0,1,38,14.45H40.9a4.61,4.61,0,0,1,3.83,2.06l.54,1.2A1.22,1.22,0,0,1,45,19.07l-.61.6a5.7,5.7,0,0,1-4,1.67H40v-.73c0-2-3.08-2.36-3.35-.33,0,.15,0,.29,0,.45v.61A3.38,3.38,0,0,0,40,24.72h.39a9.11,9.11,0,0,0,6.43-2.66l2-2a1.57,1.57,0,0,0,.36-.59,2.9,2.9,0,0,1,1,2,3.49,3.49,0,0,1-1,2.4l-.33.33a1.77,1.77,0,0,0-.25,2.24,1.69,1.69,0,0,0,2.58.21l.39-.39a7.57,7.57,0,0,0,.53-.6,8.2,8.2,0,0,1,.55,2.94Z"/><path class="cls-3" d="M26.23,39.52a9.48,9.48,0,1,1,11.54,0A9.5,9.5,0,0,1,26.23,39.52Z"/><path class="cls-4" d="M27.33,38.09a7.67,7.67,0,1,1,9.34,0A7.68,7.68,0,0,1,27.33,38.09Z"/><path class="cls-5" d="M32,31.45h0A.63.63,0,0,1,31.4,31a.63.63,0,0,1,1.1-.59.94.94,0,0,0,.73.39h.12a.91.91,0,0,0,.78-1.4,2.59,2.59,0,0,0-.93-.84.47.47,0,0,1-.25-.41h0a1,1,0,0,0-1-1h0a1,1,0,0,0-.95,1h0a.48.48,0,0,1-.25.41A2.54,2.54,0,0,0,32,33.36H32a.63.63,0,0,1,.58.84.59.59,0,0,1-.4.4.65.65,0,0,1-.72-.23.84.84,0,0,0-.67-.37H30.7A.93.93,0,0,0,30,35.49a2.56,2.56,0,0,0,.85.75.46.46,0,0,1,.25.41h0a1,1,0,0,0,.95,1h0a1,1,0,0,0,1-1h0a.46.46,0,0,1,.25-.41A2.55,2.55,0,0,0,32,31.45Z"/></svg>