<svg id="Layer_1" data-name="Layer 1" xmlns="http://www.w3.org/2000/svg" viewBox="0 0 64 64"><defs><style>.cls-1{fill:#dd1515;}.cls-2{fill:#dfe8f4;}.cls-3{fill:#ccd8e5;}.cls-4{fill:#ff5454;}.cls-5{fill:#fff;}</style></defs><title>startup, start up, business, idea, thought, money</title><circle class="cls-1" cx="32" cy="52.09" r="3.91"/><path class="cls-2" d="M51.06,27.06A19.06,19.06,0,1,0,19.91,41.77a11,11,0,0,1,4,8.49v1.19a2.72,2.72,0,0,0,2.73,2.72H37.33a2.72,2.72,0,0,0,2.73-2.72V50.26a10.94,10.94,0,0,1,4-8.47A19,19,0,0,0,51.06,27.06Z"/><path class="cls-3" d="M26.53,46.24a2.67,2.67,0,0,0-2.64,3,8.94,8.94,0,0,1,.05,1v1.19a2.72,2.72,0,0,0,2.73,2.72H37.33a2.72,2.72,0,0,0,2.73-2.72V50.26a8.94,8.94,0,0,1,0-1,2.67,2.67,0,0,0-2.64-3Z"/><path class="cls-4" d="M23.88,49.1a11.12,11.12,0,0,1,.06,1.16v1.19a2.72,2.72,0,0,0,2.73,2.72H37.33a2.72,2.72,0,0,0,2.73-2.72V50.26a11.12,11.12,0,0,1,.06-1.16Z"/><path class="cls-4" d="M32.06,25.85h0a1.07,1.07,0,0,1-1-.71,1,1,0,0,1,1-1.38,1.06,1.06,0,0,1,.83.4,1.53,1.53,0,0,0,1.2.64h.18a1.49,1.49,0,0,0,1.28-2.29A4.2,4.2,0,0,0,34,21.12a.76.76,0,0,1-.41-.67h0A1.57,1.57,0,0,0,32,18.88h0a1.57,1.57,0,0,0-1.57,1.57h0a.76.76,0,0,1-.4.67A4.18,4.18,0,0,0,31.94,29H32a1,1,0,0,1,1,1.38,1,1,0,0,1-.65.66,1.07,1.07,0,0,1-1.19-.38A1.36,1.36,0,0,0,30,30h-.18a1.54,1.54,0,0,0-1.24,2.46A4.26,4.26,0,0,0,30,33.71a.75.75,0,0,1,.4.67h0A1.57,1.57,0,0,0,32,36h0a1.57,1.57,0,0,0,1.57-1.57h0a.75.75,0,0,1,.4-.67,4.18,4.18,0,0,0-1.91-7.86Z"/><path class="cls-5" d="M33,13.13a1,1,0,1,1-1-1A1,1,0,0,1,33,13.13Z"/><path class="cls-5" d="M33,41.7a1,1,0,1,1-1-1A1,1,0,0,1,33,41.7Z"/><path class="cls-5" d="M25.75,14.53a1,1,0,0,1-.38,1.4,1,1,0,1,1,.38-1.4Z"/><path class="cls-5" d="M40,39.27a1,1,0,0,1-.38,1.41,1,1,0,1,1-1-1.79A1,1,0,0,1,40,39.27Z"/><path class="cls-5" d="M20.14,19.38a1,1,0,1,1-1.41.38A1,1,0,0,1,20.14,19.38Z"/><path class="cls-5" d="M44.89,33.66a1,1,0,0,1-1,1.79A1,1,0,0,1,43.48,34,1,1,0,0,1,44.89,33.66Z"/><path class="cls-5" d="M17.71,26.38a1,1,0,1,1-1,1A1,1,0,0,1,17.71,26.38Z"/><path class="cls-5" d="M46.29,26.38a1,1,0,1,1-1,1A1,1,0,0,1,46.29,26.38Z"/><path class="cls-5" d="M19.11,33.66a1,1,0,0,1,1.41.38,1,1,0,0,1-.38,1.41,1,1,0,1,1-1-1.79Z"/><path class="cls-5" d="M43.86,19.38a1,1,0,1,1-.38,1.41A1,1,0,0,1,43.86,19.38Z"/><path class="cls-5" d="M24,39.27a1,1,0,1,1,1.79,1,1,1,0,0,1-1.41.38A1,1,0,0,1,24,39.27Z"/><path class="cls-5" d="M38.25,14.53a1,1,0,0,1,1.41-.38,1,1,0,1,1-1,1.78A1,1,0,0,1,38.25,14.53Z"/></svg>