<svg id="Layer_1" data-name="Layer 1" xmlns="http://www.w3.org/2000/svg" viewBox="0 0 64 64"><defs><style>.cls-1{fill:#FC0707;}.cls-2{fill:#DD1515;}.cls-3{fill:#e5cccc;}.cls-4{fill:#F4DFDF;}.cls-5{fill:#fff;}</style></defs><title>startup, start up, business, building, city, innovation</title><path class="cls-1" d="M47.45,32.69h6.33a.6.6,0,0,1,.6.6V46.94a0,0,0,0,1,0,0H46.85a0,0,0,0,1,0,0V33.29A.6.6,0,0,1,47.45,32.69Z"/><path class="cls-2" d="M8.52,22.06h2.16a.42.42,0,0,1,.42.42v7.21a0,0,0,0,1,0,0h-3a0,0,0,0,1,0,0V22.48A.42.42,0,0,1,8.52,22.06Z"/><path class="cls-2" d="M8.1,26.29h4.78a1,1,0,0,1,1,1V53.63a0,0,0,0,1,0,0H8.1a0,0,0,0,1,0,0V26.29a0,0,0,0,1,0,0Z"/><rect class="cls-2" x="8.1" y="28.65" width="10.97" height="27.33"/><path class="cls-3" d="M31.61,10.28l-9.07,5.24a1,1,0,0,0-.49.84V39.78a1,1,0,0,0,1,1H41.18a1,1,0,0,0,1-1V16.36a1,1,0,0,0-.49-.84l-9.07-5.24A1,1,0,0,0,31.61,10.28Z"/><path class="cls-4" d="M31.61,16.41l-12.06,7a1,1,0,0,0-.48.84V56H45.13V24.21a1,1,0,0,0-.48-.84l-12.06-7A1,1,0,0,0,31.61,16.41Z"/><path class="cls-3" d="M31,8h2.16a.42.42,0,0,1,.42.42v7.21a0,0,0,0,1,0,0h-3a0,0,0,0,1,0,0V8.42A.42.42,0,0,1,31,8Z"/><path class="cls-1" d="M49.53,29.69H51.7a.42.42,0,0,1,.42.42v7.21a0,0,0,0,1,0,0h-3a0,0,0,0,1,0,0V30.11A.42.42,0,0,1,49.53,29.69Z"/><path class="cls-3" d="M23.72,25.87h1.1a.39.39,0,0,1,.39.39v2.35a.39.39,0,0,1-.39.39h-1.1a.38.38,0,0,1-.38-.38V26.26A.39.39,0,0,1,23.72,25.87Z"/><rect class="cls-3" x="27.25" y="25.88" width="1.87" height="3.13" rx="0.39"/><rect class="cls-3" x="31.17" y="25.87" width="1.87" height="3.13" rx="0.39"/><rect class="cls-3" x="35.08" y="25.88" width="1.87" height="3.13" rx="0.39"/><rect class="cls-5" x="39" y="25.88" width="1.87" height="3.13" rx="0.39"/><path class="cls-5" d="M23.72,31.35h1.1a.39.39,0,0,1,.39.39v2.35a.39.39,0,0,1-.39.39h-1.1a.38.38,0,0,1-.38-.38V31.74A.38.38,0,0,1,23.72,31.35Z"/><rect class="cls-3" x="27.25" y="31.35" width="1.87" height="3.13" rx="0.39"/><rect class="cls-1" x="31.17" y="31.35" width="1.87" height="3.13" rx="0.39"/><rect class="cls-3" x="35.08" y="31.35" width="1.87" height="3.13" rx="0.39"/><rect class="cls-3" x="39" y="31.35" width="1.87" height="3.13" rx="0.39"/><path class="cls-3" d="M23.72,36.83h1.1a.39.39,0,0,1,.39.39v2.35a.39.39,0,0,1-.39.39h-1.1a.38.38,0,0,1-.38-.38V37.22A.39.39,0,0,1,23.72,36.83Z"/><rect class="cls-3" x="27.25" y="36.83" width="1.87" height="3.13" rx="0.39"/><rect class="cls-1" x="31.17" y="36.83" width="1.87" height="3.13" rx="0.39"/><rect class="cls-5" x="35.08" y="36.83" width="1.87" height="3.13" rx="0.39"/><rect class="cls-3" x="39" y="36.83" width="1.87" height="3.13" rx="0.39"/><path class="cls-3" d="M23.72,42.31h1.1a.39.39,0,0,1,.39.39v2.35a.39.39,0,0,1-.39.39h-1.1a.38.38,0,0,1-.38-.38V42.7A.39.39,0,0,1,23.72,42.31Z"/><rect class="cls-5" x="27.25" y="42.31" width="1.87" height="3.13" rx="0.39"/><rect class="cls-1" x="31.17" y="42.31" width="1.87" height="3.13" rx="0.39"/><rect class="cls-3" x="35.08" y="42.31" width="1.87" height="3.12" rx="0.39"/><rect class="cls-3" x="39" y="42.31" width="1.87" height="3.13" rx="0.39"/><path class="cls-3" d="M23.72,47.79h1.1a.39.39,0,0,1,.39.39v2.35a.39.39,0,0,1-.39.39h-1.1a.38.38,0,0,1-.38-.38V48.18A.38.38,0,0,1,23.72,47.79Z"/><rect class="cls-3" x="27.25" y="47.79" width="1.87" height="3.13" rx="0.39"/><rect class="cls-3" x="31.17" y="47.79" width="1.87" height="3.13" rx="0.39"/><rect class="cls-5" x="35.08" y="47.79" width="1.87" height="3.13" rx="0.39"/><rect class="cls-3" x="39" y="47.79" width="1.87" height="3.13" rx="0.39"/><path class="cls-3" d="M25.2,56V53.66a.38.38,0,0,0-.38-.39h-1.1a.38.38,0,0,0-.38.39V56Z"/><path class="cls-3" d="M29.12,56V53.66a.38.38,0,0,0-.39-.39H27.64a.38.38,0,0,0-.39.39V56Z"/><path class="cls-5" d="M33,56V53.66a.38.38,0,0,0-.38-.39h-1.1a.38.38,0,0,0-.38.39V56Z"/><path class="cls-3" d="M37,56V53.66a.38.38,0,0,0-.39-.39H35.47a.38.38,0,0,0-.39.39V56Z"/><path class="cls-3" d="M40.86,56V53.66a.38.38,0,0,0-.38-.39h-1.1a.38.38,0,0,0-.38.39V56Z"/><rect class="cls-1" x="10.18" y="32" width="6.81" height="1.31" rx="0.35"/><rect class="cls-1" x="10.18" y="35.25" width="6.81" height="1.31" rx="0.35"/><rect class="cls-1" x="10.18" y="38.5" width="6.81" height="1.31" rx="0.35"/><rect class="cls-1" x="10.18" y="41.75" width="6.81" height="1.31" rx="0.35"/><rect class="cls-1" x="10.18" y="45" width="6.81" height="1.31" rx="0.35"/><rect class="cls-1" x="10.18" y="48.25" width="6.81" height="1.31" rx="0.35"/><rect class="cls-1" x="10.18" y="51.5" width="6.81" height="1.31" rx="0.35"/><rect class="cls-1" x="45.13" y="35.25" width="10.97" height="20.75"/><rect class="cls-2" x="46.85" y="37.75" width="1.77" height="1.77" rx="0.36"/><rect class="cls-2" x="49.73" y="37.75" width="1.77" height="1.77" rx="0.36"/><rect class="cls-2" x="52.61" y="37.75" width="1.77" height="1.77" rx="0.36"/><rect class="cls-2" x="46.85" y="40.75" width="1.77" height="1.77" rx="0.36"/><rect class="cls-2" x="49.73" y="40.75" width="1.77" height="1.77" rx="0.36"/><rect class="cls-2" x="52.61" y="40.75" width="1.77" height="1.77" rx="0.36"/><rect class="cls-2" x="46.85" y="43.75" width="1.77" height="1.77" rx="0.36"/><rect class="cls-2" x="49.73" y="43.75" width="1.77" height="1.77" rx="0.36"/><rect class="cls-2" x="52.61" y="43.75" width="1.77" height="1.77" rx="0.36"/><rect class="cls-2" x="46.85" y="46.75" width="1.77" height="1.77" rx="0.36"/><rect class="cls-2" x="49.73" y="46.75" width="1.77" height="1.77" rx="0.36"/><rect class="cls-2" x="52.61" y="46.75" width="1.77" height="1.77" rx="0.36"/><rect class="cls-2" x="46.85" y="49.75" width="1.77" height="1.77" rx="0.36"/><rect class="cls-2" x="49.73" y="49.75" width="1.77" height="1.77" rx="0.36"/><rect class="cls-2" x="52.61" y="49.75" width="1.77" height="1.77" rx="0.36"/><rect class="cls-2" x="46.85" y="52.75" width="1.77" height="1.77" rx="0.36"/><rect class="cls-2" x="49.73" y="52.75" width="1.77" height="1.77" rx="0.36"/><rect class="cls-2" x="52.61" y="52.75" width="1.77" height="1.77" rx="0.36"/><path class="cls-2" d="M33.74,27.63A1.74,1.74,0,1,1,32,25.89,1.75,1.75,0,0,1,33.74,27.63Z"/><path class="cls-1" d="M40.49,16.49A8.49,8.49,0,1,0,26.62,23a4.89,4.89,0,0,1,1.79,3.78v.53a1.22,1.22,0,0,0,1.22,1.21h4.74a1.22,1.22,0,0,0,1.22-1.21v-.53a4.86,4.86,0,0,1,1.78-3.77A8.48,8.48,0,0,0,40.49,16.49Z"/><path class="cls-2" d="M28.38,26.3a4.53,4.53,0,0,1,0,.52v.53a1.22,1.22,0,0,0,1.22,1.21h4.74a1.22,1.22,0,0,0,1.22-1.21v-.53a4.53,4.53,0,0,1,0-.52Z"/></svg>