<svg id="Layer_1" data-name="Layer 1" xmlns="http://www.w3.org/2000/svg" viewBox="0 0 64 64"><defs><style>.cls-1{fill:#ccd8e5;}.cls-2{fill:#dfe8f4;}.cls-3{fill:#dd1515;}.cls-4{fill:#ff5454;}</style></defs><title>startup, start up, business, finance, dollar, cash, coin</title><rect class="cls-1" x="8" y="8" width="48" height="29.17" rx="3.18"/><circle class="cls-2" cx="32" cy="22.58" r="8.56" transform="translate(-5.89 12.66) rotate(-20.54)"/><path class="cls-2" d="M15.64,31.17A1.68,1.68,0,1,1,14,29.5,1.68,1.68,0,0,1,15.64,31.17Z"/><circle class="cls-2" cx="50.03" cy="13.99" r="1.67"/><path class="cls-3" d="M40,52.06v2.63c0,.72,2.63,1.31,5.88,1.31s5.87-.59,5.87-1.31V52.06Z"/><ellipse class="cls-4" cx="45.84" cy="52.06" rx="5.87" ry="1.31"/><path class="cls-3" d="M40,48.44v2.62c0,.73,2.63,1.32,5.88,1.32s5.87-.59,5.87-1.32V48.44Z"/><ellipse class="cls-4" cx="45.84" cy="48.44" rx="5.87" ry="1.31"/><path class="cls-3" d="M40,44.81v2.63c0,.72,2.63,1.31,5.88,1.31s5.87-.59,5.87-1.31V44.81Z"/><ellipse class="cls-4" cx="45.84" cy="44.81" rx="5.87" ry="1.31"/><path class="cls-3" d="M40,41.19v2.62c0,.73,2.63,1.31,5.88,1.31s5.87-.58,5.87-1.31V41.19Z"/><ellipse class="cls-4" cx="45.84" cy="41.19" rx="5.87" ry="1.31"/><path class="cls-3" d="M40,37.56v2.63c0,.72,2.63,1.31,5.88,1.31s5.87-.59,5.87-1.31V37.56Z"/><ellipse class="cls-4" cx="45.84" cy="37.56" rx="5.87" ry="1.31"/><path class="cls-3" d="M40,33.94v2.62c0,.73,2.63,1.32,5.88,1.32s5.87-.59,5.87-1.32V33.94Z"/><ellipse class="cls-4" cx="45.84" cy="33.94" rx="5.87" ry="1.31"/><path class="cls-3" d="M40,30.31v2.63c0,.72,2.63,1.31,5.88,1.31s5.87-.59,5.87-1.31V30.31Z"/><ellipse class="cls-4" cx="45.84" cy="30.31" rx="5.87" ry="1.31"/><path class="cls-3" d="M40,26.69v2.62c0,.73,2.63,1.31,5.88,1.31s5.87-.58,5.87-1.31V26.69Z"/><ellipse class="cls-4" cx="45.84" cy="26.69" rx="5.87" ry="1.31"/><path class="cls-3" d="M26.12,52.06v2.63c0,.72,2.64,1.31,5.88,1.31s5.88-.59,5.88-1.31V52.06Z"/><ellipse class="cls-4" cx="32" cy="52.06" rx="5.88" ry="1.31"/><path class="cls-3" d="M26.12,48.44v2.62c0,.73,2.64,1.32,5.88,1.32s5.88-.59,5.88-1.32V48.44Z"/><ellipse class="cls-4" cx="32" cy="48.44" rx="5.88" ry="1.31"/><path class="cls-3" d="M26.12,44.81v2.63c0,.72,2.64,1.31,5.88,1.31s5.88-.59,5.88-1.31V44.81Z"/><ellipse class="cls-4" cx="32" cy="44.81" rx="5.88" ry="1.31"/><path class="cls-3" d="M26.12,41.19v2.62c0,.73,2.64,1.31,5.88,1.31s5.88-.58,5.88-1.31V41.19Z"/><ellipse class="cls-4" cx="32" cy="41.19" rx="5.88" ry="1.31"/><path class="cls-3" d="M26.12,37.56v2.63c0,.72,2.64,1.31,5.88,1.31s5.88-.59,5.88-1.31V37.56Z"/><ellipse class="cls-4" cx="32" cy="37.56" rx="5.88" ry="1.31"/><path class="cls-3" d="M12.29,52.06v2.63c0,.72,2.63,1.31,5.87,1.31S24,55.41,24,54.69V52.06Z"/><ellipse class="cls-4" cx="18.16" cy="52.06" rx="5.87" ry="1.31"/><path class="cls-3" d="M12.29,48.44v2.62c0,.73,2.63,1.32,5.87,1.32S24,51.79,24,51.06V48.44Z"/><ellipse class="cls-4" cx="18.16" cy="48.44" rx="5.87" ry="1.31"/><path class="cls-3" d="M12.29,44.81v2.63c0,.72,2.63,1.31,5.87,1.31S24,48.16,24,47.44V44.81Z"/><ellipse class="cls-4" cx="18.16" cy="44.81" rx="5.87" ry="1.31"/></svg>