<svg id="Layer_1" data-name="Layer 1" xmlns="http://www.w3.org/2000/svg" viewBox="0 0 64 64"><defs><style>.cls-1{fill:#F4DFDF;}.cls-2{fill:#FC0707;}.cls-3{fill:#e5cccc;}.cls-4{fill:#fff;}.cls-5{fill:#DD1515;}</style></defs><title>startup, start up, business, pie, chart, graph</title><path class="cls-1" d="M29.57,12.87A21.57,21.57,0,1,0,51.13,34.43H29.57Z"/><path class="cls-2" d="M29.57,10.22V34.43H53.78A2.23,2.23,0,0,0,56,32,26.55,26.55,0,0,0,32,8,2.23,2.23,0,0,0,29.57,10.22Z"/><path class="cls-3" d="M29.57,56A21.57,21.57,0,0,0,51.13,34.43H29.57Z"/><path class="cls-4" d="M20.05,33.1h0a.91.91,0,0,1-.88-.6A.9.9,0,0,1,20,31.31a.88.88,0,0,1,.71.35,1.31,1.31,0,0,0,1,.54h.16a1.28,1.28,0,0,0,1.1-2,3.68,3.68,0,0,0-1.3-1.18.68.68,0,0,1-.35-.58h0A1.34,1.34,0,0,0,20,27.14h0a1.34,1.34,0,0,0-1.34,1.34h0a.64.64,0,0,1-.34.57A3.57,3.57,0,0,0,20,35.77H20a.89.89,0,0,1,.26,1.74.92.92,0,0,1-1-.33,1.2,1.2,0,0,0-1-.52h-.16a1.32,1.32,0,0,0-1.06,2.1,3.71,3.71,0,0,0,1.21,1,.64.64,0,0,1,.34.57h0A1.34,1.34,0,0,0,20,41.73h0a1.34,1.34,0,0,0,1.34-1.34h0a.64.64,0,0,1,.34-.57,3.57,3.57,0,0,0-1.63-6.72Z"/><path class="cls-5" d="M56,32a26.46,26.46,0,0,0-7.66-16.32L29.57,34.43H53.78A2.23,2.23,0,0,0,56,32Z"/></svg>