<svg id="Layer_1" data-name="Layer 1" xmlns="http://www.w3.org/2000/svg" viewBox="0 0 64 64"><defs><style>.cls-1{fill:#F4DFDF;}.cls-2{fill:#DD1515;}.cls-3{fill:#FC0707;}.cls-4{fill:#e5cccc;}.cls-5{fill:#fff;}</style></defs><title>startup, start up, business, search, find, idea, thought, inspiration</title><path class="cls-1" d="M54.91,54.89a3.65,3.65,0,0,1-5.15,0l-11-11a3.65,3.65,0,1,1,5.15-5.16l11,11.05A3.63,3.63,0,0,1,54.91,54.89Z"/><path class="cls-2" d="M19.77,39.54a14.12,14.12,0,1,1,17.19,0A14.13,14.13,0,0,1,19.77,39.54Z"/><path class="cls-3" d="M21.41,37.41a11.43,11.43,0,1,1,13.92,0A11.44,11.44,0,0,1,21.41,37.41Z"/><path class="cls-1" d="M54.85,49.67,49.14,44a7.73,7.73,0,0,1-1.83-8.21A20.36,20.36,0,1,0,35.76,47.3,7.81,7.81,0,0,1,44,49.16l5.72,5.73a3.65,3.65,0,0,0,5.64-.59A3.71,3.71,0,0,0,54.85,49.67ZM19.77,39.54a14.12,14.12,0,1,1,17.19,0A14.13,14.13,0,0,1,19.77,39.54Z"/><path class="cls-4" d="M51.45,46.27l-5.16,5.15,3.47,3.47a3.64,3.64,0,0,0,5.15-5.15Z"/><rect class="cls-4" x="46.01" y="48.52" width="7.29" height="2.21" transform="translate(-20.55 49.65) rotate(-45)"/><path class="cls-1" d="M29.66,35a1.29,1.29,0,1,1-1.29-1.29A1.29,1.29,0,0,1,29.66,35Z"/><path class="cls-5" d="M34.66,26.71a6.29,6.29,0,1,0-10.28,4.86,3.62,3.62,0,0,1,1.33,2.8v.39a.9.9,0,0,0,.9.9h3.52a.9.9,0,0,0,.9-.9v-.39a3.62,3.62,0,0,1,1.32-2.8A6.26,6.26,0,0,0,34.66,26.71Z"/><path class="cls-1" d="M25.69,34c0,.13,0,.26,0,.39v.39a.9.9,0,0,0,.9.9h3.52a.9.9,0,0,0,.9-.9v-.39a2.55,2.55,0,0,1,0-.39Z"/></svg>