<svg id="Layer_1" data-name="Layer 1" xmlns="http://www.w3.org/2000/svg" viewBox="0 0 64 64"><defs><style>.cls-1{fill:#DD1515;}.cls-2{fill:#FC0707;}.cls-3{fill:#e5cccc;}.cls-4{fill:#F4DFDF;}</style></defs><title>startup, start up, business, graph, statistic, projection</title><path class="cls-1" d="M34.92,17.58,19.57,32.93a6.78,6.78,0,0,1-9.59,0h0a6.78,6.78,0,0,1,0-9.58L20.7,12.64a6.57,6.57,0,0,1,9.28,0Z"/><path class="cls-2" d="M40.32,8l3,3.05-6.64,6.64a1.23,1.23,0,0,1-1.74,0l-6-6a5.21,5.21,0,0,0-7.38,0l-5.9,5.89L26.28,28.14h0l5,5a6.48,6.48,0,0,0,9.15,0l5-5h0L53,20.63l3,3.05V8Z"/><path class="cls-3" d="M9.53,47.13H20.93a1.53,1.53,0,0,1,1.53,1.53V56a0,0,0,0,1,0,0H8a0,0,0,0,1,0,0V48.66A1.53,1.53,0,0,1,9.53,47.13Z"/><path class="cls-4" d="M26.3,42H37.7a1.53,1.53,0,0,1,1.53,1.53V56a0,0,0,0,1,0,0H24.77a0,0,0,0,1,0,0V43.53A1.53,1.53,0,0,1,26.3,42Z"/><path class="cls-4" d="M43.07,35.05H54.47A1.53,1.53,0,0,1,56,36.58V56a0,0,0,0,1,0,0H41.54a0,0,0,0,1,0,0V36.58A1.53,1.53,0,0,1,43.07,35.05Z"/></svg>