<svg id="Layer_1" data-name="Layer 1" xmlns="http://www.w3.org/2000/svg" viewBox="0 0 64 64"><defs><style>.cls-1{fill:#ff5454;}.cls-2{fill:#dd1515;}.cls-3{fill:#dfe8f4;}.cls-4{fill:#ccd8e5;}.cls-5{fill:#fff;}</style></defs><title>startup, start up, business, folder, innovation</title><path class="cls-1" d="M26.55,24.68V22.87a1.25,1.25,0,0,0-1.25-1.25H12.77a1.25,1.25,0,0,0-1.25,1.25V54.44A1.56,1.56,0,0,0,13.08,56H50.92a1.56,1.56,0,0,0,1.56-1.56V26.07a1.25,1.25,0,0,0-1.25-1.25H26.69A.14.14,0,0,1,26.55,24.68Z"/><path class="cls-2" d="M52.48,52.94V28.05h-41V52.94a1.56,1.56,0,0,0,1.56,1.56H50.92A1.56,1.56,0,0,0,52.48,52.94Z"/><path class="cls-3" d="M51.3,56H12.7a1.34,1.34,0,0,1-1.33-1.16L8.2,31.07a1.34,1.34,0,0,1,1.33-1.52H54.47a1.34,1.34,0,0,1,1.33,1.52L52.63,54.84A1.34,1.34,0,0,1,51.3,56Z"/><path class="cls-4" d="M52.48,54.44V29.55h-41V54.44A1.56,1.56,0,0,0,13.08,56H50.92A1.56,1.56,0,0,0,52.48,54.44Z"/><circle class="cls-2" cx="32" cy="50.49" r="1.26"/><path class="cls-5" d="M38.15,42.4A6.15,6.15,0,1,0,28,47.1a3.67,3.67,0,0,1,1.38,2.8v0a1.21,1.21,0,0,0,1.21,1.22h2.78a1.21,1.21,0,0,0,1.21-1.22h0a3.5,3.5,0,0,1,1.25-2.74A6.13,6.13,0,0,0,38.15,42.4Z"/><path class="cls-1" d="M29.38,49.52c0,.13,0,.25,0,.38v.38a.87.87,0,0,0,.88.88h3.44a.87.87,0,0,0,.88-.88V49.9c0-.13,0-.25,0-.38Z"/></svg>