<svg id="Layer_1" data-name="Layer 1" xmlns="http://www.w3.org/2000/svg" viewBox="0 0 64 64"><defs><style>.cls-1{fill:#dfe8f4;}.cls-2{fill:#ccd8e5;}.cls-3{fill:#dd1515;}.cls-4{fill:#ff5454;}.cls-5{fill:#fff;}</style></defs><title>startup, start up, business, hand, idea, thought, finance</title><path class="cls-1" d="M41.68,36l-1.17-6.9H29.43v6.55a.86.86,0,0,1-.87.86h0a.85.85,0,0,1-.86-.86V27.74A1.71,1.71,0,0,0,26,26h0a3.82,3.82,0,0,0-3.81,3.82V41.5a12.24,12.24,0,0,0,2.67,7.63h0a6.34,6.34,0,0,1,1.39,3.95H39.79v-2.8a24.52,24.52,0,0,1,.69-5.79l1.05-4.34A10.26,10.26,0,0,0,41.68,36Z"/><path class="cls-2" d="M40.51,29.12H29.43v6.55a.83.83,0,0,1-.29.63v.38a1.74,1.74,0,0,0,1.73,1.73h1.28a2.47,2.47,0,0,0,4.18,0h1.29a1.73,1.73,0,0,0,1.72-1.73v-.75A7,7,0,0,1,40,33.09a6.8,6.8,0,0,0,.56-4Z"/><path class="cls-2" d="M26.59,30.55A7.53,7.53,0,0,1,27.7,31.7v-4A1.7,1.7,0,0,0,26.05,26a3.8,3.8,0,0,0-2.44.86A12,12,0,0,0,26.59,30.55Z"/><circle class="cls-3" cx="32.86" cy="35.91" r="2.48"/><path class="cls-4" d="M44.93,20.06a12.07,12.07,0,1,0-19.72,9.32,7,7,0,0,1,2.56,5.37v.75a1.72,1.72,0,0,0,1.72,1.73h6.75A1.72,1.72,0,0,0,38,35.5v-.75a6.91,6.91,0,0,1,2.54-5.36A12,12,0,0,0,44.93,20.06Z"/><path class="cls-3" d="M27.72,34a5.84,5.84,0,0,1,.05.73v.75a1.72,1.72,0,0,0,1.72,1.73h6.75A1.72,1.72,0,0,0,38,35.5v-.75A5.84,5.84,0,0,1,38,34Z"/><path class="cls-4" d="M26.19,53.08H39.88a.91.91,0,0,1,.91.91v2a0,0,0,0,1,0,0H25.28a0,0,0,0,1,0,0V54A.91.91,0,0,1,26.19,53.08Z"/><path class="cls-1" d="M26,26a3.82,3.82,0,0,0-3.81,3.82V41.5l5.52-5.83V27.74A1.71,1.71,0,0,0,26,26Z"/><path class="cls-5" d="M32.9,19.9h0a.64.64,0,1,1,.49-1,.94.94,0,0,0,.73.39h.11a.91.91,0,0,0,.78-1.4,2.56,2.56,0,0,0-.92-.84.45.45,0,0,1-.25-.41h0a1,1,0,0,0-1-.95h0a1,1,0,0,0-.95.95h0a.46.46,0,0,1-.24.41,2.54,2.54,0,0,0,1.16,4.78h.05a.65.65,0,0,1,.59.84.61.61,0,0,1-.4.4.64.64,0,0,1-.72-.23.84.84,0,0,0-.68-.37h-.11a.93.93,0,0,0-.75,1.49,2.49,2.49,0,0,0,.86.75.46.46,0,0,1,.24.41h0a1,1,0,0,0,.95.95h0a1,1,0,0,0,1-.95h0a.46.46,0,0,1,.24-.41A2.54,2.54,0,0,0,32.9,19.9Z"/></svg>