<svg id="Layer_1" data-name="Layer 1" xmlns="http://www.w3.org/2000/svg" viewBox="0 0 64 64"><defs><style>.cls-1{fill:#dd1515;}.cls-2{fill:#dfe8f4;}.cls-3{fill:#ff5454;}.cls-4{fill:#ccd8e5;}.cls-5{fill:#fff;}</style></defs><title>startup, start up, business, team, group, presentation, projection</title><path class="cls-1" d="M30.53,8h2.94A1.56,1.56,0,0,1,35,9.56v.2a0,0,0,0,1,0,0H29a0,0,0,0,1,0,0v-.2A1.56,1.56,0,0,1,30.53,8Z"/><path class="cls-2" d="M9.4,13.38H54.6a0,0,0,0,1,0,0V35.5a1.69,1.69,0,0,1-1.69,1.69H11.08A1.69,1.69,0,0,1,9.4,35.5V13.38A0,0,0,0,1,9.4,13.38Z"/><rect class="cls-3" x="8" y="9.25" width="48" height="4.13" rx="1.51"/><rect class="cls-4" x="9.4" y="13.38" width="45.21" height="1.26"/><path class="cls-5" d="M35.22,18.82,36.41,20l-2.59,2.58a.48.48,0,0,1-.67,0l0,0h0L31.2,20.63l-.07-.06-.31-.31a2,2,0,0,0-2.87,0l-2.29,2.29h0l-2.13,2.13a2.75,2.75,0,0,0-.29,3.63,2.64,2.64,0,0,0,3.91.21L29,26.65a.54.54,0,0,1,.75,0l1.95,2a2.51,2.51,0,0,0,3.55,0l2-2h0l2.92-2.92,1.19,1.19v-6.1Z"/><path class="cls-3" d="M35,26.61V25.29a3,3,0,0,0-1.48-2.56h0a3,3,0,0,0-3,0h0A3,3,0,0,0,29,25.29v1.32a2.61,2.61,0,0,0,1.3,2.25h0a3.33,3.33,0,0,0,3.32,0h0A2.61,2.61,0,0,0,35,26.61Z"/><path class="cls-3" d="M38.46,38.71H25.54V36.58A6.47,6.47,0,0,1,32,30.11h0a6.47,6.47,0,0,1,6.46,6.47Z"/><path class="cls-3" d="M19.53,28.19V27.05a2.58,2.58,0,0,0-1.28-2.23h0a2.57,2.57,0,0,0-2.57,0h0a2.58,2.58,0,0,0-1.28,2.23v1.14a2.28,2.28,0,0,0,1.12,2h0a2.92,2.92,0,0,0,2.89,0h0A2.28,2.28,0,0,0,19.53,28.19Z"/><path class="cls-3" d="M22.58,38.71H11.35V36.86A5.61,5.61,0,0,1,17,31.24h0a5.61,5.61,0,0,1,5.61,5.62Z"/><path class="cls-3" d="M49.6,28.19V27.05a2.58,2.58,0,0,0-1.28-2.23h0a2.57,2.57,0,0,0-2.57,0h0a2.58,2.58,0,0,0-1.28,2.23v1.14a2.28,2.28,0,0,0,1.12,2h0a2.92,2.92,0,0,0,2.89,0h0A2.28,2.28,0,0,0,49.6,28.19Z"/><path class="cls-3" d="M52.65,38.71H41.42V36.86A5.61,5.61,0,0,1,47,31.24h0a5.61,5.61,0,0,1,5.62,5.62Z"/><rect class="cls-1" x="9.99" y="38.71" width="44.01" height="3.25" rx="1.15"/><rect class="cls-1" x="11.35" y="41.96" width="41.31" height="14.04"/></svg>