<svg id="Layer_1" data-name="Layer 1" xmlns="http://www.w3.org/2000/svg" viewBox="0 0 64 64"><defs><style>.cls-1{fill:#dfe8f4;}.cls-2{fill:#ccd8e5;}.cls-3{fill:#ff5454;}.cls-4{fill:#dd1515;}.cls-5{fill:#fff;}</style></defs><title>startup, start up, business, vision, view, chart, graph</title><path class="cls-1" d="M40.35,14.61h7.49a1.55,1.55,0,0,1,1.55,1.55v7.49A25.73,25.73,0,0,1,23.65,49.39H16.16a1.55,1.55,0,0,1-1.55-1.55V40.35A25.74,25.74,0,0,1,40.35,14.61Z" transform="translate(32 -13.25) rotate(45)"/><path class="cls-2" d="M29.8,45.83l.19,0a9.25,9.25,0,0,0,10-9.21V32L21.32,30.21v6.42A9.24,9.24,0,0,0,29.8,45.83Z"/><circle class="cls-3" cx="32" cy="32" r="7.97"/><path class="cls-4" d="M24.34,29.81A8,8,0,0,0,32,40V29.81Z"/><path class="cls-5" d="M30,21.35A10.84,10.84,0,0,0,21.35,30,1.65,1.65,0,0,0,23,32h9V23A1.65,1.65,0,0,0,30,21.35Z"/></svg>