<svg id="Layer_1" data-name="Layer 1" xmlns="http://www.w3.org/2000/svg" viewBox="0 0 64 64"><defs><style>.cls-1{fill:#dfe8f4;}.cls-2{fill:#ccd8e5;}.cls-3{fill:#dd1515;}.cls-4{fill:#ff5454;}.cls-5{fill:#fff;}</style></defs><title>startup, start up, business, launch, insurance, protection</title><path class="cls-1" d="M32,7.92a8.78,8.78,0,0,0-2.22.29L14.56,12.33a2.4,2.4,0,0,0-1.77,2.32V40.18a7.94,7.94,0,0,0,3.9,6.8c1.76,1.06,3.62,2.3,5.5,3.7,1.45,1.08,2.8,2.17,4,3.24a8.79,8.79,0,0,0,11.54,0c1.24-1.07,2.59-2.16,4-3.24,1.88-1.4,3.74-2.64,5.5-3.7a7.93,7.93,0,0,0,3.9-6.79V14.64a2.39,2.39,0,0,0-1.77-2.31L34.22,8.21A8.78,8.78,0,0,0,32,7.92Z"/><rect class="cls-2" x="24.05" y="46.6" width="15.9" height="9.4"/><path class="cls-2" d="M26.18,49.39a5.82,5.82,0,0,0-5.81,5.82H32A5.82,5.82,0,0,0,26.18,49.39Z"/><path class="cls-2" d="M20.37,52.66a1.8,1.8,0,0,0-1.8,1.8h3.6A1.8,1.8,0,0,0,20.37,52.66Z"/><path class="cls-2" d="M16.4,50.86a3.6,3.6,0,0,0-3.6,3.6H20A3.6,3.6,0,0,0,16.4,50.86Z"/><path class="cls-2" d="M20.83,48.8a1.23,1.23,0,1,1-1.23-1.23A1.23,1.23,0,0,1,20.83,48.8Z"/><path class="cls-2" d="M20.62,51.3a.27.27,0,1,1-.27-.28A.28.28,0,0,1,20.62,51.3Z"/><path class="cls-2" d="M17.71,49.55a.48.48,0,0,1-.48.47.48.48,0,1,1,0-1A.48.48,0,0,1,17.71,49.55Z"/><path class="cls-2" d="M37.82,49.39a5.82,5.82,0,0,1,5.81,5.82H32A5.82,5.82,0,0,1,37.82,49.39Z"/><path class="cls-2" d="M43.63,52.66a1.8,1.8,0,0,1,1.8,1.8h-3.6A1.8,1.8,0,0,1,43.63,52.66Z"/><path class="cls-2" d="M47.6,50.86a3.6,3.6,0,0,1,3.6,3.6H44A3.6,3.6,0,0,1,47.6,50.86Z"/><path class="cls-2" d="M43.17,48.8a1.23,1.23,0,1,0,1.23-1.23A1.23,1.23,0,0,0,43.17,48.8Z"/><path class="cls-2" d="M43.38,51.3a.27.27,0,1,0,.27-.28A.28.28,0,0,0,43.38,51.3Z"/><path class="cls-2" d="M46.29,49.55a.48.48,0,0,0,.48.47.48.48,0,1,0,0-1A.48.48,0,0,0,46.29,49.55Z"/><rect class="cls-2" x="12.8" y="54.46" width="38.41" height="1.54"/><path class="cls-3" d="M43,42.47,32,34.54,21,42.47a2.19,2.19,0,0,0-.91,1.78v2a.49.49,0,0,0,.49.49H43.43a.49.49,0,0,0,.49-.49v-2A2.19,2.19,0,0,0,43,42.47Z"/><path class="cls-4" d="M31.19,11.79,29,13.87a15.48,15.48,0,0,0-4.92,11.32V46.71H40V25.19A15.48,15.48,0,0,0,35,13.87l-2.22-2.08A1.2,1.2,0,0,0,31.19,11.79Z"/><path class="cls-3" d="M32.59,47.47H31.41a.72.72,0,0,1-.72-.72V42.1A1.32,1.32,0,0,1,32,40.78h0a1.32,1.32,0,0,1,1.31,1.32v4.65A.72.72,0,0,1,32.59,47.47Z"/><circle class="cls-5" cx="32" cy="28.71" r="3.36"/><path class="cls-5" d="M32,25.35a3.36,3.36,0,1,1-3.36,3.36A3.35,3.35,0,0,1,32,25.35m0-1a4.36,4.36,0,1,0,4.36,4.36A4.36,4.36,0,0,0,32,24.35Z"/><path class="cls-1" d="M35.32,29a2.61,2.61,0,0,0,0-.56L31.72,32a5.42,5.42,0,0,0,.57,0Z"/><path class="cls-1" d="M33,31.89a3.25,3.25,0,0,0,1.38-.81,3.3,3.3,0,0,0,.81-1.38Z"/><path class="cls-1" d="M35,27.13a3.35,3.35,0,0,0-.57-.8l-4.76,4.75a3.45,3.45,0,0,0,.81.58Z"/></svg>