<svg id="Layer_1" data-name="Layer 1" xmlns="http://www.w3.org/2000/svg" viewBox="0 0 64 64"><defs><style>.cls-1{fill:#F4DFDF;}.cls-2{fill:#FC0707;}.cls-3{fill:#e5cccc;}.cls-4{fill:#DD1515;}.cls-5{fill:#fff;}</style></defs><title>startup, start up, business, star, winner</title><path class="cls-1" d="M9.39,39.52H21.29a1.39,1.39,0,0,1,1.39,1.39V56a0,0,0,0,1,0,0H8a0,0,0,0,1,0,0V40.91A1.39,1.39,0,0,1,9.39,39.52Z"/><path class="cls-1" d="M42.71,48.23H54.61A1.39,1.39,0,0,1,56,49.63V56a0,0,0,0,1,0,0H41.32a0,0,0,0,1,0,0V49.62A1.39,1.39,0,0,1,42.71,48.23Z"/><path class="cls-2" d="M22.08,28.5H41.92a2.33,2.33,0,0,1,2.33,2.33V56a0,0,0,0,1,0,0H19.75a0,0,0,0,1,0,0V30.83A2.33,2.33,0,0,1,22.08,28.5Z"/><rect class="cls-3" x="41.32" y="54" width="14.68" height="2"/><rect class="cls-3" x="8" y="54" width="14.68" height="2"/><rect class="cls-4" x="19.75" y="54" width="24.5" height="2"/><path class="cls-5" d="M32.52,36.67l1,1.95a.57.57,0,0,0,.44.31l2.15.32a.58.58,0,0,1,.32,1l-1.56,1.52a.56.56,0,0,0-.16.51L35,44.41a.58.58,0,0,1-.84.61l-1.92-1a.57.57,0,0,0-.54,0l-1.92,1a.58.58,0,0,1-.84-.61l.36-2.15a.56.56,0,0,0-.16-.51l-1.56-1.52a.58.58,0,0,1,.32-1l2.15-.32a.57.57,0,0,0,.44-.31l1-1.95A.58.58,0,0,1,32.52,36.67Z"/></svg>