<svg id="Layer_1" data-name="Layer 1" xmlns="http://www.w3.org/2000/svg" viewBox="0 0 64 64"><defs><style>.cls-1{fill:#ccd8e5;}.cls-2{fill:#dfe8f4;}.cls-3{fill:#ff5454;}.cls-4{fill:#fff;}</style></defs><title>startup, start up, business, thought, idea, money, cash</title><path class="cls-1" d="M52.1,24.17a18.41,18.41,0,0,0-36.68,2.24v0a11.28,11.28,0,0,1-1.55,5.92L12.08,35.3a2.18,2.18,0,0,0,.62,2.91l1.26.86a1.93,1.93,0,0,1,.77,1.14l1.54,6.92a3.93,3.93,0,0,0,3.43,3l3.72.39a2,2,0,0,1,1.79,2V56h24.7L48,42.88a9.65,9.65,0,0,1,1.33-6.6A18.29,18.29,0,0,0,52.1,24.17Z"/><circle class="cls-2" cx="33.83" cy="26.41" r="18.41"/><circle class="cls-3" cx="33.83" cy="26.41" r="9.78"/><path class="cls-4" d="M33.88,25.21h0a.79.79,0,0,1-.78-.54.8.8,0,0,1,.76-1.06.79.79,0,0,1,.63.32,1.18,1.18,0,0,0,.92.48h.14a1.14,1.14,0,0,0,1-1.75,3.22,3.22,0,0,0-1.16-1.07.58.58,0,0,1-.31-.51h0a1.2,1.2,0,0,0-1.2-1.2h0a1.19,1.19,0,0,0-1.2,1.2h0a.58.58,0,0,1-.31.51,3.2,3.2,0,0,0,1.46,6h.07a.8.8,0,0,1,.74,1.05.8.8,0,0,1-1.41.22,1.06,1.06,0,0,0-.85-.47h-.14a1.18,1.18,0,0,0-.95,1.88,3.16,3.16,0,0,0,1.08.94.58.58,0,0,1,.31.51h0a1.19,1.19,0,0,0,1.2,1.2h0a1.2,1.2,0,0,0,1.2-1.2h0a.58.58,0,0,1,.31-.51,3.2,3.2,0,0,0-1.46-6Z"/></svg>