<svg id="Layer_1" data-name="Layer 1" xmlns="http://www.w3.org/2000/svg" viewBox="0 0 64 64"><defs><style>.cls-1{fill:#DD1515;}.cls-2{fill:#F4DFDF;}.cls-3{fill:#FC0707;}</style></defs><title>startup, start up, business, target, woman, audience, client</title><path class="cls-1" d="M32.08,51.82A19.82,19.82,0,1,1,51.91,32,19.84,19.84,0,0,1,32.08,51.82Zm0-34.64A14.82,14.82,0,1,0,46.91,32,14.84,14.84,0,0,0,32.08,17.18Z"/><path class="cls-2" d="M32.08,17.18a2.5,2.5,0,0,1-2.5-2.5V10.42a2.5,2.5,0,0,1,5,0v4.26A2.5,2.5,0,0,1,32.08,17.18Z"/><path class="cls-2" d="M32.08,56.08a2.5,2.5,0,0,1-2.5-2.5V49.32a2.5,2.5,0,0,1,5,0v4.26A2.5,2.5,0,0,1,32.08,56.08Z"/><path class="cls-2" d="M17.26,32a2.5,2.5,0,0,1-2.5,2.5H10.5a2.5,2.5,0,0,1,0-5h4.26A2.5,2.5,0,0,1,17.26,32Z"/><path class="cls-2" d="M56.17,32a2.5,2.5,0,0,1-2.5,2.5H49.41a2.5,2.5,0,0,1,0-5h4.26A2.5,2.5,0,0,1,56.17,32Z"/><circle class="cls-2" cx="32" cy="32" r="12"/><path class="cls-3" d="M32,44a11.94,11.94,0,0,0,8.26-3.31,9.65,9.65,0,0,0-16.52,0A11.94,11.94,0,0,0,32,44Z"/><path class="cls-3" d="M38.32,33.25a.8.8,0,0,0,.81-.87c-.35-4.56-3.41-8.13-7.13-8.13s-6.78,3.57-7.13,8.13a.8.8,0,0,0,.81.87h1.63a3.38,3.38,0,0,1,1.93.66l.28.18a4.94,4.94,0,0,0,5,0l.28-.18a3.38,3.38,0,0,1,1.93-.66Z"/></svg>