<svg id="Layer_1" data-name="Layer 1" xmlns="http://www.w3.org/2000/svg" viewBox="0 0 64 64"><defs><style>.cls-1{fill:#F4DFDF;}.cls-2{fill:#e5cccc;}.cls-3{fill:#FC0707;}.cls-4{fill:#DD1515;}</style></defs><title>startup, start up, business, goal, line, finish</title><rect class="cls-1" x="11.68" y="20.12" width="40.64" height="22.74"/><rect class="cls-2" x="32" y="20.12" width="20.32" height="22.74"/><rect class="cls-3" x="11.16" y="20.12" width="3.79" height="3.79"/><rect class="cls-3" x="14.95" y="23.91" width="3.79" height="3.79"/><rect class="cls-3" x="14.95" y="23.91" width="3.79" height="3.79"/><rect class="cls-3" x="11.16" y="27.7" width="3.79" height="3.79"/><rect class="cls-3" x="14.95" y="31.49" width="3.79" height="3.79"/><rect class="cls-3" x="11.16" y="35.28" width="3.79" height="3.79"/><rect class="cls-3" x="14.95" y="39.07" width="3.79" height="3.79"/><rect class="cls-3" x="18.74" y="20.12" width="3.79" height="3.79"/><rect class="cls-3" x="22.53" y="23.91" width="3.79" height="3.79"/><rect class="cls-3" x="18.74" y="27.7" width="3.79" height="3.79"/><rect class="cls-3" x="22.53" y="31.49" width="3.79" height="3.79"/><rect class="cls-3" x="18.74" y="35.28" width="3.79" height="3.79"/><rect class="cls-3" x="22.53" y="39.07" width="3.79" height="3.79"/><rect class="cls-3" x="26.32" y="20.12" width="3.79" height="3.79"/><rect class="cls-3" x="30.11" y="23.91" width="3.79" height="3.79"/><rect class="cls-3" x="26.32" y="27.7" width="3.79" height="3.79"/><rect class="cls-3" x="30.11" y="31.49" width="3.79" height="3.79"/><rect class="cls-3" x="26.32" y="35.28" width="3.79" height="3.79"/><rect class="cls-3" x="30.11" y="39.07" width="3.79" height="3.79"/><rect class="cls-4" x="33.89" y="20.12" width="3.79" height="3.79"/><rect class="cls-4" x="37.68" y="23.91" width="3.79" height="3.79"/><rect class="cls-4" x="33.89" y="27.7" width="3.79" height="3.79"/><rect class="cls-4" x="37.68" y="31.49" width="3.79" height="3.79"/><rect class="cls-4" x="33.89" y="35.28" width="3.79" height="3.79"/><rect class="cls-4" x="37.68" y="39.07" width="3.79" height="3.79"/><rect class="cls-4" x="41.47" y="20.12" width="3.79" height="3.79"/><rect class="cls-4" x="45.26" y="23.91" width="3.79" height="3.79"/><rect class="cls-4" x="41.47" y="27.7" width="3.79" height="3.79"/><rect class="cls-4" x="45.26" y="31.49" width="3.79" height="3.79"/><rect class="cls-4" x="41.47" y="35.28" width="3.79" height="3.79"/><rect class="cls-4" x="45.26" y="39.07" width="3.79" height="3.79"/><rect class="cls-4" x="49.05" y="20.12" width="3.79" height="3.79"/><rect class="cls-4" x="49.05" y="27.7" width="3.79" height="3.79"/><rect class="cls-4" x="49.05" y="35.28" width="3.79" height="3.79"/><path class="cls-4" d="M13.38,15.56A2.69,2.69,0,0,0,8,15.22a2.63,2.63,0,0,0,.37,1.72,6.14,6.14,0,0,1,.88,3.18V56h2.84V20.12A5.52,5.52,0,0,1,12.92,17,2.62,2.62,0,0,0,13.38,15.56Z"/><path class="cls-3" d="M56,15.56a2.69,2.69,0,0,0-5.35-.34A2.63,2.63,0,0,0,51,16.94a6.14,6.14,0,0,1,.88,3.18V56h2.84V20.12A5.53,5.53,0,0,1,55.55,17,2.69,2.69,0,0,0,56,15.56Z"/></svg>