<svg id="Layer_1" data-name="Layer 1" xmlns="http://www.w3.org/2000/svg" viewBox="0 0 64 64"><defs><style>.cls-1{fill:#dd1515;}.cls-2{fill:#ff5454;}.cls-3{fill:#dfe8f4;}.cls-4{fill:#ccd8e5;}.cls-5{fill:#fff;}</style></defs><title>startup, start up, business, protection, insurance, finance</title><path class="cls-1" d="M35,56a5.12,5.12,0,0,1-4.46-5.16V34.17a1.5,1.5,0,0,1,1.5-1.5h0a1.5,1.5,0,0,1,1.5,1.5V50.93a2,2,0,0,0,1.63,2A2,2,0,0,0,37.42,51V49.5a1.5,1.5,0,0,1,1.5-1.5h0a1.5,1.5,0,0,1,1.5,1.5V51A5,5,0,0,1,35,56Z"/><path class="cls-2" d="M55.87,29.18a24.79,24.79,0,0,0-20.81-17.9,1.69,1.69,0,0,1-1.5-1.43l-.08-.56a1.49,1.49,0,0,0-3,0l-.08.56a1.69,1.69,0,0,1-1.5,1.43A24.79,24.79,0,0,0,8.13,29.18a1.68,1.68,0,0,0,2.24,2A4.83,4.83,0,0,1,12,30.88a5,5,0,0,1,3.77,1.71,1.65,1.65,0,0,0,2.47,0,5,5,0,0,1,7.53,0,1.65,1.65,0,0,0,2.47,0,5,5,0,0,1,7.54,0,1.65,1.65,0,0,0,2.47,0,5,5,0,0,1,7.53,0,1.65,1.65,0,0,0,2.47,0A5,5,0,0,1,52,30.88a4.83,4.83,0,0,1,1.62.27A1.68,1.68,0,0,0,55.87,29.18Z"/><path class="cls-3" d="M11.76,54.05a9.47,9.47,0,1,1,11.54,0A9.5,9.5,0,0,1,11.76,54.05Z"/><path class="cls-4" d="M12.86,52.62a7.68,7.68,0,1,1,9.34,0A7.68,7.68,0,0,1,12.86,52.62Z"/><path class="cls-5" d="M17.57,46h0a.63.63,0,0,1-.62-.43.64.64,0,0,1,.6-.84A.62.62,0,0,1,18,45a.94.94,0,0,0,.73.39h.12a.91.91,0,0,0,.78-1.4,2.59,2.59,0,0,0-.93-.84.47.47,0,0,1-.25-.41h0a1,1,0,0,0-.95-1h0a1,1,0,0,0-1,1h0a.47.47,0,0,1-.25.41,2.54,2.54,0,0,0,1.16,4.78h.06a.64.64,0,0,1,.19,1.24A.64.64,0,0,1,17,48.9a.86.86,0,0,0-.68-.37h-.11A.93.93,0,0,0,15.48,50a2.45,2.45,0,0,0,.85.75.47.47,0,0,1,.25.41h0a1,1,0,0,0,1,1h0a1,1,0,0,0,1-1h0a.46.46,0,0,1,.24-.41A2.54,2.54,0,0,0,17.57,46Z"/></svg>