<svg id="Layer_1" data-name="Layer 1" xmlns="http://www.w3.org/2000/svg" viewBox="0 0 64 64"><defs><style>.cls-1{fill:#dfe8f4;}.cls-2{fill:#ccd8e5;}.cls-3{fill:#ff5454;}.cls-4{fill:#fff;}.cls-5{fill:#dd1515;}</style></defs><title>startup, start up, business, message, envelope, email, mail</title><path class="cls-1" d="M16.37,23H47.63A8.37,8.37,0,0,1,56,31.37V53.12A2.88,2.88,0,0,1,53.12,56H10.88A2.88,2.88,0,0,1,8,53.12V31.37A8.37,8.37,0,0,1,16.37,23Z"/><path class="cls-2" d="M56,53.12V29.38A6.39,6.39,0,0,0,49.61,23H32.24c-2.43,6.73-4.61,13.43-4.61,14.19v4.14a2.6,2.6,0,0,0,1.29,2.24l19.23,11.1a10,10,0,0,0,5,1.33h0A2.88,2.88,0,0,0,56,53.12Z"/><path class="cls-3" d="M56,29.82a9.74,9.74,0,0,0-4.87-8.44L33,10.91a2,2,0,0,0-2,0L12.87,21.38A9.74,9.74,0,0,0,8,29.82s0,0,0,.06S8,30,8,30a2.57,2.57,0,0,0,1.29,2.23L31,44.79a2,2,0,0,0,2,0L54.71,32.25A2.57,2.57,0,0,0,56,30c0-.05,0-.09,0-.14S56,29.84,56,29.82Z"/><path class="cls-4" d="M48,28.68a2.35,2.35,0,0,0-2.35-2.35H18.36A2.35,2.35,0,0,0,16,28.68v7.45l15,8.66a2,2,0,0,0,2,0l15-8.66Z"/><path class="cls-5" d="M33.8,38.27a1.8,1.8,0,1,1-1.8-1.8A1.81,1.81,0,0,1,33.8,38.27Z"/><path class="cls-2" d="M40.77,26.75a8.77,8.77,0,1,0-14.44,6.68,5.28,5.28,0,0,1,2,4v.07A1.74,1.74,0,0,0,30,39.23h4a1.74,1.74,0,0,0,1.73-1.73h0a5,5,0,0,1,1.78-3.92A8.75,8.75,0,0,0,40.77,26.75Z"/><path class="cls-1" d="M35.71,37.5a5,5,0,0,1,1.78-3.92,8.75,8.75,0,0,0,3.28-6.83c0-.14,0-.28,0-.42H23.25a8.73,8.73,0,0,0,3.08,7.1,5.28,5.28,0,0,1,2,4v.07A1.74,1.74,0,0,0,30,39.23h4A1.74,1.74,0,0,0,35.71,37.5Z"/><path class="cls-3" d="M28.26,36.89a4.89,4.89,0,0,1,0,.54V38a1.25,1.25,0,0,0,1.26,1.25h4.9A1.25,1.25,0,0,0,35.71,38v-.55a4.89,4.89,0,0,1,0-.54Z"/></svg>