<svg width="18" height="18" viewBox="0 0 18 18" fill="none" xmlns="http://www.w3.org/2000/svg">
<path d="M10.3161 7.69482H9.89146C9.41372 8.1381 8.65281 8.42178 7.76807 8.42178C6.88332 8.42178 6.12244 8.1381 5.64468 7.69482H5.34389C3.80443 7.69482 2.5481 8.63459 2.5481 9.82253H13.0058C12.9882 8.65231 11.8026 7.69482 10.3162 7.69482H10.3161Z" fill="#DC2434"/>
<path d="M7.7681 1.57764C6.034 1.57764 4.61841 2.99611 4.61841 4.73373C4.61841 6.47136 6.034 7.88983 7.7681 7.88983C9.50221 7.88983 10.9178 6.47136 10.9178 4.73373C10.9177 2.99611 9.50215 1.57764 7.7681 1.57764ZM7.7681 7.18059C6.4233 7.18059 5.3262 6.08131 5.3262 4.73373C5.3262 4.52099 5.36157 4.32589 5.397 4.13087C5.6801 4.27274 6.21095 4.46777 6.79491 4.46777C7.2196 4.46777 7.67966 4.3614 8.12203 4.05993C8.17514 4.02449 9.23684 3.26204 10.1039 4.02449C10.1747 4.23723 10.21 4.48548 10.21 4.71601C10.21 6.08126 9.11296 7.1806 7.76812 7.1806L7.7681 7.18059Z" fill="#DC2434"/>
<path d="M15.1469 17.1631H13.4128C13.519 17.0212 13.5898 16.8439 13.5898 16.6489V11.0105C13.5898 10.5318 13.2005 10.1594 12.7404 10.1594H2.77815C2.30041 10.1594 1.92876 10.5494 1.92876 11.0105V16.6489C1.92876 16.8439 1.99955 17.0212 2.10571 17.1631H0.159269C0.0707944 17.1631 0 17.234 0 17.3227V17.3404C0 17.4291 0.0707915 17.5 0.159269 17.5H15.1469C15.2353 17.5 15.3061 17.4291 15.3061 17.3404V17.3227C15.3062 17.234 15.2354 17.163 15.1469 17.163V17.1631ZM7.76814 14.7517C7.23729 14.7517 6.79492 14.3261 6.79492 13.7765C6.79492 13.2446 7.21961 12.8013 7.76814 12.8013C8.29899 12.8013 8.74136 13.2269 8.74136 13.7765C8.74136 14.3084 8.29899 14.7517 7.76814 14.7517Z" fill="#DC2434"/>
<path d="M16.1732 3.04933C16.1555 2.99611 16.1555 2.94295 16.1908 2.87202C16.2085 2.8543 16.2262 2.8188 16.244 2.76565L16.2793 2.69471L16.1377 2.55284L15.9431 2.67699C15.9077 2.69471 15.8546 2.71243 15.8015 2.67699C15.7484 2.65927 15.713 2.60605 15.6954 2.53512C15.6954 2.5174 15.6954 2.5174 15.6777 2.49968L15.6246 2.34009H15.4299L15.3592 2.53511C15.3592 2.55283 15.3238 2.64149 15.253 2.67698C15.2176 2.6947 15.1645 2.6947 15.076 2.65926L14.8991 2.57061L14.7575 2.71248L14.846 2.87207C14.846 2.88979 14.8991 2.96073 14.8814 3.04938C14.8637 3.08482 14.8282 3.13804 14.7575 3.15576C14.7398 3.15576 14.7044 3.17347 14.6514 3.19119L14.5806 3.20891V3.38622L14.7575 3.43944C14.7929 3.43944 14.8637 3.47488 14.8991 3.54581C14.9168 3.59903 14.9168 3.65218 14.8814 3.72312C14.8637 3.74084 14.846 3.77634 14.8283 3.82949L14.7929 3.90043L14.9345 4.0423L15.1292 3.93593C15.1645 3.91821 15.2176 3.90049 15.2707 3.93593C15.3238 3.95364 15.3592 4.00686 15.3769 4.0778C15.3769 4.09552 15.3769 4.09552 15.3946 4.11323L15.4477 4.27283H15.6423L15.7131 4.0778C15.7131 4.06008 15.7485 3.97143 15.8193 3.93593C15.8546 3.91821 15.9077 3.91821 15.9962 3.95365L16.1732 4.04231L16.3147 3.90043L16.2263 3.74084C16.2263 3.72312 16.1732 3.65219 16.1909 3.56353C16.2086 3.52809 16.244 3.47488 16.3147 3.45716C16.3324 3.45716 16.3679 3.43944 16.4209 3.42172L16.4917 3.404V3.22669L16.3147 3.17348C16.2793 3.1557 16.2085 3.12026 16.1732 3.04933V3.04933ZM15.5361 3.75856C15.306 3.75856 15.1114 3.58125 15.076 3.36851V3.3153C15.076 3.06705 15.2884 2.85431 15.5361 2.85431C15.7662 2.85431 15.9608 3.03162 15.9962 3.24436V3.29757C15.9962 3.54582 15.7838 3.75856 15.5361 3.75856Z" fill="#DC2434"/>
<path d="M13.7491 1.80817C13.5368 1.80817 13.3599 1.98548 13.3599 2.19822C13.3599 2.41096 13.5368 2.58827 13.7491 2.58827C13.9614 2.58827 14.1384 2.41096 14.1384 2.19822C14.1561 1.98548 13.9792 1.80817 13.7491 1.80817Z" fill="#DC2434"/>
<path d="M15.5362 2.96069C15.3592 2.96069 15.2 3.10256 15.2 3.27988V3.2976C15.2 3.49262 15.3592 3.6345 15.5362 3.6345C15.7131 3.6345 15.8724 3.49263 15.8724 3.31531V3.29759C15.8724 3.12029 15.7131 2.96069 15.5362 2.96069Z" fill="#DC2434"/>
<path d="M17.4119 2.1805C17.0049 0.637918 15.4478 -0.301818 13.9084 0.0882611C12.3689 0.478311 11.4311 2.05639 11.838 3.59898C12.0327 4.32593 12.475 4.92879 13.059 5.30114L12.2981 6.45365L15.3416 5.67347C16.8634 5.28336 17.8012 3.72308 17.4119 2.18049L17.4119 2.1805ZM14.1738 2.88974C14.0145 2.80109 13.9791 2.97839 13.9791 2.97839L13.9084 3.22664H13.6253L13.5545 2.97839C13.5014 2.8188 13.3775 2.87202 13.3598 2.88974L13.1475 2.99611L12.9352 2.80109L13.059 2.58835C13.1298 2.44648 13.0059 2.41104 12.9705 2.39332L12.7405 2.32239V2.05642L12.9705 1.98549C13.1475 1.93227 13.0413 1.79046 13.0413 1.79046L12.9352 1.59544L13.1298 1.40041L13.3421 1.50679C13.5014 1.59544 13.5367 1.41813 13.5367 1.41813L13.6075 1.16989H13.8906L13.9614 1.41813C14.0145 1.57773 14.1384 1.52451 14.156 1.50679L14.3683 1.40041L14.563 1.59544L14.4391 1.80818C14.3683 1.95005 14.4922 1.98549 14.5276 2.00321L14.7577 2.07414V2.3401L14.5276 2.41104C14.3507 2.46426 14.4568 2.60606 14.4568 2.60606L14.563 2.8188L14.3683 3.01383L14.1738 2.88974ZM16.598 3.47489L16.5626 3.49261C16.4741 3.51033 16.3503 3.54582 16.3325 3.56354C16.3149 3.56354 16.2794 3.58126 16.2794 3.59898V3.6522L16.421 3.91816L16.1556 4.18412L15.9079 4.06003C15.8902 4.04231 15.8547 4.04231 15.8371 4.04231C15.8194 4.06003 15.8017 4.09553 15.8017 4.09553L15.7132 4.37921H15.3416L15.324 4.34377C15.324 4.34377 15.2886 4.21968 15.2709 4.14874L15.2532 4.11331C15.2532 4.09559 15.2355 4.06009 15.2178 4.06009C15.2001 4.04237 15.1647 4.06009 15.147 4.07781L15.1116 4.09553L14.8993 4.21962L14.6339 3.95366L14.6516 3.91822C14.687 3.84728 14.7578 3.72319 14.7578 3.70548C14.7754 3.68776 14.7754 3.65226 14.7754 3.63454C14.7578 3.61682 14.7401 3.59911 14.7223 3.59911L14.4569 3.51045V3.15583L14.4923 3.13811C14.5807 3.1204 14.7046 3.0849 14.7223 3.06718C14.74 3.06718 14.7754 3.04946 14.7754 3.03174V2.97852L14.6339 2.69473L14.8993 2.42876L15.147 2.55286C15.1647 2.57058 15.2001 2.57058 15.2178 2.57058C15.2355 2.55286 15.2532 2.51736 15.2532 2.51736L15.3417 2.23368H15.7132L15.7309 2.26912C15.7309 2.26912 15.7663 2.39321 15.784 2.46414L15.8017 2.49958C15.8017 2.5173 15.8194 2.5528 15.8371 2.5528C15.8548 2.57052 15.8902 2.5528 15.9079 2.53508L15.9432 2.51736L16.1555 2.39327L16.421 2.65923L16.4033 2.69467C16.3679 2.7656 16.2971 2.88969 16.2794 2.90741C16.2618 2.92512 16.2618 2.96063 16.2618 2.97834C16.2794 2.99606 16.2971 3.01378 16.3149 3.01378L16.5803 3.10244L16.598 3.47489Z" fill="#DC2434"/>
</svg>
