<svg width="18" height="18" viewBox="0 0 18 18" fill="none" xmlns="http://www.w3.org/2000/svg">
<g clip-path="url(#clip0_189_1066)">
<path d="M5.82422 13.6719H5.11329C4.92639 13.6721 4.74472 13.6098 4.59734 13.4948C4.44992 13.3798 4.34521 13.2189 4.29992 13.0375L4.18672 12.5855C4.00739 12.5254 3.83251 12.4528 3.66331 12.3683L3.26443 12.6079H3.26437C3.10413 12.7044 2.91614 12.7445 2.73049 12.7216C2.54479 12.6987 2.37212 12.6143 2.24007 12.4818L1.73757 11.979H1.73751C1.6049 11.847 1.5203 11.6743 1.49734 11.4886C1.47444 11.3029 1.51438 11.1148 1.61093 10.9545L1.85076 10.5553H1.8507C1.76593 10.3862 1.6933 10.2114 1.63332 10.0321L1.18204 9.91917C1.00049 9.87399 0.839272 9.76935 0.724151 9.62186C0.609023 9.47438 0.546584 9.2926 0.546876 9.10546V8.39452C0.546648 8.20733 0.609196 8.02549 0.724501 7.87801C0.8398 7.73059 1.00125 7.62606 1.18297 7.58117L1.63317 7.46826H1.63312C1.6931 7.28893 1.76573 7.11411 1.8505 6.94508L1.61067 6.54587H1.61073C1.51412 6.38545 1.47413 6.19724 1.4972 6.01136C1.52021 5.82554 1.60498 5.65275 1.73782 5.52076L2.23987 5.01849C2.37197 4.88605 2.54463 4.80168 2.73035 4.77889C2.91599 4.7561 3.10399 4.79615 3.26417 4.89271L3.66305 5.13225H3.66311C3.83231 5.04777 4.00719 4.97525 4.18652 4.91515L4.29971 4.46387C4.34477 4.28221 4.44937 4.12087 4.59685 4.00563C4.74433 3.89039 4.92617 3.82789 5.1133 3.82813H5.82424C6.01114 3.8279 6.19281 3.89022 6.34018 4.00524C6.48761 4.1202 6.59232 4.28113 6.63761 4.4625L6.7508 4.91453C6.93013 4.97463 7.10502 5.0472 7.27421 5.13169L7.67314 4.89214H7.6732C7.83338 4.79558 8.02137 4.75548 8.20702 4.77832C8.39267 4.80111 8.56539 4.88548 8.69744 5.01793L9.19994 5.52072H9.2C9.33261 5.65276 9.41722 5.82543 9.44017 6.01114C9.46307 6.1969 9.42314 6.38495 9.32658 6.54531L9.08676 6.94453H9.08681C9.17158 7.11349 9.24421 7.28832 9.30419 7.46765L9.75547 7.58056C9.93708 7.62573 10.0984 7.73043 10.2135 7.87798C10.3286 8.02552 10.391 8.20742 10.3906 8.39455V9.10549C10.3909 9.29268 10.3283 9.47452 10.213 9.622C10.0977 9.76943 9.93626 9.87396 9.75454 9.91885L9.30434 10.0318H9.3044C9.24441 10.2111 9.17178 10.3859 9.08702 10.5549L9.32684 10.9542H9.32678C9.4234 11.1146 9.46339 11.3028 9.44032 11.4887C9.4173 11.6745 9.33254 11.8473 9.19969 11.9793L8.69765 12.4815C8.56554 12.6139 8.39288 12.6983 8.20722 12.7211C8.02158 12.744 7.83364 12.704 7.67334 12.6075L7.27441 12.368V12.368C7.10522 12.4525 6.93034 12.5251 6.751 12.5851L6.63781 13.0364C6.59269 13.218 6.4881 13.3793 6.34062 13.4945C6.19314 13.6097 6.01136 13.6721 5.82422 13.6719L5.82422 13.6719ZM5.3121 12.5781H5.62502L5.76601 12.0148C5.79005 11.9181 5.84018 11.8298 5.91087 11.7594C5.98157 11.6891 6.07015 11.6394 6.16704 11.6159C6.46116 11.5445 6.7424 11.4279 7.00074 11.2704C7.08597 11.2184 7.18378 11.1908 7.28353 11.1904C7.38333 11.1901 7.48131 11.2171 7.56683 11.2685L8.06511 11.5673L8.28619 11.3459L7.98717 10.8479V10.8479C7.93579 10.7624 7.90879 10.6645 7.90907 10.5648C7.90936 10.4651 7.93687 10.3673 7.98877 10.2821C8.14656 10.0239 8.26334 9.74275 8.33483 9.44869C8.3583 9.35179 8.40786 9.26315 8.47804 9.1924C8.54828 9.12159 8.63652 9.07141 8.73319 9.04714L9.29687 8.9062V8.5938L8.73359 8.45275C8.63686 8.42854 8.54867 8.3783 8.47844 8.30749C8.4082 8.23674 8.3587 8.14809 8.33517 8.0512C8.26368 7.75714 8.14696 7.47602 7.98915 7.21779C7.93725 7.13257 7.90968 7.03482 7.9094 6.93512C7.90911 6.83538 7.93617 6.73745 7.98755 6.652L8.28657 6.15395L8.06549 5.93258L7.5672 6.23136C7.48164 6.28274 7.38372 6.30969 7.28391 6.30941C7.18416 6.30906 7.08635 6.28143 7.00112 6.22954C6.74272 6.07197 6.46148 5.95542 6.16742 5.88399C6.07052 5.86046 5.98194 5.81084 5.91125 5.74049C5.8405 5.67019 5.79043 5.58184 5.76633 5.48505L5.62522 4.92188H5.31225L5.17126 5.48516H5.17132C5.14722 5.58195 5.09709 5.67024 5.02639 5.74061C4.9557 5.8109 4.86712 5.86058 4.77022 5.8841C4.47617 5.95554 4.19493 6.0721 3.93652 6.2296C3.85125 6.28138 3.75349 6.30895 3.65374 6.30929C3.55399 6.30958 3.456 6.28269 3.37044 6.23148L2.87216 5.93269L2.65108 6.15407L2.95009 6.65212V6.65206C3.00148 6.73757 3.02848 6.83549 3.02825 6.93518C3.02797 7.03493 3.00039 7.13268 2.9485 7.21791C2.79071 7.47608 2.67398 7.75726 2.60244 8.05132C2.57896 8.14822 2.52946 8.23686 2.45922 8.30761C2.38898 8.37842 2.30075 8.4286 2.20407 8.45287L1.64062 8.5938V8.90621L2.2039 9.04726C2.30063 9.07147 2.38881 9.12171 2.45905 9.19252C2.52929 9.26327 2.57879 9.35192 2.60232 9.44881C2.67381 9.74287 2.79053 10.024 2.94834 10.2822C3.00023 10.3674 3.0278 10.4652 3.02809 10.5649C3.02837 10.6646 3.00132 10.7626 2.94993 10.848L2.65091 11.3461L2.872 11.5674L3.37028 11.2686C3.45584 11.2174 3.55383 11.1904 3.65358 11.1908C3.75332 11.1911 3.85114 11.2186 3.93636 11.2705C4.19476 11.428 4.476 11.5446 4.77006 11.616C4.86696 11.6395 4.95555 11.6892 5.02623 11.7595C5.09699 11.8298 5.14706 11.9182 5.17116 12.015L5.3121 12.5781ZM8.42666 11.2055L8.42609 11.206L8.42666 11.2055ZM2.51006 11.2051L2.51063 11.2056L2.51006 11.2051ZM9.48964 8.85788L9.48913 8.85817L9.48964 8.85788ZM1.44825 8.64181L1.44773 8.64209L1.44825 8.64181ZM8.42681 6.29447L8.42738 6.29499L8.42681 6.29447ZM2.51108 6.2939L2.51051 6.29447L2.51108 6.2939Z" fill="#DC2434"/>
<path d="M5.46876 10.6554C4.96336 10.6554 4.47869 10.4547 4.12134 10.0973C3.76399 9.73997 3.56323 9.25531 3.56323 8.74989C3.56323 8.24448 3.76399 7.75981 4.12134 7.40246C4.47869 7.04511 4.96335 6.84436 5.46876 6.84436C5.97418 6.84436 6.45884 7.04511 6.81619 7.40246C7.17354 7.75981 7.3743 8.24448 7.3743 8.74989C7.37373 9.25507 7.17275 9.73944 6.81552 10.0966C6.45834 10.4539 5.97396 10.6548 5.46878 10.6554L5.46876 10.6554ZM5.46876 7.93811C5.25348 7.93811 5.04698 8.02362 4.89478 8.17589C4.74251 8.32811 4.657 8.53461 4.657 8.74988C4.657 8.96514 4.7425 9.17166 4.89478 9.32386C5.047 9.47613 5.2535 9.56164 5.46876 9.56164C5.68403 9.56164 5.89054 9.47614 6.04275 9.32386C6.19501 9.17164 6.28053 8.96514 6.28053 8.74988C6.2803 8.53466 6.19468 8.32833 6.04247 8.17617C5.89031 8.02395 5.68398 7.93833 5.46876 7.93811Z" fill="#DC2434"/>
<path d="M13.6719 9.29688H9.84377C9.64838 9.29688 9.46786 9.19263 9.37015 9.02344C9.27245 8.85424 9.27245 8.64576 9.37015 8.47656C9.46784 8.30737 9.64837 8.20312 9.84377 8.20312H13.6719C13.8673 8.20312 14.0478 8.30737 14.1455 8.47656C14.2432 8.64576 14.2432 8.85424 14.1455 9.02344C14.0478 9.19263 13.8673 9.29688 13.6719 9.29688Z" fill="#DC2434"/>
<path d="M14.2186 4.37499C13.6384 4.37499 13.082 4.14451 12.6717 3.73429C12.2615 3.32408 12.031 2.76763 12.031 2.18744C12.031 1.60724 12.2615 1.05084 12.6717 0.640582C13.0819 0.230324 13.6384 -0.00012207 14.2186 -0.00012207C14.7988 -0.00012207 15.3552 0.230368 15.7654 0.640582C16.1757 1.0508 16.4061 1.60724 16.4061 2.18744C16.4055 2.76742 16.1748 3.32345 15.7647 3.73356C15.3547 4.14366 14.7986 4.37432 14.2186 4.37494L14.2186 4.37499ZM14.2186 1.09374C13.9285 1.09374 13.6503 1.20899 13.4452 1.41413C13.2401 1.6192 13.1248 1.89743 13.1248 2.18749C13.1248 2.47756 13.2401 2.75579 13.4452 2.96086C13.6503 3.16599 13.9285 3.28124 14.2186 3.28124C14.5086 3.28124 14.7869 3.166 14.9919 2.96086C15.1971 2.75579 15.3123 2.47756 15.3123 2.18749C15.312 1.89753 15.1966 1.61949 14.9916 1.41446C14.7866 1.20943 14.5085 1.09408 14.2186 1.09374V1.09374Z" fill="#DC2434"/>
<path d="M16.4063 7.10935H12.0313C11.8862 7.10935 11.7471 7.05175 11.6446 6.94916C11.542 6.84662 11.4844 6.70752 11.4844 6.56247V6.0156C11.4844 5.29041 11.7725 4.59492 12.2853 4.08214C12.7981 3.56933 13.4936 3.28125 14.2187 3.28125C14.9439 3.28125 15.6394 3.56933 16.1522 4.08214C16.665 4.59495 16.9531 5.29044 16.9531 6.0156V6.56247C16.9531 6.70751 16.8955 6.84661 16.7929 6.94916C16.6903 7.05176 16.5512 7.10935 16.4062 7.10935H16.4063ZM12.5781 6.0156H15.8594C15.8594 5.42948 15.5467 4.88784 15.0391 4.59474C14.5314 4.3017 13.9061 4.3017 13.3984 4.59474C12.8908 4.88784 12.5781 5.42946 12.5781 6.0156Z" fill="#DC2434"/>
<path d="M14.2186 14.7656C13.6384 14.7656 13.082 14.5351 12.6717 14.1249C12.2615 13.7147 12.031 13.1583 12.031 12.5781C12.031 11.9979 12.2615 11.4415 12.6717 11.0312C13.0819 10.6209 13.6384 10.3905 14.2186 10.3905C14.7988 10.3905 15.3552 10.621 15.7654 11.0312C16.1757 11.4414 16.4061 11.9979 16.4061 12.5781C16.4055 13.158 16.1748 13.7141 15.7647 14.1242C15.3547 14.5343 14.7986 14.7649 14.2186 14.7656L14.2186 14.7656ZM14.2186 11.4844C13.9285 11.4844 13.6503 11.5996 13.4452 11.8048C13.2401 12.0098 13.1248 12.2881 13.1248 12.5781C13.1248 12.8682 13.2401 13.1464 13.4452 13.3515C13.6503 13.5566 13.9285 13.6719 14.2186 13.6719C14.5086 13.6719 14.7869 13.5566 14.9919 13.3515C15.1971 13.1464 15.3123 12.8682 15.3123 12.5781C15.312 12.2882 15.1966 12.0101 14.9916 11.8051C14.7866 11.6001 14.5085 11.4847 14.2186 11.4844Z" fill="#DC2434"/>
<path d="M16.4063 17.5H12.0313C11.8862 17.5 11.7471 17.4424 11.6446 17.3398C11.542 17.2372 11.4844 17.0981 11.4844 16.9531V16.4062C11.4844 15.681 11.7725 14.9855 12.2853 14.4728C12.7981 13.96 13.4936 13.6719 14.2187 13.6719C14.9439 13.6719 15.6394 13.96 16.1522 14.4728C16.665 14.9856 16.9531 15.6811 16.9531 16.4062V16.9531C16.9531 17.0981 16.8955 17.2372 16.7929 17.3398C16.6903 17.4424 16.5512 17.5 16.4062 17.5H16.4063ZM12.5781 16.4062H15.8594C15.8594 15.8201 15.5467 15.2785 15.0391 14.9854C14.5314 14.6923 13.9061 14.6923 13.3984 14.9854C12.8908 15.2785 12.5781 15.8201 12.5781 16.4062Z" fill="#DC2434"/>
<path d="M14.2188 11.4844C14.0737 11.4844 13.9346 11.4268 13.8321 11.3242C13.7295 11.2217 13.6719 11.0826 13.6719 10.9375V6.56252C13.6719 6.36713 13.7761 6.18661 13.9453 6.0889C14.1145 5.9912 14.323 5.9912 14.4922 6.0889C14.6614 6.18659 14.7656 6.36712 14.7656 6.56252V10.9375C14.7656 11.0826 14.708 11.2217 14.6054 11.3242C14.5029 11.4268 14.3638 11.4844 14.2188 11.4844Z" fill="#DC2434"/>
</g>
<defs>
<clipPath id="clip0_189_1066">
<rect width="17.5" height="17.5" fill="white"/>
</clipPath>
</defs>
</svg>
