<svg id="Layer_1" data-name="Layer 1" xmlns="http://www.w3.org/2000/svg" viewBox="0 0 64 64"><defs><style>.cls-1{fill:#dfe8f4;}.cls-2{fill:#dd1515;}.cls-3{fill:#ccd8e5;}.cls-4{fill:#ff5454;}</style></defs><title>warning, signs, sign, alert, watch your step</title><path class="cls-1" d="M55.52,48,35,12.5a3.47,3.47,0,0,0-6,0L8.48,48a3.48,3.48,0,0,0,3,5.22h41A3.48,3.48,0,0,0,55.52,48Z"/><path class="cls-1" d="M55.52,48,35,12.5a3.47,3.47,0,0,0-6,0L8.48,48a3.48,3.48,0,0,0,3,5.22h41A3.48,3.48,0,0,0,55.52,48Z"/><path class="cls-2" d="M39.25,46.46a1.15,1.15,0,0,0-1.15-1.14h-5A1.14,1.14,0,0,0,32,46.46V47H9.1v5.25a3.45,3.45,0,0,0,2.39,1h41a3.48,3.48,0,0,0,3-5.22l-.58-1H39.25Z"/><path class="cls-3" d="M32,17.23l17.91,31H14.09L32,17.23m0-6.47a3.44,3.44,0,0,0-3,1.74L8.48,48a3.48,3.48,0,0,0,3,5.22h41a3.48,3.48,0,0,0,3-5.22L35,12.5a3.44,3.44,0,0,0-3-1.74Z"/><path class="cls-2" d="M32,13.75a.47.47,0,0,1,.43.24l20.5,35.52a.45.45,0,0,1,0,.5.45.45,0,0,1-.42.24h-41a.45.45,0,0,1-.42-.24.45.45,0,0,1,0-.5L31.57,14a.47.47,0,0,1,.43-.24m0-3a3.44,3.44,0,0,0-3,1.74L8.48,48a3.48,3.48,0,0,0,3,5.22h41a3.48,3.48,0,0,0,3-5.22L35,12.5a3.44,3.44,0,0,0-3-1.74Z"/><path class="cls-4" d="M32,11.51a2.68,2.68,0,0,1,2.36,1.37L54.87,48.39a2.74,2.74,0,0,1-2.36,4.1h-41a2.74,2.74,0,0,1-2.36-4.1L29.64,12.88A2.68,2.68,0,0,1,32,11.51m0-.75a3.44,3.44,0,0,0-3,1.74L8.48,48a3.48,3.48,0,0,0,3,5.22h41a3.48,3.48,0,0,0,3-5.22L35,12.5a3.44,3.44,0,0,0-3-1.74Z"/><path class="cls-4" d="M32.92,33a1.79,1.79,0,1,0-1-2.31A1.78,1.78,0,0,0,32.92,33Z"/><path class="cls-4" d="M35.9,36.63l-1.34-.52a.52.52,0,0,1-.31-.35l-.13-.54a4.94,4.94,0,0,0-4.41-3.78l-2-.17a1.74,1.74,0,0,0-1.56.72L25,33.41a.55.55,0,0,0,.33.89.57.57,0,0,0,.47-.13L27.05,33a.87.87,0,0,1,.76-.19l1.2.3L27.37,34.9a7.37,7.37,0,0,0-1.56,2.62L25.3,39l-2.12-1.17a.74.74,0,0,0-1.06.38.75.75,0,0,0,.31.91l3.15,1.82a.88.88,0,0,0,1.27-.44l.67-1.72,2.36,7a.54.54,0,0,0,.32.34.55.55,0,0,0,.75-.57l-.73-6.79a1.67,1.67,0,0,1,.39-1.25l1.65-2,.61,1a1.83,1.83,0,0,0,1.2.84l1.53.34a.54.54,0,0,0,.6-.32A.53.53,0,0,0,35.9,36.63Z"/></svg>