<svg id="Layer_1" data-name="Layer 1" xmlns="http://www.w3.org/2000/svg" viewBox="0 0 64 64"><defs><style>.cls-1{fill:#dfe8f4;}.cls-2{fill:#ff5454;}.cls-3{fill:#ccd8e5;}.cls-4{fill:#dd1515;}</style></defs><title>warning, signs, sign, alert, water</title><path class="cls-1" d="M55.52,48,35,12.5a3.47,3.47,0,0,0-6,0L8.48,48a3.48,3.48,0,0,0,3,5.22h41A3.48,3.48,0,0,0,55.52,48Z"/><path class="cls-1" d="M55.52,48,35,12.5a3.47,3.47,0,0,0-6,0L8.48,48a3.48,3.48,0,0,0,3,5.22h41A3.48,3.48,0,0,0,55.52,48Z"/><path class="cls-2" d="M25.51,42.52a4.61,4.61,0,0,0-5-4.16l.12,1.32a3.27,3.27,0,0,1,3.55,3h0a4.61,4.61,0,0,0,5,4.16l-.12-1.33a3.28,3.28,0,0,1-3.56-3Z"/><path class="cls-2" d="M23,44.67a3.56,3.56,0,0,0-3.87-3.22l.09,1A2.54,2.54,0,0,1,22,44.77h0A3.57,3.57,0,0,0,25.88,48l-.1-1A2.53,2.53,0,0,1,23,44.67Z"/><path class="cls-3" d="M32,17.23l17.91,31H14.09L32,17.23m0-6.47a3.44,3.44,0,0,0-3,1.74L8.48,48a3.48,3.48,0,0,0,3,5.22h41a3.48,3.48,0,0,0,3-5.22L35,12.5a3.44,3.44,0,0,0-3-1.74Z"/><path class="cls-4" d="M32,13.75a.47.47,0,0,1,.43.24l20.5,35.52a.45.45,0,0,1,0,.5.45.45,0,0,1-.42.24h-41a.45.45,0,0,1-.42-.24.45.45,0,0,1,0-.5L31.57,14a.47.47,0,0,1,.43-.24m0-3a3.44,3.44,0,0,0-3,1.74L8.48,48a3.48,3.48,0,0,0,3,5.22h41a3.48,3.48,0,0,0,3-5.22L35,12.5a3.44,3.44,0,0,0-3-1.74Z"/><path class="cls-2" d="M32,11.51a2.68,2.68,0,0,1,2.36,1.37L54.87,48.39a2.74,2.74,0,0,1-2.36,4.1h-41a2.74,2.74,0,0,1-2.36-4.1L29.64,12.88A2.68,2.68,0,0,1,32,11.51m0-.75a3.44,3.44,0,0,0-3,1.74L8.48,48a3.48,3.48,0,0,0,3,5.22h41a3.48,3.48,0,0,0,3-5.22L35,12.5a3.44,3.44,0,0,0-3-1.74Z"/><path class="cls-4" d="M31.07,32.13a2.18,2.18,0,1,0-3.06.32A2.19,2.19,0,0,0,31.07,32.13Z"/><path class="cls-4" d="M36.18,29.85a.63.63,0,0,0-.89.1l-1.1,1.36a.65.65,0,0,1-.52.23L33,31.49a6,6,0,0,0-6,3.73L26,37.52a2.1,2.1,0,0,0,.26,2.08l1.21,1.86a.67.67,0,0,0,1.16-.05.68.68,0,0,0,0-.59l-.87-1.94a1,1,0,0,1,.05-1l.79-1.29,1.47,2.57A9.23,9.23,0,0,0,32.6,42l1.51,1.13-2.14,2a.91.91,0,0,0,1.22,1.35l3.27-3a1.08,1.08,0,0,0,0-1.64l-1.75-1.41,3.56-.55a.76.76,0,0,1,.67.25l2.37,2.73a.73.73,0,0,0,.92.15h0a.73.73,0,0,0,.28-1l-2.2-4a1.27,1.27,0,0,0-.07-.12l-.06-.11h0a.63.63,0,0,0-.36-.23l-4.18-.29a2,2,0,0,1-1.31-.9L32.6,33.74,34,33.4a2.27,2.27,0,0,0,1.42-1.08l.95-1.66A.63.63,0,0,0,36.18,29.85Z"/></svg>