<svg id="Layer_1" data-name="Layer 1" xmlns="http://www.w3.org/2000/svg" viewBox="0 0 64 64"><defs><style>.cls-1{fill:#dfe8f4;}.cls-2{fill:#dd1515;}.cls-3{fill:#ccd8e5;}.cls-4{fill:#ff5454;}</style></defs><title>warning, signs, sign, alert, acid</title><path class="cls-1" d="M55.52,48,35,12.5a3.47,3.47,0,0,0-6,0L8.48,48a3.48,3.48,0,0,0,3,5.22h41A3.48,3.48,0,0,0,55.52,48Z"/><path class="cls-1" d="M55.52,48,35,12.5a3.47,3.47,0,0,0-6,0L8.48,48a3.48,3.48,0,0,0,3,5.22h41A3.48,3.48,0,0,0,55.52,48Z"/><path class="cls-2" d="M47.87,37.32H44.28a4.61,4.61,0,0,1-2.12-.52l-2.45-1.28a6.22,6.22,0,0,0-2.83-.69H34.31a1.25,1.25,0,0,0-1,.47.8.8,0,0,0,.56,1.36h1.54a.33.33,0,0,1,.33.33.33.33,0,0,1-.33.33H28.3a.78.78,0,0,0-.78.79v.26a.79.79,0,0,0,.78.79h3.81a.28.28,0,1,1,0,.55h-5.7a.79.79,0,0,0-.79.79v.26a.79.79,0,0,0,.79.79h5.7a.28.28,0,1,1,0,.55H26.93a.79.79,0,0,0-.78.79v.26a.78.78,0,0,0,.78.79h5.18a.27.27,0,0,1,.28.28.28.28,0,0,1-.28.28H29.32a.78.78,0,0,0-.78.78v.27a.78.78,0,0,0,.78.78H42.39a2.31,2.31,0,0,0,1.37-.44,2.46,2.46,0,0,1,1.4-.4h6.59Z"/><path class="cls-3" d="M32,17.23l17.91,31H14.09L32,17.23m0-6.47a3.44,3.44,0,0,0-3,1.74L8.48,48a3.48,3.48,0,0,0,3,5.22h41a3.48,3.48,0,0,0,3-5.22L35,12.5a3.44,3.44,0,0,0-3-1.74Z"/><path class="cls-2" d="M32,13.75a.47.47,0,0,1,.43.24l20.5,35.52a.45.45,0,0,1,0,.5.45.45,0,0,1-.42.24h-41a.45.45,0,0,1-.42-.24.45.45,0,0,1,0-.5L31.57,14a.47.47,0,0,1,.43-.24m0-3a3.44,3.44,0,0,0-3,1.74L8.48,48a3.48,3.48,0,0,0,3,5.22h41a3.48,3.48,0,0,0,3-5.22L35,12.5a3.44,3.44,0,0,0-3-1.74Z"/><path class="cls-4" d="M32,11.51a2.68,2.68,0,0,1,2.36,1.37L54.87,48.39a2.74,2.74,0,0,1-2.36,4.1h-41a2.74,2.74,0,0,1-2.36-4.1L29.64,12.88A2.68,2.68,0,0,1,32,11.51m0-.75a3.44,3.44,0,0,0-3,1.74L8.48,48a3.48,3.48,0,0,0,3,5.22h41a3.48,3.48,0,0,0,3-5.22L35,12.5a3.44,3.44,0,0,0-3-1.74Z"/><path class="cls-2" d="M34.52,30.2l1-2.38a.55.55,0,0,0-.3-.71.54.54,0,0,0-.7.3l-.06.13L28.6,25.13a1.14,1.14,0,1,0-.88,2.11l5.85,2.41-.06.14a.55.55,0,0,0,1,.41Z"/><path class="cls-4" d="M36.91,31.94l-1.17-2.1a.24.24,0,0,0-.41,0l-1.17,2.1a1.59,1.59,0,0,0,.4,2h0a1.58,1.58,0,0,0,1.95,0h0A1.56,1.56,0,0,0,36.91,31.94Z"/><path class="cls-4" d="M30.55,28.41l3,1.24-.06.14a.55.55,0,0,0,1,.41l.74-1.79Z"/></svg>