<svg id="Layer_1" data-name="Layer 1" xmlns="http://www.w3.org/2000/svg" viewBox="0 0 64 64"><defs><style>.cls-1{fill:#dfe8f4;}.cls-2{fill:#dd1515;}.cls-3{fill:#ff5454;}.cls-4{fill:#ccd8e5;}</style></defs><title>warning, signs, sign, alert, slide</title><path class="cls-1" d="M55.52,48,35,12.5a3.47,3.47,0,0,0-6,0L8.48,48a3.48,3.48,0,0,0,3,5.22h41A3.48,3.48,0,0,0,55.52,48Z"/><path class="cls-1" d="M55.52,48,35,12.5a3.47,3.47,0,0,0-6,0L8.48,48a3.48,3.48,0,0,0,3,5.22h41A3.48,3.48,0,0,0,55.52,48Z"/><path class="cls-2" d="M21.12,33.38,17,37.25l-7.38,12,1.87,3.24,43.38-1.37S21.5,33.62,21.12,33.38Z"/><path class="cls-3" d="M30.84,35.88,20,30.18l-.28.41c.13.08,8.38,4.41,10.9,5.74Z"/><path class="cls-3" d="M19.58,28.8c2.53,1.34,7.51,3.95,9.38,4.93l.23-.44-9.36-4.92Z"/><path class="cls-3" d="M20.31,27.54c1.93,1,8.16,4.3,10.3,5.42l.23-.44L20.55,27.11Z"/><path class="cls-4" d="M32,17.23l17.91,31H14.09L32,17.23m0-6.47a3.44,3.44,0,0,0-3,1.74L8.48,48a3.48,3.48,0,0,0,3,5.22h41a3.48,3.48,0,0,0,3-5.22L35,12.5a3.44,3.44,0,0,0-3-1.74Z"/><path class="cls-2" d="M32,13.75a.47.47,0,0,1,.43.24l20.5,35.52a.45.45,0,0,1,0,.5.45.45,0,0,1-.42.24h-41a.45.45,0,0,1-.42-.24.45.45,0,0,1,0-.5L31.57,14a.47.47,0,0,1,.43-.24m0-3a3.44,3.44,0,0,0-3,1.74L8.48,48a3.48,3.48,0,0,0,3,5.22h41a3.48,3.48,0,0,0,3-5.22L35,12.5a3.44,3.44,0,0,0-3-1.74Z"/><path class="cls-3" d="M32,11.51a2.68,2.68,0,0,1,2.36,1.37L54.87,48.39a2.74,2.74,0,0,1-2.36,4.1h-41a2.74,2.74,0,0,1-2.36-4.1L29.64,12.88A2.68,2.68,0,0,1,32,11.51m0-.75a3.44,3.44,0,0,0-3,1.74L8.48,48a3.48,3.48,0,0,0,3,5.22h41a3.48,3.48,0,0,0,3-5.22L35,12.5a3.44,3.44,0,0,0-3-1.74Z"/><path class="cls-3" d="M33.66,34.55A1.13,1.13,0,1,0,33,36,1.13,1.13,0,0,0,33.66,34.55Z"/><path class="cls-3" d="M33.84,32.3a.33.33,0,0,0-.18.43l.34.85a.3.3,0,0,1,0,.29l-.19.3a3.68,3.68,0,0,0-.34.69,3.17,3.17,0,0,0,.52,3l.82,1a1.1,1.1,0,0,0,1,.41L37,39.2a.35.35,0,0,0,0-.7l-1.11-.09a.57.57,0,0,1-.42-.27L35,37.45l1.55,0A4.77,4.77,0,0,0,38.48,37l.9-.41.38,1.49a.48.48,0,0,0,.64.33.49.49,0,0,0,.28-.55l-.53-2.24a.56.56,0,0,0-.76-.4l-1.09.44L39,33.9a.42.42,0,0,1,.29-.24l1.84-.39a.39.39,0,0,0,.31-.38h0a.4.4,0,0,0-.39-.38H38.48a.31.31,0,0,0-.2.11l-1.19,1.83a1,1,0,0,1-.74.37l-1.64.1.19-.71a1.24,1.24,0,0,0-.13-.92l-.52-.86A.33.33,0,0,0,33.84,32.3Z"/></svg>