<svg id="Layer_1" data-name="Layer 1" xmlns="http://www.w3.org/2000/svg" viewBox="0 0 64 64"><defs><style>.cls-1{fill:#F4DFDF;}.cls-2{fill:#e5cccc;}.cls-3{fill:#DD1515;}.cls-4{fill:#FC0707;}</style></defs><title>warning, signs, sign, alert, danger, lethal, poison, deadly</title><path class="cls-1" d="M55.52,48,35,12.5a3.47,3.47,0,0,0-6,0L8.48,48a3.48,3.48,0,0,0,3,5.22h41A3.48,3.48,0,0,0,55.52,48Z"/><path class="cls-1" d="M55.52,48,35,12.5a3.47,3.47,0,0,0-6,0L8.48,48a3.48,3.48,0,0,0,3,5.22h41A3.48,3.48,0,0,0,55.52,48Z"/><path class="cls-2" d="M32,17.23l17.91,31H14.09L32,17.23m0-6.47a3.44,3.44,0,0,0-3,1.74L8.48,48a3.48,3.48,0,0,0,3,5.22h41a3.48,3.48,0,0,0,3-5.22L35,12.5a3.44,3.44,0,0,0-3-1.74Z"/><path class="cls-3" d="M32,13.75a.47.47,0,0,1,.43.24l20.5,35.52a.45.45,0,0,1,0,.5.45.45,0,0,1-.42.24h-41a.45.45,0,0,1-.42-.24.45.45,0,0,1,0-.5L31.57,14a.47.47,0,0,1,.43-.24m0-3a3.44,3.44,0,0,0-3,1.74L8.48,48a3.48,3.48,0,0,0,3,5.22h41a3.48,3.48,0,0,0,3-5.22L35,12.5a3.44,3.44,0,0,0-3-1.74Z"/><path class="cls-4" d="M32,11.51a2.68,2.68,0,0,1,2.36,1.37L54.87,48.39a2.74,2.74,0,0,1-2.36,4.1h-41a2.74,2.74,0,0,1-2.36-4.1L29.64,12.88A2.68,2.68,0,0,1,32,11.51m0-.75a3.44,3.44,0,0,0-3,1.74L8.48,48a3.48,3.48,0,0,0,3,5.22h41a3.48,3.48,0,0,0,3-5.22L35,12.5a3.44,3.44,0,0,0-3-1.74Z"/><path class="cls-4" d="M39.19,44.29a1.38,1.38,0,0,0-.1.49l-13.48-5.2a1.29,1.29,0,0,0,.26-.42A1.47,1.47,0,1,0,24,40a1.47,1.47,0,1,0-1.06,2.75,1.46,1.46,0,0,0,1.9-.84,1.43,1.43,0,0,0,.1-.49l13.48,5.19a1.24,1.24,0,0,0-.26.43,1.46,1.46,0,0,0,.84,1.9A1.47,1.47,0,1,0,40,46.19a1.47,1.47,0,1,0,1.06-2.75A1.47,1.47,0,0,0,39.19,44.29Z"/><path class="cls-4" d="M24.81,44.29a1.38,1.38,0,0,1,.1.49l13.48-5.2a1.29,1.29,0,0,1-.26-.42A1.47,1.47,0,1,1,40,40a1.47,1.47,0,1,1,1.06,2.75,1.46,1.46,0,0,1-1.9-.84,1.43,1.43,0,0,1-.1-.49L25.61,46.61a1.24,1.24,0,0,1,.26.43,1.46,1.46,0,0,1-.84,1.9A1.47,1.47,0,1,1,24,46.19a1.47,1.47,0,1,1-1.06-2.75A1.47,1.47,0,0,1,24.81,44.29Z"/><path class="cls-3" d="M40.86,35.08c0-3.88-4-7-8.86-7s-8.86,3.15-8.86,7A6,6,0,0,0,24.61,39a3.29,3.29,0,0,1,.66,1.2,3.65,3.65,0,0,0,1.93,2.45,1.49,1.49,0,0,1,1.07,1.24,2.09,2.09,0,0,0,2.09,1.92h3.4a2,2,0,0,0,2-1.9,1.48,1.48,0,0,1,1-1.25,3.66,3.66,0,0,0,2-2.5A3.24,3.24,0,0,1,39.39,39,6,6,0,0,0,40.86,35.08ZM25.15,39.54s0,0,0,0S25.16,39.6,25.15,39.54Zm13.66,0s0,0,0,0S38.82,39.64,38.81,39.58Z"/><path class="cls-1" d="M31,38.87a2.07,2.07,0,1,1-4,1c-.27-1.11.53-1.71,1.64-2S30.76,37.76,31,38.87Z"/><path class="cls-1" d="M33,38.87a2.07,2.07,0,0,0,4,1c.27-1.11-.53-1.71-1.64-2S33.24,37.76,33,38.87Z"/><path class="cls-1" d="M32.72,41.92c0,.24-.32-.14-.72-.14s-.72.38-.72.14a.72.72,0,0,1,1.44,0Z"/><path class="cls-4" d="M26.3,35.08h0a1.08,1.08,0,0,1-1-1.38,6.59,6.59,0,0,1,5.51-4.26A1.08,1.08,0,0,1,32,30.51h0a1.06,1.06,0,0,1-.9,1.06,4.42,4.42,0,0,0-3.76,2.72A1.09,1.09,0,0,1,26.3,35.08Z"/></svg>