<svg id="Layer_1" data-name="Layer 1" xmlns="http://www.w3.org/2000/svg" viewBox="0 0 64 64"><defs><style>.cls-1{fill:#dd1515;}.cls-2{fill:#fff;}.cls-3{fill:#ff5454;}.cls-4{fill:#ccd8e5;}</style></defs><title>warning, signs, sign, alert, explosion, escape</title><rect class="cls-1" x="8" y="8" width="48" height="48" rx="3.12"/><path class="cls-2" d="M33.25,12.69h16.9a1.49,1.49,0,0,1,1.49,1.49V45.36a0,0,0,0,1,0,0H32a0,0,0,0,1,0,0V13.95A1.26,1.26,0,0,1,33.25,12.69Z"/><path class="cls-3" d="M36.52,56H11.66L32,45.36H51.63L50,48.15A15.57,15.57,0,0,1,36.52,56Z"/><polygon class="cls-1" points="40.02 45.36 28.18 56 33.68 56 41.61 46.1 40.02 45.36"/><path class="cls-3" d="M37.14,24.48a3,3,0,1,0-3-3A3,3,0,0,0,37.14,24.48Z"/><path class="cls-3" d="M44,28.31h-2.4a.84.84,0,0,1-.7-.36l-.53-.75A8.11,8.11,0,0,0,39,25.68,8.33,8.33,0,0,0,31.19,24l-3.28,1a3,3,0,0,0-2,2.08L25,29.94a.93.93,0,0,0,1.71.7L28,28a1.39,1.39,0,0,1,1.07-.76L31.11,27l-1.48,3.79a12.56,12.56,0,0,0-.83,5l.1,2.59-4-.55a1.25,1.25,0,0,0-.38,2.48l6,.92a1.48,1.48,0,0,0,1.72-1.46V36.71l7.9,9.43a.94.94,0,0,0,.71.33.93.93,0,0,0,.82-1.35L36.39,35a2.76,2.76,0,0,1-.16-2.18l1.38-4.08,1.53,1.15a3.14,3.14,0,0,0,2.39.59l2.59-.41A.88.88,0,0,0,44,28.31Z"/><path class="cls-4" d="M46.46,15.82H44.61a.32.32,0,0,0-.28.48L47,20.93a.31.31,0,0,1,0,.32l-2.67,4.62a.33.33,0,0,0,.28.49h1.85a.36.36,0,0,0,.28-.16l2.85-4.95a.31.31,0,0,0,0-.32L46.74,16A.33.33,0,0,0,46.46,15.82Z"/><path class="cls-4" d="M47.71,22.15H44a.94.94,0,0,1-.94-.94V21A.94.94,0,0,1,44,20h3.71Z"/><polygon class="cls-2" points="10.17 49.83 15.42 51.42 12.92 47.83 24.67 45.36 16.17 42.92 21.17 38.71 15.5 37.42 21.58 32 13.75 32.58 16.33 26.36 11.49 29.02 8 19 8 52.26 10.17 49.83"/><polygon class="cls-4" points="8.69 43.23 10.36 43.73 9.56 42.59 13.3 41.8 10.6 41.03 12 40.66 10.38 39.92 12.29 38.35 10.12 38.65 10.83 36.21 9.4 37.45 8 33.43 8 44 8.69 43.23"/><polygon class="cls-2" points="17.95 20.13 12.88 25.38 13.01 18.34 16.38 16.76 17.95 20.13"/><polygon class="cls-2" points="21.03 23.11 18.25 23.97 19.65 21.55 21.12 21.64 21.03 23.11"/><polygon class="cls-2" points="22.19 27.2 16.75 30.81 20.03 25.59 22.63 24.48 22.19 27.2"/><polygon class="cls-2" points="22.07 36.14 18.5 36.46 21.45 34.8 22.99 34.94 22.07 36.14"/></svg>