<svg id="Layer_1" data-name="Layer 1" xmlns="http://www.w3.org/2000/svg" viewBox="0 0 64 64"><defs><style>.cls-1{fill:#dd1515;}.cls-2{fill:#ccd8e5;}.cls-3{fill:#dfe8f4;}.cls-4{fill:#fff;}</style></defs><title>warning, signs, sign, alert, meeting, point</title><rect class="cls-1" x="8" y="8" width="48" height="48" rx="3.12"/><path class="cls-2" d="M35.51,22.6a3.36,3.36,0,1,1-3.36-3.36A3.36,3.36,0,0,1,35.51,22.6Z"/><path class="cls-3" d="M44.22,27.39A3.36,3.36,0,1,1,40.86,24,3.35,3.35,0,0,1,44.22,27.39Z"/><path class="cls-3" d="M26.49,27.39A3.36,3.36,0,1,1,23.14,24,3.35,3.35,0,0,1,26.49,27.39Z"/><path class="cls-4" d="M35.51,30.22a3.36,3.36,0,1,1-3.36-3.35A3.36,3.36,0,0,1,35.51,30.22Z"/><path class="cls-4" d="M37.5,39.92h.32v-.21a5.72,5.72,0,0,0-.32-1.86Z"/><path class="cls-3" d="M40.86,31.21a5.65,5.65,0,0,0-4.61,2.39,7.38,7.38,0,0,1,3.26,6.11v.21h4.72V37.73h.42v2.19h1.88v-3A5.67,5.67,0,0,0,40.86,31.21Z"/><path class="cls-3" d="M24.8,39.92v-.21a7.35,7.35,0,0,1,3.06-6,5.66,5.66,0,0,0-10.39,3.13v3h1.88V37.73h.42v2.19Z"/><path class="cls-4" d="M26.49,39.71v.21h0v-.44C26.5,39.55,26.49,39.63,26.49,39.71Z"/><path class="cls-4" d="M34.21,34.44A2.11,2.11,0,0,0,33,34.32a3.68,3.68,0,0,1-.82.1,3.59,3.59,0,0,1-.81-.1,2.1,2.1,0,0,0-1.24.12,5.66,5.66,0,0,0-3.61,5.27v3h1.87V40.56h.43v2.19h6.73V40.56h.42v2.19h1.88v-3A5.66,5.66,0,0,0,34.21,34.44Z"/><polygon class="cls-4" points="11.37 13.89 16.11 18.63 12.79 18.63 12.79 22.03 22.03 22.03 22.03 12.79 18.63 12.79 18.63 16.11 13.89 11.37 11.37 13.89"/><polygon class="cls-4" points="52.63 50.11 47.89 45.37 51.21 45.37 51.21 41.97 41.97 41.97 41.97 51.21 45.37 51.21 45.37 47.89 50.11 52.63 52.63 50.11"/><polygon class="cls-4" points="13.89 52.63 18.63 47.89 18.63 51.21 22.03 51.21 22.03 41.97 12.79 41.97 12.79 45.37 16.11 45.37 11.37 50.11 13.89 52.63"/><polygon class="cls-4" points="50.11 11.37 45.37 16.11 45.37 12.79 41.97 12.79 41.97 22.03 51.21 22.03 51.21 18.63 47.89 18.63 52.63 13.89 50.11 11.37"/></svg>