<svg id="Layer_1" data-name="Layer 1" xmlns="http://www.w3.org/2000/svg" viewBox="0 0 64 64"><defs><style>.cls-1{fill:#dfe8f4;}.cls-2{fill:#ccd8e5;}.cls-3{fill:#dd1515;}.cls-4{fill:#ff5454;}</style></defs><title>warning, signs, sign, alert, fire, danger</title><path class="cls-1" d="M55.52,48,35,12.5a3.47,3.47,0,0,0-6,0L8.48,48a3.48,3.48,0,0,0,3,5.22h41A3.48,3.48,0,0,0,55.52,48Z"/><path class="cls-1" d="M55.52,48,35,12.5a3.47,3.47,0,0,0-6,0L8.48,48a3.48,3.48,0,0,0,3,5.22h41A3.48,3.48,0,0,0,55.52,48Z"/><path class="cls-2" d="M32,17.23l17.91,31H14.09L32,17.23m0-6.47a3.44,3.44,0,0,0-3,1.74L8.48,48a3.48,3.48,0,0,0,3,5.22h41a3.48,3.48,0,0,0,3-5.22L35,12.5a3.44,3.44,0,0,0-3-1.74Z"/><path class="cls-3" d="M32,13.75a.47.47,0,0,1,.43.24l20.5,35.52a.45.45,0,0,1,0,.5.45.45,0,0,1-.42.24h-41a.45.45,0,0,1-.42-.24.45.45,0,0,1,0-.5L31.57,14a.47.47,0,0,1,.43-.24m0-3a3.44,3.44,0,0,0-3,1.74L8.48,48a3.48,3.48,0,0,0,3,5.22h41a3.48,3.48,0,0,0,3-5.22L35,12.5a3.44,3.44,0,0,0-3-1.74Z"/><path class="cls-4" d="M32,11.51a2.68,2.68,0,0,1,2.36,1.37L54.87,48.39a2.74,2.74,0,0,1-2.36,4.1h-41a2.74,2.74,0,0,1-2.36-4.1L29.64,12.88A2.68,2.68,0,0,1,32,11.51m0-.75a3.44,3.44,0,0,0-3,1.74L8.48,48a3.48,3.48,0,0,0,3,5.22h41a3.48,3.48,0,0,0,3-5.22L35,12.5a3.44,3.44,0,0,0-3-1.74Z"/><path class="cls-3" d="M38.76,36a7.44,7.44,0,0,1-.57,1.3,7.6,7.6,0,0,1-1.08,1.42,9.64,9.64,0,0,0,.13-1.52,10.26,10.26,0,0,0-5.13-8.87A10.25,10.25,0,0,0,27,37.2a10.15,10.15,0,0,0,1.4,5.16,6.46,6.46,0,0,1-2-4.53A4.79,4.79,0,0,1,26,37.3a8.33,8.33,0,0,1-.58-1.3,7.6,7.6,0,0,0,6.65,11.22h0A7.59,7.59,0,0,0,38.76,36Z"/><path class="cls-4" d="M30.2,39.41a1.73,1.73,0,0,0,.16.37,2.2,2.2,0,0,0,.31.41,3.15,3.15,0,0,1,0-.44,2.94,2.94,0,0,1,1.47-2.55,3,3,0,0,1,1.48,2.55,2.9,2.9,0,0,1-.41,1.49,1.82,1.82,0,0,0,.58-1.3.86.86,0,0,0,.1-.16,2.48,2.48,0,0,0,.17-.37,2.19,2.19,0,0,1-1.92,3.23h0a2.19,2.19,0,0,1-1.91-3.23Z"/><path class="cls-3" d="M25.32,33.17a.78.78,0,1,0-.78-.78A.78.78,0,0,0,25.32,33.17Z"/><path class="cls-3" d="M25.11,34.64a.4.4,0,0,0-.79,0,.4.4,0,1,0,.79,0Z"/><path class="cls-3" d="M26.35,34.76a.26.26,0,0,0,.26-.26.26.26,0,0,0-.26-.25.25.25,0,0,0-.25.25A.26.26,0,0,0,26.35,34.76Z"/><path class="cls-3" d="M27.25,32.55a.08.08,0,0,0,.08-.08.09.09,0,0,0-.08-.08.08.08,0,0,0-.08.08A.07.07,0,0,0,27.25,32.55Z"/><path class="cls-3" d="M27.24,31.22A.26.26,0,0,0,27.5,31,.26.26,0,0,0,27,31,.26.26,0,0,0,27.24,31.22Z"/><path class="cls-3" d="M37,31.61A.33.33,0,1,0,37,31a.33.33,0,0,0,0,.65Z"/><circle class="cls-3" cx="38.06" cy="32.93" r="0.54"/><circle class="cls-3" cx="37.79" cy="34.77" r="0.27"/><path class="cls-3" d="M39.4,34.25a.2.2,0,0,0,.19-.19.19.19,0,0,0-.38,0A.2.2,0,0,0,39.4,34.25Z"/><path class="cls-3" d="M38.75,34.89a.16.16,0,1,0,.16.16A.16.16,0,0,0,38.75,34.89Z"/><path class="cls-3" d="M38.89,31a.3.3,0,0,0,.3-.3.29.29,0,0,0-.3-.3.3.3,0,0,0-.3.3A.31.31,0,0,0,38.89,31Z"/><path class="cls-3" d="M38.46,31.37a.08.08,0,0,0-.08-.08.08.08,0,0,0-.09.08.09.09,0,0,0,.09.08A.09.09,0,0,0,38.46,31.37Z"/><path class="cls-4" d="M39.22,48.19H24.78a1,1,0,0,1-1-1h0a1,1,0,0,1,1-1H39.22a1,1,0,0,1,1,1h0A1,1,0,0,1,39.22,48.19Z"/></svg>