<svg id="Layer_1" data-name="Layer 1" xmlns="http://www.w3.org/2000/svg" viewBox="0 0 64 64"><defs><style>.cls-1{fill:#dfe8f4;}.cls-2{fill:#dd1515;}.cls-3{fill:#ccd8e5;}.cls-4{fill:#ff5454;}</style></defs><title>warning, signs, sign, alert, bump</title><path class="cls-1" d="M55.52,48,35,12.5a3.47,3.47,0,0,0-6,0L8.48,48a3.48,3.48,0,0,0,3,5.22h41A3.48,3.48,0,0,0,55.52,48Z"/><path class="cls-1" d="M55.52,48,35,12.5a3.47,3.47,0,0,0-6,0L8.48,48a3.48,3.48,0,0,0,3,5.22h41A3.48,3.48,0,0,0,55.52,48Z"/><path class="cls-2" d="M35.64,44.06H34a1.1,1.1,0,0,1-1.1-1.1h0a1.11,1.11,0,0,0-1.11-1.11H30.19a1.11,1.11,0,0,1-1.11-1.11h0a1.1,1.1,0,0,0-1.1-1.1H26.36a1.11,1.11,0,0,1-1.11-1.11h0a1.11,1.11,0,0,0-1.11-1.11H22.52a1.1,1.1,0,0,1-1.1-1.1h0a1.11,1.11,0,0,0-1.11-1.11H16.52a1.11,1.11,0,0,0-1,.55l-5.49,9.52a1.08,1.08,0,0,0-.15.55v6.25a1.11,1.11,0,0,0,.9,1.09,3.71,3.71,0,0,0,.67.07h20a1.11,1.11,0,0,0,.88-1.78v0a1.1,1.1,0,0,1,.87-1.78h6.3a1.1,1.1,0,0,0,1.1-1.1V47.38a1.1,1.1,0,0,0-1.1-1.1H37.86a1.11,1.11,0,0,1-1.11-1.11h0A1.11,1.11,0,0,0,35.64,44.06Z"/><path class="cls-3" d="M32,17.23l17.91,31H14.09L32,17.23m0-6.47a3.44,3.44,0,0,0-3,1.74L8.48,48a3.48,3.48,0,0,0,3,5.22h41a3.48,3.48,0,0,0,3-5.22L35,12.5a3.44,3.44,0,0,0-3-1.74Z"/><path class="cls-2" d="M32,13.75a.47.47,0,0,1,.43.24l20.5,35.52a.45.45,0,0,1,0,.5.45.45,0,0,1-.42.24h-41a.45.45,0,0,1-.42-.24.45.45,0,0,1,0-.5L31.57,14a.47.47,0,0,1,.43-.24m0-3a3.44,3.44,0,0,0-3,1.74L8.48,48a3.48,3.48,0,0,0,3,5.22h41a3.48,3.48,0,0,0,3-5.22L35,12.5a3.44,3.44,0,0,0-3-1.74Z"/><path class="cls-4" d="M32,11.51a2.68,2.68,0,0,1,2.36,1.37L54.87,48.39a2.74,2.74,0,0,1-2.36,4.1h-41a2.74,2.74,0,0,1-2.36-4.1L29.64,12.88A2.68,2.68,0,0,1,32,11.51m0-.75a3.44,3.44,0,0,0-3,1.74L8.48,48a3.48,3.48,0,0,0,3,5.22h41a3.48,3.48,0,0,0,3-5.22L35,12.5a3.44,3.44,0,0,0-3-1.74Z"/><path class="cls-4" d="M30.81,31.58a1.67,1.67,0,1,0-1.9,1.4A1.67,1.67,0,0,0,30.81,31.58Z"/><path class="cls-4" d="M32.74,28.87a.48.48,0,0,0-.56.4L32,30.6a.52.52,0,0,1-.26.36l-.47.23a4.15,4.15,0,0,0-.95.61A4.68,4.68,0,0,0,28.69,36l.26,1.9a1.63,1.63,0,0,0,1,1.28l1.53.77a.52.52,0,0,0,.75-.48.53.53,0,0,0-.22-.4l-1.32-.95a.76.76,0,0,1-.33-.66l0-1.15,2,1.13a6.88,6.88,0,0,0,2.71.89l1.44.17-.64,2.17a.7.7,0,1,0,1.33.42l1-3.24a.82.82,0,0,0-.66-1.07l-1.71-.27L38,34.75a.59.59,0,0,1,.54-.09l2.63.9a.56.56,0,0,0,.67-.25h0a.56.56,0,0,0-.2-.77l-3-1.81a.33.33,0,0,0-.1-.06l-.08-.05h0a.53.53,0,0,0-.33,0L35.22,34A1.57,1.57,0,0,1,34,34l-2.14-1.12.77-.75a1.77,1.77,0,0,0,.53-1.27V29.35A.49.49,0,0,0,32.74,28.87Z"/></svg>