<svg id="Layer_1" data-name="Layer 1" xmlns="http://www.w3.org/2000/svg" viewBox="0 0 64 64"><defs><style>.cls-1{fill:#F4DFDF;}.cls-2{fill:#DD1515;}.cls-3{fill:#e5cccc;}.cls-4{fill:#FC0707;}</style></defs><title>warning, signs, sign, alert, wireless</title><path class="cls-1" d="M55.52,48,35,12.5a3.47,3.47,0,0,0-6,0L8.48,48a3.48,3.48,0,0,0,3,5.22h41A3.48,3.48,0,0,0,55.52,48Z"/><path class="cls-1" d="M55.52,48,35,12.5a3.47,3.47,0,0,0-6,0L8.48,48a3.48,3.48,0,0,0,3,5.22h41A3.48,3.48,0,0,0,55.52,48Z"/><path class="cls-2" d="M36.74,50.2l-4.41-7.63a.38.38,0,0,0-.66,0L27.26,50.2a.7.7,0,0,0,.61,1h8.26A.7.7,0,0,0,36.74,50.2Z"/><path class="cls-3" d="M32,17.23l17.91,31H14.09L32,17.23m0-6.47a3.44,3.44,0,0,0-3,1.74L8.48,48a3.48,3.48,0,0,0,3,5.22h41a3.48,3.48,0,0,0,3-5.22L35,12.5a3.44,3.44,0,0,0-3-1.74Z"/><path class="cls-2" d="M32,13.75a.47.47,0,0,1,.43.24l20.5,35.52a.45.45,0,0,1,0,.5.45.45,0,0,1-.42.24h-41a.45.45,0,0,1-.42-.24.45.45,0,0,1,0-.5L31.57,14a.47.47,0,0,1,.43-.24m0-3a3.44,3.44,0,0,0-3,1.74L8.48,48a3.48,3.48,0,0,0,3,5.22h41a3.48,3.48,0,0,0,3-5.22L35,12.5a3.44,3.44,0,0,0-3-1.74Z"/><path class="cls-4" d="M32,11.51a2.68,2.68,0,0,1,2.36,1.37L54.87,48.39a2.74,2.74,0,0,1-2.36,4.1h-41a2.74,2.74,0,0,1-2.36-4.1L29.64,12.88A2.68,2.68,0,0,1,32,11.51m0-.75a3.44,3.44,0,0,0-3,1.74L8.48,48a3.48,3.48,0,0,0,3,5.22h41a3.48,3.48,0,0,0,3-5.22L35,12.5a3.44,3.44,0,0,0-3-1.74Z"/><circle class="cls-2" cx="32" cy="38.99" r="1.25"/><path class="cls-2" d="M35.11,35.17l0,0a1.73,1.73,0,0,0-.29,2,4,4,0,0,1,0,3.58,1.71,1.71,0,0,0,.29,2l0,0a.87.87,0,0,0,1.33-.1,6.35,6.35,0,0,0,0-7.43A.87.87,0,0,0,35.11,35.17Z"/><path class="cls-2" d="M38.42,31.86h0A1.69,1.69,0,0,0,38.25,34a8.57,8.57,0,0,1,0,10,1.69,1.69,0,0,0,.17,2.11h0a.88.88,0,0,0,1.3,0,11,11,0,0,0,0-14.15A.88.88,0,0,0,38.42,31.86Z"/><circle class="cls-2" cx="32" cy="38.99" r="1.25"/><path class="cls-2" d="M28.89,42.8l0,0a1.71,1.71,0,0,0,.29-2,4,4,0,0,1,0-3.58,1.73,1.73,0,0,0-.29-2l0,0a.87.87,0,0,0-1.33.1,6.35,6.35,0,0,0,0,7.43A.87.87,0,0,0,28.89,42.8Z"/><path class="cls-2" d="M25.58,46.11h0A1.69,1.69,0,0,0,25.75,44a8.57,8.57,0,0,1,0-10,1.69,1.69,0,0,0-.17-2.11h0a.88.88,0,0,0-1.3.05,11,11,0,0,0,0,14.15A.88.88,0,0,0,25.58,46.11Z"/></svg>