<svg id="Layer_1" data-name="Layer 1" xmlns="http://www.w3.org/2000/svg" viewBox="0 0 64 64"><defs><style>.cls-1{fill:#dfe8f4;}.cls-2{fill:#ccd8e5;}.cls-3{fill:#dd1515;}.cls-4{fill:#ff5454;}</style></defs><title>warning, signs, sign, alert, carbon, dioxide</title><path class="cls-1" d="M55.52,48,35,12.5a3.47,3.47,0,0,0-6,0L8.48,48a3.48,3.48,0,0,0,3,5.22h41A3.48,3.48,0,0,0,55.52,48Z"/><path class="cls-1" d="M55.52,48,35,12.5a3.47,3.47,0,0,0-6,0L8.48,48a3.48,3.48,0,0,0,3,5.22h41A3.48,3.48,0,0,0,55.52,48Z"/><path class="cls-2" d="M32,17.23l17.91,31H14.09L32,17.23m0-6.47a3.44,3.44,0,0,0-3,1.74L8.48,48a3.48,3.48,0,0,0,3,5.22h41a3.48,3.48,0,0,0,3-5.22L35,12.5a3.44,3.44,0,0,0-3-1.74Z"/><path class="cls-3" d="M32,13.75a.47.47,0,0,1,.43.24l20.5,35.52a.45.45,0,0,1,0,.5.45.45,0,0,1-.42.24h-41a.45.45,0,0,1-.42-.24.45.45,0,0,1,0-.5L31.57,14a.47.47,0,0,1,.43-.24m0-3a3.44,3.44,0,0,0-3,1.74L8.48,48a3.48,3.48,0,0,0,3,5.22h41a3.48,3.48,0,0,0,3-5.22L35,12.5a3.44,3.44,0,0,0-3-1.74Z"/><path class="cls-4" d="M32,11.51a2.68,2.68,0,0,1,2.36,1.37L54.87,48.39a2.74,2.74,0,0,1-2.36,4.1h-41a2.74,2.74,0,0,1-2.36-4.1L29.64,12.88A2.68,2.68,0,0,1,32,11.51m0-.75a3.44,3.44,0,0,0-3,1.74L8.48,48a3.48,3.48,0,0,0,3,5.22h41a3.48,3.48,0,0,0,3-5.22L35,12.5a3.44,3.44,0,0,0-3-1.74Z"/><path class="cls-3" d="M30.45,44.64a1,1,0,0,1-.83,1.23,9.53,9.53,0,0,1-1.93.18c-4,0-6-2.46-6-5.72,0-3.91,2.78-6.08,6.25-6.08a8.92,8.92,0,0,1,1.77.17,1.05,1.05,0,0,1,.8,1.3v0a1,1,0,0,1-1.23.76,6.27,6.27,0,0,0-1.21-.12,3.44,3.44,0,0,0-3.65,3.79,3.41,3.41,0,0,0,3.66,3.73,7.36,7.36,0,0,0,1.16-.1,1,1,0,0,1,1.21.83Z"/><path class="cls-3" d="M42.3,40c0,3.75-2.27,6-5.62,6S31.3,43.5,31.3,40.24c0-3.43,2.19-6,5.57-6S42.3,36.88,42.3,40Z"/><path class="cls-1" d="M34.82,43v-.79l.72-.66c1.22-1.09,1.81-1.71,1.83-2.37,0-.45-.27-.81-.92-.81a2,2,0,0,0-1.19.46l-.37-.93a3.07,3.07,0,0,1,1.83-.58,1.74,1.74,0,0,1,2,1.75,3.46,3.46,0,0,1-1.49,2.41l-.52.43h2.11V43Z"/></svg>