<svg id="Layer_1" data-name="Layer 1" xmlns="http://www.w3.org/2000/svg" viewBox="0 0 64 64"><defs><style>.cls-1{fill:#F4DFDF;}.cls-2{fill:#e5cccc;}.cls-3{fill:#DD1515;}.cls-4{fill:#FC0707;}</style></defs><title>warning, signs, sign, alert, electricity, electricution</title><path class="cls-1" d="M55.52,48,35,12.5a3.47,3.47,0,0,0-6,0L8.48,48a3.48,3.48,0,0,0,3,5.22h41A3.48,3.48,0,0,0,55.52,48Z"/><path class="cls-1" d="M55.52,48,35,12.5a3.47,3.47,0,0,0-6,0L8.48,48a3.48,3.48,0,0,0,3,5.22h41A3.48,3.48,0,0,0,55.52,48Z"/><path class="cls-2" d="M32,17.23l17.91,31H14.09L32,17.23m0-6.47a3.44,3.44,0,0,0-3,1.74L8.48,48a3.48,3.48,0,0,0,3,5.22h41a3.48,3.48,0,0,0,3-5.22L35,12.5a3.44,3.44,0,0,0-3-1.74Z"/><path class="cls-3" d="M32,13.75a.47.47,0,0,1,.43.24l20.5,35.52a.45.45,0,0,1,0,.5.45.45,0,0,1-.42.24h-41a.45.45,0,0,1-.42-.24.45.45,0,0,1,0-.5L31.57,14a.47.47,0,0,1,.43-.24m0-3a3.44,3.44,0,0,0-3,1.74L8.48,48a3.48,3.48,0,0,0,3,5.22h41a3.48,3.48,0,0,0,3-5.22L35,12.5a3.44,3.44,0,0,0-3-1.74Z"/><path class="cls-4" d="M32,11.51a2.68,2.68,0,0,1,2.36,1.37L54.87,48.39a2.74,2.74,0,0,1-2.36,4.1h-41a2.74,2.74,0,0,1-2.36-4.1L29.64,12.88A2.68,2.68,0,0,1,32,11.51m0-.75a3.44,3.44,0,0,0-3,1.74L8.48,48a3.48,3.48,0,0,0,3,5.22h41a3.48,3.48,0,0,0,3-5.22L35,12.5a3.44,3.44,0,0,0-3-1.74Z"/><path class="cls-3" d="M28,35a1.92,1.92,0,1,0-2.48,1.1A1.93,1.93,0,0,0,28,35Z"/><path class="cls-3" d="M30.87,32.39a.57.57,0,0,0-.73.32l-.55,1.44a.56.56,0,0,1-.38.34l-.58.15a5.26,5.26,0,0,0-4.05,4.76l-.17,2.19a1.91,1.91,0,0,0,.79,1.69l1.53,1.24a.6.6,0,0,0,.81-.87l-1.26-1.39a.91.91,0,0,1-.21-.82l.31-1.29,1.94,1.76a8,8,0,0,0,2.83,1.66l1.58.54-1.26,2.28a.81.81,0,0,0,.42,1.15.8.8,0,0,0,1-.35l1.94-3.39a1,1,0,0,0-.48-1.37l-1.86-.71,2.86-1.43a.67.67,0,0,1,.63,0L38.69,42a.66.66,0,0,0,.82-.12h0a.66.66,0,0,0,0-.92l-2.94-2.76s-.06-.06-.09-.09L36.36,38h0a.54.54,0,0,0-.36-.09l-3.59.89a1.77,1.77,0,0,1-1.35-.4l-2.13-1.77L30,36a2,2,0,0,0,.91-1.3L31.21,33A.56.56,0,0,0,30.87,32.39Z"/><path class="cls-4" d="M32.9,26.1l.78-1.82a.2.2,0,0,0-.19-.28H31.68a.21.21,0,0,0-.19.12l-2.17,5.11a.19.19,0,0,0,.18.27h1.41a.2.2,0,0,1,.19.28l-.78,1.82a.2.2,0,0,0,.19.28h1.81a.21.21,0,0,0,.19-.12l2.17-5.11a.2.2,0,0,0-.18-.28H33.08A.2.2,0,0,1,32.9,26.1Z"/></svg>