<svg id="Layer_1" data-name="Layer 1" xmlns="http://www.w3.org/2000/svg" viewBox="0 0 64 64"><defs><style>.cls-1{fill:#F4DFDF;}.cls-2{fill:#e5cccc;}.cls-3{fill:#DD1515;}.cls-4{fill:#FC0707;}</style></defs><title>warning, signs, sign, alert, bear</title><path class="cls-1" d="M55.52,48,35,12.5a3.47,3.47,0,0,0-6,0L8.48,48a3.48,3.48,0,0,0,3,5.22h41A3.48,3.48,0,0,0,55.52,48Z"/><path class="cls-1" d="M55.52,48,35,12.5a3.47,3.47,0,0,0-6,0L8.48,48a3.48,3.48,0,0,0,3,5.22h41A3.48,3.48,0,0,0,55.52,48Z"/><path class="cls-2" d="M32,17.23l17.91,31H14.09L32,17.23m0-6.47a3.44,3.44,0,0,0-3,1.74L8.48,48a3.48,3.48,0,0,0,3,5.22h41a3.48,3.48,0,0,0,3-5.22L35,12.5a3.44,3.44,0,0,0-3-1.74Z"/><path class="cls-3" d="M32,13.75a.47.47,0,0,1,.43.24l20.5,35.52a.45.45,0,0,1,0,.5.45.45,0,0,1-.42.24h-41a.45.45,0,0,1-.42-.24.45.45,0,0,1,0-.5L31.57,14a.47.47,0,0,1,.43-.24m0-3a3.44,3.44,0,0,0-3,1.74L8.48,48a3.48,3.48,0,0,0,3,5.22h41a3.48,3.48,0,0,0,3-5.22L35,12.5a3.44,3.44,0,0,0-3-1.74Z"/><path class="cls-4" d="M32,11.51a2.68,2.68,0,0,1,2.36,1.37L54.87,48.39a2.74,2.74,0,0,1-2.36,4.1h-41a2.74,2.74,0,0,1-2.36-4.1L29.64,12.88A2.68,2.68,0,0,1,32,11.51m0-.75a3.44,3.44,0,0,0-3,1.74L8.48,48a3.48,3.48,0,0,0,3,5.22h41a3.48,3.48,0,0,0,3-5.22L35,12.5a3.44,3.44,0,0,0-3-1.74Z"/><path class="cls-3" d="M23.29,36l-.86.67a1.09,1.09,0,0,0-.38.56h0a.45.45,0,0,1-.16.2l-1,.56a.67.67,0,0,0-.21,1l1.05,1.4a.33.33,0,0,0,.27.14h1.8a4.08,4.08,0,0,1,1.25.19h0a4.25,4.25,0,0,1,2.53,2l.33.58a.34.34,0,0,1,0,.2l-.22,2.56a.34.34,0,0,1-.19.28L26.2,47l-.08.33H29a.36.36,0,0,0,.29-.15l1.92-3a.35.35,0,0,1,.29-.15h0a.34.34,0,0,1,.34.37l-.15,1.84a.34.34,0,0,1-.21.28l-1,.45v.33h2.77a.33.33,0,0,0,.31-.2l1.52-3.26a1,1,0,0,1,.92-.59h0a1,1,0,0,1,1,.81h0a2.33,2.33,0,0,1,0,1.08l-.33,1.21a.32.32,0,0,1-.22.23L35,47.1l0,.24h3.27a.35.35,0,0,0,.22-.08h0A9.84,9.84,0,0,0,41.2,43.8l.14-.3-.49,1.94a.34.34,0,0,0,.08.32l.24.26a.33.33,0,0,1,0,.39l-.14.27a.39.39,0,0,1-.21.17l-.76.2v.29h1.68a.32.32,0,0,0,.21-.08l1-.78a1.29,1.29,0,0,0,.42-1.34l-1.11-4a.49.49,0,0,1,0-.12l.17-1.7a4.24,4.24,0,0,0-.83-2.94h0a4.21,4.21,0,0,0-3.37-1.68h-8.5a.32.32,0,0,0-.14,0l-1.13.51a.41.41,0,0,1-.16,0l-2.75-.16h-.05l-1.8.21a.33.33,0,0,0-.3.37h0A.36.36,0,0,1,23.29,36Z"/></svg>