<svg id="Layer_1" data-name="Layer 1" xmlns="http://www.w3.org/2000/svg" viewBox="0 0 64 64"><defs><style>.cls-1{fill:#dfe8f4;}.cls-2{fill:#ccd8e5;}.cls-3,.cls-5{fill:#dd1515;}.cls-4{fill:#ff5454;}.cls-5{fill-rule:evenodd;}</style></defs><title>warning, signs, sign, alert, recycle</title><path class="cls-1" d="M55.52,48,35,12.5a3.47,3.47,0,0,0-6,0L8.48,48a3.48,3.48,0,0,0,3,5.22h41A3.48,3.48,0,0,0,55.52,48Z"/><path class="cls-1" d="M55.52,48,35,12.5a3.47,3.47,0,0,0-6,0L8.48,48a3.48,3.48,0,0,0,3,5.22h41A3.48,3.48,0,0,0,55.52,48Z"/><path class="cls-2" d="M32,17.23l17.91,31H14.09L32,17.23m0-6.47a3.44,3.44,0,0,0-3,1.74L8.48,48a3.48,3.48,0,0,0,3,5.22h41a3.48,3.48,0,0,0,3-5.22L35,12.5a3.44,3.44,0,0,0-3-1.74Z"/><path class="cls-3" d="M32,13.75a.47.47,0,0,1,.43.24l20.5,35.52a.45.45,0,0,1,0,.5.45.45,0,0,1-.42.24h-41a.45.45,0,0,1-.42-.24.45.45,0,0,1,0-.5L31.57,14a.47.47,0,0,1,.43-.24m0-3a3.44,3.44,0,0,0-3,1.74L8.48,48a3.48,3.48,0,0,0,3,5.22h41a3.48,3.48,0,0,0,3-5.22L35,12.5a3.44,3.44,0,0,0-3-1.74Z"/><path class="cls-4" d="M32,11.51a2.68,2.68,0,0,1,2.36,1.37L54.87,48.39a2.74,2.74,0,0,1-2.36,4.1h-41a2.74,2.74,0,0,1-2.36-4.1L29.64,12.88A2.68,2.68,0,0,1,32,11.51m0-.75a3.44,3.44,0,0,0-3,1.74L8.48,48a3.48,3.48,0,0,0,3,5.22h41a3.48,3.48,0,0,0,3-5.22L35,12.5a3.44,3.44,0,0,0-3-1.74Z"/><path class="cls-5" d="M26.21,41.52l1.11-2,.2.11a.42.42,0,0,0,.58-.58l-1.54-2.65a.7.7,0,0,0-.64-.36h-3a.43.43,0,0,0-.21.8l.17.1-1.48,2.6a.87.87,0,0,0,.06,1.12l2.92,5a.94.94,0,0,1,0-.09,2.59,2.59,0,0,0,2.28,1.77h3.14A1.23,1.23,0,0,0,31,46.17h0a3.9,3.9,0,0,0-3.9-3.91h-.42A.49.49,0,0,1,26.21,41.52Z"/><path class="cls-5" d="M42.56,39l-.05-.09L41,36.31a1.23,1.23,0,0,0-1.68-.45h0a3.9,3.9,0,0,0-1.43,5.33l.21.36a.5.5,0,0,1-.44.75H35.41v-.2a.43.43,0,0,0-.8-.21l-1.52,2.66a.73.73,0,0,0,0,.73l1.53,2.63a.43.43,0,0,0,.8-.22v-.22h3a.86.86,0,0,0,.93-.61l2.94-5.13A2.58,2.58,0,0,0,42.56,39Z"/><path class="cls-5" d="M37.93,31.58l-.21.12-1.47-2.6a.79.79,0,0,0-.79-.5v0H29a2.59,2.59,0,0,0-2.09,1.13l-.05.09L25.3,32.44a1.23,1.23,0,0,0,.45,1.68h0a3.9,3.9,0,0,0,5.33-1.43l.2-.34a.49.49,0,0,1,.86,0l1.1,1.93-.14.09a.43.43,0,0,0,.21.8h3.06A.74.74,0,0,0,37,34.8l1.51-2.64A.43.43,0,0,0,37.93,31.58Z"/></svg>