<svg id="Layer_1" data-name="Layer 1" xmlns="http://www.w3.org/2000/svg" viewBox="0 0 64 64"><defs><style>.cls-1{fill:#dfe8f4;}.cls-2{fill:#ccd8e5;}.cls-3{fill:#dd1515;}.cls-4{fill:#ff5454;}</style></defs><title>warning, signs, sign, alert, deer</title><path class="cls-1" d="M55.52,48,35,12.5a3.47,3.47,0,0,0-6,0L8.48,48a3.48,3.48,0,0,0,3,5.22h41A3.48,3.48,0,0,0,55.52,48Z"/><path class="cls-1" d="M55.52,48,35,12.5a3.47,3.47,0,0,0-6,0L8.48,48a3.48,3.48,0,0,0,3,5.22h41A3.48,3.48,0,0,0,55.52,48Z"/><path class="cls-2" d="M32,17.23l17.91,31H14.09L32,17.23m0-6.47a3.44,3.44,0,0,0-3,1.74L8.48,48a3.48,3.48,0,0,0,3,5.22h41a3.48,3.48,0,0,0,3-5.22L35,12.5a3.44,3.44,0,0,0-3-1.74Z"/><path class="cls-3" d="M32,13.75a.47.47,0,0,1,.43.24l20.5,35.52a.45.45,0,0,1,0,.5.45.45,0,0,1-.42.24h-41a.45.45,0,0,1-.42-.24.45.45,0,0,1,0-.5L31.57,14a.47.47,0,0,1,.43-.24m0-3a3.44,3.44,0,0,0-3,1.74L8.48,48a3.48,3.48,0,0,0,3,5.22h41a3.48,3.48,0,0,0,3-5.22L35,12.5a3.44,3.44,0,0,0-3-1.74Z"/><path class="cls-4" d="M32,11.51a2.68,2.68,0,0,1,2.36,1.37L54.87,48.39a2.74,2.74,0,0,1-2.36,4.1h-41a2.74,2.74,0,0,1-2.36-4.1L29.64,12.88A2.68,2.68,0,0,1,32,11.51m0-.75a3.44,3.44,0,0,0-3,1.74L8.48,48a3.48,3.48,0,0,0,3,5.22h41a3.48,3.48,0,0,0,3-5.22L35,12.5a3.44,3.44,0,0,0-3-1.74Z"/><path class="cls-3" d="M28,29.78,25,30a.29.29,0,0,0-.27.29v.19a1,1,0,0,0,.57.9l1.61.76a.32.32,0,0,1,.17.24l.27,3.11A1.82,1.82,0,0,1,27,36.74h0a1.79,1.79,0,0,1-1.16.7l-.68.12a.28.28,0,0,0-.24.25l-.19,2a.24.24,0,0,1,0,.13l-.55.81a.29.29,0,0,0,0,.32l.7,1.12a.27.27,0,0,0,.34.12l.21-.08-.57-1.13a.28.28,0,0,1,.06-.34l.16-.15,1,1a.31.31,0,0,0,.22.09l.88,0L27,41.38a.29.29,0,0,0-.24-.14h-.31a.3.3,0,0,1-.23-.15l-.53-.91a.26.26,0,0,1,0-.24l.21-.63a.29.29,0,0,1,.3-.2l3.27.29a5.67,5.67,0,0,1,1,.18l1.26.33a31,31,0,0,1,10.16,4.84l.74.53a.27.27,0,0,1,.07.08l2.16,3.24a.27.27,0,0,0,.24.12h1.11v-.22a.27.27,0,0,0-.12-.24l-.53-.37-.08-.08-2.16-3.51v0L41.93,42.4a1.73,1.73,0,0,1-.21-1.6h0a1.7,1.7,0,0,0,0-1.31l-.63-1.41A.23.23,0,0,1,41,38V37.8a1.36,1.36,0,0,0-.9-1.22h0a.28.28,0,0,0-.32.1l-.08.1a.28.28,0,0,0,.14.45l.29.09a.28.28,0,0,1,.16.42l0,.06a.3.3,0,0,1-.33.14l-2-.59a18.23,18.23,0,0,1-4.3-1.86l-.66-.4a8,8,0,0,1-3.31-3.83h0a.3.3,0,0,1,.05-.3l.72-.85a.38.38,0,0,1,.15-.09l1.83-.52a.29.29,0,0,0,.21-.25l.12-1.43-.49,1a.25.25,0,0,1-.18.15l-.64.18a.29.29,0,0,1-.32-.12l-.37-.59a.29.29,0,0,1,0-.34l.61-.73a.26.26,0,0,0,0-.3L31,26.2l-.15,1a.26.26,0,0,1-.09.17l-.56.49a.29.29,0,0,1-.39,0l-1.16-.94.16-1.48A9.78,9.78,0,0,0,28.2,27a15.17,15.17,0,0,1,1.35,1.23.28.28,0,0,1,.06.34h0a.29.29,0,0,1-.43.09l-1.56-1.2a.33.33,0,0,1-.11-.21l-.1-1.55L27,27.36a.3.3,0,0,0,.09.28l1.76,1.59-.39.16a.26.26,0,0,0-.14.11l-.09.15A.26.26,0,0,1,28,29.78Z"/></svg>