<svg id="Layer_1" data-name="Layer 1" xmlns="http://www.w3.org/2000/svg" viewBox="0 0 64 64"><defs><style>.cls-1{fill:#F4DFDF;}.cls-2{fill:#DD1515;}.cls-3{fill:#e5cccc;}.cls-4{fill:#FC0707;}</style></defs><title>warning, signs, sign, alert, squeeze, hand</title><path class="cls-1" d="M55.52,48,35,12.5a3.47,3.47,0,0,0-6,0L8.48,48a3.48,3.48,0,0,0,3,5.22h41A3.48,3.48,0,0,0,55.52,48Z"/><path class="cls-1" d="M55.52,48,35,12.5a3.47,3.47,0,0,0-6,0L8.48,48a3.48,3.48,0,0,0,3,5.22h41A3.48,3.48,0,0,0,55.52,48Z"/><path class="cls-2" d="M45.29,36.18h-8.5a3.08,3.08,0,0,1-1.43-.35L33.71,35a4.12,4.12,0,0,0-1.91-.47H30.06a.85.85,0,0,0-.67.31.54.54,0,0,0,.38.92h1A.22.22,0,0,1,31,36a.22.22,0,0,1-.22.22H26a.53.53,0,0,0-.53.53v.18a.53.53,0,0,0,.53.53h2.57a.18.18,0,0,1,.19.18.18.18,0,0,1-.19.19H24.73a.53.53,0,0,0-.53.53v.18a.53.53,0,0,0,.53.53h3.85a.18.18,0,0,1,.19.19.19.19,0,0,1-.19.19H25.09a.52.52,0,0,0-.53.52v.18a.52.52,0,0,0,.53.53h3.49a.19.19,0,1,1,0,.38H26.7a.53.53,0,0,0-.53.53v.18a.53.53,0,0,0,.53.53h8.82a1.56,1.56,0,0,0,.92-.3,1.66,1.66,0,0,1,.94-.27H48.92Z"/><path class="cls-3" d="M32,17.23l17.91,31H14.09L32,17.23m0-6.47a3.44,3.44,0,0,0-3,1.74L8.48,48a3.48,3.48,0,0,0,3,5.22h41a3.48,3.48,0,0,0,3-5.22L35,12.5a3.44,3.44,0,0,0-3-1.74Z"/><path class="cls-2" d="M32,13.75a.47.47,0,0,1,.43.24l20.5,35.52a.45.45,0,0,1,0,.5.45.45,0,0,1-.42.24h-41a.45.45,0,0,1-.42-.24.45.45,0,0,1,0-.5L31.57,14a.47.47,0,0,1,.43-.24m0-3a3.44,3.44,0,0,0-3,1.74L8.48,48a3.48,3.48,0,0,0,3,5.22h41a3.48,3.48,0,0,0,3-5.22L35,12.5a3.44,3.44,0,0,0-3-1.74Z"/><path class="cls-4" d="M32,11.51a2.68,2.68,0,0,1,2.36,1.37L54.87,48.39a2.74,2.74,0,0,1-2.36,4.1h-41a2.74,2.74,0,0,1-2.36-4.1L29.64,12.88A2.68,2.68,0,0,1,32,11.51m0-.75a3.44,3.44,0,0,0-3,1.74L8.48,48a3.48,3.48,0,0,0,3,5.22h41a3.48,3.48,0,0,0,3-5.22L35,12.5a3.44,3.44,0,0,0-3-1.74Z"/><rect class="cls-2" x="25.42" y="30.91" width="13.17" height="1.88" rx="0.74"/><rect class="cls-2" x="25.42" y="43.97" width="13.17" height="1.87" rx="0.74"/><polygon class="cls-4" points="31.15 23.5 31.15 26.69 30.04 25.57 28.89 26.72 32 29.82 35.11 26.72 33.96 25.57 32.85 26.69 32.85 23.5 31.15 23.5"/></svg>