<svg id="Layer_1" data-name="Layer 1" xmlns="http://www.w3.org/2000/svg" viewBox="0 0 64 64"><defs><style>.cls-1{fill:#F4DFDF;}.cls-2{fill:#e5cccc;}.cls-3{fill:#DD1515;}.cls-4{fill:#FC0707;}</style></defs><title>warning, signs, sign, alert, truck</title><path class="cls-1" d="M55.52,48,35,12.5a3.47,3.47,0,0,0-6,0L8.48,48a3.48,3.48,0,0,0,3,5.22h41A3.48,3.48,0,0,0,55.52,48Z"/><path class="cls-1" d="M55.52,48,35,12.5a3.47,3.47,0,0,0-6,0L8.48,48a3.48,3.48,0,0,0,3,5.22h41A3.48,3.48,0,0,0,55.52,48Z"/><path class="cls-2" d="M32,17.23l17.91,31H14.09L32,17.23m0-6.47a3.44,3.44,0,0,0-3,1.74L8.48,48a3.48,3.48,0,0,0,3,5.22h41a3.48,3.48,0,0,0,3-5.22L35,12.5a3.44,3.44,0,0,0-3-1.74Z"/><path class="cls-3" d="M32,13.75a.47.47,0,0,1,.43.24l20.5,35.52a.45.45,0,0,1,0,.5.45.45,0,0,1-.42.24h-41a.45.45,0,0,1-.42-.24.45.45,0,0,1,0-.5L31.57,14a.47.47,0,0,1,.43-.24m0-3a3.44,3.44,0,0,0-3,1.74L8.48,48a3.48,3.48,0,0,0,3,5.22h41a3.48,3.48,0,0,0,3-5.22L35,12.5a3.44,3.44,0,0,0-3-1.74Z"/><path class="cls-4" d="M32,11.51a2.68,2.68,0,0,1,2.36,1.37L54.87,48.39a2.74,2.74,0,0,1-2.36,4.1h-41a2.74,2.74,0,0,1-2.36-4.1L29.64,12.88A2.68,2.68,0,0,1,32,11.51m0-.75a3.44,3.44,0,0,0-3,1.74L8.48,48a3.48,3.48,0,0,0,3,5.22h41a3.48,3.48,0,0,0,3-5.22L35,12.5a3.44,3.44,0,0,0-3-1.74Z"/><path class="cls-3" d="M41.61,37H37.48a.77.77,0,0,0-.77.77v4.22a.55.55,0,0,1-.55.55H31.93V45H42.69a.64.64,0,0,0,.64-.64V38.66A1.71,1.71,0,0,0,41.61,37Z"/><path class="cls-4" d="M37,45H22.41a.9.9,0,0,1-.9-.91V37.31a3,3,0,0,1,3-3H36.06a1,1,0,0,1,.95,1Z"/><rect class="cls-4" x="42.23" y="42.39" width="1.1" height="1.27"/><path class="cls-3" d="M26.9,45A1.87,1.87,0,1,1,25,43.1,1.87,1.87,0,0,1,26.9,45Z"/><path class="cls-4" d="M25.67,45a.64.64,0,0,1-.64.63A.63.63,0,0,1,24.4,45a.64.64,0,0,1,.63-.64A.64.64,0,0,1,25.67,45Z"/><path class="cls-3" d="M31.61,45a1.87,1.87,0,1,1-1.87-1.87A1.87,1.87,0,0,1,31.61,45Z"/><path class="cls-4" d="M30.38,45a.64.64,0,0,1-.64.63.63.63,0,0,1-.63-.63.64.64,0,0,1,.63-.64A.64.64,0,0,1,30.38,45Z"/><path class="cls-3" d="M41.52,45a1.87,1.87,0,1,1-1.87-1.87A1.87,1.87,0,0,1,41.52,45Z"/><path class="cls-4" d="M40.29,45a.64.64,0,0,1-.64.63A.63.63,0,0,1,39,45a.64.64,0,0,1,.63-.64A.64.64,0,0,1,40.29,45Z"/><path class="cls-4" d="M38.45,38.79v2.36a.37.37,0,0,0,.37.37h4.51v-3l0,0H38.75A.31.31,0,0,0,38.45,38.79Z"/></svg>