<svg id="Layer_1" data-name="Layer 1" xmlns="http://www.w3.org/2000/svg" viewBox="0 0 64 64"><defs><style>.cls-1{fill:#dfe8f4;}.cls-2{fill:#dd1515;}.cls-3{fill:#ccd8e5;}.cls-4{fill:#ff5454;}</style></defs><title>warning, signs, sign, alert, run, step</title><path class="cls-1" d="M55.52,48,35,12.5a3.47,3.47,0,0,0-6,0L8.48,48a3.48,3.48,0,0,0,3,5.22h41A3.48,3.48,0,0,0,55.52,48Z"/><path class="cls-1" d="M55.52,48,35,12.5a3.47,3.47,0,0,0-6,0L8.48,48a3.48,3.48,0,0,0,3,5.22h41A3.48,3.48,0,0,0,55.52,48Z"/><path class="cls-2" d="M53,46.17H34.94V48H19.41L18.25,49.7,10.12,53a3.46,3.46,0,0,0,1.37.28h41a3.48,3.48,0,0,0,3-5.2H53Z"/><rect class="cls-2" x="19.71" y="46.79" width="15.58" height="1.25"/><rect class="cls-2" x="33.96" y="45.54" width="15.58" height="1.25"/><path class="cls-3" d="M32,17.23l17.91,31H14.09L32,17.23m0-6.47a3.44,3.44,0,0,0-3,1.74L8.48,48a3.48,3.48,0,0,0,3,5.22h41a3.48,3.48,0,0,0,3-5.22L35,12.5a3.44,3.44,0,0,0-3-1.74Z"/><path class="cls-2" d="M32,13.75a.47.47,0,0,1,.43.24l20.5,35.52a.45.45,0,0,1,0,.5.45.45,0,0,1-.42.24h-41a.45.45,0,0,1-.42-.24.45.45,0,0,1,0-.5L31.57,14a.47.47,0,0,1,.43-.24m0-3a3.44,3.44,0,0,0-3,1.74L8.48,48a3.48,3.48,0,0,0,3,5.22h41a3.48,3.48,0,0,0,3-5.22L35,12.5a3.44,3.44,0,0,0-3-1.74Z"/><path class="cls-4" d="M32,11.51a2.68,2.68,0,0,1,2.36,1.37L54.87,48.39a2.74,2.74,0,0,1-2.36,4.1h-41a2.74,2.74,0,0,1-2.36-4.1L29.64,12.88A2.68,2.68,0,0,1,32,11.51m0-.75a3.44,3.44,0,0,0-3,1.74L8.48,48a3.48,3.48,0,0,0,3,5.22h41a3.48,3.48,0,0,0,3-5.22L35,12.5a3.44,3.44,0,0,0-3-1.74Z"/><circle class="cls-4" cx="30.88" cy="30.58" r="1.78"/><path class="cls-4" d="M35,34.66H33.54a.49.49,0,0,1-.41-.22L32.81,34a5.33,5.33,0,0,0-.8-.91,5,5,0,0,0-4.68-1l-2,.58a1.73,1.73,0,0,0-1.2,1.24l-.57,1.74a.55.55,0,0,0,.63.71.53.53,0,0,0,.39-.29l.79-1.56a.83.83,0,0,1,.64-.45l1.23-.17-.88,2.27a7.54,7.54,0,0,0-.5,3L26,40.7l-2.4-.33a.75.75,0,0,0-.23,1.48l3.59.55a.88.88,0,0,0,1-.87V39.68l4.73,5.63a.53.53,0,0,0,.42.2.55.55,0,0,0,.49-.8l-3.14-6.07a1.64,1.64,0,0,1-.1-1.3l.83-2.44.91.69a1.88,1.88,0,0,0,1.43.35l1.55-.25a.52.52,0,0,0-.08-1Z"/></svg>