<svg id="Layer_1" data-name="Layer 1" xmlns="http://www.w3.org/2000/svg" viewBox="0 0 64 64"><defs><style>.cls-1{fill:#dd1515;}.cls-2{fill:#fff;}.cls-3{fill:#ff5454;}.cls-4{fill:#dfe8f4;}.cls-5{fill:#ccd8e5;}</style></defs><title>warning, signs, sign, alert, fire</title><rect class="cls-1" x="8" y="8" width="48" height="48" rx="3.12"/><path class="cls-2" d="M33.25,12.69h16.9a1.49,1.49,0,0,1,1.49,1.49V45.36a0,0,0,0,1,0,0H32a0,0,0,0,1,0,0V13.95A1.26,1.26,0,0,1,33.25,12.69Z"/><polygon class="cls-1" points="40.02 45.36 28.18 56 33.68 56 41.61 46.1 40.02 45.36"/><circle class="cls-3" cx="41.66" cy="22.65" r="2.65"/><path class="cls-3" d="M47.75,28.72H45.62A.75.75,0,0,1,45,28.4l-.48-.68a6.89,6.89,0,0,0-1.19-1.34,7.42,7.42,0,0,0-7-1.52l-2.91.87a2.58,2.58,0,0,0-1.78,1.85l-.85,2.58a.82.82,0,0,0,.94,1.06.85.85,0,0,0,.58-.43l1.17-2.32a1.23,1.23,0,0,1,.95-.67l1.83-.25L35,30.92a11.24,11.24,0,0,0-.75,4.48l.1,2.3-3.58-.49a1.11,1.11,0,0,0-.34,2.2l5.34.82a1.31,1.31,0,0,0,1.53-1.3V36.19l7,8.38a.79.79,0,0,0,.63.29.82.82,0,0,0,.72-1.2l-4.67-9a2.52,2.52,0,0,1-.15-1.94l1.23-3.63,1.37,1a2.77,2.77,0,0,0,2.12.53l2.3-.37a.78.78,0,0,0,.66-.77A.77.77,0,0,0,47.75,28.72Z"/><path class="cls-2" d="M21,41.38a3.91,3.91,0,0,1-.37.84,4.52,4.52,0,0,1-.69.92,6.4,6.4,0,0,0,.08-1,6.62,6.62,0,0,0-3.32-5.73,6.64,6.64,0,0,0-2.41,9.08A4.18,4.18,0,0,1,13,42.57l-.22-.35a4.47,4.47,0,0,1-.37-.84,4.91,4.91,0,0,0,4.3,7.26h0A4.91,4.91,0,0,0,21,41.38Z"/><path class="cls-4" d="M15.43,43.59a1.31,1.31,0,0,0,.31.5,2.46,2.46,0,0,1,0-.28,1.9,1.9,0,0,1,1-1.65,1.9,1.9,0,0,1,1,1.65,1.85,1.85,0,0,1-.27,1,1.19,1.19,0,0,0,.38-.84l.06-.1a1.28,1.28,0,0,0,.11-.24,1.42,1.42,0,0,1,0,1.37,1.44,1.44,0,0,1-1.23.72h0A1.42,1.42,0,0,1,15.45,45,1.39,1.39,0,0,1,15.43,43.59Z"/><path class="cls-2" d="M12.28,39.55a.51.51,0,1,0-.51-.51A.51.51,0,0,0,12.28,39.55Z"/><path class="cls-2" d="M12.14,40.5a.26.26,0,0,0-.26-.25.25.25,0,0,0-.25.25.26.26,0,0,0,.25.26A.26.26,0,0,0,12.14,40.5Z"/><path class="cls-2" d="M12.94,40.58a.18.18,0,0,0,.17-.17.17.17,0,0,0-.17-.16.16.16,0,0,0-.16.16A.17.17,0,0,0,12.94,40.58Z"/><circle class="cls-2" cx="13.52" cy="39.1" r="0.05"/><path class="cls-2" d="M13.52,38.29a.17.17,0,0,0,0-.34.17.17,0,1,0,0,.34Z"/><path class="cls-2" d="M19.83,38.54a.21.21,0,1,0-.21-.21A.21.21,0,0,0,19.83,38.54Z"/><path class="cls-2" d="M20.52,39.74a.35.35,0,0,0,0-.7.35.35,0,1,0,0,.7Z"/><path class="cls-2" d="M20.34,40.76a.18.18,0,0,0,.18-.18.18.18,0,0,0-.18-.17.18.18,0,0,0-.17.17A.18.18,0,0,0,20.34,40.76Z"/><path class="cls-2" d="M21.39,40.25a.13.13,0,0,0,.12-.13.13.13,0,0,0-.12-.12.13.13,0,0,0-.13.12A.13.13,0,0,0,21.39,40.25Z"/><path class="cls-2" d="M21,40.66a.11.11,0,0,0-.11.11.11.11,0,0,0,.11.1.11.11,0,0,0,.1-.1A.11.11,0,0,0,21,40.66Z"/><path class="cls-2" d="M21.06,38.12a.19.19,0,0,0,.19-.2.19.19,0,0,0-.19-.19.2.2,0,1,0,0,.39Z"/><path class="cls-2" d="M20.78,38.38a.06.06,0,0,0-.06-.05,0,0,0,0,0,0,.05.06.06,0,0,0,0,.06A.06.06,0,0,0,20.78,38.38Z"/><rect class="cls-3" x="30.03" y="45.36" width="20.39" height="2.65"/><rect class="cls-3" x="23.76" y="48.01" width="20.39" height="2.65"/><rect class="cls-3" x="17.49" y="50.66" width="20.39" height="2.65"/><rect class="cls-3" x="11.23" y="53.32" width="20.39" height="2.65"/><path class="cls-5" d="M28.44,22.06l-4.36-2.48a.3.3,0,0,0-.29,0l-1.4.83a.28.28,0,0,0,0,.48l3.29,1.87L13.27,30A.83.83,0,0,0,13,31.16l.11.19a.83.83,0,0,0,1.13.29l12.4-7.27,0,3.78a.28.28,0,0,0,.42.24l1.4-.82a.27.27,0,0,0,.14-.24l0-5A.29.29,0,0,0,28.44,22.06Z"/></svg>