<svg id="Layer_1" data-name="Layer 1" xmlns="http://www.w3.org/2000/svg" viewBox="0 0 64 64"><defs><style>.cls-1{fill:#dfe8f4;}.cls-2{fill:#ccd8e5;}.cls-3{fill:#dd1515;}.cls-4{fill:#ff5454;}</style></defs><title>warning, signs, sign, alert, wrench, drop</title><path class="cls-1" d="M55.52,48,35,12.5a3.47,3.47,0,0,0-6,0L8.48,48a3.48,3.48,0,0,0,3,5.22h41A3.48,3.48,0,0,0,55.52,48Z"/><path class="cls-1" d="M55.52,48,35,12.5a3.47,3.47,0,0,0-6,0L8.48,48a3.48,3.48,0,0,0,3,5.22h41A3.48,3.48,0,0,0,55.52,48Z"/><path class="cls-2" d="M32,17.23l17.91,31H14.09L32,17.23m0-6.47a3.44,3.44,0,0,0-3,1.74L8.48,48a3.48,3.48,0,0,0,3,5.22h41a3.48,3.48,0,0,0,3-5.22L35,12.5a3.44,3.44,0,0,0-3-1.74Z"/><path class="cls-3" d="M32,13.75a.47.47,0,0,1,.43.24l20.5,35.52a.45.45,0,0,1,0,.5.45.45,0,0,1-.42.24h-41a.45.45,0,0,1-.42-.24.45.45,0,0,1,0-.5L31.57,14a.47.47,0,0,1,.43-.24m0-3a3.44,3.44,0,0,0-3,1.74L8.48,48a3.48,3.48,0,0,0,3,5.22h41a3.48,3.48,0,0,0,3-5.22L35,12.5a3.44,3.44,0,0,0-3-1.74Z"/><path class="cls-4" d="M32,11.51a2.68,2.68,0,0,1,2.36,1.37L54.87,48.39a2.74,2.74,0,0,1-2.36,4.1h-41a2.74,2.74,0,0,1-2.36-4.1L29.64,12.88A2.68,2.68,0,0,1,32,11.51m0-.75a3.44,3.44,0,0,0-3,1.74L8.48,48a3.48,3.48,0,0,0,3,5.22h41a3.48,3.48,0,0,0,3-5.22L35,12.5a3.44,3.44,0,0,0-3-1.74Z"/><path class="cls-3" d="M37,38l-5-2.23a2.19,2.19,0,0,1-1.2-1.21,4,4,0,0,0-2.14-2.26,4,4,0,0,0-3.82.3.32.32,0,0,0,0,.56l2.47,1.09a.71.71,0,0,1,.41.55L27.9,36a.67.67,0,0,1-.28.63l-.95.7a.69.69,0,0,1-.69.08l-2.47-1.1a.32.32,0,0,0-.44.34,4,4,0,0,0,5.42,3.08,2.28,2.28,0,0,1,1.72.06l5,2.23a2.19,2.19,0,0,1,1.2,1.21,4,4,0,0,0,6,2,.32.32,0,0,0,0-.56l-2.47-1.09a.71.71,0,0,1-.41-.55l-.12-1.18a.67.67,0,0,1,.28-.63l.95-.7a.68.68,0,0,1,.69-.07l2.47,1.09a.32.32,0,0,0,.44-.34,4,4,0,0,0-5.42-3.08A2.28,2.28,0,0,1,37,38Z"/><path class="cls-4" d="M31.27,31.5h0a.55.55,0,0,1-.54-.55V24.9a.55.55,0,0,1,.54-.55h0a.55.55,0,0,1,.55.55V31A.55.55,0,0,1,31.27,31.5Z"/><path class="cls-4" d="M31.27,23.59h0a.54.54,0,0,1-.54-.54v-.22a.55.55,0,0,1,.54-.55h0a.55.55,0,0,1,.55.55v.22A.54.54,0,0,1,31.27,23.59Z"/><path class="cls-4" d="M33.62,23.59h0a.55.55,0,0,1,.55.55v6.05a.54.54,0,0,1-.55.55h0a.54.54,0,0,1-.54-.55V24.14A.55.55,0,0,1,33.62,23.59Z"/><path class="cls-4" d="M33.62,31.5h0a.54.54,0,0,1,.55.55v.22a.54.54,0,0,1-.55.54h0a.54.54,0,0,1-.54-.54v-.22A.54.54,0,0,1,33.62,31.5Z"/><path class="cls-4" d="M36,35.35h0a.54.54,0,0,1-.55-.55v-6A.55.55,0,0,1,36,28.2h0a.55.55,0,0,1,.54.55v6A.54.54,0,0,1,36,35.35Z"/><path class="cls-4" d="M36,27.45h0a.55.55,0,0,1-.55-.55v-.22a.55.55,0,0,1,.55-.55h0a.55.55,0,0,1,.54.55v.22A.55.55,0,0,1,36,27.45Z"/></svg>