<svg id="Layer_1" data-name="Layer 1" xmlns="http://www.w3.org/2000/svg" viewBox="0 0 64 64"><defs><style>.cls-1{fill:#DD1515;}.cls-2{fill:#fff;}.cls-3{fill:#FC0707;}</style></defs><title>warning, signs, sign, alert, escape</title><rect class="cls-1" x="8" y="8" width="48" height="48" rx="3.12"/><path class="cls-2" d="M33.25,12.69h16.9a1.49,1.49,0,0,1,1.49,1.49V45.36a0,0,0,0,1,0,0H32a0,0,0,0,1,0,0V13.95A1.26,1.26,0,0,1,33.25,12.69Z"/><path class="cls-3" d="M36.52,56H11.66L32,45.36H51.63L50,48.15A15.57,15.57,0,0,1,36.52,56Z"/><polygon class="cls-1" points="40.02 45.36 28.18 56 33.68 56 41.61 46.1 40.02 45.36"/><path class="cls-3" d="M37.14,24.48a3,3,0,1,0-3-3A3,3,0,0,0,37.14,24.48Z"/><path class="cls-3" d="M44,28.31h-2.4a.84.84,0,0,1-.7-.36l-.53-.75A8.11,8.11,0,0,0,39,25.68,8.33,8.33,0,0,0,31.19,24l-3.28,1a3,3,0,0,0-2,2.08L25,29.94a.93.93,0,0,0,1.71.7L28,28a1.39,1.39,0,0,1,1.07-.76L31.11,27l-1.48,3.79a12.56,12.56,0,0,0-.83,5l.1,2.59-4-.55a1.25,1.25,0,0,0-.38,2.48l6,.92a1.48,1.48,0,0,0,1.72-1.46V36.71l7.9,9.43a.94.94,0,0,0,.71.33.93.93,0,0,0,.82-1.35L36.39,35a2.76,2.76,0,0,1-.16-2.18l1.38-4.08,1.53,1.15a3.14,3.14,0,0,0,2.39.59l2.59-.41A.88.88,0,0,0,44,28.31Z"/><path class="cls-2" d="M22,12.69H19a.52.52,0,0,0-.45.77l4.26,7.37a.52.52,0,0,1,0,.51l-4.26,7.38a.51.51,0,0,0,.45.76H22a.5.5,0,0,0,.44-.25L27,21.34a.52.52,0,0,0,0-.51L22.4,13A.51.51,0,0,0,22,12.69Z"/><path class="cls-2" d="M16.43,12.69H13.49a.52.52,0,0,0-.45.77l4.26,7.37a.52.52,0,0,1,0,.51L13,28.72a.51.51,0,0,0,.45.76h2.94a.52.52,0,0,0,.45-.25l4.55-7.89a.52.52,0,0,0,0-.51L16.88,13A.52.52,0,0,0,16.43,12.69Z"/></svg>