<svg id="Layer_1" data-name="Layer 1" xmlns="http://www.w3.org/2000/svg" viewBox="0 0 64 64"><defs><style>.cls-1{fill:#dfe8f4;}.cls-2{fill:#dd1515;}.cls-3{fill:#ccd8e5;}.cls-4{fill:#ff5454;}</style></defs><title>warning, signs, sign, alert, sink</title><path class="cls-1" d="M55.52,48,35,12.5a3.47,3.47,0,0,0-6,0L8.48,48a3.48,3.48,0,0,0,3,5.22h41A3.48,3.48,0,0,0,55.52,48Z"/><path class="cls-1" d="M55.52,48,35,12.5a3.47,3.47,0,0,0-6,0L8.48,48a3.48,3.48,0,0,0,3,5.22h41A3.48,3.48,0,0,0,55.52,48Z"/><path class="cls-2" d="M37.79,45.11,32,49.76l-5.79-4.65a2.69,2.69,0,0,0-1.69-.6h-14L8.48,48a3.48,3.48,0,0,0,3,5.22h41a3.48,3.48,0,0,0,3-5.22l-2-3.51h-14A2.69,2.69,0,0,0,37.79,45.11Z"/><path class="cls-3" d="M32,17.23l17.91,31H14.09L32,17.23m0-6.47a3.44,3.44,0,0,0-3,1.74L8.48,48a3.48,3.48,0,0,0,3,5.22h41a3.48,3.48,0,0,0,3-5.22L35,12.5a3.44,3.44,0,0,0-3-1.74Z"/><path class="cls-2" d="M32,13.75a.47.47,0,0,1,.43.24l20.5,35.52a.45.45,0,0,1,0,.5.45.45,0,0,1-.42.24h-41a.45.45,0,0,1-.42-.24.45.45,0,0,1,0-.5L31.57,14a.47.47,0,0,1,.43-.24m0-3a3.44,3.44,0,0,0-3,1.74L8.48,48a3.48,3.48,0,0,0,3,5.22h41a3.48,3.48,0,0,0,3-5.22L35,12.5a3.44,3.44,0,0,0-3-1.74Z"/><path class="cls-4" d="M32,11.51a2.68,2.68,0,0,1,2.36,1.37L54.87,48.39a2.74,2.74,0,0,1-2.36,4.1h-41a2.74,2.74,0,0,1-2.36-4.1L29.64,12.88A2.68,2.68,0,0,1,32,11.51m0-.75a3.44,3.44,0,0,0-3,1.74L8.48,48a3.48,3.48,0,0,0,3,5.22h41a3.48,3.48,0,0,0,3-5.22L35,12.5a3.44,3.44,0,0,0-3-1.74Z"/><path class="cls-4" d="M31,32.37a1.79,1.79,0,1,0-1.78-1.79A1.79,1.79,0,0,0,31,32.37Z"/><path class="cls-4" d="M35.05,34.66H33.61a.52.52,0,0,1-.42-.22L32.88,34a5.38,5.38,0,0,0-.81-.91,5,5,0,0,0-4.67-1l-2,.58a1.73,1.73,0,0,0-1.2,1.24l-.57,1.74a.55.55,0,0,0,.63.71.53.53,0,0,0,.39-.29l.79-1.56a.83.83,0,0,1,.64-.45l1.23-.17-.88,2.27a7.37,7.37,0,0,0-.5,3L26,40.7l-2.4-.33a.75.75,0,0,0-.23,1.48L27,42.4a.88.88,0,0,0,1-.87V39.68l4.73,5.63a.53.53,0,0,0,.42.2.55.55,0,0,0,.49-.8l-3.14-6.07a1.64,1.64,0,0,1-.1-1.3l.83-2.44.91.69a1.88,1.88,0,0,0,1.43.35l1.55-.25a.52.52,0,0,0-.08-1Z"/></svg>