<svg id="Layer_1" data-name="Layer 1" xmlns="http://www.w3.org/2000/svg" viewBox="0 0 64 64"><defs><style>.cls-1{fill:#dfe8f4;}.cls-2{fill:#ccd8e5;}.cls-3{fill:#dd1515;}.cls-4{fill:#ff5454;}</style></defs><title>warning, signs, sign, alert, tornado</title><path class="cls-1" d="M55.52,48,35,12.5a3.47,3.47,0,0,0-6,0L8.48,48a3.48,3.48,0,0,0,3,5.22h41A3.48,3.48,0,0,0,55.52,48Z"/><path class="cls-1" d="M55.52,48,35,12.5a3.47,3.47,0,0,0-6,0L8.48,48a3.48,3.48,0,0,0,3,5.22h41A3.48,3.48,0,0,0,55.52,48Z"/><path class="cls-2" d="M32,17.23l17.91,31H14.09L32,17.23m0-6.47a3.44,3.44,0,0,0-3,1.74L8.48,48a3.48,3.48,0,0,0,3,5.22h41a3.48,3.48,0,0,0,3-5.22L35,12.5a3.44,3.44,0,0,0-3-1.74Z"/><path class="cls-3" d="M32,13.75a.47.47,0,0,1,.43.24l20.5,35.52a.45.45,0,0,1,0,.5.45.45,0,0,1-.42.24h-41a.45.45,0,0,1-.42-.24.45.45,0,0,1,0-.5L31.57,14a.47.47,0,0,1,.43-.24m0-3a3.44,3.44,0,0,0-3,1.74L8.48,48a3.48,3.48,0,0,0,3,5.22h41a3.48,3.48,0,0,0,3-5.22L35,12.5a3.44,3.44,0,0,0-3-1.74Z"/><path class="cls-4" d="M32,11.51a2.68,2.68,0,0,1,2.36,1.37L54.87,48.39a2.74,2.74,0,0,1-2.36,4.1h-41a2.74,2.74,0,0,1-2.36-4.1L29.64,12.88A2.68,2.68,0,0,1,32,11.51m0-.75a3.44,3.44,0,0,0-3,1.74L8.48,48a3.48,3.48,0,0,0,3,5.22h41a3.48,3.48,0,0,0,3-5.22L35,12.5a3.44,3.44,0,0,0-3-1.74Z"/><path class="cls-3" d="M42,37.59a8.88,8.88,0,0,0-3.43-6,7.93,7.93,0,0,1,1.54,6,7,7,0,0,1-2.88,4.67h0A4.85,4.85,0,0,1,34,43.66a6.23,6.23,0,0,0,2.41-1.49h0l.05-.05a7.33,7.33,0,0,0-.05-10.3,8.69,8.69,0,0,0-12.28,0h0A9.83,9.83,0,0,0,22,39.15a8.88,8.88,0,0,0,3.43,6,8,8,0,0,1-1.54-6,7,7,0,0,1,2.88-4.66h0A4.85,4.85,0,0,1,30,33.09a6.23,6.23,0,0,0-2.41,1.49h0l0,.05a7.32,7.32,0,0,0,0,10.3,8.69,8.69,0,0,0,12.28,0h0A9.84,9.84,0,0,0,42,37.59ZM33.73,39.5a2.47,2.47,0,0,1-3.47,0,1.61,1.61,0,0,1-.21-2l.22-.27a2.47,2.47,0,0,1,3.47,0,1.61,1.61,0,0,1,.21,2Z"/></svg>