<svg id="Layer_1" data-name="Layer 1" xmlns="http://www.w3.org/2000/svg" viewBox="0 0 64 64"><defs><style>.cls-1{fill:#dfe8f4;}.cls-2{fill:#ccd8e5;}.cls-3{fill:#dd1515;}.cls-4{fill:#ff5454;}</style></defs><title>warning, signs, sign, alert, ex</title><path class="cls-1" d="M55.52,48,35,12.5a3.47,3.47,0,0,0-6,0L8.48,48a3.48,3.48,0,0,0,3,5.22h41A3.48,3.48,0,0,0,55.52,48Z"/><path class="cls-1" d="M55.52,48,35,12.5a3.47,3.47,0,0,0-6,0L8.48,48a3.48,3.48,0,0,0,3,5.22h41A3.48,3.48,0,0,0,55.52,48Z"/><path class="cls-2" d="M32,17.23l17.91,31H14.09L32,17.23m0-6.47a3.44,3.44,0,0,0-3,1.74L8.48,48a3.48,3.48,0,0,0,3,5.22h41a3.48,3.48,0,0,0,3-5.22L35,12.5a3.44,3.44,0,0,0-3-1.74Z"/><path class="cls-3" d="M32,13.75a.47.47,0,0,1,.43.24l20.5,35.52a.45.45,0,0,1,0,.5.45.45,0,0,1-.42.24h-41a.45.45,0,0,1-.42-.24.45.45,0,0,1,0-.5L31.57,14a.47.47,0,0,1,.43-.24m0-3a3.44,3.44,0,0,0-3,1.74L8.48,48a3.48,3.48,0,0,0,3,5.22h41a3.48,3.48,0,0,0,3-5.22L35,12.5a3.44,3.44,0,0,0-3-1.74Z"/><path class="cls-4" d="M32,11.51a2.68,2.68,0,0,1,2.36,1.37L54.87,48.39a2.74,2.74,0,0,1-2.36,4.1h-41a2.74,2.74,0,0,1-2.36-4.1L29.64,12.88A2.68,2.68,0,0,1,32,11.51m0-.75a3.44,3.44,0,0,0-3,1.74L8.48,48a3.48,3.48,0,0,0,3,5.22h41a3.48,3.48,0,0,0,3-5.22L35,12.5a3.44,3.44,0,0,0-3-1.74Z"/><path class="cls-4" d="M29,41.86H25.73a.58.58,0,0,0-.58.58v1.72a.58.58,0,0,0,.58.58h3.83a.59.59,0,0,1,.59.59v1.09a.58.58,0,0,1-.59.58H23a.59.59,0,0,1-.59-.58v-11a.59.59,0,0,1,.59-.59h6.34a.58.58,0,0,1,.58.59v1.09a.58.58,0,0,1-.58.58H25.73a.58.58,0,0,0-.58.58V39a.58.58,0,0,0,.58.59H29a.58.58,0,0,1,.58.58v1.07A.59.59,0,0,1,29,41.86Z"/><path class="cls-3" d="M38.8,47a.57.57,0,0,1-.52-.32l-.94-1.88c-.45-.85-.74-1.48-1.09-2.19h0c-.25.71-.56,1.34-.94,2.19l-.86,1.86a.57.57,0,0,1-.53.34H32.13a.58.58,0,0,1-.5-.87l2.85-5a.58.58,0,0,0,0-.57L31.74,35.7a.59.59,0,0,1,.51-.87h1.8a.59.59,0,0,1,.52.33l.91,1.89c.36.74.63,1.34.92,2h0c.29-.78.53-1.32.83-2l.88-1.88a.59.59,0,0,1,.53-.34h1.75a.59.59,0,0,1,.51.88l-2.76,4.77a.6.6,0,0,0,0,.58l2.94,5.06a.59.59,0,0,1-.51.88Z"/></svg>