<svg id="Layer_1" data-name="Layer 1" xmlns="http://www.w3.org/2000/svg" viewBox="0 0 64 64"><defs><style>.cls-1{fill:#F4DFDF;}.cls-2{fill:#e5cccc;}.cls-3{fill:#DD1515;}.cls-4{fill:#FC0707;}</style></defs><title>warning, signs, sign, alert, spark</title><path class="cls-1" d="M55.52,48,35,12.5a3.47,3.47,0,0,0-6,0L8.48,48a3.48,3.48,0,0,0,3,5.22h41A3.48,3.48,0,0,0,55.52,48Z"/><path class="cls-1" d="M55.52,48,35,12.5a3.47,3.47,0,0,0-6,0L8.48,48a3.48,3.48,0,0,0,3,5.22h41A3.48,3.48,0,0,0,55.52,48Z"/><path class="cls-2" d="M32,17.23l17.91,31H14.09L32,17.23m0-6.47a3.44,3.44,0,0,0-3,1.74L8.48,48a3.48,3.48,0,0,0,3,5.22h41a3.48,3.48,0,0,0,3-5.22L35,12.5a3.44,3.44,0,0,0-3-1.74Z"/><path class="cls-3" d="M32,13.75a.47.47,0,0,1,.43.24l20.5,35.52a.45.45,0,0,1,0,.5.45.45,0,0,1-.42.24h-41a.45.45,0,0,1-.42-.24.45.45,0,0,1,0-.5L31.57,14a.47.47,0,0,1,.43-.24m0-3a3.44,3.44,0,0,0-3,1.74L8.48,48a3.48,3.48,0,0,0,3,5.22h41a3.48,3.48,0,0,0,3-5.22L35,12.5a3.44,3.44,0,0,0-3-1.74Z"/><path class="cls-4" d="M32,11.51a2.68,2.68,0,0,1,2.36,1.37L54.87,48.39a2.74,2.74,0,0,1-2.36,4.1h-41a2.74,2.74,0,0,1-2.36-4.1L29.64,12.88A2.68,2.68,0,0,1,32,11.51m0-.75a3.44,3.44,0,0,0-3,1.74L8.48,48a3.48,3.48,0,0,0,3,5.22h41a3.48,3.48,0,0,0,3-5.22L35,12.5a3.44,3.44,0,0,0-3-1.74Z"/><circle class="cls-3" cx="32" cy="36.77" r="2.89"/><polygon class="cls-3" points="31.23 26.23 32 35.75 32.77 26.23 31.23 26.23"/><polygon class="cls-3" points="32.77 47.3 32 37.79 31.23 47.3 32.77 47.3"/><polygon class="cls-3" points="29.19 28.7 31.79 35.97 30.4 28.38 29.19 28.7"/><polygon class="cls-3" points="34.81 44.84 32.21 37.56 33.6 45.16 34.81 44.84"/><polygon class="cls-3" points="25.53 31.18 31.42 36.19 26.41 30.3 25.53 31.18"/><polygon class="cls-3" points="38.47 42.35 32.58 37.35 37.59 43.23 38.47 42.35"/><polygon class="cls-3" points="23.61 35.16 31.2 36.55 23.93 33.96 23.61 35.16"/><polygon class="cls-3" points="40.39 38.37 32.8 36.98 40.07 39.58 40.39 38.37"/><polygon class="cls-3" points="23.93 39.58 31.2 36.98 23.61 38.37 23.93 39.58"/><polygon class="cls-3" points="40.07 33.96 32.8 36.55 40.39 35.16 40.07 33.96"/><polygon class="cls-3" points="26.41 43.23 31.42 37.35 25.53 42.35 26.41 43.23"/><polygon class="cls-3" points="37.59 30.3 32.58 36.19 38.47 31.18 37.59 30.3"/><polygon class="cls-3" points="30.4 45.16 31.79 37.56 29.19 44.84 30.4 45.16"/><polygon class="cls-3" points="33.6 28.38 32.21 35.97 34.81 28.7 33.6 28.38"/><polygon class="cls-3" points="26.07 28.03 31.49 35.89 27.4 27.26 26.07 28.03"/><polygon class="cls-3" points="37.94 45.51 32.51 37.65 36.6 46.28 37.94 45.51"/><polygon class="cls-3" points="22.49 32.17 31.12 36.26 23.26 30.83 22.49 32.17"/><polygon class="cls-3" points="41.51 41.37 32.88 37.28 40.74 42.7 41.51 41.37"/><polygon class="cls-3" points="21.47 37.54 30.98 36.77 21.47 36 21.47 37.54"/><polygon class="cls-3" points="46.67 35.66 33.02 36.77 46.67 37.87 46.67 35.66"/><polygon class="cls-3" points="23.26 42.7 31.12 37.28 22.49 41.37 23.26 42.7"/><polygon class="cls-3" points="40.74 30.83 32.88 36.26 41.51 32.17 40.74 30.83"/><polygon class="cls-3" points="27.4 46.28 31.49 37.65 26.07 45.51 27.4 46.28"/><polygon class="cls-3" points="36.6 27.26 32.51 35.89 37.94 28.03 36.6 27.26"/></svg>