<svg id="Layer_1" data-name="Layer 1" xmlns="http://www.w3.org/2000/svg" viewBox="0 0 64 64"><defs><style>.cls-1{fill:#F4DFDF;}.cls-2{fill:#e5cccc;}.cls-3{fill:#DD1515;}.cls-4{fill:#FC0707;}</style></defs><title>warning, signs, sign, alert, cold, ice</title><path class="cls-1" d="M55.52,48,35,12.5a3.47,3.47,0,0,0-6,0L8.48,48a3.48,3.48,0,0,0,3,5.22h41A3.48,3.48,0,0,0,55.52,48Z"/><path class="cls-1" d="M55.52,48,35,12.5a3.47,3.47,0,0,0-6,0L8.48,48a3.48,3.48,0,0,0,3,5.22h41A3.48,3.48,0,0,0,55.52,48Z"/><path class="cls-2" d="M32,17.23l17.91,31H14.09L32,17.23m0-6.47a3.44,3.44,0,0,0-3,1.74L8.48,48a3.48,3.48,0,0,0,3,5.22h41a3.48,3.48,0,0,0,3-5.22L35,12.5a3.44,3.44,0,0,0-3-1.74Z"/><path class="cls-3" d="M32,13.75a.47.47,0,0,1,.43.24l20.5,35.52a.45.45,0,0,1,0,.5.45.45,0,0,1-.42.24h-41a.45.45,0,0,1-.42-.24.45.45,0,0,1,0-.5L31.57,14a.47.47,0,0,1,.43-.24m0-3a3.44,3.44,0,0,0-3,1.74L8.48,48a3.48,3.48,0,0,0,3,5.22h41a3.48,3.48,0,0,0,3-5.22L35,12.5a3.44,3.44,0,0,0-3-1.74Z"/><path class="cls-4" d="M32,11.51a2.68,2.68,0,0,1,2.36,1.37L54.87,48.39a2.74,2.74,0,0,1-2.36,4.1h-41a2.74,2.74,0,0,1-2.36-4.1L29.64,12.88A2.68,2.68,0,0,1,32,11.51m0-.75a3.44,3.44,0,0,0-3,1.74L8.48,48a3.48,3.48,0,0,0,3,5.22h41a3.48,3.48,0,0,0,3-5.22L35,12.5a3.44,3.44,0,0,0-3-1.74Z"/><path class="cls-3" d="M39.48,41.33,39,41.06a1,1,0,0,0-.51-1.85l-1.85.49-2.74-1.58,2.74-1.58,1.85.49a.69.69,0,0,0,.25,0,1,1,0,0,0,.93-.72A1,1,0,0,0,39,35.18l.45-.27a1,1,0,0,0,.35-1.31,1,1,0,0,0-1.31-.36l-.46.27A1,1,0,0,0,36.2,33l-.5,1.85L33,36.45V33.29l1.36-1.36A1,1,0,0,0,33,30.56V30A1,1,0,1,0,31,30v.52a1,1,0,0,0-1.36,1.37L31,33.29v3.16L28.3,34.87,27.8,33a1,1,0,0,0-1.86.49l-.46-.27a1,1,0,0,0-1.31.36,1,1,0,0,0,.35,1.31l.45.27a1,1,0,0,0-.67,1.17,1,1,0,0,0,.93.72.69.69,0,0,0,.25,0l1.85-.49,2.74,1.58L27.33,39.7l-1.85-.49A1,1,0,0,0,25,41.06l-.45.27a1,1,0,0,0,.48,1.8,1,1,0,0,0,.48-.13l.46-.27a1,1,0,0,0,.68,1.17.73.73,0,0,0,.25,0,1,1,0,0,0,.93-.72l.5-1.85L31,39.79V43l-1.36,1.36A1,1,0,0,0,31,45.68v.52a1,1,0,1,0,1.92,0v-.52a1,1,0,0,0,.68.27,1,1,0,0,0,.68-.28,1,1,0,0,0,0-1.36L33,43V39.79l2.74,1.58.5,1.85a1,1,0,0,0,.93.72.73.73,0,0,0,.25,0,1,1,0,0,0,.68-1.17l.46.27a1,1,0,0,0,.48.13,1,1,0,0,0,.48-1.8Z"/></svg>