<svg id="Layer_1" data-name="Layer 1" xmlns="http://www.w3.org/2000/svg" viewBox="0 0 64 64"><defs><style>.cls-1{fill:#dfe8f4;}.cls-2{fill:#ccd8e5;}.cls-3{fill:#dd1515;}.cls-4{fill:#ff5454;}</style></defs><title>warning, signs, sign, alert, danger, radiation</title><path class="cls-1" d="M55.52,48,35,12.5a3.47,3.47,0,0,0-6,0L8.48,48a3.48,3.48,0,0,0,3,5.22h41A3.48,3.48,0,0,0,55.52,48Z"/><path class="cls-1" d="M55.52,48,35,12.5a3.47,3.47,0,0,0-6,0L8.48,48a3.48,3.48,0,0,0,3,5.22h41A3.48,3.48,0,0,0,55.52,48Z"/><path class="cls-2" d="M32,17.23l17.91,31H14.09L32,17.23m0-6.47a3.44,3.44,0,0,0-3,1.74L8.48,48a3.48,3.48,0,0,0,3,5.22h41a3.48,3.48,0,0,0,3-5.22L35,12.5a3.44,3.44,0,0,0-3-1.74Z"/><path class="cls-3" d="M32,13.75a.47.47,0,0,1,.43.24l20.5,35.52a.45.45,0,0,1,0,.5.45.45,0,0,1-.42.24h-41a.45.45,0,0,1-.42-.24.45.45,0,0,1,0-.5L31.57,14a.47.47,0,0,1,.43-.24m0-3a3.44,3.44,0,0,0-3,1.74L8.48,48a3.48,3.48,0,0,0,3,5.22h41a3.48,3.48,0,0,0,3-5.22L35,12.5a3.44,3.44,0,0,0-3-1.74Z"/><path class="cls-4" d="M32,11.51a2.68,2.68,0,0,1,2.36,1.37L54.87,48.39a2.74,2.74,0,0,1-2.36,4.1h-41a2.74,2.74,0,0,1-2.36-4.1L29.64,12.88A2.68,2.68,0,0,1,32,11.51m0-.75a3.44,3.44,0,0,0-3,1.74L8.48,48a3.48,3.48,0,0,0,3,5.22h41a3.48,3.48,0,0,0,3-5.22L35,12.5a3.44,3.44,0,0,0-3-1.74Z"/><path class="cls-3" d="M36.78,30.58A1.65,1.65,0,0,0,36,28.21a10.78,10.78,0,0,0-7.9-.08,1.65,1.65,0,0,0-.82,2.37l2,3.45a1.64,1.64,0,0,0,1.8.77,3.43,3.43,0,0,1,.86-.11,3.31,3.31,0,0,1,.95.14,1.67,1.67,0,0,0,1.9-.75Z"/><path class="cls-3" d="M36.16,46.06a1.65,1.65,0,0,0,2.46.47,10.57,10.57,0,0,0,2.71-3.1,10.73,10.73,0,0,0,1.31-3.7A1.65,1.65,0,0,0,41,37.84l-4,0A1.64,1.64,0,0,0,35.43,39a3.43,3.43,0,0,1-.34.79,3.16,3.16,0,0,1-.59.76,1.67,1.67,0,0,0-.3,2Z"/><path class="cls-3" d="M27.84,46.06a1.65,1.65,0,0,1-2.46.47,10.57,10.57,0,0,1-2.71-3.1,10.73,10.73,0,0,1-1.31-3.7A1.65,1.65,0,0,1,23,37.84l4,0A1.64,1.64,0,0,1,28.57,39a3.43,3.43,0,0,0,.34.79,3.16,3.16,0,0,0,.59.76,1.67,1.67,0,0,1,.3,2Z"/><circle class="cls-4" cx="31.92" cy="38.18" r="1.92"/></svg>