<svg id="Layer_1" data-name="Layer 1" xmlns="http://www.w3.org/2000/svg" viewBox="0 0 64 64"><defs><style>.cls-1{fill:#ff5454;}.cls-2{fill:#dd1515;}.cls-3{fill:#dfe8f4;}.cls-4{fill:#fff;}</style></defs><title>warning, signs, sign, radiation, bag</title><path class="cls-1" d="M56,37.85a47.16,47.16,0,0,0-4.15-19.77,8,8,0,0,1-.56-4.91,3.69,3.69,0,0,0-1-3.65c-1.21-1-3.09-.87-4.8.18a6.79,6.79,0,0,1-4.42,1,72.13,72.13,0,0,0-18.1,0,6.79,6.79,0,0,1-4.42-1c-1.71-1-3.59-1.19-4.8-.18a3.69,3.69,0,0,0-1,3.65,8,8,0,0,1-.56,4.91A47.16,47.16,0,0,0,8,37.85a50.83,50.83,0,0,0,.63,8,11.31,11.31,0,0,1-.08,4.6,3.85,3.85,0,0,0,.93,4,3.8,3.8,0,0,0,4,.23A9.37,9.37,0,0,1,19,54a70,70,0,0,0,13,1.19A70,70,0,0,0,45,54a9.37,9.37,0,0,1,5.52.73,3.8,3.8,0,0,0,4-.23,3.85,3.85,0,0,0,.93-4,11.31,11.31,0,0,1-.08-4.6A50.83,50.83,0,0,0,56,37.85Z"/><path class="cls-2" d="M45,54a9.34,9.34,0,0,1,5.51.73,3.8,3.8,0,0,0,4-.23,3.85,3.85,0,0,0,.93-4,11.19,11.19,0,0,1-.09-4.54l0-.09a11.12,11.12,0,0,0-3.07-9.58L37.59,21.53,26,21.91,19,34l4.79,9.59,7.89,7.9a10.91,10.91,0,0,0,9,3.14C42.17,54.46,43.6,54.24,45,54Z"/><path class="cls-3" d="M37.91,23.87a2.06,2.06,0,0,0-1-2.94,13.41,13.41,0,0,0-5-1,13.25,13.25,0,0,0-4.77.88,2.05,2.05,0,0,0-1,2.94L28.61,28a2,2,0,0,0,2.23.95,4.59,4.59,0,0,1,1.06-.13,4.54,4.54,0,0,1,1.18.16,2.06,2.06,0,0,0,2.35-.92Z"/><path class="cls-3" d="M37.15,43a2,2,0,0,0,3,.59,13.14,13.14,0,0,0,5-8.41,2,2,0,0,0-2-2.34l-4.94,0a2,2,0,0,0-1.94,1.45,4,4,0,0,1-.41,1,4.65,4.65,0,0,1-.74.95,2.06,2.06,0,0,0-.37,2.49Z"/><path class="cls-3" d="M26.85,43a2,2,0,0,1-3,.59,13.14,13.14,0,0,1-5-8.41,2,2,0,0,1,2-2.34l4.94,0a2,2,0,0,1,1.94,1.45,4,4,0,0,0,.41,1,4.65,4.65,0,0,0,.74.95,2.06,2.06,0,0,1,.37,2.49Z"/><circle class="cls-4" cx="31.9" cy="33.27" r="2.38"/></svg>