<svg id="Layer_1" data-name="Layer 1" xmlns="http://www.w3.org/2000/svg" viewBox="0 0 64 64"><defs><style>.cls-1{fill:#DD1515;}.cls-2{fill:#e5cccc;}.cls-3{fill:#fff;}.cls-4{fill:#FC0707;}.cls-5{fill:#F4DFDF;}</style></defs><title>warning, signs, sign, alert, fire down</title><rect class="cls-1" x="8" y="8" width="48" height="48" rx="3.12"/><path class="cls-2" d="M13,22.49l-.15-5a.26.26,0,0,1,.13-.25l1.38-.85a.28.28,0,0,1,.43.23l.11,3.77,12.23-7.56a.84.84,0,0,1,1.14.27l.11.19a.82.82,0,0,1-.26,1.13L15.9,22l3.32,1.79a.28.28,0,0,1,0,.49l-1.38.85a.26.26,0,0,1-.28,0l-4.43-2.37A.29.29,0,0,1,13,22.49Z"/><path class="cls-3" d="M33.25,12.69h16.9a1.49,1.49,0,0,1,1.49,1.49V45.36a0,0,0,0,1,0,0H32a0,0,0,0,1,0,0V13.95A1.26,1.26,0,0,1,33.25,12.69Z"/><polygon class="cls-1" points="40.02 45.36 28.18 56 33.68 56 41.61 46.1 40.02 45.36"/><circle class="cls-4" cx="21.11" cy="26.64" r="2.65"/><path class="cls-4" d="M15,32.71h2.13a.74.74,0,0,0,.62-.33l.48-.67a6.89,6.89,0,0,1,1.19-1.34,7.42,7.42,0,0,1,7-1.52l2.91.87a2.6,2.6,0,0,1,1.78,1.84l.84,2.59a.82.82,0,0,1-1.51.62l-1.17-2.31a1.29,1.29,0,0,0-.95-.68l-1.83-.24,1.31,3.37a11.24,11.24,0,0,1,.75,4.48l-.1,2.3L32,41.2a1.11,1.11,0,0,1,.34,2.2L27,44.22a1.32,1.32,0,0,1-1.53-1.3V40.18l-7,8.38a.82.82,0,0,1-1.36-.91l4.68-9a2.54,2.54,0,0,0,.15-2l-1.23-3.62-1.37,1a2.77,2.77,0,0,1-2.12.53l-2.31-.37a.78.78,0,0,1-.65-.77A.77.77,0,0,1,15,32.71Z"/><path class="cls-2" d="M46.19,35.71a5.76,5.76,0,0,1-.37.85,4.89,4.89,0,0,1-.7.91,6.37,6.37,0,0,0,.08-1,6.64,6.64,0,0,0-3.32-5.74,6.65,6.65,0,0,0-3.31,5.74,6.53,6.53,0,0,0,.91,3.34,4.12,4.12,0,0,1-1.3-2.93,4,4,0,0,1-.23-.34,5.76,5.76,0,0,1-.37-.85A4.93,4.93,0,0,0,41.88,43h0a4.93,4.93,0,0,0,4.3-7.27Z"/><path class="cls-5" d="M40.65,37.92a1.22,1.22,0,0,0,.1.24,1.89,1.89,0,0,0,.2.27,2.83,2.83,0,0,1,0-.29,1.93,1.93,0,0,1,1-1.65,1.92,1.92,0,0,1,1,1.65,2,2,0,0,1-.26,1,1.21,1.21,0,0,0,.37-.85.86.86,0,0,0,.07-.1,2.44,2.44,0,0,0,.1-.24A1.41,1.41,0,0,1,41.89,40h0a1.41,1.41,0,0,1-1.23-2.09Z"/><path class="cls-2" d="M37.49,33.88a.5.5,0,1,0-.5-.5A.5.5,0,0,0,37.49,33.88Z"/><path class="cls-2" d="M37.35,34.84a.25.25,0,0,0-.25-.26.26.26,0,1,0,0,.51A.25.25,0,0,0,37.35,34.84Z"/><path class="cls-2" d="M38.16,34.91a.16.16,0,0,0,.16-.17.16.16,0,0,0-.16-.16.17.17,0,0,0-.17.16A.17.17,0,0,0,38.16,34.91Z"/><path class="cls-2" d="M38.74,33.48a0,0,0,0,0,0-.1.05.05,0,1,0,0,.1Z"/><path class="cls-2" d="M38.73,32.62a.17.17,0,1,0-.17-.17A.18.18,0,0,0,38.73,32.62Z"/><path class="cls-2" d="M45,32.88a.22.22,0,1,0,0-.43.22.22,0,0,0,0,.43Z"/><path class="cls-2" d="M45.73,34.07a.35.35,0,1,0-.35-.34A.35.35,0,0,0,45.73,34.07Z"/><path class="cls-2" d="M45.56,35.09a.18.18,0,0,0,.17-.17.18.18,0,0,0-.17-.18.18.18,0,0,0-.18.18A.18.18,0,0,0,45.56,35.09Z"/><circle class="cls-2" cx="46.6" cy="34.46" r="0.12"/><path class="cls-2" d="M46.18,35a.1.1,0,1,0,.1.1A.09.09,0,0,0,46.18,35Z"/><path class="cls-2" d="M46.27,32.45a.2.2,0,1,0,0-.39.19.19,0,0,0-.19.2A.19.19,0,0,0,46.27,32.45Z"/><path class="cls-2" d="M46,32.72a.06.06,0,0,0-.05-.06.06.06,0,0,0-.06.06.06.06,0,0,0,.06.05A0,0,0,0,0,46,32.72Z"/><rect class="cls-4" x="30.03" y="45.36" width="20.39" height="2.65"/><rect class="cls-4" x="23.76" y="48.01" width="20.39" height="2.65"/><rect class="cls-4" x="17.49" y="50.66" width="20.39" height="2.65"/><rect class="cls-4" x="11.23" y="53.32" width="20.39" height="2.65"/></svg>