<svg id="Layer_1" data-name="Layer 1" xmlns="http://www.w3.org/2000/svg" viewBox="0 0 64 64"><defs><style>.cls-1{fill:#F4DFDF;}.cls-2{fill:#DD1515;}.cls-3{fill:#e5cccc;}.cls-4{fill:#FC0707;}</style></defs><title>warning, signs, sign, alert, avalanche</title><path class="cls-1" d="M55.52,48,35,12.5a3.47,3.47,0,0,0-6,0L8.48,48a3.48,3.48,0,0,0,3,5.22h41A3.48,3.48,0,0,0,55.52,48Z"/><path class="cls-1" d="M55.52,48,35,12.5a3.47,3.47,0,0,0-6,0L8.48,48a3.48,3.48,0,0,0,3,5.22h41A3.48,3.48,0,0,0,55.52,48Z"/><path class="cls-2" d="M54.19,45.72,39,19.43a1.52,1.52,0,0,0-.63-.6l-6.5-3.33V26.6a5.47,5.47,0,0,0,1.6,3.88l2.68,2.68a1.55,1.55,0,0,1,0,2.18l-1.6,1.6a1.55,1.55,0,0,0,0,2.18l1.65,1.65a1.58,1.58,0,0,1,.45,1.09v.88a1.58,1.58,0,0,1-.45,1.09l-.12.11a1.54,1.54,0,0,1-1.09.45H33.2a1.54,1.54,0,0,0-1.09.45l-.56.56a1.54,1.54,0,0,0-.45,1.09h0a1.54,1.54,0,0,1-.45,1.09l-1.79,1.79a1.54,1.54,0,0,0-.3,1.76l.61,1.24a1.55,1.55,0,0,0,1.38.87H49.84A5,5,0,0,0,54.19,45.72Z"/><path class="cls-3" d="M32,17.23l17.91,31H14.09L32,17.23m0-6.47a3.44,3.44,0,0,0-3,1.74L8.48,48a3.48,3.48,0,0,0,3,5.22h41a3.48,3.48,0,0,0,3-5.22L35,12.5a3.44,3.44,0,0,0-3-1.74Z"/><path class="cls-2" d="M32,13.75a.47.47,0,0,1,.43.24l20.5,35.52a.45.45,0,0,1,0,.5.45.45,0,0,1-.42.24h-41a.45.45,0,0,1-.42-.24.45.45,0,0,1,0-.5L31.57,14a.47.47,0,0,1,.43-.24m0-3a3.44,3.44,0,0,0-3,1.74L8.48,48a3.48,3.48,0,0,0,3,5.22h41a3.48,3.48,0,0,0,3-5.22L35,12.5a3.44,3.44,0,0,0-3-1.74Z"/><path class="cls-4" d="M32,11.51a2.68,2.68,0,0,1,2.36,1.37L54.87,48.39a2.74,2.74,0,0,1-2.36,4.1h-41a2.74,2.74,0,0,1-2.36-4.1L29.64,12.88A2.68,2.68,0,0,1,32,11.51m0-.75a3.44,3.44,0,0,0-3,1.74L8.48,48a3.48,3.48,0,0,0,3,5.22h41a3.48,3.48,0,0,0,3-5.22L35,12.5a3.44,3.44,0,0,0-3-1.74Z"/><path class="cls-2" d="M29.39,31.66h-2a1.52,1.52,0,0,0-1.29.74l-1,1.7a1.5,1.5,0,0,0,0,1.48l1,1.7a1.49,1.49,0,0,0,1.29.74h2a1.47,1.47,0,0,0,1.28-.74l1-1.7a1.45,1.45,0,0,0,0-1.48l-1-1.7A1.49,1.49,0,0,0,29.39,31.66Z"/><path class="cls-2" d="M26.71,40.09l-.64-.64a.68.68,0,0,0-.66-.18l-.88.23a.68.68,0,0,0-.48.49l-.24.87a.69.69,0,0,0,.18.66l.64.64a.68.68,0,0,0,.66.18l.88-.23a.7.7,0,0,0,.48-.49l.23-.87A.67.67,0,0,0,26.71,40.09Z"/><path class="cls-2" d="M21.63,43.28,21,42.64a.69.69,0,0,0-.66-.18l-.87.24a.7.7,0,0,0-.49.48l-.23.88a.68.68,0,0,0,.18.66l.64.64a.69.69,0,0,0,.66.18l.87-.24a.7.7,0,0,0,.49-.48l.23-.88A.68.68,0,0,0,21.63,43.28Z"/><path class="cls-2" d="M31.1,40.58l-.25-.24a.26.26,0,0,0-.26-.07l-.33.09a.23.23,0,0,0-.19.19l-.09.33a.26.26,0,0,0,.07.26l.24.25a.31.31,0,0,0,.26.07l.34-.1a.24.24,0,0,0,.18-.18l.1-.34A.31.31,0,0,0,31.1,40.58Z"/><path class="cls-2" d="M23.72,46.64l-.25-.24a.23.23,0,0,0-.25-.07l-.34.09a.26.26,0,0,0-.19.19l-.09.33a.27.27,0,0,0,.07.26l.25.25a.29.29,0,0,0,.25.07l.34-.09a.28.28,0,0,0,.19-.19l.09-.34A.26.26,0,0,0,23.72,46.64Z"/><path class="cls-2" d="M30.07,43.45v-.2a.62.62,0,0,0-.32-.55l-.17-.1a.61.61,0,0,0-.64,0l-.18.1a.64.64,0,0,0-.32.55v.2a.67.67,0,0,0,.32.56l.18.1a.66.66,0,0,0,.64,0l.17-.1A.65.65,0,0,0,30.07,43.45Z"/><path class="cls-2" d="M25.35,44.81v-.1a.33.33,0,0,0-.16-.28l-.09,0a.36.36,0,0,0-.32,0l-.08,0a.33.33,0,0,0-.16.28v.1a.32.32,0,0,0,.16.28l.08,0a.31.31,0,0,0,.32,0l.09,0A.32.32,0,0,0,25.35,44.81Z"/><path class="cls-2" d="M32.13,39.28l.14-.13a.14.14,0,0,0,0-.14l0-.18a.13.13,0,0,0-.1-.1l-.18,0a.13.13,0,0,0-.13,0l-.13.13a.15.15,0,0,0,0,.14l0,.18a.13.13,0,0,0,.1.1l.18,0A.12.12,0,0,0,32.13,39.28Z"/><path class="cls-2" d="M30.62,30.39l0,0h-.08s0,0,0,0v0a0,0,0,0,0,0,0l0,0h.07l0,0v0A0,0,0,0,0,30.62,30.39Z"/><path class="cls-2" d="M32.41,32.18l0,0h-.07l0,0v0a0,0,0,0,0,0,0l0,0s0,0,0,0h0s0,0,0,0v0S32.42,32.19,32.41,32.18Z"/><path class="cls-2" d="M32.49,41.39l0,0h-.07l0,0v0s0,0,0,0l0,0s0,0,0,0h0s0,0,0,0v0S32.5,41.39,32.49,41.39Z"/><path class="cls-2" d="M33.81,41.39l0,0h-.07a0,0,0,0,0,0,0v0a0,0,0,0,0,0,0l0,0a0,0,0,0,0,0,0h0l0,0v0A0,0,0,0,0,33.81,41.39Z"/><path class="cls-2" d="M28.88,39.14l-.1-.1a.11.11,0,0,0-.11,0l-.14,0a.11.11,0,0,0-.08.08l0,.14a.09.09,0,0,0,0,.1l.1.11a.11.11,0,0,0,.11,0l.14,0a.11.11,0,0,0,.08-.08l0-.14A.11.11,0,0,0,28.88,39.14Z"/><path class="cls-2" d="M27.74,46.2l-.1-.1a.1.1,0,0,0-.1,0l-.15,0a.11.11,0,0,0-.07.08l0,.14a.09.09,0,0,0,0,.1l.1.11a.11.11,0,0,0,.11,0l.14,0a.11.11,0,0,0,.08-.08l0-.14A.11.11,0,0,0,27.74,46.2Z"/><path class="cls-2" d="M33.89,34.25l-.1-.1a.1.1,0,0,0-.1,0l-.15,0a.11.11,0,0,0-.07.08l0,.14a.09.09,0,0,0,0,.1l.1.11a.14.14,0,0,0,.11,0l.14,0a.11.11,0,0,0,.08-.08l0-.14A.11.11,0,0,0,33.89,34.25Z"/><path class="cls-2" d="M28.63,30.31l-.11-.1a.09.09,0,0,0-.1,0l-.14,0a.11.11,0,0,0-.08.08l0,.14a.09.09,0,0,0,0,.1l.1.11a.11.11,0,0,0,.11,0l.14,0a.11.11,0,0,0,.08-.08l0-.14A.11.11,0,0,0,28.63,30.31Z"/></svg>