<svg id="Layer_1" data-name="Layer 1" xmlns="http://www.w3.org/2000/svg" viewBox="0 0 64 64"><defs><style>.cls-1{fill:#F4DFDF;}.cls-2{fill:#DD1515;}.cls-3{fill:#e5cccc;}.cls-4{fill:#FC0707;}</style></defs><title>warning, signs, sign, alert, ledge</title><path class="cls-1" d="M55.52,48,35,12.5a3.47,3.47,0,0,0-6,0L8.48,48a3.48,3.48,0,0,0,3,5.22h41A3.48,3.48,0,0,0,55.52,48Z"/><path class="cls-1" d="M55.52,48,35,12.5a3.47,3.47,0,0,0-6,0L8.48,48a3.48,3.48,0,0,0,3,5.22h41A3.48,3.48,0,0,0,55.52,48Z"/><path class="cls-2" d="M52.51,53.24a3.47,3.47,0,0,0,2.12-.72v-6l-4.85-8.4H38.44a1.7,1.7,0,0,0-1.69,1.7V53.24Z"/><path class="cls-3" d="M32,17.23l17.91,31H14.09L32,17.23m0-6.47a3.44,3.44,0,0,0-3,1.74L8.48,48a3.48,3.48,0,0,0,3,5.22h41a3.48,3.48,0,0,0,3-5.22L35,12.5a3.44,3.44,0,0,0-3-1.74Z"/><path class="cls-2" d="M32,13.75a.47.47,0,0,1,.43.24l20.5,35.52a.45.45,0,0,1,0,.5.45.45,0,0,1-.42.24h-41a.45.45,0,0,1-.42-.24.45.45,0,0,1,0-.5L31.57,14a.47.47,0,0,1,.43-.24m0-3a3.44,3.44,0,0,0-3,1.74L8.48,48a3.48,3.48,0,0,0,3,5.22h41a3.48,3.48,0,0,0,3-5.22L35,12.5a3.44,3.44,0,0,0-3-1.74Z"/><path class="cls-4" d="M32,11.51a2.68,2.68,0,0,1,2.36,1.37L54.87,48.39a2.74,2.74,0,0,1-2.36,4.1h-41a2.74,2.74,0,0,1-2.36-4.1L29.64,12.88A2.68,2.68,0,0,1,32,11.51m0-.75a3.44,3.44,0,0,0-3,1.74L8.48,48a3.48,3.48,0,0,0,3,5.22h41a3.48,3.48,0,0,0,3-5.22L35,12.5a3.44,3.44,0,0,0-3-1.74Z"/><path class="cls-4" d="M27.46,32.42a1.67,1.67,0,1,0-2.34.3A1.66,1.66,0,0,0,27.46,32.42Z"/><path class="cls-4" d="M30.46,31a.49.49,0,0,0-.68.09L29,32.13a.47.47,0,0,1-.4.19l-.52,0a4.74,4.74,0,0,0-1.13.08,4.64,4.64,0,0,0-3.43,2.88L22.79,37a1.64,1.64,0,0,0,.23,1.6L24,40a.52.52,0,0,0,.89,0,.57.57,0,0,0,0-.46l-.7-1.47a.78.78,0,0,1,0-.74l.58-1,1.17,2a7.2,7.2,0,0,0,1.94,2.1l1.18.84L27.46,42.8a.7.7,0,0,0,1,1l2.47-2.34a.83.83,0,0,0-.06-1.26l-1.36-1.06,2.73-.47a.57.57,0,0,1,.52.18l1.86,2.06a.56.56,0,0,0,.71.1h0a.58.58,0,0,0,.2-.77l-1.76-3a.41.41,0,0,0,0-.09l0-.08h0a.48.48,0,0,0-.28-.17l-3.21-.16a1.53,1.53,0,0,1-1-.67l-1.33-2,1-.28a1.79,1.79,0,0,0,1.08-.86l.7-1.29A.48.48,0,0,0,30.46,31Z"/></svg>