<svg id="Layer_1" data-name="Layer 1" xmlns="http://www.w3.org/2000/svg" viewBox="0 0 64 64"><defs><style>.cls-1{fill:#dfe8f4;}.cls-2{fill:#dd1515;}.cls-3{fill:#ccd8e5;}.cls-4{fill:#ff5454;}</style></defs><title>warning, signs, sign, alert, graveyard</title><path class="cls-1" d="M55.52,48,35,12.5a3.47,3.47,0,0,0-6,0L8.48,48a3.48,3.48,0,0,0,3,5.22h41A3.48,3.48,0,0,0,55.52,48Z"/><path class="cls-1" d="M55.52,48,35,12.5a3.47,3.47,0,0,0-6,0L8.48,48a3.48,3.48,0,0,0,3,5.22h41A3.48,3.48,0,0,0,55.52,48Z"/><polygon class="cls-2" points="37.4 43.1 36.01 43.1 36.01 41.5 34.23 41.5 34.23 43.1 32.84 43.1 32.84 44.51 34.23 44.51 34.23 49.58 36.01 49.58 36.01 44.51 37.4 44.51 37.4 43.1"/><polygon class="cls-2" points="42.94 43.1 41.55 43.1 41.55 41.5 39.77 41.5 39.77 43.1 38.38 43.1 38.38 44.51 39.77 44.51 39.77 49.58 41.55 49.58 41.55 44.51 42.94 44.51 42.94 43.1"/><path class="cls-3" d="M32,17.23l17.91,31H14.09L32,17.23m0-6.47a3.44,3.44,0,0,0-3,1.74L8.48,48a3.48,3.48,0,0,0,3,5.22h41a3.48,3.48,0,0,0,3-5.22L35,12.5a3.44,3.44,0,0,0-3-1.74Z"/><path class="cls-2" d="M32,13.75a.47.47,0,0,1,.43.24l20.5,35.52a.45.45,0,0,1,0,.5.45.45,0,0,1-.42.24h-41a.45.45,0,0,1-.42-.24.45.45,0,0,1,0-.5L31.57,14a.47.47,0,0,1,.43-.24m0-3a3.44,3.44,0,0,0-3,1.74L8.48,48a3.48,3.48,0,0,0,3,5.22h41a3.48,3.48,0,0,0,3-5.22L35,12.5a3.44,3.44,0,0,0-3-1.74Z"/><path class="cls-4" d="M32,11.51a2.68,2.68,0,0,1,2.36,1.37L54.87,48.39a2.74,2.74,0,0,1-2.36,4.1h-41a2.74,2.74,0,0,1-2.36-4.1L29.64,12.88A2.68,2.68,0,0,1,32,11.51m0-.75a3.44,3.44,0,0,0-3,1.74L8.48,48a3.48,3.48,0,0,0,3,5.22h41a3.48,3.48,0,0,0,3-5.22L35,12.5a3.44,3.44,0,0,0-3-1.74Z"/><path class="cls-4" d="M32.73,32.4a2,2,0,1,0-1.25-2.5A2,2,0,0,0,32.73,32.4Z"/><path class="cls-4" d="M36.23,36.23l-1.51-.5a.56.56,0,0,1-.36-.37l-.18-.58a5.35,5.35,0,0,0-.52-1.23,5.5,5.5,0,0,0-4.55-2.71l-2.26-.07a1.94,1.94,0,0,0-1.69.88L24,33.28a.61.61,0,0,0,.41,1,.64.64,0,0,0,.51-.17l1.37-1.36a.91.91,0,0,1,.83-.25l1.34.25-1.71,2.07a8.32,8.32,0,0,0-1.58,3l-.48,1.65-2.4-1.18a.82.82,0,0,0-1.16.47.84.84,0,0,0,.4,1l3.58,1.83A1,1,0,0,0,26.45,41l.64-1.93,3,7.56a.61.61,0,0,0,1.17-.32l-1.18-7.46a1.84,1.84,0,0,1,.35-1.4l1.72-2.27.72,1a2.12,2.12,0,0,0,1.38.87l1.71.28a.57.57,0,0,0,.64-.39A.58.58,0,0,0,36.23,36.23Z"/></svg>