<svg id="Layer_1" data-name="Layer 1" xmlns="http://www.w3.org/2000/svg" viewBox="0 0 64 64"><defs><style>.cls-1{fill:#dfe8f4;}.cls-2{fill:#dd1515;}.cls-3{fill:#ccd8e5;}.cls-4{fill:#ff5454;}</style></defs><title>warning, signs, sign, alert, shark</title><path class="cls-1" d="M55.52,48,35,12.5a3.47,3.47,0,0,0-6,0L8.48,48a3.48,3.48,0,0,0,3,5.22h41A3.48,3.48,0,0,0,55.52,48Z"/><path class="cls-1" d="M55.52,48,35,12.5a3.47,3.47,0,0,0-6,0L8.48,48a3.48,3.48,0,0,0,3,5.22h41A3.48,3.48,0,0,0,55.52,48Z"/><path class="cls-2" d="M53.53,44.58,45.66,30.94a2.31,2.31,0,0,0-2.36-1.11,3.08,3.08,0,0,1-.53,0,3.47,3.47,0,0,1-1.1-.18,2.07,2.07,0,0,0-1.39,0,3.43,3.43,0,0,1-1.1.18,3.47,3.47,0,0,1-1.1-.18,2.07,2.07,0,0,0-1.39,0,3.45,3.45,0,0,1-2.2,0,2.07,2.07,0,0,0-1.39,0,3.45,3.45,0,0,1-2.2,0,2.07,2.07,0,0,0-1.39,0,3.45,3.45,0,0,1-2.2,0,2.07,2.07,0,0,0-1.39,0,3.47,3.47,0,0,1-1.1.18,3.43,3.43,0,0,1-1.1-.18,2.07,2.07,0,0,0-1.39,0,3.47,3.47,0,0,1-1.1.18,3.08,3.08,0,0,1-.53,0,2.31,2.31,0,0,0-2.36,1.11L10.47,44.58a5.78,5.78,0,0,0,5,8.66H48.53A5.78,5.78,0,0,0,53.53,44.58Z"/><path class="cls-3" d="M32,17.23l17.91,31H14.09L32,17.23m0-6.47a3.44,3.44,0,0,0-3,1.74L8.48,48a3.48,3.48,0,0,0,3,5.22h41a3.48,3.48,0,0,0,3-5.22L35,12.5a3.44,3.44,0,0,0-3-1.74Z"/><path class="cls-2" d="M32,13.75a.47.47,0,0,1,.43.24l20.5,35.52a.45.45,0,0,1,0,.5.45.45,0,0,1-.42.24h-41a.45.45,0,0,1-.42-.24.45.45,0,0,1,0-.5L31.57,14a.47.47,0,0,1,.43-.24m0-3a3.44,3.44,0,0,0-3,1.74L8.48,48a3.48,3.48,0,0,0,3,5.22h41a3.48,3.48,0,0,0,3-5.22L35,12.5a3.44,3.44,0,0,0-3-1.74Z"/><path class="cls-4" d="M32,11.51a2.68,2.68,0,0,1,2.36,1.37L54.87,48.39a2.74,2.74,0,0,1-2.36,4.1h-41a2.74,2.74,0,0,1-2.36-4.1L29.64,12.88A2.68,2.68,0,0,1,32,11.51m0-.75a3.44,3.44,0,0,0-3,1.74L8.48,48a3.48,3.48,0,0,0,3,5.22h41a3.48,3.48,0,0,0,3-5.22L35,12.5a3.44,3.44,0,0,0-3-1.74Z"/><path class="cls-1" d="M35.54,37.3a12.4,12.4,0,0,0-3.94-.88.25.25,0,0,0-.21.35,10.19,10.19,0,0,1,.53,1.54.25.25,0,0,1-.11.27,8.49,8.49,0,0,0-2.89,2.73.26.26,0,0,1-.25.12l-.43-.07a.25.25,0,0,0-.25.38l.18.27a.25.25,0,0,1-.05.33,1.81,1.81,0,0,1-.64.38c-.32.06-3.74-1.43-5.46-1.07a.24.24,0,0,0-.1.43,10,10,0,0,0,3.83,2,.24.24,0,0,1,.21.23c0,.38.06,1.23.14,1.83a.25.25,0,0,0,.45.1,8.57,8.57,0,0,0,1.16-2.58.26.26,0,0,1,.21-.2l.23,0a.24.24,0,0,1,.28.24h0a.25.25,0,0,0,.42.18l.7-.66a.23.23,0,0,1,.12-.06A47.37,47.37,0,0,0,35.4,41.7a.25.25,0,0,1,.35.21c0,.42,0,1.11,0,1.62a.25.25,0,0,0,.42.19A7.32,7.32,0,0,0,38,40.84a.24.24,0,0,1,.13-.15,10.07,10.07,0,0,0,4-3,.25.25,0,0,0-.17-.39,23.83,23.83,0,0,0-6.3.05A.16.16,0,0,1,35.54,37.3Z"/></svg>