<svg id="Layer_1" data-name="Layer 1" xmlns="http://www.w3.org/2000/svg" viewBox="0 0 64 64"><defs><style>.cls-1{fill:#dfe8f4;}.cls-2{fill:#ccd8e5;}.cls-3{fill:#dd1515;}.cls-4{fill:#ff5454;}</style></defs><title>warning, signs, sign, alert, gun, weapon</title><path class="cls-1" d="M55.52,48,35,12.5a3.47,3.47,0,0,0-6,0L8.48,48a3.48,3.48,0,0,0,3,5.22h41A3.48,3.48,0,0,0,55.52,48Z"/><path class="cls-1" d="M55.52,48,35,12.5a3.47,3.47,0,0,0-6,0L8.48,48a3.48,3.48,0,0,0,3,5.22h41A3.48,3.48,0,0,0,55.52,48Z"/><path class="cls-2" d="M32,17.23l17.91,31H14.09L32,17.23m0-6.47a3.44,3.44,0,0,0-3,1.74L8.48,48a3.48,3.48,0,0,0,3,5.22h41a3.48,3.48,0,0,0,3-5.22L35,12.5a3.44,3.44,0,0,0-3-1.74Z"/><path class="cls-3" d="M32,13.75a.47.47,0,0,1,.43.24l20.5,35.52a.45.45,0,0,1,0,.5.45.45,0,0,1-.42.24h-41a.45.45,0,0,1-.42-.24.45.45,0,0,1,0-.5L31.57,14a.47.47,0,0,1,.43-.24m0-3a3.44,3.44,0,0,0-3,1.74L8.48,48a3.48,3.48,0,0,0,3,5.22h41a3.48,3.48,0,0,0,3-5.22L35,12.5a3.44,3.44,0,0,0-3-1.74Z"/><path class="cls-4" d="M32,11.51a2.68,2.68,0,0,1,2.36,1.37L54.87,48.39a2.74,2.74,0,0,1-2.36,4.1h-41a2.74,2.74,0,0,1-2.36-4.1L29.64,12.88A2.68,2.68,0,0,1,32,11.51m0-.75a3.44,3.44,0,0,0-3,1.74L8.48,48a3.48,3.48,0,0,0,3,5.22h41a3.48,3.48,0,0,0,3-5.22L35,12.5a3.44,3.44,0,0,0-3-1.74Z"/><polygon class="cls-3" points="23.82 35.56 21.72 35.56 21.72 33.46 23.13 33.46 23.82 35.56"/><path class="cls-3" d="M43.13,44.59l-2-4.58a.5.5,0,0,1,.07-.51l1-1.29a.5.5,0,0,0,.1-.31v-3a.5.5,0,0,0-.5-.5H22.23a.5.5,0,0,0-.51.5v2.64a.51.51,0,0,0,.51.51h.37a.51.51,0,0,1,.5.39.5.5,0,0,0,.49.38H29.4a.5.5,0,0,1,.46.31l.48,1.1a2.35,2.35,0,0,0,2.15,1.41h2.43a.51.51,0,0,1,.41.21L36.82,44a3.42,3.42,0,0,1,.63,1.88l0,1.41a.5.5,0,0,0,.5.5h5a.51.51,0,0,0,.51-.51V46.1A3.76,3.76,0,0,0,43.13,44.59Zm-8.9-4h-2a.86.86,0,0,1-.8-.54L31,38.79h1.25L32.35,40h.45l.26-1.25h.86l.57,1.39A.28.28,0,0,1,34.23,40.56Z"/></svg>