<svg id="Layer_1" data-name="Layer 1" xmlns="http://www.w3.org/2000/svg" viewBox="0 0 64 64"><defs><style>.cls-1{fill:#F4DFDF;}.cls-2{fill:#FC0707;}.cls-3{fill:#DD1515;}.cls-4{fill:#e5cccc;}</style></defs><title>warning, signs, sign, alert, water, edge</title><path class="cls-1" d="M55.52,48,35,12.5a3.47,3.47,0,0,0-6,0L8.48,48a3.48,3.48,0,0,0,3,5.22h41A3.48,3.48,0,0,0,55.52,48Z"/><path class="cls-1" d="M55.56,48,35.06,12.5a3.47,3.47,0,0,0-6,0L8.53,48a3.48,3.48,0,0,0,3,5.22h41A3.48,3.48,0,0,0,55.56,48Z"/><path class="cls-2" d="M52.51,53.24a3.48,3.48,0,0,0,3-5.22l-1.85-3.2a2.08,2.08,0,0,0-1.13.07,3.17,3.17,0,0,1-1.1.18,3.21,3.21,0,0,1-1.1-.18,2.07,2.07,0,0,0-1.39,0,3.17,3.17,0,0,1-1.1.18,3.21,3.21,0,0,1-1.1-.18,2.07,2.07,0,0,0-1.39,0,3.45,3.45,0,0,1-2.2,0,2.07,2.07,0,0,0-1.39,0,3.45,3.45,0,0,1-2.2,0,2.07,2.07,0,0,0-1.39,0,3.45,3.45,0,0,1-2.2,0,2.07,2.07,0,0,0-1.39,0,3.21,3.21,0,0,1-1.1.18A3.08,3.08,0,0,1,33,45a2.33,2.33,0,0,0-2.36,1.11l-4.09,7.1Z"/><path class="cls-1" d="M55.52,48.87l-1.85-3.2a2.08,2.08,0,0,0-1.13.07,3.43,3.43,0,0,1-1.1.18,3.47,3.47,0,0,1-1.1-.18,2.07,2.07,0,0,0-1.39,0,3.43,3.43,0,0,1-1.1.18,3.47,3.47,0,0,1-1.1-.18,2.07,2.07,0,0,0-1.39,0,3.45,3.45,0,0,1-2.2,0,2.07,2.07,0,0,0-1.39,0,3.45,3.45,0,0,1-2.2,0,2.07,2.07,0,0,0-1.39,0,3.45,3.45,0,0,1-2.2,0,2.07,2.07,0,0,0-1.39,0,3.47,3.47,0,0,1-1.1.18,3.08,3.08,0,0,1-.53,0A2.33,2.33,0,0,0,30.6,47L27,53.24h.21l3.39-5.89A2.3,2.3,0,0,1,33,46.24a4.55,4.55,0,0,0,.53,0,3.21,3.21,0,0,0,1.1-.19,2.07,2.07,0,0,1,1.39,0,3.28,3.28,0,0,0,2.2,0,2.07,2.07,0,0,1,1.39,0,3.28,3.28,0,0,0,2.2,0,2.07,2.07,0,0,1,1.39,0,3.28,3.28,0,0,0,2.2,0,2.07,2.07,0,0,1,1.39,0,3.21,3.21,0,0,0,1.1.19,3.17,3.17,0,0,0,1.1-.19,2.07,2.07,0,0,1,1.39,0,3.21,3.21,0,0,0,1.1.19,3.17,3.17,0,0,0,1.1-.19A2.17,2.17,0,0,1,53.67,46l1.85,3.2a3.56,3.56,0,0,1,.41,1.14l0-.16A3.58,3.58,0,0,0,55.52,48.87Z"/><path class="cls-1" d="M55.52,50l-1.85-3.2a2.08,2.08,0,0,0-1.13.07,3.17,3.17,0,0,1-1.1.18,3.21,3.21,0,0,1-1.1-.18,2.07,2.07,0,0,0-1.39,0,3.17,3.17,0,0,1-1.1.18,3.21,3.21,0,0,1-1.1-.18,2.07,2.07,0,0,0-1.39,0,3.45,3.45,0,0,1-2.2,0,2.07,2.07,0,0,0-1.39,0,3.45,3.45,0,0,1-2.2,0,2.07,2.07,0,0,0-1.39,0,3.45,3.45,0,0,1-2.2,0,2.07,2.07,0,0,0-1.39,0,3.21,3.21,0,0,1-1.1.18A3.08,3.08,0,0,1,33,47a2.33,2.33,0,0,0-2.36,1.11l-2.94,5.11h.2l2.74-4.75A2.3,2.3,0,0,1,33,47.38a4.55,4.55,0,0,0,.53,0,3.47,3.47,0,0,0,1.1-.18,2.07,2.07,0,0,1,1.39,0,3.45,3.45,0,0,0,2.2,0,2.07,2.07,0,0,1,1.39,0,3.45,3.45,0,0,0,2.2,0,2.07,2.07,0,0,1,1.39,0,3.45,3.45,0,0,0,2.2,0,2.07,2.07,0,0,1,1.39,0,3.47,3.47,0,0,0,1.1.18,3.43,3.43,0,0,0,1.1-.18,2.07,2.07,0,0,1,1.39,0,3.47,3.47,0,0,0,1.1.18,3.43,3.43,0,0,0,1.1-.18,2.08,2.08,0,0,1,1.13-.07l1.85,3.2a3.19,3.19,0,0,1,.28.63.84.84,0,0,0,.05-.17A3.52,3.52,0,0,0,55.52,50Z"/><path class="cls-3" d="M32.35,43.62H12.17v6.59H33.58V44.86A1.24,1.24,0,0,0,32.35,43.62Z"/><path class="cls-4" d="M32,17.23l17.91,31H14.09L32,17.23m0-6.47a3.44,3.44,0,0,0-3,1.74L8.48,48a3.48,3.48,0,0,0,3,5.22h41a3.48,3.48,0,0,0,3-5.22L35,12.5a3.44,3.44,0,0,0-3-1.74Z"/><path class="cls-3" d="M32,13.75a.47.47,0,0,1,.43.24l20.5,35.52a.45.45,0,0,1,0,.5.45.45,0,0,1-.42.24h-41a.45.45,0,0,1-.42-.24.45.45,0,0,1,0-.5L31.57,14a.47.47,0,0,1,.43-.24m0-3a3.44,3.44,0,0,0-3,1.74L8.48,48a3.48,3.48,0,0,0,3,5.22h41a3.48,3.48,0,0,0,3-5.22L35,12.5a3.44,3.44,0,0,0-3-1.74Z"/><path class="cls-2" d="M32,11.51a2.68,2.68,0,0,1,2.36,1.37L54.87,48.39a2.74,2.74,0,0,1-2.36,4.1h-41a2.74,2.74,0,0,1-2.36-4.1L29.64,12.88A2.68,2.68,0,0,1,32,11.51m0-.75a3.44,3.44,0,0,0-3,1.74L8.48,48a3.48,3.48,0,0,0,3,5.22h41a3.48,3.48,0,0,0,3-5.22L35,12.5a3.44,3.44,0,0,0-3-1.74Z"/><path class="cls-2" d="M32.51,30.79a1.79,1.79,0,1,0-1.12-2.26A1.78,1.78,0,0,0,32.51,30.79Z"/><path class="cls-2" d="M35.67,34.26l-1.36-.46a.46.46,0,0,1-.32-.33l-.16-.53a4.78,4.78,0,0,0-.48-1.11,5,5,0,0,0-4.12-2.45l-2-.07a1.78,1.78,0,0,0-1.53.8l-1.08,1.47a.55.55,0,0,0,.83.73l1.24-1.23a.84.84,0,0,1,.75-.23l1.22.23L27.07,33a7.33,7.33,0,0,0-1.43,2.7l-.43,1.49L23,36.07a.75.75,0,0,0-.68,1.33l3.23,1.66a.89.89,0,0,0,1.25-.51l.58-1.75,2.7,6.84a.59.59,0,0,0,.34.32.55.55,0,0,0,.72-.61l-1.06-6.74a1.65,1.65,0,0,1,.32-1.27L32,33.28l.65.95a1.86,1.86,0,0,0,1.25.78l1.55.26a.52.52,0,0,0,.57-.35A.51.51,0,0,0,35.67,34.26Z"/></svg>