<svg id="Layer_1" data-name="Layer 1" xmlns="http://www.w3.org/2000/svg" viewBox="0 0 64 64"><defs><style>.cls-1{fill:#dfe8f4;}.cls-2{fill:#dd1515;}.cls-3{fill:#ccd8e5;}.cls-4{fill:#ff5454;}</style></defs><title>warning, signs, sign, alert, touch, electricity</title><path class="cls-1" d="M55.52,48,35,12.5a3.47,3.47,0,0,0-6,0L8.48,48a3.48,3.48,0,0,0,3,5.22h41A3.48,3.48,0,0,0,55.52,48Z"/><path class="cls-1" d="M55.52,48,35,12.5a3.47,3.47,0,0,0-6,0L8.48,48a3.48,3.48,0,0,0,3,5.22h41A3.48,3.48,0,0,0,55.52,48Z"/><path class="cls-2" d="M46.92,36.53H42.47a5.6,5.6,0,0,1-2.63-.65L36.79,34.3a7.57,7.57,0,0,0-3.52-.86H30.08a1.55,1.55,0,0,0-1.24.58,1,1,0,0,0,.7,1.69h1.91a.42.42,0,0,1,.41.41.41.41,0,0,1-.41.41H22.62a1,1,0,0,0-1,1v.33a1,1,0,0,0,1,1h4.73a.35.35,0,0,1,.35.35.35.35,0,0,1-.35.34H20.26a1,1,0,0,0-1,1v.33a1,1,0,0,0,1,1h7.09a.35.35,0,0,1,.35.35.35.35,0,0,1-.35.34H20.91a1,1,0,0,0-1,1v.33a1,1,0,0,0,1,1h6.44a.35.35,0,1,1,0,.7H23.88a1,1,0,0,0-1,1v.33a1,1,0,0,0,1,1H40.12a3,3,0,0,0,1.71-.54,3,3,0,0,1,1.73-.5h8.19Z"/><path class="cls-3" d="M32,17.23l17.91,31H14.09L32,17.23m0-6.47a3.44,3.44,0,0,0-3,1.74L8.48,48a3.48,3.48,0,0,0,3,5.22h41a3.48,3.48,0,0,0,3-5.22L35,12.5a3.44,3.44,0,0,0-3-1.74Z"/><path class="cls-2" d="M32,13.75a.47.47,0,0,1,.43.24l20.5,35.52a.45.45,0,0,1,0,.5.45.45,0,0,1-.42.24h-41a.45.45,0,0,1-.42-.24.45.45,0,0,1,0-.5L31.57,14a.47.47,0,0,1,.43-.24m0-3a3.44,3.44,0,0,0-3,1.74L8.48,48a3.48,3.48,0,0,0,3,5.22h41a3.48,3.48,0,0,0,3-5.22L35,12.5a3.44,3.44,0,0,0-3-1.74Z"/><path class="cls-4" d="M32,11.51a2.68,2.68,0,0,1,2.36,1.37L54.87,48.39a2.74,2.74,0,0,1-2.36,4.1h-41a2.74,2.74,0,0,1-2.36-4.1L29.64,12.88A2.68,2.68,0,0,1,32,11.51m0-.75a3.44,3.44,0,0,0-3,1.74L8.48,48a3.48,3.48,0,0,0,3,5.22h41a3.48,3.48,0,0,0,3-5.22L35,12.5a3.44,3.44,0,0,0-3-1.74Z"/><path class="cls-4" d="M32.9,25.43l.78-1.82a.2.2,0,0,0-.19-.28H31.68a.21.21,0,0,0-.19.12l-2.17,5.11a.2.2,0,0,0,.18.28h1.41a.2.2,0,0,1,.19.27l-.78,1.82a.2.2,0,0,0,.19.28h1.81a.21.21,0,0,0,.19-.12L34.68,26a.19.19,0,0,0-.18-.27H33.09A.2.2,0,0,1,32.9,25.43Z"/></svg>