<svg id="svg" version="1.1" xmlns="http://www.w3.org/2000/svg" xmlns:xlink="http://www.w3.org/1999/xlink" width= "300" height="97.196261682243" viewBox="0, 0, 400,97.196261682243"><g id="svgg"><path id="path0" d="M47.500 38.917 L 47.500 41.333 54.999 41.333 L 62.497 41.333 62.540 51.375 L 62.583 61.417 65.042 61.463 L 67.500 61.509 67.500 51.421 L 67.500 41.333 75.000 41.333 L 82.500 41.333 82.500 38.917 L 82.500 36.500 65.000 36.500 L 47.500 36.500 47.500 38.917 M98.414 36.903 C 97.130 37.504,96.718 38.041,93.818 42.899 C 92.335 45.384,90.952 47.679,90.744 48.000 C 89.686 49.637,82.833 61.189,82.833 61.337 C 82.833 61.449,83.792 61.492,85.619 61.462 L 88.404 61.417 89.202 60.167 C 89.642 59.479,90.057 58.804,90.126 58.667 C 90.195 58.529,90.841 57.423,91.563 56.208 L 92.876 54.000 101.578 54.000 L 110.281 54.000 111.909 56.708 C 112.804 58.198,113.816 59.867,114.157 60.417 L 114.777 61.417 117.555 61.462 C 119.298 61.491,120.333 61.447,120.333 61.344 C 120.333 61.254,119.742 60.183,119.019 58.965 C 116.786 55.201,111.170 45.845,110.014 43.961 C 109.411 42.978,108.434 41.345,107.845 40.334 C 105.887 36.974,105.112 36.501,101.583 36.507 C 99.488 36.511,99.165 36.552,98.414 36.903 M132.871 36.828 C 128.576 38.374,127.833 40.167,127.833 48.989 C 127.833 56.732,128.009 57.462,130.393 59.605 C 132.504 61.503,132.398 61.493,149.042 61.497 L 162.833 61.500 162.833 59.000 L 162.833 56.500 148.875 56.491 C 133.552 56.480,134.133 56.519,133.266 55.443 L 132.750 54.803 132.700 49.221 C 132.644 42.969,132.684 42.717,133.875 41.823 L 134.417 41.417 148.625 41.372 L 162.833 41.328 162.833 38.914 L 162.833 36.500 148.292 36.506 C 134.437 36.512,133.708 36.527,132.871 36.828 M173.667 48.899 C 173.667 60.051,173.693 61.308,173.930 61.399 C 174.075 61.454,175.199 61.500,176.428 61.500 L 178.662 61.500 178.706 56.458 L 178.750 51.417 191.250 51.417 L 203.750 51.417 203.833 56.417 L 203.917 61.417 206.375 61.463 L 208.833 61.509 208.833 49.004 L 208.833 36.500 206.333 36.500 L 203.833 36.500 203.833 41.500 L 203.833 46.500 191.250 46.500 L 178.667 46.500 178.667 41.500 L 178.667 36.500 176.167 36.500 L 173.667 36.500 173.667 48.899 M218.504 36.890 C 218.965 37.325,221.682 39.760,223.835 41.667 C 224.611 42.354,225.657 43.292,226.159 43.750 C 226.662 44.208,227.157 44.658,227.260 44.750 C 227.363 44.842,228.733 46.069,230.305 47.477 L 233.162 50.038 233.206 55.727 L 233.250 61.417 235.667 61.417 L 238.083 61.417 238.127 55.727 L 238.171 50.038 241.794 46.812 C 243.786 45.037,245.498 43.510,245.598 43.418 C 245.697 43.325,247.441 41.761,249.473 39.942 C 251.504 38.123,253.167 36.604,253.167 36.567 C 253.167 36.530,251.524 36.500,249.517 36.500 L 245.867 36.500 244.725 37.521 C 244.097 38.083,243.246 38.854,242.833 39.233 C 242.421 39.613,241.108 40.784,239.917 41.835 C 238.725 42.886,237.713 43.785,237.667 43.832 C 237.242 44.273,235.768 45.500,235.664 45.500 C 235.542 45.500,233.349 43.595,230.917 41.376 C 230.367 40.874,229.692 40.265,229.417 40.022 C 226.749 37.663,225.897 36.886,225.783 36.708 C 225.683 36.552,224.712 36.500,221.871 36.500 L 218.091 36.500 218.504 36.890 M266.167 36.653 C 263.433 37.499,261.236 40.026,260.838 42.780 C 260.623 44.261,260.625 53.581,260.839 55.065 C 261.303 58.276,263.893 60.882,267.054 61.320 C 269.070 61.599,288.227 61.552,289.840 61.264 C 292.580 60.775,294.870 58.586,295.558 55.799 C 295.986 54.062,295.964 43.546,295.528 41.976 C 294.942 39.862,293.464 38.074,291.512 37.120 L 290.417 36.583 278.500 36.554 C 271.946 36.538,266.396 36.582,266.167 36.653 M309.081 36.851 C 308.188 37.323,307.720 37.772,307.192 38.667 L 306.750 39.417 306.703 50.463 L 306.655 61.509 309.119 61.463 L 311.583 61.417 311.667 51.790 L 311.750 42.163 316.583 46.011 C 319.242 48.127,321.567 49.985,321.751 50.138 C 322.131 50.455,324.286 52.173,327.333 54.588 C 328.479 55.496,329.454 56.283,329.500 56.336 C 329.877 56.772,335.380 60.937,335.833 61.130 C 337.302 61.754,339.279 61.356,340.447 60.200 C 341.867 58.794,341.833 59.111,341.833 47.077 L 341.833 36.500 339.333 36.500 L 336.833 36.500 336.833 45.990 C 336.833 51.210,336.777 55.514,336.708 55.556 C 336.608 55.617,333.845 53.539,332.246 52.199 C 331.645 51.696,329.604 50.065,322.175 44.154 C 320.841 43.093,318.325 41.079,316.583 39.680 C 312.400 36.318,311.051 35.810,309.081 36.851 M103.293 42.375 C 104.659 44.513,107.000 48.553,107.000 48.772 C 107.000 48.960,106.036 49.000,101.500 49.000 C 98.475 49.000,96.000 48.956,96.000 48.901 C 96.000 48.824,99.131 43.556,100.275 41.708 C 100.477 41.383,100.648 41.333,101.568 41.333 L 102.628 41.333 103.293 42.375 M289.785 41.818 C 290.892 42.649,290.917 42.804,290.917 48.917 C 290.917 57.276,292.331 56.402,278.696 56.468 C 267.159 56.523,267.250 56.529,266.329 55.579 L 265.750 54.982 265.697 49.366 C 265.642 43.453,265.700 42.840,266.372 42.209 C 267.350 41.293,266.864 41.327,278.500 41.373 L 289.250 41.417 289.785 41.818 " stroke="none" fill="#fbfbfb" fill-rule="evenodd"></path><path id="path1" d="M3.000 49.000 L 3.000 93.833 200.250 93.833 L 397.500 93.833 397.500 49.000 L 397.500 4.167 200.250 4.167 L 3.000 4.167 3.000 49.000 M82.753 36.542 C 82.804 36.748,82.824 37.929,82.798 39.167 L 82.750 41.417 75.210 41.460 L 67.669 41.503 67.626 51.543 L 67.583 61.583 64.958 61.629 L 62.333 61.675 62.333 51.589 L 62.333 41.503 54.792 41.460 L 47.250 41.417 47.202 39.167 C 47.176 37.929,47.196 36.748,47.247 36.542 L 47.340 36.167 65.000 36.167 L 82.660 36.167 82.753 36.542 M104.826 36.664 C 105.672 37.093,107.248 38.632,107.426 39.202 C 107.491 39.412,107.596 39.621,107.658 39.667 C 107.721 39.712,108.328 40.688,109.008 41.833 C 109.688 42.979,110.320 44.043,110.414 44.197 C 110.507 44.351,111.361 45.776,112.310 47.364 C 113.260 48.951,114.849 51.600,115.841 53.250 C 119.578 59.467,120.667 61.328,120.667 61.498 C 120.667 61.617,119.679 61.659,117.638 61.629 L 114.609 61.583 113.901 60.417 C 112.973 58.887,111.010 55.607,110.568 54.848 L 110.220 54.250 101.627 54.207 L 93.033 54.164 92.225 55.508 C 91.780 56.248,91.283 57.092,91.120 57.385 C 90.957 57.677,90.315 58.742,89.693 59.750 L 88.561 61.583 85.531 61.629 C 83.430 61.660,82.500 61.619,82.500 61.493 C 82.500 61.285,82.829 60.624,82.994 60.500 C 83.055 60.454,83.988 58.917,85.069 57.083 C 87.986 52.133,89.793 49.105,89.947 48.908 C 90.022 48.812,90.191 48.549,90.322 48.325 C 92.230 45.060,93.423 43.067,93.509 43.000 C 93.567 42.954,93.721 42.716,93.849 42.471 C 96.001 38.374,97.304 36.909,99.333 36.311 C 100.302 36.025,104.041 36.266,104.826 36.664 M163.083 38.833 L 163.083 41.417 148.917 41.500 C 133.890 41.588,134.385 41.557,133.542 42.486 L 133.000 43.083 133.000 48.951 L 133.000 54.819 133.641 55.493 L 134.282 56.167 148.516 56.169 C 156.345 56.171,162.846 56.233,162.963 56.307 C 163.124 56.409,163.164 57.068,163.129 59.013 L 163.083 61.583 148.834 61.626 C 140.434 61.651,134.237 61.604,133.736 61.512 C 131.151 61.034,128.882 58.985,127.909 56.250 C 127.521 55.161,127.569 42.724,127.966 41.583 C 128.838 39.073,130.294 37.576,132.750 36.664 C 134.012 36.195,133.481 36.210,148.750 36.231 L 163.083 36.250 163.083 38.833 M178.833 41.250 L 178.833 46.333 191.248 46.333 L 203.662 46.333 203.706 41.292 L 203.750 36.250 206.333 36.250 L 208.917 36.250 208.959 48.958 L 209.002 61.667 206.334 61.667 L 203.667 61.667 203.667 56.667 L 203.667 51.667 191.250 51.667 L 178.833 51.667 178.833 56.671 L 178.833 61.675 176.208 61.629 L 173.583 61.583 173.540 49.083 C 173.517 42.208,173.533 36.490,173.577 36.375 C 173.636 36.221,174.327 36.167,176.245 36.167 L 178.833 36.167 178.833 41.250 M226.110 36.794 C 226.491 37.136,227.091 37.669,227.443 37.978 C 228.204 38.646,230.881 41.045,231.000 41.167 C 231.046 41.213,231.758 41.851,232.582 42.584 C 233.407 43.317,234.382 44.197,234.749 44.540 C 235.592 45.326,235.714 45.321,236.654 44.458 C 237.079 44.069,237.982 43.262,238.662 42.667 C 239.342 42.071,240.019 41.471,240.167 41.333 C 240.314 41.196,240.772 40.783,241.184 40.417 C 242.793 38.983,244.575 37.388,245.230 36.794 L 245.917 36.171 249.708 36.169 C 254.261 36.166,254.149 36.040,251.593 38.310 C 250.545 39.241,249.589 40.100,249.468 40.218 C 249.348 40.336,248.125 41.430,246.750 42.650 C 245.375 43.870,243.950 45.143,243.583 45.479 C 243.217 45.816,241.885 47.011,240.625 48.136 L 238.333 50.180 238.333 55.928 L 238.333 61.675 235.708 61.629 L 233.083 61.583 233.040 55.897 L 232.996 50.211 232.118 49.397 C 231.194 48.540,229.459 46.981,226.839 44.652 C 225.972 43.881,225.143 43.137,224.998 43.000 C 224.852 42.862,224.103 42.188,223.331 41.500 C 222.560 40.813,221.510 39.875,220.999 39.417 C 220.487 38.958,219.529 38.106,218.870 37.522 C 218.211 36.938,217.712 36.394,217.762 36.313 C 217.812 36.233,219.555 36.168,221.635 36.169 L 225.417 36.171 226.110 36.794 M290.970 36.633 C 293.540 37.718,295.434 39.945,295.823 42.339 C 296.044 43.701,296.053 54.076,295.834 55.423 C 295.507 57.441,293.049 60.833,291.915 60.833 C 291.860 60.833,291.463 61.002,291.033 61.208 L 290.250 61.583 279.000 61.633 C 271.434 61.667,267.406 61.624,266.701 61.502 C 263.869 61.013,261.210 58.368,260.666 55.498 C 260.452 54.368,260.449 43.481,260.663 42.354 C 261.109 40.003,263.512 37.142,265.375 36.744 C 265.673 36.680,265.992 36.568,266.083 36.496 C 266.415 36.232,267.428 36.211,278.667 36.235 L 290.083 36.259 290.970 36.633 M312.833 36.600 C 313.281 36.819,317.428 40.043,321.000 42.949 C 321.390 43.267,325.587 46.618,327.252 47.941 C 328.076 48.596,329.387 49.642,330.167 50.265 C 330.946 50.888,332.296 51.964,333.167 52.656 C 334.037 53.348,334.892 54.027,335.065 54.165 C 335.239 54.304,335.624 54.623,335.921 54.875 C 336.218 55.127,336.507 55.333,336.564 55.333 C 336.620 55.333,336.667 51.019,336.667 45.746 L 336.667 36.158 339.292 36.204 L 341.917 36.250 341.917 47.250 L 341.917 58.250 341.529 59.038 C 339.995 62.152,336.411 62.492,333.484 59.801 C 333.254 59.590,332.770 59.194,332.408 58.923 C 332.046 58.651,331.667 58.351,331.565 58.256 C 331.463 58.161,331.095 57.858,330.748 57.583 C 328.654 55.927,326.370 54.105,326.083 53.862 C 325.900 53.707,325.000 52.986,324.083 52.259 C 319.174 48.366,318.902 48.149,318.101 47.491 C 317.816 47.257,316.496 46.210,315.167 45.163 C 313.837 44.117,312.605 43.127,312.427 42.964 C 312.249 42.800,312.044 42.667,311.970 42.667 C 311.896 42.667,311.817 46.923,311.793 52.125 L 311.750 61.583 309.125 61.629 L 306.500 61.675 306.504 50.629 C 306.508 38.250,306.442 38.942,307.735 37.625 C 309.118 36.217,311.196 35.799,312.833 36.600 M100.636 41.708 C 100.493 41.823,99.937 42.667,99.400 43.583 C 98.864 44.500,98.384 45.288,98.334 45.333 C 98.284 45.379,98.152 45.604,98.039 45.833 C 97.927 46.063,97.741 46.393,97.626 46.567 C 96.828 47.776,96.333 48.594,96.333 48.705 C 96.333 48.775,98.696 48.833,101.583 48.833 C 104.471 48.833,106.833 48.807,106.833 48.775 C 106.833 48.699,103.535 43.121,102.950 42.208 C 102.462 41.447,101.283 41.192,100.636 41.708 M267.777 41.662 C 266.038 41.998,265.849 42.716,265.845 49.000 C 265.841 54.108,265.942 54.988,266.610 55.655 L 267.038 56.083 278.061 56.124 C 290.096 56.169,289.595 56.208,290.287 55.181 C 290.663 54.622,290.667 54.569,290.667 49.050 C 290.667 42.306,290.592 42.032,288.647 41.663 C 287.649 41.474,268.755 41.473,267.777 41.662 " stroke="none" fill="#dc2434" fill-rule="evenodd"></path><path id="path2" d="M47.407 36.549 C 47.361 36.668,47.347 37.812,47.375 39.091 L 47.427 41.417 47.463 38.958 L 47.500 36.500 64.996 36.500 L 82.491 36.500 82.544 38.875 L 82.597 41.250 82.590 38.833 L 82.583 36.417 65.037 36.374 C 50.744 36.340,47.475 36.372,47.407 36.549 M100.632 36.457 C 101.208 36.490,102.108 36.489,102.632 36.456 C 103.155 36.423,102.683 36.397,101.583 36.397 C 100.483 36.397,100.055 36.424,100.632 36.457 M148.454 36.458 L 162.824 36.502 162.877 38.876 L 162.930 41.250 162.923 38.833 L 162.917 36.417 148.500 36.415 L 134.083 36.414 148.454 36.458 M176.164 36.456 L 178.662 36.509 178.710 41.463 L 178.757 46.417 178.754 41.417 L 178.750 36.417 176.208 36.410 L 173.666 36.403 176.164 36.456 M205.042 36.457 C 205.752 36.488,206.915 36.488,207.625 36.457 C 208.335 36.426,207.754 36.400,206.333 36.400 C 204.912 36.400,204.331 36.426,205.042 36.457 M218.000 36.474 C 218.000 36.552,218.169 36.758,218.375 36.933 L 218.750 37.250 218.435 36.878 L 218.121 36.506 221.852 36.458 L 225.583 36.410 221.792 36.372 C 219.706 36.351,218.000 36.397,218.000 36.474 M245.653 36.625 C 245.466 36.873,245.468 36.886,245.666 36.708 C 245.838 36.555,246.868 36.500,249.562 36.500 L 253.225 36.500 252.821 36.958 L 252.417 37.417 252.875 37.013 C 253.127 36.790,253.333 36.547,253.333 36.471 C 253.333 36.161,245.892 36.310,245.653 36.625 M272.720 36.458 C 275.821 36.484,280.846 36.484,283.887 36.458 C 286.928 36.433,284.392 36.412,278.250 36.412 C 272.108 36.412,269.620 36.433,272.720 36.458 M310.544 36.453 C 310.797 36.491,311.172 36.490,311.377 36.451 C 311.582 36.411,311.375 36.380,310.917 36.381 C 310.458 36.382,310.291 36.415,310.544 36.453 M336.778 36.444 C 336.717 36.506,336.667 40.822,336.667 46.038 C 336.667 53.163,336.619 55.490,336.474 55.401 C 336.354 55.326,336.327 55.355,336.402 55.477 C 336.777 56.083,336.833 54.839,336.833 45.995 L 336.833 36.509 339.375 36.458 L 341.917 36.407 339.403 36.370 C 338.020 36.350,336.839 36.383,336.778 36.444 M226.333 37.219 C 226.333 37.248,226.577 37.491,226.875 37.760 L 227.417 38.250 226.927 37.708 C 226.471 37.203,226.333 37.090,226.333 37.219 M244.324 37.792 L 243.750 38.417 244.375 37.842 C 244.957 37.308,245.077 37.167,244.949 37.167 C 244.922 37.167,244.640 37.448,244.324 37.792 M219.500 37.917 C 219.811 38.237,220.103 38.500,220.149 38.500 C 220.195 38.500,219.978 38.237,219.667 37.917 C 219.356 37.596,219.064 37.333,219.018 37.333 C 218.972 37.333,219.189 37.596,219.500 37.917 M251.240 38.375 L 250.750 38.917 251.292 38.427 C 251.797 37.971,251.910 37.833,251.781 37.833 C 251.752 37.833,251.509 38.077,251.240 38.375 M262.833 38.583 C 262.428 38.996,262.135 39.333,262.181 39.333 C 262.226 39.333,262.595 38.996,263.000 38.583 C 263.405 38.171,263.699 37.833,263.653 37.833 C 263.607 37.833,263.238 38.171,262.833 38.583 M228.167 38.917 C 228.478 39.237,228.770 39.500,228.815 39.500 C 228.861 39.500,228.644 39.237,228.333 38.917 C 228.022 38.596,227.730 38.333,227.685 38.333 C 227.639 38.333,227.856 38.596,228.167 38.917 M220.833 39.052 C 220.833 39.081,221.077 39.325,221.375 39.594 L 221.917 40.083 221.427 39.542 C 220.971 39.037,220.833 38.923,220.833 39.052 M249.740 39.708 L 249.250 40.250 249.792 39.760 C 250.297 39.304,250.410 39.167,250.281 39.167 C 250.252 39.167,250.009 39.410,249.740 39.708 M241.073 40.708 L 240.583 41.250 241.125 40.760 C 241.630 40.304,241.743 40.167,241.615 40.167 C 241.586 40.167,241.342 40.410,241.073 40.708 M222.833 40.917 C 223.144 41.237,223.436 41.500,223.482 41.500 C 223.528 41.500,223.311 41.237,223.000 40.917 C 222.689 40.596,222.397 40.333,222.351 40.333 C 222.305 40.333,222.522 40.596,222.833 40.917 M306.579 50.917 C 306.579 56.783,306.599 59.159,306.625 56.196 C 306.650 53.233,306.650 48.433,306.625 45.530 C 306.599 42.626,306.578 45.050,306.579 50.917 M247.991 41.292 L 247.417 41.917 248.042 41.342 C 248.623 40.808,248.743 40.667,248.616 40.667 C 248.588 40.667,248.307 40.948,247.991 41.292 M231.500 41.917 C 231.811 42.237,232.103 42.500,232.149 42.500 C 232.195 42.500,231.978 42.237,231.667 41.917 C 231.356 41.596,231.064 41.333,231.018 41.333 C 230.972 41.333,231.189 41.596,231.500 41.917 M239.658 41.958 L 239.083 42.583 239.708 42.009 C 240.290 41.474,240.410 41.333,240.283 41.333 C 240.255 41.333,239.974 41.615,239.658 41.958 M224.500 42.417 C 224.811 42.737,225.103 43.000,225.149 43.000 C 225.195 43.000,224.978 42.737,224.667 42.417 C 224.356 42.096,224.064 41.833,224.018 41.833 C 223.972 41.833,224.189 42.096,224.500 42.417 M260.705 43.000 C 260.705 43.321,260.740 43.452,260.782 43.292 C 260.823 43.131,260.823 42.869,260.782 42.708 C 260.740 42.548,260.705 42.679,260.705 43.000 M225.833 43.583 C 226.144 43.904,226.436 44.167,226.482 44.167 C 226.528 44.167,226.311 43.904,226.000 43.583 C 225.689 43.262,225.397 43.000,225.351 43.000 C 225.305 43.000,225.522 43.262,225.833 43.583 M232.833 43.052 C 232.833 43.081,233.077 43.325,233.375 43.594 L 233.917 44.083 233.427 43.542 C 232.971 43.037,232.833 42.923,232.833 43.052 M132.741 48.917 C 132.741 51.942,132.764 53.203,132.791 51.719 C 132.819 50.235,132.819 47.760,132.791 46.219 C 132.764 44.678,132.741 45.892,132.741 48.917 M244.740 44.208 L 244.250 44.750 244.792 44.260 C 245.297 43.804,245.410 43.667,245.281 43.667 C 245.252 43.667,245.009 43.910,244.740 44.208 M290.908 48.917 C 290.908 51.850,290.930 53.027,290.958 51.531 C 290.986 50.036,290.986 47.636,290.958 46.198 C 290.930 44.760,290.908 45.983,290.908 48.917 M234.167 44.219 C 234.167 44.248,234.410 44.491,234.708 44.760 L 235.250 45.250 234.760 44.708 C 234.304 44.203,234.167 44.090,234.167 44.219 M243.324 45.458 L 242.750 46.083 243.375 45.509 C 243.719 45.193,244.000 44.912,244.000 44.884 C 244.000 44.757,243.859 44.877,243.324 45.458 M229.167 46.583 C 229.478 46.904,229.770 47.167,229.815 47.167 C 229.861 47.167,229.644 46.904,229.333 46.583 C 229.022 46.262,228.730 46.000,228.685 46.000 C 228.639 46.000,228.856 46.262,229.167 46.583 M241.906 46.708 L 241.417 47.250 241.958 46.760 C 242.463 46.304,242.577 46.167,242.448 46.167 C 242.419 46.167,242.175 46.410,241.906 46.708 M230.333 47.552 C 230.333 47.581,230.577 47.825,230.875 48.094 L 231.417 48.583 230.927 48.042 C 230.471 47.537,230.333 47.423,230.333 47.552 M240.240 48.208 L 239.750 48.750 240.292 48.260 C 240.590 47.991,240.833 47.748,240.833 47.719 C 240.833 47.590,240.696 47.703,240.240 48.208 M96.173 48.489 C 95.951 48.903,95.955 49.000,96.194 49.000 C 96.301 49.000,96.342 48.953,96.284 48.895 C 96.226 48.837,96.253 48.649,96.345 48.478 C 96.437 48.307,96.474 48.167,96.428 48.167 C 96.383 48.167,96.267 48.312,96.173 48.489 M232.500 49.583 C 232.811 49.904,233.103 50.167,233.149 50.167 C 233.195 50.167,232.978 49.904,232.667 49.583 C 232.356 49.262,232.064 49.000,232.018 49.000 C 231.972 49.000,232.189 49.262,232.500 49.583 M238.658 49.625 L 238.083 50.250 238.708 49.676 C 239.052 49.360,239.333 49.078,239.333 49.051 C 239.333 48.923,239.192 49.043,238.658 49.625 M178.742 51.544 C 178.698 51.659,178.683 53.928,178.708 56.585 L 178.755 61.417 178.794 56.456 L 178.833 51.496 191.317 51.540 C 198.184 51.564,203.767 51.527,203.724 51.458 C 203.579 51.223,178.833 51.307,178.742 51.544 M260.705 54.833 C 260.705 55.154,260.740 55.285,260.782 55.125 C 260.823 54.965,260.823 54.702,260.782 54.542 C 260.740 54.381,260.705 54.512,260.705 54.833 M295.604 55.521 C 295.465 56.216,295.600 56.350,295.750 55.667 C 295.813 55.379,295.830 55.108,295.788 55.066 C 295.745 55.023,295.663 55.228,295.604 55.521 M133.416 55.640 C 133.598 55.855,133.897 56.108,134.081 56.203 C 134.435 56.384,134.384 56.328,133.585 55.664 C 133.103 55.265,133.097 55.264,133.416 55.640 M290.242 55.514 C 290.180 55.613,289.895 55.837,289.607 56.013 C 289.319 56.188,289.176 56.332,289.289 56.333 C 289.502 56.333,290.672 55.347,290.468 55.338 C 290.405 55.336,290.303 55.414,290.242 55.514 M148.871 56.458 L 162.825 56.502 162.877 59.001 L 162.930 61.500 162.923 58.959 L 162.917 56.417 148.917 56.415 L 134.917 56.414 148.871 56.458 M272.970 56.458 C 275.933 56.484,280.733 56.484,283.637 56.458 C 286.541 56.433,284.117 56.412,278.250 56.412 C 272.383 56.412,270.008 56.433,272.970 56.458 M134.042 61.448 C 134.202 61.490,134.465 61.490,134.625 61.448 C 134.785 61.406,134.654 61.372,134.333 61.372 C 134.012 61.372,133.881 61.406,134.042 61.448 M266.960 61.451 C 267.168 61.491,267.468 61.490,267.627 61.448 C 267.786 61.406,267.617 61.374,267.250 61.375 C 266.883 61.377,266.753 61.411,266.960 61.451 M289.042 61.448 C 289.202 61.490,289.465 61.490,289.625 61.448 C 289.785 61.406,289.654 61.372,289.333 61.372 C 289.012 61.372,288.881 61.406,289.042 61.448 " stroke="none" fill="#ec949c" fill-rule="evenodd"></path><path id="path3" d="M56.125 36.292 C 61.006 36.316,68.994 36.316,73.875 36.292 C 78.756 36.267,74.763 36.247,65.000 36.247 C 55.237 36.247,51.244 36.267,56.125 36.292 M100.632 36.290 C 101.208 36.323,102.108 36.323,102.632 36.290 C 103.155 36.257,102.683 36.230,101.583 36.230 C 100.483 36.231,100.055 36.258,100.632 36.290 M148.633 36.291 L 163.016 36.335 162.966 38.910 C 162.939 40.326,162.975 41.426,163.046 41.354 C 163.118 41.283,163.155 40.105,163.130 38.737 L 163.083 36.250 148.667 36.249 L 134.250 36.247 148.633 36.291 M173.611 36.278 C 173.457 36.432,173.471 61.462,173.625 61.558 C 173.694 61.600,173.730 55.938,173.706 48.976 L 173.663 36.317 176.248 36.367 C 177.670 36.394,178.834 36.360,178.834 36.292 C 178.833 36.137,173.765 36.124,173.611 36.278 M203.776 36.292 C 203.733 36.360,204.884 36.417,206.333 36.417 C 207.782 36.417,208.933 36.360,208.891 36.292 C 208.848 36.223,207.698 36.167,206.333 36.167 C 204.969 36.167,203.818 36.223,203.776 36.292 M217.765 36.309 C 217.717 36.387,217.880 36.631,218.129 36.851 C 218.467 37.149,218.508 37.162,218.290 36.904 C 218.131 36.713,218.000 36.507,218.000 36.445 C 218.000 36.225,225.416 36.318,225.667 36.542 C 225.866 36.719,225.868 36.706,225.680 36.458 C 225.439 36.139,217.957 35.998,217.765 36.309 M245.645 36.458 C 245.443 36.716,245.447 36.726,245.680 36.545 C 245.866 36.400,247.057 36.326,249.763 36.292 L 253.583 36.243 249.729 36.205 C 246.229 36.170,245.853 36.193,245.645 36.458 M272.720 36.292 C 275.821 36.317,280.846 36.317,283.887 36.292 C 286.928 36.266,284.392 36.245,278.250 36.245 C 272.108 36.245,269.620 36.266,272.720 36.292 M310.544 36.286 C 310.797 36.325,311.172 36.324,311.377 36.284 C 311.582 36.244,311.375 36.213,310.917 36.214 C 310.458 36.216,310.291 36.248,310.544 36.286 M339.249 36.289 L 341.831 36.342 341.876 46.921 L 341.920 57.500 341.919 46.875 L 341.917 36.250 339.291 36.243 L 336.666 36.237 339.249 36.289 M289.681 36.393 C 289.719 36.426,289.975 36.503,290.250 36.565 C 290.615 36.647,290.683 36.631,290.500 36.508 C 290.275 36.355,289.513 36.249,289.681 36.393 M47.197 38.865 C 47.181 40.212,47.223 41.349,47.292 41.391 C 47.360 41.434,47.397 40.707,47.373 39.776 C 47.293 36.712,47.229 36.379,47.197 38.865 M82.666 38.951 C 82.621 40.344,82.642 41.426,82.713 41.354 C 82.784 41.282,82.822 40.142,82.796 38.820 L 82.749 36.417 82.666 38.951 M252.906 37.042 L 252.417 37.583 252.958 37.094 C 253.463 36.638,253.577 36.500,253.448 36.500 C 253.419 36.500,253.175 36.744,252.906 37.042 M105.833 37.385 C 105.833 37.414,106.077 37.658,106.375 37.927 L 106.917 38.417 106.427 37.875 C 105.971 37.370,105.833 37.257,105.833 37.385 M219.167 37.719 C 219.167 37.748,219.410 37.991,219.708 38.260 L 220.250 38.750 219.760 38.208 C 219.304 37.703,219.167 37.590,219.167 37.719 M262.577 38.708 L 261.750 39.583 262.625 38.756 C 263.106 38.301,263.500 37.908,263.500 37.881 C 263.500 37.757,263.346 37.895,262.577 38.708 M129.740 38.542 L 129.250 39.083 129.792 38.594 C 130.090 38.325,130.333 38.081,130.333 38.052 C 130.333 37.923,130.196 38.037,129.740 38.542 M228.000 38.552 C 228.000 38.581,228.244 38.825,228.542 39.094 L 229.083 39.583 228.594 39.042 C 228.138 38.537,228.000 38.423,228.000 38.552 M221.167 39.583 C 221.478 39.904,221.770 40.167,221.815 40.167 C 221.861 40.167,221.644 39.904,221.333 39.583 C 221.022 39.262,220.730 39.000,220.685 39.000 C 220.639 39.000,220.856 39.262,221.167 39.583 M229.833 40.250 C 230.144 40.571,230.436 40.833,230.482 40.833 C 230.528 40.833,230.311 40.571,230.000 40.250 C 229.689 39.929,229.397 39.667,229.351 39.667 C 229.305 39.667,229.522 39.929,229.833 40.250 M241.158 40.458 L 240.583 41.083 241.208 40.509 C 241.790 39.974,241.910 39.833,241.783 39.833 C 241.755 39.833,241.474 40.115,241.158 40.458 M248.158 41.292 L 247.583 41.917 248.208 41.342 C 248.790 40.808,248.910 40.667,248.783 40.667 C 248.755 40.667,248.474 40.948,248.158 41.292 M67.578 51.500 C 67.578 57.046,67.599 59.315,67.625 56.542 C 67.651 53.769,67.651 49.231,67.625 46.458 C 67.599 43.685,67.578 45.954,67.578 51.500 M239.406 42.042 L 238.917 42.583 239.458 42.094 C 239.963 41.638,240.077 41.500,239.948 41.500 C 239.919 41.500,239.675 41.744,239.406 42.042 M223.833 41.885 C 223.833 41.914,224.077 42.158,224.375 42.427 L 224.917 42.917 224.427 42.375 C 223.971 41.870,223.833 41.757,223.833 41.885 M246.406 42.875 L 245.917 43.417 246.458 42.927 C 246.963 42.471,247.077 42.333,246.948 42.333 C 246.919 42.333,246.675 42.577,246.406 42.875 M311.707 52.042 L 311.747 61.583 311.792 52.125 C 311.816 46.923,311.895 42.667,311.968 42.667 C 312.041 42.667,312.205 42.760,312.334 42.875 C 312.532 43.052,312.534 43.040,312.347 42.792 C 311.675 41.904,311.665 42.052,311.707 52.042 M233.167 43.250 C 233.478 43.571,233.770 43.833,233.815 43.833 C 233.861 43.833,233.644 43.571,233.333 43.250 C 233.022 42.929,232.730 42.667,232.685 42.667 C 232.639 42.667,232.856 42.929,233.167 43.250 M295.909 48.917 C 295.909 52.217,295.931 53.590,295.958 51.969 C 295.985 50.348,295.985 47.648,295.958 45.969 C 295.931 44.290,295.909 45.617,295.909 48.917 M265.774 43.787 C 265.717 44.133,265.685 46.554,265.703 49.167 L 265.735 53.917 265.826 48.583 C 265.876 45.650,265.908 43.229,265.898 43.203 C 265.887 43.177,265.832 43.440,265.774 43.787 M132.908 48.917 C 132.908 51.942,132.930 53.203,132.958 51.719 C 132.986 50.235,132.986 47.760,132.958 46.219 C 132.931 44.678,132.908 45.892,132.908 48.917 M225.667 43.552 C 225.667 43.581,225.910 43.825,226.208 44.094 L 226.750 44.583 226.260 44.042 C 225.804 43.537,225.667 43.423,225.667 43.552 M244.906 44.208 L 244.417 44.750 244.958 44.260 C 245.463 43.804,245.577 43.667,245.448 43.667 C 245.419 43.667,245.175 43.910,244.906 44.208 M290.741 48.917 C 290.741 51.850,290.764 53.027,290.791 51.531 C 290.819 50.036,290.819 47.636,290.791 46.198 C 290.764 44.760,290.741 45.983,290.741 48.917 M236.658 44.458 L 236.083 45.083 236.708 44.509 C 237.052 44.193,237.333 43.912,237.333 43.884 C 237.333 43.757,237.192 43.877,236.658 44.458 M227.500 45.250 C 227.811 45.571,228.103 45.833,228.149 45.833 C 228.195 45.833,227.978 45.571,227.667 45.250 C 227.356 44.929,227.064 44.667,227.018 44.667 C 226.972 44.667,227.189 44.929,227.500 45.250 M241.824 46.958 L 241.250 47.583 241.875 47.009 C 242.219 46.693,242.500 46.412,242.500 46.384 C 242.500 46.257,242.359 46.377,241.824 46.958 M317.893 47.295 C 318.025 47.509,319.000 48.230,319.000 48.114 C 319.000 48.073,318.725 47.830,318.388 47.573 C 318.052 47.316,317.829 47.191,317.893 47.295 M230.333 47.719 C 230.333 47.748,230.577 47.991,230.875 48.260 L 231.417 48.750 230.927 48.208 C 230.471 47.703,230.333 47.590,230.333 47.719 M240.240 48.375 L 239.750 48.917 240.292 48.427 C 240.797 47.971,240.910 47.833,240.781 47.833 C 240.752 47.833,240.509 48.077,240.240 48.375 M232.333 49.583 C 232.644 49.904,232.936 50.167,232.982 50.167 C 233.028 50.167,232.811 49.904,232.500 49.583 C 232.189 49.262,231.897 49.000,231.851 49.000 C 231.805 49.000,232.022 49.262,232.333 49.583 M233.075 55.917 C 233.075 59.033,233.097 60.285,233.125 58.698 C 233.152 57.111,233.152 54.561,233.125 53.031 C 233.097 51.501,233.075 52.800,233.075 55.917 M185.054 51.625 C 188.521 51.650,194.146 51.650,197.554 51.625 C 200.962 51.600,198.125 51.579,191.250 51.579 C 184.375 51.579,181.587 51.600,185.054 51.625 M92.942 54.125 C 92.900 54.194,96.788 54.250,101.583 54.250 C 106.378 54.250,110.267 54.194,110.224 54.125 C 110.182 54.056,106.293 54.000,101.583 54.000 C 96.873 54.000,92.985 54.056,92.942 54.125 M335.000 54.211 C 335.000 54.247,335.319 54.531,335.708 54.840 C 336.098 55.150,336.311 55.272,336.181 55.111 C 335.938 54.807,335.000 54.093,335.000 54.211 M133.131 55.085 C 133.225 55.270,133.478 55.569,133.693 55.751 C 134.070 56.069,134.069 56.063,133.669 55.582 C 133.005 54.783,132.950 54.731,133.131 55.085 M127.669 55.347 C 127.671 55.569,127.746 55.862,127.836 56.000 C 127.951 56.176,127.968 56.077,127.892 55.667 C 127.761 54.948,127.666 54.812,127.669 55.347 M148.667 56.332 L 162.917 56.417 162.917 59.026 C 162.917 60.461,162.973 61.600,163.042 61.558 C 163.317 61.387,163.185 56.376,162.903 56.268 C 162.758 56.212,156.289 56.185,148.528 56.207 L 134.417 56.247 148.667 56.332 M272.887 56.292 C 275.896 56.317,280.771 56.317,283.720 56.292 C 286.670 56.266,284.208 56.245,278.250 56.245 C 272.292 56.245,269.878 56.266,272.887 56.292 M129.333 58.885 C 129.333 58.914,129.577 59.158,129.875 59.427 L 130.417 59.917 129.927 59.375 C 129.471 58.870,129.333 58.757,129.333 58.885 M120.302 60.917 C 120.386 61.100,120.497 61.362,120.548 61.500 C 120.628 61.716,120.642 61.715,120.654 61.490 C 120.661 61.347,120.550 61.085,120.407 60.907 C 120.152 60.589,120.151 60.589,120.302 60.917 " stroke="none" fill="#e45e66" fill-rule="evenodd"></path><path id="path4" d="M203.706 41.374 L 203.667 46.331 191.208 46.375 L 178.750 46.419 191.214 46.459 C 201.125 46.492,203.694 46.457,203.758 46.290 C 203.802 46.174,203.817 43.905,203.792 41.248 L 203.745 36.417 203.706 41.374 M208.913 48.917 C 208.912 55.792,208.933 58.628,208.958 55.221 C 208.983 51.813,208.983 46.188,208.958 42.721 C 208.933 39.253,208.913 42.042,208.913 48.917 M293.167 38.052 C 293.167 38.081,293.410 38.325,293.708 38.594 L 294.250 39.083 293.760 38.542 C 293.304 38.037,293.167 37.923,293.167 38.052 M51.220 41.458 C 53.311 41.485,56.686 41.485,58.720 41.458 C 60.753 41.432,59.042 41.410,54.917 41.410 C 50.792 41.410,49.128 41.432,51.220 41.458 M71.386 41.458 C 73.478 41.485,76.853 41.485,78.886 41.458 C 80.920 41.432,79.208 41.410,75.083 41.410 C 70.958 41.410,69.295 41.432,71.386 41.458 M100.958 41.454 C 101.256 41.491,101.744 41.491,102.042 41.454 C 102.340 41.417,102.096 41.387,101.500 41.387 C 100.904 41.387,100.660 41.417,100.958 41.454 M142.042 41.458 C 145.869 41.483,152.131 41.483,155.958 41.458 C 159.785 41.433,156.654 41.413,149.000 41.413 C 141.346 41.413,138.215 41.433,142.042 41.458 M273.042 41.458 C 275.860 41.484,280.473 41.484,283.292 41.458 C 286.110 41.433,283.804 41.412,278.167 41.412 C 272.529 41.412,270.223 41.433,273.042 41.458 M62.415 51.583 L 62.417 61.583 64.959 61.590 L 67.500 61.597 65.001 61.544 L 62.503 61.491 62.458 51.537 L 62.413 41.583 62.415 51.583 M127.742 49.000 C 127.742 52.346,127.764 53.715,127.791 52.042 C 127.819 50.369,127.819 47.631,127.791 45.958 C 127.764 44.285,127.742 45.654,127.742 49.000 M260.575 48.917 C 260.575 51.942,260.597 53.203,260.625 51.719 C 260.652 50.235,260.652 47.760,260.625 46.219 C 260.597 44.678,260.575 45.892,260.575 48.917 M96.311 48.877 C 96.381 48.947,98.833 48.985,101.761 48.961 L 107.083 48.916 101.633 48.833 C 98.636 48.787,96.240 48.807,96.311 48.877 M238.241 55.750 C 238.242 58.867,238.264 60.118,238.291 58.531 C 238.319 56.944,238.319 54.394,238.291 52.864 C 238.264 51.335,238.241 52.633,238.241 55.750 M203.740 56.500 C 203.740 59.204,203.763 60.310,203.791 58.958 C 203.819 57.606,203.819 55.394,203.791 54.042 C 203.763 52.690,203.740 53.796,203.740 56.500 M262.333 58.885 C 262.333 58.914,262.577 59.158,262.875 59.427 L 263.417 59.917 262.927 59.375 C 262.471 58.870,262.333 58.757,262.333 58.885 M176.250 61.500 L 173.750 61.597 176.198 61.632 C 177.690 61.653,178.687 61.602,178.750 61.500 C 178.807 61.408,178.830 61.349,178.802 61.368 C 178.773 61.387,177.625 61.447,176.250 61.500 M84.042 61.624 C 84.844 61.655,86.156 61.655,86.958 61.624 C 87.760 61.594,87.104 61.569,85.500 61.569 C 83.896 61.569,83.240 61.594,84.042 61.624 M116.208 61.624 C 117.010 61.655,118.323 61.655,119.125 61.624 C 119.927 61.594,119.271 61.569,117.667 61.569 C 116.063 61.569,115.406 61.594,116.208 61.624 M141.792 61.625 C 145.665 61.650,152.002 61.650,155.875 61.625 C 159.748 61.600,156.579 61.580,148.833 61.580 C 141.087 61.580,137.919 61.600,141.792 61.625 M205.042 61.624 C 205.752 61.655,206.915 61.655,207.625 61.624 C 208.335 61.593,207.754 61.567,206.333 61.567 C 204.912 61.567,204.331 61.593,205.042 61.624 M234.383 61.624 C 235.097 61.655,236.222 61.655,236.883 61.624 C 237.543 61.592,236.958 61.566,235.583 61.567 C 234.208 61.567,233.668 61.593,234.383 61.624 M273.042 61.625 C 275.952 61.650,280.715 61.650,283.625 61.625 C 286.535 61.599,284.154 61.578,278.333 61.578 C 272.512 61.578,270.131 61.599,273.042 61.625 M307.875 61.624 C 308.585 61.655,309.748 61.655,310.458 61.624 C 311.169 61.593,310.587 61.567,309.167 61.567 C 307.746 61.567,307.165 61.593,307.875 61.624 " stroke="none" fill="#ec848c" fill-rule="evenodd"></path></g></svg>