<svg width="600" height="396" xmlns="http://www.w3.org/2000/svg">
 <defs>
  <linearGradient y2="0.80042" x2="0.97291" y1="0.04824" x1="-0.01563" id="paint0_linear">
   <stop stop-color="#00659C" offset="0"/>
   <stop stop-color="#F1FAFE" offset="0.5667"/>
   <stop stop-color="#5F84B2" offset="1"/>
  </linearGradient>
  <linearGradient y2="1.0013" x2="0.50001" y1="0.00002" x1="0.50001" id="paint1_linear">
   <stop stop-color="#CF8B4B" offset="0"/>
   <stop stop-color="#703952" offset="1"/>
  </linearGradient>
 </defs>
 <g>
  <title>background</title>
  <rect fill="none" id="canvas_background" height="602" width="802" y="-1" x="-1"/>
 </g>
 <g>
  <title>Layer 1</title>
  <path id="svg_1" fill="#DD9588" d="m43.1523,135.44c0,0 -0.7776,-2.506 1.1233,-5.445l0.1728,2.161l-1.2961,3.284z"/>
  <path id="svg_2" fill="#E2B674" d="m539.454,381.208c0.519,-0.864 1.037,-1.728 1.555,-2.679c3.629,-9.938 2.333,-16.073 0.692,-19.789c-6.481,-14.518 -24.193,-22.296 -63.161,-28.604c-2.852,-0.432 -20.651,-6.049 -27.649,-23.073c-4.58,-11.062 -1.988,-22.123 -0.173,-28.777c6.221,-23.505 20.132,-25.493 27.563,-44.85c6.134,-15.987 5.875,-38.715 -6.135,-55.652c-15.034,-21.259 -43.548,-26.444 -64.544,-22.209c-20.564,4.148 -34.734,18.061 -41.819,26.53c-4.061,-9.074 -11.06,-22.037 -22.983,-34.653c-28.946,-30.851 -73.271,-45.455 -113.535,-39.925c-45.016,6.222 -72.924,35.95 -86.922,50.9c-78.5405,83.91 -58.6677,212.584 -54.4339,236.953l570.0909,0c-29.896,-4.234 -76.813,-8.987 -118.546,-14.172z"/>
  <path id="svg_3" fill="#FFD494" d="m186.669,375.764c3.542,7.345 9.763,11.234 12.442,12.962c1.382,0.864 7.776,4.753 16.848,5.79c2.16,0.259 3.716,0.259 4.58,0.259c46.226,0 68.691,0.692 85.367,0.692c38.881,0 100.746,-0.173 182.311,-0.173c11.233,-6.049 58.841,-34.826 77.418,-97.391c1.296,-4.235 25.23,-90.651 -18.059,-140.859c-2.678,-3.111 -29.722,-33.703 -58.149,-26.53c-29.982,7.518 -34.043,50.467 -70.592,59.109c-15.553,3.716 -28.6,-0.778 -33.006,-2.333c-36.03,-12.79 -36.376,-51.245 -68.086,-61.788c-16.417,-5.444 -37.931,-0.864 -50.201,14.863c-17.194,21.95 -14.17,59.541 1.037,82.615c9.159,13.826 18.75,17.542 24.107,35.171c1.901,6.222 5.702,19.53 -0.173,33.789c-8.295,19.962 -29.204,26.53 -32.488,27.048c-38.709,6.222 -68.95,15.555 -74.048,33.53c-4.061,13.481 0.692,23.246 0.692,23.246z"/>
  <path id="svg_4" fill="#F89C53" d="m457.544,361.159c9.591,-1.382 12.528,-6.394 23.069,-6.049c8.554,0.259 10.11,3.716 20.305,6.049c5.53,1.297 22.465,5.185 31.797,-2.333c10.973,-8.987 11.232,-27.653 3.197,-41.048c-9.764,-16.073 -24.28,-23.591 -29.205,-38.801c-2.073,-6.394 -0.777,-8.814 -1.209,-18.147c-1.469,-32.665 -16.935,-68.528 -28.686,-68.01c-4.32,0.173 -7.258,5.185 -11.319,12.185c-5.616,9.506 -5.616,16.333 -8.986,34.999c-2.765,14.95 -4.061,22.468 -7.172,30.418c-4.493,11.666 -7.862,13.568 -14.256,25.407c-9.591,17.542 -20.305,37.159 -12.961,50.812c5.876,10.889 22.984,16.247 35.426,14.518z"/>
  <path id="svg_5" fill="#465477" d="m491.932,395.294c0,0 -14.688,-32.752 -11.837,-64.294c2.851,-31.628 6.221,-25.234 1.728,-53.233c-4.493,-27.998 -2.073,-48.911 -2.073,-48.911c0,0 -9.937,38.282 -3.629,60.405c6.307,22.122 -9.591,31.023 -8.468,65.417c1.123,34.394 -0.086,40.616 -0.086,40.616l24.365,0z"/>
  <path id="svg_6" fill="#465477" d="m481.218,321.149l31.624,-8.815l-32.747,18.925l1.123,-10.11z"/>
  <path id="svg_7" fill="#465477" d="m478.194,307.581l-23.761,-14.172l23.761,4.494l0,6.826l0,2.852z"/>
  <path id="svg_8" fill="#F26F6F" d="m553.624,347.679c22.524,0 40.783,-18.262 40.783,-40.789c0,-22.527 -18.259,-40.789 -40.783,-40.789c-22.523,0 -40.782,18.262 -40.782,40.789c0,22.527 18.259,40.789 40.782,40.789z"/>
  <path id="svg_9" fill="#465477" d="m554.662,318.902l31.796,-8.815l-32.833,18.925l1.037,-10.11z"/>
  <path id="svg_10" fill="#465477" d="m553.625,306.89l-23.848,-14.172l23.848,9.073l0,2.247l0,2.852z"/>
  <path id="svg_11" fill="#465477" d="m554.402,284.249l-7.603,111.045l13.651,0l-6.048,-111.045z"/>
  <path id="svg_12" fill="#FAB074" d="m206.023,379.652l-0.864,4.926l13.911,4.58l0.864,0.432c0.864,0.519 0.518,1.815 -0.518,1.901l-13.134,0.865c-2.074,0.172 -8.554,0.345 -10.109,-0.692c-1.728,-1.123 -1.383,-0.95 -1.642,-2.506l0.605,-3.284l0.778,-6.654l10.109,0.432z"/>
  <path id="svg_13" fill="#544A89" d="m195.223,384.405c0,0 -2.42,8.296 1.814,9.938c3.715,1.383 13.652,0.951 21.515,0.692c2.505,-0.087 6.998,-0.519 6.48,-2.593c-0.605,-2.333 -12.097,-5.271 -12.097,-5.271c0.519,0.172 2.333,0.777 2.938,0.95c1.469,0.519 -0.259,1.21 -2.246,1.296c-5.098,0.26 -19.441,0.605 -18.404,-5.012z"/>
  <path id="svg_14" fill="#453C73" d="m227.105,209.153c0,0 2.16,31.542 -6.48,86.503l-15.207,86.935l-9.936,-0.432c0,0 -0.951,-68.01 5.27,-89.614c-0.605,-15.296 -5.53,-27.913 -8.208,-41.48c-3.024,-3.198 -4.666,-7.346 -5.616,-10.889c-1.988,-6.827 -1.296,-20.221 2.592,-25.838c6.307,-9.42 11.578,-9.852 37.585,-5.185z"/>
  <path id="svg_15" fill="#403A65" d="m187.36,219.264c0,0 5.271,8.382 10.8,9.678c5.876,1.469 12.615,64.899 12.615,64.899l4.493,26.53c0,0 -3.974,-26.616 -9.504,-38.801c-2.16,-4.839 -7.949,-19.271 -12.701,-29.468c-2.074,-2.765 -3.889,-4.235 -5.271,-8.815c-2.765,-9.333 -1.21,-16.764 -0.432,-24.023z" opacity="0.4"/>
  <path id="svg_16" fill="#FAB074" d="m236.783,380.257l1.036,5.099l13.825,4.494l0.864,0.432c0.864,0.518 0.519,1.814 -0.518,1.901l-13.134,0.864c-2.073,0.173 -8.554,0.346 -10.109,-0.691c-1.728,-1.124 -1.382,-0.951 -1.642,-2.506l0.605,-3.284l-0.345,-6.827l9.418,0.518z"/>
  <path id="svg_17" fill="#544A89" d="m227.624,384.924c0,0 -2.247,8.469 1.987,10.111c3.715,1.382 13.652,0.95 21.515,0.691c2.505,-0.086 6.998,-0.519 6.48,-2.593c-0.605,-2.333 -12.097,-5.271 -12.097,-5.271c0.605,0.173 2.333,0.778 2.938,0.951c1.469,0.518 -0.259,1.209 -2.246,1.296c-5.098,0.259 -18.318,0.346 -18.577,-5.185z"/>
  <path id="svg_18" fill="#4B4C61" d="m441.127,395.38l-171.425,0c-7.776,0 -14.083,-6.308 -14.083,-14.086l0,-318.3576c0,-7.7775 6.307,-14.0859 14.083,-14.0859l171.425,0c7.777,0 14.084,6.3084 14.084,14.0859l0,318.3576c-0.086,7.778 -6.394,14.086 -14.084,14.086z"/>
  <path id="svg_19" fill="white" d="m433.869,71.8373l-156.995,0l0,161.9447l156.995,0l0,-161.9447z"/>
  <path id="svg_20" fill="#8FDD66" d="m355.501,220.041c26.532,0 48.041,-21.511 48.041,-48.047c0,-26.536 -21.509,-48.048 -48.041,-48.048c-26.532,0 -48.04,21.512 -48.04,48.048c0,26.536 21.508,48.047 48.04,48.047z"/>
  <path id="svg_21" stroke-linecap="round" stroke-miterlimit="10" stroke-width="12.8466" stroke="white" d="m335.628,174.759l18.923,12.271l20.737,-33.616"/>
  <path id="svg_22" fill="white" d="m255.446,327.543l0,-264.6066c0,-7.7775 6.307,-14.0859 14.084,-14.0859l147.75,0l-161.834,278.6925z" opacity="0.3"/>
  <path id="svg_23" fill="white" d="m433.696,250.114l-156.822,0l0,23.851l156.822,0l0,-23.851z" opacity="0.55"/>
  <path id="svg_24" fill="#544A89" d="m235.141,216.93c0,0 -3.716,-5.185 -20.823,-6.74c-5.185,-0.432 -11.319,-1.988 -11.319,-1.988c0,0 -2.938,1.21 -5.789,3.976c-1.556,1.555 -5.271,5.098 -6.221,13.308c-1.037,9.246 1.123,14.604 1.641,16.505c1.296,4.494 4.666,7.605 7.345,10.975c8.208,22.9 9.59,34.394 10.8,38.715c1.901,24.888 16.676,91.601 16.676,91.601l9.936,0c0,0 -2.678,-85.379 -2.678,-91.515c0,-13.481 -1.901,-37.505 -1.296,-54.442c1.555,-11.839 1.728,-18.061 1.728,-20.395z"/>
  <path id="svg_25" fill="white" d="m433.696,281.483l-156.822,0l0,23.851l156.822,0l0,-23.851z" opacity="0.55"/>
  <path id="svg_26" fill="white" d="m433.696,312.939l-156.822,0l0,23.851l156.822,0l0,-23.851z" opacity="0.55"/>
  <path id="svg_27" fill="#819ED2" d="m112.448,258.151l-30.4143,0l0,30.419l30.4143,0l0,-30.419z"/>
  <path id="svg_28" fill="#7894C5" d="m85.4036,288.483l-0.4321,-4.839l23.2425,0l0,4.839l1.987,0.087l0,-9.161l-27.6488,0l1.1233,9.074l1.7281,0z"/>
  <path id="svg_29" fill="#A0C8EA" d="m149.774,275.78l-37.412,0l0,30.419l37.412,0l0,-30.419z"/>
  <path id="svg_30" fill="#BAD7F0" d="m134.999,279.669l-2.419,24.024l-21.255,0l0,2.938l30.155,0l0,-3.803l8.294,0l0,-3.888l-12.01,0l1.728,-19.271l-4.493,0z"/>
  <path id="svg_31" fill="#6E82A8" d="m151.934,306.198l-44.93,0l0,30.419l44.93,0l0,-30.419z"/>
  <path id="svg_32" fill="#65779A" d="m116.163,306.198l0,17.629l15.639,0l-1.296,13.568l3.716,0l1.814,-17.111l-17.885,0l0,-14.086l-1.988,0z"/>
  <path id="svg_33" fill="#BAD7F0" d="m108.992,288.483l-30.4144,0l0,30.419l30.4144,0l0,-30.419z"/>
  <path id="svg_34" fill="#A0C8EA" d="m111.325,288.483l-21.083,27.567l-4.8385,-27.567l-3.3698,0.087l2.1601,28.517l26.0942,0l1.037,-28.604z"/>
  <path id="svg_35" fill="#7287AF" d="m107.004,318.988l-37.8443,0l0,16.851l37.8443,0l0,-16.851z"/>
  <path id="svg_36" fill="#697CA0" d="m69.1597,335.839c3.3697,0 37.8443,-14.431 37.8443,-14.431l0,14.431l-37.8443,0z"/>
  <path id="svg_37" fill="#3ABD9D" d="m433.697,348.456l-51.238,0l0,22.209l51.238,0l0,-22.209z"/>
  <path id="svg_38" fill="#02A4D3" d="m377.88,167.587l-102.129,0c-6.048,0 -10.973,-4.926 -10.973,-10.975l0,-54.27c0,-6.049 4.925,-10.9747 10.973,-10.9747l102.042,0c6.049,0 10.974,4.9257 10.974,10.9747l0,54.27c0.086,6.049 -4.839,10.975 -10.887,10.975z"/>
  <path id="svg_39" fill="#ECE9E7" d="m342.627,125.329l-69.123,0l0,12.962l69.123,0l0,-12.962z"/>
  <path id="svg_40" fill="#ECE9E7" d="m388.853,107.354l-124.249,0l0,12.963l124.249,0l0,-12.963z"/>
  <path id="svg_41" fill="#F6CA65" d="m380.645,348.456l-51.238,0l0,22.209l51.238,0l0,-22.209z"/>
  <path id="svg_42" fill="#F26F6F" d="m327.42,348.456l-51.237,0l0,22.209l51.237,0l0,-22.209z"/>
  <path id="svg_43" stroke-linecap="round" stroke-miterlimit="10" stroke-width="6.1195" stroke="#F26F6F" d="m319.212,38.999c-0.087,-19.2709 15.552,-34.91223 34.82,-34.99864c19.268,-0.08642 34.907,15.55494 34.994,34.82584"/>
  <path id="svg_44" stroke-linecap="round" stroke-miterlimit="10" stroke-width="6.1195" stroke="#F28282" d="m334.159,39.7767c0,-11.4069 9.246,-20.7399 20.651,-20.7399c11.405,0 20.737,9.2466 20.737,20.6535"/>
  <path id="svg_45" fill="#FF9D9D" d="m346.861,40.5545c0,-3.9751 3.197,-7.259 7.258,-7.259c3.974,0 7.258,3.1975 7.258,7.259l-14.516,0z"/>
  <path id="svg_46" fill="#FBAD83" d="m277.22,107.873c-1.037,-0.951 -3.37,2.074 -4.666,2.16c-0.346,0 0,0 -0.691,0c-0.173,0 -0.692,-0.518 -1.21,-0.518c-0.346,0 -0.864,0.259 -0.95,0.259c-0.432,0 -0.951,-0.518 -1.469,-0.518c-0.346,0 -0.951,0.518 -1.296,0.518c-0.432,0.086 -1.21,-0.346 -1.815,-0.173c-0.864,0.173 -1.037,0.519 -1.814,1.21c-3.024,2.506 -2.938,6.395 -4.148,7.864c-2.851,3.802 -12.615,8.901 -22.378,15.641c-4.58,3.111 -19.095,11.321 -19.095,11.321l-6.049,3.629c0,0 -13.479,-26.097 -16.676,-5.444c0,0 0.864,13.74 13.825,26.616c5.703,2.852 17.194,-6.74 26.094,-15.555l0.086,0.087l1.296,-1.383c6.135,-6.222 10.714,-11.666 10.714,-11.666l-0.086,-0.086c0.691,-0.778 10.109,-11.84 12.615,-14.518c1.901,-1.988 4.493,-3.63 6.221,-4.062c1.037,-0.259 3.283,-1.555 5.616,-2.852c1.642,-0.95 2.42,-2.506 3.111,-3.629c0.691,-1.037 -0.691,-1.037 -1.901,-0.605c-0.951,0.346 -3.37,1.642 -3.543,1.555c0.26,-0.432 0.778,-0.864 1.21,-1.296c1.037,-0.95 1.642,-1.728 2.333,-2.506c1.123,-1.21 1.642,-2.074 2.506,-2.852c0.691,-0.432 3.024,-2.419 2.16,-3.197z"/>
  <path id="svg_47" fill="#F071A9" d="m242.053,165.945c0.691,5.012 0.519,7.95 -3.629,12.617c-2.333,2.592 -1.382,8.382 -1.901,12.53c-0.777,6.827 -1.296,11.234 -0.864,17.37c0.087,0.777 0.173,11.32 -0.691,13.653c-1.555,4.321 -5.184,3.976 -10.8,4.235c-2.506,0.086 -5.271,0.173 -8.468,0.086c-22.551,-0.345 -28.859,-5.53 -28.859,-5.53c0,0 0.778,-4.753 3.975,-10.63c3.542,-6.394 6.135,-13.308 6.307,-17.974c1.21,-28.431 3.284,-44.678 8.122,-50.9c4.58,-6.74 11.319,-7.604 11.319,-7.604c0,0 13.047,-1.642 22.206,5.703c5.962,4.753 7.69,7.086 7.69,7.086l-8.122,14.778l4.32,0.864c0.086,0 -0.95,0.864 -0.605,3.716z"/>
  <path id="svg_48" fill="#FBAD83" d="m246.46,146.588l23.069,20.999l30.933,-0.519c0,0 3.629,-2.247 5.616,-2.679c1.296,-0.259 3.456,-0.259 5.53,0.692c0.086,2.16 -3.543,1.901 -3.543,1.901l3.197,0.259l7.517,0.346l-3.801,2.419c0,0 -4.752,3.198 -6.999,3.371c-1.555,0.172 -7.258,-0.951 -7.258,-0.951l-30.846,7c-1.21,0.259 -2.592,0.086 -3.629,-0.605l-27.822,-17.456l8.036,-14.777z"/>
  <path id="svg_49" fill="url(#paint0_linear)" d="m171.462,279.064c-0.864,-1.21 -2.247,-1.901 -3.716,-1.901l-121.5695,0l-3.2834,-14.259c-0.6912,-2.938 -3.1969,-4.926 -6.221,-4.926l-26.4395,0c-1.20965,0 -2.16009,0.951 -2.16009,2.161c0,1.209 0.95044,2.16 2.16009,2.16l26.4395,0c0.9504,0 1.8144,0.691 1.9872,1.642l3.629,15.901l0,0.086l9.0724,39.838l4.6658,20.481l0.0864,0l9.9364,37.85c0.6912,2.679 3.1969,4.58 5.9619,4.58l80.3548,0c1.21,0 2.161,-0.951 2.161,-2.16c0,-1.21 -0.951,-2.161 -2.161,-2.161l-80.3548,0c-0.8641,0 -1.6417,-0.605 -1.8145,-1.382l-9.5908,-36.814l91.3281,0c2.074,0 3.975,-1.383 4.58,-3.457l15.725,-53.491c0.432,-1.469 0.173,-2.938 -0.777,-4.148zm-13.652,38.023l-18.923,0l1.383,-15.901l22.206,0l-4.666,15.901zm-23.243,0l-21.341,0l0,-15.901l22.724,0l-1.383,15.901zm-25.575,-15.901l0,15.901l-22.1194,0l-1.3825,-15.901l23.5019,0zm-23.9339,-4.32l-1.3825,-15.469l25.3164,0l0,15.469l-23.9339,0zm-2.5057,20.221l-27.2171,0l-3.629,-15.901l29.4636,0l1.3825,15.901zm-26.2667,4.321l26.6987,0l1.2961,14.431l-24.625,0l-3.3698,-14.431zm30.9325,0l21.7738,0l0,14.431l-20.4778,0l-1.296,-14.431zm26.0078,0l20.996,0l-1.296,14.431l-19.7,0l0,-14.431zm0,-24.542l0,-15.469l24.538,0l-1.382,15.469l-23.156,0zm-33.8705,-15.383l1.3824,15.469l-30.0684,0l-3.5426,-15.469l32.2286,0zm73.0975,54.011c-0.087,0.172 -0.259,0.345 -0.519,0.345l-14.775,0l1.296,-14.431l18.059,0l-4.061,14.086zm15.639,-53.492l-4.407,14.95l-23.069,0l1.382,-15.469l25.748,0c0.173,0 0.26,0.087 0.346,0.173c0,0 0.086,0.173 0,0.346z"/>
  <path id="svg_50" stroke-linecap="round" stroke-miterlimit="10" stroke-width="7.4249" stroke="#737E9A" d="m152.453,380.517l-80.3556,0c-1.8145,0 -3.4561,-1.21 -3.8882,-3.025l-10.3684,-39.492l-17.2807,-75.442c-0.3456,-1.469 -1.6416,-2.506 -3.1105,-2.506l-26.0939,0"/>
  <path id="svg_51" fill="#86ACD5" d="m24.057,264.373l-20.65044,0c-2.4193,0 -4.40656,-1.988 -4.40656,-4.407c0,-2.42 1.98726,-4.407 4.40656,-4.407l20.65044,0l0,8.814z"/>
  <path id="svg_52" fill="#737E9A" d="m81.6883,395.294c3.6266,0 6.5666,-2.941 6.5666,-6.568c0,-3.627 -2.94,-6.567 -6.5666,-6.567c-3.6267,0 -6.5667,2.94 -6.5667,6.567c0,3.627 2.94,6.568 6.5667,6.568z"/>
  <path id="svg_53" fill="#737E9A" d="m139.06,395.294c3.627,0 6.567,-2.941 6.567,-6.568c0,-3.627 -2.94,-6.567 -6.567,-6.567c-3.627,0 -6.567,2.94 -6.567,6.567c0,3.627 2.94,6.568 6.567,6.568z"/>
  <path id="svg_54" fill="#9ABDE2" d="m81.6884,392.788c2.2428,0 4.0609,-1.819 4.0609,-4.062c0,-2.243 -1.8181,-4.061 -4.0609,-4.061c-2.2428,0 -4.061,1.818 -4.061,4.061c0,2.243 1.8182,4.062 4.061,4.062z"/>
  <path id="svg_55" fill="#9ABDE2" d="m139.06,392.788c2.243,0 4.061,-1.819 4.061,-4.062c0,-2.243 -1.818,-4.061 -4.061,-4.061c-2.243,0 -4.061,1.818 -4.061,4.061c0,2.243 1.818,4.062 4.061,4.062z"/>
  <path id="svg_56" fill="#D36396" d="m238.943,179.598c-2.333,2.507 -2.16,8.469 -2.42,12.531c-0.345,6.74 -0.864,13.481 -0.864,13.481c-0.172,5.876 -0.086,13.74 -0.864,20.135c-4.665,0.432 -10.627,0.691 -10.627,0.691c0,0 0,0.173 0,0.087c0,-1.469 3.11,-11.667 4.147,-30.851c1.037,-19.617 10.109,-34.221 10.109,-34.221l4.32,2.506c0,0 -1.468,0.951 -0.691,3.63c1.296,4.407 1.037,7.431 -3.11,12.011z"/>
  <path id="svg_57" stroke-linecap="round" stroke-miterlimit="10" stroke-width="0.5333" stroke="#9764A7" d="m187.101,222.807c0,0 9.504,6.827 37.845,5.271l2.505,23.851l6.048,50.294l2.333,80.454"/>
  <path id="svg_58" fill="#D36396" d="m191.767,145.55c0,0 0.777,22.728 18.058,23.333c29.55,1.037 25.403,-32.406 36.203,-22.9c0,0 -3.024,-3.63 -10.368,-8.642c0,0 -3.37,9.679 -10.974,13.308c-5.443,2.593 -25.143,4.666 -32.919,-5.099z"/>
  <path id="svg_59" stroke-linecap="round" stroke-miterlimit="10" stroke-width="0.5333" stroke="#F8BBD6" d="m237.474,141.403c5.011,2.765 7.863,5.876 7.863,5.876l-6.913,13.222"/>
  <path id="svg_60" stroke-linecap="round" stroke-miterlimit="10" stroke-width="0.5333" stroke="#9764A7" d="m194.963,230.325l3.802,11.58l4.148,2.074l5.27,-2.074l-0.691,-10.457l-12.529,-1.123z"/>
  <path id="svg_61" stroke-linecap="round" stroke-miterlimit="10" stroke-width="0.5333" stroke="#9764A7" d="m187.878,229.547l1.728,-0.086l0.259,9.074l-2.073,0.95l-0.951,-2.333l-0.345,-7.778l1.382,0.173z"/>
  <path id="svg_62" fill="#FCC197" d="m208.961,113.922c2.937,15.209 14.775,13.395 24.452,12.53c7.603,-1.469 6.999,-14.863 7.776,-25.32c-0.173,-2.5056 -0.605,-5.7895 -0.95,-8.1227c-1.815,-10.7156 -18.145,-8.296 -27.39,-3.8887c-7.517,3.7159 -6.135,13.3084 -3.888,24.8014z"/>
  <path id="svg_63" stroke-linecap="round" stroke-miterlimit="10" stroke-width="1.0228" stroke="white" d="m241.103,113.663c0.334,0 0.605,-2.67 0.605,-5.963c0,-3.293 -0.271,-5.963 -0.605,-5.963c-0.334,0 -0.605,2.67 -0.605,5.963c0,3.293 0.271,5.963 0.605,5.963z"/>
  <path id="svg_64" stroke-linecap="round" stroke-miterlimit="10" stroke-width="1.5253" stroke="white" d="m240.066,108.478l-11.492,0"/>
  <path id="svg_65" fill="url(#paint1_linear)" d="m197.815,166.809c13.479,6.827 31.191,-2.074 35.857,-13.308c4.752,-11.407 0.778,-25.147 -2.938,-31.888c-1.641,-2.938 -5.097,-11.407 -0.691,-14.864c3.024,-2.419 9.591,-4.839 10.196,-9.4189c0.691,-4.8393 -0.432,-6.7405 -2.42,-9.0737c-6.134,-7.1726 -21.946,-4.148 -29.55,4.4072c-6.048,6.8269 -12.355,18.0614 -16.157,27.0484c-6.221,14.604 -5.443,25.925 -4.925,30.505c0.864,6.654 2.506,12.53 10.628,16.592z"/>
  <path id="svg_66" fill="#633B2C" d="m187.965,133.02c0.605,0 -3.284,17.197 6.307,26.962c6.653,6.827 17.195,7.345 25.316,6.74c-2.246,1.037 -7.344,3.025 -13.997,2.334c-1.296,-0.173 -7.431,-0.778 -12.096,-4.58c-11.579,-9.247 -5.876,-29.987 -5.53,-31.456z"/>
  <rect id="svg_67" height="399" width="601" y="-1.55" x="0.5" stroke-width="1.5" stroke="#000" fill="#e02c2c"/>
 </g>
</svg>